<?xml version="1.0" encoding="utf-8"?>
<!-- Generator: Adobe Illustrator 23.0.1, SVG Export Plug-In . SVG Version: 6.00 Build 0)  -->
<svg version="1.1" id="Layer_1" xmlns="http://www.w3.org/2000/svg" xmlns:xlink="http://www.w3.org/1999/xlink" x="0px" y="0px"
	 viewBox="0 0 500 200" style="enable-background:new 0 0 500 200;" xml:space="preserve">
<style type="text/css">
	.st0{fill:#FDBA5B;}
	.st1{fill:#5C3A22;}
	.st2{fill:#FECD87;}
	.st3{opacity:0.4;}
	.st4{fill:#878787;}
	.st5{fill:#EA7A24;}
	.st6{fill:#F8941D;}
	.st7{fill:#303030;}
</style>
<g>
	<g>
		<g>
			<polygon class="st0" points="267.7,74 262.2,75.5 256.7,74 258.3,64 266.1,64 			"/>
		</g>
		<g>
			<g>
				<polygon class="st1" points="253.6,50.2 254.5,53.6 269.8,53.6 271.1,50.2 				"/>
			</g>
			<g>
				<polygon class="st2" points="270.8,52.4 270.8,57.9 269.8,57.9 269.8,60.9 265.4,68.1 259,68.1 254.6,60.9 254.6,57.9 
					253.6,57.9 253.6,52.4 254.6,52.4 254.6,47.8 269.8,47.8 269.8,52.4 				"/>
			</g>
			<g class="st3">
				<rect x="254.6" y="49.8" class="st4" width="15.1" height="2.6"/>
			</g>
			<g class="st3">
				<polygon class="st4" points="260.3,61 262.2,54.8 264.1,61 				"/>
			</g>
			<g>
				<g>
					<rect x="252.4" y="44.1" class="st5" width="2.5" height="3.4"/>
				</g>
				<g>
					<rect x="269.5" y="44.1" class="st5" width="2.5" height="3.4"/>
				</g>
				<g>
					<path class="st6" d="M271.3,47.6c0-0.1,0-0.2,0-0.4c0-5.1-4.1-9.2-9.2-9.2c-5.1,0-9.2,4.1-9.2,9.2c0,0.1,0,0.2,0,0.4H271.3z"/>
				</g>
				<g>
					<polygon class="st5" points="263.9,47.1 260.3,47.1 259,36.6 265.2,36.6 					"/>
				</g>
				<g>
					<path class="st5" d="M272.1,49c0,0.9-0.7,1.6-1.5,1.6h-16.8c-0.8,0-1.5-0.7-1.5-1.6l0,0c0-0.9,0-1.6,0-1.6H272
						C272,47.4,272.1,48.2,272.1,49L272.1,49z"/>
				</g>
			</g>
		</g>
		<polygon class="st2" points="239.8,87 235.4,98.3 224.2,94.1 220.1,95.9 237.9,108.7 245.8,90.9 		"/>
		<polygon class="st2" points="286.8,89.6 290.6,103.7 288.4,121.4 284.4,121.4 283.8,102.1 280.6,92.3 		"/>
		<g>
			<path class="st7" d="M288.1,88.7l-8.8,5.8l-1-2.9h-31.8l-1,2.9l-8.7-5l6.1-13l5.4-2.7l4.1-2.1l5.1-1.9c0,0,1.5,4.6,4.9,4.6
				c3.4,0,4.8-4.6,4.8-4.6l5.5,1.9l4.1,2.1l5.4,2.7L288.1,88.7z"/>
		</g>
		<g>
			<polygon class="st6" points="273.7,105.7 276.6,80.8 276.6,80.8 276.6,80.8 276.6,73.9 272.5,71.8 272.5,80.8 252.2,80.8 
				252.2,71.8 248.2,73.9 248.2,80.8 248.2,80.8 251.1,105.7 245.7,157.9 257.5,157.9 262.4,123.2 268.9,157.9 280.6,157.9 			"/>
		</g>
		<g>
			<rect x="254.4" y="84.1" class="st5" width="15.6" height="11"/>
		</g>
		<g>
			<polygon class="st7" points="280.8,157.9 280.7,170.5 283.8,175.8 278.4,181.5 272,177.7 271.4,173.6 271.1,170.9 268.9,157.9 
							"/>
		</g>
		<g class="st3">
			<polygon class="st4" points="272,177.7 271.2,171.6 280.7,170.5 283.8,175.8 278.4,181.5 			"/>
		</g>
		<g>
			<polygon class="st7" points="245.7,157.9 245.7,170.5 242.6,175.8 248,181.5 254.5,177.7 255,173.6 255.3,170.9 257.5,157.9 			
				"/>
		</g>
		<g class="st3">
			<polygon class="st4" points="254.5,177.7 255.2,171.6 245.7,170.5 242.6,175.8 248,181.5 			"/>
		</g>
	</g>
	<path class="st4" d="M219.1,100l4.2-17.3l3.7-2.1l-1.8-5.5l-0.9,3.7l-1.2,0.2l-0.9-2.2l1-4l-4.4,3.8l1.5,4l-4.6,18.9
		c-1.1,0.4-2,1.4-2.3,2.6c-0.5,2,0.7,4,2.7,4.5c2,0.5,4-0.7,4.5-2.7C220.8,102.4,220.2,100.9,219.1,100z M216.4,104.7
		c-0.9-0.2-1.5-1.2-1.3-2.1c0.2-0.9,1.2-1.5,2.1-1.3c0.9,0.2,1.5,1.2,1.3,2.1C218.3,104.3,217.4,104.9,216.4,104.7z"/>
	<polygon class="st2" points="224.2,94.1 224.2,87.7 216.1,85.6 214.1,94.1 220.1,95.9 	"/>
	<rect x="269.8" y="130.1" class="st7" width="34.7" height="19.3"/>
	<rect x="267.7" y="128.6" class="st4" width="38.9" height="10"/>
	<rect x="274.9" y="135.5" class="st6" width="3.3" height="6.6"/>
	<rect x="295" y="135.5" class="st6" width="3.3" height="6.6"/>
	<g>
		<polygon class="st4" points="295.8,128.6 294.2,128.6 294.2,124.7 279.1,124.7 279.1,128.6 277.5,128.6 277.5,123.2 295.8,123.2 
					"/>
	</g>
	<polygon class="st2" points="287.7,117.2 281.8,119.6 282.9,127.9 291.5,126.5 290.9,120.3 	"/>
</g>
</svg>
