<?xml version="1.0" encoding="utf-8"?>
<!-- Generator: Adobe Illustrator 23.0.1, SVG Export Plug-In . SVG Version: 6.00 Build 0)  -->
<svg version="1.1" id="Layer_1" xmlns="http://www.w3.org/2000/svg" xmlns:xlink="http://www.w3.org/1999/xlink" x="0px" y="0px"
	 viewBox="0 0 500 200" style="enable-background:new 0 0 500 200;" xml:space="preserve">
<style type="text/css">
	.st0{fill:#FDBA5B;}
	.st1{fill:#5C3A22;}
	.st2{fill:#FECD87;}
	.st3{opacity:0.4;}
	.st4{fill:#878787;}
	.st5{fill:#EA7A24;}
	.st6{fill:#F8941D;}
	.st7{fill:#303030;}
	.st8{fill:#FFFFFF;}
</style>
<g>
	<g>
		<g>
			<polygon class="st0" points="304.5,81.9 299.4,83.3 294.3,81.9 295.7,72.5 303.1,72.5 			"/>
		</g>
		<g>
			<g>
				<polygon class="st1" points="291.3,59.6 292.2,62.8 306.5,62.8 307.8,59.6 				"/>
			</g>
			<g>
				<polygon class="st2" points="307.4,61.6 307.4,66.8 306.5,66.8 306.5,69.6 302.3,76.3 296.4,76.3 292.3,69.6 292.3,66.8 
					291.3,66.8 291.3,61.6 292.3,61.6 292.3,57.3 306.5,57.3 306.5,61.6 				"/>
			</g>
			<g class="st3">
				<rect x="292.3" y="59.2" class="st4" width="14.2" height="2.4"/>
			</g>
			<g class="st3">
				<polygon class="st4" points="297.6,69.7 299.4,63.9 301.2,69.7 				"/>
			</g>
			<g>
				<g>
					<rect x="290.1" y="53.8" class="st5" width="2.3" height="3.2"/>
				</g>
				<g>
					<rect x="306.2" y="53.8" class="st5" width="2.3" height="3.2"/>
				</g>
				<g>
					<path class="st6" d="M307.9,57.1c0-0.1,0-0.2,0-0.3c0-4.7-3.8-8.6-8.6-8.6c-4.7,0-8.6,3.8-8.6,8.6c0,0.1,0,0.2,0,0.3H307.9z"/>
				</g>
				<g>
					<polygon class="st5" points="300.9,56.6 297.6,56.6 296.4,46.8 302.2,46.8 					"/>
				</g>
				<g>
					<path class="st5" d="M308.6,58.5c0,0.8-0.6,1.5-1.4,1.5h-15.7c-0.8,0-1.4-0.7-1.4-1.5l0,0c0-0.8,0-1.5,0-1.5h18.4
						C308.6,57,308.6,57.7,308.6,58.5L308.6,58.5z"/>
				</g>
			</g>
		</g>
		<g>
			<polygon class="st2" points="320.2,92.7 328.9,108.3 320.8,105.3 314.2,96.5 			"/>
		</g>
		<g>
			<polygon class="st2" points="278.6,92.7 272.3,106.7 284.3,115.9 278.2,105.3 284.6,96.5 			"/>
		</g>
		<g>
			<path class="st7" d="M323.6,95.7l-8.2,5.5l-1-2.7h-29.8l-1,2.7l-8.2-4.7l5.7-12.1l5-2.5l3.8-1.9l4.8-1.8c0,0,1.4,4.3,4.6,4.3
				s4.5-4.3,4.5-4.3l5.1,1.8l3.8,1.9l5,2.5L323.6,95.7z"/>
		</g>
		<g>
			<polygon class="st6" points="310.1,111.6 312.9,88.3 312.9,88.3 312.9,88.3 312.9,81.8 309.1,79.9 309.1,88.3 290,88.3 290,79.9 
				286.2,81.8 286.2,88.3 286.2,88.3 289,111.6 283.9,160.5 295,160.5 299.6,128 305.7,160.5 316.7,160.5 			"/>
		</g>
		<g>
			<rect x="292.1" y="91.3" class="st5" width="14.7" height="10.3"/>
		</g>
		<g>
			<polygon class="st7" points="316.8,160.5 316.7,172.3 319.6,177.3 314.6,182.6 308.5,179.1 308,175.2 307.7,172.7 305.7,160.5 
							"/>
		</g>
		<g class="st3">
			<polygon class="st4" points="308.5,179.1 307.8,173.4 316.7,172.3 319.6,177.3 314.6,182.6 			"/>
		</g>
		<g>
			<polygon class="st7" points="283.9,160.5 283.9,172.3 281,177.3 286.1,182.6 292.1,179.1 292.6,175.2 292.9,172.7 295,160.5 			
				"/>
		</g>
		<g class="st3">
			<polygon class="st4" points="292.1,179.1 292.9,173.4 283.9,172.3 281,177.3 286.1,182.6 			"/>
		</g>
	</g>
	<g>
		<g>
			<polygon class="st8" points="300.3,136.7 274.2,131.7 274.2,92.8 300.3,97.8 			"/>
			<path class="st4" d="M301,137.5l-27.5-5.2V91.9l27.5,5.2V137.5z M274.9,131.1l24.6,4.7V98.4l-24.6-4.7V131.1z"/>
		</g>
		<g>
			<polygon class="st8" points="300.3,136.7 326.4,131.7 326.4,92.8 300.3,97.8 			"/>
			<path class="st4" d="M299.6,137.5V97.2l27.5-5.2v40.4L299.6,137.5z M301,98.4v37.4l24.6-4.7V93.7L301,98.4z"/>
		</g>
	</g>
	<g>
		<polygon class="st2" points="272.3,106.7 275.7,104.8 279.5,109.2 275.7,113.8 271.6,111.7 		"/>
	</g>
	<g>
		<polygon class="st2" points="328.9,108.3 325.3,106.9 322.3,111.9 326.7,115.8 330.5,113 		"/>
	</g>
</g>
<g>
	<g>
		<g>
			<polygon class="st0" points="227.7,74 222.2,75.5 216.7,74 218.3,64 226.1,64 			"/>
		</g>
		<g>
			<g>
				<polygon class="st1" points="213.6,50.2 214.5,53.6 229.8,53.6 231.1,50.2 				"/>
			</g>
			<g>
				<polygon class="st2" points="230.8,52.4 230.8,57.9 229.8,57.9 229.8,60.9 225.4,68.1 219,68.1 214.6,60.9 214.6,57.9 
					213.6,57.9 213.6,52.4 214.6,52.4 214.6,47.8 229.8,47.8 229.8,52.4 				"/>
			</g>
			<g class="st3">
				<rect x="214.6" y="49.8" class="st4" width="15.1" height="2.6"/>
			</g>
			<g class="st3">
				<polygon class="st4" points="220.3,61 222.2,54.8 224.1,61 				"/>
			</g>
			<g>
				<g>
					<rect x="212.4" y="44.1" class="st5" width="2.5" height="3.4"/>
				</g>
				<g>
					<rect x="229.5" y="44.1" class="st5" width="2.5" height="3.4"/>
				</g>
				<g>
					<path class="st6" d="M231.3,47.6c0-0.1,0-0.2,0-0.4c0-5.1-4.1-9.2-9.2-9.2c-5.1,0-9.2,4.1-9.2,9.2c0,0.1,0,0.2,0,0.4H231.3z"/>
				</g>
				<g>
					<polygon class="st5" points="223.9,47.1 220.3,47.1 219,36.6 225.2,36.6 					"/>
				</g>
				<g>
					<path class="st5" d="M232.1,49c0,0.9-0.7,1.6-1.5,1.6h-16.8c-0.8,0-1.5-0.7-1.5-1.6l0,0c0-0.9,0-1.6,0-1.6H232
						C232,47.4,232.1,48.2,232.1,49L232.1,49z"/>
				</g>
			</g>
		</g>
		<polygon class="st2" points="199.8,87 195.4,98.3 184.2,94.1 180.1,95.9 197.9,108.7 205.8,90.9 		"/>
		<polygon class="st2" points="246.8,89.6 250.6,103.7 248.4,121.4 244.4,121.4 243.8,102.1 240.6,92.3 		"/>
		<g>
			<path class="st7" d="M248.1,88.7l-8.8,5.8l-1-2.9h-31.8l-1,2.9l-8.7-5l6.1-13l5.4-2.7l4.1-2.1l5.1-1.9c0,0,1.5,4.6,4.9,4.6
				c3.4,0,4.8-4.6,4.8-4.6l5.5,1.9l4.1,2.1l5.4,2.7L248.1,88.7z"/>
		</g>
		<g>
			<polygon class="st6" points="233.7,105.7 236.6,80.8 236.6,80.8 236.6,80.8 236.6,73.9 232.5,71.8 232.5,80.8 212.2,80.8 
				212.2,71.8 208.2,73.9 208.2,80.8 208.2,80.8 211.1,105.7 205.7,157.9 217.5,157.9 222.4,123.2 228.9,157.9 240.6,157.9 			"/>
		</g>
		<g>
			<rect x="214.4" y="84.1" class="st5" width="15.6" height="11"/>
		</g>
		<g>
			<polygon class="st7" points="240.8,157.9 240.7,170.5 243.8,175.8 238.4,181.5 232,177.7 231.4,173.6 231.1,170.9 228.9,157.9 
							"/>
		</g>
		<g class="st3">
			<polygon class="st4" points="232,177.7 231.2,171.6 240.7,170.5 243.8,175.8 238.4,181.5 			"/>
		</g>
		<g>
			<polygon class="st7" points="205.7,157.9 205.7,170.5 202.6,175.8 208,181.5 214.5,177.7 215,173.6 215.3,170.9 217.5,157.9 			
				"/>
		</g>
		<g class="st3">
			<polygon class="st4" points="214.5,177.7 215.2,171.6 205.7,170.5 202.6,175.8 208,181.5 			"/>
		</g>
	</g>
	<path class="st4" d="M179.1,100l4.2-17.3l3.7-2.1l-1.8-5.5l-0.9,3.7l-1.2,0.2l-0.9-2.2l1-4l-4.4,3.8l1.5,4l-4.6,18.9
		c-1.1,0.4-2,1.4-2.3,2.6c-0.5,2,0.7,4,2.7,4.5c2,0.5,4-0.7,4.5-2.7C180.8,102.4,180.2,100.9,179.1,100z M176.4,104.7
		c-0.9-0.2-1.5-1.2-1.3-2.1c0.2-0.9,1.2-1.5,2.1-1.3c0.9,0.2,1.5,1.2,1.3,2.1C178.3,104.3,177.4,104.9,176.4,104.7z"/>
	<polygon class="st2" points="184.2,94.1 184.2,87.7 176.1,85.6 174.1,94.1 180.1,95.9 	"/>
	<rect x="229.8" y="130.1" class="st7" width="34.7" height="19.3"/>
	<rect x="227.7" y="128.6" class="st4" width="38.9" height="10"/>
	<rect x="234.9" y="135.5" class="st6" width="3.3" height="6.6"/>
	<rect x="255" y="135.5" class="st6" width="3.3" height="6.6"/>
	<g>
		<polygon class="st4" points="255.8,128.6 254.2,128.6 254.2,124.7 239.1,124.7 239.1,128.6 237.5,128.6 237.5,123.2 255.8,123.2 
					"/>
	</g>
	<polygon class="st2" points="247.7,117.2 241.8,119.6 242.9,127.9 251.5,126.5 250.9,120.3 	"/>
</g>
</svg>
