<?xml version="1.0" encoding="utf-8"?>
<!-- Generator: Adobe Illustrator 23.0.1, SVG Export Plug-In . SVG Version: 6.00 Build 0)  -->
<svg version="1.1" id="Layer_1" xmlns="http://www.w3.org/2000/svg" xmlns:xlink="http://www.w3.org/1999/xlink" x="0px" y="0px"
	 viewBox="0 0 500 200" style="enable-background:new 0 0 500 200;" xml:space="preserve">
<style type="text/css">
	.st0{fill:#FDBA5B;}
	.st1{fill:#5C3A22;}
	.st2{fill:#FECD87;}
	.st3{opacity:0.4;}
	.st4{fill:#878787;}
	.st5{fill:#EA7A24;}
	.st6{fill:#F8941D;}
	.st7{fill:#303030;}
	.st8{fill:#FFFFFF;}
	.st9{opacity:0.4;fill:#878787;}
	.st10{fill:#EBB05A;}
	.st11{fill:#969696;}
</style>
<g>
	<g>
		<g>
			<polygon class="st0" points="345.5,81.9 340.4,83.3 335.3,81.9 336.7,72.5 344.1,72.5 			"/>
		</g>
		<g>
			<g>
				<polygon class="st1" points="332.3,59.6 333.2,62.8 347.5,62.8 348.8,59.6 				"/>
			</g>
			<g>
				<polygon class="st2" points="348.4,61.6 348.4,66.8 347.5,66.8 347.5,69.6 343.3,76.3 337.4,76.3 333.3,69.6 333.3,66.8 
					332.3,66.8 332.3,61.6 333.3,61.6 333.3,57.3 347.5,57.3 347.5,61.6 				"/>
			</g>
			<g class="st3">
				<rect x="333.3" y="59.2" class="st4" width="14.2" height="2.4"/>
			</g>
			<g class="st3">
				<polygon class="st4" points="338.6,69.7 340.4,63.9 342.2,69.7 				"/>
			</g>
			<g>
				<g>
					<rect x="331.1" y="53.8" class="st5" width="2.3" height="3.2"/>
				</g>
				<g>
					<rect x="347.2" y="53.8" class="st5" width="2.3" height="3.2"/>
				</g>
				<g>
					<path class="st6" d="M348.9,57.1c0-0.1,0-0.2,0-0.3c0-4.7-3.8-8.6-8.6-8.6c-4.7,0-8.6,3.8-8.6,8.6c0,0.1,0,0.2,0,0.3H348.9z"/>
				</g>
				<g>
					<polygon class="st5" points="341.9,56.6 338.6,56.6 337.4,46.8 343.2,46.8 					"/>
				</g>
				<g>
					<path class="st5" d="M349.6,58.5c0,0.8-0.6,1.5-1.4,1.5h-15.7c-0.8,0-1.4-0.7-1.4-1.5l0,0c0-0.8,0-1.5,0-1.5h18.4
						C349.6,57,349.6,57.7,349.6,58.5L349.6,58.5z"/>
				</g>
			</g>
		</g>
		<g>
			<polygon class="st2" points="361.2,92.7 369.9,108.3 361.8,105.3 355.2,96.5 			"/>
		</g>
		<g>
			<polygon class="st2" points="319.6,92.7 313.3,106.7 325.3,115.9 319.2,105.3 325.6,96.5 			"/>
		</g>
		<g>
			<path class="st7" d="M364.6,95.7l-8.2,5.5l-1-2.7h-29.8l-1,2.7l-8.2-4.7l5.7-12.1l5-2.5l3.8-1.9l4.8-1.8c0,0,1.4,4.3,4.6,4.3
				s4.5-4.3,4.5-4.3l5.1,1.8l3.8,1.9l5,2.5L364.6,95.7z"/>
		</g>
		<g>
			<polygon class="st6" points="351.1,111.6 353.9,88.3 353.9,88.3 353.9,88.3 353.9,81.8 350.1,79.9 350.1,88.3 331,88.3 331,79.9 
				327.2,81.8 327.2,88.3 327.2,88.3 330,111.6 324.9,160.5 336,160.5 340.6,128 346.7,160.5 357.7,160.5 			"/>
		</g>
		<g>
			<rect x="333.1" y="91.3" class="st5" width="14.7" height="10.3"/>
		</g>
		<g>
			<polygon class="st7" points="357.8,160.5 357.7,172.3 360.6,177.3 355.6,182.6 349.5,179.1 349,175.2 348.7,172.7 346.7,160.5 
							"/>
		</g>
		<g class="st3">
			<polygon class="st4" points="349.5,179.1 348.8,173.4 357.7,172.3 360.6,177.3 355.6,182.6 			"/>
		</g>
		<g>
			<polygon class="st7" points="324.9,160.5 324.9,172.3 322,177.3 327.1,182.6 333.1,179.1 333.6,175.2 333.9,172.7 336,160.5 			
				"/>
		</g>
		<g class="st3">
			<polygon class="st4" points="333.1,179.1 333.9,173.4 324.9,172.3 322,177.3 327.1,182.6 			"/>
		</g>
	</g>
	<g>
		<g>
			<polygon class="st8" points="341.3,136.7 315.2,131.7 315.2,92.8 341.3,97.8 			"/>
			<path class="st4" d="M342,137.5l-27.5-5.2V91.9l27.5,5.2V137.5z M315.9,131.1l24.6,4.7V98.4l-24.6-4.7V131.1z"/>
		</g>
		<g>
			<polygon class="st8" points="341.3,136.7 367.4,131.7 367.4,92.8 341.3,97.8 			"/>
			<path class="st4" d="M340.6,137.5V97.2l27.5-5.2v40.4L340.6,137.5z M342,98.4v37.4l24.6-4.7V93.7L342,98.4z"/>
		</g>
	</g>
	<g>
		<polygon class="st2" points="313.3,106.7 316.7,104.8 320.5,109.2 316.7,113.8 312.6,111.7 		"/>
	</g>
	<g>
		<polygon class="st2" points="369.9,108.3 366.3,106.9 363.3,111.9 367.7,115.8 371.5,113 		"/>
	</g>
</g>
<g>
	<g>
		<path class="st2" d="M154,102.4l0.9-4l-0.5-0.1l-1.8-0.3l-0.3-0.1l-0.4-0.7l-3-5.5l-1.4-2.6l-0.3-0.6l2.8-1.1l3.4-1.3l7.1-2.6
			l1.6,2.8l0.2,2.1l0,0.1l3.2,2.7l-1.4,2.3l0.8,4.7l-2.7,1.5l-1.2-0.2l-0.1,4C158.8,103.7,156,102.3,154,102.4z"/>
		<path class="st1" d="M151.9,97.2l0.7,0.7l1.8,0.3c0,0,0.8-3,0.9-3.5l-2.1-0.7l-0.5-1.7l1.3-1.5l1.2,0.6c0.6-2.2,0.6-4.8,0.5-4.6
			l-2.2-0.7l-6.3,2.3L151.9,97.2z"/>
		<path class="st9" d="M148.9,91.7c4.3-0.7,10.6-2.4,13.3-3.2l-0.2-2.1l-1.6-2.8l-7.1,2.6l-3.4,1.3c-0.9,0.6-1.8,1.1-2.5,1.6
			L148.9,91.7z"/>
		<g>
			<path class="st5" d="M162,84.2c0,0,2.1-0.8,2.8-0.5c0.6,0.2,2.7,1.6,1.6,2.1c-1.2,0.5-20.3,6.5-20.2,5.4c0.1-1.1-0.6-1.7,1.4-2.2
				L162,84.2z"/>
			<path class="st6" d="M146.9,89.8c0,0,3.2,0.4,8.3-1.3c4.5-1.5,8-3.5,8-3.5c-0.4-1.3-0.8-2.3-1.3-3.2c-0.1-0.3-0.3-0.5-0.5-0.7
				c-2.7-4-6.9-4.2-10.3-2.6c-3.4,1.6-5.3,5.1-4.9,8.6c0,0,0,0.1,0,0.1C146.3,88.1,146.5,88.9,146.9,89.8z"/>
			<path class="st5" d="M146.2,87.2C146.2,87.2,146.2,87.2,146.2,87.2c0.1-0.2,0.2-0.4,0.4-0.6c0.1-0.1,0.1-0.3,0.2-0.4
				c0.1-0.1,0.2-0.3,0.3-0.5c0.1-0.2,0.2-0.4,0.3-0.6c0.1-0.2,0.3-0.4,0.4-0.6c0.1-0.1,0.1-0.2,0.2-0.3c0.1-0.1,0.2-0.2,0.2-0.3
				c0.2-0.2,0.3-0.4,0.5-0.6c0.2-0.2,0.4-0.4,0.6-0.6c0.2-0.2,0.4-0.4,0.6-0.6c0.2-0.2,0.5-0.4,0.7-0.6c0.1-0.1,0.3-0.2,0.4-0.2
				l0.2-0.1l0.2-0.1c0.1-0.1,0.3-0.1,0.4-0.2c0.1-0.1,0.3-0.1,0.4-0.2c0.3-0.1,0.6-0.2,0.9-0.3c0.1,0,0.3-0.1,0.5-0.1l0.2-0.1l0.2,0
				c0.2,0,0.3,0,0.5-0.1c0.2,0,0.3,0,0.5,0c0.6,0,1.2,0,1.8,0.1c0.3,0,0.6,0.1,0.9,0.2c0.3,0.1,0.6,0.1,0.8,0.2
				c0.5,0.1,1,0.3,1.5,0.5c0.5,0.2,0.9,0.3,1.3,0.5c0.2,0.1,0.4,0.2,0.6,0.3c-0.1-0.3-0.3-0.5-0.5-0.7c-0.3-0.2-0.7-0.4-1.1-0.7
				c-0.5-0.2-0.9-0.5-1.5-0.7c-0.3-0.1-0.6-0.2-0.9-0.3c-0.3-0.1-0.6-0.2-0.9-0.2c-0.6-0.2-1.3-0.2-2-0.2c-0.7,0-1.4,0.1-2.1,0.3
				c-0.3,0.1-0.7,0.2-1,0.4c-0.2,0.1-0.3,0.1-0.5,0.2c-0.2,0.1-0.3,0.2-0.5,0.3l-0.2,0.1l-0.2,0.2c-0.1,0.1-0.3,0.2-0.4,0.3
				c-0.3,0.2-0.5,0.5-0.8,0.7c-0.2,0.2-0.4,0.5-0.6,0.7c-0.2,0.3-0.4,0.5-0.5,0.8c-0.2,0.2-0.3,0.5-0.5,0.7
				c-0.1,0.1-0.1,0.2-0.2,0.4c-0.1,0.1-0.1,0.2-0.2,0.4c-0.1,0.2-0.2,0.5-0.3,0.7c-0.1,0.2-0.2,0.4-0.2,0.6
				c-0.1,0.2-0.1,0.4-0.2,0.5c-0.1,0.2-0.1,0.3-0.1,0.5c-0.1,0.2-0.1,0.4-0.2,0.6C146.2,87.1,146.2,87.2,146.2,87.2z"/>
			<path class="st5" d="M157.8,87.6c0,0-0.3-1.9-0.8-2c-0.4-0.1-4.4,1-4.6,1.3c-0.2,0.3,0.3,2.6,0.5,2.7L157.8,87.6z"/>
		</g>
	</g>
	<path class="st10" d="M157.4,115.2l15.7-4.8l9.2-11.9l-1.8-3l-10.6,10.4c0,0-15.7,2.9-15.8,2.9L157.4,115.2z"/>
	<polygon class="st11" points="177.1,77.1 176.9,67.7 180.6,67.7 181.1,68.9 178.4,69 178.6,77.1 182.1,77.1 182.2,77.2 185.3,77.2 
		185.3,89.8 184,89.8 183.8,78.3 177.1,78.4 177.1,77.5 177.1,77.5 177.1,77.5 177.1,77.1 	"/>
	<g>
		<path class="st5" d="M141.4,154.8l4.8-19.7l0.1-0.2c1.1,2.4,4.5,9.5,6.9,14.5l-3.7,8.8l-6.4,7.2l-9.5-0.9L141.4,154.8z"/>
		<polygon class="st7" points="133.6,164.6 143.1,165.6 136.8,174.5 141.1,176.8 142,180.9 126.7,176.8 		"/>
		<polygon class="st2" points="162.9,123.3 162.8,123.8 162.9,123.3 		"/>
		<polygon class="st2" points="161.7,128.9 160.5,134.3 162.8,123.8 		"/>
		<path class="st2" d="M156.3,163.6c0-4.9-0.1-9-0.2-8.8C156.2,154.6,156.3,158.1,156.3,163.6z"/>
		<path class="st7" d="M163.2,119.1l-7.6,2.1l-3.9-14.1l10.1-1.4c0,0,2.1,3,3.1,6.3L163.2,119.1z"/>
		<path class="st7" d="M154.7,100.7c1.8,0.8,4.3,1.9,6.2,2.8l0,0l0,0l-9.1,0.6L154.7,100.7z"/>
		<path class="st6" d="M145.9,134.1l3.9-12.7l-1.5-13.1l3.5-4.1l9.1-0.6l1,2.1l-10.1,1.4l3.9,14.1l7.6-2.1l-0.4,4.2l0,0.5l-2.3,10.5
			l4.6,15.4l-1,15.7l0-0.7h-7.8c0,0.3,0,0.6,0,1h0c0-0.7,0-1.3,0-2c0-5.5-0.1-9-0.2-8.8c-0.1,0.2-1.3-2.2-2.9-5.4
			c-2.5-5-5.8-12.1-6.9-14.5C146,134.4,145.9,134.1,145.9,134.1z"/>
		<path class="st7" d="M164.1,164.6l0,0.7l-0.6,9.7l5.6,2.4l1.7,3.6l-14.4-1.1c0,0,0-5.8,0-11.8c0-0.9,0-1.7,0-2.5c0-0.3,0-0.6,0-1
			H164.1z"/>
	</g>
	<rect x="185.9" y="62.1" class="st1" width="20.6" height="118.1"/>
	<polygon class="st9" points="185.9,69.3 185.9,180.2 194.8,180.2 200.7,68.9 	"/>
	<g>
		<path class="st5" d="M179,69.2c0-1.6,1.3-3,2.9-3l0,0l15.7-0.2l0.1,6L182,72.1l0,0C180.4,72.1,179,70.8,179,69.2z"/>
		<path class="st6" d="M194.7,69c0,1.6,1.4,3,3,2.9c1.6,0,3-1.4,2.9-3c0-1.6-1.4-3-3-2.9C196,66,194.7,67.3,194.7,69z"/>
	</g>
	<path class="st2" d="M154.6,110l2.9,16.1l13.7,10.3l3.2-1.4l-12-11.5c0,0-0.5-10-0.8-13L154.6,110z"/>
	<g>
		<path class="st4" d="M168.5,149.2l1.2-0.1c0,0-0.5-4.9,1.9-7.5c1.1-1.2,2.6-1.8,4.5-1.8c1.9,0,3.4,0.6,4.5,1.8
			c2.4,2.7,1.9,7.5,1.9,7.5l1.2,0.1c0-0.2,0.6-5.4-2.2-8.5c-1.3-1.5-3.1-2.2-5.4-2.2c-2.3,0-4.1,0.7-5.4,2.2
			C168,143.8,168.5,149,168.5,149.2z"/>
	</g>
	<g>
		<path class="st7" d="M169.1,160.7c0,0,2.4,2,7,2c4.6,0,7-2,7-2v-12.9h-14V160.7z"/>
	</g>
	<polygon class="st2" points="174.3,134.9 179.8,137 178.1,143.6 170.9,138.9 170.8,136.1 	"/>
	<rect x="183.4" y="85.6" class="st6" width="3.7" height="16"/>
	<polygon class="st10" points="180.4,95.8 182.2,91.8 188.4,89.8 188.4,97.6 184.8,99.3 181.3,99.8 	"/>
	<path class="st7" d="M169.1,147.8c0,0.6,3.1,1,7,1c3.9,0,7-0.4,7-1c0-0.6-3.1-1-7-1C172.3,146.8,169.1,147.2,169.1,147.8z"/>
	<path class="st4" d="M169.7,148.2c0,0.6,2.9,1,6.4,1c3.6,0,6.4-0.4,6.4-1c0-0.6-2.9-1-6.4-1C172.6,147.2,169.7,147.6,169.7,148.2z"
		/>
</g>
<g>
	<g>
		<g>
			<polygon class="st0" points="268.7,74 263.2,75.5 257.7,74 259.3,64 267.1,64 			"/>
		</g>
		<g>
			<g>
				<polygon class="st1" points="254.6,50.2 255.5,53.6 270.8,53.6 272.1,50.2 				"/>
			</g>
			<g>
				<polygon class="st2" points="271.8,52.4 271.8,57.9 270.8,57.9 270.8,60.9 266.4,68.1 260,68.1 255.6,60.9 255.6,57.9 
					254.6,57.9 254.6,52.4 255.6,52.4 255.6,47.8 270.8,47.8 270.8,52.4 				"/>
			</g>
			<g class="st3">
				<rect x="255.6" y="49.8" class="st4" width="15.1" height="2.6"/>
			</g>
			<g class="st3">
				<polygon class="st4" points="261.3,61 263.2,54.8 265.1,61 				"/>
			</g>
			<g>
				<g>
					<rect x="253.4" y="44.1" class="st5" width="2.5" height="3.4"/>
				</g>
				<g>
					<rect x="270.5" y="44.1" class="st5" width="2.5" height="3.4"/>
				</g>
				<g>
					<path class="st6" d="M272.3,47.6c0-0.1,0-0.2,0-0.4c0-5.1-4.1-9.2-9.2-9.2c-5.1,0-9.2,4.1-9.2,9.2c0,0.1,0,0.2,0,0.4H272.3z"/>
				</g>
				<g>
					<polygon class="st5" points="264.9,47.1 261.3,47.1 260,36.6 266.2,36.6 					"/>
				</g>
				<g>
					<path class="st5" d="M273.1,49c0,0.9-0.7,1.6-1.5,1.6h-16.8c-0.8,0-1.5-0.7-1.5-1.6l0,0c0-0.9,0-1.6,0-1.6H273
						C273,47.4,273.1,48.2,273.1,49L273.1,49z"/>
				</g>
			</g>
		</g>
		<polygon class="st2" points="240.8,87 236.4,98.3 225.2,94.1 221.1,95.9 238.9,108.7 246.8,90.9 		"/>
		<polygon class="st2" points="287.8,89.6 291.6,103.7 289.4,121.4 285.4,121.4 284.8,102.1 281.6,92.3 		"/>
		<g>
			<path class="st7" d="M289.1,88.7l-8.8,5.8l-1-2.9h-31.8l-1,2.9l-8.7-5l6.1-13l5.4-2.7l4.1-2.1l5.1-1.9c0,0,1.5,4.6,4.9,4.6
				c3.4,0,4.8-4.6,4.8-4.6l5.5,1.9l4.1,2.1l5.4,2.7L289.1,88.7z"/>
		</g>
		<g>
			<polygon class="st6" points="274.7,105.7 277.6,80.8 277.6,80.8 277.6,80.8 277.6,73.9 273.5,71.8 273.5,80.8 253.2,80.8 
				253.2,71.8 249.2,73.9 249.2,80.8 249.2,80.8 252.1,105.7 246.7,157.9 258.5,157.9 263.4,123.2 269.9,157.9 281.6,157.9 			"/>
		</g>
		<g>
			<rect x="255.4" y="84.1" class="st5" width="15.6" height="11"/>
		</g>
		<g>
			<polygon class="st7" points="281.8,157.9 281.7,170.5 284.8,175.8 279.4,181.5 273,177.7 272.4,173.6 272.1,170.9 269.9,157.9 
							"/>
		</g>
		<g class="st3">
			<polygon class="st4" points="273,177.7 272.2,171.6 281.7,170.5 284.8,175.8 279.4,181.5 			"/>
		</g>
		<g>
			<polygon class="st7" points="246.7,157.9 246.7,170.5 243.6,175.8 249,181.5 255.5,177.7 256,173.6 256.3,170.9 258.5,157.9 			
				"/>
		</g>
		<g class="st3">
			<polygon class="st4" points="255.5,177.7 256.2,171.6 246.7,170.5 243.6,175.8 249,181.5 			"/>
		</g>
	</g>
	<path class="st4" d="M220.1,100l4.2-17.3l3.7-2.1l-1.8-5.5l-0.9,3.7l-1.2,0.2l-0.9-2.2l1-4l-4.4,3.8l1.5,4l-4.6,18.9
		c-1.1,0.4-2,1.4-2.3,2.6c-0.5,2,0.7,4,2.7,4.5c2,0.5,4-0.7,4.5-2.7C221.8,102.4,221.2,100.9,220.1,100z M217.4,104.7
		c-0.9-0.2-1.5-1.2-1.3-2.1c0.2-0.9,1.2-1.5,2.1-1.3c0.9,0.2,1.5,1.2,1.3,2.1C219.3,104.3,218.4,104.9,217.4,104.7z"/>
	<polygon class="st2" points="225.2,94.1 225.2,87.7 217.1,85.6 215.1,94.1 221.1,95.9 	"/>
	<rect x="270.8" y="130.1" class="st7" width="34.7" height="19.3"/>
	<rect x="268.7" y="128.6" class="st4" width="38.9" height="10"/>
	<rect x="275.9" y="135.5" class="st6" width="3.3" height="6.6"/>
	<rect x="296" y="135.5" class="st6" width="3.3" height="6.6"/>
	<g>
		<polygon class="st4" points="296.8,128.6 295.2,128.6 295.2,124.7 280.1,124.7 280.1,128.6 278.5,128.6 278.5,123.2 296.8,123.2 
					"/>
	</g>
	<polygon class="st2" points="288.7,117.2 282.8,119.6 283.9,127.9 292.5,126.5 291.9,120.3 	"/>
</g>
</svg>
