<?xml version="1.0" encoding="utf-8"?>
<!-- Generator: Adobe Illustrator 23.0.1, SVG Export Plug-In . SVG Version: 6.00 Build 0)  -->
<svg version="1.1" id="Layer_1" xmlns="http://www.w3.org/2000/svg" xmlns:xlink="http://www.w3.org/1999/xlink" x="0px" y="0px"
	 viewBox="0 0 500 200" style="enable-background:new 0 0 500 200;" xml:space="preserve">
<style type="text/css">
	.st0{fill:#FDBA5B;}
	.st1{fill:#5C3A22;}
	.st2{fill:#FECD87;}
	.st3{opacity:0.4;}
	.st4{fill:#878787;}
	.st5{fill:#EA7A24;}
	.st6{fill:#F8941D;}
	.st7{fill:#303030;}
	.st8{fill:#FFFFFF;}
	.st9{opacity:0.4;fill:#878787;}
	.st10{fill:#EBB05A;}
	.st11{fill:#969696;}
</style>
<g>
	<g>
		<g>
			<polygon class="st0" points="363.5,81.9 358.4,83.3 353.3,81.9 354.7,72.5 362.1,72.5 			"/>
		</g>
		<g>
			<g>
				<polygon class="st1" points="350.3,59.6 351.2,62.8 365.5,62.8 366.8,59.6 				"/>
			</g>
			<g>
				<polygon class="st2" points="366.4,61.6 366.4,66.8 365.5,66.8 365.5,69.6 361.3,76.3 355.4,76.3 351.3,69.6 351.3,66.8 
					350.3,66.8 350.3,61.6 351.3,61.6 351.3,57.3 365.5,57.3 365.5,61.6 				"/>
			</g>
			<g class="st3">
				<rect x="351.3" y="59.2" class="st4" width="14.2" height="2.4"/>
			</g>
			<g class="st3">
				<polygon class="st4" points="356.6,69.7 358.4,63.9 360.2,69.7 				"/>
			</g>
			<g>
				<g>
					<rect x="349.1" y="53.8" class="st5" width="2.3" height="3.2"/>
				</g>
				<g>
					<rect x="365.2" y="53.8" class="st5" width="2.3" height="3.2"/>
				</g>
				<g>
					<path class="st6" d="M366.9,57.1c0-0.1,0-0.2,0-0.3c0-4.7-3.8-8.6-8.6-8.6c-4.7,0-8.6,3.8-8.6,8.6c0,0.1,0,0.2,0,0.3H366.9z"/>
				</g>
				<g>
					<polygon class="st5" points="359.9,56.6 356.6,56.6 355.4,46.8 361.2,46.8 					"/>
				</g>
				<g>
					<path class="st5" d="M367.6,58.5c0,0.8-0.6,1.5-1.4,1.5h-15.7c-0.8,0-1.4-0.7-1.4-1.5l0,0c0-0.8,0-1.5,0-1.5h18.4
						C367.6,57,367.6,57.7,367.6,58.5L367.6,58.5z"/>
				</g>
			</g>
		</g>
		<g>
			<polygon class="st2" points="379.2,92.7 387.9,108.3 379.8,105.3 373.2,96.5 			"/>
		</g>
		<g>
			<polygon class="st2" points="337.6,92.7 331.3,106.7 343.3,115.9 337.2,105.3 343.6,96.5 			"/>
		</g>
		<g>
			<path class="st7" d="M382.6,95.7l-8.2,5.5l-1-2.7h-29.8l-1,2.7l-8.2-4.7l5.7-12.1l5-2.5l3.8-1.9l4.8-1.8c0,0,1.4,4.3,4.6,4.3
				s4.5-4.3,4.5-4.3l5.1,1.8l3.8,1.9l5,2.5L382.6,95.7z"/>
		</g>
		<g>
			<polygon class="st6" points="369.1,111.6 371.9,88.3 371.9,88.3 371.9,88.3 371.9,81.8 368.1,79.9 368.1,88.3 349,88.3 349,79.9 
				345.2,81.8 345.2,88.3 345.2,88.3 348,111.6 342.9,160.5 354,160.5 358.6,128 364.7,160.5 375.7,160.5 			"/>
		</g>
		<g>
			<rect x="351.1" y="91.3" class="st5" width="14.7" height="10.3"/>
		</g>
		<g>
			<polygon class="st7" points="375.8,160.5 375.7,172.3 378.6,177.3 373.6,182.6 367.5,179.1 367,175.2 366.7,172.7 364.7,160.5 
							"/>
		</g>
		<g class="st3">
			<polygon class="st4" points="367.5,179.1 366.8,173.4 375.7,172.3 378.6,177.3 373.6,182.6 			"/>
		</g>
		<g>
			<polygon class="st7" points="342.9,160.5 342.9,172.3 340,177.3 345.1,182.6 351.1,179.1 351.6,175.2 351.9,172.7 354,160.5 			
				"/>
		</g>
		<g class="st3">
			<polygon class="st4" points="351.1,179.1 351.9,173.4 342.9,172.3 340,177.3 345.1,182.6 			"/>
		</g>
	</g>
	<g>
		<g>
			<polygon class="st8" points="359.3,136.7 333.2,131.7 333.2,92.8 359.3,97.8 			"/>
			<path class="st4" d="M360,137.5l-27.5-5.2V91.9l27.5,5.2V137.5z M333.9,131.1l24.6,4.7V98.4l-24.6-4.7V131.1z"/>
		</g>
		<g>
			<polygon class="st8" points="359.3,136.7 385.4,131.7 385.4,92.8 359.3,97.8 			"/>
			<path class="st4" d="M358.6,137.5V97.2l27.5-5.2v40.4L358.6,137.5z M360,98.4v37.4l24.6-4.7V93.7L360,98.4z"/>
		</g>
	</g>
	<g>
		<polygon class="st2" points="331.3,106.7 334.7,104.8 338.5,109.2 334.7,113.8 330.6,111.7 		"/>
	</g>
	<g>
		<polygon class="st2" points="387.9,108.3 384.3,106.9 381.3,111.9 385.7,115.8 389.5,113 		"/>
	</g>
</g>
<g>
	<g>
		<path class="st2" d="M221.2,90.8l-1-4.7l0.6-0.1l2.1-0.4l0.4-0.1l0.4-0.8l3.5-6.4l1.7-3l0.4-0.7l-3.3-1.2l-4-1.5l-8.2-3.1L212,72
			l-0.2,2.5l0,0.1l-3.7,3.1l1.6,2.7l-1,5.5l3.1,1.7l1.4-0.3l0.6,4.4C216.2,91.9,219,90.6,221.2,90.8z"/>
		<path class="st1" d="M223.7,84.7l-0.8,0.8l-2.1,0.4c0,0-0.9-3.5-1-4.1l2.4-0.8l0.6-2l-1.5-1.7l-1.4,0.7c-0.6-2.6-0.7-5.6-0.5-5.3
			l2.6-0.8l7.3,2.8L223.7,84.7z"/>
		<path class="st9" d="M228.9,75.3c-0.9-0.6-1.8-1.2-2.9-1.9l-4-1.5l-8.2-3.1L212,72l-0.2,2.5c3.2,0.9,10.4,3,15.5,3.8L228.9,75.3z"
			/>
		<g>
			<path class="st5" d="M212.1,69.5c0,0-2.4-0.9-3.3-0.6c-0.7,0.3-3.2,1.8-1.9,2.5c1.3,0.6,23.6,7.7,23.4,6.4
				c-0.2-1.3,0.7-1.9-1.6-2.6L212.1,69.5z"/>
			<path class="st6" d="M229.6,76.1c0,0-3.7,0.5-9.6-1.6c-5.2-1.8-9.2-4.1-9.2-4.1c0.4-1.5,1-2.7,1.6-3.8c0.2-0.3,0.3-0.6,0.5-0.8
				c3.2-4.6,8.1-4.8,12-2.9c3.9,1.9,6.1,6,5.6,10.1c0,0.1,0,0.1,0,0.2C230.3,74.2,230,75.2,229.6,76.1z"/>
			<path class="st5" d="M230.4,73.2C230.4,73.2,230.4,73.2,230.4,73.2c-0.1-0.2-0.2-0.4-0.4-0.7c-0.1-0.2-0.2-0.3-0.3-0.5
				c-0.1-0.2-0.2-0.4-0.3-0.6c-0.1-0.2-0.2-0.4-0.4-0.6c-0.1-0.2-0.3-0.5-0.5-0.7c-0.1-0.1-0.2-0.2-0.2-0.4
				c-0.1-0.1-0.2-0.2-0.3-0.4c-0.2-0.2-0.4-0.5-0.6-0.8c-0.2-0.2-0.4-0.5-0.6-0.7c-0.2-0.2-0.5-0.5-0.7-0.7
				c-0.3-0.2-0.5-0.4-0.8-0.7c-0.1-0.1-0.3-0.2-0.4-0.3l-0.2-0.2l-0.2-0.1c-0.2-0.1-0.3-0.2-0.5-0.3c-0.2-0.1-0.3-0.1-0.5-0.2
				c-0.3-0.2-0.7-0.2-1-0.4c-0.2,0-0.4-0.1-0.5-0.1l-0.3-0.1l-0.3,0c-0.2,0-0.4-0.1-0.5-0.1c-0.2,0-0.4,0-0.5,0
				c-0.7,0-1.4,0-2.1,0.1c-0.3,0-0.7,0.1-1,0.2c-0.3,0.1-0.7,0.1-1,0.2c-0.6,0.2-1.2,0.4-1.8,0.6c-0.5,0.2-1,0.4-1.5,0.6
				c-0.2,0.1-0.5,0.2-0.7,0.3c0.2-0.3,0.3-0.6,0.5-0.8c0.4-0.2,0.8-0.5,1.3-0.8c0.5-0.3,1.1-0.6,1.8-0.8c0.3-0.1,0.7-0.2,1-0.4
				c0.4-0.1,0.7-0.2,1.1-0.3c0.7-0.2,1.5-0.2,2.4-0.3c0.8,0,1.7,0.1,2.5,0.3c0.4,0.1,0.8,0.2,1.2,0.4c0.2,0.1,0.4,0.2,0.6,0.3
				c0.2,0.1,0.4,0.2,0.5,0.3l0.3,0.2l0.2,0.2c0.2,0.1,0.3,0.2,0.5,0.4c0.3,0.3,0.6,0.5,0.9,0.8c0.3,0.3,0.5,0.6,0.7,0.9
				c0.2,0.3,0.4,0.6,0.6,0.9c0.2,0.3,0.3,0.6,0.5,0.9c0.1,0.1,0.2,0.3,0.2,0.4c0.1,0.1,0.1,0.3,0.2,0.4c0.1,0.3,0.2,0.5,0.4,0.8
				c0.1,0.3,0.2,0.5,0.3,0.7c0.1,0.2,0.2,0.4,0.2,0.6c0.1,0.2,0.1,0.4,0.2,0.6c0.1,0.3,0.1,0.5,0.2,0.7
				C230.5,73.1,230.5,73.1,230.4,73.2z"/>
			<path class="st5" d="M217,73.5c0,0,0.4-2.2,0.9-2.3c0.5-0.1,5.1,1.2,5.3,1.6c0.2,0.4-0.3,3-0.5,3.1L217,73.5z"/>
		</g>
	</g>
	<path class="st10" d="M217.4,104.5L199.2,99l-9.9-17.2l2.1-3.5L203,93.8c0,0,18.3,3.4,18.3,3.4L217.4,104.5z"/>
	<g>
		<path class="st5" d="M235.9,150.6l-5.6-22.8l-0.1-0.3c-1.3,2.8-5.2,11-8,16.9l4.3,10.3l7.4,8.4l11-1.1L235.9,150.6z"/>
		<polygon class="st7" points="245.1,162 234,163 241.4,173.4 236.3,176.1 235.3,180.8 253,176.1 		"/>
		<polygon class="st2" points="211.1,114 211.1,114.6 211.1,114 		"/>
		<polygon class="st2" points="212.4,120.5 213.8,126.8 211.1,114.6 		"/>
		<path class="st2" d="M218.7,160.8c0-5.7,0.1-10.4,0.3-10.2C218.8,150.3,218.7,154.4,218.7,160.8z"/>
		<path class="st7" d="M210.6,109.1l8.8,2.4l4.5-16.3l-11.8-1.6c0,0-2.5,3.5-3.6,7.3L210.6,109.1z"/>
		<path class="st7" d="M220.5,87.8c-2,0.9-5,2.2-7.2,3.2l0,0l0,0l10.6,0.7L220.5,87.8z"/>
		<path class="st6" d="M230.8,126.5l-4.5-14.8l1.8-15.2l-4.1-4.8L213.3,91l-1.2,2.5l11.8,1.6l-4.5,16.3l-8.8-2.4l0.4,4.9l0,0.6
			l2.7,12.2l-5.3,17.9l1.1,18.2l-0.1-0.9h9.1c0,0.4,0,0.7,0,1.1h0c0-0.8,0-1.6,0-2.3c0-6.4,0.1-10.5,0.3-10.2
			c0.1,0.2,1.5-2.5,3.3-6.2c2.9-5.8,6.7-14,8-16.9C230.6,126.9,230.8,126.5,230.8,126.5z"/>
		<path class="st7" d="M209.6,162l0.1,0.9l0.7,11.2l-6.5,2.8l-2,4.2l16.7-1.3c0,0,0-6.7,0-13.7c0-1,0-2,0-3c0-0.4,0-0.8,0-1.1H209.6
			z"/>
	</g>
	<path class="st2" d="M220.1,102.4L204,112.5l-19.5-3.8l-1.3-3.9l19.3,1.3c0,0,9-7.3,11.8-9.5L220.1,102.4z"/>
	<polygon class="st2" points="183.2,104.9 174.4,100.3 174.4,111.5 182.5,111 185,108.9 	"/>
	<polygon class="st5" points="181,89.7 187.3,65.5 189.3,66 184.4,90.8 	"/>
	<polygon class="st11" points="197,65.5 192.8,67 182.7,64.2 182.8,63.9 183.6,60.3 191.1,61.8 193.6,62.3 	"/>
	<polygon class="st10" points="191.4,79 189.4,74.4 183.7,71.7 181,80.6 186.3,83.1 189.6,83.6 	"/>
	<polygon class="st9" points="197,65.5 192.8,67 182.7,64.2 182.8,63.9 191.1,61.8 193.6,62.3 	"/>
</g>
<g>
	<g>
		<path class="st2" d="M126,102.4l0.9-4l-0.5-0.1l-1.8-0.3l-0.3-0.1l-0.4-0.7l-3-5.5l-1.4-2.6l-0.3-0.6l2.8-1.1l3.4-1.3l7.1-2.6
			l1.6,2.8l0.2,2.1l0,0.1l3.2,2.7l-1.4,2.3l0.8,4.7l-2.7,1.5l-1.2-0.2l-0.1,4C130.8,103.7,128,102.3,126,102.4z"/>
		<path class="st1" d="M123.9,97.2l0.7,0.7l1.8,0.3c0,0,0.8-3,0.9-3.5l-2.1-0.7l-0.5-1.7l1.3-1.5l1.2,0.6c0.6-2.2,0.6-4.8,0.5-4.6
			l-2.2-0.7l-6.3,2.3L123.9,97.2z"/>
		<path class="st9" d="M120.9,91.7c4.3-0.7,10.6-2.4,13.3-3.2l-0.2-2.1l-1.6-2.8l-7.1,2.6l-3.4,1.3c-0.9,0.6-1.8,1.1-2.5,1.6
			L120.9,91.7z"/>
		<g>
			<path class="st5" d="M134,84.2c0,0,2.1-0.8,2.8-0.5c0.6,0.2,2.7,1.6,1.6,2.1c-1.2,0.5-20.3,6.5-20.2,5.4c0.1-1.1-0.6-1.7,1.4-2.2
				L134,84.2z"/>
			<path class="st6" d="M118.9,89.8c0,0,3.2,0.4,8.3-1.3c4.5-1.5,8-3.5,8-3.5c-0.4-1.3-0.8-2.3-1.3-3.2c-0.1-0.3-0.3-0.5-0.5-0.7
				c-2.7-4-6.9-4.2-10.3-2.6c-3.4,1.6-5.3,5.1-4.9,8.6c0,0,0,0.1,0,0.1C118.3,88.1,118.5,88.9,118.9,89.8z"/>
			<path class="st5" d="M118.2,87.2C118.2,87.2,118.2,87.2,118.2,87.2c0.1-0.2,0.2-0.4,0.4-0.6c0.1-0.1,0.1-0.3,0.2-0.4
				c0.1-0.1,0.2-0.3,0.3-0.5c0.1-0.2,0.2-0.4,0.3-0.6c0.1-0.2,0.3-0.4,0.4-0.6c0.1-0.1,0.1-0.2,0.2-0.3c0.1-0.1,0.2-0.2,0.2-0.3
				c0.2-0.2,0.3-0.4,0.5-0.6c0.2-0.2,0.4-0.4,0.6-0.6c0.2-0.2,0.4-0.4,0.6-0.6c0.2-0.2,0.5-0.4,0.7-0.6c0.1-0.1,0.3-0.2,0.4-0.2
				l0.2-0.1l0.2-0.1c0.1-0.1,0.3-0.1,0.4-0.2c0.1-0.1,0.3-0.1,0.4-0.2c0.3-0.1,0.6-0.2,0.9-0.3c0.1,0,0.3-0.1,0.5-0.1l0.2-0.1l0.2,0
				c0.2,0,0.3,0,0.5-0.1c0.2,0,0.3,0,0.5,0c0.6,0,1.2,0,1.8,0.1c0.3,0,0.6,0.1,0.9,0.2c0.3,0.1,0.6,0.1,0.8,0.2
				c0.5,0.1,1,0.3,1.5,0.5c0.5,0.2,0.9,0.3,1.3,0.5c0.2,0.1,0.4,0.2,0.6,0.3c-0.1-0.3-0.3-0.5-0.5-0.7c-0.3-0.2-0.7-0.4-1.1-0.7
				c-0.5-0.2-0.9-0.5-1.5-0.7c-0.3-0.1-0.6-0.2-0.9-0.3c-0.3-0.1-0.6-0.2-0.9-0.2c-0.6-0.2-1.3-0.2-2-0.2c-0.7,0-1.4,0.1-2.1,0.3
				c-0.3,0.1-0.7,0.2-1,0.4c-0.2,0.1-0.3,0.1-0.5,0.2c-0.2,0.1-0.3,0.2-0.5,0.3l-0.2,0.1l-0.2,0.2c-0.1,0.1-0.3,0.2-0.4,0.3
				c-0.3,0.2-0.5,0.5-0.8,0.7c-0.2,0.2-0.4,0.5-0.6,0.7c-0.2,0.3-0.4,0.5-0.5,0.8c-0.2,0.2-0.3,0.5-0.5,0.7
				c-0.1,0.1-0.1,0.2-0.2,0.4c-0.1,0.1-0.1,0.2-0.2,0.4c-0.1,0.2-0.2,0.5-0.3,0.7c-0.1,0.2-0.2,0.4-0.2,0.6
				c-0.1,0.2-0.1,0.4-0.2,0.5c-0.1,0.2-0.1,0.3-0.1,0.5c-0.1,0.2-0.1,0.4-0.2,0.6C118.2,87.1,118.2,87.2,118.2,87.2z"/>
			<path class="st5" d="M129.8,87.6c0,0-0.3-1.9-0.8-2c-0.4-0.1-4.4,1-4.6,1.3c-0.2,0.3,0.3,2.6,0.5,2.7L129.8,87.6z"/>
		</g>
	</g>
	<path class="st10" d="M129.4,115.2l15.7-4.8l9.2-11.9l-1.8-3l-10.6,10.4c0,0-15.7,2.9-15.8,2.9L129.4,115.2z"/>
	<polygon class="st11" points="149.1,77.1 148.9,67.7 152.6,67.7 153.1,68.9 150.4,69 150.6,77.1 154.1,77.1 154.2,77.2 157.3,77.2 
		157.3,89.8 156,89.8 155.8,78.3 149.1,78.4 149.1,77.5 149.1,77.5 149.1,77.5 149.1,77.1 	"/>
	<g>
		<path class="st5" d="M113.4,154.8l4.8-19.7l0.1-0.2c1.1,2.4,4.5,9.5,6.9,14.5l-3.7,8.8l-6.4,7.2l-9.5-0.9L113.4,154.8z"/>
		<polygon class="st7" points="105.6,164.6 115.1,165.6 108.8,174.5 113.1,176.8 114,180.9 98.7,176.8 		"/>
		<polygon class="st2" points="134.9,123.3 134.8,123.8 134.9,123.3 		"/>
		<polygon class="st2" points="133.7,128.9 132.5,134.3 134.8,123.8 		"/>
		<path class="st2" d="M128.3,163.6c0-4.9-0.1-9-0.2-8.8C128.2,154.6,128.3,158.1,128.3,163.6z"/>
		<path class="st7" d="M135.2,119.1l-7.6,2.1l-3.9-14.1l10.1-1.4c0,0,2.1,3,3.1,6.3L135.2,119.1z"/>
		<path class="st7" d="M126.7,100.7c1.8,0.8,4.3,1.9,6.2,2.8l0,0l0,0l-9.1,0.6L126.7,100.7z"/>
		<path class="st6" d="M117.9,134.1l3.9-12.7l-1.5-13.1l3.5-4.1l9.1-0.6l1,2.1l-10.1,1.4l3.9,14.1l7.6-2.1l-0.4,4.2l0,0.5l-2.3,10.5
			l4.6,15.4l-1,15.7l0-0.7h-7.8c0,0.3,0,0.6,0,1h0c0-0.7,0-1.3,0-2c0-5.5-0.1-9-0.2-8.8c-0.1,0.2-1.3-2.2-2.9-5.4
			c-2.5-5-5.8-12.1-6.9-14.5C118,134.4,117.9,134.1,117.9,134.1z"/>
		<path class="st7" d="M136.1,164.6l0,0.7l-0.6,9.7l5.6,2.4l1.7,3.6l-14.4-1.1c0,0,0-5.8,0-11.8c0-0.9,0-1.7,0-2.5c0-0.3,0-0.6,0-1
			H136.1z"/>
	</g>
	<rect x="157.9" y="62.1" class="st1" width="20.6" height="118.1"/>
	<polygon class="st9" points="157.9,69.3 157.9,180.2 166.8,180.2 172.7,68.9 	"/>
	<g>
		<path class="st5" d="M151,69.2c0-1.6,1.3-3,2.9-3l0,0l15.7-0.2l0.1,6L154,72.1l0,0C152.4,72.1,151,70.8,151,69.2z"/>
		<path class="st6" d="M166.7,69c0,1.6,1.4,3,3,2.9c1.6,0,3-1.4,2.9-3c0-1.6-1.4-3-3-2.9C168,66,166.7,67.3,166.7,69z"/>
	</g>
	<path class="st2" d="M126.6,110l2.9,16.1l13.7,10.3l3.2-1.4l-12-11.5c0,0-0.5-10-0.8-13L126.6,110z"/>
	<g>
		<path class="st4" d="M140.5,149.2l1.2-0.1c0,0-0.5-4.9,1.9-7.5c1.1-1.2,2.6-1.8,4.5-1.8c1.9,0,3.4,0.6,4.5,1.8
			c2.4,2.7,1.9,7.5,1.9,7.5l1.2,0.1c0-0.2,0.6-5.4-2.2-8.5c-1.3-1.5-3.1-2.2-5.4-2.2c-2.3,0-4.1,0.7-5.4,2.2
			C140,143.8,140.5,149,140.5,149.2z"/>
	</g>
	<g>
		<path class="st7" d="M141.1,160.7c0,0,2.4,2,7,2c4.6,0,7-2,7-2v-12.9h-14V160.7z"/>
	</g>
	<polygon class="st2" points="146.3,134.9 151.8,137 150.1,143.6 142.9,138.9 142.8,136.1 	"/>
	<rect x="155.4" y="85.6" class="st6" width="3.7" height="16"/>
	<polygon class="st10" points="152.4,95.8 154.2,91.8 160.4,89.8 160.4,97.6 156.8,99.3 153.3,99.8 	"/>
	<path class="st7" d="M141.1,147.8c0,0.6,3.1,1,7,1c3.9,0,7-0.4,7-1c0-0.6-3.1-1-7-1C144.3,146.8,141.1,147.2,141.1,147.8z"/>
	<path class="st4" d="M141.7,148.2c0,0.6,2.9,1,6.4,1c3.6,0,6.4-0.4,6.4-1c0-0.6-2.9-1-6.4-1C144.6,147.2,141.7,147.6,141.7,148.2z"
		/>
</g>
<g>
	<g>
		<g>
			<polygon class="st0" points="293.7,74 288.2,75.5 282.7,74 284.3,64 292.1,64 			"/>
		</g>
		<g>
			<g>
				<polygon class="st1" points="279.6,50.2 280.5,53.6 295.8,53.6 297.1,50.2 				"/>
			</g>
			<g>
				<polygon class="st2" points="296.8,52.4 296.8,57.9 295.8,57.9 295.8,60.9 291.4,68.1 285,68.1 280.6,60.9 280.6,57.9 
					279.6,57.9 279.6,52.4 280.6,52.4 280.6,47.8 295.8,47.8 295.8,52.4 				"/>
			</g>
			<g class="st3">
				<rect x="280.6" y="49.8" class="st4" width="15.1" height="2.6"/>
			</g>
			<g class="st3">
				<polygon class="st4" points="286.3,61 288.2,54.8 290.1,61 				"/>
			</g>
			<g>
				<g>
					<rect x="278.4" y="44.1" class="st5" width="2.5" height="3.4"/>
				</g>
				<g>
					<rect x="295.5" y="44.1" class="st5" width="2.5" height="3.4"/>
				</g>
				<g>
					<path class="st6" d="M297.3,47.6c0-0.1,0-0.2,0-0.4c0-5.1-4.1-9.2-9.2-9.2c-5.1,0-9.2,4.1-9.2,9.2c0,0.1,0,0.2,0,0.4H297.3z"/>
				</g>
				<g>
					<polygon class="st5" points="289.9,47.1 286.3,47.1 285,36.6 291.2,36.6 					"/>
				</g>
				<g>
					<path class="st5" d="M298.1,49c0,0.9-0.7,1.6-1.5,1.6h-16.8c-0.8,0-1.5-0.7-1.5-1.6l0,0c0-0.9,0-1.6,0-1.6H298
						C298,47.4,298.1,48.2,298.1,49L298.1,49z"/>
				</g>
			</g>
		</g>
		<polygon class="st2" points="265.8,87 261.4,98.3 250.2,94.1 246.1,95.9 263.9,108.7 271.8,90.9 		"/>
		<polygon class="st2" points="312.8,89.6 316.6,103.7 314.4,121.4 310.4,121.4 309.8,102.1 306.6,92.3 		"/>
		<g>
			<path class="st7" d="M314.1,88.7l-8.8,5.8l-1-2.9h-31.8l-1,2.9l-8.7-5l6.1-13l5.4-2.7l4.1-2.1l5.1-1.9c0,0,1.5,4.6,4.9,4.6
				c3.4,0,4.8-4.6,4.8-4.6l5.5,1.9l4.1,2.1l5.4,2.7L314.1,88.7z"/>
		</g>
		<g>
			<polygon class="st6" points="299.7,105.7 302.6,80.8 302.6,80.8 302.6,80.8 302.6,73.9 298.5,71.8 298.5,80.8 278.2,80.8 
				278.2,71.8 274.2,73.9 274.2,80.8 274.2,80.8 277.1,105.7 271.7,157.9 283.5,157.9 288.4,123.2 294.9,157.9 306.6,157.9 			"/>
		</g>
		<g>
			<rect x="280.4" y="84.1" class="st5" width="15.6" height="11"/>
		</g>
		<g>
			<polygon class="st7" points="306.8,157.9 306.7,170.5 309.8,175.8 304.4,181.5 298,177.7 297.4,173.6 297.1,170.9 294.9,157.9 
							"/>
		</g>
		<g class="st3">
			<polygon class="st4" points="298,177.7 297.2,171.6 306.7,170.5 309.8,175.8 304.4,181.5 			"/>
		</g>
		<g>
			<polygon class="st7" points="271.7,157.9 271.7,170.5 268.6,175.8 274,181.5 280.5,177.7 281,173.6 281.3,170.9 283.5,157.9 			
				"/>
		</g>
		<g class="st3">
			<polygon class="st4" points="280.5,177.7 281.2,171.6 271.7,170.5 268.6,175.8 274,181.5 			"/>
		</g>
	</g>
	<path class="st4" d="M245.1,100l4.2-17.3l3.7-2.1l-1.8-5.5l-0.9,3.7l-1.2,0.2l-0.9-2.2l1-4l-4.4,3.8l1.5,4l-4.6,18.9
		c-1.1,0.4-2,1.4-2.3,2.6c-0.5,2,0.7,4,2.7,4.5c2,0.5,4-0.7,4.5-2.7C246.8,102.4,246.2,100.9,245.1,100z M242.4,104.7
		c-0.9-0.2-1.5-1.2-1.3-2.1c0.2-0.9,1.2-1.5,2.1-1.3c0.9,0.2,1.5,1.2,1.3,2.1C244.3,104.3,243.4,104.9,242.4,104.7z"/>
	<polygon class="st2" points="250.2,94.1 250.2,87.7 242.1,85.6 240.1,94.1 246.1,95.9 	"/>
	<rect x="295.8" y="130.1" class="st7" width="34.7" height="19.3"/>
	<rect x="293.7" y="128.6" class="st4" width="38.9" height="10"/>
	<rect x="300.9" y="135.5" class="st6" width="3.3" height="6.6"/>
	<rect x="321" y="135.5" class="st6" width="3.3" height="6.6"/>
	<g>
		<polygon class="st4" points="321.8,128.6 320.2,128.6 320.2,124.7 305.1,124.7 305.1,128.6 303.5,128.6 303.5,123.2 321.8,123.2 
					"/>
	</g>
	<polygon class="st2" points="313.7,117.2 307.8,119.6 308.9,127.9 317.5,126.5 316.9,120.3 	"/>
</g>
</svg>
