<?xml version="1.0" encoding="utf-8"?>
<!-- Generator: Adobe Illustrator 23.0.1, SVG Export Plug-In . SVG Version: 6.00 Build 0)  -->
<svg version="1.1" id="Layer_1" xmlns="http://www.w3.org/2000/svg" xmlns:xlink="http://www.w3.org/1999/xlink" x="0px" y="0px"
	 viewBox="0 0 500 200" style="enable-background:new 0 0 500 200;" xml:space="preserve">
<style type="text/css">
	.st0{fill:#FDBA5B;}
	.st1{fill:#5C3A22;}
	.st2{fill:#FECD87;}
	.st3{opacity:0.4;}
	.st4{fill:#878787;}
	.st5{fill:#EA7A24;}
	.st6{fill:#F8941D;}
	.st7{fill:#303030;}
	.st8{fill:#FFFFFF;}
	.st9{opacity:0.4;fill:#878787;}
	.st10{fill:#EBB05A;}
	.st11{fill:#969696;}
	.st12{fill:#646464;}
</style>
<g>
	<g>
		<g>
			<polygon class="st0" points="339.5,81.9 334.4,83.3 329.3,81.9 330.7,72.5 338.1,72.5 			"/>
		</g>
		<g>
			<g>
				<polygon class="st1" points="326.3,59.6 327.2,62.8 341.5,62.8 342.8,59.6 				"/>
			</g>
			<g>
				<polygon class="st2" points="342.4,61.6 342.4,66.8 341.5,66.8 341.5,69.6 337.3,76.3 331.4,76.3 327.3,69.6 327.3,66.8 
					326.3,66.8 326.3,61.6 327.3,61.6 327.3,57.3 341.5,57.3 341.5,61.6 				"/>
			</g>
			<g class="st3">
				<rect x="327.3" y="59.2" class="st4" width="14.2" height="2.4"/>
			</g>
			<g class="st3">
				<polygon class="st4" points="332.6,69.7 334.4,63.9 336.2,69.7 				"/>
			</g>
			<g>
				<g>
					<rect x="325.1" y="53.8" class="st5" width="2.3" height="3.2"/>
				</g>
				<g>
					<rect x="341.2" y="53.8" class="st5" width="2.3" height="3.2"/>
				</g>
				<g>
					<path class="st6" d="M342.9,57.1c0-0.1,0-0.2,0-0.3c0-4.7-3.8-8.6-8.6-8.6c-4.7,0-8.6,3.8-8.6,8.6c0,0.1,0,0.2,0,0.3H342.9z"/>
				</g>
				<g>
					<polygon class="st5" points="335.9,56.6 332.6,56.6 331.4,46.8 337.2,46.8 					"/>
				</g>
				<g>
					<path class="st5" d="M343.6,58.5c0,0.8-0.6,1.5-1.4,1.5h-15.7c-0.8,0-1.4-0.7-1.4-1.5l0,0c0-0.8,0-1.5,0-1.5h18.4
						C343.6,57,343.6,57.7,343.6,58.5L343.6,58.5z"/>
				</g>
			</g>
		</g>
		<g>
			<polygon class="st2" points="355.2,92.7 363.9,108.3 355.8,105.3 349.2,96.5 			"/>
		</g>
		<g>
			<polygon class="st2" points="313.6,92.7 307.3,106.7 319.3,115.9 313.2,105.3 319.6,96.5 			"/>
		</g>
		<g>
			<path class="st7" d="M358.6,95.7l-8.2,5.5l-1-2.7h-29.8l-1,2.7l-8.2-4.7l5.7-12.1l5-2.5l3.8-1.9l4.8-1.8c0,0,1.4,4.3,4.6,4.3
				s4.5-4.3,4.5-4.3l5.1,1.8l3.8,1.9l5,2.5L358.6,95.7z"/>
		</g>
		<g>
			<polygon class="st6" points="345.1,111.6 347.9,88.3 347.9,88.3 347.9,88.3 347.9,81.8 344.1,79.9 344.1,88.3 325,88.3 325,79.9 
				321.2,81.8 321.2,88.3 321.2,88.3 324,111.6 318.9,160.5 330,160.5 334.6,128 340.7,160.5 351.7,160.5 			"/>
		</g>
		<g>
			<rect x="327.1" y="91.3" class="st5" width="14.7" height="10.3"/>
		</g>
		<g>
			<polygon class="st7" points="351.8,160.5 351.7,172.3 354.6,177.3 349.6,182.6 343.5,179.1 343,175.2 342.7,172.7 340.7,160.5 
							"/>
		</g>
		<g class="st3">
			<polygon class="st4" points="343.5,179.1 342.8,173.4 351.7,172.3 354.6,177.3 349.6,182.6 			"/>
		</g>
		<g>
			<polygon class="st7" points="318.9,160.5 318.9,172.3 316,177.3 321.1,182.6 327.1,179.1 327.6,175.2 327.9,172.7 330,160.5 			
				"/>
		</g>
		<g class="st3">
			<polygon class="st4" points="327.1,179.1 327.9,173.4 318.9,172.3 316,177.3 321.1,182.6 			"/>
		</g>
	</g>
	<g>
		<g>
			<polygon class="st8" points="335.3,136.7 309.2,131.7 309.2,92.8 335.3,97.8 			"/>
			<path class="st4" d="M336,137.5l-27.5-5.2V91.9l27.5,5.2V137.5z M309.9,131.1l24.6,4.7V98.4l-24.6-4.7V131.1z"/>
		</g>
		<g>
			<polygon class="st8" points="335.3,136.7 361.4,131.7 361.4,92.8 335.3,97.8 			"/>
			<path class="st4" d="M334.6,137.5V97.2l27.5-5.2v40.4L334.6,137.5z M336,98.4v37.4l24.6-4.7V93.7L336,98.4z"/>
		</g>
	</g>
	<g>
		<polygon class="st2" points="307.3,106.7 310.7,104.8 314.5,109.2 310.7,113.8 306.6,111.7 		"/>
	</g>
	<g>
		<polygon class="st2" points="363.9,108.3 360.3,106.9 357.3,111.9 361.7,115.8 365.5,113 		"/>
	</g>
</g>
<g>
	<g>
		<path class="st2" d="M197.2,90.8l-1-4.7l0.6-0.1l2.1-0.4l0.4-0.1l0.4-0.8l3.5-6.4l1.7-3l0.4-0.7l-3.3-1.2l-4-1.5l-8.2-3.1L188,72
			l-0.2,2.5l0,0.1l-3.7,3.1l1.6,2.7l-1,5.5l3.1,1.7l1.4-0.3l0.6,4.4C192.2,91.9,195,90.6,197.2,90.8z"/>
		<path class="st1" d="M199.7,84.7l-0.8,0.8l-2.1,0.4c0,0-0.9-3.5-1-4.1l2.4-0.8l0.6-2l-1.5-1.7l-1.4,0.7c-0.6-2.6-0.7-5.6-0.5-5.3
			l2.6-0.8l7.3,2.8L199.7,84.7z"/>
		<path class="st9" d="M204.9,75.3c-0.9-0.6-1.8-1.2-2.9-1.9l-4-1.5l-8.2-3.1L188,72l-0.2,2.5c3.2,0.9,10.4,3,15.5,3.8L204.9,75.3z"
			/>
		<g>
			<path class="st5" d="M188.1,69.5c0,0-2.4-0.9-3.3-0.6c-0.7,0.3-3.2,1.8-1.9,2.5c1.3,0.6,23.6,7.7,23.4,6.4
				c-0.2-1.3,0.7-1.9-1.6-2.6L188.1,69.5z"/>
			<path class="st6" d="M205.6,76.1c0,0-3.7,0.5-9.6-1.6c-5.2-1.8-9.2-4.1-9.2-4.1c0.4-1.5,1-2.7,1.6-3.8c0.2-0.3,0.3-0.6,0.5-0.8
				c3.2-4.6,8.1-4.8,12-2.9c3.9,1.9,6.1,6,5.6,10.1c0,0.1,0,0.1,0,0.2C206.3,74.2,206,75.2,205.6,76.1z"/>
			<path class="st5" d="M206.4,73.2C206.4,73.2,206.4,73.2,206.4,73.2c-0.1-0.2-0.2-0.4-0.4-0.7c-0.1-0.2-0.2-0.3-0.3-0.5
				c-0.1-0.2-0.2-0.4-0.3-0.6c-0.1-0.2-0.2-0.4-0.4-0.6c-0.1-0.2-0.3-0.5-0.5-0.7c-0.1-0.1-0.2-0.2-0.2-0.4
				c-0.1-0.1-0.2-0.2-0.3-0.4c-0.2-0.2-0.4-0.5-0.6-0.8c-0.2-0.2-0.4-0.5-0.6-0.7c-0.2-0.2-0.5-0.5-0.7-0.7
				c-0.3-0.2-0.5-0.4-0.8-0.7c-0.1-0.1-0.3-0.2-0.4-0.3l-0.2-0.2l-0.2-0.1c-0.2-0.1-0.3-0.2-0.5-0.3c-0.2-0.1-0.3-0.1-0.5-0.2
				c-0.3-0.2-0.7-0.2-1-0.4c-0.2,0-0.4-0.1-0.5-0.1l-0.3-0.1l-0.3,0c-0.2,0-0.4-0.1-0.5-0.1c-0.2,0-0.4,0-0.5,0
				c-0.7,0-1.4,0-2.1,0.1c-0.3,0-0.7,0.1-1,0.2c-0.3,0.1-0.7,0.1-1,0.2c-0.6,0.2-1.2,0.4-1.8,0.6c-0.5,0.2-1,0.4-1.5,0.6
				c-0.2,0.1-0.5,0.2-0.7,0.3c0.2-0.3,0.3-0.6,0.5-0.8c0.4-0.2,0.8-0.5,1.3-0.8c0.5-0.3,1.1-0.6,1.8-0.8c0.3-0.1,0.7-0.2,1-0.4
				c0.4-0.1,0.7-0.2,1.1-0.3c0.7-0.2,1.5-0.2,2.4-0.3c0.8,0,1.7,0.1,2.5,0.3c0.4,0.1,0.8,0.2,1.2,0.4c0.2,0.1,0.4,0.2,0.6,0.3
				c0.2,0.1,0.4,0.2,0.5,0.3l0.3,0.2l0.2,0.2c0.2,0.1,0.3,0.2,0.5,0.4c0.3,0.3,0.6,0.5,0.9,0.8c0.3,0.3,0.5,0.6,0.7,0.9
				c0.2,0.3,0.4,0.6,0.6,0.9c0.2,0.3,0.3,0.6,0.5,0.9c0.1,0.1,0.2,0.3,0.2,0.4c0.1,0.1,0.1,0.3,0.2,0.4c0.1,0.3,0.2,0.5,0.4,0.8
				c0.1,0.3,0.2,0.5,0.3,0.7c0.1,0.2,0.2,0.4,0.2,0.6c0.1,0.2,0.1,0.4,0.2,0.6c0.1,0.3,0.1,0.5,0.2,0.7
				C206.5,73.1,206.5,73.1,206.4,73.2z"/>
			<path class="st5" d="M193,73.5c0,0,0.4-2.2,0.9-2.3c0.5-0.1,5.1,1.2,5.3,1.6c0.2,0.4-0.3,3-0.5,3.1L193,73.5z"/>
		</g>
	</g>
	<path class="st10" d="M193.4,104.5L175.2,99l-9.9-17.2l2.1-3.5L179,93.8c0,0,18.3,3.4,18.3,3.4L193.4,104.5z"/>
	<g>
		<path class="st5" d="M211.9,150.6l-5.6-22.8l-0.1-0.3c-1.3,2.8-5.2,11-8,16.9l4.3,10.3l7.4,8.4l11-1.1L211.9,150.6z"/>
		<polygon class="st7" points="221.1,162 210,163 217.4,173.4 212.3,176.1 211.3,180.8 229,176.1 		"/>
		<polygon class="st2" points="187.1,114 187.1,114.6 187.1,114 		"/>
		<polygon class="st2" points="188.4,120.5 189.8,126.8 187.1,114.6 		"/>
		<path class="st2" d="M194.7,160.8c0-5.7,0.1-10.4,0.3-10.2C194.8,150.3,194.7,154.4,194.7,160.8z"/>
		<path class="st7" d="M186.6,109.1l8.8,2.4l4.5-16.3l-11.8-1.6c0,0-2.5,3.5-3.6,7.3L186.6,109.1z"/>
		<path class="st7" d="M196.5,87.8c-2,0.9-5,2.2-7.2,3.2l0,0l0,0l10.6,0.7L196.5,87.8z"/>
		<path class="st6" d="M206.8,126.5l-4.5-14.8l1.8-15.2l-4.1-4.8L189.3,91l-1.2,2.5l11.8,1.6l-4.5,16.3l-8.8-2.4l0.4,4.9l0,0.6
			l2.7,12.2l-5.3,17.9l1.1,18.2l-0.1-0.9h9.1c0,0.4,0,0.7,0,1.1h0c0-0.8,0-1.6,0-2.3c0-6.4,0.1-10.5,0.3-10.2
			c0.1,0.2,1.5-2.5,3.3-6.2c2.9-5.8,6.7-14,8-16.9C206.6,126.9,206.8,126.5,206.8,126.5z"/>
		<path class="st7" d="M185.6,162l0.1,0.9l0.7,11.2l-6.5,2.8l-2,4.2l16.7-1.3c0,0,0-6.7,0-13.7c0-1,0-2,0-3c0-0.4,0-0.8,0-1.1H185.6
			z"/>
	</g>
	<path class="st2" d="M196.1,102.4L180,112.5l-19.5-3.8l-1.3-3.9l19.3,1.3c0,0,9-7.3,11.8-9.5L196.1,102.4z"/>
	<polygon class="st2" points="159.2,104.9 150.4,100.3 150.4,111.5 158.5,111 161,108.9 	"/>
	<polygon class="st5" points="157,89.7 163.3,65.5 165.3,66 160.4,90.8 	"/>
	<polygon class="st11" points="173,65.5 168.8,67 158.7,64.2 158.8,63.9 159.6,60.3 167.1,61.8 169.6,62.3 	"/>
	<polygon class="st10" points="167.4,79 165.4,74.4 159.7,71.7 157,80.6 162.3,83.1 165.6,83.6 	"/>
	<polygon class="st9" points="173,65.5 168.8,67 158.7,64.2 158.8,63.9 167.1,61.8 169.6,62.3 	"/>
</g>
<g>
	<g>
		<path class="st2" d="M102,102.4l0.9-4l-0.5-0.1l-1.8-0.3l-0.3-0.1l-0.4-0.7l-3-5.5l-1.4-2.6l-0.3-0.6l2.8-1.1l3.4-1.3l7.1-2.6
			l1.6,2.8l0.2,2.1l0,0.1l3.2,2.7l-1.4,2.3l0.8,4.7l-2.7,1.5l-1.2-0.2l-0.1,4C106.8,103.7,104,102.3,102,102.4z"/>
		<path class="st1" d="M99.9,97.2l0.7,0.7l1.8,0.3c0,0,0.8-3,0.9-3.5l-2.1-0.7l-0.5-1.7l1.3-1.5l1.2,0.6c0.6-2.2,0.6-4.8,0.5-4.6
			l-2.2-0.7l-6.3,2.3L99.9,97.2z"/>
		<path class="st9" d="M96.9,91.7c4.3-0.7,10.6-2.4,13.3-3.2l-0.2-2.1l-1.6-2.8l-7.1,2.6L98,87.4c-0.9,0.6-1.8,1.1-2.5,1.6
			L96.9,91.7z"/>
		<g>
			<path class="st5" d="M110,84.2c0,0,2.1-0.8,2.8-0.5c0.6,0.2,2.7,1.6,1.6,2.1c-1.2,0.5-20.3,6.5-20.2,5.4c0.1-1.1-0.6-1.7,1.4-2.2
				L110,84.2z"/>
			<path class="st6" d="M94.9,89.8c0,0,3.2,0.4,8.3-1.3c4.5-1.5,8-3.5,8-3.5c-0.4-1.3-0.8-2.3-1.3-3.2c-0.1-0.3-0.3-0.5-0.5-0.7
				c-2.7-4-6.9-4.2-10.3-2.6c-3.4,1.6-5.3,5.1-4.9,8.6c0,0,0,0.1,0,0.1C94.3,88.1,94.5,88.9,94.9,89.8z"/>
			<path class="st5" d="M94.2,87.2C94.2,87.2,94.2,87.2,94.2,87.2c0.1-0.2,0.2-0.4,0.4-0.6c0.1-0.1,0.1-0.3,0.2-0.4
				c0.1-0.1,0.2-0.3,0.3-0.5c0.1-0.2,0.2-0.4,0.3-0.6c0.1-0.2,0.3-0.4,0.4-0.6c0.1-0.1,0.1-0.2,0.2-0.3c0.1-0.1,0.2-0.2,0.2-0.3
				c0.2-0.2,0.3-0.4,0.5-0.6c0.2-0.2,0.4-0.4,0.6-0.6c0.2-0.2,0.4-0.4,0.6-0.6c0.2-0.2,0.5-0.4,0.7-0.6c0.1-0.1,0.3-0.2,0.4-0.2
				l0.2-0.1l0.2-0.1c0.1-0.1,0.3-0.1,0.4-0.2c0.1-0.1,0.3-0.1,0.4-0.2c0.3-0.1,0.6-0.2,0.9-0.3c0.1,0,0.3-0.1,0.5-0.1l0.2-0.1l0.2,0
				c0.2,0,0.3,0,0.5-0.1c0.2,0,0.3,0,0.5,0c0.6,0,1.2,0,1.8,0.1c0.3,0,0.6,0.1,0.9,0.2c0.3,0.1,0.6,0.1,0.8,0.2
				c0.5,0.1,1,0.3,1.5,0.5c0.5,0.2,0.9,0.3,1.3,0.5c0.2,0.1,0.4,0.2,0.6,0.3c-0.1-0.3-0.3-0.5-0.5-0.7c-0.3-0.2-0.7-0.4-1.1-0.7
				c-0.5-0.2-0.9-0.5-1.5-0.7c-0.3-0.1-0.6-0.2-0.9-0.3c-0.3-0.1-0.6-0.2-0.9-0.2c-0.6-0.2-1.3-0.2-2-0.2c-0.7,0-1.4,0.1-2.1,0.3
				c-0.3,0.1-0.7,0.2-1,0.4c-0.2,0.1-0.3,0.1-0.5,0.2c-0.2,0.1-0.3,0.2-0.5,0.3l-0.2,0.1l-0.2,0.2c-0.1,0.1-0.3,0.2-0.4,0.3
				c-0.3,0.2-0.5,0.5-0.8,0.7c-0.2,0.2-0.4,0.5-0.6,0.7c-0.2,0.3-0.4,0.5-0.5,0.8c-0.2,0.2-0.3,0.5-0.5,0.7
				c-0.1,0.1-0.1,0.2-0.2,0.4c-0.1,0.1-0.1,0.2-0.2,0.4c-0.1,0.2-0.2,0.5-0.3,0.7c-0.1,0.2-0.2,0.4-0.2,0.6
				c-0.1,0.2-0.1,0.4-0.2,0.5c-0.1,0.2-0.1,0.3-0.1,0.5c-0.1,0.2-0.1,0.4-0.2,0.6C94.2,87.1,94.2,87.2,94.2,87.2z"/>
			<path class="st5" d="M105.8,87.6c0,0-0.3-1.9-0.8-2c-0.4-0.1-4.4,1-4.6,1.3c-0.2,0.3,0.3,2.6,0.5,2.7L105.8,87.6z"/>
		</g>
	</g>
	<path class="st10" d="M105.4,115.2l15.7-4.8l9.2-11.9l-1.8-3l-10.6,10.4c0,0-15.7,2.9-15.8,2.9L105.4,115.2z"/>
	<polygon class="st11" points="125.1,77.1 124.9,67.7 128.6,67.7 129.1,68.9 126.4,69 126.6,77.1 130.1,77.1 130.2,77.2 133.3,77.2 
		133.3,89.8 132,89.8 131.8,78.3 125.1,78.4 125.1,77.5 125.1,77.5 125.1,77.5 125.1,77.1 	"/>
	<g>
		<path class="st5" d="M89.4,154.8l4.8-19.7l0.1-0.2c1.1,2.4,4.5,9.5,6.9,14.5l-3.7,8.8l-6.4,7.2l-9.5-0.9L89.4,154.8z"/>
		<polygon class="st7" points="81.6,164.6 91.1,165.6 84.8,174.5 89.1,176.8 90,180.9 74.7,176.8 		"/>
		<polygon class="st2" points="110.9,123.3 110.8,123.8 110.9,123.3 		"/>
		<polygon class="st2" points="109.7,128.9 108.5,134.3 110.8,123.8 		"/>
		<path class="st2" d="M104.3,163.6c0-4.9-0.1-9-0.2-8.8C104.2,154.6,104.3,158.1,104.3,163.6z"/>
		<path class="st7" d="M111.2,119.1l-7.6,2.1l-3.9-14.1l10.1-1.4c0,0,2.1,3,3.1,6.3L111.2,119.1z"/>
		<path class="st7" d="M102.7,100.7c1.8,0.8,4.3,1.9,6.2,2.8l0,0l0,0l-9.1,0.6L102.7,100.7z"/>
		<path class="st6" d="M93.9,134.1l3.9-12.7l-1.5-13.1l3.5-4.1l9.1-0.6l1,2.1l-10.1,1.4l3.9,14.1l7.6-2.1l-0.4,4.2l0,0.5l-2.3,10.5
			l4.6,15.4l-1,15.7l0-0.7h-7.8c0,0.3,0,0.6,0,1h0c0-0.7,0-1.3,0-2c0-5.5-0.1-9-0.2-8.8c-0.1,0.2-1.3-2.2-2.9-5.4
			c-2.5-5-5.8-12.1-6.9-14.5C94,134.4,93.9,134.1,93.9,134.1z"/>
		<path class="st7" d="M112.1,164.6l0,0.7l-0.6,9.7l5.6,2.4l1.7,3.6l-14.4-1.1c0,0,0-5.8,0-11.8c0-0.9,0-1.7,0-2.5c0-0.3,0-0.6,0-1
			H112.1z"/>
	</g>
	<rect x="133.9" y="62.1" class="st1" width="20.6" height="118.1"/>
	<polygon class="st9" points="133.9,69.3 133.9,180.2 142.8,180.2 148.7,68.9 	"/>
	<g>
		<path class="st5" d="M127,69.2c0-1.6,1.3-3,2.9-3l0,0l15.7-0.2l0.1,6L130,72.1l0,0C128.4,72.1,127,70.8,127,69.2z"/>
		<path class="st6" d="M142.7,69c0,1.6,1.4,3,3,2.9c1.6,0,3-1.4,2.9-3c0-1.6-1.4-3-3-2.9C144,66,142.7,67.3,142.7,69z"/>
	</g>
	<path class="st2" d="M102.6,110l2.9,16.1l13.7,10.3l3.2-1.4l-12-11.5c0,0-0.5-10-0.8-13L102.6,110z"/>
	<g>
		<path class="st4" d="M116.5,149.2l1.2-0.1c0,0-0.5-4.9,1.9-7.5c1.1-1.2,2.6-1.8,4.5-1.8c1.9,0,3.4,0.6,4.5,1.8
			c2.4,2.7,1.9,7.5,1.9,7.5l1.2,0.1c0-0.2,0.6-5.4-2.2-8.5c-1.3-1.5-3.1-2.2-5.4-2.2c-2.3,0-4.1,0.7-5.4,2.2
			C116,143.8,116.5,149,116.5,149.2z"/>
	</g>
	<g>
		<path class="st7" d="M117.1,160.7c0,0,2.4,2,7,2c4.6,0,7-2,7-2v-12.9h-14V160.7z"/>
	</g>
	<polygon class="st2" points="122.3,134.9 127.8,137 126.1,143.6 118.9,138.9 118.8,136.1 	"/>
	<rect x="131.4" y="85.6" class="st6" width="3.7" height="16"/>
	<polygon class="st10" points="128.4,95.8 130.2,91.8 136.4,89.8 136.4,97.6 132.8,99.3 129.3,99.8 	"/>
	<path class="st7" d="M117.1,147.8c0,0.6,3.1,1,7,1c3.9,0,7-0.4,7-1c0-0.6-3.1-1-7-1C120.3,146.8,117.1,147.2,117.1,147.8z"/>
	<path class="st4" d="M117.7,148.2c0,0.6,2.9,1,6.4,1c3.6,0,6.4-0.4,6.4-1c0-0.6-2.9-1-6.4-1C120.6,147.2,117.7,147.6,117.7,148.2z"
		/>
</g>
<g>
	<g>
		<g>
			<g>
				<path class="st2" d="M388.9,99.8l0.8-3.9l-0.5-0.1l-1.8-0.3l-0.3-0.1l-0.3-0.6l-2.9-5.3l-1.4-2.5l-0.3-0.6l2.7-1l3.3-1.2
					l6.9-2.5l1.5,2.8l0.2,2.1l0,0.1l3,2.6l-1.3,2.3l0.8,4.6l-2.6,1.4l-1.2-0.2l-0.1,3.9C393.5,101,390.8,99.7,388.9,99.8z"/>
			</g>
			<g>
				<path class="st1" d="M386.8,94.8l0.7,0.7l1.8,0.3c0,0,0.7-2.9,0.9-3.4l-2-0.7l-0.5-1.7l1.3-1.5l1.2,0.6c0.5-2.2,0.6-4.7,0.4-4.5
					l-2.1-0.7l-6.1,2.3L386.8,94.8z"/>
			</g>
			<g class="st3">
				<path class="st4" d="M384,89.5c4.2-0.7,10.2-2.3,12.9-3.1l-0.2-2.1l-1.5-2.8l-6.9,2.5l-3.3,1.2c-0.9,0.6-1.7,1.1-2.4,1.6
					L384,89.5z"/>
			</g>
			<g>
				<g>
					<path class="st5" d="M396.6,82.2c0,0,2-0.8,2.7-0.5c0.6,0.2,2.7,1.5,1.5,2.1c-1.1,0.5-19.7,6.3-19.5,5.2
						c0.1-1.1-0.5-1.6,1.4-2.1L396.6,82.2z"/>
				</g>
				<g>
					<path class="st6" d="M382,87.6c0,0,3.1,0.4,8-1.3c4.3-1.5,7.7-3.4,7.7-3.4c-0.4-1.2-0.8-2.3-1.3-3.1c-0.1-0.2-0.3-0.5-0.4-0.7
						c-2.6-3.9-6.7-4-10-2.5c-3.3,1.5-5.1,5-4.7,8.4c0,0,0,0.1,0,0.1C381.4,86,381.6,86.8,382,87.6z"/>
				</g>
				<g>
					<path class="st5" d="M381.3,85.1C381.3,85.1,381.3,85.1,381.3,85.1c0.1-0.2,0.2-0.4,0.3-0.6c0.1-0.1,0.1-0.3,0.2-0.4
						c0.1-0.1,0.2-0.3,0.3-0.5c0.1-0.2,0.2-0.3,0.3-0.5c0.1-0.2,0.2-0.4,0.4-0.6c0.1-0.1,0.1-0.2,0.2-0.3c0.1-0.1,0.1-0.2,0.2-0.3
						c0.2-0.2,0.3-0.4,0.5-0.6c0.2-0.2,0.4-0.4,0.5-0.6c0.2-0.2,0.4-0.4,0.6-0.6c0.2-0.2,0.4-0.4,0.7-0.5c0.1-0.1,0.2-0.2,0.4-0.2
						l0.2-0.1l0.2-0.1c0.1-0.1,0.3-0.1,0.4-0.2c0.1-0.1,0.3-0.1,0.4-0.2c0.3-0.1,0.6-0.2,0.8-0.3c0.1,0,0.3-0.1,0.4-0.1l0.2,0l0.2,0
						c0.2,0,0.3,0,0.4-0.1c0.1,0,0.3,0,0.5,0c0.6,0,1.2,0,1.8,0.1c0.3,0,0.6,0.1,0.8,0.2c0.3,0.1,0.5,0.1,0.8,0.2
						c0.5,0.1,1,0.3,1.5,0.5c0.4,0.2,0.9,0.3,1.2,0.5c0.2,0.1,0.4,0.2,0.5,0.3c-0.1-0.2-0.3-0.5-0.4-0.7c-0.3-0.2-0.7-0.4-1-0.6
						c-0.4-0.2-0.9-0.5-1.5-0.7c-0.3-0.1-0.6-0.2-0.8-0.3c-0.3-0.1-0.6-0.2-0.9-0.2c-0.6-0.1-1.3-0.2-2-0.2c-0.7,0-1.4,0.1-2.1,0.3
						c-0.3,0.1-0.7,0.2-1,0.4c-0.2,0.1-0.3,0.1-0.5,0.2c-0.2,0.1-0.3,0.2-0.4,0.3l-0.2,0.1l-0.2,0.2c-0.1,0.1-0.3,0.2-0.4,0.3
						c-0.3,0.2-0.5,0.4-0.7,0.7c-0.2,0.2-0.4,0.5-0.6,0.7c-0.2,0.3-0.4,0.5-0.5,0.7c-0.2,0.2-0.3,0.5-0.4,0.7
						c-0.1,0.1-0.1,0.2-0.2,0.3c-0.1,0.1-0.1,0.2-0.2,0.3c-0.1,0.2-0.2,0.4-0.3,0.6c-0.1,0.2-0.2,0.4-0.2,0.6
						c-0.1,0.2-0.1,0.4-0.2,0.5c0,0.2-0.1,0.3-0.1,0.5c-0.1,0.2-0.1,0.4-0.1,0.6C381.3,85,381.3,85.1,381.3,85.1z"/>
				</g>
				<g>
					<path class="st5" d="M392.5,85.5c0,0-0.3-1.9-0.7-2c-0.4-0.1-4.3,0.9-4.4,1.3c-0.2,0.3,0.3,2.5,0.4,2.6L392.5,85.5z"/>
				</g>
			</g>
		</g>
		<g>
			<path class="st10" d="M394.9,108.7l12.3-9.9l3.9-14l-2.7-2.1l-5.8,13.2c0,0-13.1,8.3-13.1,8.3L394.9,108.7z"/>
		</g>
		<g>
			<g>
				<path class="st5" d="M376.7,150.5l4.6-19l0.1-0.2c1.1,2.3,4.3,9.2,6.7,14.1l-3.6,8.5l-6.2,7l-9.2-0.9L376.7,150.5z"/>
			</g>
			<g>
				<polygon class="st7" points="369.1,160 378.3,160.9 372.2,169.5 376.4,171.8 377.2,175.7 362.5,171.8 				"/>
			</g>
			<g>
				<polygon class="st2" points="397.4,120 397.4,120.5 397.4,120 				"/>
			</g>
			<g>
				<polygon class="st2" points="396.3,125.4 395.1,130.7 397.4,120.5 				"/>
			</g>
			<g>
				<path class="st2" d="M391.1,159c0-4.8-0.1-8.7-0.2-8.5C391,150.3,391.1,153.7,391.1,159z"/>
			</g>
			<g>
				<path class="st7" d="M397.8,116l-7.3,2l-3.7-13.6l9.8-1.4c0,0,2,2.9,3,6.1L397.8,116z"/>
			</g>
			<g>
				<path class="st7" d="M389.6,98.2c1.7,0.8,4.1,1.9,6,2.7l0,0l0,0l-8.8,0.6L389.6,98.2z"/>
			</g>
			<g>
				<path class="st6" d="M381,130.5l3.7-12.3l-1.5-12.7l3.4-4l8.8-0.6l1,2.1l-9.8,1.4l3.7,13.6l7.3-2l-0.3,4.1l0,0.5l-2.3,10.2
					l4.4,14.9l-0.9,15.2l0-0.7h-7.5c0,0.3,0,0.6,0,0.9h0c0-0.7,0-1.3,0-1.9c0-5.3-0.1-8.7-0.2-8.5c-0.1,0.2-1.3-2.1-2.8-5.2
					c-2.4-4.9-5.6-11.7-6.7-14.1C381.2,130.8,381,130.5,381,130.5z"/>
			</g>
			<g>
				<path class="st7" d="M398.6,160l0,0.7l-0.6,9.4l5.4,2.3l1.7,3.5l-13.9-1.1c0,0,0-5.6,0-11.4c0-0.8,0-1.6,0-2.5
					c0-0.3,0-0.6,0-0.9H398.6z"/>
			</g>
		</g>
		<g>
			<polygon class="st10" points="408.6,83.1 408.7,78.8 413.6,74.8 416.4,81.8 413.8,84.7 410.8,86.3 			"/>
		</g>
		<g>
			<path class="st2" d="M389.6,110.2l11.9,10.5l16.5-0.4l1.6-3l-16-1.5c0,0-6.4-7.2-8.4-9.4L389.6,110.2z"/>
		</g>
		<g>
			<path class="st7" d="M422.9,159.6l-0.6-1c3.5-2,3.3-16.9,3-22.5c0-4.4-0.2-7.8-0.4-10.4c-0.4,4-1,7.5-1.6,9.6
				c-1.5,5.7-4.8,11.6-7.4,11.2c-1.8-0.3-2.6-3.3-2.2-9.3c0.5-8.4,4.4-21.4,8.3-21.4c0,0,0,0,0.1,0c0.8,0,1.4,0.5,2,1.5
				c0.1-5.9-0.5-10.9-2.2-11.7c-0.9-0.4-2.3,0.8-4,3.3c-1.7,2.5-3.1,3.5-4.4,3c-4.7-1.7-2.1-26.7-1.6-31.7l1.2,0.1
				c-1.3,12-2,29.5,0.8,30.5c0.3,0.1,1.2,0.1,3-2.6c2.2-3.2,4-4.4,5.5-3.7c2.6,1.2,3.2,8.5,2.8,15.8c0.8,3.3,1.2,8.5,1.2,15.7
				C426.6,138.1,427.6,156.9,422.9,159.6z M422.1,117c-2.4,0-6.5,10.6-7.1,20.2c-0.5,7.5,1,8,1.2,8c1.2,0.2,4.3-4,6-10.3
				c0.9-3.4,1.7-9.1,1.9-14.5C423.3,117.3,422.4,117,422.1,117C422.1,117,422.1,117,422.1,117z"/>
		</g>
		<g>
			<polygon class="st2" points="419.6,117.2 424.9,115.5 427.6,121.5 419.4,122.4 417.6,120.3 			"/>
		</g>
	</g>
	<g>
		<g>
			<path class="st4" d="M409.7,67.4L409.7,67.4c1.2,0,2.3,0.8,2.7,2c0.3,1,0,2-0.7,2.7c-0.6,0.6-0.4,1.5-0.2,2.3
				c0.4,1.5,0.2,1.6,0,1.7c-0.1,0-0.1,0-0.2,0c-0.3,0-0.7-1-0.9-1.4c-0.3-0.8-0.6-1.5-1.4-1.8c-0.9-0.3-1.7-1-1.9-1.9
				c-0.4-1.5,0.4-3,1.9-3.5C409.2,67.5,409.4,67.4,409.7,67.4L409.7,67.4z M409.7,66.2c-0.4,0-0.8,0.1-1.1,0.2
				c-2.1,0.6-3.3,2.9-2.7,5c0.4,1.4,1.5,2.4,2.8,2.7c0.6,0.2,0.9,3.2,2.6,3.2c0.2,0,0.3,0,0.5-0.1c2.2-0.7,0.3-3.8,0.8-4.2
				c1-1,1.4-2.5,0.9-3.9C413,67.4,411.4,66.2,409.7,66.2L409.7,66.2z"/>
		</g>
	</g>
	<g>
		
			<rect x="410.7" y="76.2" transform="matrix(0.9581 -0.2865 0.2865 0.9581 -5.1538 121.3419)" class="st12" width="2.9" height="4.1"/>
	</g>
	<g>
		<path class="st12" d="M418.8,162c-0.3,0.3-0.8,0.4-1,0.2l0,0c-0.2-0.2-0.2-0.7,0.1-1l1.5-1.6c0.3-0.3,0.8-0.4,1-0.2l0,0
			c0.2,0.2,0.2,0.7-0.1,1L418.8,162z"/>
	</g>
	<g>
		<path class="st12" d="M420.7,163.7c-0.3,0.3-0.8,0.4-1,0.2l0,0c-0.2-0.2-0.2-0.7,0.1-1l1.5-1.6c0.3-0.3,0.8-0.4,1-0.2l0,0
			c0.2,0.2,0.2,0.7-0.1,1L420.7,163.7z"/>
	</g>
	<g>
		<path class="st4" d="M422.6,162.5l1.1-1.2c0.9-1,0.9-2.5-0.1-3.4c-1-0.9-2.5-0.8-3.4,0.1l-1.1,1.2L422.6,162.5z"/>
	</g>
</g>
<g>
	<g>
		<g>
			<polygon class="st0" points="269.7,74 264.2,75.5 258.7,74 260.3,64 268.1,64 			"/>
		</g>
		<g>
			<g>
				<polygon class="st1" points="255.6,50.2 256.5,53.6 271.8,53.6 273.1,50.2 				"/>
			</g>
			<g>
				<polygon class="st2" points="272.8,52.4 272.8,57.9 271.8,57.9 271.8,60.9 267.4,68.1 261,68.1 256.6,60.9 256.6,57.9 
					255.6,57.9 255.6,52.4 256.6,52.4 256.6,47.8 271.8,47.8 271.8,52.4 				"/>
			</g>
			<g class="st3">
				<rect x="256.6" y="49.8" class="st4" width="15.1" height="2.6"/>
			</g>
			<g class="st3">
				<polygon class="st4" points="262.3,61 264.2,54.8 266.1,61 				"/>
			</g>
			<g>
				<g>
					<rect x="254.4" y="44.1" class="st5" width="2.5" height="3.4"/>
				</g>
				<g>
					<rect x="271.5" y="44.1" class="st5" width="2.5" height="3.4"/>
				</g>
				<g>
					<path class="st6" d="M273.3,47.6c0-0.1,0-0.2,0-0.4c0-5.1-4.1-9.2-9.2-9.2c-5.1,0-9.2,4.1-9.2,9.2c0,0.1,0,0.2,0,0.4H273.3z"/>
				</g>
				<g>
					<polygon class="st5" points="265.9,47.1 262.3,47.1 261,36.6 267.2,36.6 					"/>
				</g>
				<g>
					<path class="st5" d="M274.1,49c0,0.9-0.7,1.6-1.5,1.6h-16.8c-0.8,0-1.5-0.7-1.5-1.6l0,0c0-0.9,0-1.6,0-1.6H274
						C274,47.4,274.1,48.2,274.1,49L274.1,49z"/>
				</g>
			</g>
		</g>
		<polygon class="st2" points="241.8,87 237.4,98.3 226.2,94.1 222.1,95.9 239.9,108.7 247.8,90.9 		"/>
		<polygon class="st2" points="288.8,89.6 292.6,103.7 290.4,121.4 286.4,121.4 285.8,102.1 282.6,92.3 		"/>
		<g>
			<path class="st7" d="M290.1,88.7l-8.8,5.8l-1-2.9h-31.8l-1,2.9l-8.7-5l6.1-13l5.4-2.7l4.1-2.1l5.1-1.9c0,0,1.5,4.6,4.9,4.6
				c3.4,0,4.8-4.6,4.8-4.6l5.5,1.9l4.1,2.1l5.4,2.7L290.1,88.7z"/>
		</g>
		<g>
			<polygon class="st6" points="275.7,105.7 278.6,80.8 278.6,80.8 278.6,80.8 278.6,73.9 274.5,71.8 274.5,80.8 254.2,80.8 
				254.2,71.8 250.2,73.9 250.2,80.8 250.2,80.8 253.1,105.7 247.7,157.9 259.5,157.9 264.4,123.2 270.9,157.9 282.6,157.9 			"/>
		</g>
		<g>
			<rect x="256.4" y="84.1" class="st5" width="15.6" height="11"/>
		</g>
		<g>
			<polygon class="st7" points="282.8,157.9 282.7,170.5 285.8,175.8 280.4,181.5 274,177.7 273.4,173.6 273.1,170.9 270.9,157.9 
							"/>
		</g>
		<g class="st3">
			<polygon class="st4" points="274,177.7 273.2,171.6 282.7,170.5 285.8,175.8 280.4,181.5 			"/>
		</g>
		<g>
			<polygon class="st7" points="247.7,157.9 247.7,170.5 244.6,175.8 250,181.5 256.5,177.7 257,173.6 257.3,170.9 259.5,157.9 			
				"/>
		</g>
		<g class="st3">
			<polygon class="st4" points="256.5,177.7 257.2,171.6 247.7,170.5 244.6,175.8 250,181.5 			"/>
		</g>
	</g>
	<path class="st4" d="M221.1,100l4.2-17.3l3.7-2.1l-1.8-5.5l-0.9,3.7l-1.2,0.2l-0.9-2.2l1-4l-4.4,3.8l1.5,4l-4.6,18.9
		c-1.1,0.4-2,1.4-2.3,2.6c-0.5,2,0.7,4,2.7,4.5c2,0.5,4-0.7,4.5-2.7C222.8,102.4,222.2,100.9,221.1,100z M218.4,104.7
		c-0.9-0.2-1.5-1.2-1.3-2.1c0.2-0.9,1.2-1.5,2.1-1.3c0.9,0.2,1.5,1.2,1.3,2.1C220.3,104.3,219.4,104.9,218.4,104.7z"/>
	<polygon class="st2" points="226.2,94.1 226.2,87.7 218.1,85.6 216.1,94.1 222.1,95.9 	"/>
	<rect x="271.8" y="130.1" class="st7" width="34.7" height="19.3"/>
	<rect x="269.7" y="128.6" class="st4" width="38.9" height="10"/>
	<rect x="276.9" y="135.5" class="st6" width="3.3" height="6.6"/>
	<rect x="297" y="135.5" class="st6" width="3.3" height="6.6"/>
	<g>
		<polygon class="st4" points="297.8,128.6 296.2,128.6 296.2,124.7 281.1,124.7 281.1,128.6 279.5,128.6 279.5,123.2 297.8,123.2 
					"/>
	</g>
	<polygon class="st2" points="289.7,117.2 283.8,119.6 284.9,127.9 293.5,126.5 292.9,120.3 	"/>
</g>
</svg>
