<?xml version="1.0" encoding="utf-8"?>
<!-- Generator: Adobe Illustrator 23.0.1, SVG Export Plug-In . SVG Version: 6.00 Build 0)  -->
<svg version="1.1" id="Layer_1" xmlns="http://www.w3.org/2000/svg" xmlns:xlink="http://www.w3.org/1999/xlink" x="0px" y="0px"
	 viewBox="0 0 500 200" style="enable-background:new 0 0 500 200;" xml:space="preserve">
<style type="text/css">
	.st0{fill:#FDBA5B;}
	.st1{fill:#5C3A22;}
	.st2{fill:#FECD87;}
	.st3{opacity:0.4;}
	.st4{fill:#878787;}
	.st5{fill:#EA7A24;}
	.st6{fill:#F8941D;}
	.st7{fill:#303030;}
	.st8{fill:#FFFFFF;}
	.st9{fill:#EBB05A;}
	.st10{opacity:0.4;fill:#878787;}
	.st11{fill:#969696;}
	.st12{fill:#646464;}
</style>
<g>
	<g>
		<g>
			<polygon class="st0" points="309.5,81.9 304.4,83.3 299.3,81.9 300.7,72.5 308.1,72.5 			"/>
		</g>
		<g>
			<g>
				<polygon class="st1" points="296.3,59.6 297.2,62.8 311.5,62.8 312.8,59.6 				"/>
			</g>
			<g>
				<polygon class="st2" points="312.4,61.6 312.4,66.8 311.5,66.8 311.5,69.6 307.3,76.3 301.4,76.3 297.3,69.6 297.3,66.8 
					296.3,66.8 296.3,61.6 297.3,61.6 297.3,57.3 311.5,57.3 311.5,61.6 				"/>
			</g>
			<g class="st3">
				<rect x="297.3" y="59.2" class="st4" width="14.2" height="2.4"/>
			</g>
			<g class="st3">
				<polygon class="st4" points="302.6,69.7 304.4,63.9 306.2,69.7 				"/>
			</g>
			<g>
				<g>
					<rect x="295.1" y="53.8" class="st5" width="2.3" height="3.2"/>
				</g>
				<g>
					<rect x="311.2" y="53.8" class="st5" width="2.3" height="3.2"/>
				</g>
				<g>
					<path class="st6" d="M312.9,57.1c0-0.1,0-0.2,0-0.3c0-4.7-3.8-8.6-8.6-8.6c-4.7,0-8.6,3.8-8.6,8.6c0,0.1,0,0.2,0,0.3H312.9z"/>
				</g>
				<g>
					<polygon class="st5" points="305.9,56.6 302.6,56.6 301.4,46.8 307.2,46.8 					"/>
				</g>
				<g>
					<path class="st5" d="M313.6,58.5c0,0.8-0.6,1.5-1.4,1.5h-15.7c-0.8,0-1.4-0.7-1.4-1.5l0,0c0-0.8,0-1.5,0-1.5h18.4
						C313.6,57,313.6,57.7,313.6,58.5L313.6,58.5z"/>
				</g>
			</g>
		</g>
		<g>
			<polygon class="st2" points="325.2,92.7 333.9,108.3 325.8,105.3 319.2,96.5 			"/>
		</g>
		<g>
			<polygon class="st2" points="283.6,92.7 277.3,106.7 289.3,115.9 283.2,105.3 289.6,96.5 			"/>
		</g>
		<g>
			<path class="st7" d="M328.6,95.7l-8.2,5.5l-1-2.7h-29.8l-1,2.7l-8.2-4.7l5.7-12.1l5-2.5l3.8-1.9l4.8-1.8c0,0,1.4,4.3,4.6,4.3
				s4.5-4.3,4.5-4.3l5.1,1.8l3.8,1.9l5,2.5L328.6,95.7z"/>
		</g>
		<g>
			<polygon class="st6" points="315.1,111.6 317.9,88.3 317.9,88.3 317.9,88.3 317.9,81.8 314.1,79.9 314.1,88.3 295,88.3 295,79.9 
				291.2,81.8 291.2,88.3 291.2,88.3 294,111.6 288.9,160.5 300,160.5 304.6,128 310.7,160.5 321.7,160.5 			"/>
		</g>
		<g>
			<rect x="297.1" y="91.3" class="st5" width="14.7" height="10.3"/>
		</g>
		<g>
			<polygon class="st7" points="321.8,160.5 321.7,172.3 324.6,177.3 319.6,182.6 313.5,179.1 313,175.2 312.7,172.7 310.7,160.5 
							"/>
		</g>
		<g class="st3">
			<polygon class="st4" points="313.5,179.1 312.8,173.4 321.7,172.3 324.6,177.3 319.6,182.6 			"/>
		</g>
		<g>
			<polygon class="st7" points="288.9,160.5 288.9,172.3 286,177.3 291.1,182.6 297.1,179.1 297.6,175.2 297.9,172.7 300,160.5 			
				"/>
		</g>
		<g class="st3">
			<polygon class="st4" points="297.1,179.1 297.9,173.4 288.9,172.3 286,177.3 291.1,182.6 			"/>
		</g>
	</g>
	<g>
		<g>
			<polygon class="st8" points="305.3,136.7 279.2,131.7 279.2,92.8 305.3,97.8 			"/>
			<path class="st4" d="M306,137.5l-27.5-5.2V91.9l27.5,5.2V137.5z M279.9,131.1l24.6,4.7V98.4l-24.6-4.7V131.1z"/>
		</g>
		<g>
			<polygon class="st8" points="305.3,136.7 331.4,131.7 331.4,92.8 305.3,97.8 			"/>
			<path class="st4" d="M304.6,137.5V97.2l27.5-5.2v40.4L304.6,137.5z M306,98.4v37.4l24.6-4.7V93.7L306,98.4z"/>
		</g>
	</g>
	<g>
		<polygon class="st2" points="277.3,106.7 280.7,104.8 284.5,109.2 280.7,113.8 276.6,111.7 		"/>
	</g>
	<g>
		<polygon class="st2" points="333.9,108.3 330.3,106.9 327.3,111.9 331.7,115.8 335.5,113 		"/>
	</g>
</g>
<g>
	<path class="st5" d="M391,177.5l3.3-2.2c0,0,1.4-5.4,1.6-6.2c0.3,0.3,2.3,1.3,4.8,2.4c5.7,2.5,14.4,6,14.4,6l2.4-27.6l-11.3,0
		l1.5,17.9l-6.5-2.3l-9.3-3.3L391,177.5z"/>
	<path class="st9" d="M414.7,131l13.7,1.9l11.8-8.3l-0.3-2.9l-12.4,6.6c0,0-13.1-3.4-13.1-3.4L414.7,131z"/>
	<polygon class="st9" points="439.9,121.7 442.7,119.3 447.2,119.3 446.3,126 442,126 439.7,125.3 	"/>
	<g>
		<path class="st2" d="M414.4,119.2l2.3-2.7l-0.3-0.3l-1.2-1l-0.2-0.2l0-0.7l0-5.4l0-2.6l0-0.6l2.6,0.4l3.1,0.4l6.4,0.9v2.8
			l-0.7,1.7l0,0.1l1.3,3.3l-2,1.2l-1.3,3.9h-2.6l-0.8-0.7l-1.1,1.8C418.1,120.8,415.9,119.8,414.4,119.2z"/>
		<path class="st1" d="M414.9,114.3l0.2,0.8l1.2,1c0,0,1.8-2,2.1-2.3l-1.3-1.4l0.3-1.5l1.6-0.6l0.6,1c1.3-1.5,2.4-3.4,2.2-3.3
			l-1.4-1.5l-5.7-0.8L414.9,114.3z"/>
		<path class="st10" d="M415,106.3c0.8-0.1,1.6-0.1,2.6-0.2l3.1,0.4l6.4,0.9v2.8l-0.7,1.7c-2.4-0.6-7.8-1.8-11.4-3.1L415,106.3z"/>
		<g>
			<path class="st5" d="M427.9,108.6c0,0,1.9,0.3,2.3,0.8c0.3,0.4,1.4,2.3,0.3,2.3c-1.1-0.1-18-3.5-17.5-4.3c0.6-0.8,0.3-1.5,2-1.1
				L427.9,108.6z"/>
			<path class="st6" d="M414.2,106.6c0,0,2.2,1.7,6.8,2.4c4,0.7,7.4,0.7,7.4,0.7c0.2-1.1,0.3-2.1,0.3-3c0-0.3,0-0.5,0-0.7
				c-0.4-4.2-3.5-6-6.7-6.2c-3.2-0.2-6.1,1.7-7.2,4.5c0,0,0,0.1,0,0.1C414.5,105.1,414.3,105.8,414.2,106.6z"/>
			<path class="st5" d="M414.7,104.4C414.7,104.4,414.7,104.4,414.7,104.4c0.1-0.1,0.3-0.2,0.5-0.3c0.1-0.1,0.2-0.2,0.3-0.2
				c0.1-0.1,0.3-0.2,0.4-0.3c0.1-0.1,0.3-0.2,0.5-0.3c0.2-0.1,0.4-0.2,0.5-0.3c0.1-0.1,0.2-0.1,0.3-0.2c0.1-0.1,0.2-0.1,0.3-0.1
				c0.2-0.1,0.4-0.2,0.6-0.3c0.2-0.1,0.5-0.2,0.7-0.3c0.2-0.1,0.5-0.1,0.7-0.2c0.3,0,0.5-0.1,0.8-0.1c0.1,0,0.3,0,0.4,0l0.2,0l0.2,0
				c0.1,0,0.3,0,0.4,0c0.1,0,0.3,0,0.4,0c0.3,0,0.5,0.1,0.8,0.1c0.1,0,0.3,0.1,0.4,0.1l0.2,0.1l0.2,0.1c0.1,0.1,0.2,0.1,0.4,0.1
				c0.1,0.1,0.2,0.1,0.4,0.2c0.5,0.2,0.9,0.5,1.3,0.8c0.2,0.1,0.4,0.3,0.6,0.5c0.2,0.2,0.4,0.3,0.5,0.5c0.3,0.3,0.6,0.7,0.9,1
				c0.3,0.3,0.5,0.6,0.7,0.9c0.1,0.2,0.2,0.3,0.3,0.4c0-0.3,0-0.5,0-0.7c-0.1-0.3-0.3-0.6-0.5-0.9c-0.2-0.4-0.5-0.8-0.8-1.2
				c-0.2-0.2-0.3-0.4-0.5-0.6c-0.2-0.2-0.4-0.4-0.6-0.6c-0.4-0.4-0.9-0.7-1.4-1c-0.5-0.3-1.1-0.5-1.7-0.7c-0.3-0.1-0.6-0.1-0.9-0.1
				c-0.2,0-0.3,0-0.5,0c-0.2,0-0.3,0-0.5,0l-0.2,0l-0.2,0c-0.1,0-0.3,0-0.4,0.1c-0.3,0.1-0.6,0.1-0.9,0.2c-0.3,0.1-0.5,0.2-0.8,0.3
				c-0.2,0.1-0.5,0.2-0.7,0.3c-0.2,0.1-0.4,0.3-0.6,0.4c-0.1,0.1-0.2,0.1-0.3,0.2c-0.1,0.1-0.2,0.1-0.3,0.2
				c-0.2,0.1-0.3,0.3-0.5,0.4c-0.2,0.1-0.3,0.3-0.4,0.4c-0.1,0.1-0.3,0.2-0.4,0.3c-0.1,0.1-0.2,0.2-0.3,0.3
				c-0.1,0.2-0.3,0.3-0.4,0.4C414.8,104.3,414.7,104.3,414.7,104.4z"/>
			<path class="st5" d="M423.3,109.4c0,0,0.5-1.6,0.3-1.9c-0.3-0.3-3.7-1.1-4-0.9c-0.3,0.2-0.9,2.1-0.8,2.2L423.3,109.4z"/>
		</g>
	</g>
	<polygon class="st2" points="421.4,138.7 421.4,139.1 421.4,138.7 	"/>
	<polygon class="st2" points="420.4,143.5 419.4,148.2 421.4,139.1 	"/>
	<path class="st2" d="M428.8,165.2c0-4.2-0.1-7.8-0.2-7.6C428.7,157.4,428.8,160.4,428.8,165.2z"/>
	<path class="st7" d="M421.7,135l-6.5,1.8l-1.8-10.6l7.2-2.8c0,0,1.8,2.6,2.7,5.5L421.7,135z"/>
	<path class="st7" d="M414.4,119.2c1.5,0.7,3.7,1.7,5.3,2.4l0,0l0,0l-7.8,0.5L414.4,119.2z"/>
	<path class="st6" d="M406,149.5l4.1-12.5l-1.3-11.3l3-3.6l7.8-0.5l0.9,1.9l-7.2,2.8l1.8,10.6l6.5-1.8l-0.3,3.6l0,0.4l-2,9.1l16.9,5
		l-0.8,13.5l0-0.6h-6.7c0,0.3,0,0.6,0,0.8l0,0c0-0.6,0-1.2,0-1.7c0-4.8-0.1-5.9-0.2-5.7c-0.1,0.1-19.4-3-19.4-3L406,149.5z"/>
	<g>
		<polygon class="st6" points="451.3,119.7 450.2,121.9 447,122.1 447.5,117.3 		"/>
		<polygon class="st7" points="442.3,115.1 442.3,128.4 444.1,129.7 446.2,129.7 448.6,128.1 448.6,122.2 448.6,120 456.9,120 
			458.8,118.2 458.8,115.4 456,113.6 444.2,113.6 		"/>
		<polygon class="st7" points="462.4,116.2 467.9,116.2 468.4,117 461.9,117 		"/>
		<polygon class="st6" points="458.8,118.2 462.4,118.2 462.4,115.3 458.8,115.4 		"/>
		<rect x="444.2" y="129.7" class="st7" width="2" height="3.2"/>
		<g>
			<path class="st7" d="M429.1,187.1c17.1,0,27.2-2.2,29.4-6.6c1-2,0.3-4.3-2.1-6.8c-9.2-9.9-10.7-40.8-10.7-41.2l-1.1,0
				c0.1,1.3,1.4,31.7,11,41.8c2,2.2,2.7,4.1,1.9,5.7c-3.2,6.4-28.1,7.8-66.5,3.6l-0.1,1C406,186.3,418.8,187.1,429.1,187.1z"/>
		</g>
	</g>
	<path class="st2" d="M417.2,132.8l13.7,1.9l11.8-8.3l-0.3-2.9l-12.4,6.6c0,0-8.1-2.2-10.6-2.8L417.2,132.8z"/>
	<path class="st7" d="M435.5,166.1l0,0.6l-0.5,7.5l4.8,2.1l1.5,3.1l-12.4-1c0,0,0-5,0-10.2c0-0.7,0-0.6,0-1.4c0-0.3,0-0.6,0-0.8
		H435.5z"/>
	<path class="st7" d="M391,177.5l3.3-2.2c0,0,1.4-5.4,1.6-6.2c0.3,0.3,2.3,1.3,4.8,2.4l0.6-6l-9.3-3.3L391,177.5z"/>
	<polygon class="st2" points="442.4,123.5 445.4,120.6 449.9,120.6 449,127.3 444.7,127.3 442.4,126.7 	"/>
</g>
<g>
	<g>
		<path class="st2" d="M167.2,90.8l-1-4.7l0.6-0.1l2.1-0.4l0.4-0.1l0.4-0.8l3.5-6.4l1.7-3l0.4-0.7l-3.3-1.2l-4-1.5l-8.2-3.1L158,72
			l-0.2,2.5l0,0.1l-3.7,3.1l1.6,2.7l-1,5.5l3.1,1.7l1.4-0.3l0.6,4.4C162.2,91.9,165,90.6,167.2,90.8z"/>
		<path class="st1" d="M169.7,84.7l-0.8,0.8l-2.1,0.4c0,0-0.9-3.5-1-4.1l2.4-0.8l0.6-2l-1.5-1.7l-1.4,0.7c-0.6-2.6-0.7-5.6-0.5-5.3
			l2.6-0.8l7.3,2.8L169.7,84.7z"/>
		<path class="st10" d="M174.9,75.3c-0.9-0.6-1.8-1.2-2.9-1.9l-4-1.5l-8.2-3.1L158,72l-0.2,2.5c3.2,0.9,10.4,3,15.5,3.8L174.9,75.3z
			"/>
		<g>
			<path class="st5" d="M158.1,69.5c0,0-2.4-0.9-3.3-0.6c-0.7,0.3-3.2,1.8-1.9,2.5c1.3,0.6,23.6,7.7,23.4,6.4
				c-0.2-1.3,0.7-1.9-1.6-2.6L158.1,69.5z"/>
			<path class="st6" d="M175.6,76.1c0,0-3.7,0.5-9.6-1.6c-5.2-1.8-9.2-4.1-9.2-4.1c0.4-1.5,1-2.7,1.6-3.8c0.2-0.3,0.3-0.6,0.5-0.8
				c3.2-4.6,8.1-4.8,12-2.9c3.9,1.9,6.1,6,5.6,10.1c0,0.1,0,0.1,0,0.2C176.3,74.2,176,75.2,175.6,76.1z"/>
			<path class="st5" d="M176.4,73.2C176.4,73.2,176.4,73.2,176.4,73.2c-0.1-0.2-0.2-0.4-0.4-0.7c-0.1-0.2-0.2-0.3-0.3-0.5
				c-0.1-0.2-0.2-0.4-0.3-0.6c-0.1-0.2-0.2-0.4-0.4-0.6c-0.1-0.2-0.3-0.5-0.5-0.7c-0.1-0.1-0.2-0.2-0.2-0.4
				c-0.1-0.1-0.2-0.2-0.3-0.4c-0.2-0.2-0.4-0.5-0.6-0.8c-0.2-0.2-0.4-0.5-0.6-0.7c-0.2-0.2-0.5-0.5-0.7-0.7
				c-0.3-0.2-0.5-0.4-0.8-0.7c-0.1-0.1-0.3-0.2-0.4-0.3l-0.2-0.2l-0.2-0.1c-0.2-0.1-0.3-0.2-0.5-0.3c-0.2-0.1-0.3-0.1-0.5-0.2
				c-0.3-0.2-0.7-0.2-1-0.4c-0.2,0-0.4-0.1-0.5-0.1l-0.3-0.1l-0.3,0c-0.2,0-0.4-0.1-0.5-0.1c-0.2,0-0.4,0-0.5,0
				c-0.7,0-1.4,0-2.1,0.1c-0.3,0-0.7,0.1-1,0.2c-0.3,0.1-0.7,0.1-1,0.2c-0.6,0.2-1.2,0.4-1.8,0.6c-0.5,0.2-1,0.4-1.5,0.6
				c-0.2,0.1-0.5,0.2-0.7,0.3c0.2-0.3,0.3-0.6,0.5-0.8c0.4-0.2,0.8-0.5,1.3-0.8c0.5-0.3,1.1-0.6,1.8-0.8c0.3-0.1,0.7-0.2,1-0.4
				c0.4-0.1,0.7-0.2,1.1-0.3c0.7-0.2,1.5-0.2,2.4-0.3c0.8,0,1.7,0.1,2.5,0.3c0.4,0.1,0.8,0.2,1.2,0.4c0.2,0.1,0.4,0.2,0.6,0.3
				c0.2,0.1,0.4,0.2,0.5,0.3l0.3,0.2l0.2,0.2c0.2,0.1,0.3,0.2,0.5,0.4c0.3,0.3,0.6,0.5,0.9,0.8c0.3,0.3,0.5,0.6,0.7,0.9
				c0.2,0.3,0.4,0.6,0.6,0.9c0.2,0.3,0.3,0.6,0.5,0.9c0.1,0.1,0.2,0.3,0.2,0.4c0.1,0.1,0.1,0.3,0.2,0.4c0.1,0.3,0.2,0.5,0.4,0.8
				c0.1,0.3,0.2,0.5,0.3,0.7c0.1,0.2,0.2,0.4,0.2,0.6c0.1,0.2,0.1,0.4,0.2,0.6c0.1,0.3,0.1,0.5,0.2,0.7
				C176.5,73.1,176.5,73.1,176.4,73.2z"/>
			<path class="st5" d="M163,73.5c0,0,0.4-2.2,0.9-2.3c0.5-0.1,5.1,1.2,5.3,1.6c0.2,0.4-0.3,3-0.5,3.1L163,73.5z"/>
		</g>
	</g>
	<path class="st9" d="M163.4,104.5L145.2,99l-9.9-17.2l2.1-3.5L149,93.8c0,0,18.3,3.4,18.3,3.4L163.4,104.5z"/>
	<g>
		<path class="st5" d="M181.9,150.6l-5.6-22.8l-0.1-0.3c-1.3,2.8-5.2,11-8,16.9l4.3,10.3l7.4,8.4l11-1.1L181.9,150.6z"/>
		<polygon class="st7" points="191.1,162 180,163 187.4,173.4 182.3,176.1 181.3,180.8 199,176.1 		"/>
		<polygon class="st2" points="157.1,114 157.1,114.6 157.1,114 		"/>
		<polygon class="st2" points="158.4,120.5 159.8,126.8 157.1,114.6 		"/>
		<path class="st2" d="M164.7,160.8c0-5.7,0.1-10.4,0.3-10.2C164.8,150.3,164.7,154.4,164.7,160.8z"/>
		<path class="st7" d="M156.6,109.1l8.8,2.4l4.5-16.3l-11.8-1.6c0,0-2.5,3.5-3.6,7.3L156.6,109.1z"/>
		<path class="st7" d="M166.5,87.8c-2,0.9-5,2.2-7.2,3.2l0,0l0,0l10.6,0.7L166.5,87.8z"/>
		<path class="st6" d="M176.8,126.5l-4.5-14.8l1.8-15.2l-4.1-4.8L159.3,91l-1.2,2.5l11.8,1.6l-4.5,16.3l-8.8-2.4l0.4,4.9l0,0.6
			l2.7,12.2l-5.3,17.9l1.1,18.2l-0.1-0.9h9.1c0,0.4,0,0.7,0,1.1h0c0-0.8,0-1.6,0-2.3c0-6.4,0.1-10.5,0.3-10.2
			c0.1,0.2,1.5-2.5,3.3-6.2c2.9-5.8,6.7-14,8-16.9C176.6,126.9,176.8,126.5,176.8,126.5z"/>
		<path class="st7" d="M155.6,162l0.1,0.9l0.7,11.2l-6.5,2.8l-2,4.2l16.7-1.3c0,0,0-6.7,0-13.7c0-1,0-2,0-3c0-0.4,0-0.8,0-1.1H155.6
			z"/>
	</g>
	<path class="st2" d="M166.1,102.4L150,112.5l-19.5-3.8l-1.3-3.9l19.3,1.3c0,0,9-7.3,11.8-9.5L166.1,102.4z"/>
	<polygon class="st2" points="129.2,104.9 120.4,100.3 120.4,111.5 128.5,111 131,108.9 	"/>
	<polygon class="st5" points="127,89.7 133.3,65.5 135.3,66 130.4,90.8 	"/>
	<polygon class="st11" points="143,65.5 138.8,67 128.7,64.2 128.8,63.9 129.6,60.3 137.1,61.8 139.6,62.3 	"/>
	<polygon class="st9" points="137.4,79 135.4,74.4 129.7,71.7 127,80.6 132.3,83.1 135.6,83.6 	"/>
	<polygon class="st10" points="143,65.5 138.8,67 128.7,64.2 128.8,63.9 137.1,61.8 139.6,62.3 	"/>
</g>
<g>
	<g>
		<path class="st2" d="M72,102.4l0.9-4l-0.5-0.1L70.6,98l-0.3-0.1l-0.4-0.7l-3-5.5l-1.4-2.6l-0.3-0.6l2.8-1.1l3.4-1.3l7.1-2.6
			l1.6,2.8l0.2,2.1l0,0.1l3.2,2.7l-1.4,2.3l0.8,4.7l-2.7,1.5l-1.2-0.2l-0.1,4C76.8,103.7,74,102.3,72,102.4z"/>
		<path class="st1" d="M69.9,97.2l0.7,0.7l1.8,0.3c0,0,0.8-3,0.9-3.5l-2.1-0.7l-0.5-1.7l1.3-1.5l1.2,0.6c0.6-2.2,0.6-4.8,0.5-4.6
			l-2.2-0.7l-6.3,2.3L69.9,97.2z"/>
		<path class="st10" d="M66.9,91.7c4.3-0.7,10.6-2.4,13.3-3.2l-0.2-2.1l-1.6-2.8l-7.1,2.6L68,87.4c-0.9,0.6-1.8,1.1-2.5,1.6
			L66.9,91.7z"/>
		<g>
			<path class="st5" d="M80,84.2c0,0,2.1-0.8,2.8-0.5c0.6,0.2,2.7,1.6,1.6,2.1c-1.2,0.5-20.3,6.5-20.2,5.4c0.1-1.1-0.6-1.7,1.4-2.2
				L80,84.2z"/>
			<path class="st6" d="M64.9,89.8c0,0,3.2,0.4,8.3-1.3c4.5-1.5,8-3.5,8-3.5c-0.4-1.3-0.8-2.3-1.3-3.2c-0.1-0.3-0.3-0.5-0.5-0.7
				c-2.7-4-6.9-4.2-10.3-2.6c-3.4,1.6-5.3,5.1-4.9,8.6c0,0,0,0.1,0,0.1C64.3,88.1,64.5,88.9,64.9,89.8z"/>
			<path class="st5" d="M64.2,87.2C64.2,87.2,64.2,87.2,64.2,87.2c0.1-0.2,0.2-0.4,0.4-0.6c0.1-0.1,0.1-0.3,0.2-0.4
				c0.1-0.1,0.2-0.3,0.3-0.5c0.1-0.2,0.2-0.4,0.3-0.6c0.1-0.2,0.3-0.4,0.4-0.6c0.1-0.1,0.1-0.2,0.2-0.3c0.1-0.1,0.2-0.2,0.2-0.3
				c0.2-0.2,0.3-0.4,0.5-0.6c0.2-0.2,0.4-0.4,0.6-0.6c0.2-0.2,0.4-0.4,0.6-0.6c0.2-0.2,0.5-0.4,0.7-0.6c0.1-0.1,0.3-0.2,0.4-0.2
				l0.2-0.1l0.2-0.1c0.1-0.1,0.3-0.1,0.4-0.2c0.1-0.1,0.3-0.1,0.4-0.2c0.3-0.1,0.6-0.2,0.9-0.3c0.1,0,0.3-0.1,0.5-0.1l0.2-0.1l0.2,0
				c0.2,0,0.3,0,0.5-0.1c0.2,0,0.3,0,0.5,0c0.6,0,1.2,0,1.8,0.1c0.3,0,0.6,0.1,0.9,0.2c0.3,0.1,0.6,0.1,0.8,0.2
				c0.5,0.1,1,0.3,1.5,0.5c0.5,0.2,0.9,0.3,1.3,0.5c0.2,0.1,0.4,0.2,0.6,0.3c-0.1-0.3-0.3-0.5-0.5-0.7c-0.3-0.2-0.7-0.4-1.1-0.7
				c-0.5-0.2-0.9-0.5-1.5-0.7c-0.3-0.1-0.6-0.2-0.9-0.3c-0.3-0.1-0.6-0.2-0.9-0.2c-0.6-0.2-1.3-0.2-2-0.2c-0.7,0-1.4,0.1-2.1,0.3
				c-0.3,0.1-0.7,0.2-1,0.4c-0.2,0.1-0.3,0.1-0.5,0.2c-0.2,0.1-0.3,0.2-0.5,0.3l-0.2,0.1l-0.2,0.2c-0.1,0.1-0.3,0.2-0.4,0.3
				c-0.3,0.2-0.5,0.5-0.8,0.7c-0.2,0.2-0.4,0.5-0.6,0.7c-0.2,0.3-0.4,0.5-0.5,0.8c-0.2,0.2-0.3,0.5-0.5,0.7
				c-0.1,0.1-0.1,0.2-0.2,0.4c-0.1,0.1-0.1,0.2-0.2,0.4c-0.1,0.2-0.2,0.5-0.3,0.7c-0.1,0.2-0.2,0.4-0.2,0.6
				c-0.1,0.2-0.1,0.4-0.2,0.5c-0.1,0.2-0.1,0.3-0.1,0.5c-0.1,0.2-0.1,0.4-0.2,0.6C64.2,87.1,64.2,87.2,64.2,87.2z"/>
			<path class="st5" d="M75.8,87.6c0,0-0.3-1.9-0.8-2c-0.4-0.1-4.4,1-4.6,1.3c-0.2,0.3,0.3,2.6,0.5,2.7L75.8,87.6z"/>
		</g>
	</g>
	<path class="st9" d="M75.4,115.2l15.7-4.8l9.2-11.9l-1.8-3l-10.6,10.4c0,0-15.7,2.9-15.8,2.9L75.4,115.2z"/>
	<polygon class="st11" points="95.1,77.1 94.9,67.7 98.6,67.7 99.1,68.9 96.4,69 96.6,77.1 100.1,77.1 100.2,77.2 103.3,77.2 
		103.3,89.8 102,89.8 101.8,78.3 95.1,78.4 95.1,77.5 95.1,77.5 95.1,77.5 95.1,77.1 	"/>
	<g>
		<path class="st5" d="M59.4,154.8l4.8-19.7l0.1-0.2c1.1,2.4,4.5,9.5,6.9,14.5l-3.7,8.8l-6.4,7.2l-9.5-0.9L59.4,154.8z"/>
		<polygon class="st7" points="51.6,164.6 61.1,165.6 54.8,174.5 59.1,176.8 60,180.9 44.7,176.8 		"/>
		<polygon class="st2" points="80.9,123.3 80.8,123.8 80.9,123.3 		"/>
		<polygon class="st2" points="79.7,128.9 78.5,134.3 80.8,123.8 		"/>
		<path class="st2" d="M74.3,163.6c0-4.9-0.1-9-0.2-8.8C74.2,154.6,74.3,158.1,74.3,163.6z"/>
		<path class="st7" d="M81.2,119.1l-7.6,2.1l-3.9-14.1l10.1-1.4c0,0,2.1,3,3.1,6.3L81.2,119.1z"/>
		<path class="st7" d="M72.7,100.7c1.8,0.8,4.3,1.9,6.2,2.8l0,0l0,0l-9.1,0.6L72.7,100.7z"/>
		<path class="st6" d="M63.9,134.1l3.9-12.7l-1.5-13.1l3.5-4.1l9.1-0.6l1,2.1l-10.1,1.4l3.9,14.1l7.6-2.1l-0.4,4.2l0,0.5l-2.3,10.5
			l4.6,15.4l-1,15.7l0-0.7h-7.8c0,0.3,0,0.6,0,1h0c0-0.7,0-1.3,0-2c0-5.5-0.1-9-0.2-8.8c-0.1,0.2-1.3-2.2-2.9-5.4
			c-2.5-5-5.8-12.1-6.9-14.5C64,134.4,63.9,134.1,63.9,134.1z"/>
		<path class="st7" d="M82.1,164.6l0,0.7l-0.6,9.7l5.6,2.4l1.7,3.6L74.3,180c0,0,0-5.8,0-11.8c0-0.9,0-1.7,0-2.5c0-0.3,0-0.6,0-1
			H82.1z"/>
	</g>
	<rect x="103.9" y="62.1" class="st1" width="20.6" height="118.1"/>
	<polygon class="st10" points="103.9,69.3 103.9,180.2 112.8,180.2 118.7,68.9 	"/>
	<g>
		<path class="st5" d="M97,69.2c0-1.6,1.3-3,2.9-3l0,0l15.7-0.2l0.1,6L100,72.1l0,0C98.4,72.1,97,70.8,97,69.2z"/>
		<path class="st6" d="M112.7,69c0,1.6,1.4,3,3,2.9c1.6,0,3-1.4,2.9-3c0-1.6-1.4-3-3-2.9C114,66,112.7,67.3,112.7,69z"/>
	</g>
	<path class="st2" d="M72.6,110l2.9,16.1l13.7,10.3l3.2-1.4l-12-11.5c0,0-0.5-10-0.8-13L72.6,110z"/>
	<g>
		<path class="st4" d="M86.5,149.2l1.2-0.1c0,0-0.5-4.9,1.9-7.5c1.1-1.2,2.6-1.8,4.5-1.8c1.9,0,3.4,0.6,4.5,1.8
			c2.4,2.7,1.9,7.5,1.9,7.5l1.2,0.1c0-0.2,0.6-5.4-2.2-8.5c-1.3-1.5-3.1-2.2-5.4-2.2c-2.3,0-4.1,0.7-5.4,2.2
			C86,143.8,86.5,149,86.5,149.2z"/>
	</g>
	<g>
		<path class="st7" d="M87.1,160.7c0,0,2.4,2,7,2c4.6,0,7-2,7-2v-12.9h-14V160.7z"/>
	</g>
	<polygon class="st2" points="92.3,134.9 97.8,137 96.1,143.6 88.9,138.9 88.8,136.1 	"/>
	<rect x="101.4" y="85.6" class="st6" width="3.7" height="16"/>
	<polygon class="st9" points="98.4,95.8 100.2,91.8 106.4,89.8 106.4,97.6 102.8,99.3 99.3,99.8 	"/>
	<path class="st7" d="M87.1,147.8c0,0.6,3.1,1,7,1c3.9,0,7-0.4,7-1c0-0.6-3.1-1-7-1C90.3,146.8,87.1,147.2,87.1,147.8z"/>
	<path class="st4" d="M87.7,148.2c0,0.6,2.9,1,6.4,1c3.6,0,6.4-0.4,6.4-1c0-0.6-2.9-1-6.4-1C90.6,147.2,87.7,147.6,87.7,148.2z"/>
</g>
<g>
	<g>
		<g>
			<g>
				<path class="st2" d="M358.9,99.8l0.8-3.9l-0.5-0.1l-1.8-0.3l-0.3-0.1l-0.3-0.6l-2.9-5.3l-1.4-2.5l-0.3-0.6l2.7-1l3.3-1.2
					l6.9-2.5l1.5,2.8l0.2,2.1l0,0.1l3,2.6l-1.3,2.3l0.8,4.6l-2.6,1.4l-1.2-0.2l-0.1,3.9C363.5,101,360.8,99.7,358.9,99.8z"/>
			</g>
			<g>
				<path class="st1" d="M356.8,94.8l0.7,0.7l1.8,0.3c0,0,0.7-2.9,0.9-3.4l-2-0.7l-0.5-1.7l1.3-1.5l1.2,0.6c0.5-2.2,0.6-4.7,0.4-4.5
					l-2.1-0.7l-6.1,2.3L356.8,94.8z"/>
			</g>
			<g class="st3">
				<path class="st4" d="M354,89.5c4.2-0.7,10.2-2.3,12.9-3.1l-0.2-2.1l-1.5-2.8l-6.9,2.5l-3.3,1.2c-0.9,0.6-1.7,1.1-2.4,1.6
					L354,89.5z"/>
			</g>
			<g>
				<g>
					<path class="st5" d="M366.6,82.2c0,0,2-0.8,2.7-0.5c0.6,0.2,2.7,1.5,1.5,2.1c-1.1,0.5-19.7,6.3-19.5,5.2
						c0.1-1.1-0.5-1.6,1.4-2.1L366.6,82.2z"/>
				</g>
				<g>
					<path class="st6" d="M352,87.6c0,0,3.1,0.4,8-1.3c4.3-1.5,7.7-3.4,7.7-3.4c-0.4-1.2-0.8-2.3-1.3-3.1c-0.1-0.2-0.3-0.5-0.4-0.7
						c-2.6-3.9-6.7-4-10-2.5c-3.3,1.5-5.1,5-4.7,8.4c0,0,0,0.1,0,0.1C351.4,86,351.6,86.8,352,87.6z"/>
				</g>
				<g>
					<path class="st5" d="M351.3,85.1C351.3,85.1,351.3,85.1,351.3,85.1c0.1-0.2,0.2-0.4,0.3-0.6c0.1-0.1,0.1-0.3,0.2-0.4
						c0.1-0.1,0.2-0.3,0.3-0.5c0.1-0.2,0.2-0.3,0.3-0.5c0.1-0.2,0.2-0.4,0.4-0.6c0.1-0.1,0.1-0.2,0.2-0.3c0.1-0.1,0.1-0.2,0.2-0.3
						c0.2-0.2,0.3-0.4,0.5-0.6c0.2-0.2,0.4-0.4,0.5-0.6c0.2-0.2,0.4-0.4,0.6-0.6c0.2-0.2,0.4-0.4,0.7-0.5c0.1-0.1,0.2-0.2,0.4-0.2
						l0.2-0.1l0.2-0.1c0.1-0.1,0.3-0.1,0.4-0.2c0.1-0.1,0.3-0.1,0.4-0.2c0.3-0.1,0.6-0.2,0.8-0.3c0.1,0,0.3-0.1,0.4-0.1l0.2,0l0.2,0
						c0.2,0,0.3,0,0.4-0.1c0.1,0,0.3,0,0.5,0c0.6,0,1.2,0,1.8,0.1c0.3,0,0.6,0.1,0.8,0.2c0.3,0.1,0.5,0.1,0.8,0.2
						c0.5,0.1,1,0.3,1.5,0.5c0.4,0.2,0.9,0.3,1.2,0.5c0.2,0.1,0.4,0.2,0.5,0.3c-0.1-0.2-0.3-0.5-0.4-0.7c-0.3-0.2-0.7-0.4-1-0.6
						c-0.4-0.2-0.9-0.5-1.5-0.7c-0.3-0.1-0.6-0.2-0.8-0.3c-0.3-0.1-0.6-0.2-0.9-0.2c-0.6-0.1-1.3-0.2-2-0.2c-0.7,0-1.4,0.1-2.1,0.3
						c-0.3,0.1-0.7,0.2-1,0.4c-0.2,0.1-0.3,0.1-0.5,0.2c-0.2,0.1-0.3,0.2-0.4,0.3l-0.2,0.1l-0.2,0.2c-0.1,0.1-0.3,0.2-0.4,0.3
						c-0.3,0.2-0.5,0.4-0.7,0.7c-0.2,0.2-0.4,0.5-0.6,0.7c-0.2,0.3-0.4,0.5-0.5,0.7c-0.2,0.2-0.3,0.5-0.4,0.7
						c-0.1,0.1-0.1,0.2-0.2,0.3c-0.1,0.1-0.1,0.2-0.2,0.3c-0.1,0.2-0.2,0.4-0.3,0.6c-0.1,0.2-0.2,0.4-0.2,0.6
						c-0.1,0.2-0.1,0.4-0.2,0.5c0,0.2-0.1,0.3-0.1,0.5c-0.1,0.2-0.1,0.4-0.1,0.6C351.3,85,351.3,85.1,351.3,85.1z"/>
				</g>
				<g>
					<path class="st5" d="M362.5,85.5c0,0-0.3-1.9-0.7-2c-0.4-0.1-4.3,0.9-4.4,1.3c-0.2,0.3,0.3,2.5,0.4,2.6L362.5,85.5z"/>
				</g>
			</g>
		</g>
		<g>
			<path class="st9" d="M364.9,108.7l12.3-9.9l3.9-14l-2.7-2.1l-5.8,13.2c0,0-13.1,8.3-13.1,8.3L364.9,108.7z"/>
		</g>
		<g>
			<g>
				<path class="st5" d="M346.7,150.5l4.6-19l0.1-0.2c1.1,2.3,4.3,9.2,6.7,14.1l-3.6,8.5l-6.2,7l-9.2-0.9L346.7,150.5z"/>
			</g>
			<g>
				<polygon class="st7" points="339.1,160 348.3,160.9 342.2,169.5 346.4,171.8 347.2,175.7 332.5,171.8 				"/>
			</g>
			<g>
				<polygon class="st2" points="367.4,120 367.4,120.5 367.4,120 				"/>
			</g>
			<g>
				<polygon class="st2" points="366.3,125.4 365.1,130.7 367.4,120.5 				"/>
			</g>
			<g>
				<path class="st2" d="M361.1,159c0-4.8-0.1-8.7-0.2-8.5C361,150.3,361.1,153.7,361.1,159z"/>
			</g>
			<g>
				<path class="st7" d="M367.8,116l-7.3,2l-3.7-13.6l9.8-1.4c0,0,2,2.9,3,6.1L367.8,116z"/>
			</g>
			<g>
				<path class="st7" d="M359.6,98.2c1.7,0.8,4.1,1.9,6,2.7l0,0l0,0l-8.8,0.6L359.6,98.2z"/>
			</g>
			<g>
				<path class="st6" d="M351,130.5l3.7-12.3l-1.5-12.7l3.4-4l8.8-0.6l1,2.1l-9.8,1.4l3.7,13.6l7.3-2l-0.3,4.1l0,0.5l-2.3,10.2
					l4.4,14.9l-0.9,15.2l0-0.7h-7.5c0,0.3,0,0.6,0,0.9h0c0-0.7,0-1.3,0-1.9c0-5.3-0.1-8.7-0.2-8.5c-0.1,0.2-1.3-2.1-2.8-5.2
					c-2.4-4.9-5.6-11.7-6.7-14.1C351.2,130.8,351,130.5,351,130.5z"/>
			</g>
			<g>
				<path class="st7" d="M368.6,160l0,0.7l-0.6,9.4l5.4,2.3l1.7,3.5l-13.9-1.1c0,0,0-5.6,0-11.4c0-0.8,0-1.6,0-2.5
					c0-0.3,0-0.6,0-0.9H368.6z"/>
			</g>
		</g>
		<g>
			<polygon class="st9" points="378.6,83.1 378.7,78.8 383.6,74.8 386.4,81.8 383.8,84.7 380.8,86.3 			"/>
		</g>
		<g>
			<path class="st2" d="M359.6,110.2l11.9,10.5l16.5-0.4l1.6-3l-16-1.5c0,0-6.4-7.2-8.4-9.4L359.6,110.2z"/>
		</g>
		<g>
			<path class="st7" d="M392.9,159.6l-0.6-1c3.5-2,3.3-16.9,3-22.5c0-4.4-0.2-7.8-0.4-10.4c-0.4,4-1,7.5-1.6,9.6
				c-1.5,5.7-4.8,11.6-7.4,11.2c-1.8-0.3-2.6-3.3-2.2-9.3c0.5-8.4,4.4-21.4,8.3-21.4c0,0,0,0,0.1,0c0.8,0,1.4,0.5,2,1.5
				c0.1-5.9-0.5-10.9-2.2-11.7c-0.9-0.4-2.3,0.8-4,3.3c-1.7,2.5-3.1,3.5-4.4,3c-4.7-1.7-2.1-26.7-1.6-31.7l1.2,0.1
				c-1.3,12-2,29.5,0.8,30.5c0.3,0.1,1.2,0.1,3-2.6c2.2-3.2,4-4.4,5.5-3.7c2.6,1.2,3.2,8.5,2.8,15.8c0.8,3.3,1.2,8.5,1.2,15.7
				C396.6,138.1,397.6,156.9,392.9,159.6z M392.1,117c-2.4,0-6.5,10.6-7.1,20.2c-0.5,7.5,1,8,1.2,8c1.2,0.2,4.3-4,6-10.3
				c0.9-3.4,1.7-9.1,1.9-14.5C393.3,117.3,392.4,117,392.1,117C392.1,117,392.1,117,392.1,117z"/>
		</g>
		<g>
			<polygon class="st2" points="389.6,117.2 394.9,115.5 397.6,121.5 389.4,122.4 387.6,120.3 			"/>
		</g>
	</g>
	<g>
		<g>
			<path class="st4" d="M379.7,67.4L379.7,67.4c1.2,0,2.3,0.8,2.7,2c0.3,1,0,2-0.7,2.7c-0.6,0.6-0.4,1.5-0.2,2.3
				c0.4,1.5,0.2,1.6,0,1.7c-0.1,0-0.1,0-0.2,0c-0.3,0-0.7-1-0.9-1.4c-0.3-0.8-0.6-1.5-1.4-1.8c-0.9-0.3-1.7-1-1.9-1.9
				c-0.4-1.5,0.4-3,1.9-3.5C379.2,67.5,379.4,67.4,379.7,67.4L379.7,67.4z M379.7,66.2c-0.4,0-0.8,0.1-1.1,0.2
				c-2.1,0.6-3.3,2.9-2.7,5c0.4,1.4,1.5,2.4,2.8,2.7c0.6,0.2,0.9,3.2,2.6,3.2c0.2,0,0.3,0,0.5-0.1c2.2-0.7,0.3-3.8,0.8-4.2
				c1-1,1.4-2.5,0.9-3.9C383,67.4,381.4,66.2,379.7,66.2L379.7,66.2z"/>
		</g>
	</g>
	<g>
		
			<rect x="380.7" y="76.2" transform="matrix(0.9581 -0.2865 0.2865 0.9581 -6.4112 112.7474)" class="st12" width="2.9" height="4.1"/>
	</g>
	<g>
		<path class="st12" d="M388.8,162c-0.3,0.3-0.8,0.4-1,0.2l0,0c-0.2-0.2-0.2-0.7,0.1-1l1.5-1.6c0.3-0.3,0.8-0.4,1-0.2l0,0
			c0.2,0.2,0.2,0.7-0.1,1L388.8,162z"/>
	</g>
	<g>
		<path class="st12" d="M390.7,163.7c-0.3,0.3-0.8,0.4-1,0.2l0,0c-0.2-0.2-0.2-0.7,0.1-1l1.5-1.6c0.3-0.3,0.8-0.4,1-0.2l0,0
			c0.2,0.2,0.2,0.7-0.1,1L390.7,163.7z"/>
	</g>
	<g>
		<path class="st4" d="M392.6,162.5l1.1-1.2c0.9-1,0.9-2.5-0.1-3.4c-1-0.9-2.5-0.8-3.4,0.1l-1.1,1.2L392.6,162.5z"/>
	</g>
</g>
<g>
	<g>
		<g>
			<polygon class="st0" points="239.7,74 234.2,75.5 228.7,74 230.3,64 238.1,64 			"/>
		</g>
		<g>
			<g>
				<polygon class="st1" points="225.6,50.2 226.5,53.6 241.8,53.6 243.1,50.2 				"/>
			</g>
			<g>
				<polygon class="st2" points="242.8,52.4 242.8,57.9 241.8,57.9 241.8,60.9 237.4,68.1 231,68.1 226.6,60.9 226.6,57.9 
					225.6,57.9 225.6,52.4 226.6,52.4 226.6,47.8 241.8,47.8 241.8,52.4 				"/>
			</g>
			<g class="st3">
				<rect x="226.6" y="49.8" class="st4" width="15.1" height="2.6"/>
			</g>
			<g class="st3">
				<polygon class="st4" points="232.3,61 234.2,54.8 236.1,61 				"/>
			</g>
			<g>
				<g>
					<rect x="224.4" y="44.1" class="st5" width="2.5" height="3.4"/>
				</g>
				<g>
					<rect x="241.5" y="44.1" class="st5" width="2.5" height="3.4"/>
				</g>
				<g>
					<path class="st6" d="M243.3,47.6c0-0.1,0-0.2,0-0.4c0-5.1-4.1-9.2-9.2-9.2c-5.1,0-9.2,4.1-9.2,9.2c0,0.1,0,0.2,0,0.4H243.3z"/>
				</g>
				<g>
					<polygon class="st5" points="235.9,47.1 232.3,47.1 231,36.6 237.2,36.6 					"/>
				</g>
				<g>
					<path class="st5" d="M244.1,49c0,0.9-0.7,1.6-1.5,1.6h-16.8c-0.8,0-1.5-0.7-1.5-1.6l0,0c0-0.9,0-1.6,0-1.6H244
						C244,47.4,244.1,48.2,244.1,49L244.1,49z"/>
				</g>
			</g>
		</g>
		<polygon class="st2" points="211.8,87 207.4,98.3 196.2,94.1 192.1,95.9 209.9,108.7 217.8,90.9 		"/>
		<polygon class="st2" points="258.8,89.6 262.6,103.7 260.4,121.4 256.4,121.4 255.8,102.1 252.6,92.3 		"/>
		<g>
			<path class="st7" d="M260.1,88.7l-8.8,5.8l-1-2.9h-31.8l-1,2.9l-8.7-5l6.1-13l5.4-2.7l4.1-2.1l5.1-1.9c0,0,1.5,4.6,4.9,4.6
				c3.4,0,4.8-4.6,4.8-4.6l5.5,1.9l4.1,2.1l5.4,2.7L260.1,88.7z"/>
		</g>
		<g>
			<polygon class="st6" points="245.7,105.7 248.6,80.8 248.6,80.8 248.6,80.8 248.6,73.9 244.5,71.8 244.5,80.8 224.2,80.8 
				224.2,71.8 220.2,73.9 220.2,80.8 220.2,80.8 223.1,105.7 217.7,157.9 229.5,157.9 234.4,123.2 240.9,157.9 252.6,157.9 			"/>
		</g>
		<g>
			<rect x="226.4" y="84.1" class="st5" width="15.6" height="11"/>
		</g>
		<g>
			<polygon class="st7" points="252.8,157.9 252.7,170.5 255.8,175.8 250.4,181.5 244,177.7 243.4,173.6 243.1,170.9 240.9,157.9 
							"/>
		</g>
		<g class="st3">
			<polygon class="st4" points="244,177.7 243.2,171.6 252.7,170.5 255.8,175.8 250.4,181.5 			"/>
		</g>
		<g>
			<polygon class="st7" points="217.7,157.9 217.7,170.5 214.6,175.8 220,181.5 226.5,177.7 227,173.6 227.3,170.9 229.5,157.9 			
				"/>
		</g>
		<g class="st3">
			<polygon class="st4" points="226.5,177.7 227.2,171.6 217.7,170.5 214.6,175.8 220,181.5 			"/>
		</g>
	</g>
	<path class="st4" d="M191.1,100l4.2-17.3l3.7-2.1l-1.8-5.5l-0.9,3.7l-1.2,0.2l-0.9-2.2l1-4l-4.4,3.8l1.5,4l-4.6,18.9
		c-1.1,0.4-2,1.4-2.3,2.6c-0.5,2,0.7,4,2.7,4.5c2,0.5,4-0.7,4.5-2.7C192.8,102.4,192.2,100.9,191.1,100z M188.4,104.7
		c-0.9-0.2-1.5-1.2-1.3-2.1c0.2-0.9,1.2-1.5,2.1-1.3c0.9,0.2,1.5,1.2,1.3,2.1C190.3,104.3,189.4,104.9,188.4,104.7z"/>
	<polygon class="st2" points="196.2,94.1 196.2,87.7 188.1,85.6 186.1,94.1 192.1,95.9 	"/>
	<rect x="241.8" y="130.1" class="st7" width="34.7" height="19.3"/>
	<rect x="239.7" y="128.6" class="st4" width="38.9" height="10"/>
	<rect x="246.9" y="135.5" class="st6" width="3.3" height="6.6"/>
	<rect x="267" y="135.5" class="st6" width="3.3" height="6.6"/>
	<g>
		<polygon class="st4" points="267.8,128.6 266.2,128.6 266.2,124.7 251.1,124.7 251.1,128.6 249.5,128.6 249.5,123.2 267.8,123.2 
					"/>
	</g>
	<polygon class="st2" points="259.7,117.2 253.8,119.6 254.9,127.9 263.5,126.5 262.9,120.3 	"/>
</g>
</svg>
