<?xml version="1.0" encoding="utf-8"?>
<!-- Generator: Adobe Illustrator 23.0.1, SVG Export Plug-In . SVG Version: 6.00 Build 0)  -->
<svg version="1.1" id="Layer_1" xmlns="http://www.w3.org/2000/svg" xmlns:xlink="http://www.w3.org/1999/xlink" x="0px" y="0px"
	 viewBox="0 0 500 200" style="enable-background:new 0 0 500 200;" xml:space="preserve">
<style type="text/css">
	.st0{fill:#FDBA5B;}
	.st1{fill:#5C3A22;}
	.st2{fill:#FECD87;}
	.st3{opacity:0.4;}
	.st4{fill:#878787;}
	.st5{fill:#EA7A24;}
	.st6{fill:#F8941D;}
	.st7{fill:#303030;}
	.st8{fill:#FFFFFF;}
	.st9{fill:#EBB05A;}
	.st10{opacity:0.4;fill:#878787;}
	.st11{fill:#969696;}
	.st12{fill:#646464;}
</style>
<g>
	<g>
		<g>
			<polygon class="st0" points="273.5,81.9 268.4,83.3 263.3,81.9 264.7,72.5 272.1,72.5 			"/>
		</g>
		<g>
			<g>
				<polygon class="st1" points="260.3,59.6 261.2,62.8 275.5,62.8 276.8,59.6 				"/>
			</g>
			<g>
				<polygon class="st2" points="276.4,61.6 276.4,66.8 275.5,66.8 275.5,69.6 271.3,76.3 265.4,76.3 261.3,69.6 261.3,66.8 
					260.3,66.8 260.3,61.6 261.3,61.6 261.3,57.3 275.5,57.3 275.5,61.6 				"/>
			</g>
			<g class="st3">
				<rect x="261.3" y="59.2" class="st4" width="14.2" height="2.4"/>
			</g>
			<g class="st3">
				<polygon class="st4" points="266.6,69.7 268.4,63.9 270.2,69.7 				"/>
			</g>
			<g>
				<g>
					<rect x="259.1" y="53.8" class="st5" width="2.3" height="3.2"/>
				</g>
				<g>
					<rect x="275.2" y="53.8" class="st5" width="2.3" height="3.2"/>
				</g>
				<g>
					<path class="st6" d="M276.9,57.1c0-0.1,0-0.2,0-0.3c0-4.7-3.8-8.6-8.6-8.6c-4.7,0-8.6,3.8-8.6,8.6c0,0.1,0,0.2,0,0.3H276.9z"/>
				</g>
				<g>
					<polygon class="st5" points="269.9,56.6 266.6,56.6 265.4,46.8 271.2,46.8 					"/>
				</g>
				<g>
					<path class="st5" d="M277.6,58.5c0,0.8-0.6,1.5-1.4,1.5h-15.7c-0.8,0-1.4-0.7-1.4-1.5l0,0c0-0.8,0-1.5,0-1.5h18.4
						C277.6,57,277.6,57.7,277.6,58.5L277.6,58.5z"/>
				</g>
			</g>
		</g>
		<g>
			<polygon class="st2" points="289.2,92.7 297.9,108.3 289.8,105.3 283.2,96.5 			"/>
		</g>
		<g>
			<polygon class="st2" points="247.6,92.7 241.3,106.7 253.3,115.9 247.2,105.3 253.6,96.5 			"/>
		</g>
		<g>
			<path class="st7" d="M292.6,95.7l-8.2,5.5l-1-2.7h-29.8l-1,2.7l-8.2-4.7l5.7-12.1l5-2.5l3.8-1.9l4.8-1.8c0,0,1.4,4.3,4.6,4.3
				s4.5-4.3,4.5-4.3l5.1,1.8l3.8,1.9l5,2.5L292.6,95.7z"/>
		</g>
		<g>
			<polygon class="st6" points="279.1,111.6 281.9,88.3 281.9,88.3 281.9,88.3 281.9,81.8 278.1,79.9 278.1,88.3 259,88.3 259,79.9 
				255.2,81.8 255.2,88.3 255.2,88.3 258,111.6 252.9,160.5 264,160.5 268.6,128 274.7,160.5 285.7,160.5 			"/>
		</g>
		<g>
			<rect x="261.1" y="91.3" class="st5" width="14.7" height="10.3"/>
		</g>
		<g>
			<polygon class="st7" points="285.8,160.5 285.7,172.3 288.6,177.3 283.6,182.6 277.5,179.1 277,175.2 276.7,172.7 274.7,160.5 
							"/>
		</g>
		<g class="st3">
			<polygon class="st4" points="277.5,179.1 276.8,173.4 285.7,172.3 288.6,177.3 283.6,182.6 			"/>
		</g>
		<g>
			<polygon class="st7" points="252.9,160.5 252.9,172.3 250,177.3 255.1,182.6 261.1,179.1 261.6,175.2 261.9,172.7 264,160.5 			
				"/>
		</g>
		<g class="st3">
			<polygon class="st4" points="261.1,179.1 261.9,173.4 252.9,172.3 250,177.3 255.1,182.6 			"/>
		</g>
	</g>
	<g>
		<g>
			<polygon class="st8" points="269.3,136.7 243.2,131.7 243.2,92.8 269.3,97.8 			"/>
			<path class="st4" d="M270,137.5l-27.5-5.2V91.9l27.5,5.2V137.5z M243.9,131.1l24.6,4.7V98.4l-24.6-4.7V131.1z"/>
		</g>
		<g>
			<polygon class="st8" points="269.3,136.7 295.4,131.7 295.4,92.8 269.3,97.8 			"/>
			<path class="st4" d="M268.6,137.5V97.2l27.5-5.2v40.4L268.6,137.5z M270,98.4v37.4l24.6-4.7V93.7L270,98.4z"/>
		</g>
	</g>
	<g>
		<polygon class="st2" points="241.3,106.7 244.7,104.8 248.5,109.2 244.7,113.8 240.6,111.7 		"/>
	</g>
	<g>
		<polygon class="st2" points="297.9,108.3 294.3,106.9 291.3,111.9 295.7,115.8 299.5,113 		"/>
	</g>
</g>
<g>
	<path class="st5" d="M355,177.5l3.3-2.2c0,0,1.4-5.4,1.6-6.2c0.3,0.3,2.3,1.3,4.8,2.4c5.7,2.5,14.4,6,14.4,6l2.4-27.6l-11.3,0
		l1.5,17.9l-6.5-2.3l-9.3-3.3L355,177.5z"/>
	<path class="st9" d="M378.7,131l13.7,1.9l11.8-8.3l-0.3-2.9l-12.4,6.6c0,0-13.1-3.4-13.1-3.4L378.7,131z"/>
	<polygon class="st9" points="403.9,121.7 406.7,119.3 411.2,119.3 410.3,126 406,126 403.7,125.3 	"/>
	<g>
		<path class="st2" d="M378.4,119.2l2.3-2.7l-0.3-0.3l-1.2-1l-0.2-0.2l0-0.7l0-5.4l0-2.6l0-0.6l2.6,0.4l3.1,0.4l6.4,0.9v2.8
			l-0.7,1.7l0,0.1l1.3,3.3l-2,1.2l-1.3,3.9h-2.6l-0.8-0.7l-1.1,1.8C382.1,120.8,379.9,119.8,378.4,119.2z"/>
		<path class="st1" d="M378.9,114.3l0.2,0.8l1.2,1c0,0,1.8-2,2.1-2.3l-1.3-1.4l0.3-1.5l1.6-0.6l0.6,1c1.3-1.5,2.4-3.4,2.2-3.3
			l-1.4-1.5l-5.7-0.8L378.9,114.3z"/>
		<path class="st10" d="M379,106.3c0.8-0.1,1.6-0.1,2.6-0.2l3.1,0.4l6.4,0.9v2.8l-0.7,1.7c-2.4-0.6-7.8-1.8-11.4-3.1L379,106.3z"/>
		<g>
			<path class="st5" d="M391.9,108.6c0,0,1.9,0.3,2.3,0.8c0.3,0.4,1.4,2.3,0.3,2.3c-1.1-0.1-18-3.5-17.5-4.3c0.6-0.8,0.3-1.5,2-1.1
				L391.9,108.6z"/>
			<path class="st6" d="M378.2,106.6c0,0,2.2,1.7,6.8,2.4c4,0.7,7.4,0.7,7.4,0.7c0.2-1.1,0.3-2.1,0.3-3c0-0.3,0-0.5,0-0.7
				c-0.4-4.2-3.5-6-6.7-6.2c-3.2-0.2-6.1,1.7-7.2,4.5c0,0,0,0.1,0,0.1C378.5,105.1,378.3,105.8,378.2,106.6z"/>
			<path class="st5" d="M378.7,104.4C378.7,104.4,378.7,104.4,378.7,104.4c0.1-0.1,0.3-0.2,0.5-0.3c0.1-0.1,0.2-0.2,0.3-0.2
				c0.1-0.1,0.3-0.2,0.4-0.3c0.1-0.1,0.3-0.2,0.5-0.3c0.2-0.1,0.4-0.2,0.5-0.3c0.1-0.1,0.2-0.1,0.3-0.2c0.1-0.1,0.2-0.1,0.3-0.1
				c0.2-0.1,0.4-0.2,0.6-0.3c0.2-0.1,0.5-0.2,0.7-0.3c0.2-0.1,0.5-0.1,0.7-0.2c0.3,0,0.5-0.1,0.8-0.1c0.1,0,0.3,0,0.4,0l0.2,0l0.2,0
				c0.1,0,0.3,0,0.4,0c0.1,0,0.3,0,0.4,0c0.3,0,0.5,0.1,0.8,0.1c0.1,0,0.3,0.1,0.4,0.1l0.2,0.1l0.2,0.1c0.1,0.1,0.2,0.1,0.4,0.1
				c0.1,0.1,0.2,0.1,0.4,0.2c0.5,0.2,0.9,0.5,1.3,0.8c0.2,0.1,0.4,0.3,0.6,0.5c0.2,0.2,0.4,0.3,0.5,0.5c0.3,0.3,0.6,0.7,0.9,1
				c0.3,0.3,0.5,0.6,0.7,0.9c0.1,0.2,0.2,0.3,0.3,0.4c0-0.3,0-0.5,0-0.7c-0.1-0.3-0.3-0.6-0.5-0.9c-0.2-0.4-0.5-0.8-0.8-1.2
				c-0.2-0.2-0.3-0.4-0.5-0.6c-0.2-0.2-0.4-0.4-0.6-0.6c-0.4-0.4-0.9-0.7-1.4-1c-0.5-0.3-1.1-0.5-1.7-0.7c-0.3-0.1-0.6-0.1-0.9-0.1
				c-0.2,0-0.3,0-0.5,0c-0.2,0-0.3,0-0.5,0l-0.2,0l-0.2,0c-0.1,0-0.3,0-0.4,0.1c-0.3,0.1-0.6,0.1-0.9,0.2c-0.3,0.1-0.5,0.2-0.8,0.3
				c-0.2,0.1-0.5,0.2-0.7,0.3c-0.2,0.1-0.4,0.3-0.6,0.4c-0.1,0.1-0.2,0.1-0.3,0.2c-0.1,0.1-0.2,0.1-0.3,0.2
				c-0.2,0.1-0.3,0.3-0.5,0.4c-0.2,0.1-0.3,0.3-0.4,0.4c-0.1,0.1-0.3,0.2-0.4,0.3c-0.1,0.1-0.2,0.2-0.3,0.3
				c-0.1,0.2-0.3,0.3-0.4,0.4C378.8,104.3,378.7,104.3,378.7,104.4z"/>
			<path class="st5" d="M387.3,109.4c0,0,0.5-1.6,0.3-1.9c-0.3-0.3-3.7-1.1-4-0.9c-0.3,0.2-0.9,2.1-0.8,2.2L387.3,109.4z"/>
		</g>
	</g>
	<polygon class="st2" points="385.4,138.7 385.4,139.1 385.4,138.7 	"/>
	<polygon class="st2" points="384.4,143.5 383.4,148.2 385.4,139.1 	"/>
	<path class="st2" d="M392.8,165.2c0-4.2-0.1-7.8-0.2-7.6C392.7,157.4,392.8,160.4,392.8,165.2z"/>
	<path class="st7" d="M385.7,135l-6.5,1.8l-1.8-10.6l7.2-2.8c0,0,1.8,2.6,2.7,5.5L385.7,135z"/>
	<path class="st7" d="M378.4,119.2c1.5,0.7,3.7,1.7,5.3,2.4l0,0l0,0l-7.8,0.5L378.4,119.2z"/>
	<path class="st6" d="M370,149.5l4.1-12.5l-1.3-11.3l3-3.6l7.8-0.5l0.9,1.9l-7.2,2.8l1.8,10.6l6.5-1.8l-0.3,3.6l0,0.4l-2,9.1l16.9,5
		l-0.8,13.5l0-0.6h-6.7c0,0.3,0,0.6,0,0.8l0,0c0-0.6,0-1.2,0-1.7c0-4.8-0.1-5.9-0.2-5.7c-0.1,0.1-19.4-3-19.4-3L370,149.5z"/>
	<g>
		<polygon class="st6" points="415.3,119.7 414.2,121.9 411,122.1 411.5,117.3 		"/>
		<polygon class="st7" points="406.3,115.1 406.3,128.4 408.1,129.7 410.2,129.7 412.6,128.1 412.6,122.2 412.6,120 420.9,120 
			422.8,118.2 422.8,115.4 420,113.6 408.2,113.6 		"/>
		<polygon class="st7" points="426.4,116.2 431.9,116.2 432.4,117 425.9,117 		"/>
		<polygon class="st6" points="422.8,118.2 426.4,118.2 426.4,115.3 422.8,115.4 		"/>
		<rect x="408.2" y="129.7" class="st7" width="2" height="3.2"/>
		<g>
			<path class="st7" d="M393.1,187.1c17.1,0,27.2-2.2,29.4-6.6c1-2,0.3-4.3-2.1-6.8c-9.2-9.9-10.7-40.8-10.7-41.2l-1.1,0
				c0.1,1.3,1.4,31.7,11,41.8c2,2.2,2.7,4.1,1.9,5.7c-3.2,6.4-28.1,7.8-66.5,3.6l-0.1,1C370,186.3,382.8,187.1,393.1,187.1z"/>
		</g>
	</g>
	<path class="st2" d="M381.2,132.8l13.7,1.9l11.8-8.3l-0.3-2.9l-12.4,6.6c0,0-8.1-2.2-10.6-2.8L381.2,132.8z"/>
	<path class="st7" d="M399.5,166.1l0,0.6l-0.5,7.5l4.8,2.1l1.5,3.1l-12.4-1c0,0,0-5,0-10.2c0-0.7,0-0.6,0-1.4c0-0.3,0-0.6,0-0.8
		H399.5z"/>
	<path class="st7" d="M355,177.5l3.3-2.2c0,0,1.4-5.4,1.6-6.2c0.3,0.3,2.3,1.3,4.8,2.4l0.6-6l-9.3-3.3L355,177.5z"/>
	<polygon class="st2" points="406.4,123.5 409.4,120.6 413.9,120.6 413,127.3 408.7,127.3 406.4,126.7 	"/>
</g>
<g>
	<g>
		<path class="st2" d="M131.2,90.8l-1-4.7l0.6-0.1l2.1-0.4l0.4-0.1l0.4-0.8l3.5-6.4l1.7-3l0.4-0.7l-3.3-1.2l-4-1.5l-8.2-3.1L122,72
			l-0.2,2.5l0,0.1l-3.7,3.1l1.6,2.7l-1,5.5l3.1,1.7l1.4-0.3l0.6,4.4C126.2,91.9,129,90.6,131.2,90.8z"/>
		<path class="st1" d="M133.7,84.7l-0.8,0.8l-2.1,0.4c0,0-0.9-3.5-1-4.1l2.4-0.8l0.6-2l-1.5-1.7l-1.4,0.7c-0.6-2.6-0.7-5.6-0.5-5.3
			l2.6-0.8l7.3,2.8L133.7,84.7z"/>
		<path class="st10" d="M138.9,75.3c-0.9-0.6-1.8-1.2-2.9-1.9l-4-1.5l-8.2-3.1L122,72l-0.2,2.5c3.2,0.9,10.4,3,15.5,3.8L138.9,75.3z
			"/>
		<g>
			<path class="st5" d="M122.1,69.5c0,0-2.4-0.9-3.3-0.6c-0.7,0.3-3.2,1.8-1.9,2.5c1.3,0.6,23.6,7.7,23.4,6.4
				c-0.2-1.3,0.7-1.9-1.6-2.6L122.1,69.5z"/>
			<path class="st6" d="M139.6,76.1c0,0-3.7,0.5-9.6-1.6c-5.2-1.8-9.2-4.1-9.2-4.1c0.4-1.5,1-2.7,1.6-3.8c0.2-0.3,0.3-0.6,0.5-0.8
				c3.2-4.6,8.1-4.8,12-2.9c3.9,1.9,6.1,6,5.6,10.1c0,0.1,0,0.1,0,0.2C140.3,74.2,140,75.2,139.6,76.1z"/>
			<path class="st5" d="M140.4,73.2C140.4,73.2,140.4,73.2,140.4,73.2c-0.1-0.2-0.2-0.4-0.4-0.7c-0.1-0.2-0.2-0.3-0.3-0.5
				c-0.1-0.2-0.2-0.4-0.3-0.6c-0.1-0.2-0.2-0.4-0.4-0.6c-0.1-0.2-0.3-0.5-0.5-0.7c-0.1-0.1-0.2-0.2-0.2-0.4
				c-0.1-0.1-0.2-0.2-0.3-0.4c-0.2-0.2-0.4-0.5-0.6-0.8c-0.2-0.2-0.4-0.5-0.6-0.7c-0.2-0.2-0.5-0.5-0.7-0.7
				c-0.3-0.2-0.5-0.4-0.8-0.7c-0.1-0.1-0.3-0.2-0.4-0.3l-0.2-0.2l-0.2-0.1c-0.2-0.1-0.3-0.2-0.5-0.3c-0.2-0.1-0.3-0.1-0.5-0.2
				c-0.3-0.2-0.7-0.2-1-0.4c-0.2,0-0.4-0.1-0.5-0.1l-0.3-0.1l-0.3,0c-0.2,0-0.4-0.1-0.5-0.1c-0.2,0-0.4,0-0.5,0
				c-0.7,0-1.4,0-2.1,0.1c-0.3,0-0.7,0.1-1,0.2c-0.3,0.1-0.7,0.1-1,0.2c-0.6,0.2-1.2,0.4-1.8,0.6c-0.5,0.2-1,0.4-1.5,0.6
				c-0.2,0.1-0.5,0.2-0.7,0.3c0.2-0.3,0.3-0.6,0.5-0.8c0.4-0.2,0.8-0.5,1.3-0.8c0.5-0.3,1.1-0.6,1.8-0.8c0.3-0.1,0.7-0.2,1-0.4
				c0.4-0.1,0.7-0.2,1.1-0.3c0.7-0.2,1.5-0.2,2.4-0.3c0.8,0,1.7,0.1,2.5,0.3c0.4,0.1,0.8,0.2,1.2,0.4c0.2,0.1,0.4,0.2,0.6,0.3
				c0.2,0.1,0.4,0.2,0.5,0.3l0.3,0.2l0.2,0.2c0.2,0.1,0.3,0.2,0.5,0.4c0.3,0.3,0.6,0.5,0.9,0.8c0.3,0.3,0.5,0.6,0.7,0.9
				c0.2,0.3,0.4,0.6,0.6,0.9c0.2,0.3,0.3,0.6,0.5,0.9c0.1,0.1,0.2,0.3,0.2,0.4c0.1,0.1,0.1,0.3,0.2,0.4c0.1,0.3,0.2,0.5,0.4,0.8
				c0.1,0.3,0.2,0.5,0.3,0.7c0.1,0.2,0.2,0.4,0.2,0.6c0.1,0.2,0.1,0.4,0.2,0.6c0.1,0.3,0.1,0.5,0.2,0.7
				C140.5,73.1,140.5,73.1,140.4,73.2z"/>
			<path class="st5" d="M127,73.5c0,0,0.4-2.2,0.9-2.3c0.5-0.1,5.1,1.2,5.3,1.6c0.2,0.4-0.3,3-0.5,3.1L127,73.5z"/>
		</g>
	</g>
	<path class="st9" d="M127.4,104.5L109.2,99l-9.9-17.2l2.1-3.5L113,93.8c0,0,18.3,3.4,18.3,3.4L127.4,104.5z"/>
	<g>
		<path class="st5" d="M145.9,150.6l-5.6-22.8l-0.1-0.3c-1.3,2.8-5.2,11-8,16.9l4.3,10.3l7.4,8.4l11-1.1L145.9,150.6z"/>
		<polygon class="st7" points="155.1,162 144,163 151.4,173.4 146.3,176.1 145.3,180.8 163,176.1 		"/>
		<polygon class="st2" points="121.1,114 121.1,114.6 121.1,114 		"/>
		<polygon class="st2" points="122.4,120.5 123.8,126.8 121.1,114.6 		"/>
		<path class="st2" d="M128.7,160.8c0-5.7,0.1-10.4,0.3-10.2C128.8,150.3,128.7,154.4,128.7,160.8z"/>
		<path class="st7" d="M120.6,109.1l8.8,2.4l4.5-16.3l-11.8-1.6c0,0-2.5,3.5-3.6,7.3L120.6,109.1z"/>
		<path class="st7" d="M130.5,87.8c-2,0.9-5,2.2-7.2,3.2l0,0l0,0l10.6,0.7L130.5,87.8z"/>
		<path class="st6" d="M140.8,126.5l-4.5-14.8l1.8-15.2l-4.1-4.8L123.3,91l-1.2,2.5l11.8,1.6l-4.5,16.3l-8.8-2.4l0.4,4.9l0,0.6
			l2.7,12.2l-5.3,17.9l1.1,18.2l-0.1-0.9h9.1c0,0.4,0,0.7,0,1.1h0c0-0.8,0-1.6,0-2.3c0-6.4,0.1-10.5,0.3-10.2
			c0.1,0.2,1.5-2.5,3.3-6.2c2.9-5.8,6.7-14,8-16.9C140.6,126.9,140.8,126.5,140.8,126.5z"/>
		<path class="st7" d="M119.6,162l0.1,0.9l0.7,11.2l-6.5,2.8l-2,4.2l16.7-1.3c0,0,0-6.7,0-13.7c0-1,0-2,0-3c0-0.4,0-0.8,0-1.1H119.6
			z"/>
	</g>
	<path class="st2" d="M130.1,102.4L114,112.5l-19.5-3.8l-1.3-3.9l19.3,1.3c0,0,9-7.3,11.8-9.5L130.1,102.4z"/>
	<polygon class="st2" points="93.2,104.9 84.4,100.3 84.4,111.5 92.5,111 95,108.9 	"/>
	<polygon class="st5" points="91,89.7 97.3,65.5 99.3,66 94.4,90.8 	"/>
	<polygon class="st11" points="107,65.5 102.8,67 92.7,64.2 92.8,63.9 93.6,60.3 101.1,61.8 103.6,62.3 	"/>
	<polygon class="st9" points="101.4,79 99.4,74.4 93.7,71.7 91,80.6 96.3,83.1 99.6,83.6 	"/>
	<polygon class="st10" points="107,65.5 102.8,67 92.7,64.2 92.8,63.9 101.1,61.8 103.6,62.3 	"/>
</g>
<g>
	<g>
		<path class="st2" d="M36,102.4l0.9-4l-0.5-0.1L34.6,98l-0.3-0.1l-0.4-0.7l-3-5.5l-1.4-2.6l-0.3-0.6l2.8-1.1l3.4-1.3l7.1-2.6
			l1.6,2.8l0.2,2.1l0,0.1l3.2,2.7l-1.4,2.3l0.8,4.7l-2.7,1.5l-1.2-0.2l-0.1,4C40.8,103.7,38,102.3,36,102.4z"/>
		<path class="st1" d="M33.9,97.2l0.7,0.7l1.8,0.3c0,0,0.8-3,0.9-3.5l-2.1-0.7l-0.5-1.7l1.3-1.5l1.2,0.6c0.6-2.2,0.6-4.8,0.5-4.6
			l-2.2-0.7l-6.3,2.3L33.9,97.2z"/>
		<path class="st10" d="M30.9,91.7c4.3-0.7,10.6-2.4,13.3-3.2l-0.2-2.1l-1.6-2.8l-7.1,2.6L32,87.4c-0.9,0.6-1.8,1.1-2.5,1.6
			L30.9,91.7z"/>
		<g>
			<path class="st5" d="M44,84.2c0,0,2.1-0.8,2.8-0.5c0.6,0.2,2.7,1.6,1.6,2.1c-1.2,0.5-20.3,6.5-20.2,5.4c0.1-1.1-0.6-1.7,1.4-2.2
				L44,84.2z"/>
			<path class="st6" d="M28.9,89.8c0,0,3.2,0.4,8.3-1.3c4.5-1.5,8-3.5,8-3.5c-0.4-1.3-0.8-2.3-1.3-3.2c-0.1-0.3-0.3-0.5-0.5-0.7
				c-2.7-4-6.9-4.2-10.3-2.6c-3.4,1.6-5.3,5.1-4.9,8.6c0,0,0,0.1,0,0.1C28.3,88.1,28.5,88.9,28.9,89.8z"/>
			<path class="st5" d="M28.2,87.2C28.2,87.2,28.2,87.2,28.2,87.2c0.1-0.2,0.2-0.4,0.4-0.6c0.1-0.1,0.1-0.3,0.2-0.4
				c0.1-0.1,0.2-0.3,0.3-0.5c0.1-0.2,0.2-0.4,0.3-0.6c0.1-0.2,0.3-0.4,0.4-0.6c0.1-0.1,0.1-0.2,0.2-0.3c0.1-0.1,0.2-0.2,0.2-0.3
				c0.2-0.2,0.3-0.4,0.5-0.6c0.2-0.2,0.4-0.4,0.6-0.6c0.2-0.2,0.4-0.4,0.6-0.6c0.2-0.2,0.5-0.4,0.7-0.6c0.1-0.1,0.3-0.2,0.4-0.2
				l0.2-0.1l0.2-0.1c0.1-0.1,0.3-0.1,0.4-0.2c0.1-0.1,0.3-0.1,0.4-0.2c0.3-0.1,0.6-0.2,0.9-0.3c0.1,0,0.3-0.1,0.5-0.1l0.2-0.1l0.2,0
				c0.2,0,0.3,0,0.5-0.1c0.2,0,0.3,0,0.5,0c0.6,0,1.2,0,1.8,0.1c0.3,0,0.6,0.1,0.9,0.2c0.3,0.1,0.6,0.1,0.8,0.2
				c0.5,0.1,1,0.3,1.5,0.5c0.5,0.2,0.9,0.3,1.3,0.5c0.2,0.1,0.4,0.2,0.6,0.3c-0.1-0.3-0.3-0.5-0.5-0.7c-0.3-0.2-0.7-0.4-1.1-0.7
				c-0.5-0.2-0.9-0.5-1.5-0.7c-0.3-0.1-0.6-0.2-0.9-0.3c-0.3-0.1-0.6-0.2-0.9-0.2c-0.6-0.2-1.3-0.2-2-0.2c-0.7,0-1.4,0.1-2.1,0.3
				c-0.3,0.1-0.7,0.2-1,0.4c-0.2,0.1-0.3,0.1-0.5,0.2c-0.2,0.1-0.3,0.2-0.5,0.3l-0.2,0.1l-0.2,0.2c-0.1,0.1-0.3,0.2-0.4,0.3
				c-0.3,0.2-0.5,0.5-0.8,0.7c-0.2,0.2-0.4,0.5-0.6,0.7c-0.2,0.3-0.4,0.5-0.5,0.8c-0.2,0.2-0.3,0.5-0.5,0.7
				c-0.1,0.1-0.1,0.2-0.2,0.4c-0.1,0.1-0.1,0.2-0.2,0.4c-0.1,0.2-0.2,0.5-0.3,0.7c-0.1,0.2-0.2,0.4-0.2,0.6
				c-0.1,0.2-0.1,0.4-0.2,0.5c-0.1,0.2-0.1,0.3-0.1,0.5c-0.1,0.2-0.1,0.4-0.2,0.6C28.2,87.1,28.2,87.2,28.2,87.2z"/>
			<path class="st5" d="M39.8,87.6c0,0-0.3-1.9-0.8-2c-0.4-0.1-4.4,1-4.6,1.3c-0.2,0.3,0.3,2.6,0.5,2.7L39.8,87.6z"/>
		</g>
	</g>
	<path class="st9" d="M39.4,115.2l15.7-4.8l9.2-11.9l-1.8-3l-10.6,10.4c0,0-15.7,2.9-15.8,2.9L39.4,115.2z"/>
	<polygon class="st11" points="59.1,77.1 58.9,67.7 62.6,67.7 63.1,68.9 60.4,69 60.6,77.1 64.1,77.1 64.2,77.2 67.3,77.2 
		67.3,89.8 66,89.8 65.8,78.3 59.1,78.4 59.1,77.5 59.1,77.5 59.1,77.5 59.1,77.1 	"/>
	<g>
		<path class="st5" d="M23.4,154.8l4.8-19.7l0.1-0.2c1.1,2.4,4.5,9.5,6.9,14.5l-3.7,8.8l-6.4,7.2l-9.5-0.9L23.4,154.8z"/>
		<polygon class="st7" points="15.6,164.6 25.1,165.6 18.8,174.5 23.1,176.8 24,180.9 8.7,176.8 		"/>
		<polygon class="st2" points="44.9,123.3 44.8,123.8 44.9,123.3 		"/>
		<polygon class="st2" points="43.7,128.9 42.5,134.3 44.8,123.8 		"/>
		<path class="st2" d="M38.3,163.6c0-4.9-0.1-9-0.2-8.8C38.2,154.6,38.3,158.1,38.3,163.6z"/>
		<path class="st7" d="M45.2,119.1l-7.6,2.1l-3.9-14.1l10.1-1.4c0,0,2.1,3,3.1,6.3L45.2,119.1z"/>
		<path class="st7" d="M36.7,100.7c1.8,0.8,4.3,1.9,6.2,2.8l0,0l0,0l-9.1,0.6L36.7,100.7z"/>
		<path class="st6" d="M27.9,134.1l3.9-12.7l-1.5-13.1l3.5-4.1l9.1-0.6l1,2.1l-10.1,1.4l3.9,14.1l7.6-2.1l-0.4,4.2l0,0.5l-2.3,10.5
			l4.6,15.4l-1,15.7l0-0.7h-7.8c0,0.3,0,0.6,0,1h0c0-0.7,0-1.3,0-2c0-5.5-0.1-9-0.2-8.8c-0.1,0.2-1.3-2.2-2.9-5.4
			c-2.5-5-5.8-12.1-6.9-14.5C28,134.4,27.9,134.1,27.9,134.1z"/>
		<path class="st7" d="M46.1,164.6l0,0.7l-0.6,9.7l5.6,2.4l1.7,3.6L38.3,180c0,0,0-5.8,0-11.8c0-0.9,0-1.7,0-2.5c0-0.3,0-0.6,0-1
			H46.1z"/>
	</g>
	<rect x="67.9" y="62.1" class="st1" width="20.6" height="118.1"/>
	<polygon class="st10" points="67.9,69.3 67.9,180.2 76.8,180.2 82.7,68.9 	"/>
	<g>
		<path class="st5" d="M61,69.2c0-1.6,1.3-3,2.9-3l0,0L79.7,66l0.1,6L64,72.1l0,0C62.4,72.1,61,70.8,61,69.2z"/>
		<path class="st6" d="M76.7,69c0,1.6,1.4,3,3,2.9c1.6,0,3-1.4,2.9-3c0-1.6-1.4-3-3-2.9C78,66,76.7,67.3,76.7,69z"/>
	</g>
	<path class="st2" d="M36.6,110l2.9,16.1l13.7,10.3l3.2-1.4l-12-11.5c0,0-0.5-10-0.8-13L36.6,110z"/>
	<g>
		<path class="st4" d="M50.5,149.2l1.2-0.1c0,0-0.5-4.9,1.9-7.5c1.1-1.2,2.6-1.8,4.5-1.8c1.9,0,3.4,0.6,4.5,1.8
			c2.4,2.7,1.9,7.5,1.9,7.5l1.2,0.1c0-0.2,0.6-5.4-2.2-8.5c-1.3-1.5-3.1-2.2-5.4-2.2c-2.3,0-4.1,0.7-5.4,2.2
			C50,143.8,50.5,149,50.5,149.2z"/>
	</g>
	<g>
		<path class="st7" d="M51.1,160.7c0,0,2.4,2,7,2c4.6,0,7-2,7-2v-12.9h-14V160.7z"/>
	</g>
	<polygon class="st2" points="56.3,134.9 61.8,137 60.1,143.6 52.9,138.9 52.8,136.1 	"/>
	<rect x="65.4" y="85.6" class="st6" width="3.7" height="16"/>
	<polygon class="st9" points="62.4,95.8 64.2,91.8 70.4,89.8 70.4,97.6 66.8,99.3 63.3,99.8 	"/>
	<path class="st7" d="M51.1,147.8c0,0.6,3.1,1,7,1c3.9,0,7-0.4,7-1c0-0.6-3.1-1-7-1C54.3,146.8,51.1,147.2,51.1,147.8z"/>
	<path class="st4" d="M51.7,148.2c0,0.6,2.9,1,6.4,1c3.6,0,6.4-0.4,6.4-1c0-0.6-2.9-1-6.4-1C54.6,147.2,51.7,147.6,51.7,148.2z"/>
</g>
<g>
	<g>
		<g>
			<g>
				<path class="st2" d="M322.9,99.8l0.8-3.9l-0.5-0.1l-1.8-0.3l-0.3-0.1l-0.3-0.6l-2.9-5.3l-1.4-2.5l-0.3-0.6l2.7-1l3.3-1.2
					l6.9-2.5l1.5,2.8l0.2,2.1l0,0.1l3,2.6l-1.3,2.3l0.8,4.6l-2.6,1.4l-1.2-0.2l-0.1,3.9C327.5,101,324.8,99.7,322.9,99.8z"/>
			</g>
			<g>
				<path class="st1" d="M320.8,94.8l0.7,0.7l1.8,0.3c0,0,0.7-2.9,0.9-3.4l-2-0.7l-0.5-1.7l1.3-1.5l1.2,0.6c0.5-2.2,0.6-4.7,0.4-4.5
					l-2.1-0.7l-6.1,2.3L320.8,94.8z"/>
			</g>
			<g class="st3">
				<path class="st4" d="M318,89.5c4.2-0.7,10.2-2.3,12.9-3.1l-0.2-2.1l-1.5-2.8l-6.9,2.5l-3.3,1.2c-0.9,0.6-1.7,1.1-2.4,1.6
					L318,89.5z"/>
			</g>
			<g>
				<g>
					<path class="st5" d="M330.6,82.2c0,0,2-0.8,2.7-0.5c0.6,0.2,2.7,1.5,1.5,2.1c-1.1,0.5-19.7,6.3-19.5,5.2
						c0.1-1.1-0.5-1.6,1.4-2.1L330.6,82.2z"/>
				</g>
				<g>
					<path class="st6" d="M316,87.6c0,0,3.1,0.4,8-1.3c4.3-1.5,7.7-3.4,7.7-3.4c-0.4-1.2-0.8-2.3-1.3-3.1c-0.1-0.2-0.3-0.5-0.4-0.7
						c-2.6-3.9-6.7-4-10-2.5c-3.3,1.5-5.1,5-4.7,8.4c0,0,0,0.1,0,0.1C315.4,86,315.6,86.8,316,87.6z"/>
				</g>
				<g>
					<path class="st5" d="M315.3,85.1C315.3,85.1,315.3,85.1,315.3,85.1c0.1-0.2,0.2-0.4,0.3-0.6c0.1-0.1,0.1-0.3,0.2-0.4
						c0.1-0.1,0.2-0.3,0.3-0.5c0.1-0.2,0.2-0.3,0.3-0.5c0.1-0.2,0.2-0.4,0.4-0.6c0.1-0.1,0.1-0.2,0.2-0.3c0.1-0.1,0.1-0.2,0.2-0.3
						c0.2-0.2,0.3-0.4,0.5-0.6c0.2-0.2,0.4-0.4,0.5-0.6c0.2-0.2,0.4-0.4,0.6-0.6c0.2-0.2,0.4-0.4,0.7-0.5c0.1-0.1,0.2-0.2,0.4-0.2
						l0.2-0.1l0.2-0.1c0.1-0.1,0.3-0.1,0.4-0.2c0.1-0.1,0.3-0.1,0.4-0.2c0.3-0.1,0.6-0.2,0.8-0.3c0.1,0,0.3-0.1,0.4-0.1l0.2,0l0.2,0
						c0.2,0,0.3,0,0.4-0.1c0.1,0,0.3,0,0.5,0c0.6,0,1.2,0,1.8,0.1c0.3,0,0.6,0.1,0.8,0.2c0.3,0.1,0.5,0.1,0.8,0.2
						c0.5,0.1,1,0.3,1.5,0.5c0.4,0.2,0.9,0.3,1.2,0.5c0.2,0.1,0.4,0.2,0.5,0.3c-0.1-0.2-0.3-0.5-0.4-0.7c-0.3-0.2-0.7-0.4-1-0.6
						c-0.4-0.2-0.9-0.5-1.5-0.7c-0.3-0.1-0.6-0.2-0.8-0.3c-0.3-0.1-0.6-0.2-0.9-0.2c-0.6-0.1-1.3-0.2-2-0.2c-0.7,0-1.4,0.1-2.1,0.3
						c-0.3,0.1-0.7,0.2-1,0.4c-0.2,0.1-0.3,0.1-0.5,0.2c-0.2,0.1-0.3,0.2-0.4,0.3l-0.2,0.1l-0.2,0.2c-0.1,0.1-0.3,0.2-0.4,0.3
						c-0.3,0.2-0.5,0.4-0.7,0.7c-0.2,0.2-0.4,0.5-0.6,0.7c-0.2,0.3-0.4,0.5-0.5,0.7c-0.2,0.2-0.3,0.5-0.4,0.7
						c-0.1,0.1-0.1,0.2-0.2,0.3c-0.1,0.1-0.1,0.2-0.2,0.3c-0.1,0.2-0.2,0.4-0.3,0.6c-0.1,0.2-0.2,0.4-0.2,0.6
						c-0.1,0.2-0.1,0.4-0.2,0.5c0,0.2-0.1,0.3-0.1,0.5c-0.1,0.2-0.1,0.4-0.1,0.6C315.3,85,315.3,85.1,315.3,85.1z"/>
				</g>
				<g>
					<path class="st5" d="M326.5,85.5c0,0-0.3-1.9-0.7-2c-0.4-0.1-4.3,0.9-4.4,1.3c-0.2,0.3,0.3,2.5,0.4,2.6L326.5,85.5z"/>
				</g>
			</g>
		</g>
		<g>
			<path class="st9" d="M328.9,108.7l12.3-9.9l3.9-14l-2.7-2.1l-5.8,13.2c0,0-13.1,8.3-13.1,8.3L328.9,108.7z"/>
		</g>
		<g>
			<g>
				<path class="st5" d="M310.7,150.5l4.6-19l0.1-0.2c1.1,2.3,4.3,9.2,6.7,14.1l-3.6,8.5l-6.2,7l-9.2-0.9L310.7,150.5z"/>
			</g>
			<g>
				<polygon class="st7" points="303.1,160 312.3,160.9 306.2,169.5 310.4,171.8 311.2,175.7 296.5,171.8 				"/>
			</g>
			<g>
				<polygon class="st2" points="331.4,120 331.4,120.5 331.4,120 				"/>
			</g>
			<g>
				<polygon class="st2" points="330.3,125.4 329.1,130.7 331.4,120.5 				"/>
			</g>
			<g>
				<path class="st2" d="M325.1,159c0-4.8-0.1-8.7-0.2-8.5C325,150.3,325.1,153.7,325.1,159z"/>
			</g>
			<g>
				<path class="st7" d="M331.8,116l-7.3,2l-3.7-13.6l9.8-1.4c0,0,2,2.9,3,6.1L331.8,116z"/>
			</g>
			<g>
				<path class="st7" d="M323.6,98.2c1.7,0.8,4.1,1.9,6,2.7l0,0l0,0l-8.8,0.6L323.6,98.2z"/>
			</g>
			<g>
				<path class="st6" d="M315,130.5l3.7-12.3l-1.5-12.7l3.4-4l8.8-0.6l1,2.1l-9.8,1.4l3.7,13.6l7.3-2l-0.3,4.1l0,0.5l-2.3,10.2
					l4.4,14.9l-0.9,15.2l0-0.7h-7.5c0,0.3,0,0.6,0,0.9h0c0-0.7,0-1.3,0-1.9c0-5.3-0.1-8.7-0.2-8.5c-0.1,0.2-1.3-2.1-2.8-5.2
					c-2.4-4.9-5.6-11.7-6.7-14.1C315.2,130.8,315,130.5,315,130.5z"/>
			</g>
			<g>
				<path class="st7" d="M332.6,160l0,0.7l-0.6,9.4l5.4,2.3l1.7,3.5l-13.9-1.1c0,0,0-5.6,0-11.4c0-0.8,0-1.6,0-2.5
					c0-0.3,0-0.6,0-0.9H332.6z"/>
			</g>
		</g>
		<g>
			<polygon class="st9" points="342.6,83.1 342.7,78.8 347.6,74.8 350.4,81.8 347.8,84.7 344.8,86.3 			"/>
		</g>
		<g>
			<path class="st2" d="M323.6,110.2l11.9,10.5l16.5-0.4l1.6-3l-16-1.5c0,0-6.4-7.2-8.4-9.4L323.6,110.2z"/>
		</g>
		<g>
			<path class="st7" d="M356.9,159.6l-0.6-1c3.5-2,3.3-16.9,3-22.5c0-4.4-0.2-7.8-0.4-10.4c-0.4,4-1,7.5-1.6,9.6
				c-1.5,5.7-4.8,11.6-7.4,11.2c-1.8-0.3-2.6-3.3-2.2-9.3c0.5-8.4,4.4-21.4,8.3-21.4c0,0,0,0,0.1,0c0.8,0,1.4,0.5,2,1.5
				c0.1-5.9-0.5-10.9-2.2-11.7c-0.9-0.4-2.3,0.8-4,3.3c-1.7,2.5-3.1,3.5-4.4,3c-4.7-1.7-2.1-26.7-1.6-31.7l1.2,0.1
				c-1.3,12-2,29.5,0.8,30.5c0.3,0.1,1.2,0.1,3-2.6c2.2-3.2,4-4.4,5.5-3.7c2.6,1.2,3.2,8.5,2.8,15.8c0.8,3.3,1.2,8.5,1.2,15.7
				C360.6,138.1,361.6,156.9,356.9,159.6z M356.1,117c-2.4,0-6.5,10.6-7.1,20.2c-0.5,7.5,1,8,1.2,8c1.2,0.2,4.3-4,6-10.3
				c0.9-3.4,1.7-9.1,1.9-14.5C357.3,117.3,356.4,117,356.1,117C356.1,117,356.1,117,356.1,117z"/>
		</g>
		<g>
			<polygon class="st2" points="353.6,117.2 358.9,115.5 361.6,121.5 353.4,122.4 351.6,120.3 			"/>
		</g>
	</g>
	<g>
		<g>
			<path class="st4" d="M343.7,67.4L343.7,67.4c1.2,0,2.3,0.8,2.7,2c0.3,1,0,2-0.7,2.7c-0.6,0.6-0.4,1.5-0.2,2.3
				c0.4,1.5,0.2,1.6,0,1.7c-0.1,0-0.1,0-0.2,0c-0.3,0-0.7-1-0.9-1.4c-0.3-0.8-0.6-1.5-1.4-1.8c-0.9-0.3-1.7-1-1.9-1.9
				c-0.4-1.5,0.4-3,1.9-3.5C343.2,67.5,343.4,67.4,343.7,67.4L343.7,67.4z M343.7,66.2c-0.4,0-0.8,0.1-1.1,0.2
				c-2.1,0.6-3.3,2.9-2.7,5c0.4,1.4,1.5,2.4,2.8,2.7c0.6,0.2,0.9,3.2,2.6,3.2c0.2,0,0.3,0,0.5-0.1c2.2-0.7,0.3-3.8,0.8-4.2
				c1-1,1.4-2.5,0.9-3.9C347,67.4,345.4,66.2,343.7,66.2L343.7,66.2z"/>
		</g>
	</g>
	<g>
		
			<rect x="344.7" y="76.2" transform="matrix(0.9581 -0.2865 0.2865 0.9581 -7.9201 102.4341)" class="st12" width="2.9" height="4.1"/>
	</g>
	<g>
		<path class="st12" d="M352.8,162c-0.3,0.3-0.8,0.4-1,0.2l0,0c-0.2-0.2-0.2-0.7,0.1-1l1.5-1.6c0.3-0.3,0.8-0.4,1-0.2l0,0
			c0.2,0.2,0.2,0.7-0.1,1L352.8,162z"/>
	</g>
	<g>
		<path class="st12" d="M354.7,163.7c-0.3,0.3-0.8,0.4-1,0.2l0,0c-0.2-0.2-0.2-0.7,0.1-1l1.5-1.6c0.3-0.3,0.8-0.4,1-0.2l0,0
			c0.2,0.2,0.2,0.7-0.1,1L354.7,163.7z"/>
	</g>
	<g>
		<path class="st4" d="M356.6,162.5l1.1-1.2c0.9-1,0.9-2.5-0.1-3.4c-1-0.9-2.5-0.8-3.4,0.1l-1.1,1.2L356.6,162.5z"/>
	</g>
</g>
<g>
	<g>
		<g>
			<polygon class="st0" points="203.7,74 198.2,75.5 192.7,74 194.3,64 202.1,64 			"/>
		</g>
		<g>
			<g>
				<polygon class="st1" points="189.6,50.2 190.5,53.6 205.8,53.6 207.1,50.2 				"/>
			</g>
			<g>
				<polygon class="st2" points="206.8,52.4 206.8,57.9 205.8,57.9 205.8,60.9 201.4,68.1 195,68.1 190.6,60.9 190.6,57.9 
					189.6,57.9 189.6,52.4 190.6,52.4 190.6,47.8 205.8,47.8 205.8,52.4 				"/>
			</g>
			<g class="st3">
				<rect x="190.6" y="49.8" class="st4" width="15.1" height="2.6"/>
			</g>
			<g class="st3">
				<polygon class="st4" points="196.3,61 198.2,54.8 200.1,61 				"/>
			</g>
			<g>
				<g>
					<rect x="188.4" y="44.1" class="st5" width="2.5" height="3.4"/>
				</g>
				<g>
					<rect x="205.5" y="44.1" class="st5" width="2.5" height="3.4"/>
				</g>
				<g>
					<path class="st6" d="M207.3,47.6c0-0.1,0-0.2,0-0.4c0-5.1-4.1-9.2-9.2-9.2c-5.1,0-9.2,4.1-9.2,9.2c0,0.1,0,0.2,0,0.4H207.3z"/>
				</g>
				<g>
					<polygon class="st5" points="199.9,47.1 196.3,47.1 195,36.6 201.2,36.6 					"/>
				</g>
				<g>
					<path class="st5" d="M208.1,49c0,0.9-0.7,1.6-1.5,1.6h-16.8c-0.8,0-1.5-0.7-1.5-1.6l0,0c0-0.9,0-1.6,0-1.6H208
						C208,47.4,208.1,48.2,208.1,49L208.1,49z"/>
				</g>
			</g>
		</g>
		<polygon class="st2" points="175.8,87 171.4,98.3 160.2,94.1 156.1,95.9 173.9,108.7 181.8,90.9 		"/>
		<polygon class="st2" points="222.8,89.6 226.6,103.7 224.4,121.4 220.4,121.4 219.8,102.1 216.6,92.3 		"/>
		<g>
			<path class="st7" d="M224.1,88.7l-8.8,5.8l-1-2.9h-31.8l-1,2.9l-8.7-5l6.1-13l5.4-2.7l4.1-2.1l5.1-1.9c0,0,1.5,4.6,4.9,4.6
				c3.4,0,4.8-4.6,4.8-4.6l5.5,1.9l4.1,2.1l5.4,2.7L224.1,88.7z"/>
		</g>
		<g>
			<polygon class="st6" points="209.7,105.7 212.6,80.8 212.6,80.8 212.6,80.8 212.6,73.9 208.5,71.8 208.5,80.8 188.2,80.8 
				188.2,71.8 184.2,73.9 184.2,80.8 184.2,80.8 187.1,105.7 181.7,157.9 193.5,157.9 198.4,123.2 204.9,157.9 216.6,157.9 			"/>
		</g>
		<g>
			<rect x="190.4" y="84.1" class="st5" width="15.6" height="11"/>
		</g>
		<g>
			<polygon class="st7" points="216.8,157.9 216.7,170.5 219.8,175.8 214.4,181.5 208,177.7 207.4,173.6 207.1,170.9 204.9,157.9 
							"/>
		</g>
		<g class="st3">
			<polygon class="st4" points="208,177.7 207.2,171.6 216.7,170.5 219.8,175.8 214.4,181.5 			"/>
		</g>
		<g>
			<polygon class="st7" points="181.7,157.9 181.7,170.5 178.6,175.8 184,181.5 190.5,177.7 191,173.6 191.3,170.9 193.5,157.9 			
				"/>
		</g>
		<g class="st3">
			<polygon class="st4" points="190.5,177.7 191.2,171.6 181.7,170.5 178.6,175.8 184,181.5 			"/>
		</g>
	</g>
	<path class="st4" d="M155.1,100l4.2-17.3l3.7-2.1l-1.8-5.5l-0.9,3.7l-1.2,0.2l-0.9-2.2l1-4l-4.4,3.8l1.5,4l-4.6,18.9
		c-1.1,0.4-2,1.4-2.3,2.6c-0.5,2,0.7,4,2.7,4.5c2,0.5,4-0.7,4.5-2.7C156.8,102.4,156.2,100.9,155.1,100z M152.4,104.7
		c-0.9-0.2-1.5-1.2-1.3-2.1c0.2-0.9,1.2-1.5,2.1-1.3c0.9,0.2,1.5,1.2,1.3,2.1C154.3,104.3,153.4,104.9,152.4,104.7z"/>
	<polygon class="st2" points="160.2,94.1 160.2,87.7 152.1,85.6 150.1,94.1 156.1,95.9 	"/>
	<rect x="205.8" y="130.1" class="st7" width="34.7" height="19.3"/>
	<rect x="203.7" y="128.6" class="st4" width="38.9" height="10"/>
	<rect x="210.9" y="135.5" class="st6" width="3.3" height="6.6"/>
	<rect x="231" y="135.5" class="st6" width="3.3" height="6.6"/>
	<g>
		<polygon class="st4" points="231.8,128.6 230.2,128.6 230.2,124.7 215.1,124.7 215.1,128.6 213.5,128.6 213.5,123.2 231.8,123.2 
					"/>
	</g>
	<polygon class="st2" points="223.7,117.2 217.8,119.6 218.9,127.9 227.5,126.5 226.9,120.3 	"/>
</g>
<g>
	<g>
		<g>
			<polygon class="st0" points="468.9,97.1 464.7,98.2 460.6,97.1 461.7,89.5 467.7,89.5 			"/>
		</g>
		<g>
			<g>
				<polygon class="st1" points="458.1,78.9 458.8,81.5 470.5,81.5 471.5,78.9 				"/>
			</g>
			<g>
				<polygon class="st2" points="471.3,80.6 471.3,84.8 470.5,84.8 470.5,87.1 467.1,92.6 462.3,92.6 458.9,87.1 458.9,84.8 
					458.1,84.8 458.1,80.6 458.9,80.6 458.9,77.1 470.5,77.1 470.5,80.6 				"/>
			</g>
			<g class="st3">
				<rect x="458.9" y="78.6" class="st4" width="11.6" height="2"/>
			</g>
			<g class="st3">
				<polygon class="st4" points="463.2,87.2 464.7,82.5 466.2,87.2 				"/>
			</g>
			<g>
				<g>
					<rect x="457.2" y="74.2" class="st5" width="1.9" height="2.6"/>
				</g>
				<g>
					<rect x="470.3" y="74.2" class="st5" width="1.9" height="2.6"/>
				</g>
				<g>
					<path class="st6" d="M471.7,76.9c0-0.1,0-0.2,0-0.3c0-3.9-3.1-7-7-7c-3.9,0-7,3.1-7,7c0,0.1,0,0.2,0,0.3H471.7z"/>
				</g>
				<g>
					<polygon class="st5" points="466,76.5 463.3,76.5 462.3,68.6 467,68.6 					"/>
				</g>
				<g>
					<path class="st5" d="M472.3,78c0,0.7-0.5,1.2-1.1,1.2h-12.8c-0.6,0-1.1-0.5-1.1-1.2l0,0c0-0.7,0-1.2,0-1.2h15
						C472.2,76.8,472.3,77.4,472.3,78L472.3,78z"/>
				</g>
			</g>
		</g>
		<polygon class="st2" points="482.8,102.2 491.5,113.7 489.5,130.5 486.4,130.5 485.8,117.3 478.2,105.9 		"/>
		<g>
			<polygon class="st4" points="492.6,141.4 490.7,142 492.4,142.4 492.7,142.5 492.5,144.8 491.6,145.1 490.5,145.5 491.4,145.7 
				492.4,146 492.3,148.3 490.6,148.9 490.2,149 490.5,149.1 492.2,149.5 492,151.8 490,152.5 491.9,152.9 491.8,155.3 489.7,156 
				491.7,156.4 491.5,158.8 489.5,159.5 491.4,159.9 491.3,162.3 491.3,162.3 489.3,162.9 491.2,163.4 491,165.8 489,166.4 
				490.9,166.9 490.8,169.3 488.8,169.9 490.7,170.4 490.6,171.2 484.4,171.4 482.2,140.2 492.8,140.8 492.8,141.3 			"/>
			<path class="st6" d="M482.2,131.5v6v2.7l10.6,0.6v-3.3v-6H482.2z M484.1,137.5l-0.1-4l6.7-0.1l0.3,4.1H484.1z"/>
			<polygon class="st12" points="492.6,141.4 490.7,142 492.4,142.4 491.6,145.1 490.5,145.5 491.4,145.7 490.6,148.9 490.5,149.1 
				484.4,171.4 482.2,140.2 492.8,140.8 			"/>
		</g>
		<polygon class="st2" points="488.4,129.1 484.3,129.4 485.1,135.7 491.7,134.7 491.3,130 		"/>
		<polygon class="st2" points="447.6,107 444.3,115.7 435.7,112.4 432.5,113.8 446.2,123.6 452.2,110 		"/>
		<g>
			<path class="st7" d="M487.5,104.8l-7.2,7.3l-3.9-3.1l-23.7,1.6l-0.8,2.2l-6.7-3.8l4.6-9.9L454,97l3.1-1.6L461,94
				c0,0,1.2,3.5,3.7,3.5c2.6,0,3.7-3.5,3.7-3.5l4.2,1.5l3.1,1.6l4.1,2.1L487.5,104.8z"/>
		</g>
		<g>
			<polygon class="st6" points="473.5,121.3 475.7,102.3 475.7,102.3 475.7,102.3 475.7,97 472.6,95.5 472.6,102.3 457.1,102.3 
				457.1,95.5 454,97 454,102.3 454,102.3 456.2,121.3 452.1,161.1 461.1,161.1 464.9,134.7 469.9,161.1 478.8,161.1 			"/>
		</g>
		<g>
			<rect x="458.8" y="104.8" class="st5" width="11.9" height="8.4"/>
		</g>
		<g>
			<polygon class="st7" points="478.9,161.1 478.8,170.8 481.2,174.8 477.1,179.2 472.2,176.3 471.8,173.1 471.5,171.1 469.9,161.1 
							"/>
		</g>
		<g class="st3">
			<polygon class="st4" points="472.2,176.3 471.6,171.6 478.8,170.8 481.2,174.8 477.1,179.2 			"/>
		</g>
		<g>
			<polygon class="st7" points="452.1,161.1 452.1,170.8 449.8,174.8 453.9,179.2 458.8,176.3 459.2,173.1 459.5,171.1 461.1,161.1 
							"/>
		</g>
		<g class="st3">
			<polygon class="st4" points="458.8,176.3 459.4,171.6 452.1,170.8 449.8,174.8 453.9,179.2 			"/>
		</g>
	</g>
	<rect x="430.3" y="76.6" class="st1" width="14.9" height="97.3"/>
	<polygon class="st10" points="445.3,76.6 445.3,173.9 430.3,173.9 	"/>
	<polygon class="st2" points="432.6,112.4 432.6,107.5 426.5,105.9 424.9,112.4 429.5,113.8 	"/>
</g>
</svg>
