<?xml version="1.0" encoding="utf-8"?>
<!-- Generator: Adobe Illustrator 23.0.1, SVG Export Plug-In . SVG Version: 6.00 Build 0)  -->
<svg version="1.1" id="Layer_1" xmlns="http://www.w3.org/2000/svg" xmlns:xlink="http://www.w3.org/1999/xlink" x="0px" y="0px"
	 viewBox="0 0 200 200" style="enable-background:new 0 0 200 200;" xml:space="preserve">
<style type="text/css">
	.st0{fill:url(#XMLID_3_);}
	.st1{fill:url(#XMLID_4_);}
	.st2{fill:url(#XMLID_5_);}
	.st3{fill:url(#XMLID_6_);}
	.st4{fill:#E8C59A;}
	.st5{opacity:0.66;}
	.st6{opacity:0.92;fill:#BBBDBF;}
	.st7{fill:#404041;}
	.st8{fill:#AF9B7B;}
	.st9{filter:url(#Adobe_OpacityMaskFilter);}
	.st10{filter:url(#Adobe_OpacityMaskFilter_1_);}
	.st11{mask:url(#XMLID_7_);fill:url(#XMLID_8_);}
	.st12{fill:url(#XMLID_9_);}
</style>
<g id="XMLID_555_">
	<linearGradient id="XMLID_3_" gradientUnits="userSpaceOnUse" x1="84.9204" y1="117.5282" x2="39.8606" y2="146.6274">
		<stop  offset="0" style="stop-color:#C3A277"/>
		<stop  offset="1" style="stop-color:#BB9A70"/>
	</linearGradient>
	<polygon id="XMLID_522_" class="st0" points="35.4,147.3 99.7,184.4 99.7,110.2 35.4,73.1 	"/>
	<linearGradient id="XMLID_4_" gradientUnits="userSpaceOnUse" x1="109.6567" y1="73.4206" x2="164.9221" y2="75.3575">
		<stop  offset="0" style="stop-color:#AD885D"/>
		<stop  offset="1" style="stop-color:#BA9667"/>
	</linearGradient>
	<polygon id="XMLID_521_" class="st1" points="99.7,110.2 164,73.1 99.7,36 	"/>
	<linearGradient id="XMLID_5_" gradientUnits="userSpaceOnUse" x1="84.2705" y1="40.1158" x2="64.4214" y2="101.2638">
		<stop  offset="3.584340e-03" style="stop-color:#9E7951"/>
		<stop  offset="0.8746" style="stop-color:#8C6E50"/>
	</linearGradient>
	<polygon id="XMLID_523_" class="st2" points="35.4,73.1 99.7,110.2 99.7,36 	"/>
	
		<linearGradient id="XMLID_6_" gradientUnits="userSpaceOnUse" x1="-576.5861" y1="135.796" x2="-555.1926" y2="75.1712" gradientTransform="matrix(-1 0 0 1 -442.2614 0)">
		<stop  offset="0" style="stop-color:#A78258"/>
		<stop  offset="0.6953" style="stop-color:#926F45"/>
	</linearGradient>
	<polygon id="XMLID_520_" class="st3" points="164,147.3 99.7,184.4 99.7,110.2 164,73.1 	"/>
	<polygon id="XMLID_524_" class="st4" points="67.6,128.7 3.3,91.6 35.4,73.1 99.7,110.2 	"/>
	<polygon id="XMLID_527_" class="st4" points="131.8,17.4 196.1,54.5 164,73.1 99.7,36 	"/>
	<polygon id="XMLID_525_" class="st4" points="67.6,17.4 3.3,54.5 35.4,73.1 99.7,36 	"/>
	<g id="XMLID_687_" class="st5">
		<polygon id="XMLID_740_" class="st6" points="159,136.7 132.9,156.9 128.5,124.3 154.5,104.1 		"/>
		<polygon id="XMLID_739_" class="st7" points="133.6,128.1 131.8,129.4 131.2,125.1 133,123.7 		"/>
		<polygon id="XMLID_738_" class="st7" points="138.1,124.6 136.3,125.9 135.7,121.6 137.5,120.2 		"/>
		<polygon id="XMLID_737_" class="st7" points="142.8,120.9 139.2,123.7 138.7,120.6 142.3,117.8 		"/>
		<polygon id="XMLID_736_" class="st7" points="133.6,133.9 132.5,134.8 132.1,131.6 133.2,130.8 		"/>
		<polygon id="XMLID_735_" class="st7" points="135.4,132.5 134.3,133.4 133.9,130.3 135,129.4 		"/>
		<polygon id="XMLID_734_" class="st7" points="137.1,131.3 136,132.1 135.5,129 136.6,128.1 		"/>
		<polygon id="XMLID_733_" class="st7" points="140,129 138.8,129.9 138.4,126.7 139.5,125.9 		"/>
		<polygon id="XMLID_732_" class="st7" points="141.8,127.6 140.6,128.5 140.2,125.3 141.3,124.5 		"/>
		<polygon id="XMLID_731_" class="st7" points="143.4,126.4 142.3,127.2 141.9,124.1 143,123.2 		"/>
		<polygon id="XMLID_730_" class="st7" points="144.8,125.2 143.7,126.1 143.3,122.9 144.4,122.1 		"/>
		<polygon id="XMLID_729_" class="st7" points="134.2,138.4 133.1,139.2 132.7,136.1 133.8,135.2 		"/>
		<polygon id="XMLID_728_" class="st7" points="136,137 134.9,137.8 134.5,134.7 135.6,133.8 		"/>
		<polygon id="XMLID_727_" class="st7" points="138.8,134.8 137.7,135.7 137.2,132.5 138.4,131.7 		"/>
		<polygon id="XMLID_726_" class="st7" points="140.6,133.5 139.4,134.3 139,131.2 140.1,130.3 		"/>
		<polygon id="XMLID_725_" class="st7" points="142.4,132.1 141.2,132.9 140.8,129.8 141.9,128.9 		"/>
		<polygon id="XMLID_724_" class="st7" points="144,130.8 142.9,131.6 142.5,128.5 143.6,127.6 		"/>
		<polygon id="XMLID_723_" class="st7" points="147.2,128.3 146.1,129.1 145.7,126 146.8,125.1 		"/>
		<polygon id="XMLID_722_" class="st7" points="148.9,127 147.8,127.9 147.4,124.7 148.5,123.8 		"/>
		<polygon id="XMLID_721_" class="st7" points="150.6,125.6 149.5,126.5 149.1,123.4 150.2,122.5 		"/>
		<polygon id="XMLID_720_" class="st7" points="152.4,124.3 151.3,125.1 150.9,122 152,121.1 		"/>
		<polygon id="XMLID_719_" class="st7" points="154.1,123 153,123.8 152.5,120.7 153.6,119.8 		"/>
		<polygon id="XMLID_718_" class="st7" points="134.8,142.7 133.7,143.6 133.3,140.4 134.4,139.6 		"/>
		<polygon id="XMLID_717_" class="st7" points="136.6,141.3 135.5,142.2 135.1,139 136.2,138.2 		"/>
		<polygon id="XMLID_716_" class="st7" points="138.3,140.1 137.2,140.9 136.7,137.8 137.8,136.9 		"/>
		<polygon id="XMLID_715_" class="st7" points="141.2,137.8 140,138.7 139.6,135.5 140.7,134.7 		"/>
		<polygon id="XMLID_714_" class="st7" points="143,136.4 141.8,137.3 141.4,134.1 142.5,133.3 		"/>
		<polygon id="XMLID_713_" class="st7" points="144.6,135.1 143.5,136 143.1,132.8 144.2,132 		"/>
		<polygon id="XMLID_712_" class="st7" points="146,134 144.9,134.9 144.5,131.7 145.6,130.9 		"/>
		<polygon id="XMLID_711_" class="st7" points="147.8,132.6 146.7,133.5 146.3,130.3 147.4,129.5 		"/>
		<polygon id="XMLID_710_" class="st7" points="149.5,131.4 148.4,132.2 147.9,129.1 149.1,128.2 		"/>
		<polygon id="XMLID_709_" class="st7" points="153,128.6 151.9,129.5 151.5,126.3 152.6,125.5 		"/>
		<polygon id="XMLID_708_" class="st7" points="154.7,127.3 153.6,128.2 153.1,125 154.2,124.2 		"/>
		<polygon id="XMLID_707_" class="st7" points="136.1,151.9 135,152.7 134.5,149.6 135.6,148.7 		"/>
		<polygon id="XMLID_706_" class="st7" points="137.9,150.5 136.8,151.3 136.3,148.2 137.4,147.3 		"/>
		<polygon id="XMLID_705_" class="st7" points="139.5,149.2 138.4,150.1 138,146.9 139.1,146 		"/>
		<polygon id="XMLID_704_" class="st7" points="142.4,146.9 141.3,147.8 140.9,144.7 142,143.8 		"/>
		<polygon id="XMLID_703_" class="st7" points="144.2,145.6 143.1,146.4 142.7,143.3 143.8,142.4 		"/>
		<polygon id="XMLID_702_" class="st7" points="145.9,144.3 144.7,145.1 144.3,142 145.4,141.1 		"/>
		<polygon id="XMLID_701_" class="st7" points="147.3,143.2 146.2,144 145.7,140.9 146.9,140 		"/>
		<polygon id="XMLID_700_" class="st7" points="149.1,141.8 148,142.6 147.5,139.5 148.7,138.6 		"/>
		<polygon id="XMLID_699_" class="st7" points="135.4,147.2 134.3,148 133.9,144.9 135,144 		"/>
		<polygon id="XMLID_698_" class="st7" points="137.2,145.8 136.1,146.6 135.7,143.5 136.8,142.6 		"/>
		<polygon id="XMLID_697_" class="st7" points="140,143.6 138.9,144.5 138.4,141.3 139.6,140.5 		"/>
		<polygon id="XMLID_696_" class="st7" points="141.8,142.2 140.6,143.1 140.2,139.9 141.3,139.1 		"/>
		<polygon id="XMLID_695_" class="st7" points="143.6,140.8 142.5,141.7 142,138.5 143.1,137.7 		"/>
		<polygon id="XMLID_694_" class="st7" points="145.2,139.6 144.1,140.4 143.7,137.3 144.8,136.4 		"/>
		<polygon id="XMLID_693_" class="st7" points="148.5,137.1 147.3,137.9 146.9,134.8 148,133.9 		"/>
		<polygon id="XMLID_692_" class="st7" points="150.1,135.8 149,136.6 148.6,133.5 149.7,132.6 		"/>
		<polygon id="XMLID_691_" class="st7" points="151.8,134.4 150.7,135.3 150.3,132.1 151.4,131.3 		"/>
		<polygon id="XMLID_690_" class="st7" points="155.3,131.8 154.2,132.6 153.7,129.5 154.8,128.6 		"/>
		<polygon id="XMLID_689_" class="st7" points="144.9,119.3 143.8,120.2 143.3,117 144.5,116.1 		"/>
		<polygon id="XMLID_688_" class="st7" points="152.2,113.6 145.5,118.8 145.1,115.6 151.8,110.5 		"/>
	</g>
	<polygon id="XMLID_526_" class="st4" points="131.8,128.7 196.1,91.6 164,73.1 99.7,110.2 	"/>
	<g id="XMLID_965_">
		<g id="XMLID_958_">
			<g id="XMLID_963_">
				<path id="XMLID_964_" class="st8" d="M40.8,134.9c0.1-0.1,0.2-0.3,0.2-0.4c0.4-0.7,0.9-1.2,1.6-1.6c0.3-0.2,0.6-0.3,1-0.3
					c0.6-0.1,1.2-0.1,1.9,0c0.6,0.1,1.2,0.3,1.8,0.6c0,0,0,0,0.1,0c0-0.2,0-0.3,0-0.5c0-0.1,0-0.1,0.1-0.1c0.2,0.1,0.5,0.3,0.7,0.4
					c0.1,0,0.1,0.1,0.1,0.2c0,0.2,0,0.3,0,0.5c0.1,0.1,0.2,0.1,0.3,0.2c1,0.7,1.9,1.6,2.8,2.6c0.9,1.1,1.7,2.3,2.3,3.6
					c0.4,0.9,0.8,1.8,1,2.7c0,0,0,0.1,0,0.1c0,0-0.1-0.1-0.1-0.1c-0.2-0.5-0.5-0.9-0.9-1.2c-0.5-0.5-1-0.7-1.5-0.7
					c-0.1,0-0.2,0.1-0.3,0.1c-0.1,0-0.1,0-0.2-0.1c-0.4-0.6-0.9-1.1-1.4-1.4c-0.4-0.2-0.8-0.2-1.1-0.1c-0.1,0-0.1,0-0.2-0.1
					c-0.2-0.3-0.5-0.7-0.8-0.9c0,0.1,0,0.1,0,0.2c0,2.3,0,4.6,0,7c0,0.4,0,0.7-0.1,1c-0.1,0.2-0.2,0.4-0.4,0.5
					c-0.3,0.1-0.6,0.1-0.9-0.1c0,0-0.1,0-0.1,0c-0.2-0.1-0.3-0.2-0.5-0.3c-0.2-0.1-0.3-0.3-0.5-0.4c-0.4-0.4-0.6-0.9-0.8-1.4
					c-0.1-0.4-0.1-0.7-0.1-1c0-0.1,0-0.1,0.1-0.1c0.2,0.1,0.4,0.2,0.6,0.3c0.1,0,0.1,0.1,0.1,0.1c0,0.1,0,0.3,0,0.4
					c0,0.3,0.1,0.6,0.3,0.8c0.2,0.2,0.4,0.4,0.6,0.5c0.4,0.2,0.7,0.1,0.7-0.3c0-0.2,0-0.5,0-0.8c0-2.3,0-4.5,0-6.8c0,0,0-0.1,0-0.1
					c-0.3-0.1-0.6-0.1-0.8,0c-0.1,0-0.1,0-0.2-0.1c-0.3-0.5-0.7-0.9-1.1-1.2c-0.5-0.3-1-0.4-1.4-0.2c-0.1,0-0.1,0-0.2-0.1
					c-0.3-0.4-0.6-0.8-0.9-1.1c-0.5-0.4-0.9-0.5-1.3-0.5c-0.2,0-0.3,0.1-0.5,0.2c0,0-0.1,0-0.1,0C40.8,135,40.8,134.9,40.8,134.9z"
					/>
			</g>
			<g id="XMLID_959_">
				<path id="XMLID_960_" class="st8" d="M53.8,153.1l-12-7c-1.1-0.7-2.1-2.3-2.1-3.6v-13.9c0-1.3,0.9-1.9,2.1-1.2l12,7
					c1.1,0.7,2.1,2.3,2.1,3.6v13.9C55.8,153.2,54.9,153.7,53.8,153.1z M41.7,128.3c-0.7-0.4-1.3-0.1-1.3,0.8V143
					c0,0.8,0.6,1.9,1.3,2.3l12,7c0.7,0.4,1.3,0.1,1.3-0.8v-13.9c0-0.8-0.6-1.9-1.3-2.3L41.7,128.3z"/>
			</g>
		</g>
		<g id="XMLID_949_">
			<g id="XMLID_954_">
				<path id="XMLID_957_" class="st8" d="M68.5,159.6c-0.5-0.7-1-1.5-1.5-2.2c-0.1-0.2-0.2-0.3-0.4-0.5c0.6-0.1,1.3-0.2,1.9-0.4
					c0,0.3,0,0.5,0,0.7c0.6,0.4,1.2,0.8,1.9,1c0.6,0.2,0.9-0.5,0.6-1.3c-0.6-1.7-1.3-3.3-1.9-5c-0.1-0.1-0.1-0.3-0.2-0.4
					c0.4,0,0.7-0.1,1.1-0.1c0.1,0.2,0.1,0.3,0.2,0.5c0.6,1.6,1.2,3.2,1.9,4.8c0.6,1.5,0.3,3.2-1,3.1c-0.2,0-0.5-0.1-0.8-0.2
					c-0.6-0.3-1.1-0.6-1.7-1C68.6,159.1,68.6,159.4,68.5,159.6C68.6,159.6,68.5,159.6,68.5,159.6z"/>
				<path id="XMLID_956_" class="st8" d="M65.7,155.7c0,0.5,0,1,0,1.5c-0.1-0.1-0.2-0.1-0.3-0.2c-1.3-0.7-2.5-1.5-3.8-2.2
					c-0.9-0.5-2-2-2.2-3.4c-0.1-0.7-0.1-1.2,0.2-1.6c0.3-0.4,0.5-0.8,0.8-1.2c-0.2-0.3-0.4-0.5-0.7-0.8c0.4,0,0.7,0,1.1,0.1
					c0.4,0,0.7,0.1,1.1,0.1c0,0.9,0.1,1.8,0.1,2.8c-0.2-0.3-0.4-0.5-0.6-0.7c-0.3,0.4-0.6,0.8-0.9,1.3c-0.2,0.5,0.3,1.7,0.9,2
					c1.3,0.8,2.6,1.5,3.9,2.2C65.5,155.5,65.6,155.6,65.7,155.7z"/>
				<path id="XMLID_955_" class="st8" d="M68.6,147.8c0.2,0,0.4,0,0.7,0c-0.1,0.9-0.2,1.7-0.3,2.6c-0.7-0.8-1.4-1.6-2.1-2.4
					c0.2,0,0.4-0.1,0.6-0.1c-0.3-0.8-0.6-1.5-0.9-2.3c-0.3-0.8-1.3-1.2-1.6-0.8c-0.7,0.9-1.3,1.8-1.9,2.8c-0.1,0.1-0.1,0.1-0.2,0.2
					c-0.4-0.4-0.7-0.9-1.1-1.3c0.1-0.1,0.1-0.2,0.2-0.3c0.6-0.9,1.3-1.7,1.9-2.7c0.5-0.9,2.2-0.5,3.3,1.1c0.2,0.3,0.4,0.6,0.5,1
					C68,146.3,68.3,147,68.6,147.8z"/>
			</g>
			<g id="XMLID_950_">
				<path id="XMLID_951_" class="st8" d="M71.9,163.5l-12-7c-1.1-0.7-2.1-2.3-2.1-3.6v-13.9c0-1.3,0.9-1.9,2.1-1.2l12,7
					c1.1,0.7,2.1,2.3,2.1,3.6v13.9C73.9,163.7,73,164.2,71.9,163.5z M59.8,138.8c-0.7-0.4-1.3-0.1-1.3,0.8v13.9
					c0,0.8,0.6,1.9,1.3,2.3l12,7c0.7,0.4,1.3,0.1,1.3-0.8V148c0-0.8-0.6-1.9-1.3-2.3L59.8,138.8z"/>
			</g>
		</g>
		<g id="XMLID_939_">
			<g id="XMLID_945_">
				<path id="XMLID_948_" class="st8" d="M86.2,167.6c-0.4-0.2-0.7-0.4-1.1-0.6c0-3.1,0-6.1,0-9.2c-0.2-0.1-0.4-0.2-0.6-0.4
					c0.4-0.8,0.8-1.5,1.2-2.2c0.4,1.2,0.8,2.4,1.2,3.6c-0.2-0.1-0.4-0.2-0.6-0.4C86.2,161.4,86.2,164.5,86.2,167.6z"/>
				<path id="XMLID_947_" class="st8" d="M81.6,155.7c-0.2-0.1-0.4-0.2-0.6-0.4c0.4-0.8,0.8-1.5,1.2-2.2c0.4,1.2,0.8,2.4,1.2,3.6
					c-0.2-0.1-0.4-0.2-0.6-0.4c0,3.1,0,6.1,0,9.2c-0.4-0.2-0.7-0.4-1.1-0.6C81.6,161.8,81.6,158.8,81.6,155.7z"/>
				<path id="XMLID_946_" class="st8" d="M79.6,165.8c0-0.4,0-0.9,0-1.3c2.9,1.7,5.8,3.3,8.6,5c0,0.4,0,0.9,0,1.3
					C85.4,169.1,82.5,167.4,79.6,165.8z"/>
			</g>
			<g id="XMLID_940_">
				<g id="XMLID_941_">
					<path id="XMLID_942_" class="st8" d="M90,174l-12-7c-1.1-0.7-2.1-2.3-2.1-3.6v-13.9c0-1.3,0.9-1.9,2.1-1.2l12,7
						c1.1,0.7,2.1,2.3,2.1,3.6v13.9C92,174.1,91.1,174.6,90,174z M77.9,149.2c-0.7-0.4-1.3-0.1-1.3,0.8v13.9c0,0.8,0.6,1.9,1.3,2.3
						l12,7c0.7,0.4,1.3,0.1,1.3-0.8v-13.9c0-0.8-0.6-1.9-1.3-2.3L77.9,149.2z"/>
				</g>
			</g>
		</g>
	</g>
	<defs>
		<filter id="Adobe_OpacityMaskFilter" filterUnits="userSpaceOnUse" x="99.7" y="36" width="64.3" height="74.2">
			<feFlood  style="flood-color:white;flood-opacity:1" result="back"/>
			<feBlend  in="SourceGraphic" in2="back" mode="normal"/>
		</filter>
	</defs>
	<mask maskUnits="userSpaceOnUse" x="99.7" y="36" width="64.3" height="74.2" id="XMLID_7_">
		<g class="st9">
			<defs>
				<filter id="Adobe_OpacityMaskFilter_1_" filterUnits="userSpaceOnUse" x="99.7" y="36" width="64.3" height="74.2">
					<feFlood  style="flood-color:white;flood-opacity:1" result="back"/>
					<feBlend  in="SourceGraphic" in2="back" mode="normal"/>
				</filter>
			</defs>
			<mask maskUnits="userSpaceOnUse" x="99.7" y="36" width="64.3" height="74.2" id="XMLID_7_">
				<g class="st10">
				</g>
			</mask>
			<linearGradient id="XMLID_8_" gradientUnits="userSpaceOnUse" x1="94.5239" y1="93.3297" x2="145.9684" y2="39.8117">
				<stop  offset="0" style="stop-color:#FFFFFF"/>
				<stop  offset="1" style="stop-color:#000000"/>
			</linearGradient>
			<polygon id="XMLID_2_" class="st11" points="99.7,110.2 164,73.1 99.7,36 			"/>
		</g>
	</mask>
	<linearGradient id="XMLID_9_" gradientUnits="userSpaceOnUse" x1="94.5239" y1="93.3297" x2="145.9684" y2="39.8117">
		<stop  offset="0" style="stop-color:#D0D2D3"/>
		<stop  offset="1" style="stop-color:#FFFFFF"/>
	</linearGradient>
	<polygon id="XMLID_993_" class="st12" points="99.7,110.2 164,73.1 99.7,36 	"/>
</g>
</svg>
