<?xml version="1.0" encoding="utf-8"?>
<!-- Generator: Adobe Illustrator 23.0.1, SVG Export Plug-In . SVG Version: 6.00 Build 0)  -->
<svg version="1.1" id="Layer_1" xmlns="http://www.w3.org/2000/svg" xmlns:xlink="http://www.w3.org/1999/xlink" x="0px" y="0px"
	 viewBox="0 0 200 200" style="enable-background:new 0 0 200 200;" xml:space="preserve">
<style type="text/css">
	.st0{fill:url(#SVGID_1_);}
	.st1{fill:url(#SVGID_2_);}
	.st2{fill:url(#SVGID_3_);}
	.st3{fill:url(#SVGID_4_);}
	.st4{fill:url(#SVGID_5_);}
	.st5{fill:url(#SVGID_6_);}
	.st6{fill:url(#SVGID_7_);}
	.st7{fill:url(#SVGID_8_);}
	.st8{fill:url(#SVGID_9_);}
	.st9{fill:url(#SVGID_10_);}
	.st10{fill:url(#SVGID_11_);}
	.st11{fill:url(#SVGID_12_);}
	.st12{fill:url(#SVGID_13_);}
	.st13{fill:url(#SVGID_14_);}
	.st14{fill:url(#SVGID_15_);}
	.st15{fill:url(#SVGID_16_);}
	.st16{fill:url(#SVGID_17_);}
	.st17{fill:url(#SVGID_18_);}
	.st18{fill:url(#SVGID_19_);}
	.st19{fill:url(#SVGID_20_);}
	.st20{fill:url(#SVGID_21_);}
	.st21{fill:url(#SVGID_22_);}
	.st22{fill:url(#SVGID_23_);}
	.st23{fill:url(#SVGID_24_);}
	.st24{fill:url(#SVGID_25_);}
	.st25{fill:url(#SVGID_26_);}
	.st26{fill:url(#SVGID_27_);}
	.st27{fill:url(#SVGID_28_);}
	.st28{fill:url(#SVGID_29_);}
	.st29{fill:url(#SVGID_30_);}
	.st30{fill:url(#SVGID_31_);}
	.st31{fill:url(#SVGID_32_);}
	.st32{fill:url(#SVGID_33_);}
	.st33{fill:url(#SVGID_34_);}
	.st34{fill:url(#SVGID_35_);}
	.st35{fill:url(#SVGID_36_);}
	.st36{fill:url(#SVGID_37_);}
	.st37{fill:url(#SVGID_38_);}
	.st38{fill:url(#SVGID_39_);}
	.st39{fill:url(#SVGID_40_);}
	.st40{fill:url(#SVGID_41_);}
	.st41{fill:url(#SVGID_42_);}
	.st42{fill:url(#SVGID_43_);}
	.st43{fill:url(#SVGID_44_);}
	.st44{fill:url(#SVGID_45_);}
	.st45{fill:url(#SVGID_46_);}
	.st46{fill:url(#SVGID_47_);}
	.st47{fill:url(#SVGID_48_);}
	.st48{fill:url(#SVGID_49_);}
	.st49{fill:url(#SVGID_50_);}
	.st50{fill:url(#SVGID_51_);}
	.st51{fill:url(#SVGID_52_);}
	.st52{fill:url(#SVGID_53_);}
	.st53{fill:url(#SVGID_54_);}
</style>
<g>
	
		<linearGradient id="SVGID_1_" gradientUnits="userSpaceOnUse" x1="28.354" y1="52.2371" x2="28.354" y2="22.5796" gradientTransform="matrix(-0.8007 0.7299 -0.6742 -0.7396 73.9045 35.8741)">
		<stop  offset="0" style="stop-color:#F2F2F2"/>
		<stop  offset="1" style="stop-color:#FFFFFF"/>
	</linearGradient>
	<path class="st0" d="M14.1,39.7C8.6,33.7,9.4,23.9,16,17.9s16.3-5.9,21.9,0.1s4.7,15.8-1.9,21.8S19.6,45.8,14.1,39.7z"/>
	<linearGradient id="SVGID_2_" gradientUnits="userSpaceOnUse" x1="25.9817" y1="41.8936" x2="25.9817" y2="15.9102">
		<stop  offset="0" style="stop-color:#FFFFFF"/>
		<stop  offset="0.1958" style="stop-color:#FCFCFC"/>
		<stop  offset="0.3594" style="stop-color:#F1F1F1"/>
		<stop  offset="0.5114" style="stop-color:#E0E0E0"/>
		<stop  offset="0.6563" style="stop-color:#C8C8C8"/>
		<stop  offset="0.7963" style="stop-color:#A8A8A8"/>
		<stop  offset="0.9307" style="stop-color:#828282"/>
		<stop  offset="1" style="stop-color:#6B6B6B"/>
	</linearGradient>
	<circle class="st1" cx="26" cy="28.9" r="13"/>
</g>
<g>
	
		<linearGradient id="SVGID_3_" gradientUnits="userSpaceOnUse" x1="50.5679" y1="25.8527" x2="50.5679" y2="-3.8048" gradientTransform="matrix(-0.8007 0.7299 -0.6742 -0.7396 73.9045 35.8741)">
		<stop  offset="0" style="stop-color:#F2F2F2"/>
		<stop  offset="1" style="stop-color:#FFFFFF"/>
	</linearGradient>
	<path class="st2" d="M14.1,75.5C8.6,69.4,9.4,59.6,16,53.7s16.3-5.9,21.9,0.1s4.7,15.8-1.9,21.8S19.6,81.5,14.1,75.5z"/>
	<linearGradient id="SVGID_4_" gradientUnits="userSpaceOnUse" x1="25.9817" y1="77.6208" x2="25.9817" y2="51.6374">
		<stop  offset="0" style="stop-color:#FFFFFF"/>
		<stop  offset="0.1958" style="stop-color:#FCFCFC"/>
		<stop  offset="0.3594" style="stop-color:#F1F1F1"/>
		<stop  offset="0.5114" style="stop-color:#E0E0E0"/>
		<stop  offset="0.6563" style="stop-color:#C8C8C8"/>
		<stop  offset="0.7963" style="stop-color:#A8A8A8"/>
		<stop  offset="0.9307" style="stop-color:#828282"/>
		<stop  offset="1" style="stop-color:#6B6B6B"/>
	</linearGradient>
	<circle class="st3" cx="26" cy="64.6" r="13"/>
</g>
<g>
	
		<linearGradient id="SVGID_5_" gradientUnits="userSpaceOnUse" x1="72.7818" y1="-0.5317" x2="72.7818" y2="-30.1892" gradientTransform="matrix(-0.8007 0.7299 -0.6742 -0.7396 73.9045 35.8741)">
		<stop  offset="0" style="stop-color:#F2F2F2"/>
		<stop  offset="1" style="stop-color:#FFFFFF"/>
	</linearGradient>
	<path class="st4" d="M14.1,111.2c-5.5-6.1-4.7-15.8,1.9-21.8s16.3-5.9,21.9,0.1c5.5,6.1,4.7,15.8-1.9,21.8S19.6,117.2,14.1,111.2z"
		/>
	<linearGradient id="SVGID_6_" gradientUnits="userSpaceOnUse" x1="25.9817" y1="113.348" x2="25.9817" y2="87.3646">
		<stop  offset="0" style="stop-color:#FFFFFF"/>
		<stop  offset="0.1958" style="stop-color:#FCFCFC"/>
		<stop  offset="0.3594" style="stop-color:#F1F1F1"/>
		<stop  offset="0.5114" style="stop-color:#E0E0E0"/>
		<stop  offset="0.6563" style="stop-color:#C8C8C8"/>
		<stop  offset="0.7963" style="stop-color:#A8A8A8"/>
		<stop  offset="0.9307" style="stop-color:#828282"/>
		<stop  offset="1" style="stop-color:#6B6B6B"/>
	</linearGradient>
	<circle class="st5" cx="26" cy="100.4" r="13"/>
</g>
<g>
	
		<linearGradient id="SVGID_7_" gradientUnits="userSpaceOnUse" x1="94.9956" y1="-26.9161" x2="94.9956" y2="-56.5736" gradientTransform="matrix(-0.8007 0.7299 -0.6742 -0.7396 73.9045 35.8741)">
		<stop  offset="0" style="stop-color:#F2F2F2"/>
		<stop  offset="1" style="stop-color:#FFFFFF"/>
	</linearGradient>
	<path class="st6" d="M14.1,146.9c-5.5-6.1-4.7-15.8,1.9-21.8c6.6-6,16.3-5.9,21.9,0.1s4.7,15.8-1.9,21.8S19.6,153,14.1,146.9z"/>
	<linearGradient id="SVGID_8_" gradientUnits="userSpaceOnUse" x1="25.9817" y1="149.0751" x2="25.9817" y2="123.0917">
		<stop  offset="0" style="stop-color:#FFFFFF"/>
		<stop  offset="0.1958" style="stop-color:#FCFCFC"/>
		<stop  offset="0.3594" style="stop-color:#F1F1F1"/>
		<stop  offset="0.5114" style="stop-color:#E0E0E0"/>
		<stop  offset="0.6563" style="stop-color:#C8C8C8"/>
		<stop  offset="0.7963" style="stop-color:#A8A8A8"/>
		<stop  offset="0.9307" style="stop-color:#828282"/>
		<stop  offset="1" style="stop-color:#6B6B6B"/>
	</linearGradient>
	<circle class="st7" cx="26" cy="136.1" r="13"/>
</g>
<g>
	
		<linearGradient id="SVGID_9_" gradientUnits="userSpaceOnUse" x1="117.2095" y1="-53.3005" x2="117.2095" y2="-82.958" gradientTransform="matrix(-0.8007 0.7299 -0.6742 -0.7396 73.9045 35.8741)">
		<stop  offset="0" style="stop-color:#F2F2F2"/>
		<stop  offset="1" style="stop-color:#FFFFFF"/>
	</linearGradient>
	<path class="st8" d="M14.1,182.6c-5.5-6.1-4.7-15.8,1.9-21.8s16.3-5.9,21.9,0.1c5.5,6.1,4.7,15.8-1.9,21.8S19.6,188.7,14.1,182.6z"
		/>
	<linearGradient id="SVGID_10_" gradientUnits="userSpaceOnUse" x1="25.9817" y1="184.8023" x2="25.9817" y2="158.8189">
		<stop  offset="0" style="stop-color:#FFFFFF"/>
		<stop  offset="0.1958" style="stop-color:#FCFCFC"/>
		<stop  offset="0.3594" style="stop-color:#F1F1F1"/>
		<stop  offset="0.5114" style="stop-color:#E0E0E0"/>
		<stop  offset="0.6563" style="stop-color:#C8C8C8"/>
		<stop  offset="0.7963" style="stop-color:#A8A8A8"/>
		<stop  offset="0.9307" style="stop-color:#828282"/>
		<stop  offset="1" style="stop-color:#6B6B6B"/>
	</linearGradient>
	<circle class="st9" cx="26" cy="171.8" r="13"/>
</g>
<g>
	
		<linearGradient id="SVGID_11_" gradientUnits="userSpaceOnUse" x1="18.6975" y1="19.7366" x2="18.6975" y2="-9.9208" gradientTransform="matrix(-0.8007 0.7299 -0.6742 -0.7396 73.9045 35.8741)">
		<stop  offset="0" style="stop-color:#F2F2F2"/>
		<stop  offset="1" style="stop-color:#FFFFFF"/>
	</linearGradient>
	<path class="st10" d="M43.8,56.7c-5.5-6.1-4.7-15.8,1.9-21.8S62,29,67.5,35.1s4.7,15.8-1.9,21.8C59.1,62.8,49.3,62.8,43.8,56.7z"/>
	<linearGradient id="SVGID_12_" gradientUnits="userSpaceOnUse" x1="55.6243" y1="58.8828" x2="55.6243" y2="32.8994">
		<stop  offset="0" style="stop-color:#FFFFFF"/>
		<stop  offset="0.1958" style="stop-color:#FCFCFC"/>
		<stop  offset="0.3594" style="stop-color:#F1F1F1"/>
		<stop  offset="0.5114" style="stop-color:#E0E0E0"/>
		<stop  offset="0.6563" style="stop-color:#C8C8C8"/>
		<stop  offset="0.7963" style="stop-color:#A8A8A8"/>
		<stop  offset="0.9307" style="stop-color:#828282"/>
		<stop  offset="1" style="stop-color:#6B6B6B"/>
	</linearGradient>
	<circle class="st11" cx="55.6" cy="45.9" r="13"/>
</g>
<g>
	
		<linearGradient id="SVGID_13_" gradientUnits="userSpaceOnUse" x1="40.9114" y1="-6.6478" x2="40.9114" y2="-36.3052" gradientTransform="matrix(-0.8007 0.7299 -0.6742 -0.7396 73.9045 35.8741)">
		<stop  offset="0" style="stop-color:#F2F2F2"/>
		<stop  offset="1" style="stop-color:#FFFFFF"/>
	</linearGradient>
	<path class="st12" d="M43.8,92.4c-5.5-6.1-4.7-15.8,1.9-21.8s16.3-5.9,21.9,0.1c5.5,6.1,4.7,15.8-1.9,21.8
		C59.1,98.6,49.3,98.5,43.8,92.4z"/>
	<linearGradient id="SVGID_14_" gradientUnits="userSpaceOnUse" x1="55.6243" y1="94.6099" x2="55.6243" y2="68.6265">
		<stop  offset="0" style="stop-color:#FFFFFF"/>
		<stop  offset="0.1958" style="stop-color:#FCFCFC"/>
		<stop  offset="0.3594" style="stop-color:#F1F1F1"/>
		<stop  offset="0.5114" style="stop-color:#E0E0E0"/>
		<stop  offset="0.6563" style="stop-color:#C8C8C8"/>
		<stop  offset="0.7963" style="stop-color:#A8A8A8"/>
		<stop  offset="0.9307" style="stop-color:#828282"/>
		<stop  offset="1" style="stop-color:#6B6B6B"/>
	</linearGradient>
	<circle class="st13" cx="55.6" cy="81.6" r="13"/>
</g>
<g>
	
		<linearGradient id="SVGID_15_" gradientUnits="userSpaceOnUse" x1="63.1252" y1="-33.0322" x2="63.1252" y2="-62.6896" gradientTransform="matrix(-0.8007 0.7299 -0.6742 -0.7396 73.9045 35.8741)">
		<stop  offset="0" style="stop-color:#F2F2F2"/>
		<stop  offset="1" style="stop-color:#FFFFFF"/>
	</linearGradient>
	<path class="st14" d="M43.8,128.2c-5.5-6.1-4.7-15.8,1.9-21.8s16.3-5.9,21.9,0.1c5.5,6.1,4.7,15.8-1.9,21.8
		C59.1,134.3,49.3,134.2,43.8,128.2z"/>
	<linearGradient id="SVGID_16_" gradientUnits="userSpaceOnUse" x1="55.6243" y1="130.3371" x2="55.6243" y2="104.3537">
		<stop  offset="0" style="stop-color:#FFFFFF"/>
		<stop  offset="0.1958" style="stop-color:#FCFCFC"/>
		<stop  offset="0.3594" style="stop-color:#F1F1F1"/>
		<stop  offset="0.5114" style="stop-color:#E0E0E0"/>
		<stop  offset="0.6563" style="stop-color:#C8C8C8"/>
		<stop  offset="0.7963" style="stop-color:#A8A8A8"/>
		<stop  offset="0.9307" style="stop-color:#828282"/>
		<stop  offset="1" style="stop-color:#6B6B6B"/>
	</linearGradient>
	<circle class="st15" cx="55.6" cy="117.3" r="13"/>
</g>
<g>
	
		<linearGradient id="SVGID_17_" gradientUnits="userSpaceOnUse" x1="85.3391" y1="-59.4166" x2="85.3391" y2="-89.074" gradientTransform="matrix(-0.8007 0.7299 -0.6742 -0.7396 73.9045 35.8741)">
		<stop  offset="0" style="stop-color:#F2F2F2"/>
		<stop  offset="1" style="stop-color:#FFFFFF"/>
	</linearGradient>
	<path class="st16" d="M43.8,163.9c-5.5-6.1-4.7-15.8,1.9-21.8s16.3-5.9,21.9,0.1s4.7,15.8-1.9,21.8C59.1,170,49.3,170,43.8,163.9z"
		/>
	<linearGradient id="SVGID_18_" gradientUnits="userSpaceOnUse" x1="55.6243" y1="166.0643" x2="55.6243" y2="140.0809">
		<stop  offset="0" style="stop-color:#FFFFFF"/>
		<stop  offset="0.1958" style="stop-color:#FCFCFC"/>
		<stop  offset="0.3594" style="stop-color:#F1F1F1"/>
		<stop  offset="0.5114" style="stop-color:#E0E0E0"/>
		<stop  offset="0.6563" style="stop-color:#C8C8C8"/>
		<stop  offset="0.7963" style="stop-color:#A8A8A8"/>
		<stop  offset="0.9307" style="stop-color:#828282"/>
		<stop  offset="1" style="stop-color:#6B6B6B"/>
	</linearGradient>
	<circle class="st17" cx="55.6" cy="153.1" r="13"/>
</g>
<g>
	
		<linearGradient id="SVGID_19_" gradientUnits="userSpaceOnUse" x1="-12.2557" y1="12.161" x2="-12.2557" y2="-17.4964" gradientTransform="matrix(-0.8007 0.7299 -0.6742 -0.7396 73.9045 35.8741)">
		<stop  offset="0" style="stop-color:#F2F2F2"/>
		<stop  offset="1" style="stop-color:#FFFFFF"/>
	</linearGradient>
	<path class="st18" d="M73.6,39.7c-5.5-6.1-4.7-15.8,1.9-21.8c6.6-6,16.3-5.9,21.9,0.1c5.5,6.1,4.7,15.8-1.9,21.8
		C89,45.8,79.2,45.8,73.6,39.7z"/>
	<linearGradient id="SVGID_20_" gradientUnits="userSpaceOnUse" x1="85.5164" y1="41.8936" x2="85.5164" y2="15.9102">
		<stop  offset="0" style="stop-color:#FFFFFF"/>
		<stop  offset="0.1958" style="stop-color:#FCFCFC"/>
		<stop  offset="0.3594" style="stop-color:#F1F1F1"/>
		<stop  offset="0.5114" style="stop-color:#E0E0E0"/>
		<stop  offset="0.6563" style="stop-color:#C8C8C8"/>
		<stop  offset="0.7963" style="stop-color:#A8A8A8"/>
		<stop  offset="0.9307" style="stop-color:#828282"/>
		<stop  offset="1" style="stop-color:#6B6B6B"/>
	</linearGradient>
	<circle class="st19" cx="85.5" cy="28.9" r="13"/>
</g>
<g>
	
		<linearGradient id="SVGID_21_" gradientUnits="userSpaceOnUse" x1="9.9581" y1="-14.2234" x2="9.9581" y2="-43.8808" gradientTransform="matrix(-0.8007 0.7299 -0.6742 -0.7396 73.9045 35.8741)">
		<stop  offset="0" style="stop-color:#F2F2F2"/>
		<stop  offset="1" style="stop-color:#FFFFFF"/>
	</linearGradient>
	<path class="st20" d="M73.6,75.5c-5.5-6.1-4.7-15.8,1.9-21.8c6.6-6,16.3-5.9,21.9,0.1c5.5,6.1,4.7,15.8-1.9,21.8
		C89,81.6,79.2,81.5,73.6,75.5z"/>
	<linearGradient id="SVGID_22_" gradientUnits="userSpaceOnUse" x1="85.5164" y1="77.6208" x2="85.5164" y2="51.6374">
		<stop  offset="0" style="stop-color:#FFFFFF"/>
		<stop  offset="0.1958" style="stop-color:#FCFCFC"/>
		<stop  offset="0.3594" style="stop-color:#F1F1F1"/>
		<stop  offset="0.5114" style="stop-color:#E0E0E0"/>
		<stop  offset="0.6563" style="stop-color:#C8C8C8"/>
		<stop  offset="0.7963" style="stop-color:#A8A8A8"/>
		<stop  offset="0.9307" style="stop-color:#828282"/>
		<stop  offset="1" style="stop-color:#6B6B6B"/>
	</linearGradient>
	<circle class="st21" cx="85.5" cy="64.6" r="13"/>
</g>
<g>
	
		<linearGradient id="SVGID_23_" gradientUnits="userSpaceOnUse" x1="32.172" y1="-40.6077" x2="32.172" y2="-70.2652" gradientTransform="matrix(-0.8007 0.7299 -0.6742 -0.7396 73.9045 35.8741)">
		<stop  offset="0" style="stop-color:#F2F2F2"/>
		<stop  offset="1" style="stop-color:#FFFFFF"/>
	</linearGradient>
	<path class="st22" d="M73.6,111.2c-5.5-6.1-4.7-15.8,1.9-21.8c6.6-6,16.3-5.9,21.9,0.1c5.5,6.1,4.7,15.8-1.9,21.8
		C89,117.3,79.2,117.2,73.6,111.2z"/>
	<linearGradient id="SVGID_24_" gradientUnits="userSpaceOnUse" x1="85.5164" y1="113.348" x2="85.5164" y2="87.3646">
		<stop  offset="0" style="stop-color:#FFFFFF"/>
		<stop  offset="0.1958" style="stop-color:#FCFCFC"/>
		<stop  offset="0.3594" style="stop-color:#F1F1F1"/>
		<stop  offset="0.5114" style="stop-color:#E0E0E0"/>
		<stop  offset="0.6563" style="stop-color:#C8C8C8"/>
		<stop  offset="0.7963" style="stop-color:#A8A8A8"/>
		<stop  offset="0.9307" style="stop-color:#828282"/>
		<stop  offset="1" style="stop-color:#6B6B6B"/>
	</linearGradient>
	<circle class="st23" cx="85.5" cy="100.4" r="13"/>
</g>
<g>
	
		<linearGradient id="SVGID_25_" gradientUnits="userSpaceOnUse" x1="54.3859" y1="-66.9921" x2="54.3859" y2="-96.6496" gradientTransform="matrix(-0.8007 0.7299 -0.6742 -0.7396 73.9045 35.8741)">
		<stop  offset="0" style="stop-color:#F2F2F2"/>
		<stop  offset="1" style="stop-color:#FFFFFF"/>
	</linearGradient>
	<path class="st24" d="M73.6,146.9c-5.5-6.1-4.7-15.8,1.9-21.8c6.6-6,16.3-5.9,21.9,0.1c5.5,6.1,4.7,15.8-1.9,21.8
		C89,153,79.2,153,73.6,146.9z"/>
	<linearGradient id="SVGID_26_" gradientUnits="userSpaceOnUse" x1="85.5164" y1="149.0751" x2="85.5164" y2="123.0917">
		<stop  offset="0" style="stop-color:#FFFFFF"/>
		<stop  offset="0.1958" style="stop-color:#FCFCFC"/>
		<stop  offset="0.3594" style="stop-color:#F1F1F1"/>
		<stop  offset="0.5114" style="stop-color:#E0E0E0"/>
		<stop  offset="0.6563" style="stop-color:#C8C8C8"/>
		<stop  offset="0.7963" style="stop-color:#A8A8A8"/>
		<stop  offset="0.9307" style="stop-color:#828282"/>
		<stop  offset="1" style="stop-color:#6B6B6B"/>
	</linearGradient>
	<circle class="st25" cx="85.5" cy="136.1" r="13"/>
</g>
<g>
	
		<linearGradient id="SVGID_27_" gradientUnits="userSpaceOnUse" x1="76.5997" y1="-93.3765" x2="76.5997" y2="-123.034" gradientTransform="matrix(-0.8007 0.7299 -0.6742 -0.7396 73.9045 35.8741)">
		<stop  offset="0" style="stop-color:#F2F2F2"/>
		<stop  offset="1" style="stop-color:#FFFFFF"/>
	</linearGradient>
	<path class="st26" d="M73.6,182.6c-5.5-6.1-4.7-15.8,1.9-21.8c6.6-6,16.3-5.9,21.9,0.1c5.5,6.1,4.7,15.8-1.9,21.8
		C89,188.8,79.2,188.7,73.6,182.6z"/>
	<linearGradient id="SVGID_28_" gradientUnits="userSpaceOnUse" x1="85.5164" y1="184.8023" x2="85.5164" y2="158.8189">
		<stop  offset="0" style="stop-color:#FFFFFF"/>
		<stop  offset="0.1958" style="stop-color:#FCFCFC"/>
		<stop  offset="0.3594" style="stop-color:#F1F1F1"/>
		<stop  offset="0.5114" style="stop-color:#E0E0E0"/>
		<stop  offset="0.6563" style="stop-color:#C8C8C8"/>
		<stop  offset="0.7963" style="stop-color:#A8A8A8"/>
		<stop  offset="0.9307" style="stop-color:#828282"/>
		<stop  offset="1" style="stop-color:#6B6B6B"/>
	</linearGradient>
	<circle class="st27" cx="85.5" cy="171.8" r="13"/>
</g>
<g>
	
		<linearGradient id="SVGID_29_" gradientUnits="userSpaceOnUse" x1="-21.9123" y1="-20.3394" x2="-21.9123" y2="-49.9968" gradientTransform="matrix(-0.8007 0.7299 -0.6742 -0.7396 73.9045 35.8741)">
		<stop  offset="0" style="stop-color:#F2F2F2"/>
		<stop  offset="1" style="stop-color:#FFFFFF"/>
	</linearGradient>
	<path class="st28" d="M103.3,56.7c-5.5-6.1-4.7-15.8,1.9-21.8c6.6-6,16.3-5.9,21.9,0.1c5.5,6.1,4.7,15.8-1.9,21.8
		S108.8,62.8,103.3,56.7z"/>
	<linearGradient id="SVGID_30_" gradientUnits="userSpaceOnUse" x1="115.159" y1="58.8828" x2="115.159" y2="32.8994">
		<stop  offset="0" style="stop-color:#FFFFFF"/>
		<stop  offset="0.1958" style="stop-color:#FCFCFC"/>
		<stop  offset="0.3594" style="stop-color:#F1F1F1"/>
		<stop  offset="0.5114" style="stop-color:#E0E0E0"/>
		<stop  offset="0.6563" style="stop-color:#C8C8C8"/>
		<stop  offset="0.7963" style="stop-color:#A8A8A8"/>
		<stop  offset="0.9307" style="stop-color:#828282"/>
		<stop  offset="1" style="stop-color:#6B6B6B"/>
	</linearGradient>
	<circle class="st29" cx="115.2" cy="45.9" r="13"/>
</g>
<g>
	
		<linearGradient id="SVGID_31_" gradientUnits="userSpaceOnUse" x1="0.3016" y1="-46.7238" x2="0.3016" y2="-76.3812" gradientTransform="matrix(-0.8007 0.7299 -0.6742 -0.7396 73.9045 35.8741)">
		<stop  offset="0" style="stop-color:#F2F2F2"/>
		<stop  offset="1" style="stop-color:#FFFFFF"/>
	</linearGradient>
	<path class="st30" d="M103.3,92.4c-5.5-6.1-4.7-15.8,1.9-21.8c6.6-6,16.3-5.9,21.9,0.1c5.5,6.1,4.7,15.8-1.9,21.8
		S108.8,98.5,103.3,92.4z"/>
	<linearGradient id="SVGID_32_" gradientUnits="userSpaceOnUse" x1="115.159" y1="94.6099" x2="115.159" y2="68.6265">
		<stop  offset="0" style="stop-color:#FFFFFF"/>
		<stop  offset="0.1958" style="stop-color:#FCFCFC"/>
		<stop  offset="0.3594" style="stop-color:#F1F1F1"/>
		<stop  offset="0.5114" style="stop-color:#E0E0E0"/>
		<stop  offset="0.6563" style="stop-color:#C8C8C8"/>
		<stop  offset="0.7963" style="stop-color:#A8A8A8"/>
		<stop  offset="0.9307" style="stop-color:#828282"/>
		<stop  offset="1" style="stop-color:#6B6B6B"/>
	</linearGradient>
	<circle class="st31" cx="115.2" cy="81.6" r="13"/>
</g>
<g>
	
		<linearGradient id="SVGID_33_" gradientUnits="userSpaceOnUse" x1="22.5154" y1="-73.1082" x2="22.5154" y2="-102.7656" gradientTransform="matrix(-0.8007 0.7299 -0.6742 -0.7396 73.9045 35.8741)">
		<stop  offset="0" style="stop-color:#F2F2F2"/>
		<stop  offset="1" style="stop-color:#FFFFFF"/>
	</linearGradient>
	<path class="st32" d="M103.3,128.2c-5.5-6.1-4.7-15.8,1.9-21.8c6.6-6,16.3-5.9,21.9,0.1c5.5,6.1,4.7,15.8-1.9,21.8
		C118.6,134.3,108.8,134.2,103.3,128.2z"/>
	<linearGradient id="SVGID_34_" gradientUnits="userSpaceOnUse" x1="115.159" y1="130.3371" x2="115.159" y2="104.3537">
		<stop  offset="0" style="stop-color:#FFFFFF"/>
		<stop  offset="0.1958" style="stop-color:#FCFCFC"/>
		<stop  offset="0.3594" style="stop-color:#F1F1F1"/>
		<stop  offset="0.5114" style="stop-color:#E0E0E0"/>
		<stop  offset="0.6563" style="stop-color:#C8C8C8"/>
		<stop  offset="0.7963" style="stop-color:#A8A8A8"/>
		<stop  offset="0.9307" style="stop-color:#828282"/>
		<stop  offset="1" style="stop-color:#6B6B6B"/>
	</linearGradient>
	<circle class="st33" cx="115.2" cy="117.3" r="13"/>
</g>
<g>
	
		<linearGradient id="SVGID_35_" gradientUnits="userSpaceOnUse" x1="44.7293" y1="-99.4926" x2="44.7293" y2="-129.15" gradientTransform="matrix(-0.8007 0.7299 -0.6742 -0.7396 73.9045 35.8741)">
		<stop  offset="0" style="stop-color:#F2F2F2"/>
		<stop  offset="1" style="stop-color:#FFFFFF"/>
	</linearGradient>
	<path class="st34" d="M103.3,163.9c-5.5-6.1-4.7-15.8,1.9-21.8c6.6-6,16.3-5.9,21.9,0.1c5.5,6.1,4.7,15.8-1.9,21.8
		S108.8,170,103.3,163.9z"/>
	<linearGradient id="SVGID_36_" gradientUnits="userSpaceOnUse" x1="115.159" y1="166.0643" x2="115.159" y2="140.0809">
		<stop  offset="0" style="stop-color:#FFFFFF"/>
		<stop  offset="0.1958" style="stop-color:#FCFCFC"/>
		<stop  offset="0.3594" style="stop-color:#F1F1F1"/>
		<stop  offset="0.5114" style="stop-color:#E0E0E0"/>
		<stop  offset="0.6563" style="stop-color:#C8C8C8"/>
		<stop  offset="0.7963" style="stop-color:#A8A8A8"/>
		<stop  offset="0.9307" style="stop-color:#828282"/>
		<stop  offset="1" style="stop-color:#6B6B6B"/>
	</linearGradient>
	<circle class="st35" cx="115.2" cy="153.1" r="13"/>
</g>
<g>
	
		<linearGradient id="SVGID_37_" gradientUnits="userSpaceOnUse" x1="-53.8807" y1="-28.9169" x2="-53.8807" y2="-58.5743" gradientTransform="matrix(-0.8007 0.7299 -0.6742 -0.7396 73.9045 35.8741)">
		<stop  offset="0" style="stop-color:#F2F2F2"/>
		<stop  offset="1" style="stop-color:#FFFFFF"/>
	</linearGradient>
	<path class="st36" d="M134.7,39.7c-5.5-6.1-4.7-15.8,1.9-21.8s16.3-5.9,21.9,0.1s4.7,15.8-1.9,21.8S140.2,45.8,134.7,39.7z"/>
	<linearGradient id="SVGID_38_" gradientUnits="userSpaceOnUse" x1="146.5396" y1="41.8936" x2="146.5396" y2="15.9102">
		<stop  offset="0" style="stop-color:#FFFFFF"/>
		<stop  offset="0.1958" style="stop-color:#FCFCFC"/>
		<stop  offset="0.3594" style="stop-color:#F1F1F1"/>
		<stop  offset="0.5114" style="stop-color:#E0E0E0"/>
		<stop  offset="0.6563" style="stop-color:#C8C8C8"/>
		<stop  offset="0.7963" style="stop-color:#A8A8A8"/>
		<stop  offset="0.9307" style="stop-color:#828282"/>
		<stop  offset="1" style="stop-color:#6B6B6B"/>
	</linearGradient>
	<circle class="st37" cx="146.5" cy="28.9" r="13"/>
</g>
<g>
	
		<linearGradient id="SVGID_39_" gradientUnits="userSpaceOnUse" x1="-31.6669" y1="-55.3013" x2="-31.6669" y2="-84.9587" gradientTransform="matrix(-0.8007 0.7299 -0.6742 -0.7396 73.9045 35.8741)">
		<stop  offset="0" style="stop-color:#F2F2F2"/>
		<stop  offset="1" style="stop-color:#FFFFFF"/>
	</linearGradient>
	<path class="st38" d="M134.7,75.5c-5.5-6.1-4.7-15.8,1.9-21.8s16.3-5.9,21.9,0.1s4.7,15.8-1.9,21.8S140.2,81.5,134.7,75.5z"/>
	<linearGradient id="SVGID_40_" gradientUnits="userSpaceOnUse" x1="146.5396" y1="77.6208" x2="146.5396" y2="51.6374">
		<stop  offset="0" style="stop-color:#FFFFFF"/>
		<stop  offset="0.1958" style="stop-color:#FCFCFC"/>
		<stop  offset="0.3594" style="stop-color:#F1F1F1"/>
		<stop  offset="0.5114" style="stop-color:#E0E0E0"/>
		<stop  offset="0.6563" style="stop-color:#C8C8C8"/>
		<stop  offset="0.7963" style="stop-color:#A8A8A8"/>
		<stop  offset="0.9307" style="stop-color:#828282"/>
		<stop  offset="1" style="stop-color:#6B6B6B"/>
	</linearGradient>
	<circle class="st39" cx="146.5" cy="64.6" r="13"/>
</g>
<g>
	
		<linearGradient id="SVGID_41_" gradientUnits="userSpaceOnUse" x1="-9.453" y1="-81.6857" x2="-9.453" y2="-111.3431" gradientTransform="matrix(-0.8007 0.7299 -0.6742 -0.7396 73.9045 35.8741)">
		<stop  offset="0" style="stop-color:#F2F2F2"/>
		<stop  offset="1" style="stop-color:#FFFFFF"/>
	</linearGradient>
	<path class="st40" d="M134.7,111.2c-5.5-6.1-4.7-15.8,1.9-21.8s16.3-5.9,21.9,0.1c5.5,6.1,4.7,15.8-1.9,21.8
		S140.2,117.2,134.7,111.2z"/>
	<linearGradient id="SVGID_42_" gradientUnits="userSpaceOnUse" x1="146.5396" y1="113.348" x2="146.5396" y2="87.3646">
		<stop  offset="0" style="stop-color:#FFFFFF"/>
		<stop  offset="0.1958" style="stop-color:#FCFCFC"/>
		<stop  offset="0.3594" style="stop-color:#F1F1F1"/>
		<stop  offset="0.5114" style="stop-color:#E0E0E0"/>
		<stop  offset="0.6563" style="stop-color:#C8C8C8"/>
		<stop  offset="0.7963" style="stop-color:#A8A8A8"/>
		<stop  offset="0.9307" style="stop-color:#828282"/>
		<stop  offset="1" style="stop-color:#6B6B6B"/>
	</linearGradient>
	<circle class="st41" cx="146.5" cy="100.4" r="13"/>
</g>
<g>
	
		<linearGradient id="SVGID_43_" gradientUnits="userSpaceOnUse" x1="12.7608" y1="-108.0701" x2="12.7608" y2="-137.7275" gradientTransform="matrix(-0.8007 0.7299 -0.6742 -0.7396 73.9045 35.8741)">
		<stop  offset="0" style="stop-color:#F2F2F2"/>
		<stop  offset="1" style="stop-color:#FFFFFF"/>
	</linearGradient>
	<path class="st42" d="M134.7,146.9c-5.5-6.1-4.7-15.8,1.9-21.8c6.6-6,16.3-5.9,21.9,0.1s4.7,15.8-1.9,21.8S140.2,153,134.7,146.9z"
		/>
	<linearGradient id="SVGID_44_" gradientUnits="userSpaceOnUse" x1="146.5396" y1="149.0751" x2="146.5396" y2="123.0917">
		<stop  offset="0" style="stop-color:#FFFFFF"/>
		<stop  offset="0.1958" style="stop-color:#FCFCFC"/>
		<stop  offset="0.3594" style="stop-color:#F1F1F1"/>
		<stop  offset="0.5114" style="stop-color:#E0E0E0"/>
		<stop  offset="0.6563" style="stop-color:#C8C8C8"/>
		<stop  offset="0.7963" style="stop-color:#A8A8A8"/>
		<stop  offset="0.9307" style="stop-color:#828282"/>
		<stop  offset="1" style="stop-color:#6B6B6B"/>
	</linearGradient>
	<circle class="st43" cx="146.5" cy="136.1" r="13"/>
</g>
<g>
	
		<linearGradient id="SVGID_45_" gradientUnits="userSpaceOnUse" x1="34.9747" y1="-134.4545" x2="34.9747" y2="-164.1119" gradientTransform="matrix(-0.8007 0.7299 -0.6742 -0.7396 73.9045 35.8741)">
		<stop  offset="0" style="stop-color:#F2F2F2"/>
		<stop  offset="1" style="stop-color:#FFFFFF"/>
	</linearGradient>
	<path class="st44" d="M134.7,182.6c-5.5-6.1-4.7-15.8,1.9-21.8s16.3-5.9,21.9,0.1c5.5,6.1,4.7,15.8-1.9,21.8
		S140.2,188.7,134.7,182.6z"/>
	<linearGradient id="SVGID_46_" gradientUnits="userSpaceOnUse" x1="146.5396" y1="184.8023" x2="146.5396" y2="158.8189">
		<stop  offset="0" style="stop-color:#FFFFFF"/>
		<stop  offset="0.1958" style="stop-color:#FCFCFC"/>
		<stop  offset="0.3594" style="stop-color:#F1F1F1"/>
		<stop  offset="0.5114" style="stop-color:#E0E0E0"/>
		<stop  offset="0.6563" style="stop-color:#C8C8C8"/>
		<stop  offset="0.7963" style="stop-color:#A8A8A8"/>
		<stop  offset="0.9307" style="stop-color:#828282"/>
		<stop  offset="1" style="stop-color:#6B6B6B"/>
	</linearGradient>
	<circle class="st45" cx="146.5" cy="171.8" r="13"/>
</g>
<g>
	
		<linearGradient id="SVGID_47_" gradientUnits="userSpaceOnUse" x1="-63.5373" y1="-61.4173" x2="-63.5373" y2="-91.0748" gradientTransform="matrix(-0.8007 0.7299 -0.6742 -0.7396 73.9045 35.8741)">
		<stop  offset="0" style="stop-color:#F2F2F2"/>
		<stop  offset="1" style="stop-color:#FFFFFF"/>
	</linearGradient>
	<path class="st46" d="M164.3,56.7c-5.5-6.1-4.7-15.8,1.9-21.8c6.6-6,16.3-5.9,21.9,0.1s4.7,15.8-1.9,21.8
		C179.6,62.8,169.8,62.8,164.3,56.7z"/>
	<linearGradient id="SVGID_48_" gradientUnits="userSpaceOnUse" x1="176.1822" y1="58.8828" x2="176.1822" y2="32.8994">
		<stop  offset="0" style="stop-color:#FFFFFF"/>
		<stop  offset="0.1958" style="stop-color:#FCFCFC"/>
		<stop  offset="0.3594" style="stop-color:#F1F1F1"/>
		<stop  offset="0.5114" style="stop-color:#E0E0E0"/>
		<stop  offset="0.6563" style="stop-color:#C8C8C8"/>
		<stop  offset="0.7963" style="stop-color:#A8A8A8"/>
		<stop  offset="0.9307" style="stop-color:#828282"/>
		<stop  offset="1" style="stop-color:#6B6B6B"/>
	</linearGradient>
	<circle class="st47" cx="176.2" cy="45.9" r="13"/>
</g>
<g>
	
		<linearGradient id="SVGID_49_" gradientUnits="userSpaceOnUse" x1="-41.3234" y1="-87.8017" x2="-41.3234" y2="-117.4592" gradientTransform="matrix(-0.8007 0.7299 -0.6742 -0.7396 73.9045 35.8741)">
		<stop  offset="0" style="stop-color:#F2F2F2"/>
		<stop  offset="1" style="stop-color:#FFFFFF"/>
	</linearGradient>
	<path class="st48" d="M164.3,92.4c-5.5-6.1-4.7-15.8,1.9-21.8c6.6-6,16.3-5.9,21.9,0.1c5.5,6.1,4.7,15.8-1.9,21.8
		C179.6,98.6,169.8,98.5,164.3,92.4z"/>
	<linearGradient id="SVGID_50_" gradientUnits="userSpaceOnUse" x1="176.1822" y1="94.6099" x2="176.1822" y2="68.6265">
		<stop  offset="0" style="stop-color:#FFFFFF"/>
		<stop  offset="0.1958" style="stop-color:#FCFCFC"/>
		<stop  offset="0.3594" style="stop-color:#F1F1F1"/>
		<stop  offset="0.5114" style="stop-color:#E0E0E0"/>
		<stop  offset="0.6563" style="stop-color:#C8C8C8"/>
		<stop  offset="0.7963" style="stop-color:#A8A8A8"/>
		<stop  offset="0.9307" style="stop-color:#828282"/>
		<stop  offset="1" style="stop-color:#6B6B6B"/>
	</linearGradient>
	<circle class="st49" cx="176.2" cy="81.6" r="13"/>
</g>
<g>
	
		<linearGradient id="SVGID_51_" gradientUnits="userSpaceOnUse" x1="-19.1096" y1="-114.1861" x2="-19.1096" y2="-143.8436" gradientTransform="matrix(-0.8007 0.7299 -0.6742 -0.7396 73.9045 35.8741)">
		<stop  offset="0" style="stop-color:#F2F2F2"/>
		<stop  offset="1" style="stop-color:#FFFFFF"/>
	</linearGradient>
	<path class="st50" d="M164.3,128.2c-5.5-6.1-4.7-15.8,1.9-21.8c6.6-6,16.3-5.9,21.9,0.1c5.5,6.1,4.7,15.8-1.9,21.8
		C179.6,134.3,169.8,134.2,164.3,128.2z"/>
	<linearGradient id="SVGID_52_" gradientUnits="userSpaceOnUse" x1="176.1822" y1="130.3371" x2="176.1822" y2="104.3537">
		<stop  offset="0" style="stop-color:#FFFFFF"/>
		<stop  offset="0.1958" style="stop-color:#FCFCFC"/>
		<stop  offset="0.3594" style="stop-color:#F1F1F1"/>
		<stop  offset="0.5114" style="stop-color:#E0E0E0"/>
		<stop  offset="0.6563" style="stop-color:#C8C8C8"/>
		<stop  offset="0.7963" style="stop-color:#A8A8A8"/>
		<stop  offset="0.9307" style="stop-color:#828282"/>
		<stop  offset="1" style="stop-color:#6B6B6B"/>
	</linearGradient>
	<circle class="st51" cx="176.2" cy="117.3" r="13"/>
</g>
<g>
	
		<linearGradient id="SVGID_53_" gradientUnits="userSpaceOnUse" x1="3.1043" y1="-140.5705" x2="3.1043" y2="-170.228" gradientTransform="matrix(-0.8007 0.7299 -0.6742 -0.7396 73.9045 35.8741)">
		<stop  offset="0" style="stop-color:#F2F2F2"/>
		<stop  offset="1" style="stop-color:#FFFFFF"/>
	</linearGradient>
	<path class="st52" d="M164.3,163.9c-5.5-6.1-4.7-15.8,1.9-21.8c6.6-6,16.3-5.9,21.9,0.1s4.7,15.8-1.9,21.8
		C179.6,170,169.8,170,164.3,163.9z"/>
	<linearGradient id="SVGID_54_" gradientUnits="userSpaceOnUse" x1="176.1822" y1="166.0643" x2="176.1822" y2="140.0809">
		<stop  offset="0" style="stop-color:#FFFFFF"/>
		<stop  offset="0.1958" style="stop-color:#FCFCFC"/>
		<stop  offset="0.3594" style="stop-color:#F1F1F1"/>
		<stop  offset="0.5114" style="stop-color:#E0E0E0"/>
		<stop  offset="0.6563" style="stop-color:#C8C8C8"/>
		<stop  offset="0.7963" style="stop-color:#A8A8A8"/>
		<stop  offset="0.9307" style="stop-color:#828282"/>
		<stop  offset="1" style="stop-color:#6B6B6B"/>
	</linearGradient>
	<circle class="st53" cx="176.2" cy="153.1" r="13"/>
</g>
</svg>
