<?xml version="1.0" encoding="utf-8"?>
<!-- Generator: Adobe Illustrator 23.0.1, SVG Export Plug-In . SVG Version: 6.00 Build 0)  -->
<svg version="1.1" id="Layer_1" xmlns="http://www.w3.org/2000/svg" xmlns:xlink="http://www.w3.org/1999/xlink" x="0px" y="0px"
	 viewBox="0 0 200 200" style="enable-background:new 0 0 200 200;" xml:space="preserve">
<style type="text/css">
	.st0{fill:#CCCCCC;}
	.st1{fill:#FF6300;}
</style>
<g>
	<path class="st0" d="M14.1,39.7c-5.5-6-4.7-15.8,1.9-21.8S32.3,12,37.9,18s4.7,15.8-1.9,21.8S19.6,45.8,14.1,39.7z"/>
	<circle class="st0" cx="26" cy="28.9" r="13"/>
</g>
<g>
	<path class="st0" d="M14.1,75.5C8.6,69.4,9.4,59.6,16,53.7s16.3-5.9,21.9,0.1s4.7,15.8-1.9,21.8S19.6,81.5,14.1,75.5z"/>
	<circle class="st0" cx="26" cy="64.6" r="13"/>
</g>
<g>
	<path class="st0" d="M14.1,111.2c-5.5-6.1-4.7-15.8,1.9-21.8s16.3-5.9,21.9,0.1c5.5,6.1,4.7,15.8-1.9,21.8S19.6,117.2,14.1,111.2z"
		/>
	<circle class="st0" cx="26" cy="100.4" r="13"/>
</g>
<g>
	<path class="st0" d="M14.1,146.9c-5.5-6.1-4.7-15.8,1.9-21.8s16.3-5.9,21.9,0.1c5.6,6,4.7,15.8-1.9,21.8S19.6,153,14.1,146.9z"/>
	<circle class="st0" cx="26" cy="136.1" r="13"/>
</g>
<g>
	<path class="st0" d="M14.1,182.6c-5.5-6.1-4.7-15.8,1.9-21.8s16.3-5.9,21.9,0.1c5.5,6.1,4.7,15.8-1.9,21.8S19.6,188.7,14.1,182.6z"
		/>
	<circle class="st0" cx="26" cy="171.8" r="13"/>
</g>
<g>
	<path class="st0" d="M43.8,56.7c-5.5-6.1-4.7-15.8,1.9-21.8S62,29,67.5,35.1s4.7,15.8-1.9,21.8C59.1,62.8,49.3,62.8,43.8,56.7z"/>
	<circle class="st0" cx="55.6" cy="45.9" r="13"/>
</g>
<g>
	<path class="st0" d="M43.8,92.4c-5.5-6.1-4.7-15.8,1.9-21.8s16.3-5.9,21.9,0.1c5.5,6.1,4.7,15.8-1.9,21.8
		C59.1,98.6,49.3,98.5,43.8,92.4z"/>
	<circle class="st0" cx="55.6" cy="81.6" r="13"/>
</g>
<g>
	<path class="st0" d="M43.8,128.2c-5.5-6.1-4.7-15.8,1.9-21.8s16.3-5.9,21.9,0.1c5.5,6.1,4.7,15.8-1.9,21.8
		C59.1,134.3,49.3,134.2,43.8,128.2z"/>
	<circle class="st0" cx="55.6" cy="117.3" r="13"/>
</g>
<g>
	<path class="st0" d="M43.8,163.9c-5.5-6.1-4.7-15.8,1.9-21.8s16.3-5.9,21.9,0.1s4.7,15.8-1.9,21.8S49.3,170,43.8,163.9z"/>
	<circle class="st0" cx="55.6" cy="153.1" r="13"/>
</g>
<g>
	<path class="st0" d="M73.6,39.7c-5.5-6.1-4.7-15.8,1.9-21.8S91.8,12,97.4,18c5.5,6.1,4.7,15.8-1.9,21.8
		C89,45.8,79.2,45.8,73.6,39.7z"/>
	<circle class="st0" cx="85.5" cy="28.9" r="13"/>
</g>
<g>
	<path class="st0" d="M73.6,75.5c-5.5-6.1-4.7-15.8,1.9-21.8s16.3-5.9,21.9,0.1c5.5,6.1,4.7,15.8-1.9,21.8
		C89,81.6,79.2,81.5,73.6,75.5z"/>
	<circle class="st0" cx="85.5" cy="64.6" r="13"/>
</g>
<g>
	<path class="st0" d="M73.6,111.2c-5.5-6.1-4.7-15.8,1.9-21.8s16.3-5.9,21.9,0.1c5.5,6.1,4.7,15.8-1.9,21.8
		C89,117.3,79.2,117.2,73.6,111.2z"/>
	<circle class="st0" cx="85.5" cy="100.4" r="13"/>
</g>
<g>
	<path class="st0" d="M73.6,146.9c-5.5-6.1-4.7-15.8,1.9-21.8s16.3-5.9,21.9,0.1c5.5,6.1,4.7,15.8-1.9,21.8
		C89,153,79.2,153,73.6,146.9z"/>
	<circle class="st0" cx="85.5" cy="136.1" r="13"/>
</g>
<g>
	<path class="st0" d="M73.6,182.6c-5.5-6.1-4.7-15.8,1.9-21.8s16.3-5.9,21.9,0.1c5.5,6.1,4.7,15.8-1.9,21.8
		C89,188.8,79.2,188.7,73.6,182.6z"/>
	<circle class="st0" cx="85.5" cy="171.8" r="13"/>
</g>
<g>
	<path class="st0" d="M103.3,56.7c-5.5-6.1-4.7-15.8,1.9-21.8s16.3-5.9,21.9,0.1c5.5,6.1,4.7,15.8-1.9,21.8S108.8,62.8,103.3,56.7z"
		/>
	<circle class="st0" cx="115.2" cy="45.9" r="13"/>
</g>
<g>
	<path class="st0" d="M103.3,92.4c-5.5-6.1-4.7-15.8,1.9-21.8c6.6-6,16.3-5.9,21.9,0.1c5.5,6.1,4.7,15.8-1.9,21.8
		S108.8,98.5,103.3,92.4z"/>
	<circle class="st0" cx="115.2" cy="81.6" r="13"/>
</g>
<g>
	<path class="st0" d="M103.3,128.2c-5.5-6.1-4.7-15.8,1.9-21.8s16.3-5.9,21.9,0.1c5.5,6.1,4.7,15.8-1.9,21.8
		C118.6,134.3,108.8,134.2,103.3,128.2z"/>
	<circle class="st0" cx="115.2" cy="117.3" r="13"/>
</g>
<g>
	<path class="st0" d="M103.3,163.9c-5.5-6.1-4.7-15.8,1.9-21.8s16.3-5.9,21.9,0.1c5.5,6.1,4.7,15.8-1.9,21.8S108.8,170,103.3,163.9z
		"/>
	<circle class="st0" cx="115.2" cy="153.1" r="13"/>
</g>
<g>
	<path class="st0" d="M134.7,39.7c-5.5-6.1-4.7-15.8,1.9-21.8s16.3-5.9,21.9,0.1s4.7,15.8-1.9,21.8S140.2,45.8,134.7,39.7z"/>
	<circle class="st0" cx="146.5" cy="28.9" r="13"/>
</g>
<g>
	<path class="st0" d="M134.7,75.5c-5.5-6.1-4.7-15.8,1.9-21.8s16.3-5.9,21.9,0.1s4.7,15.8-1.9,21.8S140.2,81.5,134.7,75.5z"/>
	<circle class="st0" cx="146.5" cy="64.6" r="13"/>
</g>
<g>
	<path class="st0" d="M134.7,111.2c-5.5-6.1-4.7-15.8,1.9-21.8s16.3-5.9,21.9,0.1c5.5,6.1,4.7,15.8-1.9,21.8
		S140.2,117.2,134.7,111.2z"/>
	<circle class="st0" cx="146.5" cy="100.4" r="13"/>
</g>
<g>
	<path class="st0" d="M134.7,146.9c-5.5-6.1-4.7-15.8,1.9-21.8c6.6-6,16.3-5.9,21.9,0.1c5.6,6,4.7,15.8-1.9,21.8
		S140.2,153,134.7,146.9z"/>
	<circle class="st0" cx="146.5" cy="136.1" r="13"/>
</g>
<g>
	<path class="st0" d="M134.7,182.6c-5.5-6.1-4.7-15.8,1.9-21.8s16.3-5.9,21.9,0.1c5.5,6.1,4.7,15.8-1.9,21.8
		S140.2,188.7,134.7,182.6z"/>
	<circle class="st0" cx="146.5" cy="171.8" r="13"/>
</g>
<g>
	<path class="st0" d="M164.3,56.7c-5.5-6.1-4.7-15.8,1.9-21.8c6.6-6,16.3-5.9,21.9,0.1s4.7,15.8-1.9,21.8S169.8,62.8,164.3,56.7z"/>
	<circle class="st0" cx="176.2" cy="45.9" r="13"/>
</g>
<g>
	<path class="st0" d="M164.3,92.4c-5.5-6.1-4.7-15.8,1.9-21.8c6.6-6,16.3-5.9,21.9,0.1c5.5,6.1,4.7,15.8-1.9,21.8
		C179.6,98.6,169.8,98.5,164.3,92.4z"/>
	<circle class="st0" cx="176.2" cy="81.6" r="13"/>
</g>
<g>
	<path class="st0" d="M164.3,128.2c-5.5-6.1-4.7-15.8,1.9-21.8c6.6-6,16.3-5.9,21.9,0.1c5.5,6.1,4.7,15.8-1.9,21.8
		C179.6,134.3,169.8,134.2,164.3,128.2z"/>
	<circle class="st0" cx="176.2" cy="117.3" r="13"/>
</g>
<g>
	<path class="st0" d="M164.3,163.9c-5.5-6.1-4.7-15.8,1.9-21.8c6.6-6,16.3-5.9,21.9,0.1s4.7,15.8-1.9,21.8S169.8,170,164.3,163.9z"
		/>
	<circle class="st0" cx="176.2" cy="153.1" r="13"/>
</g>
<path class="st1" d="M187.1,136.8l-68.4-34.9L187,66.8c4.2-2.1,5.8-7.3,3.7-11.4c-2.1-4.2-7.3-5.8-11.4-3.7L100,92.4L20.6,51.9
	c-4.2-2.1-9.3-0.5-11.4,3.7S8.7,64.9,12.9,67l68.4,34.9L13,137c-4.2,2.1-5.8,7.3-3.7,11.4c1.5,3,4.6,4.7,7.8,4.6
	c1.2,0,2.5-0.3,3.7-0.9l79.3-40.7l79.3,40.5c1.3,0.7,2.7,1,4.1,0.9c3-0.1,5.9-1.8,7.4-4.6C192.9,144.1,191.3,139,187.1,136.8z"/>
</svg>
