<?xml version="1.0" encoding="utf-8"?>
<!-- Generator: Adobe Illustrator 23.0.1, SVG Export Plug-In . SVG Version: 6.00 Build 0)  -->
<svg version="1.1" id="Layer_1" xmlns="http://www.w3.org/2000/svg" xmlns:xlink="http://www.w3.org/1999/xlink" x="0px" y="0px"
	 viewBox="0 0 500 200" style="enable-background:new 0 0 500 200;" xml:space="preserve">
<style type="text/css">
	.st0{fill:#CCCCCC;}
	.st1{fill:#FF6300;}
</style>
<g>
	<path class="st0" d="M288.7,26.4v30.3c1,0,1.9,0,2.8,0V144l0,0l0,0v6.3h-41.9c-89.4,0-161.9,0-161.9,0l4.3-26.7H76.9V26.4H288.7z"
		/>
	<path class="st0" d="M330.7,51.5c0,0-13.6-12.4-38.5-23.6v23.6H330.7z"/>
	<path class="st0" d="M294.1,56.7c15.7,0,27.8,0,32.3,0c17.9,0,48.3,44.2,48.3,44.2s19.6,3.3,32.4,11s7.7,38.4,7.7,38.4H395
		c0-12.7-10.3-23.1-23.1-23.1c-12.7,0-23.1,10.3-23.1,23.1H294V144h0.1V56.7L294.1,56.7z"/>
	<rect x="396.8" y="116.1" class="st0" width="10.6" height="6.7"/>
	<path class="st0" d="M300.2,96.9h63.6c0,0-22.9-34-35.6-34s-28,0-28,0V96.9L300.2,96.9z"/>
	<rect x="294" y="152.2" class="st0" width="53.4" height="6.7"/>
	<rect x="88.8" y="152.2" class="st0" width="202.7" height="6.7"/>
	<rect x="76.9" y="119.9" class="st0" width="214.6" height="4.2"/>
	<g>
		<path class="st0" d="M147.1,129.7c16.1,0,29.1,13,29.1,29.1s-13,29.1-29.1,29.1s-29.1-13-29.1-29.1
			C118,142.7,131.1,129.7,147.1,129.7z"/>
		<path class="st0" d="M147.1,171.6c7.1,0,12.8-5.7,12.8-12.8c0-7-5.7-12.7-12.8-12.7c-7,0-12.8,5.7-12.8,12.7
			C134.4,165.8,140.1,171.6,147.1,171.6z"/>
	</g>
	<g>
		<path class="st0" d="M366.5,126.4c16.1,0,29.1,13,29.1,29.1s-13,29.1-29.1,29.1s-29.1-13-29.1-29.1
			C337.4,139.5,350.4,126.4,366.5,126.4z"/>
		<path class="st0" d="M366.5,168.3c7,0,12.8-5.7,12.8-12.8c0-7-5.7-12.7-12.8-12.7c-7,0-12.8,5.7-12.8,12.7
			C353.7,162.6,359.5,168.3,366.5,168.3z"/>
	</g>
</g>
<path class="st1" d="M272.1,120.5l-68.4-34.9L272,50.4c4.2-2.1,5.8-7.3,3.7-11.4c-2.1-4.2-7.3-5.8-11.4-3.7L185,76l-79.3-40.5
	c-4.2-2.1-9.3-0.5-11.4,3.7c-2.1,4.2-0.5,9.3,3.7,11.4l68.4,34.9L98,120.7c-4.2,2.1-5.8,7.3-3.7,11.4c1.5,3,4.6,4.7,7.8,4.6
	c1.2,0,2.5-0.3,3.7-0.9l79.3-40.7l79.3,40.5c1.3,0.7,2.7,1,4.1,0.9c3-0.1,5.9-1.8,7.4-4.6C277.9,127.7,276.3,122.6,272.1,120.5z"/>
</svg>
