<?xml version="1.0" encoding="utf-8"?>
<!-- Generator: Adobe Illustrator 23.0.1, SVG Export Plug-In . SVG Version: 6.00 Build 0)  -->
<svg version="1.1" id="Layer_1" xmlns="http://www.w3.org/2000/svg" xmlns:xlink="http://www.w3.org/1999/xlink" x="0px" y="0px"
	 viewBox="0 0 500 200" style="enable-background:new 0 0 500 200;" xml:space="preserve">
<style type="text/css">
	.st0{fill:url(#SVGID_1_);}
	.st1{fill:url(#SVGID_2_);}
	.st2{fill:url(#SVGID_3_);}
	.st3{fill:url(#SVGID_4_);}
	.st4{fill:url(#SVGID_5_);}
	.st5{fill:url(#SVGID_6_);}
	.st6{fill:url(#SVGID_7_);}
	.st7{fill:url(#SVGID_8_);}
	.st8{fill:none;stroke:#000000;stroke-width:3.5091;stroke-miterlimit:10;}
	.st9{fill:url(#SVGID_9_);}
	.st10{fill:url(#SVGID_10_);}
	.st11{fill:url(#SVGID_11_);}
	.st12{fill:url(#SVGID_12_);}
	.st13{fill:url(#SVGID_13_);}
	.st14{fill:url(#SVGID_14_);}
	.st15{fill:url(#SVGID_15_);}
	.st16{fill:url(#SVGID_16_);}
</style>
<g>
	<g>
		
			<radialGradient id="SVGID_1_" cx="-190.6093" cy="88.319" r="98.5358" gradientTransform="matrix(-1 0 0 1 2.4364 0)" gradientUnits="userSpaceOnUse">
			<stop  offset="0" style="stop-color:#FFBF00"/>
			<stop  offset="0.4299" style="stop-color:#FFBD00"/>
			<stop  offset="0.6621" style="stop-color:#FFB500"/>
			<stop  offset="0.8469" style="stop-color:#FFA700"/>
			<stop  offset="0.8587" style="stop-color:#FFA600"/>
			<stop  offset="0.9837" style="stop-color:#FFA100"/>
		</radialGradient>
		<path class="st0" d="M315.1,26.4v30.3c1,0,1.9,0,2.8,0V144h0l0,0v6.3h-77c-89.4,0-161.9,0-161.9,0l4.3-26.7H68.2V26.4L315.1,26.4z
			"/>
		
			<linearGradient id="SVGID_2_" gradientUnits="userSpaceOnUse" x1="-354.6939" y1="39.6907" x2="-316.2392" y2="39.6907" gradientTransform="matrix(-1 0 0 1 2.4364 0)">
			<stop  offset="5.434780e-03" style="stop-color:#8C8C8C"/>
			<stop  offset="8.086290e-02" style="stop-color:#707070"/>
			<stop  offset="0.1893" style="stop-color:#4F4F4F"/>
			<stop  offset="0.3064" style="stop-color:#343434"/>
			<stop  offset="0.4331" style="stop-color:#1F1F1F"/>
			<stop  offset="0.5743" style="stop-color:#101010"/>
			<stop  offset="0.7414" style="stop-color:#080808"/>
			<stop  offset="1" style="stop-color:#050505"/>
		</linearGradient>
		<path class="st1" d="M357.1,51.5c0,0-13.6-12.4-38.5-23.6v23.6H357.1z"/>
		
			<linearGradient id="SVGID_3_" gradientUnits="userSpaceOnUse" x1="-439.8296" y1="103.4503" x2="-318.0076" y2="103.4503" gradientTransform="matrix(-1 0 0 1 2.4364 0)">
			<stop  offset="1.522840e-02" style="stop-color:#4D4D4D"/>
			<stop  offset="0.5178" style="stop-color:#858585"/>
			<stop  offset="0.6406" style="stop-color:#7D7D7D"/>
			<stop  offset="0.8358" style="stop-color:#656565"/>
			<stop  offset="1" style="stop-color:#4D4D4D"/>
		</linearGradient>
		<path class="st2" d="M320.5,56.7c15.7,0,27.8,0,32.3,0c17.9,0,48.3,44.2,48.3,44.2s19.6,3.3,32.4,11c12.8,7.7,7.7,38.4,7.7,38.4
			h-19.9c0-12.7-10.3-23.1-23.1-23.1c-12.7,0-23.1,10.3-23.1,23.1h-54.8V144h0.1V56.7L320.5,56.7z"/>
		<rect x="423.3" y="116.1" width="10.6" height="6.7"/>
		
			<linearGradient id="SVGID_4_" gradientUnits="userSpaceOnUse" x1="-387.7873" y1="79.9025" x2="-324.1709" y2="79.9025" gradientTransform="matrix(-1 0 0 1 2.4364 0)">
			<stop  offset="0" style="stop-color:#FFFFFF"/>
			<stop  offset="8.653516e-02" style="stop-color:#FBFBFC"/>
			<stop  offset="0.6312" style="stop-color:#E7E7EA"/>
			<stop  offset="1" style="stop-color:#E0E0E3"/>
		</linearGradient>
		<path class="st3" d="M326.6,96.9h63.6c0,0-22.9-34-35.6-34c-12.7,0-28,0-28,0L326.6,96.9L326.6,96.9z"/>
		<rect x="320.4" y="152.2" width="53.4" height="6.7"/>
		<rect x="80.1" y="152.2" width="237.8" height="6.7"/>
		<rect x="68.2" y="119.9" width="249.7" height="4.2"/>
		<g>
			
				<linearGradient id="SVGID_5_" gradientUnits="userSpaceOnUse" x1="-165.1262" y1="158.8037" x2="-106.9018" y2="158.8037" gradientTransform="matrix(-1 0 0 1 2.4364 0)">
				<stop  offset="5.434780e-03" style="stop-color:#8C8C8C"/>
				<stop  offset="8.086290e-02" style="stop-color:#707070"/>
				<stop  offset="0.1893" style="stop-color:#4F4F4F"/>
				<stop  offset="0.3064" style="stop-color:#343434"/>
				<stop  offset="0.4331" style="stop-color:#1F1F1F"/>
				<stop  offset="0.5743" style="stop-color:#101010"/>
				<stop  offset="0.7414" style="stop-color:#080808"/>
				<stop  offset="1" style="stop-color:#050505"/>
			</linearGradient>
			<path class="st4" d="M138.4,129.7c16.1,0,29.1,13,29.1,29.1c0,16.1-13,29.1-29.1,29.1c-16.1,0-29.1-13-29.1-29.1
				C109.3,142.7,122.4,129.7,138.4,129.7z"/>
			
				<linearGradient id="SVGID_6_" gradientUnits="userSpaceOnUse" x1="-148.7664" y1="158.8354" x2="-123.2377" y2="158.8354" gradientTransform="matrix(-1 0 0 1 2.4364 0)">
				<stop  offset="0" style="stop-color:#FFFFFF"/>
				<stop  offset="7.404575e-02" style="stop-color:#ECECEF"/>
				<stop  offset="0.1757" style="stop-color:#D8D8DF"/>
				<stop  offset="0.2446" style="stop-color:#D1D1D9"/>
				<stop  offset="0.5537" style="stop-color:#E1E1E6"/>
				<stop  offset="1" style="stop-color:#F5F5F5"/>
			</linearGradient>
			<path class="st5" d="M138.4,171.6c7.1,0,12.8-5.7,12.8-12.8c0-7-5.7-12.7-12.8-12.7c-7,0-12.8,5.7-12.8,12.7
				C125.7,165.8,131.4,171.6,138.4,171.6z"/>
		</g>
		<g>
			
				<linearGradient id="SVGID_7_" gradientUnits="userSpaceOnUse" x1="-419.5801" y1="155.5217" x2="-361.373" y2="155.5217" gradientTransform="matrix(-1 0 0 1 2.4364 0)">
				<stop  offset="5.434780e-03" style="stop-color:#8C8C8C"/>
				<stop  offset="8.086290e-02" style="stop-color:#707070"/>
				<stop  offset="0.1893" style="stop-color:#4F4F4F"/>
				<stop  offset="0.3064" style="stop-color:#343434"/>
				<stop  offset="0.4331" style="stop-color:#1F1F1F"/>
				<stop  offset="0.5743" style="stop-color:#101010"/>
				<stop  offset="0.7414" style="stop-color:#080808"/>
				<stop  offset="1" style="stop-color:#050505"/>
			</linearGradient>
			<path class="st6" d="M392.9,126.4c16.1,0,29.1,13,29.1,29.1c0,16.1-13,29.1-29.1,29.1c-16.1,0-29.1-13-29.1-29.1
				C363.8,139.5,376.9,126.4,392.9,126.4z"/>
			
				<linearGradient id="SVGID_8_" gradientUnits="userSpaceOnUse" x1="-403.239" y1="155.5551" x2="-377.7209" y2="155.5551" gradientTransform="matrix(-1 0 0 1 2.4364 0)">
				<stop  offset="0" style="stop-color:#FFFFFF"/>
				<stop  offset="7.404575e-02" style="stop-color:#ECECEF"/>
				<stop  offset="0.1757" style="stop-color:#D8D8DF"/>
				<stop  offset="0.2446" style="stop-color:#D1D1D9"/>
				<stop  offset="0.5537" style="stop-color:#E1E1E6"/>
				<stop  offset="1" style="stop-color:#F5F5F5"/>
			</linearGradient>
			<path class="st7" d="M392.9,168.3c7,0,12.8-5.7,12.8-12.8c0-7-5.7-12.7-12.8-12.7c-7,0-12.8,5.7-12.8,12.7
				C380.2,162.6,385.9,168.3,392.9,168.3z"/>
		</g>
	</g>
	<g>
		<path d="M172.5,103.6V87.9h-26.8v-5.2l25.8-36.9h8.4v35.9h8.1v6.1h-8.1v15.7H172.5z M172.5,81.8V62.5c0-3,0.1-6,0.3-9.1h-0.3
			c-1.8,3.4-3.2,5.9-4.8,8.5l-14.1,19.6v0.2H172.5z"/>
		<path d="M196.8,60.6h9.6l7.8,21.7c1.1,3.2,2.9,8.4,3.9,11.8h0.2c1-3.2,3.4-10,5.1-14.8l6.9-18.7h9.7l3,43h-7.5l-1-20.5
			c-0.3-4.6-0.6-10.1-0.8-15.4h-0.3c-1.2,3.9-2.3,7.4-4.7,14l-8.3,21.7h-5.7l-7.6-21.2c-1.3-4.1-3.2-10.3-4.3-14.3h-0.4
			c-0.2,5.1-0.4,10.8-0.7,15.5l-1.1,20.3h-7.2L196.8,60.6z"/>
	</g>
	<g>
		<line class="st8" x1="74.8" y1="78.5" x2="132.2" y2="78.5"/>
		<g>
			<polygon points="86.4,92.9 88.8,90.3 76.1,78.5 88.8,66.7 86.4,64.2 71,78.5 			"/>
		</g>
	</g>
	<g>
		<line class="st8" x1="313" y1="78.5" x2="255.6" y2="78.5"/>
		<g>
			<polygon points="301.4,64.2 299,66.7 311.7,78.5 299,90.3 301.4,92.9 316.8,78.5 			"/>
		</g>
	</g>
</g>
<g>
	<g>
		
			<radialGradient id="SVGID_9_" cx="242.154" cy="88.319" r="87.5959" gradientTransform="matrix(-1 0 0 1 2.4364 0)" gradientUnits="userSpaceOnUse">
			<stop  offset="0" style="stop-color:#FFBF00"/>
			<stop  offset="0.4299" style="stop-color:#FFBD00"/>
			<stop  offset="0.6621" style="stop-color:#FFB500"/>
			<stop  offset="0.8469" style="stop-color:#FFA700"/>
			<stop  offset="0.8587" style="stop-color:#FFA600"/>
			<stop  offset="0.9837" style="stop-color:#FFA100"/>
		</radialGradient>
		<path class="st9" d="M-135.2,26.4v30.3c1,0,1.9,0,2.8,0V144h0l0,0v6.3h-41.9c-89.4,0-161.9,0-161.9,0l4.3-26.7H-347V26.4
			L-135.2,26.4z"/>
		
			<linearGradient id="SVGID_10_" gradientUnits="userSpaceOnUse" x1="95.6149" y1="39.6907" x2="134.0696" y2="39.6907" gradientTransform="matrix(-1 0 0 1 2.4364 0)">
			<stop  offset="5.434780e-03" style="stop-color:#8C8C8C"/>
			<stop  offset="8.086290e-02" style="stop-color:#707070"/>
			<stop  offset="0.1893" style="stop-color:#4F4F4F"/>
			<stop  offset="0.3064" style="stop-color:#343434"/>
			<stop  offset="0.4331" style="stop-color:#1F1F1F"/>
			<stop  offset="0.5743" style="stop-color:#101010"/>
			<stop  offset="0.7414" style="stop-color:#080808"/>
			<stop  offset="1" style="stop-color:#050505"/>
		</linearGradient>
		<path class="st10" d="M-93.2,51.5c0,0-13.6-12.4-38.5-23.6v23.6H-93.2z"/>
		
			<linearGradient id="SVGID_11_" gradientUnits="userSpaceOnUse" x1="10.4792" y1="103.4503" x2="132.3012" y2="103.4503" gradientTransform="matrix(-1 0 0 1 2.4364 0)">
			<stop  offset="1.522840e-02" style="stop-color:#4D4D4D"/>
			<stop  offset="0.5178" style="stop-color:#858585"/>
			<stop  offset="0.6406" style="stop-color:#7D7D7D"/>
			<stop  offset="0.8358" style="stop-color:#656565"/>
			<stop  offset="1" style="stop-color:#4D4D4D"/>
		</linearGradient>
		<path class="st11" d="M-129.8,56.7c15.7,0,27.8,0,32.3,0c17.9,0,48.3,44.2,48.3,44.2s19.6,3.3,32.4,11c12.8,7.7,7.7,38.4,7.7,38.4
			h-19.9c0-12.7-10.3-23.1-23.1-23.1c-12.7,0-23.1,10.3-23.1,23.1h-54.8V144h0.1V56.7L-129.8,56.7z"/>
		<rect x="-27.1" y="116.1" width="10.6" height="6.7"/>
		
			<linearGradient id="SVGID_12_" gradientUnits="userSpaceOnUse" x1="62.5215" y1="79.9025" x2="126.138" y2="79.9025" gradientTransform="matrix(-1 0 0 1 2.4364 0)">
			<stop  offset="0" style="stop-color:#FFFFFF"/>
			<stop  offset="8.653516e-02" style="stop-color:#FBFBFC"/>
			<stop  offset="0.6312" style="stop-color:#E7E7EA"/>
			<stop  offset="1" style="stop-color:#E0E0E3"/>
		</linearGradient>
		<path class="st12" d="M-123.7,96.9h63.6c0,0-22.9-34-35.6-34c-12.7,0-28,0-28,0L-123.7,96.9L-123.7,96.9z"/>
		<rect x="-129.9" y="152.2" width="53.4" height="6.7"/>
		<rect x="-335.1" y="152.2" width="202.7" height="6.7"/>
		<rect x="-347" y="119.9" width="214.6" height="4.2"/>
		<g>
			
				<linearGradient id="SVGID_13_" gradientUnits="userSpaceOnUse" x1="250.0914" y1="158.8037" x2="308.3158" y2="158.8037" gradientTransform="matrix(-1 0 0 1 2.4364 0)">
				<stop  offset="5.434780e-03" style="stop-color:#8C8C8C"/>
				<stop  offset="8.086290e-02" style="stop-color:#707070"/>
				<stop  offset="0.1893" style="stop-color:#4F4F4F"/>
				<stop  offset="0.3064" style="stop-color:#343434"/>
				<stop  offset="0.4331" style="stop-color:#1F1F1F"/>
				<stop  offset="0.5743" style="stop-color:#101010"/>
				<stop  offset="0.7414" style="stop-color:#080808"/>
				<stop  offset="1" style="stop-color:#050505"/>
			</linearGradient>
			<path class="st13" d="M-276.8,129.7c16.1,0,29.1,13,29.1,29.1c0,16.1-13,29.1-29.1,29.1c-16.1,0-29.1-13-29.1-29.1
				C-305.9,142.7-292.8,129.7-276.8,129.7z"/>
			
				<linearGradient id="SVGID_14_" gradientUnits="userSpaceOnUse" x1="266.4513" y1="158.8354" x2="291.9799" y2="158.8354" gradientTransform="matrix(-1 0 0 1 2.4364 0)">
				<stop  offset="0" style="stop-color:#FFFFFF"/>
				<stop  offset="7.404575e-02" style="stop-color:#ECECEF"/>
				<stop  offset="0.1757" style="stop-color:#D8D8DF"/>
				<stop  offset="0.2446" style="stop-color:#D1D1D9"/>
				<stop  offset="0.5537" style="stop-color:#E1E1E6"/>
				<stop  offset="1" style="stop-color:#F5F5F5"/>
			</linearGradient>
			<path class="st14" d="M-276.8,171.6c7.1,0,12.8-5.7,12.8-12.8c0-7-5.7-12.7-12.8-12.7c-7,0-12.8,5.7-12.8,12.7
				C-289.5,165.8-283.8,171.6-276.8,171.6z"/>
		</g>
		<g>
			
				<linearGradient id="SVGID_15_" gradientUnits="userSpaceOnUse" x1="30.7287" y1="155.5217" x2="88.9359" y2="155.5217" gradientTransform="matrix(-1 0 0 1 2.4364 0)">
				<stop  offset="5.434780e-03" style="stop-color:#8C8C8C"/>
				<stop  offset="8.086290e-02" style="stop-color:#707070"/>
				<stop  offset="0.1893" style="stop-color:#4F4F4F"/>
				<stop  offset="0.3064" style="stop-color:#343434"/>
				<stop  offset="0.4331" style="stop-color:#1F1F1F"/>
				<stop  offset="0.5743" style="stop-color:#101010"/>
				<stop  offset="0.7414" style="stop-color:#080808"/>
				<stop  offset="1" style="stop-color:#050505"/>
			</linearGradient>
			<path class="st15" d="M-57.4,126.4c16.1,0,29.1,13,29.1,29.1c0,16.1-13,29.1-29.1,29.1c-16.1,0-29.1-13-29.1-29.1
				C-86.5,139.5-73.5,126.4-57.4,126.4z"/>
			
				<linearGradient id="SVGID_16_" gradientUnits="userSpaceOnUse" x1="47.0698" y1="155.5551" x2="72.5879" y2="155.5551" gradientTransform="matrix(-1 0 0 1 2.4364 0)">
				<stop  offset="0" style="stop-color:#FFFFFF"/>
				<stop  offset="7.404575e-02" style="stop-color:#ECECEF"/>
				<stop  offset="0.1757" style="stop-color:#D8D8DF"/>
				<stop  offset="0.2446" style="stop-color:#D1D1D9"/>
				<stop  offset="0.5537" style="stop-color:#E1E1E6"/>
				<stop  offset="1" style="stop-color:#F5F5F5"/>
			</linearGradient>
			<path class="st16" d="M-57.4,168.3c7,0,12.8-5.7,12.8-12.8c0-7-5.7-12.7-12.8-12.7c-7,0-12.8,5.7-12.8,12.7
				C-70.2,162.6-64.4,168.3-57.4,168.3z"/>
		</g>
	</g>
	<g>
		<path d="M-279.1,92.3c2.2,1.4,7.4,3.6,12.8,3.6c10,0,13.2-6.4,13.1-11.2c-0.1-8.1-7.4-11.6-14.9-11.6h-4.4v-5.9h4.4
			c5.7,0,12.9-2.9,12.9-9.8c0-4.6-2.9-8.7-10.1-8.7c-4.6,0-9.1,2-11.6,3.8l-2-5.7c3-2.2,8.9-4.4,15.1-4.4c11.4,0,16.5,6.8,16.5,13.8
			c0,6-3.6,11-10.7,13.6v0.2c7.1,1.4,12.9,6.8,12.9,14.8c0,9.2-7.2,17.3-21.1,17.3c-6.5,0-12.2-2-15-3.9L-279.1,92.3z"/>
		<path d="M-232.4,58.3h9.6L-215,80c1.1,3.2,2.9,8.4,3.9,11.8h0.2c1-3.2,3.4-10,5.1-14.8l6.9-18.7h9.7l3,43h-7.5l-1-20.5
			c-0.3-4.6-0.6-10.1-0.8-15.4h-0.3c-1.2,3.9-2.3,7.4-4.7,14l-8.3,21.7h-5.7l-7.6-21.2c-1.3-4.1-3.2-10.3-4.3-14.3h-0.4
			c-0.2,5.1-0.4,10.8-0.7,15.5l-1.1,20.3h-7.2L-232.4,58.3z"/>
	</g>
	<g>
		<line class="st8" x1="-342.2" y1="76.2" x2="-284.8" y2="76.2"/>
		<g>
			<polygon points="-330.6,90.5 -328.2,88 -340.8,76.2 -328.2,64.4 -330.6,61.8 -346,76.2 			"/>
		</g>
	</g>
	<g>
		<line class="st8" x1="-133.8" y1="76.2" x2="-177.2" y2="76.2"/>
		<g>
			<polygon points="-145.4,61.8 -147.8,64.4 -135.1,76.2 -147.8,88 -145.4,90.5 -130,76.2 			"/>
		</g>
	</g>
</g>
</svg>
