<?xml version="1.0" encoding="utf-8"?>
<!-- Generator: Adobe Illustrator 23.0.1, SVG Export Plug-In . SVG Version: 6.00 Build 0)  -->
<svg version="1.1" id="Layer_1" xmlns="http://www.w3.org/2000/svg" xmlns:xlink="http://www.w3.org/1999/xlink" x="0px" y="0px"
	 viewBox="0 0 500 200" style="enable-background:new 0 0 500 200;" xml:space="preserve">
<style type="text/css">
	.st0{fill:url(#SVGID_1_);}
	.st1{fill:url(#SVGID_2_);}
	.st2{fill:url(#SVGID_3_);}
	.st3{fill:url(#SVGID_4_);}
	.st4{fill:url(#SVGID_5_);}
	.st5{fill:url(#SVGID_6_);}
	.st6{fill:url(#SVGID_7_);}
	.st7{fill:url(#SVGID_8_);}
	.st8{fill:none;stroke:#000000;stroke-width:3.5091;stroke-miterlimit:10;}
	.st9{fill:url(#SVGID_9_);}
	.st10{fill:url(#SVGID_10_);}
	.st11{fill:url(#SVGID_11_);}
	.st12{fill:url(#SVGID_12_);}
	.st13{fill:url(#SVGID_13_);}
	.st14{fill:url(#SVGID_14_);}
	.st15{fill:url(#SVGID_15_);}
	.st16{fill:url(#SVGID_16_);}
	.st17{fill:url(#SVGID_17_);}
	.st18{fill:url(#SVGID_18_);}
	.st19{fill:url(#SVGID_19_);}
	.st20{fill:url(#SVGID_20_);}
	.st21{fill:url(#SVGID_21_);}
	.st22{fill:url(#SVGID_22_);}
	.st23{fill:url(#SVGID_23_);}
	.st24{fill:url(#SVGID_24_);}
</style>
<g>
	<g>
		
			<radialGradient id="SVGID_1_" cx="280.3907" cy="88.319" r="98.5358" gradientTransform="matrix(-1 0 0 1 2.4364 0)" gradientUnits="userSpaceOnUse">
			<stop  offset="0" style="stop-color:#FFBF00"/>
			<stop  offset="0.4299" style="stop-color:#FFBD00"/>
			<stop  offset="0.6621" style="stop-color:#FFB500"/>
			<stop  offset="0.8469" style="stop-color:#FFA700"/>
			<stop  offset="0.8587" style="stop-color:#FFA600"/>
			<stop  offset="0.9837" style="stop-color:#FFA100"/>
		</radialGradient>
		<path class="st0" d="M-155.9,26.4v30.3c1,0,1.9,0,2.8,0V144h0l0,0v6.3h-77c-89.4,0-161.9,0-161.9,0l4.3-26.7h-15.1V26.4
			L-155.9,26.4z"/>
		
			<linearGradient id="SVGID_2_" gradientUnits="userSpaceOnUse" x1="116.3061" y1="39.6907" x2="154.7608" y2="39.6907" gradientTransform="matrix(-1 0 0 1 2.4364 0)">
			<stop  offset="5.434780e-03" style="stop-color:#8C8C8C"/>
			<stop  offset="8.086290e-02" style="stop-color:#707070"/>
			<stop  offset="0.1893" style="stop-color:#4F4F4F"/>
			<stop  offset="0.3064" style="stop-color:#343434"/>
			<stop  offset="0.4331" style="stop-color:#1F1F1F"/>
			<stop  offset="0.5743" style="stop-color:#101010"/>
			<stop  offset="0.7414" style="stop-color:#080808"/>
			<stop  offset="1" style="stop-color:#050505"/>
		</linearGradient>
		<path class="st1" d="M-113.9,51.5c0,0-13.6-12.4-38.5-23.6v23.6H-113.9z"/>
		
			<linearGradient id="SVGID_3_" gradientUnits="userSpaceOnUse" x1="31.1704" y1="103.4503" x2="152.9924" y2="103.4503" gradientTransform="matrix(-1 0 0 1 2.4364 0)">
			<stop  offset="1.522840e-02" style="stop-color:#4D4D4D"/>
			<stop  offset="0.5178" style="stop-color:#858585"/>
			<stop  offset="0.6406" style="stop-color:#7D7D7D"/>
			<stop  offset="0.8358" style="stop-color:#656565"/>
			<stop  offset="1" style="stop-color:#4D4D4D"/>
		</linearGradient>
		<path class="st2" d="M-150.5,56.7c15.7,0,27.8,0,32.3,0c17.9,0,48.3,44.2,48.3,44.2s19.6,3.3,32.4,11c12.8,7.7,7.7,38.4,7.7,38.4
			h-19.9c0-12.7-10.3-23.1-23.1-23.1c-12.7,0-23.1,10.3-23.1,23.1h-54.8V144h0.1V56.7L-150.5,56.7z"/>
		<rect x="-47.7" y="116.1" width="10.6" height="6.7"/>
		
			<linearGradient id="SVGID_4_" gradientUnits="userSpaceOnUse" x1="83.2127" y1="79.9025" x2="146.8291" y2="79.9025" gradientTransform="matrix(-1 0 0 1 2.4364 0)">
			<stop  offset="0" style="stop-color:#FFFFFF"/>
			<stop  offset="8.653516e-02" style="stop-color:#FBFBFC"/>
			<stop  offset="0.6312" style="stop-color:#E7E7EA"/>
			<stop  offset="1" style="stop-color:#E0E0E3"/>
		</linearGradient>
		<path class="st3" d="M-144.4,96.9h63.6c0,0-22.9-34-35.6-34c-12.7,0-28,0-28,0L-144.4,96.9L-144.4,96.9z"/>
		<rect x="-150.6" y="152.2" width="53.4" height="6.7"/>
		<rect x="-390.9" y="152.2" width="237.8" height="6.7"/>
		<rect x="-402.8" y="119.9" width="249.7" height="4.2"/>
		<g>
			
				<linearGradient id="SVGID_5_" gradientUnits="userSpaceOnUse" x1="305.8738" y1="158.8037" x2="364.0982" y2="158.8037" gradientTransform="matrix(-1 0 0 1 2.4364 0)">
				<stop  offset="5.434780e-03" style="stop-color:#8C8C8C"/>
				<stop  offset="8.086290e-02" style="stop-color:#707070"/>
				<stop  offset="0.1893" style="stop-color:#4F4F4F"/>
				<stop  offset="0.3064" style="stop-color:#343434"/>
				<stop  offset="0.4331" style="stop-color:#1F1F1F"/>
				<stop  offset="0.5743" style="stop-color:#101010"/>
				<stop  offset="0.7414" style="stop-color:#080808"/>
				<stop  offset="1" style="stop-color:#050505"/>
			</linearGradient>
			<path class="st4" d="M-332.6,129.7c16.1,0,29.1,13,29.1,29.1c0,16.1-13,29.1-29.1,29.1c-16.1,0-29.1-13-29.1-29.1
				C-361.7,142.7-348.6,129.7-332.6,129.7z"/>
			
				<linearGradient id="SVGID_6_" gradientUnits="userSpaceOnUse" x1="322.2336" y1="158.8354" x2="347.7623" y2="158.8354" gradientTransform="matrix(-1 0 0 1 2.4364 0)">
				<stop  offset="0" style="stop-color:#FFFFFF"/>
				<stop  offset="7.404575e-02" style="stop-color:#ECECEF"/>
				<stop  offset="0.1757" style="stop-color:#D8D8DF"/>
				<stop  offset="0.2446" style="stop-color:#D1D1D9"/>
				<stop  offset="0.5537" style="stop-color:#E1E1E6"/>
				<stop  offset="1" style="stop-color:#F5F5F5"/>
			</linearGradient>
			<path class="st5" d="M-332.6,171.6c7.1,0,12.8-5.7,12.8-12.8c0-7-5.7-12.7-12.8-12.7c-7,0-12.8,5.7-12.8,12.7
				C-345.3,165.8-339.6,171.6-332.6,171.6z"/>
		</g>
		<g>
			
				<linearGradient id="SVGID_7_" gradientUnits="userSpaceOnUse" x1="51.4199" y1="155.5217" x2="109.627" y2="155.5217" gradientTransform="matrix(-1 0 0 1 2.4364 0)">
				<stop  offset="5.434780e-03" style="stop-color:#8C8C8C"/>
				<stop  offset="8.086290e-02" style="stop-color:#707070"/>
				<stop  offset="0.1893" style="stop-color:#4F4F4F"/>
				<stop  offset="0.3064" style="stop-color:#343434"/>
				<stop  offset="0.4331" style="stop-color:#1F1F1F"/>
				<stop  offset="0.5743" style="stop-color:#101010"/>
				<stop  offset="0.7414" style="stop-color:#080808"/>
				<stop  offset="1" style="stop-color:#050505"/>
			</linearGradient>
			<path class="st6" d="M-78.1,126.4c16.1,0,29.1,13,29.1,29.1c0,16.1-13,29.1-29.1,29.1c-16.1,0-29.1-13-29.1-29.1
				C-107.2,139.5-94.1,126.4-78.1,126.4z"/>
			
				<linearGradient id="SVGID_8_" gradientUnits="userSpaceOnUse" x1="67.761" y1="155.5551" x2="93.2791" y2="155.5551" gradientTransform="matrix(-1 0 0 1 2.4364 0)">
				<stop  offset="0" style="stop-color:#FFFFFF"/>
				<stop  offset="7.404575e-02" style="stop-color:#ECECEF"/>
				<stop  offset="0.1757" style="stop-color:#D8D8DF"/>
				<stop  offset="0.2446" style="stop-color:#D1D1D9"/>
				<stop  offset="0.5537" style="stop-color:#E1E1E6"/>
				<stop  offset="1" style="stop-color:#F5F5F5"/>
			</linearGradient>
			<path class="st7" d="M-78.1,168.3c7,0,12.8-5.7,12.8-12.8c0-7-5.7-12.7-12.8-12.7c-7,0-12.8,5.7-12.8,12.7
				C-90.8,162.6-85.1,168.3-78.1,168.3z"/>
		</g>
	</g>
	<g>
		<path d="M-298.5,103.6V87.9h-26.8v-5.2l25.8-36.9h8.4v35.9h8.1v6.1h-8.1v15.7H-298.5z M-298.5,81.8V62.5c0-3,0.1-6,0.3-9.1h-0.3
			c-1.8,3.4-3.2,5.9-4.8,8.5l-14.1,19.6v0.2H-298.5z"/>
		<path d="M-274.2,60.6h9.6l7.8,21.7c1.1,3.2,2.9,8.4,3.9,11.8h0.2c1-3.2,3.4-10,5.1-14.8l6.9-18.7h9.7l3,43h-7.5l-1-20.5
			c-0.3-4.6-0.6-10.1-0.8-15.4h-0.3c-1.2,3.9-2.3,7.4-4.7,14l-8.3,21.7h-5.7l-7.6-21.2c-1.3-4.1-3.2-10.3-4.3-14.3h-0.4
			c-0.2,5.1-0.4,10.8-0.7,15.5l-1.1,20.3h-7.2L-274.2,60.6z"/>
	</g>
	<g>
		<line class="st8" x1="-396.2" y1="78.5" x2="-338.8" y2="78.5"/>
		<g>
			<polygon points="-384.6,92.9 -382.2,90.3 -394.9,78.5 -382.2,66.7 -384.6,64.2 -400,78.5 			"/>
		</g>
	</g>
	<g>
		<line class="st8" x1="-158" y1="78.5" x2="-215.4" y2="78.5"/>
		<g>
			<polygon points="-169.6,64.2 -172,66.7 -159.3,78.5 -172,90.3 -169.6,92.9 -154.2,78.5 			"/>
		</g>
	</g>
</g>
<g>
	<g>
		
			<radialGradient id="SVGID_9_" cx="713.154" cy="88.319" r="87.5959" gradientTransform="matrix(-1 0 0 1 2.4364 0)" gradientUnits="userSpaceOnUse">
			<stop  offset="0" style="stop-color:#FFBF00"/>
			<stop  offset="0.4299" style="stop-color:#FFBD00"/>
			<stop  offset="0.6621" style="stop-color:#FFB500"/>
			<stop  offset="0.8469" style="stop-color:#FFA700"/>
			<stop  offset="0.8587" style="stop-color:#FFA600"/>
			<stop  offset="0.9837" style="stop-color:#FFA100"/>
		</radialGradient>
		<path class="st9" d="M-606.2,26.4v30.3c1,0,1.9,0,2.8,0V144h0l0,0v6.3h-41.9c-89.4,0-161.9,0-161.9,0l4.3-26.7H-818V26.4
			L-606.2,26.4z"/>
		
			<linearGradient id="SVGID_10_" gradientUnits="userSpaceOnUse" x1="566.6149" y1="39.6907" x2="605.0696" y2="39.6907" gradientTransform="matrix(-1 0 0 1 2.4364 0)">
			<stop  offset="5.434780e-03" style="stop-color:#8C8C8C"/>
			<stop  offset="8.086290e-02" style="stop-color:#707070"/>
			<stop  offset="0.1893" style="stop-color:#4F4F4F"/>
			<stop  offset="0.3064" style="stop-color:#343434"/>
			<stop  offset="0.4331" style="stop-color:#1F1F1F"/>
			<stop  offset="0.5743" style="stop-color:#101010"/>
			<stop  offset="0.7414" style="stop-color:#080808"/>
			<stop  offset="1" style="stop-color:#050505"/>
		</linearGradient>
		<path class="st10" d="M-564.2,51.5c0,0-13.6-12.4-38.5-23.6v23.6H-564.2z"/>
		
			<linearGradient id="SVGID_11_" gradientUnits="userSpaceOnUse" x1="481.4792" y1="103.4503" x2="603.3012" y2="103.4503" gradientTransform="matrix(-1 0 0 1 2.4364 0)">
			<stop  offset="1.522840e-02" style="stop-color:#4D4D4D"/>
			<stop  offset="0.5178" style="stop-color:#858585"/>
			<stop  offset="0.6406" style="stop-color:#7D7D7D"/>
			<stop  offset="0.8358" style="stop-color:#656565"/>
			<stop  offset="1" style="stop-color:#4D4D4D"/>
		</linearGradient>
		<path class="st11" d="M-600.8,56.7c15.7,0,27.8,0,32.3,0c17.9,0,48.3,44.2,48.3,44.2s19.6,3.3,32.4,11c12.8,7.7,7.7,38.4,7.7,38.4
			h-19.9c0-12.7-10.3-23.1-23.1-23.1c-12.7,0-23.1,10.3-23.1,23.1h-54.8V144h0.1V56.7L-600.8,56.7z"/>
		<rect x="-498.1" y="116.1" width="10.6" height="6.7"/>
		
			<linearGradient id="SVGID_12_" gradientUnits="userSpaceOnUse" x1="533.5215" y1="79.9025" x2="597.1379" y2="79.9025" gradientTransform="matrix(-1 0 0 1 2.4364 0)">
			<stop  offset="0" style="stop-color:#FFFFFF"/>
			<stop  offset="8.653516e-02" style="stop-color:#FBFBFC"/>
			<stop  offset="0.6312" style="stop-color:#E7E7EA"/>
			<stop  offset="1" style="stop-color:#E0E0E3"/>
		</linearGradient>
		<path class="st12" d="M-594.7,96.9h63.6c0,0-22.9-34-35.6-34c-12.7,0-28,0-28,0L-594.7,96.9L-594.7,96.9z"/>
		<rect x="-600.9" y="152.2" width="53.4" height="6.7"/>
		<rect x="-806.1" y="152.2" width="202.7" height="6.7"/>
		<rect x="-818" y="119.9" width="214.6" height="4.2"/>
		<g>
			
				<linearGradient id="SVGID_13_" gradientUnits="userSpaceOnUse" x1="721.0914" y1="158.8037" x2="779.3158" y2="158.8037" gradientTransform="matrix(-1 0 0 1 2.4364 0)">
				<stop  offset="5.434780e-03" style="stop-color:#8C8C8C"/>
				<stop  offset="8.086290e-02" style="stop-color:#707070"/>
				<stop  offset="0.1893" style="stop-color:#4F4F4F"/>
				<stop  offset="0.3064" style="stop-color:#343434"/>
				<stop  offset="0.4331" style="stop-color:#1F1F1F"/>
				<stop  offset="0.5743" style="stop-color:#101010"/>
				<stop  offset="0.7414" style="stop-color:#080808"/>
				<stop  offset="1" style="stop-color:#050505"/>
			</linearGradient>
			<path class="st13" d="M-747.8,129.7c16.1,0,29.1,13,29.1,29.1c0,16.1-13,29.1-29.1,29.1c-16.1,0-29.1-13-29.1-29.1
				C-776.9,142.7-763.8,129.7-747.8,129.7z"/>
			
				<linearGradient id="SVGID_14_" gradientUnits="userSpaceOnUse" x1="737.4513" y1="158.8354" x2="762.9799" y2="158.8354" gradientTransform="matrix(-1 0 0 1 2.4364 0)">
				<stop  offset="0" style="stop-color:#FFFFFF"/>
				<stop  offset="7.404575e-02" style="stop-color:#ECECEF"/>
				<stop  offset="0.1757" style="stop-color:#D8D8DF"/>
				<stop  offset="0.2446" style="stop-color:#D1D1D9"/>
				<stop  offset="0.5537" style="stop-color:#E1E1E6"/>
				<stop  offset="1" style="stop-color:#F5F5F5"/>
			</linearGradient>
			<path class="st14" d="M-747.8,171.6c7.1,0,12.8-5.7,12.8-12.8c0-7-5.7-12.7-12.8-12.7c-7,0-12.8,5.7-12.8,12.7
				C-760.5,165.8-754.8,171.6-747.8,171.6z"/>
		</g>
		<g>
			
				<linearGradient id="SVGID_15_" gradientUnits="userSpaceOnUse" x1="501.7287" y1="155.5217" x2="559.9359" y2="155.5217" gradientTransform="matrix(-1 0 0 1 2.4364 0)">
				<stop  offset="5.434780e-03" style="stop-color:#8C8C8C"/>
				<stop  offset="8.086290e-02" style="stop-color:#707070"/>
				<stop  offset="0.1893" style="stop-color:#4F4F4F"/>
				<stop  offset="0.3064" style="stop-color:#343434"/>
				<stop  offset="0.4331" style="stop-color:#1F1F1F"/>
				<stop  offset="0.5743" style="stop-color:#101010"/>
				<stop  offset="0.7414" style="stop-color:#080808"/>
				<stop  offset="1" style="stop-color:#050505"/>
			</linearGradient>
			<path class="st15" d="M-528.4,126.4c16.1,0,29.1,13,29.1,29.1c0,16.1-13,29.1-29.1,29.1c-16.1,0-29.1-13-29.1-29.1
				C-557.5,139.5-544.5,126.4-528.4,126.4z"/>
			
				<linearGradient id="SVGID_16_" gradientUnits="userSpaceOnUse" x1="518.0698" y1="155.5551" x2="543.588" y2="155.5551" gradientTransform="matrix(-1 0 0 1 2.4364 0)">
				<stop  offset="0" style="stop-color:#FFFFFF"/>
				<stop  offset="7.404575e-02" style="stop-color:#ECECEF"/>
				<stop  offset="0.1757" style="stop-color:#D8D8DF"/>
				<stop  offset="0.2446" style="stop-color:#D1D1D9"/>
				<stop  offset="0.5537" style="stop-color:#E1E1E6"/>
				<stop  offset="1" style="stop-color:#F5F5F5"/>
			</linearGradient>
			<path class="st16" d="M-528.4,168.3c7,0,12.8-5.7,12.8-12.8c0-7-5.7-12.7-12.8-12.7c-7,0-12.8,5.7-12.8,12.7
				C-541.2,162.6-535.4,168.3-528.4,168.3z"/>
		</g>
	</g>
	<g>
		<path d="M-750.1,92.3c2.2,1.4,7.4,3.6,12.8,3.6c10,0,13.2-6.4,13.1-11.2c-0.1-8.1-7.4-11.6-14.9-11.6h-4.4v-5.9h4.4
			c5.7,0,12.9-2.9,12.9-9.8c0-4.6-2.9-8.7-10.1-8.7c-4.6,0-9.1,2-11.6,3.8l-2-5.7c3-2.2,8.9-4.4,15.1-4.4c11.4,0,16.5,6.8,16.5,13.8
			c0,6-3.6,11-10.7,13.6v0.2c7.1,1.4,12.9,6.8,12.9,14.8c0,9.2-7.2,17.3-21.1,17.3c-6.5,0-12.2-2-15-3.9L-750.1,92.3z"/>
		<path d="M-703.4,58.3h9.6L-686,80c1.1,3.2,2.9,8.4,3.9,11.8h0.2c1-3.2,3.4-10,5.1-14.8l6.9-18.7h9.7l3,43h-7.5l-1-20.5
			c-0.3-4.6-0.6-10.1-0.8-15.4h-0.3c-1.2,3.9-2.3,7.4-4.7,14l-8.3,21.7h-5.7l-7.6-21.2c-1.3-4.1-3.2-10.3-4.3-14.3h-0.4
			c-0.2,5.1-0.4,10.8-0.7,15.5l-1.1,20.3h-7.2L-703.4,58.3z"/>
	</g>
	<g>
		<line class="st8" x1="-813.2" y1="76.2" x2="-755.8" y2="76.2"/>
		<g>
			<polygon points="-801.6,90.5 -799.2,88 -811.8,76.2 -799.2,64.4 -801.6,61.8 -817,76.2 			"/>
		</g>
	</g>
	<g>
		<line class="st8" x1="-604.8" y1="76.2" x2="-648.2" y2="76.2"/>
		<g>
			<polygon points="-616.4,61.8 -618.8,64.4 -606.1,76.2 -618.8,88 -616.4,90.5 -601,76.2 			"/>
		</g>
	</g>
</g>
<g>
	<g>
		
			<radialGradient id="SVGID_17_" cx="-188.9733" cy="88.319" r="113.2107" gradientTransform="matrix(-1 0 0 1 2.4364 0)" gradientUnits="userSpaceOnUse">
			<stop  offset="0" style="stop-color:#FFBF00"/>
			<stop  offset="0.4299" style="stop-color:#FFBD00"/>
			<stop  offset="0.6621" style="stop-color:#FFB500"/>
			<stop  offset="0.8469" style="stop-color:#FFA700"/>
			<stop  offset="0.8587" style="stop-color:#FFA600"/>
			<stop  offset="0.9837" style="stop-color:#FFA100"/>
		</radialGradient>
		<path class="st17" d="M336.2,26.4v30.3c1,0,1.9,0,2.8,0V144h0l0,0v6.3H216.4c-89.4,0-161.9,0-161.9,0l4.3-26.7H43.8V26.4
			L336.2,26.4z"/>
		
			<linearGradient id="SVGID_18_" gradientUnits="userSpaceOnUse" x1="-375.8672" y1="39.6907" x2="-337.4126" y2="39.6907" gradientTransform="matrix(-1 0 0 1 2.4364 0)">
			<stop  offset="5.434780e-03" style="stop-color:#8C8C8C"/>
			<stop  offset="8.086290e-02" style="stop-color:#707070"/>
			<stop  offset="0.1893" style="stop-color:#4F4F4F"/>
			<stop  offset="0.3064" style="stop-color:#343434"/>
			<stop  offset="0.4331" style="stop-color:#1F1F1F"/>
			<stop  offset="0.5743" style="stop-color:#101010"/>
			<stop  offset="0.7414" style="stop-color:#080808"/>
			<stop  offset="1" style="stop-color:#050505"/>
		</linearGradient>
		<path class="st18" d="M378.3,51.5c0,0-13.6-12.4-38.5-23.6v23.6H378.3z"/>
		
			<linearGradient id="SVGID_19_" gradientUnits="userSpaceOnUse" x1="-461.003" y1="103.4503" x2="-339.181" y2="103.4503" gradientTransform="matrix(-1 0 0 1 2.4364 0)">
			<stop  offset="1.522840e-02" style="stop-color:#4D4D4D"/>
			<stop  offset="0.5178" style="stop-color:#858585"/>
			<stop  offset="0.6406" style="stop-color:#7D7D7D"/>
			<stop  offset="0.8358" style="stop-color:#656565"/>
			<stop  offset="1" style="stop-color:#4D4D4D"/>
		</linearGradient>
		<path class="st19" d="M341.7,56.7c15.7,0,27.8,0,32.3,0c17.9,0,48.3,44.2,48.3,44.2s19.6,3.3,32.4,11c12.8,7.7,7.7,38.4,7.7,38.4
			h-19.9c0-12.7-10.3-23.1-23.1-23.1c-12.7,0-23.1,10.3-23.1,23.1h-54.8V144h0.1V56.7L341.7,56.7z"/>
		<rect x="444.4" y="116.1" width="10.6" height="6.7"/>
		
			<linearGradient id="SVGID_20_" gradientUnits="userSpaceOnUse" x1="-408.9607" y1="79.9025" x2="-345.3442" y2="79.9025" gradientTransform="matrix(-1 0 0 1 2.4364 0)">
			<stop  offset="0" style="stop-color:#FFFFFF"/>
			<stop  offset="8.653516e-02" style="stop-color:#FBFBFC"/>
			<stop  offset="0.6312" style="stop-color:#E7E7EA"/>
			<stop  offset="1" style="stop-color:#E0E0E3"/>
		</linearGradient>
		<path class="st20" d="M347.8,96.9h63.6c0,0-22.9-34-35.6-34c-12.7,0-28,0-28,0L347.8,96.9L347.8,96.9z"/>
		<rect x="341.6" y="152.2" width="53.4" height="6.7"/>
		<rect x="55.7" y="152.2" width="283.4" height="6.7"/>
		<rect x="43.8" y="119.9" width="295.3" height="4.2"/>
		<g>
			
				<linearGradient id="SVGID_21_" gradientUnits="userSpaceOnUse" x1="-140.681" y1="158.8037" x2="-82.4566" y2="158.8037" gradientTransform="matrix(-1 0 0 1 2.4364 0)">
				<stop  offset="5.434780e-03" style="stop-color:#8C8C8C"/>
				<stop  offset="8.086290e-02" style="stop-color:#707070"/>
				<stop  offset="0.1893" style="stop-color:#4F4F4F"/>
				<stop  offset="0.3064" style="stop-color:#343434"/>
				<stop  offset="0.4331" style="stop-color:#1F1F1F"/>
				<stop  offset="0.5743" style="stop-color:#101010"/>
				<stop  offset="0.7414" style="stop-color:#080808"/>
				<stop  offset="1" style="stop-color:#050505"/>
			</linearGradient>
			<path class="st21" d="M114,129.7c16.1,0,29.1,13,29.1,29.1c0,16.1-13,29.1-29.1,29.1c-16.1,0-29.1-13-29.1-29.1
				C84.9,142.7,97.9,129.7,114,129.7z"/>
			
				<linearGradient id="SVGID_22_" gradientUnits="userSpaceOnUse" x1="-124.3212" y1="158.8354" x2="-98.7925" y2="158.8354" gradientTransform="matrix(-1 0 0 1 2.4364 0)">
				<stop  offset="0" style="stop-color:#FFFFFF"/>
				<stop  offset="7.404575e-02" style="stop-color:#ECECEF"/>
				<stop  offset="0.1757" style="stop-color:#D8D8DF"/>
				<stop  offset="0.2446" style="stop-color:#D1D1D9"/>
				<stop  offset="0.5537" style="stop-color:#E1E1E6"/>
				<stop  offset="1" style="stop-color:#F5F5F5"/>
			</linearGradient>
			<path class="st22" d="M114,171.6c7.1,0,12.8-5.7,12.8-12.8c0-7-5.7-12.7-12.8-12.7c-7,0-12.8,5.7-12.8,12.7
				C101.2,165.8,106.9,171.6,114,171.6z"/>
		</g>
		<g>
			
				<linearGradient id="SVGID_23_" gradientUnits="userSpaceOnUse" x1="-440.7534" y1="155.5217" x2="-382.5463" y2="155.5217" gradientTransform="matrix(-1 0 0 1 2.4364 0)">
				<stop  offset="5.434780e-03" style="stop-color:#8C8C8C"/>
				<stop  offset="8.086290e-02" style="stop-color:#707070"/>
				<stop  offset="0.1893" style="stop-color:#4F4F4F"/>
				<stop  offset="0.3064" style="stop-color:#343434"/>
				<stop  offset="0.4331" style="stop-color:#1F1F1F"/>
				<stop  offset="0.5743" style="stop-color:#101010"/>
				<stop  offset="0.7414" style="stop-color:#080808"/>
				<stop  offset="1" style="stop-color:#050505"/>
			</linearGradient>
			<path class="st23" d="M414.1,126.4c16.1,0,29.1,13,29.1,29.1c0,16.1-13,29.1-29.1,29.1c-16.1,0-29.1-13-29.1-29.1
				C385,139.5,398,126.4,414.1,126.4z"/>
			
				<linearGradient id="SVGID_24_" gradientUnits="userSpaceOnUse" x1="-424.4124" y1="155.5551" x2="-398.8942" y2="155.5551" gradientTransform="matrix(-1 0 0 1 2.4364 0)">
				<stop  offset="0" style="stop-color:#FFFFFF"/>
				<stop  offset="7.404575e-02" style="stop-color:#ECECEF"/>
				<stop  offset="0.1757" style="stop-color:#D8D8DF"/>
				<stop  offset="0.2446" style="stop-color:#D1D1D9"/>
				<stop  offset="0.5537" style="stop-color:#E1E1E6"/>
				<stop  offset="1" style="stop-color:#F5F5F5"/>
			</linearGradient>
			<path class="st24" d="M414.1,168.3c7,0,12.8-5.7,12.8-12.8c0-7-5.7-12.7-12.8-12.7c-7,0-12.8,5.7-12.8,12.7
				C401.3,162.6,407.1,168.3,414.1,168.3z"/>
		</g>
	</g>
	<g>
		<path d="M181.2,52.4h-22l-2.2,14.8c1.3-0.2,2.6-0.4,4.7-0.4c4.4,0,8.9,1,12.4,3.1c4.5,2.6,8.3,7.6,8.3,14.8
			c0,11.3-9,19.7-21.5,19.7c-6.3,0-11.6-1.8-14.4-3.6l2-6c2.4,1.4,7.1,3.2,12.4,3.2c7.4,0,13.7-4.8,13.7-12.5
			c-0.1-7.5-5.1-12.8-16.6-12.8c-3.3,0-5.9,0.4-8,0.6l3.7-27.7h27.6V52.4z"/>
		<path d="M195.2,60.6h9.6l7.8,21.7c1.1,3.2,2.9,8.4,3.9,11.8h0.2c1-3.2,3.4-10,5.1-14.8l6.9-18.7h9.7l3,43h-7.5L233,83
			c-0.3-4.6-0.6-10.1-0.8-15.4h-0.3c-1.2,3.9-2.3,7.4-4.7,14l-8.3,21.7h-5.7l-7.6-21.2c-1.3-4.1-3.2-10.3-4.3-14.3H201
			c-0.2,5.1-0.4,10.8-0.7,15.5l-1.1,20.3H192L195.2,60.6z"/>
	</g>
	<g>
		<line class="st8" x1="50.3" y1="78.5" x2="135.8" y2="78.5"/>
		<g>
			<polygon points="62,92.8 64.4,90.3 51.7,78.5 64.4,66.7 62,64.1 46.5,78.5 			"/>
		</g>
	</g>
	<g>
		<line class="st8" x1="334.2" y1="78.5" x2="253.9" y2="78.5"/>
		<g>
			<polygon points="322.6,64.1 320.2,66.7 332.8,78.5 320.2,90.3 322.6,92.8 338,78.5 			"/>
		</g>
	</g>
</g>
</svg>
