<?xml version="1.0" encoding="utf-8"?>
<!-- Generator: Adobe Illustrator 22.1.0, SVG Export Plug-In . SVG Version: 6.00 Build 0)  -->
<svg version="1.1" id="Layer_1" xmlns="http://www.w3.org/2000/svg" xmlns:xlink="http://www.w3.org/1999/xlink" x="0px" y="0px"
	 viewBox="0 0 300 300" style="enable-background:new 0 0 300 300;" xml:space="preserve">
<style type="text/css">
	.st0{fill:#FFFFFF;}
	.st1{enable-background:new    ;}
</style>
<g>
	<path class="st0" d="M150,285.5c-74.7,0-135.5-60.8-135.5-135.5S75.3,14.5,150,14.5S285.5,75.3,285.5,150S224.7,285.5,150,285.5z
		 M150,26.5C81.9,26.5,26.5,81.9,26.5,150S81.9,273.5,150,273.5S273.5,218.1,273.5,150S218.1,26.5,150,26.5z"/>
</g>
<g class="st1">
	<path class="st0" d="M116.2,80.1c4.9-3.1,10.4-5.3,16.5-6.8c6.1-1.5,12.3-2.2,18.8-2.2c7.1,0,13.5,1.1,19.4,3.2
		c5.8,2.2,10.8,5.2,15,9.2c4.2,4,7.3,8.8,9.6,14.4c2.2,5.6,3.3,11.9,3.3,18.8c0,6.5-0.8,12.5-2.4,18s-3.9,10.9-6.9,16
		c-3,5.2-6.7,10.3-11,15.3c-4.3,5.1-9.1,10.3-14.3,15.7c-2.9,3.1-5.6,5.8-8.1,8.2c-2.5,2.4-4.8,4.7-7.2,6.9c-2.3,2.2-4.7,4.4-7,6.6
		c-2.4,2.2-5,4.5-7.7,6.9h66.9v17.1h-90.7l-2.5-12.7c8.8-8.8,16.7-16.9,23.8-24.3c7.1-7.5,13.8-14.7,20.3-21.8
		c7.8-8.6,14.1-16.9,18.8-24.9c4.7-8,7-16.7,7-26.1c0-9.2-2.5-16.4-7.6-21.6c-5.1-5.2-12-7.7-20.8-7.7c-4.9,0-9.8,0.7-14.5,2
		c-4.8,1.3-9.4,3.2-13.8,5.7L116.2,80.1z"/>
</g>
</svg>
