<?xml version="1.0" encoding="utf-8"?>
<!-- Generator: Adobe Illustrator 22.1.0, SVG Export Plug-In . SVG Version: 6.00 Build 0)  -->
<svg version="1.1" id="Layer_1" xmlns="http://www.w3.org/2000/svg" xmlns:xlink="http://www.w3.org/1999/xlink" x="0px" y="0px"
	 viewBox="0 0 300 300" style="enable-background:new 0 0 300 300;" xml:space="preserve">
<style type="text/css">
	.st0{fill:#FFFFFF;}
</style>
<g>
	<path class="st0" d="M150,285.5c-74.7,0-135.5-60.8-135.5-135.5S75.3,14.5,150,14.5S285.5,75.3,285.5,150S224.7,285.5,150,285.5z
		 M150,26.5C81.9,26.5,26.5,81.9,26.5,150c0,68.1,55.4,123.5,123.5,123.5c68.1,0,123.5-55.4,123.5-123.5
		C273.5,81.9,218.1,26.5,150,26.5z"/>
</g>
<g>
	<path class="st0" d="M200.7,186.9c0,6.6-1.3,12.6-3.8,18c-2.5,5.4-6.1,10-10.6,13.7c-4.5,3.8-9.9,6.7-16.2,8.7c-6.2,2-13,3-20.4,3
		c-3.1,0-6.3-0.2-9.6-0.6c-3.3-0.4-6.6-0.9-9.8-1.6s-6.4-1.5-9.5-2.4c-3.1-0.9-5.8-1.9-8.3-3l4.2-16.8c5.1,2.3,10.3,4.1,15.6,5.4
		c5.3,1.3,10.7,2,16,2c10.5,0,18.3-2.4,23.5-7.2c5.2-4.8,7.8-10.8,7.8-18.2c0-5.5-1.2-10.2-3.5-14.1c-2.3-3.8-5.4-7-9.3-9.3
		c-3.9-2.4-8.5-4.2-13.6-5.3c-5.2-1.2-10.6-1.7-16.3-1.7h-9v-17.1h8.3c5.5,0,10.8-0.7,15.7-2.1c4.9-1.4,9.2-3.3,12.8-5.9
		c3.6-2.5,6.5-5.7,8.7-9.3c2.2-3.7,3.2-7.8,3.2-12.5c0-7.4-2.3-13-7-16.7c-4.7-3.8-11-5.7-18.8-5.7c-4.9,0-9.6,0.5-14.1,1.5
		c-4.5,1-9.4,2.7-14.8,5.2L117.9,79c5.4-2.9,11-5,16.8-6.1c5.8-1.2,12.1-1.7,18.7-1.7c6.5,0,12.4,0.9,17.8,2.7
		c5.4,1.8,10,4.3,14,7.5s7,7.1,9.2,11.5c2.2,4.5,3.3,9.5,3.3,15c0,9.4-2.8,17.4-8.3,24c-5.5,6.6-13.2,11.9-22.8,15.9
		c4.8,1.2,9.2,3,13.4,5.4c4.2,2.4,7.8,5.2,10.8,8.5c3.1,3.3,5.5,7.1,7.3,11.3C199.8,177.2,200.7,181.9,200.7,186.9z"/>
</g>
</svg>
