<?xml version="1.0" encoding="utf-8"?>
<!-- Generator: Adobe Illustrator 23.0.1, SVG Export Plug-In . SVG Version: 6.00 Build 0)  -->
<svg version="1.1" id="Layer_1" xmlns="http://www.w3.org/2000/svg" xmlns:xlink="http://www.w3.org/1999/xlink" x="0px" y="0px"
	 viewBox="0 0 200 200" style="enable-background:new 0 0 200 200;" xml:space="preserve">
<style type="text/css">
	.st0{fill-rule:evenodd;clip-rule:evenodd;fill:url(#SVGID_1_);}
	.st1{fill:url(#SVGID_2_);}
	.st2{fill:url(#SVGID_3_);}
	.st3{fill:url(#SVGID_4_);}
	.st4{fill:url(#SVGID_5_);}
</style>
<linearGradient id="SVGID_1_" gradientUnits="userSpaceOnUse" x1="37.6878" y1="71.0172" x2="166.2535" y2="133.1965">
	<stop  offset="0" style="stop-color:#FFFFFF"/>
	<stop  offset="0.1139" style="stop-color:#F7F7F7"/>
	<stop  offset="0.2874" style="stop-color:#E2E2E2"/>
	<stop  offset="0.4462" style="stop-color:#C9C9C9"/>
	<stop  offset="0.8925" style="stop-color:#F4F4F4"/>
	<stop  offset="1" style="stop-color:#FFFFFF"/>
</linearGradient>
<polygon class="st0" points="89.6,47.4 41.1,134.9 144,175.4 176.8,76 "/>
<g>
	<linearGradient id="SVGID_2_" gradientUnits="userSpaceOnUse" x1="59.2824" y1="79.1558" x2="71.7302" y2="87.5712">
		<stop  offset="0" style="stop-color:#9B9B9C"/>
		<stop  offset="0.1581" style="stop-color:#989899"/>
		<stop  offset="0.2631" style="stop-color:#909090"/>
		<stop  offset="0.3526" style="stop-color:#818181"/>
		<stop  offset="0.433" style="stop-color:#6C6C6C"/>
		<stop  offset="0.4462" style="stop-color:#686868"/>
		<stop  offset="0.6989" style="stop-color:#959595"/>
		<stop  offset="0.8979" style="stop-color:#909090"/>
		<stop  offset="1" style="stop-color:#999999"/>
	</linearGradient>
	<path class="st1" d="M96,46L96,46c-0.1,0.2-0.3,0.4-0.5,0.6c0,0,0,0-0.1,0.1c-0.2,0.2-0.4,0.3-0.6,0.5c0,0-0.1,0-0.1,0.1
		c-0.2,0.1-0.5,0.3-0.7,0.4c0,0,0,0,0,0c-0.3,0.1-0.6,0.2-0.9,0.3l0,0h0c-0.2,0-0.5,0.1-0.7,0.1c-0.2,0-0.5,0-0.7,0l0,0
		c-0.2,0-0.5,0-0.7-0.1c0,0,0,0,0,0c-0.2,0-0.5-0.1-0.7-0.2c-0.2-0.1-0.4-0.1-0.7-0.2l0,0l0,0c-0.2-0.1-0.4-0.2-0.6-0.3c0,0,0,0,0,0
		c-0.2-0.1-0.4-0.2-0.6-0.4l0,0c-0.2-0.1-0.4-0.3-0.6-0.4c-0.2-0.2-0.4-0.3-0.5-0.5c0,0,0,0,0,0c-0.2-0.2-0.3-0.4-0.5-0.6l0,0
		c-0.1-0.2-0.3-0.4-0.4-0.6v0c-0.1-0.2-0.2-0.4-0.3-0.6c0,0,0,0,0,0c-0.1-0.2-0.2-0.4-0.2-0.6l0,0c-0.1-0.2-0.1-0.4-0.2-0.6
		c0,0,0,0,0,0c-0.1-0.4-0.1-0.9,0-1.3c0-0.2,0-0.3,0.1-0.5l0,0c0-0.1,0.1-0.3,0.1-0.4c0,0,0,0,0,0c0.1-0.1,0.1-0.3,0.2-0.4
		c0,0,0,0,0,0c0.1-0.1,0.1-0.3,0.2-0.4c-17,25.2-34,50.4-51,75.6c0,0,0,0.1-0.1,0.1c0,0,0,0.1,0,0.1c0,0,0,0.1,0,0.1
		c0,0,0,0.1,0,0.1c0,0,0,0,0,0.1c0,0,0,0,0,0c0,0,0,0,0,0c0,0,0,0,0,0c0,0,0,0.1,0,0.1c0,0,0,0.1,0,0.1c0,0,0,0.1,0,0.1
		c0,0,0,0.1,0,0.1c0,0,0,0,0,0c0,0,0,0,0,0c0,0,0,0,0,0c0,0,0,0,0,0c0,0,0,0.1,0,0.1c0,0,0,0.1,0,0.1c0,0,0,0,0,0.1c0,0,0,0,0,0.1
		c0,0,0,0,0,0.1c0,0,0,0,0,0.1c0,0,0,0,0,0.1c0,0,0,0,0,0.1c0,0,0,0,0,0.1c0,0,0,0,0,0.1c0,0,0,0,0,0c0,0,0,0,0,0c0,0,0,0,0,0
		c0,0,0,0,0,0c0,0,0,0,0,0c0,0,0,0,0,0c0,0,0,0,0,0s0,0,0,0c0,0,0,0,0,0.1c0,0,0,0,0,0.1c0,0,0,0,0,0.1c0,0,0,0,0,0.1c0,0,0,0,0,0.1
		c0,0,0,0,0,0.1c0,0,0,0,0,0.1c0,0,0,0,0,0.1c0,0,0,0,0,0.1c0,0,0,0,0,0.1c0,0,0,0,0,0l0,0c0,0,0,0,0,0c0,0,0,0,0,0.1c0,0,0,0,0,0.1
		c0,0,0,0,0,0.1c0,0,0,0,0,0.1c0,0,0,0,0,0.1c0,0,0,0,0,0.1c0,0,0,0,0,0.1c0,0,0,0,0,0.1c0,0,0,0,0,0.1c0,0,0,0,0,0.1c0,0,0,0,0,0.1
		l0,0l0,0l0,0c0,0,0,0,0,0c0,0,0,0,0,0.1c0,0,0,0,0,0.1c0,0,0,0,0,0.1c0,0,0,0,0,0.1c0,0,0,0,0,0.1c0,0,0,0,0,0.1s0,0,0,0.1
		c0,0,0,0,0,0.1s0,0,0,0.1c0,0,0,0,0,0.1c0,0,0,0,0,0.1c0,0,0,0,0,0l0,0c0,0,0,0,0,0c0,0,0,0,0,0.1c0,0,0,0,0,0.1c0,0,0,0,0,0.1
		c0,0,0,0,0,0.1c0,0,0,0,0,0.1c0,0,0,0,0,0.1c0,0,0,0,0,0.1c0,0,0,0,0,0.1c0,0,0,0,0,0.1c0,0,0,0,0,0.1c0,0,0,0,0,0l0,0l0,0
		c0,0,0,0,0,0c0,0,0,0,0,0.1c0,0,0,0,0,0.1c0,0,0,0,0,0.1c0,0,0,0,0,0.1c0,0,0,0,0.1,0.1c0,0,0,0,0.1,0.1c0,0,0,0.1,0.1,0.1
		c0,0,0,0.1,0.1,0.1c0,0,0,0,0.1,0.1l0,0c0,0,0,0,0.1,0.1c0,0,0,0.1,0.1,0.1c0,0,0,0.1,0.1,0.1c0,0,0,0.1,0.1,0.1c0,0,0,0.1,0.1,0.1
		c0,0,0.1,0.1,0.1,0.1c0,0,0.1,0.1,0.1,0.1c0,0,0,0,0.1,0.1c0,0,0,0,0,0c0,0,0,0,0,0c0,0,0,0,0,0c0,0,0.1,0.1,0.1,0.1
		c0,0,0.1,0.1,0.1,0.1c0,0,0.1,0.1,0.1,0.1c0,0,0.1,0.1,0.1,0.1c0,0,0.1,0.1,0.1,0.1c0,0,0,0,0,0l0,0c0.1,0,0.1,0.1,0.2,0.1
		c0.1,0.1,0.1,0.1,0.2,0.2c0.1,0.1,0.1,0.1,0.2,0.2c0.1,0.1,0.1,0.1,0.2,0.2c0.1,0.1,0.2,0.1,0.3,0.2c0.1,0.1,0.2,0.1,0.3,0.2
		c0.1,0.1,0.2,0.1,0.3,0.2c0.1,0.1,0.2,0.1,0.3,0.2c0.1,0,0.1,0.1,0.1,0.1c0,0,0.1,0.1,0.1,0.1c0.1,0,0.1,0.1,0.2,0.1
		c0,0,0.1,0,0.1,0l0,0l0,0c0,0,0,0,0.1,0c0,0,0.1,0,0.1,0.1c0,0,0.1,0,0.1,0.1c0,0,0.1,0,0.1,0.1c0,0,0.1,0,0.1,0.1
		c0,0,0.1,0,0.1,0.1c0,0,0.1,0,0.1,0.1c0,0,0.1,0,0.1,0c0,0,0.1,0,0.1,0c0,0,0.1,0,0.1,0c0,0,0.1,0,0.1,0c0,0,0.1,0,0.1,0
		c0,0,0.1,0,0.1,0c0,0,0.1,0,0.1,0s0.1,0,0.1,0c0,0,0.1,0,0.1,0c0,0,0.1,0,0.1,0c0,0,0,0,0,0l0,0c0,0,0,0,0,0c0,0,0,0,0,0
		c0,0,0.1,0,0.1,0c0,0,0.1,0,0.1,0c0,0,0.1,0,0.1,0c0,0,0.1,0,0.1,0c0,0,0.1,0,0.1,0c0,0,0.1,0,0.1,0c0,0,0.1,0,0.1,0
		c0,0,0.1,0,0.1,0c0,0,0.1,0,0.1,0c0,0,0.1,0,0.1,0c0,0,0.1,0,0.1,0c0,0,0,0,0,0l0,0c0,0,0,0,0,0c0,0,0,0,0,0c0,0,0,0,0.1,0
		c0,0,0,0,0.1,0c0,0,0,0,0.1,0c0,0,0,0,0.1,0c0,0,0,0,0.1,0s0,0,0.1,0c0,0,0,0,0.1,0c0,0,0,0,0.1,0c0,0,0,0,0.1,0c0,0,0,0,0.1,0
		c0,0,0,0,0.1,0c0,0,0,0,0.1,0l0,0h0c0,0,0,0,0,0c0,0,0,0,0.1,0c0,0,0,0,0.1,0c0,0,0,0,0.1,0c0,0,0,0,0.1,0c0,0,0,0,0.1,0
		c0,0,0,0,0.1,0c0,0,0,0,0.1,0c0,0,0,0,0.1,0c0,0,0,0,0.1,0c0,0,0,0,0.1,0c0,0,0,0,0.1,0c0,0,0,0,0.1,0c0,0,0,0,0,0h0h0c0,0,0,0,0,0
		c0,0,0,0,0.1,0c0,0,0,0,0.1,0c0,0,0,0,0.1,0l0,0c0,0,0,0,0.1,0c0,0,0,0,0.1,0c0,0,0,0,0.1,0c0,0,0,0,0.1,0c0,0,0,0,0.1,0
		c0,0,0,0,0.1,0c0,0,0,0,0.1,0c0,0,0,0,0.1,0l0,0l0,0v0h0l0,0c0,0,0,0,0,0l0,0c0,0,0,0,0.1,0c0,0,0,0,0.1,0c0,0,0,0,0.1,0
		c0,0,0,0,0.1,0c0,0,0.1,0,0.1,0c0,0,0.1,0,0.1,0c0,0,0.1,0,0.1,0c0,0,0.1,0,0.1,0c0,0,0.1,0,0.1,0c0,0,0.1,0,0.1,0c0,0,0.1,0,0.1,0
		c0,0,0.1,0,0.1,0c0,0,0.1,0,0.1,0l0,0c0,0,0,0,0,0c0,0,0.1,0,0.1,0c0,0,0.1,0,0.1,0c0,0,0.1,0,0.1,0c0,0,0.1,0,0.1,0c0,0,0,0,0.1,0
		c0,0,0,0,0,0c0,0,0,0,0,0c0,0,0.1,0,0.1,0c0,0,0.1,0,0.1,0c0,0,0,0,0.1,0c0,0,0.1,0,0.1,0c0.1,0,0.1-0.1,0.1-0.1c0,0,0.1,0,0.1-0.1
		c0,0,0,0,0.1,0c0.1-0.1,0.2-0.1,0.2-0.2c0,0,0.1,0,0.1-0.1c0,0,0,0,0,0c0,0,0,0,0,0c0.1-0.1,0.1-0.1,0.2-0.2c0,0,0.1-0.1,0.1-0.1
		c0,0,0,0,0,0c0.1-0.1,0.2-0.2,0.3-0.3C64,97.8,80,71.9,96,46L96,46L96,46z"/>
	<linearGradient id="SVGID_3_" gradientUnits="userSpaceOnUse" x1="44.9209" y1="125.2293" x2="44.9216" y2="125.2293">
		<stop  offset="0" style="stop-color:#9B9B9C"/>
		<stop  offset="0.1581" style="stop-color:#989899"/>
		<stop  offset="0.2631" style="stop-color:#909090"/>
		<stop  offset="0.3526" style="stop-color:#818181"/>
		<stop  offset="0.433" style="stop-color:#6C6C6C"/>
		<stop  offset="0.4462" style="stop-color:#686868"/>
		<stop  offset="0.6989" style="stop-color:#959595"/>
		<stop  offset="0.8979" style="stop-color:#909090"/>
		<stop  offset="1" style="stop-color:#999999"/>
	</linearGradient>
	<polygon class="st2" points="44.9,125.2 44.9,125.2 44.9,125.2 	"/>
</g>
<linearGradient id="SVGID_4_" gradientUnits="userSpaceOnUse" x1="52.4222" y1="63.0315" x2="88.3307" y2="85.4916">
	<stop  offset="0" style="stop-color:#F0F1F2"/>
	<stop  offset="7.466289e-02" style="stop-color:#EDEDEE"/>
	<stop  offset="0.1438" style="stop-color:#E2E2E3"/>
	<stop  offset="0.2105" style="stop-color:#D0D0D0"/>
	<stop  offset="0.2312" style="stop-color:#C9C9C9"/>
	<stop  offset="0.7174" style="stop-color:#FAFAFA"/>
	<stop  offset="0.8979" style="stop-color:#F4F4F4"/>
	<stop  offset="1" style="stop-color:#FFFFFF"/>
</linearGradient>
<path class="st3" d="M108.8,45.5c0-0.1,0-0.1,0-0.2c0-0.1,0-0.1,0-0.2c0-0.1,0-0.1,0-0.2c0,0,0,0,0,0c0,0,0,0,0,0c0,0,0-0.1,0-0.1
	c0-0.1,0-0.1,0-0.2c0-0.1,0-0.1,0-0.2c0-0.1,0-0.1,0-0.2c0-0.1,0-0.1,0-0.2c0-0.1,0-0.1,0-0.2c0,0,0,0,0,0c0,0,0,0,0,0c0,0,0,0,0,0
	c0,0,0-0.1,0-0.1c0-0.1,0-0.1,0-0.2l0,0c0-0.1,0-0.1,0-0.2c0-0.1,0-0.1,0-0.2c0-0.1,0-0.1,0-0.2s0-0.1,0-0.2c0,0,0,0,0,0
	c0,0,0,0,0,0c0,0,0-0.1,0-0.1c0-0.1,0-0.1,0-0.2c0-0.1,0-0.1,0-0.2c0-0.1,0-0.1,0-0.2c0-0.1,0-0.1,0-0.2c0-0.1,0-0.1,0-0.2
	c0,0,0,0,0,0c0,0,0,0,0,0c0,0,0-0.1,0-0.1c0-0.1,0-0.1-0.1-0.2c0-0.1,0-0.1-0.1-0.2c0-0.1,0-0.1-0.1-0.2c0-0.1,0-0.1-0.1-0.2
	c0-0.1,0-0.1-0.1-0.2c0-0.1,0-0.1-0.1-0.2c0-0.1,0-0.1-0.1-0.2c0-0.1,0-0.1-0.1-0.2c0-0.1,0-0.1-0.1-0.2c0-0.1-0.1-0.1-0.1-0.2
	c0,0,0,0,0-0.1l0,0c0,0,0,0,0,0c0,0,0-0.1-0.1-0.1c0-0.1-0.1-0.1-0.1-0.2c0-0.1-0.1-0.1-0.1-0.2c0-0.1-0.1-0.1-0.1-0.2
	c0-0.1-0.1-0.1-0.1-0.2c0,0,0,0,0-0.1c0,0,0,0,0,0c0,0,0-0.1-0.1-0.1c0-0.1-0.1-0.1-0.1-0.2c0-0.1-0.1-0.2-0.1-0.2
	c0-0.1-0.1-0.2-0.1-0.2c0-0.1-0.1-0.2-0.1-0.2c0-0.1-0.1-0.2-0.1-0.2c0-0.1-0.1-0.2-0.1-0.2c-0.1-0.1-0.1-0.2-0.2-0.2
	c-0.1-0.1-0.1-0.2-0.2-0.2c0,0,0,0,0,0c0,0,0,0,0,0c0-0.1-0.1-0.1-0.1-0.2c-0.1-0.1-0.1-0.2-0.2-0.3s-0.1-0.2-0.2-0.3
	c0-0.1-0.1-0.1-0.1-0.2c0,0,0,0,0,0c0,0,0,0,0,0c0,0,0-0.1-0.1-0.1c-0.1-0.1-0.1-0.2-0.2-0.3c-0.1-0.1-0.2-0.2-0.3-0.4
	c0-0.1-0.1-0.1-0.1-0.2c0,0,0-0.1-0.1-0.1c0,0-0.1-0.1-0.1-0.1c-0.1-0.1-0.2-0.2-0.3-0.4c-0.1-0.1-0.2-0.2-0.3-0.4c0,0,0,0,0,0
	c0,0,0,0-0.1-0.1c-0.1-0.1-0.2-0.2-0.3-0.4c-0.2-0.2-0.3-0.3-0.5-0.5c0,0,0,0,0,0c0,0,0,0,0,0c-0.1-0.1-0.3-0.3-0.4-0.4
	c-0.2-0.1-0.3-0.3-0.5-0.4c-0.2-0.2-0.4-0.4-0.6-0.5c-0.1-0.1-0.1-0.1-0.2-0.2c-0.1-0.1-0.1-0.1-0.2-0.2c-0.1-0.1-0.1-0.1-0.2-0.2
	c-0.2-0.2-0.4-0.3-0.6-0.5c0,0,0,0,0,0c0,0,0,0,0,0s0,0,0,0c-0.2-0.2-0.5-0.3-0.7-0.5c-0.1-0.1-0.2-0.1-0.3-0.2c0,0,0,0,0,0
	c0,0,0,0,0,0c-0.1-0.1-0.3-0.2-0.4-0.2c-0.1-0.1-0.3-0.1-0.4-0.2c-0.1,0-0.1-0.1-0.2-0.1c0,0,0,0,0,0c0,0,0,0,0,0c0,0-0.1,0-0.1-0.1
	c-0.1-0.1-0.2-0.1-0.3-0.2c-0.1-0.1-0.2-0.1-0.3-0.2c-0.1,0-0.2-0.1-0.3-0.1c0,0,0,0,0,0c0,0,0,0,0,0c-0.1,0-0.2-0.1-0.3-0.1
	c-0.1,0-0.2-0.1-0.3-0.1c-0.1,0-0.2-0.1-0.3-0.1c-0.1,0-0.2-0.1-0.3-0.1c0,0,0,0,0,0c0,0,0,0,0,0l0,0c-0.1,0-0.2-0.1-0.3-0.1
	c-0.1,0-0.2-0.1-0.2-0.1c-0.1,0-0.2-0.1-0.2-0.1c-0.1,0-0.2-0.1-0.2-0.1c0,0-0.1,0-0.1,0c0,0,0,0,0,0c0,0-0.1,0-0.1,0
	c-0.1,0-0.2-0.1-0.2-0.1c-0.1,0-0.2-0.1-0.2-0.1c-0.1,0-0.2,0-0.2-0.1c-0.1,0-0.2,0-0.2-0.1c0,0,0,0,0,0c0,0,0,0,0,0c0,0,0,0,0,0
	c0,0,0,0,0,0c-0.1,0-0.1,0-0.2-0.1c-0.1,0-0.1,0-0.2-0.1c-0.1,0-0.1,0-0.2-0.1c-0.1,0-0.1,0-0.2-0.1c-0.1,0-0.1,0-0.2-0.1
	c-0.1,0-0.1,0-0.2,0c0,0,0,0,0,0c0,0,0,0,0,0c-0.1,0-0.1,0-0.2,0c-0.1,0-0.1,0-0.2,0c-0.1,0-0.1,0-0.2,0c-0.1,0-0.1,0-0.2,0
	c-0.1,0-0.1,0-0.2,0c0,0-0.1,0-0.1,0c0,0,0,0,0,0l0,0c0,0,0,0-0.1,0c-0.1,0-0.1,0-0.2,0c-0.1,0-0.1,0-0.2,0c-0.1,0-0.1,0-0.2,0
	c-0.1,0-0.1,0-0.2,0c-0.1,0-0.1,0-0.2,0c0,0-0.1,0-0.1,0l0,0c0,0,0,0-0.1,0c-0.1,0-0.1,0-0.2,0c-0.1,0-0.1,0-0.2,0s-0.1,0-0.2,0
	c-0.1,0-0.1,0-0.2,0c-0.1,0-0.1,0-0.2,0c-0.1,0-0.1,0-0.2,0c0,0,0,0,0,0h0c0,0,0,0,0,0c-0.1,0-0.1,0-0.2,0c-0.1,0-0.1,0-0.2,0
	c-0.1,0-0.1,0-0.2,0c-0.1,0-0.1,0-0.2,0c-0.1,0-0.1,0-0.2,0c-0.1,0-0.1,0-0.2,0c0,0,0,0,0,0h0c-0.1,0-0.1,0-0.2,0
	c-0.1,0-0.1,0-0.2,0c-0.1,0-0.1,0-0.2,0c-0.1,0-0.1,0-0.2,0c-0.1,0-0.1,0-0.2,0c-0.1,0-0.1,0-0.2,0c0,0,0,0-0.1,0h0c0,0,0,0,0,0
	c0,0-0.1,0-0.1,0c-0.1,0-0.1,0-0.2,0c-0.1,0-0.1,0-0.2,0c-0.1,0-0.1,0-0.2,0c-0.1,0-0.1,0-0.2,0c-0.1,0-0.1,0-0.2,0c0,0-0.1,0-0.1,0
	c0,0,0,0,0,0c0,0-0.1,0-0.1,0c-0.1,0-0.1,0-0.2,0c-0.1,0-0.1,0-0.2,0c-0.1,0-0.1,0-0.2,0c-0.1,0-0.1,0-0.2,0c-0.1,0-0.1,0-0.2,0l0,0
	c0,0,0,0,0,0c0,0,0,0,0,0c0,0,0,0,0,0c-0.1,0-0.1,0-0.2,0c-0.1,0-0.1,0-0.2,0c-0.1,0-0.1,0-0.2,0.1c-0.1,0-0.1,0-0.2,0.1
	c-0.1,0-0.1,0-0.2,0.1c-0.1,0-0.1,0-0.2,0.1l0,0c0,0,0,0,0,0c-0.1,0-0.1,0-0.2,0.1c-0.1,0-0.1,0-0.2,0.1c-0.1,0-0.2,0.1-0.2,0.1
	c-0.1,0-0.2,0.1-0.2,0.1c-0.1,0-0.1,0.1-0.2,0.1c-0.1,0-0.1,0.1-0.2,0.1c-0.1,0-0.2,0.1-0.3,0.1c-0.1,0-0.2,0.1-0.3,0.1
	c-0.1,0-0.2,0.1-0.2,0.1c0,0-0.1,0-0.1,0.1c0,0,0,0,0,0c0,0-0.1,0-0.1,0.1c-0.1,0.1-0.2,0.1-0.3,0.2c-0.1,0.1-0.2,0.1-0.3,0.2
	c-0.1,0.1-0.2,0.1-0.3,0.2c-0.1,0.1-0.2,0.1-0.3,0.2c-0.1,0.1-0.2,0.2-0.4,0.3c-0.1,0.1-0.2,0.2-0.4,0.3c0,0-0.1,0.1-0.1,0.1
	c-0.1,0.1-0.3,0.2-0.4,0.3c-0.1,0.1-0.2,0.1-0.3,0.2c0,0,0,0-0.1,0.1c0,0,0,0-0.1,0.1c-0.2,0.1-0.3,0.3-0.4,0.5
	c-0.1,0.1-0.2,0.2-0.2,0.2c0,0,0,0,0,0c-0.2,0.3-0.4,0.5-0.6,0.8c-18.2,24.5-36.3,48.9-54.5,73.4c0.2-0.3,0.4-0.5,0.7-0.8
	c0.1-0.1,0.2-0.2,0.2-0.2c0.2-0.2,0.3-0.3,0.5-0.5c0.1-0.1,0.2-0.2,0.3-0.3c0.2-0.1,0.4-0.3,0.5-0.4c0.1-0.1,0.3-0.2,0.4-0.2
	c0.2-0.1,0.5-0.3,0.7-0.4c0.4-0.2,0.7-0.3,1.1-0.5c0,0,0,0,0,0c0.4-0.1,0.8-0.3,1.2-0.4c0,0,0,0,0,0c0.4-0.1,0.9-0.2,1.3-0.3
	c0.5-0.1,0.9-0.2,1.4-0.2c0.4,0,0.9-0.1,1.4-0.1c0,0,0,0,0,0c0.5,0,0.9,0,1.4,0c0,0,0,0,0,0c0.5,0,0.9,0,1.4,0.1l0,0
	c0.5,0,1,0.1,1.5,0.2c0.5,0.1,1,0.2,1.5,0.3c0,0,0,0,0,0c0.5,0.1,1,0.2,1.5,0.4c0,0,0,0,0,0c0.5,0.1,1,0.3,1.5,0.4c0,0,0,0,0,0
	c0.5,0.2,1,0.3,1.5,0.5c0.5,0.2,1,0.4,1.4,0.6c0,0,0,0,0,0c0.5,0.2,1,0.4,1.4,0.6c0.5,0.2,1,0.5,1.4,0.7c0,0,0,0,0,0
	c0.5,0.2,0.9,0.5,1.4,0.7c0,0,0.1,0,0.1,0.1c0.4,0.3,0.9,0.5,1.3,0.8c0,0,0,0,0,0c0.5,0.3,0.9,0.6,1.4,0.9c0,0,0,0,0,0
	c0.4,0.3,0.8,0.5,1.2,0.8c0.1,0.1,0.2,0.1,0.3,0.2c0.4,0.3,0.8,0.6,1.2,0.9c0.4,0.3,0.8,0.7,1.3,1.1c0,0,0,0,0.1,0
	c0.4,0.3,0.8,0.7,1.2,1.1c0,0,0.1,0.1,0.1,0.1c0.4,0.4,0.7,0.7,1.1,1.1c0,0,0.1,0.1,0.1,0.1c0.4,0.4,0.7,0.7,1,1.1c0,0,0,0,0,0
	c0.3,0.4,0.7,0.8,1,1.2c0,0,0,0,0,0c0.6,0.8,1.2,1.6,1.7,2.4c0,0,0,0,0,0c0.3,0.4,0.5,0.8,0.7,1.2c0,0,0,0,0,0
	c0.2,0.4,0.4,0.8,0.6,1.2c0,0,0,0,0,0c0.2,0.4,0.4,0.8,0.5,1.2c0,0,0,0,0,0c0.2,0.4,0.3,0.8,0.5,1.2c0,0,0,0,0,0
	c0.1,0.4,0.3,0.8,0.4,1.2c0,0,0,0,0,0c0.1,0.4,0.2,0.8,0.3,1.2c0,0,0,0,0,0c0.1,0.4,0.1,0.8,0.2,1.1v0c0,0.4,0.1,0.7,0.1,1.1
	c0,0,0,0,0,0c0,0.4,0,0.7,0,1.1c0,0.4-0.1,0.7-0.1,1.1c0,0,0,0,0,0c-0.1,0.3-0.1,0.7-0.2,1c-0.1,0.3-0.2,0.6-0.3,1l0,0
	c-0.1,0.3-0.3,0.6-0.4,0.9l44.4-79.8c0-0.1,0.1-0.1,0.1-0.2c0-0.1,0.1-0.1,0.1-0.2c0-0.1,0.1-0.1,0.1-0.2c0-0.1,0.1-0.1,0.1-0.2
	c0-0.1,0.1-0.2,0.1-0.2v0c0,0,0,0,0,0l0,0c0-0.1,0.1-0.1,0.1-0.2c0-0.1,0.1-0.2,0.1-0.2c0-0.1,0.1-0.2,0.1-0.2
	c0-0.1,0.1-0.1,0.1-0.2c0-0.1,0-0.1,0.1-0.2c0-0.1,0-0.1,0.1-0.2c0-0.1,0-0.1,0.1-0.2c0-0.1,0-0.1,0.1-0.2c0,0,0-0.1,0-0.1l0,0
	c0,0,0,0,0,0c0,0,0,0,0-0.1c0-0.1,0-0.1,0-0.2c0-0.1,0-0.1,0-0.2c0,0,0-0.1,0-0.1c0,0,0-0.1,0-0.1c0,0,0-0.1,0-0.1c0,0,0-0.1,0-0.1
	c0,0,0,0,0-0.1c0,0,0,0,0-0.1c0,0,0,0,0-0.1c0,0,0,0,0-0.1c0-0.1,0-0.1,0-0.2c0-0.1,0-0.1,0-0.2c0-0.1,0-0.1,0-0.2
	c0-0.1,0-0.1,0-0.2c0,0,0,0,0-0.1c0,0,0,0,0,0c0,0,0-0.1,0-0.1c0-0.1,0-0.1,0-0.2c0-0.1,0-0.1,0-0.2c0-0.1,0-0.1,0-0.2
	c0-0.1,0-0.1,0-0.2c0-0.1,0-0.1,0-0.2c0-0.1,0-0.1,0-0.2c0-0.1,0-0.1,0-0.2C108.8,45.6,108.8,45.6,108.8,45.5z"/>
<linearGradient id="SVGID_5_" gradientUnits="userSpaceOnUse" x1="34.2535" y1="130.5439" x2="53.1875" y2="102.1429">
	<stop  offset="0.1022" style="stop-color:#BBBBBB"/>
	<stop  offset="0.3882" style="stop-color:#C2C2C2"/>
	<stop  offset="1" style="stop-color:#CDCDCD"/>
</linearGradient>
<path class="st4" d="M63.5,123.3c-0.4-1.6-1.1-3.2-2-4.8c-0.9-1.6-2.1-3.3-3.4-4.8c-1.4-1.6-3-3.1-4.7-4.5c-0.9-0.7-1.7-1.3-2.7-2
	c-0.9-0.6-1.8-1.2-2.8-1.7c-0.9-0.5-1.9-1-2.9-1.5c-1-0.4-1.9-0.8-2.9-1.2c-1-0.4-2.1-0.7-3.1-1c-1-0.3-2-0.5-3-0.6
	c-1-0.2-2-0.2-2.9-0.3c-0.9,0-1.9,0-2.8,0.1c-1.7,0.2-3.2,0.6-4.6,1.2c-1.3,0.6-2.4,1.4-3.3,2.3c-0.9,0.9-1.5,2-2,3.3
	c-0.4,1.2-0.6,2.6-0.5,4c0.1,1.4,0.4,2.9,1,4.5c0.5,1.5,1.3,3,2.3,4.5c0.9,1.5,2.1,3,3.4,4.4c1.3,1.4,2.8,2.8,4.4,4
	c0.8,0.6,1.6,1.2,2.4,1.7c0.8,0.5,1.7,1.1,2.5,1.6c0.8,0.5,1.7,0.9,2.6,1.3c0.9,0.4,1.7,0.8,2.6,1.1c0.9,0.4,1.9,0.7,2.8,1
	c0.9,0.3,1.9,0.5,2.8,0.7c0.9,0.2,1.8,0.3,2.7,0.4c0.9,0.1,1.8,0.1,2.7,0.1c1.7,0,3.2-0.3,4.6-0.7c1.4-0.4,2.6-1,3.7-1.8
	c1-0.8,1.9-1.8,2.5-2.9c0.6-1.1,1-2.4,1.1-3.8C64.1,126.3,63.9,124.8,63.5,123.3z M48.2,123.4c-0.2,0.4-0.4,0.7-0.7,0.9
	c-0.3,0.3-0.7,0.5-1.1,0.6c-0.4,0.2-0.9,0.2-1.5,0.3c-0.3,0-0.6,0-0.9,0c-0.3,0-0.6-0.1-0.9-0.1c-0.3-0.1-0.6-0.1-0.9-0.2
	c-0.3-0.1-0.6-0.2-0.9-0.3c-0.3-0.1-0.6-0.2-0.9-0.4c-0.3-0.1-0.6-0.3-0.8-0.4c-0.3-0.2-0.5-0.3-0.8-0.5c-0.3-0.2-0.5-0.4-0.8-0.6
	c-0.5-0.4-1-0.9-1.4-1.3c-0.4-0.5-0.8-0.9-1.1-1.4c-0.3-0.5-0.5-1-0.7-1.5c-0.2-0.5-0.2-1-0.3-1.4c0-0.5,0.1-0.9,0.2-1.3
	c0.2-0.4,0.4-0.7,0.7-1c0.3-0.3,0.7-0.5,1.1-0.7c0.4-0.2,0.9-0.3,1.4-0.3c0.3,0,0.6,0,0.9,0c0.3,0,0.6,0.1,0.9,0.1
	c0.3,0.1,0.6,0.1,0.9,0.2c0.3,0.1,0.6,0.2,0.9,0.3c0.3,0.1,0.6,0.2,0.9,0.4c0.3,0.1,0.6,0.3,0.9,0.4c0.3,0.2,0.6,0.3,0.8,0.5
	c0.3,0.2,0.5,0.4,0.8,0.6c0.5,0.4,1,0.9,1.5,1.4c0.4,0.5,0.8,1,1.1,1.5c0.3,0.5,0.5,1,0.7,1.5c0.1,0.5,0.2,1,0.2,1.4
	C48.5,122.6,48.4,123,48.2,123.4z"/>
</svg>
