<?xml version="1.0" encoding="utf-8"?>
<!-- Generator: Adobe Illustrator 23.0.1, SVG Export Plug-In . SVG Version: 6.00 Build 0)  -->
<svg version="1.1" id="Layer_1" xmlns="http://www.w3.org/2000/svg" xmlns:xlink="http://www.w3.org/1999/xlink" x="0px" y="0px"
	 viewBox="0 0 200 200" style="enable-background:new 0 0 200 200;" xml:space="preserve">
<style type="text/css">
	.st0{fill-rule:evenodd;clip-rule:evenodd;fill:#CCCCCC;}
	.st1{fill:#CCCCCC;}
	.st2{fill:#FF6300;}
</style>
<polygon class="st0" points="89.6,47.4 41.1,134.9 144,175.4 176.8,76 "/>
<g>
	<path class="st1" d="M96,46L96,46c-0.1,0.2-0.3,0.4-0.5,0.6c0,0,0,0-0.1,0.1c-0.2,0.2-0.4,0.3-0.6,0.5c0,0-0.1,0-0.1,0.1
		c-0.2,0.1-0.5,0.3-0.7,0.4l0,0c-0.3,0.1-0.6,0.2-0.9,0.3l0,0l0,0c-0.2,0-0.5,0.1-0.7,0.1s-0.5,0-0.7,0l0,0c-0.2,0-0.5,0-0.7-0.1
		l0,0c-0.2,0-0.5-0.1-0.7-0.2c-0.2-0.1-0.4-0.1-0.7-0.2l0,0l0,0c-0.2-0.1-0.4-0.2-0.6-0.3l0,0c-0.2-0.1-0.4-0.2-0.6-0.4l0,0
		c-0.2-0.1-0.4-0.3-0.6-0.4c-0.2-0.2-0.4-0.3-0.5-0.5l0,0c-0.2-0.2-0.3-0.4-0.5-0.6l0,0c-0.1-0.2-0.3-0.4-0.4-0.6l0,0
		c-0.1-0.2-0.2-0.4-0.3-0.6l0,0c-0.1-0.2-0.2-0.4-0.2-0.6l0,0c-0.1-0.2-0.1-0.4-0.2-0.6l0,0c-0.1-0.4-0.1-0.9,0-1.3
		c0-0.2,0-0.3,0.1-0.5l0,0c0-0.1,0.1-0.3,0.1-0.4l0,0c0.1-0.1,0.1-0.3,0.2-0.4l0,0c0.1-0.1,0.1-0.3,0.2-0.4
		c-17,25.2-34,50.4-51,75.6c0,0,0,0.1-0.1,0.1v0.1v0.1v0.1c0,0,0,0,0,0.1l0,0l0,0l0,0v0.1v0.1v0.1v0.1l0,0l0,0l0,0l0,0v0.1v0.1
		c0,0,0,0,0,0.1c0,0,0,0,0,0.1c0,0,0,0,0,0.1c0,0,0,0,0,0.1c0,0,0,0,0,0.1c0,0,0,0,0,0.1c0,0,0,0,0,0.1c0,0,0,0,0,0.1l0,0l0,0l0,0
		l0,0l0,0l0,0l0,0l0,0c0,0,0,0,0,0.1c0,0,0,0,0,0.1c0,0,0,0,0,0.1c0,0,0,0,0,0.1c0,0,0,0,0,0.1c0,0,0,0,0,0.1c0,0,0,0,0,0.1
		c0,0,0,0,0,0.1c0,0,0,0,0,0.1c0,0,0,0,0,0.1l0,0l0,0l0,0c0,0,0,0,0,0.1c0,0,0,0,0,0.1c0,0,0,0,0,0.1c0,0,0,0,0,0.1c0,0,0,0,0,0.1
		c0,0,0,0,0,0.1c0,0,0,0,0,0.1c0,0,0,0,0,0.1c0,0,0,0,0,0.1c0,0,0,0,0,0.1c0,0,0,0,0,0.1l0,0l0,0l0,0l0,0c0,0,0,0,0,0.1
		c0,0,0,0,0,0.1c0,0,0,0,0,0.1c0,0,0,0,0,0.1c0,0,0,0,0,0.1c0,0,0,0,0,0.1s0,0,0,0.1c0,0,0,0,0,0.1s0,0,0,0.1c0,0,0,0,0,0.1
		c0,0,0,0,0,0.1l0,0l0,0l0,0c0,0,0,0,0,0.1c0,0,0,0,0,0.1c0,0,0,0,0,0.1c0,0,0,0,0,0.1c0,0,0,0,0,0.1c0,0,0,0,0,0.1c0,0,0,0,0,0.1
		c0,0,0,0,0,0.1c0,0,0,0,0,0.1c0,0,0,0,0,0.1l0,0l0,0l0,0l0,0c0,0,0,0,0,0.1c0,0,0,0,0,0.1c0,0,0,0,0,0.1c0,0,0,0,0,0.1
		c0,0,0,0,0.1,0.1c0,0,0,0,0.1,0.1c0,0,0,0.1,0.1,0.1c0,0,0,0.1,0.1,0.1c0,0,0,0,0.1,0.1l0,0c0,0,0,0,0.1,0.1c0,0,0,0.1,0.1,0.1
		c0,0,0,0.1,0.1,0.1c0,0,0,0.1,0.1,0.1c0,0,0,0.1,0.1,0.1l0.1,0.1l0.1,0.1c0,0,0,0,0.1,0.1l0,0l0,0l0,0l0.1,0.1l0.1,0.1l0.1,0.1
		l0.1,0.1l0.1,0.1l0,0l0,0c0.1,0,0.1,0.1,0.2,0.1c0.1,0.1,0.1,0.1,0.2,0.2c0.1,0.1,0.1,0.1,0.2,0.2c0.1,0.1,0.1,0.1,0.2,0.2
		c0.1,0.1,0.2,0.1,0.3,0.2s0.2,0.1,0.3,0.2s0.2,0.1,0.3,0.2s0.2,0.1,0.3,0.2c0.1,0,0.1,0.1,0.1,0.1l0.1,0.1c0.1,0,0.1,0.1,0.2,0.1
		h0.1l0,0l0,0c0,0,0,0,0.1,0c0,0,0.1,0,0.1,0.1c0,0,0.1,0,0.1,0.1c0,0,0.1,0,0.1,0.1c0,0,0.1,0,0.1,0.1c0,0,0.1,0,0.1,0.1
		c0,0,0.1,0,0.1,0.1h0.1h0.1h0.1h0.1h0.1h0.1h0.1H41h0.1h0.1l0,0l0,0l0,0l0,0h0.1h0.1h0.1h0.1h0.1h0.1h0.1H42h0.1h0.1h0.1l0,0l0,0
		l0,0l0,0c0,0,0,0,0.1,0c0,0,0,0,0.1,0c0,0,0,0,0.1,0c0,0,0,0,0.1,0c0,0,0,0,0.1,0s0,0,0.1,0c0,0,0,0,0.1,0c0,0,0,0,0.1,0
		c0,0,0,0,0.1,0c0,0,0,0,0.1,0c0,0,0,0,0.1,0c0,0,0,0,0.1,0l0,0l0,0l0,0c0,0,0,0,0.1,0c0,0,0,0,0.1,0c0,0,0,0,0.1,0c0,0,0,0,0.1,0
		c0,0,0,0,0.1,0c0,0,0,0,0.1,0c0,0,0,0,0.1,0c0,0,0,0,0.1,0c0,0,0,0,0.1,0c0,0,0,0,0.1,0c0,0,0,0,0.1,0c0,0,0,0,0.1,0l0,0l0,0l0,0
		l0,0c0,0,0,0,0.1,0c0,0,0,0,0.1,0c0,0,0,0,0.1,0l0,0c0,0,0,0,0.1,0c0,0,0,0,0.1,0c0,0,0,0,0.1,0c0,0,0,0,0.1,0c0,0,0,0,0.1,0
		c0,0,0,0,0.1,0c0,0,0,0,0.1,0c0,0,0,0,0.1,0l0,0l0,0l0,0l0,0l0,0l0,0l0,0c0,0,0,0,0.1,0c0,0,0,0,0.1,0c0,0,0,0,0.1,0c0,0,0,0,0.1,0
		h0.1h0.1h0.1h0.1h0.1h0.1h0.1H47h0.1l0,0l0,0h0.1h0.1h0.1h0.1c0,0,0,0,0.1,0l0,0l0,0h0.1h0.1c0,0,0,0,0.1,0H48
		c0.1,0,0.1-0.1,0.1-0.1s0.1,0,0.1-0.1c0,0,0,0,0.1,0c0.1-0.1,0.2-0.1,0.2-0.2c0,0,0.1,0,0.1-0.1l0,0l0,0c0.1-0.1,0.1-0.1,0.2-0.2
		l0.1-0.1l0,0c0.1-0.1,0.2-0.2,0.3-0.3C64,97.8,80,71.9,96,46L96,46L96,46z"/>
	<path class="st1" d="M44.9,125.2L44.9,125.2L44.9,125.2z"/>
</g>
<path class="st1" d="M108.8,45.5c0-0.1,0-0.1,0-0.2c0-0.1,0-0.1,0-0.2c0-0.1,0-0.1,0-0.2l0,0l0,0v-0.1c0-0.1,0-0.1,0-0.2
	c0-0.1,0-0.1,0-0.2c0-0.1,0-0.1,0-0.2c0-0.1,0-0.1,0-0.2c0-0.1,0-0.1,0-0.2l0,0l0,0l0,0v-0.1c0-0.1,0-0.1,0-0.2l0,0
	c0-0.1,0-0.1,0-0.2c0-0.1,0-0.1,0-0.2c0-0.1,0-0.1,0-0.2s0-0.1,0-0.2l0,0l0,0v-0.1c0-0.1,0-0.1,0-0.2c0-0.1,0-0.1,0-0.2
	c0-0.1,0-0.1,0-0.2c0-0.1,0-0.1,0-0.2c0-0.1,0-0.1,0-0.2l0,0l0,0v-0.1c0-0.1,0-0.1-0.1-0.2c0-0.1,0-0.1-0.1-0.2c0-0.1,0-0.1-0.1-0.2
	c0-0.1,0-0.1-0.1-0.2c0-0.1,0-0.1-0.1-0.2c0-0.1,0-0.1-0.1-0.2c0-0.1,0-0.1-0.1-0.2c0-0.1,0-0.1-0.1-0.2c0-0.1,0-0.1-0.1-0.2
	c0-0.1-0.1-0.1-0.1-0.2c0,0,0,0,0-0.1l0,0l0,0c0,0,0-0.1-0.1-0.1c0-0.1-0.1-0.1-0.1-0.2c0-0.1-0.1-0.1-0.1-0.2
	c0-0.1-0.1-0.1-0.1-0.2c0-0.1-0.1-0.1-0.1-0.2c0,0,0,0,0-0.1l0,0c0,0,0-0.1-0.1-0.1c0-0.1-0.1-0.1-0.1-0.2c0-0.1-0.1-0.2-0.1-0.2
	c0-0.1-0.1-0.2-0.1-0.2c0-0.1-0.1-0.2-0.1-0.2c0-0.1-0.1-0.2-0.1-0.2c0-0.1-0.1-0.2-0.1-0.2c-0.1-0.1-0.1-0.2-0.2-0.2
	c-0.1-0.1-0.1-0.2-0.2-0.2l0,0l0,0c0-0.1-0.1-0.1-0.1-0.2c-0.1-0.1-0.1-0.2-0.2-0.3s-0.1-0.2-0.2-0.3c0-0.1-0.1-0.1-0.1-0.2l0,0l0,0
	c0,0,0-0.1-0.1-0.1c-0.1-0.1-0.1-0.2-0.2-0.3s-0.2-0.2-0.3-0.4c0-0.1-0.1-0.1-0.1-0.2c0,0,0-0.1-0.1-0.1l-0.1-0.1
	c-0.1-0.1-0.2-0.2-0.3-0.4c-0.1-0.1-0.2-0.2-0.3-0.4l0,0c0,0,0,0-0.1-0.1s-0.2-0.2-0.3-0.4c-0.2-0.2-0.3-0.3-0.5-0.5l0,0l0,0
	c-0.1-0.1-0.3-0.3-0.4-0.4c-0.2-0.1-0.3-0.3-0.5-0.4c-0.2-0.2-0.4-0.4-0.6-0.5c-0.1-0.1-0.1-0.1-0.2-0.2s-0.1-0.1-0.2-0.2
	s-0.1-0.1-0.2-0.2c-0.2-0.2-0.4-0.3-0.6-0.5l0,0l0,0l0,0c-0.2-0.2-0.5-0.3-0.7-0.5c-0.1-0.1-0.2-0.1-0.3-0.2l0,0l0,0
	c-0.1-0.1-0.3-0.2-0.4-0.2c-0.1-0.1-0.3-0.1-0.4-0.2c-0.1,0-0.1-0.1-0.2-0.1l0,0l0,0c0,0-0.1,0-0.1-0.1c-0.1-0.1-0.2-0.1-0.3-0.2
	c-0.1-0.1-0.2-0.1-0.3-0.2c-0.1,0-0.2-0.1-0.3-0.1l0,0l0,0c-0.1,0-0.2-0.1-0.3-0.1c-0.1,0-0.2-0.1-0.3-0.1c-0.1,0-0.2-0.1-0.3-0.1
	c-0.1,0-0.2-0.1-0.3-0.1l0,0l0,0l0,0c-0.1,0-0.2-0.1-0.3-0.1c-0.1,0-0.2-0.1-0.2-0.1c-0.1,0-0.2-0.1-0.2-0.1c-0.1,0-0.2-0.1-0.2-0.1
	h-0.1l0,0h-0.1c-0.1,0-0.2-0.1-0.2-0.1c-0.1,0-0.2-0.1-0.2-0.1c-0.1,0-0.2,0-0.2-0.1c-0.1,0-0.2,0-0.2-0.1l0,0l0,0l0,0l0,0
	c-0.1,0-0.1,0-0.2-0.1c-0.1,0-0.1,0-0.2-0.1c-0.1,0-0.1,0-0.2-0.1c-0.1,0-0.1,0-0.2-0.1c-0.1,0-0.1,0-0.2-0.1c-0.1,0-0.1,0-0.2,0
	l0,0l0,0c-0.1,0-0.1,0-0.2,0s-0.1,0-0.2,0s-0.1,0-0.2,0s-0.1,0-0.2,0s-0.1,0-0.2,0h-0.1l0,0l0,0c0,0,0,0-0.1,0s-0.1,0-0.2,0
	s-0.1,0-0.2,0s-0.1,0-0.2,0s-0.1,0-0.2,0s-0.1,0-0.2,0h-0.1l0,0c0,0,0,0-0.1,0s-0.1,0-0.2,0s-0.1,0-0.2,0s-0.1,0-0.2,0s-0.1,0-0.2,0
	s-0.1,0-0.2,0s-0.1,0-0.2,0l0,0l0,0l0,0c-0.1,0-0.1,0-0.2,0s-0.1,0-0.2,0s-0.1,0-0.2,0s-0.1,0-0.2,0s-0.1,0-0.2,0s-0.1,0-0.2,0l0,0
	l0,0c-0.1,0-0.1,0-0.2,0s-0.1,0-0.2,0s-0.1,0-0.2,0s-0.1,0-0.2,0s-0.1,0-0.2,0s-0.1,0-0.2,0c0,0,0,0-0.1,0l0,0l0,0H87
	c-0.1,0-0.1,0-0.2,0s-0.1,0-0.2,0s-0.1,0-0.2,0s-0.1,0-0.2,0s-0.1,0-0.2,0h-0.1l0,0h-0.1c-0.1,0-0.1,0-0.2,0s-0.1,0-0.2,0
	s-0.1,0-0.2,0s-0.1,0-0.2,0s-0.1,0-0.2,0l0,0l0,0l0,0l0,0c-0.1,0-0.1,0-0.2,0s-0.1,0-0.2,0s-0.1,0-0.2,0.1c-0.1,0-0.1,0-0.2,0.1
	c-0.1,0-0.1,0-0.2,0.1c-0.1,0-0.1,0-0.2,0.1l0,0l0,0c-0.1,0-0.1,0-0.2,0.1c-0.1,0-0.1,0-0.2,0.1c-0.1,0-0.2,0.1-0.2,0.1
	c-0.1,0-0.2,0.1-0.2,0.1c-0.1,0-0.1,0.1-0.2,0.1s-0.1,0.1-0.2,0.1s-0.2,0.1-0.3,0.1c-0.1,0-0.2,0.1-0.3,0.1c-0.1,0-0.2,0.1-0.2,0.1
	s-0.1,0-0.1,0.1l0,0c0,0-0.1,0-0.1,0.1c-0.1,0.1-0.2,0.1-0.3,0.2c-0.1,0.1-0.2,0.1-0.3,0.2c-0.1,0.1-0.2,0.1-0.3,0.2
	c-0.1,0.1-0.2,0.1-0.3,0.2c-0.1,0.1-0.2,0.2-0.4,0.3c-0.1,0.1-0.2,0.2-0.4,0.3l-0.1,0.1c-0.1,0.1-0.3,0.2-0.4,0.3
	c-0.1,0.1-0.2,0.1-0.3,0.2c0,0,0,0-0.1,0.1c0,0,0,0-0.1,0.1c-0.2,0.1-0.3,0.3-0.4,0.5c-0.1,0.1-0.2,0.2-0.2,0.2l0,0
	c-0.2,0.3-0.4,0.5-0.6,0.8C59,56.5,40.9,80.9,22.7,105.4c0.2-0.3,0.4-0.5,0.7-0.8c0.1-0.1,0.2-0.2,0.2-0.2c0.2-0.2,0.3-0.3,0.5-0.5
	c0.1-0.1,0.2-0.2,0.3-0.3c0.2-0.1,0.4-0.3,0.5-0.4s0.3-0.2,0.4-0.2c0.2-0.1,0.5-0.3,0.7-0.4c0.4-0.2,0.7-0.3,1.1-0.5l0,0
	c0.4-0.1,0.8-0.3,1.2-0.4l0,0c0.4-0.1,0.9-0.2,1.3-0.3c0.5-0.1,0.9-0.2,1.4-0.2c0.4,0,0.9-0.1,1.4-0.1l0,0c0.5,0,0.9,0,1.4,0l0,0
	c0.5,0,0.9,0,1.4,0.1l0,0c0.5,0,1,0.1,1.5,0.2s1,0.2,1.5,0.3l0,0c0.5,0.1,1,0.2,1.5,0.4l0,0c0.5,0.1,1,0.3,1.5,0.4l0,0
	c0.5,0.2,1,0.3,1.5,0.5s1,0.4,1.4,0.6l0,0c0.5,0.2,1,0.4,1.4,0.6c0.5,0.2,1,0.5,1.4,0.7l0,0c0.5,0.2,0.9,0.5,1.4,0.7
	c0,0,0.1,0,0.1,0.1c0.4,0.3,0.9,0.5,1.3,0.8l0,0c0.5,0.3,0.9,0.6,1.4,0.9l0,0c0.4,0.3,0.8,0.5,1.2,0.8c0.1,0.1,0.2,0.1,0.3,0.2
	c0.4,0.3,0.8,0.6,1.2,0.9s0.8,0.7,1.3,1.1c0,0,0,0,0.1,0c0.4,0.3,0.8,0.7,1.2,1.1l0.1,0.1c0.4,0.4,0.7,0.7,1.1,1.1l0.1,0.1
	c0.4,0.4,0.7,0.7,1,1.1l0,0c0.3,0.4,0.7,0.8,1,1.2l0,0c0.6,0.8,1.2,1.6,1.7,2.4l0,0c0.3,0.4,0.5,0.8,0.7,1.2l0,0
	c0.2,0.4,0.4,0.8,0.6,1.2l0,0c0.2,0.4,0.4,0.8,0.5,1.2l0,0c0.2,0.4,0.3,0.8,0.5,1.2l0,0c0.1,0.4,0.3,0.8,0.4,1.2l0,0
	c0.1,0.4,0.2,0.8,0.3,1.2l0,0c0.1,0.4,0.1,0.8,0.2,1.1l0,0c0,0.4,0.1,0.7,0.1,1.1l0,0c0,0.4,0,0.7,0,1.1c0,0.4-0.1,0.7-0.1,1.1l0,0
	c-0.1,0.3-0.1,0.7-0.2,1s-0.2,0.6-0.3,1l0,0c-0.1,0.3-0.3,0.6-0.4,0.9l44.4-79.8c0-0.1,0.1-0.1,0.1-0.2c0-0.1,0.1-0.1,0.1-0.2
	c0-0.1,0.1-0.1,0.1-0.2c0-0.1,0.1-0.1,0.1-0.2c0-0.1,0.1-0.2,0.1-0.2l0,0l0,0l0,0c0-0.1,0.1-0.1,0.1-0.2c0-0.1,0.1-0.2,0.1-0.2
	c0-0.1,0.1-0.2,0.1-0.2c0-0.1,0.1-0.1,0.1-0.2c0-0.1,0-0.1,0.1-0.2c0-0.1,0-0.1,0.1-0.2c0-0.1,0-0.1,0.1-0.2c0-0.1,0-0.1,0.1-0.2
	v-0.1l0,0l0,0c0,0,0,0,0-0.1s0-0.1,0-0.2c0-0.1,0-0.1,0-0.2v-0.1v-0.1v-0.1v-0.1c0,0,0,0,0-0.1c0,0,0,0,0-0.1c0,0,0,0,0-0.1
	c0,0,0,0,0-0.1s0-0.1,0-0.2c0-0.1,0-0.1,0-0.2c0-0.1,0-0.1,0-0.2c0-0.1,0-0.1,0-0.2c0,0,0,0,0-0.1l0,0v-0.1c0-0.1,0-0.1,0-0.2
	c0-0.1,0-0.1,0-0.2c0-0.1,0-0.1,0-0.2c0-0.1,0-0.1,0-0.2c0-0.1,0-0.1,0-0.2c0-0.1,0-0.1,0-0.2c0-0.1,0-0.1,0-0.2
	C108.8,45.6,108.8,45.6,108.8,45.5z"/>
<path class="st1" d="M63.5,123.3c-0.4-1.6-1.1-3.2-2-4.8c-0.9-1.6-2.1-3.3-3.4-4.8c-1.4-1.6-3-3.1-4.7-4.5c-0.9-0.7-1.7-1.3-2.7-2
	c-0.9-0.6-1.8-1.2-2.8-1.7c-0.9-0.5-1.9-1-2.9-1.5c-1-0.4-1.9-0.8-2.9-1.2c-1-0.4-2.1-0.7-3.1-1s-2-0.5-3-0.6c-1-0.2-2-0.2-2.9-0.3
	c-0.9,0-1.9,0-2.8,0.1c-1.7,0.2-3.2,0.6-4.6,1.2c-1.3,0.6-2.4,1.4-3.3,2.3s-1.5,2-2,3.3c-0.4,1.2-0.6,2.6-0.5,4s0.4,2.9,1,4.5
	c0.5,1.5,1.3,3,2.3,4.5c0.9,1.5,2.1,3,3.4,4.4s2.8,2.8,4.4,4c0.8,0.6,1.6,1.2,2.4,1.7s1.7,1.1,2.5,1.6s1.7,0.9,2.6,1.3
	c0.9,0.4,1.7,0.8,2.6,1.1c0.9,0.4,1.9,0.7,2.8,1c0.9,0.3,1.9,0.5,2.8,0.7c0.9,0.2,1.8,0.3,2.7,0.4c0.9,0.1,1.8,0.1,2.7,0.1
	c1.7,0,3.2-0.3,4.6-0.7c1.4-0.4,2.6-1,3.7-1.8c1-0.8,1.9-1.8,2.5-2.9c0.6-1.1,1-2.4,1.1-3.8C64.1,126.3,63.9,124.8,63.5,123.3z
	 M48.2,123.4c-0.2,0.4-0.4,0.7-0.7,0.9c-0.3,0.3-0.7,0.5-1.1,0.6c-0.4,0.2-0.9,0.2-1.5,0.3c-0.3,0-0.6,0-0.9,0
	c-0.3,0-0.6-0.1-0.9-0.1c-0.3-0.1-0.6-0.1-0.9-0.2c-0.3-0.1-0.6-0.2-0.9-0.3c-0.3-0.1-0.6-0.2-0.9-0.4c-0.3-0.1-0.6-0.3-0.8-0.4
	c-0.3-0.2-0.5-0.3-0.8-0.5s-0.5-0.4-0.8-0.6c-0.5-0.4-1-0.9-1.4-1.3c-0.4-0.5-0.8-0.9-1.1-1.4s-0.5-1-0.7-1.5s-0.2-1-0.3-1.4
	c0-0.5,0.1-0.9,0.2-1.3c0.2-0.4,0.4-0.7,0.7-1s0.7-0.5,1.1-0.7c0.4-0.2,0.9-0.3,1.4-0.3c0.3,0,0.6,0,0.9,0c0.3,0,0.6,0.1,0.9,0.1
	c0.3,0.1,0.6,0.1,0.9,0.2c0.3,0.1,0.6,0.2,0.9,0.3c0.3,0.1,0.6,0.2,0.9,0.4c0.3,0.1,0.6,0.3,0.9,0.4c0.3,0.2,0.6,0.3,0.8,0.5
	c0.3,0.2,0.5,0.4,0.8,0.6c0.5,0.4,1,0.9,1.5,1.4c0.4,0.5,0.8,1,1.1,1.5s0.5,1,0.7,1.5c0.1,0.5,0.2,1,0.2,1.4
	C48.5,122.6,48.4,123,48.2,123.4z"/>
<path class="st2" d="M187.1,136.8l-68.4-34.9L187,66.8c4.2-2.1,5.8-7.3,3.7-11.4c-2.1-4.2-7.3-5.8-11.4-3.7L100,92.4L20.6,51.9
	c-4.2-2.1-9.3-0.5-11.4,3.7c-2.1,4.2-0.5,9.3,3.7,11.4l68.4,34.9L13,137c-4.2,2.1-5.8,7.3-3.7,11.4c1.5,3,4.6,4.7,7.8,4.6
	c1.2,0,2.5-0.3,3.7-0.9l79.3-40.7l79.3,40.5c1.3,0.7,2.7,1,4.1,0.9c3-0.1,5.9-1.8,7.4-4.6C192.9,144.1,191.3,139,187.1,136.8z"/>
</svg>
