<?xml version="1.0" encoding="utf-8"?>
<!-- Generator: Adobe Illustrator 23.0.1, SVG Export Plug-In . SVG Version: 6.00 Build 0)  -->
<svg version="1.1" id="Layer_1" xmlns="http://www.w3.org/2000/svg" xmlns:xlink="http://www.w3.org/1999/xlink" x="0px" y="0px"
	 viewBox="0 0 500 200" style="enable-background:new 0 0 500 200;" xml:space="preserve">
<style type="text/css">
	.st0{fill:#F6B11A;}
	.st1{fill:#C18E2C;}
	.st2{fill:#F9F8F0;}
	.st3{fill:#FBCB0B;}
	.st4{fill:#231F20;}
</style>
<path class="st0" d="M346,100c0,53-43,96-96,96c-53,0-96-43-96-96c0-53,43-96,96-96C303,4,346,47,346,100z"/>
<path class="st1" d="M329.6,100c0,44-35.6,79.6-79.6,79.6c-44,0-79.6-35.6-79.6-79.6c0-44,35.6-79.6,79.6-79.6
	C294,20.4,329.6,56,329.6,100z"/>
<path class="st2" d="M324.7,100c0,41.2-33.4,74.7-74.7,74.7c-41.2,0-74.7-33.4-74.7-74.7s33.4-74.7,74.7-74.7
	C291.2,25.3,324.7,58.8,324.7,100z"/>
<path class="st3" d="M250,27.7c13.8,0,26.7,3.9,37.7,10.6l-0.4,1.1L250,100L250,27.7z"/>
<path class="st3" d="M285.1,36.9c12.1,6.7,21.5,16.4,27.8,27.6l-0.9,0.7L249.9,100L285.1,36.9z"/>
<path class="st3" d="M311.3,62.2c7.3,11.8,10.8,24.8,10.8,37.7l-1.1,0.2l-71.2,0.1L311.3,62.2z"/>
<g>
	<g>
		<path class="st4" d="M250,39.3c-0.4,0-0.7-0.3-0.7-0.7v-9.5c0-0.4,0.3-0.7,0.7-0.7c0.4,0,0.7,0.3,0.7,0.7v9.5
			C250.7,39,250.4,39.3,250,39.3z"/>
	</g>
	<g>
		<path class="st4" d="M250,171.6c-0.4,0-0.7-0.3-0.7-0.7v-9.5c0-0.4,0.3-0.7,0.7-0.7c0.4,0,0.7,0.3,0.7,0.7v9.5
			C250.7,171.2,250.4,171.6,250,171.6z"/>
	</g>
</g>
<g>
	<g>
		<path class="st4" d="M284.2,44.8c-0.1,0-0.1,0-0.2-0.1c-0.2-0.1-0.2-0.3-0.1-0.5l2.9-4.8c0.1-0.2,0.3-0.2,0.5-0.1
			c0.2,0.1,0.2,0.3,0.1,0.5l-2.9,4.8C284.4,44.7,284.3,44.8,284.2,44.8z"/>
	</g>
	<g>
		<path class="st4" d="M212.9,160.7c-0.1,0-0.1,0-0.2-0.1c-0.2-0.1-0.2-0.3-0.1-0.5l2.9-4.8c0.1-0.2,0.3-0.2,0.5-0.1
			c0.2,0.1,0.2,0.3,0.1,0.5l-2.9,4.8C213.1,160.6,213,160.7,212.9,160.7z"/>
	</g>
</g>
<g>
	<g>
		<path class="st4" d="M307,68.5c-0.1,0-0.2-0.1-0.3-0.2c-0.1-0.2,0-0.4,0.1-0.5l4.9-2.7c0.2-0.1,0.4,0,0.5,0.1
			c0.1,0.2,0,0.4-0.1,0.5l-4.9,2.7C307.1,68.5,307,68.5,307,68.5z"/>
	</g>
	<g>
		<path class="st4" d="M188.2,135c-0.1,0-0.2-0.1-0.3-0.2c-0.1-0.2,0-0.4,0.1-0.5l4.9-2.7c0.2-0.1,0.4,0,0.5,0.1
			c0.1,0.2,0,0.4-0.1,0.5l-4.9,2.7C188.3,134.9,188.2,135,188.2,135z"/>
	</g>
</g>
<g>
	<g>
		<path class="st4" d="M310.3,137.5c-0.1,0-0.1,0-0.2-0.1l-4.8-2.9c-0.2-0.1-0.2-0.3-0.1-0.5c0.1-0.2,0.3-0.2,0.5-0.1l4.8,2.9
			c0.2,0.1,0.2,0.3,0.1,0.5C310.6,137.4,310.5,137.5,310.3,137.5z"/>
	</g>
	<g>
		<path class="st4" d="M194.4,66.1c-0.1,0-0.1,0-0.2-0.1l-4.8-2.9c-0.2-0.1-0.2-0.3-0.1-0.5c0.1-0.2,0.3-0.2,0.5-0.1l4.8,2.9
			c0.2,0.1,0.2,0.3,0.1,0.5C194.6,66.1,194.5,66.1,194.4,66.1z"/>
	</g>
</g>
<g>
	<g>
		<path class="st4" d="M284.6,162.2c-0.1,0-0.2-0.1-0.3-0.2l-2.7-4.9c-0.1-0.2,0-0.4,0.1-0.5c0.2-0.1,0.4,0,0.5,0.1l2.7,4.9
			c0.1,0.2,0,0.4-0.1,0.5C284.7,162.2,284.7,162.2,284.6,162.2z"/>
	</g>
	<g>
		<path class="st4" d="M218.1,43.4c-0.1,0-0.2-0.1-0.3-0.2l-2.7-4.9c-0.1-0.2,0-0.4,0.1-0.5c0.2-0.1,0.4,0,0.5,0.1l2.7,4.9
			c0.1,0.2,0,0.4-0.1,0.5C218.2,43.4,218.2,43.4,218.1,43.4z"/>
	</g>
</g>
<g>
	<g>
		<path class="st4" d="M320.9,100.7h-9.5c-0.4,0-0.7-0.3-0.7-0.7s0.3-0.7,0.7-0.7h9.5c0.4,0,0.7,0.3,0.7,0.7
			S321.3,100.7,320.9,100.7z"/>
	</g>
	<g>
		<path class="st4" d="M188.7,100.7h-9.5c-0.4,0-0.7-0.3-0.7-0.7s0.3-0.7,0.7-0.7h9.5c0.4,0,0.7,0.3,0.7,0.7S189,100.7,188.7,100.7z
			"/>
	</g>
</g>
<path class="st3" d="M287.3,39.4"/>
</svg>
