<?xml version="1.0" encoding="utf-8"?>
<!-- Generator: Adobe Illustrator 23.0.1, SVG Export Plug-In . SVG Version: 6.00 Build 0)  -->
<svg version="1.1" id="Layer_1" xmlns="http://www.w3.org/2000/svg" xmlns:xlink="http://www.w3.org/1999/xlink" x="0px" y="0px"
	 viewBox="0 0 200 200" style="enable-background:new 0 0 200 200;" xml:space="preserve">
<style type="text/css">
	.st0{fill:#CCCCCC;}
	.st1{fill:#FF6300;}
</style>
<g>
	<g>
		<path class="st0" d="M139.6,31.9c0.1,0,0.2-0.1,0.3-0.1c0,0-0.1,0-0.1,0.1C139.7,31.8,139.7,31.8,139.6,31.9z"/>
		<path class="st0" d="M119.6,47.5c-11.4,11.7-20.5,26-26.3,41.4c9.1-23.4,26.1-45.4,45.6-56.7C131.8,36.4,125.3,41.6,119.6,47.5z"
			/>
		<path class="st0" d="M101,157.3c-7.9-4.9-13.1-14.3-14.4-27.3C87.5,141,91.4,151.3,101,157.3z"/>
		<path class="st0" d="M166.5,45.9c-7.3-4.2-17-3.2-27.3,2.8s-20,16.2-27.3,28.8s-11.3,26.1-11.2,37.9c0,11.9,4.1,20.7,11.4,24.9
			s17,3.2,27.4-2.8c10.3-6,20-16.2,27.3-28.8s11.3-26.1,11.2-37.9C177.9,58.9,173.8,50.1,166.5,45.9z"/>
		<g>
			<path class="st0" d="M100.1,156.7C100.1,156.7,100.2,156.7,100.1,156.7C100.2,156.7,100.1,156.7,100.1,156.7z"/>
			<path class="st0" d="M139.6,31.9c0.1,0,0.2-0.1,0.3-0.1c0,0-0.1,0-0.1,0.1C139.7,31.8,139.7,31.8,139.6,31.9z"/>
			<path class="st0" d="M119.6,47.5c-11.4,11.7-20.5,26-26.3,41.4c9.1-23.4,26.1-45.4,45.6-56.7C131.8,36.4,125.3,41.6,119.6,47.5z"
				/>
			<path class="st0" d="M100.4,156.9c0.2,0.1,0.4,0.3,0.6,0.4C100.8,157.1,100.6,157,100.4,156.9z"/>
			<path class="st0" d="M166.5,45.9c-7.3-4.2-17-3.2-27.3,2.8s-20,16.2-27.3,28.8s-11.3,26.1-11.2,37.9c0,11.9,4.1,20.7,11.4,24.9
				s17,3.2,27.4-2.8c10.3-6,20-16.2,27.3-28.8s11.3-26.1,11.2-37.9C177.9,58.9,173.8,50.1,166.5,45.9z"/>
			<g>
				<path class="st0" d="M164.1,50.1c-4.2-2.4-9.4-2.9-15-1.6c-3.2,0.8-6.5,2.1-10,4.1c-9.4,5.4-18.2,14.7-24.9,26.2
					c-6.6,11.5-10.3,23.7-10.2,34.5c0,3.7,0.5,7.1,1.3,10.1l0,0c1.6,5.7,4.7,10,9.1,12.5c6.7,3.8,15.5,2.9,24.9-2.5
					c9.4-5.4,18.2-14.7,24.9-26.2c6.6-11.5,10.3-23.7,10.2-34.6C174.5,62,170.8,53.9,164.1,50.1z"/>
				<g>
					<path class="st0" d="M133.5,102.7c6.2-7.7,11.9-18.9,15.1-31.1c3.2-12.2,0.3-23.1,0.3-23.1l0.2-0.1c-3.2,0.8-6.5,2.1-10,4.1
						c-9.4,5.4-18.2,14.7-24.9,26.2c-6.6,11.5-10.3,23.7-10.2,34.5c0,3.7,0.5,7.1,1.3,10.1v-0.1
						C117.5,120.6,127.3,110.4,133.5,102.7z"/>
					<path class="st0" d="M114.5,136c6.7,3.8,15.5,2.9,24.9-2.5s18.2-14.7,24.9-26.2c6.6-11.5,10.3-23.7,10.2-34.6
						c0-10.8-3.7-18.8-10.4-22.6c-4.2-2.4-9.4-2.9-15-1.6l-0.2,0.1c0,0,2.9,10.8-0.3,23.1c-3.2,12.2-8.8,23.4-15.1,31.1
						c-6.2,7.7-16,17.9-28.1,20.7c0,0,0,0,0,0.1l0,0C107,129.2,110.1,133.5,114.5,136z"/>
					<path class="st0" d="M166.5,45.9c-7.3-4.2-17-3.2-27.3,2.8s-20,16.2-27.3,28.8s-11.3,26.1-11.2,37.9c0,11.9,4.1,20.7,11.4,24.9
						s17,3.2,27.4-2.8c10.3-6,20-16.2,27.3-28.8s11.3-26.1,11.2-37.9C177.9,58.9,173.8,50.1,166.5,45.9z M164.3,107.3
						c-6.6,11.5-15.5,20.8-24.9,26.2s-18.3,6.3-24.9,2.5c-4.4-2.5-7.5-6.8-9.1-12.5l0,0l0,0l0,0c0-0.2-0.1-0.3-0.1-0.5l0,0
						c-0.1-0.4-0.2-0.7-0.3-1.1l0,0c0-0.1-0.1-0.2-0.1-0.3c0,0,0,0,0-0.1s0-0.1,0-0.2c0-0.2-0.1-0.4-0.1-0.6s-0.1-0.5-0.1-0.7
						c0-0.1,0-0.3-0.1-0.4v-0.1c0-0.1,0-0.3-0.1-0.4c-0.1-0.4-0.1-0.9-0.2-1.3c0-0.2,0-0.3,0-0.5s0-0.3,0-0.5s0-0.5,0-0.7l0,0V116
						l0,0c0-0.1,0-0.2,0-0.2c0-0.2,0-0.3,0-0.5l0,0c0-0.5,0-0.9,0-1.4c0-10.8,3.6-23.1,10.2-34.5c6.6-11.5,15.5-20.8,24.9-26.2
						c3.4-2,6.8-3.3,10-4.1c5.6-1.3,10.7-0.8,15,1.6c6.7,3.8,10.4,11.8,10.4,22.6C174.5,83.6,170.9,95.8,164.3,107.3z"/>
				</g>
				<g>
					<path class="st0" d="M166.5,45.9c-7.3-4.2-17-3.2-27.3,2.8s-20,16.2-27.3,28.8s-11.3,26.1-11.2,37.9c0,11.9,4.1,20.7,11.4,24.9
						s17,3.2,27.4-2.8c10.3-6,20-16.2,27.3-28.8s11.3-26.1,11.2-37.9C177.9,58.9,173.8,50.1,166.5,45.9z"/>
					<path class="st0" d="M175.3,27.6L175.3,27.6L175.3,27.6z"/>
					<g>
						<path class="st0" d="M174.5,27.3c0,0-0.1,0-0.1-0.1C174.5,27.2,174.5,27.2,174.5,27.3z"/>
						<path class="st0" d="M166.5,45.9c-7.3-4.2-17-3.2-27.3,2.8s-20,16.2-27.3,28.8s-11.3,26.1-11.2,37.9
							c0,11.9,4.1,20.7,11.4,24.9s17,3.2,27.4-2.8c10.3-6,20-16.2,27.3-28.8s11.3-26.1,11.2-37.9C177.9,58.9,173.8,50.1,166.5,45.9z
							"/>
						<path class="st0" d="M94.8,85.5c5.8-13.7,14-26.4,24.2-37.1c12.8-13.6,35.1-29.6,54.7-21.5c0.2,0.1,0.5,0.2,0.7,0.3
							c0,0,0.1,0,0.1,0.1c0.3,0.1,0.5,0.2,0.8,0.4l0,0c0.3,0.1,0.6,0.3,0.9,0.5c-5.3-3.5-11.2-6.5-16.7-9.7
							c-2.4-1.4-4.7-2.7-7.1-3.7c-7.5-3.4-15-4.8-24-2.4C108.1,18,92.3,33.6,81.1,50.9C72.9,63.5,66.4,78,63.5,93.1c0,0,0,0,0,0.1
							v0.1v0.1l0,0c0,0,0,0.1,0,0.2s0,0.1,0,0.2s0,0.2-0.1,0.3v0.1v0.1c-1.6,8.5-12.7,58.6-49.6,82.5l3.5-0.2l1.4,3l3.5-0.2l1.4,3
							l3.6-0.2l1.4,3l3.5-0.2l1.4,3l3.5-0.2l1.4,3c18.8-12.1,30.9-31,38.5-47.8l0,0c2.6-5.7,4.9-11.6,6.8-17.6
							c1.2-3.7,2.3-7.4,3.2-11.2C88.9,104.4,90.9,94.9,94.8,85.5z"/>
					</g>
					<path class="st0" d="M63.3,94.2c0.1-0.3,0.1-0.6,0.2-0.9C63.5,93.5,63.4,93.8,63.3,94.2z"/>
					<path class="st0" d="M63.5,93.3L63.5,93.3C63.5,93.2,63.5,93.2,63.5,93.3z"/>
					<g>
						<path class="st0" d="M100.7,157.1c-0.1,0-0.2-0.1-0.2-0.2c0.2,0.1,0.4,0.2,0.6,0.4C100.9,157.2,100.8,157.1,100.7,157.1z"/>
						<path class="st0" d="M166.5,45.9c-7.3-4.2-17-3.2-27.3,2.8s-20,16.2-27.3,28.8s-11.3,26.1-11.2,37.9
							c0,11.9,4.1,20.7,11.4,24.9s17,3.2,27.4-2.8c10.3-6,20-16.2,27.3-28.8s11.3-26.1,11.2-37.9C177.9,58.9,173.8,50.1,166.5,45.9z
							"/>
						<path class="st0" d="M101.5,157.6C101.6,157.6,101.6,157.6,101.5,157.6C101.6,157.6,101.5,157.6,101.5,157.6L101.5,157.6z"/>
						<path class="st0" d="M176.2,28.1c-0.3-0.2-0.6-0.3-0.9-0.5l0,0c-0.3-0.1-0.5-0.2-0.8-0.4c0,0-0.1,0-0.1-0.1
							c-0.2-0.1-0.5-0.2-0.7-0.3c-19.6-8.1-41.9,7.9-54.7,21.5c-10.2,10.8-18.4,23.5-24.2,37.1c-3.5,8.3-5.4,16.7-7.5,25.4
							c-0.7,4.4-1,8.7-1,12.8c0,2.2,0.1,4.3,0.3,6.3c1.3,12.5,6.1,21.6,13.5,26.6c0,0,0.1,0,0.1,0.1c0.1,0,0.1,0.1,0.2,0.1
							c0,0,0.1,0,0.1,0.1c0.1,0,0.2,0.1,0.2,0.2c0.1,0.1,0.2,0.1,0.3,0.2c0,0,0,0,0.1,0c0.2,0.1,0.3,0.2,0.5,0.3
							c9.7,5.7,23.1,5,37.9-3.6c29.3-16.9,53-57.9,52.9-91.5C192.3,45.4,186.1,33.5,176.2,28.1z M166.7,108.7
							c-7.3,12.6-17,22.8-27.3,28.8s-20,6.9-27.4,2.8c-7.3-4.2-11.4-13-11.4-24.9s4-25.3,11.2-37.9c7.3-12.6,17-22.8,27.3-28.8
							s20-6.9,27.3-2.8c7.3,4.2,11.4,13,11.4,24.8C178,82.6,174,96.1,166.7,108.7z"/>
						<path class="st0" d="M101,157.3c-0.2-0.1-0.4-0.2-0.6-0.4c0,0-0.1,0-0.1-0.1c-0.1,0-0.1-0.1-0.2-0.1c0,0-0.1,0-0.1-0.1
							c-7.4-5.1-12.3-14.2-13.5-26.6c-0.2-2-0.3-4.1-0.3-6.3c0-4.2,0.3-8.5,1-12.8c0.1-0.6,0.2-1.2,0.3-1.8c-1,4.9-4.1,18.5-11.1,34
							c0.3,0.2,0.6,0.4,0.9,0.5c0,0,21.6,12.5,24.1,14h0.1C101.4,157.5,101.3,157.4,101,157.3C101.1,157.3,101.1,157.3,101,157.3z"
							/>
					</g>
				</g>
			</g>
		</g>
	</g>
	<g>
		<path class="st0" d="M190.9,62.9c-0.3-15.5-5.9-26.9-15.8-32.1c-9.9-5.3-22.8-3.7-36.4,4.3S112.4,56.7,103,73.3
			s-14.4,34.3-14,49.8c0.3,15.5,5.9,26.9,15.8,32.1c9.9,5.3,22.8,3.7,36.4-4.3c13.6-8,26.3-21.6,35.7-38.2
			C186.3,96.1,191.2,78.4,190.9,62.9z M176.6,112.5c-9.3,16.5-21.9,30-35.4,37.9c-13.5,8-26.3,9.5-36.1,4.3s-15.4-16.5-15.7-31.9
			c-0.3-15.3,4.6-32.9,13.9-49.4s21.9-30,35.4-37.9c13.5-8,26.3-9.5,36.1-4.3s15.4,16.5,15.7,31.9C190.8,78.5,185.9,96,176.6,112.5z
			"/>
		<path class="st0" d="M139,46.7C116.5,60,98.7,91.5,99.2,117s19.3,35.5,41.7,22.3s40.3-44.8,39.7-70.3
			C180.1,43.5,161.4,33.5,139,46.7z M140.9,138.8c-22.2,13.1-40.8,3.2-41.3-22c-0.5-25.3,17.1-56.5,39.3-69.6s40.8-3.2,41.3,22
			C180.8,94.5,163.2,125.7,140.9,138.8z"/>
		<path class="st0" d="M171.6,37c-8.9-4.7-20.5-3.4-32.7,3.9c-12.2,7.2-23.6,19.4-32.1,34.4c-8.4,14.9-12.9,30.8-12.6,44.7
			s5.3,24.2,14.2,28.9s20.5,3.4,32.7-3.9c12.2-7.2,23.6-19.4,32.1-34.4c8.4-14.9,12.9-30.8,12.6-44.7C185.5,52,180.4,41.8,171.6,37z
			 M172.9,110.5c-8.4,14.8-19.7,26.9-31.8,34.1c-12.1,7.2-23.7,8.5-32.5,3.8s-13.8-14.9-14.1-28.7C94.2,106,98.7,90.2,107,75.4
			c8.4-14.8,19.7-26.9,31.8-34.1s23.7-8.5,32.5-3.8s13.8,14.9,14.1,28.7C185.7,80,181.2,95.7,172.9,110.5z"/>
		<path class="st0" d="M169.8,40.2c-8.4-4.5-19.3-3.2-30.9,3.6s-22.3,18.3-30.3,32.5c-8,14.1-12.2,29.1-11.9,42.2
			c0.3,13.1,5.1,22.8,13.4,27.3c8.4,4.5,19.3,3.2,30.9-3.6c11.6-6.8,22.3-18.3,30.3-32.5c8-14.1,12.2-29.1,11.9-42.2
			C182.9,54.3,178.2,44.6,169.8,40.2z M171,109.6c-7.9,14-18.6,25.4-30,32.2c-11.5,6.8-22.3,8-30.6,3.6s-13-14-13.3-27
			s3.9-27.9,11.8-41.9s18.6-25.4,30-32.2c11.5-6.8,22.3-8,30.6-3.6s13,14,13.3,27C183.1,80.7,178.9,95.6,171,109.6z"/>
		<path class="st0" d="M173.3,33.9c-9.4-5-21.6-3.5-34.6,4.1c-12.9,7.6-25,20.5-33.9,36.3s-13.7,32.6-13.3,47.3
			c0.3,14.7,5.6,25.5,15,30.5s21.6,3.6,34.6-4.1c12.9-7.6,25-20.5,33.9-36.3s13.7-32.6,13.3-47.3C188,49.7,182.7,38.9,173.3,33.9z
			 M174.7,111.5c-8.8,15.7-20.8,28.4-33.6,36c-12.8,7.6-25,9-34.3,4s-14.6-15.7-14.9-30.3s4.4-31.2,13.2-46.9s20.8-28.4,33.6-36
			s25-9,34.3-4s14.6,15.7,14.9,30.3C188.3,79.2,183.6,95.9,174.7,111.5z"/>
	</g>
</g>
<path class="st1" d="M187.1,136.8l-68.4-34.9L187,66.8c4.2-2.1,5.8-7.3,3.7-11.4c-2.1-4.2-7.3-5.8-11.4-3.7L100,92.4L20.6,51.9
	c-4.2-2.1-9.3-0.5-11.4,3.7c-2.1,4.2-0.5,9.3,3.7,11.4l68.4,34.9L13,137c-4.2,2.1-5.8,7.3-3.7,11.4c1.5,3,4.6,4.7,7.8,4.6
	c1.2,0,2.5-0.3,3.7-0.9l79.3-40.7l79.3,40.5c1.3,0.7,2.7,1,4.1,0.9c3-0.1,5.9-1.8,7.4-4.6C192.9,144.1,191.3,139,187.1,136.8z"/>
</svg>
