<?xml version="1.0" encoding="utf-8"?>
<!-- Generator: Adobe Illustrator 23.0.1, SVG Export Plug-In . SVG Version: 6.00 Build 0)  -->
<svg version="1.1" id="Layer_1" xmlns="http://www.w3.org/2000/svg" xmlns:xlink="http://www.w3.org/1999/xlink" x="0px" y="0px"
	 viewBox="0 0 500 200" style="enable-background:new 0 0 500 200;" xml:space="preserve">
<style type="text/css">
	.st0{fill-rule:evenodd;clip-rule:evenodd;fill:#5F5F5F;}
	.st1{fill-rule:evenodd;clip-rule:evenodd;fill:#E8A963;}
	.st2{fill-rule:evenodd;clip-rule:evenodd;fill:#FCBF82;}
	.st3{fill-rule:evenodd;clip-rule:evenodd;fill:#6F7170;}
	.st4{fill-rule:evenodd;clip-rule:evenodd;fill:#FFCD07;}
	.st5{fill-rule:evenodd;clip-rule:evenodd;fill:#BA893A;}
	.st6{fill-rule:evenodd;clip-rule:evenodd;fill:#3C3C3C;}
	.st7{fill-rule:evenodd;clip-rule:evenodd;fill:#B3B3B3;}
	.st8{fill-rule:evenodd;clip-rule:evenodd;fill:#FFCD00;}
	.st9{fill-rule:evenodd;clip-rule:evenodd;fill:#DFE0DF;}
	.st10{fill-rule:evenodd;clip-rule:evenodd;fill:#363435;}
	.st11{fill-rule:evenodd;clip-rule:evenodd;fill:#C1A07C;}
</style>
<g>
	<path class="st0" d="M249.6,122.3c15.2,0,27.6-4.8,27.6-10.6c0-5.8-12.4-10.6-27.6-10.6c-15.2,0-27.6,4.8-27.6,10.6
		C222,117.6,234.4,122.3,249.6,122.3L249.6,122.3z"/>
	<polygon class="st1" points="268.3,93 273,130.5 227,149.7 229.7,93 	"/>
	<path class="st2" d="M175.3,201.4l2-3.9l15-32.4c0.5-1.8-9.3-12-10.6-13.4l-9.5-11c-2-2.2-5.1-2.4-7.4-1c-0.9,0.6-1.7,1.4-2.2,2.6
		l-16.9,41.9l-6.9,17.1H175.3z"/>
	<path class="st2" d="M358.3,201.4H322l-1.2-2.4l-0.8-1.6l-4.8-10.2v-0.1l-0.1-0.1l-0.8-1.9l0,0l-0.2-0.2l-5.4-11.6l-3.9-8.3
		c-0.5-1.8,9.4-12,10.6-13.4l1.4-1.7l8.1-9.3l0.5-0.4l0,0c2-1.9,4.8-2,6.9-0.6c1,0.6,1.8,1.4,2.2,2.6l16.7,41.4l0.2,0.5L358.3,201.4
		z"/>
	<path class="st3" d="M353.1,182.9l-1.9,1l-30.5,15.2l-1.4,0.6c0,0-2.7-8.2-4.2-12.4v-0.1l-0.1-0.1c-0.5-1.4-0.8-2.3-0.9-2.3
		l-0.1,0.3c-0.4,1.7-0.9,3.3-1.2,5c-1,4-1.8,7.8-2.6,11.4H188.2c-0.9-4.2-2.1-8.6-3.3-13.4l-0.1-0.5l-0.1-0.3
		c-0.1-0.4-0.1,0.3-0.5-1.3l-5.3,13.3l-1.5-1.7v-0.1l-31.2-18.8l22.6-51.6c0.4-1.1,5.3-7.6,6.1-8.3c1.7-1.5,3.8-2.7,6.1-3.2l14.7-3
		l26.8-5.3c1.2-0.3,1.5-0.4,2.7-0.4l9.1,8.4c8.8,7.5,23.5,7.3,31.8-0.8l8.6-7.3c4.8,0,20.5,4.1,26.2,5.3c9.5,2,17.9,3.7,18.3,3.9
		l0.8,0.4c3.4,1.6,7.4,6.9,8.8,10.5L353.1,182.9z"/>
	<path class="st4" d="M306.5,201.4H189.6l-12.1-84.5c1.1-0.6,2.2-1,3.4-1.3l14.7-3l2.2-0.4l13.2,43.2l74.6-0.2l11-43.6l4.1,0.8
		c5.6,1.2,10.8,2.3,14.2,3l-1.9,40.3L306.5,201.4z"/>
	<path class="st5" d="M314.2,184.8l0,0.3c-0.4,1.7-0.9,3.3-1.3,5c-1,4-1.8,7.8-2.5,11.4h-8.4c2.1-8,4.7-18.8,6.9-28
		c2.3-9.9,4.2-17.7,4.2-17.7L314.2,184.8z"/>
	<path class="st6" d="M232.2,20.5l-7.5,16.2c0,5.4,2,10.3,5.2,13.8l35.9,14.3l11.1-8.9l0.2-26.1l-3.2-1.4l-3.2-10.7l-24.2-5.5
		L232.2,20.5z"/>
	<path class="st7" d="M251.8,55.4c19.7,0,35.8-2.9,35.8-6.5c0-3.6-16.1-6.5-35.8-6.5C232,42.5,216,45.4,216,49
		C216,52.5,232,55.4,251.8,55.4L251.8,55.4z"/>
	<path class="st2" d="M285.1,57.1c-1.1-2.7-2.8-1.3-4.2,0.4c0.4-20.6-10.5-31-10.5-31H250h-20.4c0,0-10.9,10.4-10.6,30.9
		c-1.4-1.7-3.1-2.9-4.1-0.3c-1.9,4.8,2.5,11.3,1.7,18c-0.5,4.5,3,4.1,5.3,2.8c0.9,3.4,2.1,7.4,4.1,12.1c4.3,9.9,16.5,19,24,19
		c7.5,0,19.6-9.1,24-19c2.1-4.6,3.4-8.3,4.2-12.2c2.3,1.3,5.9,1.8,5.4-2.8C282.6,68.4,287,61.8,285.1,57.1L285.1,57.1z"/>
	<path class="st6" d="M274.1,76.1c1.7-14.6,3.2-38.8-18.8-48.4l6.7-3.2c0,0,19.6,4,21.4,34.2l-5.3,21.9h-0.1
		C275.7,80.7,273.8,78.6,274.1,76.1L274.1,76.1z"/>
	<path class="st6" d="M227.7,76.1c-1.7-14.6-3.1-38.8,18.8-48.4l-6.7-3.2c0,0-19.6,4-21.4,34.2l5.3,21.9h0.1
		C226.1,80.7,228,78.6,227.7,76.1L227.7,76.1z"/>
	<path class="st4" d="M284.5,45.8c-0.1-0.2-0.1-0.5-0.2-0.8c-0.6-1.7-2-6.8-2-8.7c0-14.5-13.6-26.3-30.4-26.3
		c-16.7,0-30.4,11.8-30.4,26.3c0,1.7-1.5,6.7-2.5,9.5H284.5z"/>
	<path class="st8" d="M251.5,19.7c4.4,0,7.9-3.6,7.9-7.9c0-4.3-3.6-7.8-7.9-7.8c-4.3,0-7.8,3.5-7.8,7.8
		C243.7,16.1,247.2,19.7,251.5,19.7L251.5,19.7z"/>
	<path class="st5" d="M234,15.1c2.8-1.7,5.9-3.1,9.2-3.9c0.2,0.5,0.3,1.2,0.3,1.8v21.1c0,2.6-2.1,4.7-4.7,4.7
		c-2.7,0-4.8-2.1-4.8-4.7V15.1z"/>
	<path class="st5" d="M260,11c3.2,0.7,6.3,2,9,3.6v19.5c0,2.6-2.1,4.7-4.7,4.7c-2.6,0-4.7-2.1-4.7-4.7V13
		C259.6,12.2,259.7,11.6,260,11L260,11z"/>
	<path class="st5" d="M289,46.2c0,2.2-1.2,3.8-2.7,3.8h-69.1c-1.5,0-2.7-1.7-2.7-3.8c0-2.1,1.2-3.7,2.7-3.7h69.1
		C287.8,42.5,289,44.2,289,46.2L289,46.2z"/>
	<rect x="210.9" y="170.6" class="st5" width="31.2" height="4.2"/>
	<rect x="254.4" y="155.4" class="st9" width="31.3" height="19.4"/>
	<path class="st10" d="M275.5,156.6h-10.1c-0.6,0-1.1-0.5-1.1-1.2v-2c0-0.6,0.5-1.1,1.1-1.1h10.1c0.6,0,1.1,0.5,1.1,1.1v2
		C276.6,156.1,276.1,156.6,275.5,156.6L275.5,156.6z"/>
	<rect x="271" y="159.9" class="st3" width="13.3" height="1.5"/>
	<rect x="271" y="163.4" class="st3" width="13.3" height="1.5"/>
	<rect x="271" y="167" class="st3" width="13.3" height="1.5"/>
	<rect x="260.8" y="167" class="st1" width="4.4" height="3.9"/>
	<path class="st2" d="M265.6,164.6L265.6,164.6c0.3,0.1,0.6,0,0.7-0.4l0.2-1c0.1-0.3-0.1-0.6-0.4-0.7c-0.3-0.1-0.6,0.1-0.7,0.4
		l-0.2,1C265.1,164.2,265.3,164.5,265.6,164.6L265.6,164.6z"/>
	<path class="st11" d="M265.7,161.9l0.2,3.2c0,0.3,0,0.5-0.1,0.8c-0.1,0.4-0.2,0.7-0.4,0.9l-0.4,0.5l-1.1,1.4
		c-0.2,0.2-0.6,0.3-1.1,0.3c-0.3,0-0.5,0-0.6-0.2l-1.3-1.2l-0.5-0.3c-0.2-0.2-0.4-0.5-0.5-0.8c-0.1-0.2-0.1-0.5-0.2-0.7l-0.2-3.2
		c-0.1-1.3,0.7-2.3,1.6-2.4l2.6-0.2C264.7,159.7,265.6,160.6,265.7,161.9L265.7,161.9z"/>
	<path class="st2" d="M265.3,161.9l0.3,3.2c0,0.2,0,0.5,0,0.7c-0.1,0.3-0.2,0.6-0.4,0.9l-0.4,0.4l-1,1.3c-0.1,0.2-0.4,0.3-0.7,0.3
		c-0.3,0-0.5,0-0.6-0.2l-1.3-1.2l-0.5-0.3c-0.2-0.2-0.4-0.5-0.5-0.8c-0.1-0.2-0.1-0.5-0.2-0.7l-0.2-3.2c-0.1-1.3,0.7-2.3,1.6-2.4
		l2.2-0.2C264.3,159.7,265.2,160.7,265.3,161.9L265.3,161.9z"/>
	<path class="st2" d="M260.1,165L260.1,165c-0.3,0.1-0.7,0-0.8-0.3l-0.4-1c-0.1-0.3,0-0.6,0.2-0.8c0.3-0.1,0.7,0,0.8,0.3l0.4,1
		C260.5,164.6,260.4,164.9,260.1,165L260.1,165z"/>
	<polygon class="st6" points="266,161.5 265.8,164.1 264.8,162.5 263.9,162.4 260.6,162.1 260.1,164.7 260.1,164.8 260,164.7 
		259.4,162.2 259.8,159.4 260.2,159.4 260.7,158.2 261,158.6 261.5,157.8 263,158.7 263.3,158.2 265.1,159.7 265.1,159.7 
		265.5,159.3 	"/>
	<path class="st3" d="M266.3,172.1h-6.7c-0.6,0-1.1-0.5-1.1-1.1c0-0.6,0.5-1,1.1-1h6.7c0.6,0,1.1,0.4,1.1,1
		C267.4,171.6,266.9,172.1,266.3,172.1L266.3,172.1z"/>
</g>
</svg>
