<?xml version="1.0" encoding="utf-8"?>
<!-- Generator: Adobe Illustrator 23.0.1, SVG Export Plug-In . SVG Version: 6.00 Build 0)  -->
<svg version="1.1" id="Layer_1" xmlns="http://www.w3.org/2000/svg" xmlns:xlink="http://www.w3.org/1999/xlink" x="0px" y="0px"
	 viewBox="0 0 500 200" style="enable-background:new 0 0 500 200;" xml:space="preserve">
<style type="text/css">
	.st0{fill:#FFEAC7;}
	.st1{fill-rule:evenodd;clip-rule:evenodd;fill:#F7933D;}
	.st2{fill-rule:evenodd;clip-rule:evenodd;fill:#FFEAC7;}
	.st3{fill-rule:evenodd;clip-rule:evenodd;fill:#7E6055;}
	.st4{fill:#0988A1;}
	.st5{fill:#524C40;}
	.st6{fill:#0E778E;}
	.st7{fill-rule:evenodd;clip-rule:evenodd;fill:#BA722F;}
	.st8{fill-rule:evenodd;clip-rule:evenodd;fill:#F4F5F4;}
	.st9{fill:#573B3F;}
	.st10{fill:#E0B18D;}
	.st11{fill:#BA722F;}
	.st12{fill-rule:evenodd;clip-rule:evenodd;fill:#F5CD7E;}
	.st13{fill-rule:evenodd;clip-rule:evenodd;fill:#E4B559;}
	.st14{opacity:0.5;}
</style>
<g>
	<g>
		<path class="st0" d="M233,124.3c0,2.1-1.7,3.8-3.8,3.8l0,0c-2.1,0-3.8-1.7-3.8-3.8v-6.2c0-2.1,1.7-3.8,3.8-3.8l0,0
			c2.1,0,3.8,1.7,3.8,3.8V124.3z"/>
		<path class="st0" d="M279.6,124.3c0,2.1-1.7,3.8-3.8,3.8l0,0c-2.1,0-3.8-1.7-3.8-3.8v-6.2c0-2.1,1.7-3.8,3.8-3.8l0,0
			c2.1,0,3.8,1.7,3.8,3.8V124.3z"/>
		<path class="st1" d="M272.5,72.4c-3.4-2.2-11-3.8-19.9-3.8c-8.8,0-16.4,1.5-19.8,3.8c-5.8,3.4-8.4,14.1-8.4,24.9V118h10.3V97.2
			c0-7.1,2.3-11.5,3.7-13.7V122h28.4V84.1c1.6,2.4,3.8,6.6,3.8,13.1V118h10.3V97.2C280.8,86.5,278.2,75.8,272.5,72.4z"/>
		<path class="st2" d="M265,53.1c0,6.9-5.4,12.5-12.1,12.5c-6.7,0-12.1-5.6-12.1-12.5c0-6.9,5.4-12.5,12.1-12.5
			C259.5,40.6,265,46.2,265,53.1z"/>
		<path class="st3" d="M242.7,49.6c1.2-1.4,2.8-2.4,4.2-3.7c1-0.9,2.6-1,3.5,0c2.1,2.3,6,4.4,9,2.6c1.2-0.7,2.7-0.2,3.4,0.9
			c0.3,0.5,1.1,1,2,1.4c-1.1-5.8-6-10.1-11.9-10.1c-6.5,0-11.9,5.3-12.1,11.9C241.5,51.7,241.9,50.4,242.7,49.6z"/>
		<path class="st2" d="M266.5,53.5c0,1.8-0.6,3.3-1.3,3.3c-0.7,0-1.3-1.5-1.3-3.3c0-1.8,0.6-3.3,1.3-3.3
			C265.9,50.2,266.5,51.7,266.5,53.5z"/>
		<path class="st2" d="M242,53.5c0,1.8-0.6,3.3-1.3,3.3c-0.7,0-1.3-1.5-1.3-3.3c0-1.8,0.6-3.3,1.3-3.3C241.5,50.2,242,51.7,242,53.5
			z"/>
		<path class="st4" d="M267,122.1l-0.2-0.7h-28.5v2.6c-6.8,16.8-7.6,48.7-7.3,59.3l12.8-0.4c-0.4-15.5,2.7-39,7.5-50.8h4.2
			c4.6,11.9,7.2,35.4,6.8,50.8l12.8,0.4C275.4,172.2,274.5,138.2,267,122.1z"/>
		<path class="st5" d="M245.6,186.6c0.1-0.4,0.2-0.9,0.2-1.4c0-2.5-2-4.4-4.4-4.4h-7.7c-2.5,0-4.4,2-4.4,4.4c0,0.5,0.1,0.9,0.2,1.4
			H245.6z"/>
		<path class="st5" d="M277,186.6c0.1-0.4,0.2-0.9,0.2-1.4c0-2.5-2-4.4-4.4-4.4h-7.7c-2.5,0-4.4,2-4.4,4.4c0,0.5,0.1,0.9,0.2,1.4
			H277z"/>
		<path class="st6" d="M275.2,165.3c-0.3-5.6-0.8-11.7-1.5-17.7h-14.8c1,5.7,1.8,11.8,2.2,17.7H275.2z"/>
		<path class="st6" d="M245.1,165.3c0.6-5.9,1.4-12.1,2.5-17.7h-15.2c-0.8,6.1-1.3,12.2-1.5,17.7H245.1z"/>
		<path class="st7" d="M235.1,104.5v-7.3c0-1.9,0.2-3.8,0.5-5.5h-11.6c-0.2,1.9-0.2,3.7-0.2,5.5v7.3H235.1z"/>
		<path class="st7" d="M270.1,104.5h11.3v-7.3c0-1.8-0.1-3.6-0.2-5.5h-11.6c0.4,1.7,0.6,3.6,0.6,5.5V104.5z"/>
		<path class="st8" d="M261.3,69.1c-2.7-0.3-5.6-0.5-8.7-0.5c-2.9,0-5.7,0.2-8.2,0.5v49.3h16.9V69.1z"/>
		<path class="st0" d="M247.3,68.7c0,0.1,0,0.3,0,0.4c0,2.1,2.3,3.8,5.2,3.8c2.9,0,5.2-2.1,5.2-4.2c0,0-2.5-0.2-5.1-0.2
			C250,68.6,247.4,68.7,247.3,68.7z"/>
		<rect x="237.6" y="118.5" class="st9" width="30.4" height="5.5"/>
		<g>
			<g>
				<g>
					<path class="st10" d="M256.8,125h-7.5v-7.7h7.5V125z M250.3,124h5.5v-5.6h-5.5V124z"/>
				</g>
				<g>
					<rect x="254.1" y="120.3" class="st10" width="3.4" height="1.7"/>
				</g>
			</g>
		</g>
		<polygon class="st11" points="263.5,118.9 260.1,118.6 257.7,68.3 263.2,68.3 		"/>
		<polygon class="st11" points="241,118.7 244.4,118.4 247.1,68.3 241.6,68.3 		"/>
		<g>
			<g>
				<path class="st12" d="M266.2,44.6c0-0.1,0-0.2-0.1-0.3c-0.2-0.7-0.8-2.8-0.8-3.5c0-5.9-5.5-10.6-12.3-10.6
					c-6.8,0-12.3,4.8-12.3,10.6c0,0.7-0.6,2.7-1,3.8H266.2z"/>
				<circle class="st12" cx="252.8" cy="30.9" r="3.2"/>
				<g>
					<path class="st13" d="M245.7,32.2c1.1-0.7,2.4-1.2,3.7-1.6c0.1,0.2,0.1,0.5,0.1,0.7v8.5c0,1.1-0.9,1.9-1.9,1.9l0,0
						c-1.1,0-1.9-0.9-1.9-1.9V32.2z"/>
					<path class="st13" d="M256.2,30.5c1.3,0.3,2.6,0.8,3.7,1.5v7.9c0,1.1-0.9,1.9-1.9,1.9l0,0c-1.1,0-1.9-0.9-1.9-1.9v-8.5
						C256.1,31.1,256.1,30.8,256.2,30.5z"/>
				</g>
			</g>
			<path class="st13" d="M264.3,45c0,0.6-0.5,1-1,1h-21.2c-0.6,0-1-0.5-1-1l0,0c0-0.6,0.5-1,1-1h21.2C263.8,44,264.3,44.4,264.3,45
				L264.3,45z"/>
		</g>
	</g>
	<g class="st14">
		<path class="st0" d="M279.6,124.3c0,2.1-1.7,3.8-3.8,3.8l0,0c-2.1,0-3.8-1.7-3.8-3.8v-6.2c0-2.1,1.7-3.8,3.8-3.8l0,0
			c2.1,0,3.8,1.7,3.8,3.8V124.3z"/>
		<path class="st1" d="M272.5,72.4c-3.3-2.1-10.4-3.7-18.8-3.8V122h13V84.1c1.6,2.4,3.8,6.6,3.8,13.1V118h10.3V97.2
			C280.8,86.5,278.2,75.8,272.5,72.4z"/>
		<path class="st2" d="M253.7,40.6v24.9c6.3-0.5,11.2-5.9,11.2-12.4S260,41.1,253.7,40.6z"/>
		<path class="st3" d="M253.7,40.6v7.7c1.8,0.9,3.9,1.2,5.7,0.1c1.2-0.7,2.7-0.2,3.4,0.9c0.3,0.5,1.1,1,2,1.4
			C263.7,45.3,259.2,41.1,253.7,40.6z"/>
		<path class="st2" d="M266.5,53.5c0,1.8-0.6,3.3-1.3,3.3c-0.7,0-1.3-1.5-1.3-3.3c0-1.8,0.6-3.3,1.3-3.3
			C265.9,50.2,266.5,51.7,266.5,53.5z"/>
		<path class="st4" d="M267,122.1l-0.2-0.7h-13.1V132h1.8c4.6,11.9,7.2,35.4,6.8,50.8l12.8,0.4C275.4,172.2,274.5,138.2,267,122.1z"
			/>
		<path class="st5" d="M277,186.6c0.1-0.4,0.2-0.9,0.2-1.4c0-2.5-2-4.4-4.4-4.4h-7.7c-2.5,0-4.4,2-4.4,4.4c0,0.5,0.1,0.9,0.2,1.4
			H277z"/>
		<path class="st6" d="M275.2,165.3c-0.3-5.6-0.8-11.7-1.5-17.7h-14.8c1,5.7,1.8,11.8,2.2,17.7H275.2z"/>
		<path class="st7" d="M270.1,104.5h11.3v-7.3c0-1.8-0.1-3.6-0.2-5.5h-11.6c0.4,1.7,0.6,3.6,0.6,5.5V104.5z"/>
		<path class="st8" d="M253.7,68.6v49.8h7.6V69.1C259,68.8,256.4,68.6,253.7,68.6z"/>
		<path class="st0" d="M253.7,68.6v4.3c2.3-0.5,4-2.3,4-4.1C257.7,68.8,255.9,68.6,253.7,68.6z"/>
		<rect x="253.7" y="118.5" class="st9" width="14.3" height="5.5"/>
		<g>
			<g>
				<g>
					<polygon class="st10" points="253.7,117.3 253.7,118.4 255.8,118.4 255.8,124 253.7,124 253.7,125 256.8,125 256.8,117.3 					
						"/>
				</g>
				<g>
					<rect x="254.1" y="120.3" class="st10" width="3.4" height="1.7"/>
				</g>
			</g>
		</g>
		<polygon class="st11" points="263.5,118.9 260.1,118.6 257.7,68.3 263.2,68.3 		"/>
		<g>
			<g>
				<path class="st12" d="M253.7,44.6h12.4c0-0.1,0-0.2-0.1-0.3c-0.2-0.7-0.8-2.8-0.8-3.5c0-5.7-5.1-10.3-11.6-10.6V44.6z"/>
				<path class="st12" d="M253.7,27.8v6.1c1.3-0.4,2.3-1.6,2.3-3C256,29.4,255,28.2,253.7,27.8z"/>
				<g>
					<path class="st13" d="M256.2,30.5c1.3,0.3,2.6,0.8,3.7,1.5v7.9c0,1.1-0.9,1.9-1.9,1.9l0,0c-1.1,0-1.9-0.9-1.9-1.9v-8.5
						C256.1,31.1,256.1,30.8,256.2,30.5z"/>
				</g>
			</g>
			<path class="st13" d="M263.2,44h-9.5V46h9.5c0.6,0,1-0.5,1-1C264.3,44.4,263.8,44,263.2,44z"/>
		</g>
	</g>
</g>
</svg>
