<?xml version="1.0" encoding="utf-8"?>
<!-- Generator: Adobe Illustrator 23.0.1, SVG Export Plug-In . SVG Version: 6.00 Build 0)  -->
<svg version="1.1" id="Layer_1" xmlns="http://www.w3.org/2000/svg" xmlns:xlink="http://www.w3.org/1999/xlink" x="0px" y="0px"
	 viewBox="0 0 500 200" style="enable-background:new 0 0 500 200;" xml:space="preserve">
<style type="text/css">
	.st0{fill:#FFEAC7;}
	.st1{fill-rule:evenodd;clip-rule:evenodd;fill:#F4F5F4;}
	.st2{fill-rule:evenodd;clip-rule:evenodd;fill:#FFEAC7;}
	.st3{fill-rule:evenodd;clip-rule:evenodd;fill:#7E6055;}
	.st4{fill-rule:evenodd;clip-rule:evenodd;fill:#F5CD7E;}
	.st5{fill-rule:evenodd;clip-rule:evenodd;fill:#E4B559;}
	.st6{fill:#0988A1;}
	.st7{fill:#524C40;}
	.st8{fill:#106E82;}
	.st9{fill:#A17279;}
	.st10{fill:none;stroke:#573B3F;stroke-width:0.7082;stroke-miterlimit:10;}
	.st11{opacity:0.5;}
	.st12{fill-rule:evenodd;clip-rule:evenodd;fill:#FFD535;}
	.st13{fill:#F7933D;}
	.st14{fill:#BA722F;}
	.st15{fill:#E0B18D;}
	.st16{fill:none;stroke:#573B3F;stroke-width:0.7719;stroke-miterlimit:10;}
	.st17{fill-rule:evenodd;clip-rule:evenodd;fill:#8B8A8B;}
	.st18{fill-rule:evenodd;clip-rule:evenodd;fill:#B3B4B6;}
	.st19{fill:#A5A6A8;}
	.st20{fill:#8B8A8B;}
	.st21{fill:#573B3F;}
	.st22{fill-rule:evenodd;clip-rule:evenodd;fill:#0988A1;}
	.st23{fill-rule:evenodd;clip-rule:evenodd;fill:#106E82;}
	.st24{fill:#CADB2B;}
	.st25{fill:#F5A61C;}
	.st26{fill:none;stroke:#573B3F;stroke-width:0.8647;stroke-miterlimit:10;}
	.st27{fill:#CFCFCE;}
	.st28{fill-rule:evenodd;clip-rule:evenodd;fill:#E3545C;}
	.st29{fill:#976568;}
	.st30{fill-rule:evenodd;clip-rule:evenodd;fill:#F2F4F5;}
	.st31{fill-rule:evenodd;clip-rule:evenodd;fill:#E8EBE9;}
	.st32{fill-rule:evenodd;clip-rule:evenodd;fill:#C8C7C6;}
	.st33{fill:#C8C7C6;}
	.st34{fill:#DFDFDE;}
	.st35{fill-rule:evenodd;clip-rule:evenodd;fill:#EBECEB;}
	.st36{fill-rule:evenodd;clip-rule:evenodd;fill:#E5E5E5;}
	.st37{fill:#EBECEB;}
	.st38{fill:#FFFFFF;}
	.st39{fill-rule:evenodd;clip-rule:evenodd;fill:#0E778E;}
	.st40{fill:#0E778E;}
	.st41{fill:#1D1D1B;}
	.st42{fill-rule:evenodd;clip-rule:evenodd;fill:#F7933D;}
	.st43{fill-rule:evenodd;clip-rule:evenodd;fill:#BA722F;}
</style>
<g>
	<g>
		<path class="st0" d="M12.9,145c0,1.5-1.2,2.7-2.7,2.7l0,0c-1.5,0-2.7-1.2-2.7-2.7v-4.2c0-1.5,1.2-2.7,2.7-2.7l0,0
			c1.5,0,2.7,1.2,2.7,2.7V145z"/>
		<path class="st0" d="M45,145c0,1.5-1.2,2.7-2.7,2.7l0,0c-1.5,0-2.7-1.2-2.7-2.7v-4.2c0-1.5,1.2-2.7,2.7-2.7l0,0
			c1.5,0,2.7,1.2,2.7,2.7V145z"/>
		<path class="st1" d="M40.1,109.2c-2.3-1.5-7.6-2.6-13.7-2.6c-6.1,0-11.3,1.1-13.7,2.6c-4,2.3-5.8,9.8-5.8,17.2v14.4H14v-14.4
			c0-4.9,1.6-7.9,2.6-9.4v26.5h19.6v-26.1c1.1,1.6,2.6,4.6,2.6,9v14.4h7.1v-14.4C45.9,118.9,44.1,111.5,40.1,109.2z"/>
		<path class="st2" d="M34.9,95.9c0,4.8-3.8,8.6-8.4,8.6c-4.6,0-8.4-3.9-8.4-8.6c0-4.8,3.8-8.6,8.4-8.6
			C31.2,87.2,34.9,91.1,34.9,95.9z"/>
		<path class="st3" d="M19.5,93.4c0.9-1,2-1.7,2.9-2.6c0.7-0.6,1.8-0.7,2.4,0c1.4,1.6,4.1,3,6.2,1.8c0.8-0.5,1.9-0.2,2.3,0.6
			c0.2,0.4,0.8,0.7,1.3,1c-0.7-4-4.1-7-8.2-7c-4.5,0-8.2,3.7-8.4,8.3C18.7,94.9,19,94,19.5,93.4z"/>
		<path class="st2" d="M36,96.1c0,1.2-0.4,2.3-0.9,2.3c-0.5,0-0.9-1-0.9-2.3s0.4-2.3,0.9-2.3C35.6,93.9,36,94.9,36,96.1z"/>
		<path class="st2" d="M19.1,96.1c0,1.2-0.4,2.3-0.9,2.3c-0.5,0-0.9-1-0.9-2.3s0.4-2.3,0.9-2.3C18.7,93.9,19.1,94.9,19.1,96.1z"/>
		<g>
			<g>
				<path class="st4" d="M35.7,90.9c0-0.1,0-0.1,0-0.2c-0.2-0.5-0.5-1.9-0.5-2.4c0-4.1-3.8-7.4-8.5-7.4c-4.7,0-8.5,3.3-8.5,7.4
					c0,0.5-0.4,1.9-0.7,2.6H35.7z"/>
				<circle class="st4" cx="26.5" cy="81.3" r="2.2"/>
				<g>
					<path class="st5" d="M21.6,82.3c0.8-0.5,1.6-0.9,2.6-1.1c0.1,0.2,0.1,0.3,0.1,0.5v5.9c0,0.7-0.6,1.3-1.3,1.3l0,0
						c-0.7,0-1.3-0.6-1.3-1.3V82.3z"/>
					<path class="st5" d="M28.8,81.1c0.9,0.2,1.8,0.6,2.5,1v5.4c0,0.7-0.6,1.3-1.3,1.3l0,0c-0.7,0-1.3-0.6-1.3-1.3v-5.9
						C28.7,81.5,28.8,81.3,28.8,81.1z"/>
				</g>
			</g>
			<path class="st5" d="M34.4,91.1c0,0.4-0.3,0.7-0.7,0.7H19c-0.4,0-0.7-0.3-0.7-0.7l0,0c0-0.4,0.3-0.7,0.7-0.7h14.6
				C34.1,90.4,34.4,90.7,34.4,91.1L34.4,91.1z"/>
		</g>
		<path class="st6" d="M36.3,143.5l-0.2-15.3H16.5v16.6c-4.7,11.6-5.2,33.6-5,40.9l8.8-0.3c-0.3-10.7,1.8-26.9,5.1-35.1h2.9
			c3.2,8.2,5,24.4,4.7,35.1l8.8,0.3C42.1,178.1,41.5,154.6,36.3,143.5z"/>
		<path class="st7" d="M21.6,188c0.1-0.3,0.1-0.6,0.1-0.9c0-1.7-1.4-3.1-3.1-3.1h-5.3c-1.7,0-3.1,1.4-3.1,3.1c0,0.3,0.1,0.6,0.1,0.9
			H21.6z"/>
		<path class="st7" d="M43.3,188c0.1-0.3,0.1-0.6,0.1-0.9c0-1.7-1.4-3.1-3.1-3.1H35c-1.7,0-3.1,1.4-3.1,3.1c0,0.3,0.1,0.6,0.1,0.9
			H43.3z"/>
		<rect x="19.3" y="116.3" class="st6" width="13.8" height="15"/>
		<polygon class="st6" points="18.1,107.2 19.5,117.4 22.2,116.9 20.7,106.9 		"/>
		<polygon class="st6" points="34.3,107.2 32.9,117.4 30.3,116.9 31.7,106.9 		"/>
		<path class="st0" d="M22.8,106.7c0,0.1,0,0.2,0,0.3c0,1.5,1.6,2.7,3.6,2.7c2,0,3.6-1.5,3.6-2.9c0,0-1.8-0.1-3.5-0.1
			C24.6,106.5,22.8,106.7,22.8,106.7z"/>
		<path class="st8" d="M21.3,123.8v4.8c0,1.8,1.5,3.3,3.3,3.3h3.3c1.8,0,3.3-1.5,3.3-3.3v-4.8H21.3z"/>
		<rect x="16" y="141.1" class="st9" width="21" height="3.8"/>
		<rect x="24.5" y="140.6" class="st10" width="4.5" height="4.6"/>
		<rect x="27.8" y="142.7" class="st10" width="1.6" height="0.4"/>
	</g>
	<g class="st11">
		<path class="st0" d="M45,145c0,1.5-1.2,2.7-2.7,2.7l0,0c-1.5,0-2.7-1.2-2.7-2.7v-4.2c0-1.5,1.2-2.7,2.7-2.7l0,0
			c1.5,0,2.7,1.2,2.7,2.7V145z"/>
		<path class="st1" d="M40.1,109.2c-2.3-1.5-7.6-2.6-13.7-2.6c0,0-0.1,0-0.1,0v36.9h9.9v-26.1c1.1,1.6,2.6,4.6,2.6,9v14.4h7.1v-14.4
			C45.9,118.9,44.1,111.5,40.1,109.2z"/>
		<path class="st2" d="M26.6,87.2c-0.1,0-0.2,0-0.3,0v17.2c0.1,0,0.2,0,0.3,0c4.6,0,8.4-3.9,8.4-8.6C34.9,91.1,31.2,87.2,26.6,87.2z
			"/>
		<path class="st3" d="M26.6,87.2c-0.1,0-0.2,0-0.3,0v4.8c1.5,1,3.3,1.5,4.8,0.6c0.8-0.5,1.9-0.2,2.3,0.6c0.2,0.4,0.8,0.7,1.3,1
			C34,90.3,30.6,87.2,26.6,87.2z"/>
		<path class="st2" d="M36,96.1c0,1.2-0.4,2.3-0.9,2.3c-0.5,0-0.9-1-0.9-2.3s0.4-2.3,0.9-2.3C35.6,93.9,36,94.9,36,96.1z"/>
		<g>
			<g>
				<path class="st4" d="M26.3,90.9h9.4c0-0.1,0-0.1,0-0.2c-0.2-0.5-0.5-1.9-0.5-2.4c0-4.1-3.8-7.4-8.5-7.4c-0.1,0-0.2,0-0.3,0V90.9
					z"/>
				<path class="st4" d="M26.5,79.2c-0.1,0-0.1,0-0.2,0v4.4c0.1,0,0.1,0,0.2,0c1.2,0,2.2-1,2.2-2.2C28.7,80.1,27.7,79.2,26.5,79.2z"
					/>
				<g>
					<path class="st5" d="M28.8,81.1c0.9,0.2,1.8,0.6,2.5,1v5.4c0,0.7-0.6,1.3-1.3,1.3l0,0c-0.7,0-1.3-0.6-1.3-1.3v-5.9
						C28.7,81.5,28.8,81.3,28.8,81.1z"/>
				</g>
			</g>
			<path class="st5" d="M33.7,90.4h-7.4v1.4h7.4c0.4,0,0.7-0.3,0.7-0.7S34.1,90.4,33.7,90.4z"/>
		</g>
		<path class="st6" d="M36.3,143.5l-0.2-15.3h-9.9v22.2h2.1c3.2,8.2,5,24.4,4.7,35.1l8.8,0.3C42.1,178.1,41.5,154.6,36.3,143.5z"/>
		<path class="st7" d="M43.3,188c0.1-0.3,0.1-0.6,0.1-0.9c0-1.7-1.4-3.1-3.1-3.1H35c-1.7,0-3.1,1.4-3.1,3.1c0,0.3,0.1,0.6,0.1,0.9
			H43.3z"/>
		<rect x="26.3" y="116.3" class="st6" width="6.8" height="15"/>
		<polygon class="st6" points="34.3,107.2 32.9,117.4 30.3,116.9 31.7,106.9 		"/>
		<path class="st0" d="M26.4,106.6c0,0-0.1,0-0.1,0v3.1c0,0,0.1,0,0.1,0c2,0,3.6-1.5,3.6-2.9C29.9,106.7,28.2,106.6,26.4,106.6z"/>
		<path class="st8" d="M26.3,123.8v8.1h1.6c1.8,0,3.3-1.5,3.3-3.3v-4.8H26.3z"/>
		<rect x="26.3" y="141.1" class="st9" width="10.8" height="3.8"/>
		<rect x="26.3" y="140.6" class="st10" width="2.7" height="4.6"/>
		<rect x="27.8" y="142.7" class="st10" width="1.6" height="0.4"/>
	</g>
</g>
<g>
	<g>
		<path class="st0" d="M61.6,141.3c0,1.6-1.3,2.9-2.9,2.9l0,0c-1.6,0-2.9-1.3-2.9-2.9v-4.6c0-1.6,1.3-2.9,2.9-2.9l0,0
			c1.6,0,2.9,1.3,2.9,2.9V141.3z"/>
		<path class="st0" d="M96.6,141.3c0,1.6-1.3,2.9-2.9,2.9l0,0c-1.6,0-2.9-1.3-2.9-2.9v-4.6c0-1.6,1.3-2.9,2.9-2.9l0,0
			c1.6,0,2.9,1.3,2.9,2.9V141.3z"/>
		<path class="st12" d="M91.3,102.3c-2.6-1.7-8.3-2.9-15-2.9c-6.6,0-12.3,1.2-14.9,2.8c-4.3,2.5-6.3,10.6-6.3,18.7v15.7h7.7v-15.7
			c0-5.3,1.7-8.6,2.8-10.3v28.9H87v-28.5c1.2,1.8,2.9,5,2.9,9.8v15.7h7.7v-15.7C97.6,112.9,95.6,104.8,91.3,102.3z"/>
		<path class="st2" d="M85.6,87.7c0,5.2-4.1,9.4-9.1,9.4c-5,0-9.1-4.2-9.1-9.4c0-5.2,4.1-9.4,9.1-9.4C81.5,78.4,85.6,82.6,85.6,87.7
			z"/>
		<path class="st3" d="M68.9,85.1c0.9-1.1,2.1-1.8,3.2-2.8c0.7-0.7,1.9-0.8,2.6,0c1.6,1.7,4.5,3.3,6.8,1.9c0.9-0.5,2-0.2,2.6,0.7
			c0.2,0.4,0.9,0.7,1.5,1c-0.8-4.3-4.5-7.6-9-7.6c-4.9,0-8.9,4-9.1,9C67.9,86.7,68.3,85.8,68.9,85.1z"/>
		<path class="st2" d="M86.8,88.1c0,1.4-0.4,2.5-1,2.5c-0.5,0-1-1.1-1-2.5c0-1.4,0.4-2.5,1-2.5C86.3,85.6,86.8,86.7,86.8,88.1z"/>
		<path class="st2" d="M68.4,88.1c0,1.4-0.4,2.5-1,2.5c-0.5,0-1-1.1-1-2.5c0-1.4,0.4-2.5,1-2.5C67.9,85.6,68.4,86.7,68.4,88.1z"/>
		<g>
			<g>
				<path class="st4" d="M86.5,82.3c0-0.1,0-0.1-0.1-0.2c-0.2-0.5-0.6-2.1-0.6-2.7c0-4.4-4.1-8-9.3-8c-5.1,0-9.3,3.6-9.3,8
					c0,0.5-0.4,2-0.8,2.9H86.5z"/>
				<circle class="st4" cx="76.4" cy="71.9" r="2.4"/>
				<g>
					<path class="st5" d="M71.1,73c0.8-0.5,1.8-0.9,2.8-1.2c0.1,0.2,0.1,0.3,0.1,0.5v6.4c0,0.8-0.6,1.4-1.4,1.4l0,0
						c-0.8,0-1.4-0.6-1.4-1.4V73z"/>
					<path class="st5" d="M79,71.7c1,0.2,1.9,0.6,2.8,1.1v5.9c0,0.8-0.6,1.4-1.4,1.4l0,0c-0.8,0-1.4-0.6-1.4-1.4v-6.4
						C78.8,72.1,78.9,71.9,79,71.7z"/>
				</g>
			</g>
			<path class="st5" d="M85,82.6c0,0.4-0.3,0.8-0.8,0.8h-16c-0.4,0-0.8-0.3-0.8-0.8l0,0c0-0.4,0.3-0.8,0.8-0.8h16
				C84.7,81.8,85,82.1,85,82.6L85,82.6z"/>
		</g>
		<path class="st13" d="M87.2,139.7L87,123H65.6v18.1c-5.1,12.6-5.7,36.6-5.5,44.6l9.6-0.3c-0.3-11.7,2-29.4,5.6-38.2h3.1
			c3.5,9,5.4,26.6,5.1,38.2l9.6,0.3C93.5,177.4,92.8,151.8,87.2,139.7z"/>
		<path class="st7" d="M71,188.2c0.1-0.3,0.2-0.7,0.2-1c0-1.8-1.5-3.3-3.3-3.3h-5.8c-1.8,0-3.3,1.5-3.3,3.3c0,0.4,0.1,0.7,0.2,1H71z
			"/>
		<path class="st7" d="M94.7,188.2c0.1-0.3,0.2-0.7,0.2-1c0-1.8-1.5-3.3-3.3-3.3h-5.8c-1.8,0-3.3,1.5-3.3,3.3c0,0.4,0.1,0.7,0.2,1
			H94.7z"/>
		<rect x="68.6" y="110" class="st13" width="15.1" height="16.4"/>
		<polygon class="st13" points="67.3,100.1 68.8,111.2 71.7,110.6 70.1,99.7 		"/>
		<polygon class="st13" points="84.9,100.1 83.4,111.2 80.5,110.6 82.1,99.7 		"/>
		<path class="st0" d="M72.4,99.5c0,0.1,0,0.3,0,0.3c0,1.6,1.7,2.9,3.9,2.9c2.1,0,3.9-1.6,3.9-3.2c0,0-1.9-0.1-3.8-0.2
			C74.4,99.4,72.4,99.5,72.4,99.5z"/>
		<path class="st14" d="M70.8,118.2v5.2c0,2,1.6,3.6,3.6,3.6H78c2,0,3.6-1.6,3.6-3.6v-5.2H70.8z"/>
		<rect x="65" y="137" class="st15" width="22.9" height="4.1"/>
		<rect x="74.2" y="136.5" class="st16" width="4.9" height="5"/>
		<rect x="77.8" y="138.7" class="st16" width="1.8" height="0.5"/>
	</g>
	<g class="st11">
		<path class="st0" d="M96.6,141.3c0,1.6-1.3,2.9-2.9,2.9l0,0c-1.6,0-2.9-1.3-2.9-2.9v-4.6c0-1.6,1.3-2.9,2.9-2.9l0,0
			c1.6,0,2.9,1.3,2.9,2.9V141.3z"/>
		<path class="st12" d="M91.3,102.3c-2.5-1.6-8.1-2.8-14.5-2.9v40.2H87v-28.5c1.2,1.8,2.9,5,2.9,9.8v15.7h7.7v-15.7
			C97.6,112.9,95.6,104.8,91.3,102.3z"/>
		<path class="st2" d="M76.7,78.4v18.8c4.9-0.1,8.9-4.3,8.9-9.4C85.6,82.6,81.7,78.5,76.7,78.4z"/>
		<path class="st3" d="M76.7,78.4V84c1.5,0.8,3.2,1.2,4.7,0.3c0.9-0.5,2-0.2,2.6,0.7c0.2,0.4,0.9,0.7,1.5,1
			C84.7,81.7,81.1,78.5,76.7,78.4z"/>
		<path class="st2" d="M86.8,88.1c0,1.4-0.4,2.5-1,2.5c-0.5,0-1-1.1-1-2.5c0-1.4,0.4-2.5,1-2.5C86.3,85.6,86.8,86.7,86.8,88.1z"/>
		<g>
			<g>
				<path class="st4" d="M76.7,82.3h9.7c0-0.1,0-0.1-0.1-0.2c-0.2-0.5-0.6-2.1-0.6-2.7c0-4.4-4-7.9-9.1-8V82.3z"/>
				<path class="st4" d="M76.7,69.6v4.7c1.2-0.2,2.1-1.2,2.1-2.4C78.8,70.7,77.9,69.7,76.7,69.6z"/>
				<g>
					<path class="st5" d="M79,71.7c1,0.2,1.9,0.6,2.8,1.1v5.9c0,0.8-0.6,1.4-1.4,1.4l0,0c-0.8,0-1.4-0.6-1.4-1.4v-6.4
						C78.8,72.1,78.9,71.9,79,71.7z"/>
				</g>
			</g>
			<path class="st5" d="M84.3,81.8h-7.5v1.5h7.5c0.4,0,0.8-0.3,0.8-0.8C85,82.1,84.7,81.8,84.3,81.8z"/>
		</g>
		<path class="st13" d="M87.2,139.7L87,123H76.7v24.2h1.7c3.5,9,5.4,26.6,5.1,38.2l9.6,0.3C93.5,177.4,92.8,151.8,87.2,139.7z"/>
		<path class="st7" d="M94.7,188.2c0.1-0.3,0.2-0.7,0.2-1c0-1.8-1.5-3.3-3.3-3.3h-5.8c-1.8,0-3.3,1.5-3.3,3.3c0,0.4,0.1,0.7,0.2,1
			H94.7z"/>
		<rect x="76.7" y="110" class="st13" width="6.9" height="16.4"/>
		<polygon class="st13" points="84.9,100.1 83.4,111.2 80.5,110.6 82.1,99.7 		"/>
		<path class="st0" d="M76.7,99.4v3.3c1.9-0.2,3.4-1.7,3.4-3.2C80.2,99.6,78.5,99.4,76.7,99.4z"/>
		<path class="st14" d="M76.7,118.2v8.8H78c2,0,3.6-1.6,3.6-3.6v-5.2H76.7z"/>
		<rect x="76.7" y="137" class="st15" width="11.2" height="4.1"/>
		<rect x="76.7" y="136.5" class="st16" width="2.3" height="5"/>
		<rect x="77.8" y="138.7" class="st16" width="1.8" height="0.5"/>
	</g>
</g>
<g>
	<g>
		<path class="st17" d="M176.8,44.9c0.8,0,1.5-0.7,1.5-1.5c0-0.8-0.7-1.5-1.5-1.5c-0.8,0-1.5,0.7-1.5,1.5
			C175.3,44.2,176,44.9,176.8,44.9z"/>
		<path class="st0" d="M157.8,130.1c0,2-1.6,3.6-3.6,3.6l0,0c-2,0-3.6-1.6-3.6-3.6v-5.8c0-2,1.6-3.6,3.6-3.6l0,0
			c2,0,3.6,1.6,3.6,3.6V130.1z"/>
		<path class="st0" d="M201.5,130.1c0,2-1.6,3.6-3.6,3.6l0,0c-2,0-3.6-1.6-3.6-3.6v-5.8c0-2,1.6-3.6,3.6-3.6l0,0
			c2,0,3.6,1.6,3.6,3.6V130.1z"/>
		<path class="st18" d="M194.8,81.5c-3.2-2.1-10.3-3.6-18.6-3.6c-8.3,0-15.4,1.4-18.6,3.5c-5.4,3.1-7.9,13.2-7.9,23.3v19.5h9.6
			v-19.5c0-6.6,2.1-10.7,3.5-12.8v36h26.6V92.5c1.5,2.2,3.6,6.2,3.6,12.2v19.5h9.6v-19.5C202.6,94.7,200.2,84.7,194.8,81.5z"/>
		<ellipse class="st2" cx="176.4" cy="63.5" rx="11.4" ry="11.7"/>
		<path class="st3" d="M166.9,60.2c1.2-1.3,2.6-2.3,3.9-3.5c0.9-0.8,2.4-1,3.3,0c2,2.2,5.6,4.1,8.4,2.4c1.1-0.7,2.5-0.2,3.2,0.8
			c0.3,0.5,1.1,0.9,1.8,1.3c-1-5.4-5.6-9.5-11.2-9.5c-6.1,0-11.1,5-11.3,11.2C165.8,62.1,166.2,61,166.9,60.2z"/>
		<path class="st2" d="M189.2,63.8c0,1.7-0.5,3.1-1.2,3.1c-0.7,0-1.2-1.4-1.2-3.1s0.5-3.1,1.2-3.1C188.6,60.8,189.2,62.1,189.2,63.8
			z"/>
		<path class="st2" d="M166.3,63.8c0,1.7-0.5,3.1-1.2,3.1s-1.2-1.4-1.2-3.1s0.5-3.1,1.2-3.1S166.3,62.1,166.3,63.8z"/>
		<path class="st18" d="M188.8,56.7c0-0.1,0-0.2-0.1-0.3c-0.2-0.7-0.7-2.6-0.7-3.3c0-5.5-5.1-10-11.5-10c-6.4,0-11.5,4.5-11.5,10
			c0,0.6-0.6,2.5-1,3.6H188.8z"/>
		<path class="st17" d="M190.5,56.7c0,0.7-0.6,1.2-1.2,1.2h-25.4c-0.7,0-1.2-0.6-1.2-1.2l0,0c0-0.7,0.6-1.2,1.2-1.2h25.4
			C190,55.5,190.5,56,190.5,56.7L190.5,56.7z"/>
		<path class="st19" d="M189.7,128l-0.2-0.7h-26.6v2.4c-6.3,15.7-7.1,45.6-6.8,55.5l12-0.3c-0.4-14.5,2.5-36.5,7-47.5h3.9
			c4.3,11.2,6.7,33.1,6.3,47.5l12,0.3C197.5,174.9,196.7,143.1,189.7,128z"/>
		<path class="st7" d="M169.6,188.4c0.1-0.4,0.2-0.8,0.2-1.3c0-2.3-1.9-4.2-4.2-4.2h-7.2c-2.3,0-4.2,1.9-4.2,4.2
			c0,0.4,0.1,0.9,0.2,1.3H169.6z"/>
		<path class="st7" d="M199.1,188.4c0.1-0.4,0.2-0.8,0.2-1.3c0-2.3-1.9-4.2-4.2-4.2h-7.2c-2.3,0-4.2,1.9-4.2,4.2
			c0,0.4,0.1,0.9,0.2,1.3H199.1z"/>
		<path class="st20" d="M197.4,168.4c-0.3-5.2-0.7-10.9-1.4-16.6h-13.8c0.9,5.3,1.6,11,2.1,16.6H197.4z"/>
		<path class="st20" d="M169.1,168.4c0.5-5.6,1.3-11.3,2.3-16.6h-14.2c-0.7,5.7-1.2,11.4-1.4,16.6H169.1z"/>
		<path class="st17" d="M159.8,111.6v-6.9c0-1.8,0.2-3.5,0.5-5.1h-10.8c-0.2,1.7-0.2,3.5-0.2,5.1v6.9H159.8z"/>
		<path class="st17" d="M192.5,111.6h10.6v-6.9c0-1.7-0.1-3.4-0.2-5.1H192c0.4,1.6,0.6,3.3,0.6,5.1V111.6z"/>
		<path class="st1" d="M184.3,78.4c-2.5-0.3-5.2-0.5-8.1-0.5c-2.7,0-5.3,0.2-7.7,0.4v46.2h15.8V78.4z"/>
		<path class="st0" d="M171.3,78.1c0,0.1,0,0.3,0,0.4c0,2,2.2,3.6,4.8,3.6c2.7,0,4.8-2,4.8-4c0,0-2.4-0.2-4.8-0.2
			C173.8,77.9,171.3,78.1,171.3,78.1z"/>
		<rect x="162.2" y="124.7" class="st21" width="28.5" height="5.1"/>
		<g>
			<g>
				<g>
					<path class="st15" d="M180.1,130.8h-7v-7.2h7V130.8z M174,129.8h5.1v-5.3H174V129.8z"/>
				</g>
				<g>
					<rect x="177.5" y="126.4" class="st15" width="3.2" height="1.6"/>
				</g>
			</g>
		</g>
		<polygon class="st20" points="186.4,125.1 183.2,124.7 181,77.7 186.1,77.7 		"/>
		<polygon class="st20" points="165.3,124.9 168.5,124.6 171,77.7 165.9,77.7 		"/>
	</g>
	<g class="st11">
		<path class="st17" d="M176.8,42c-0.3,0-0.6,0.1-0.8,0.2v2.4c0.2,0.1,0.5,0.2,0.8,0.2c0.8,0,1.5-0.7,1.5-1.5
			C178.2,42.6,177.6,42,176.8,42z"/>
		<path class="st0" d="M201.5,130.1c0,2-1.6,3.6-3.6,3.6l0,0c-2,0-3.6-1.6-3.6-3.6v-5.8c0-2,1.6-3.6,3.6-3.6l0,0
			c2,0,3.6,1.6,3.6,3.6V130.1z"/>
		<path class="st18" d="M194.8,81.5c-3.2-2.1-10.3-3.6-18.6-3.6c-0.1,0-0.1,0-0.2,0v50h13.4V92.5c1.5,2.2,3.6,6.2,3.6,12.2v19.5h9.6
			v-19.5C202.6,94.7,200.2,84.7,194.8,81.5z"/>
		<path class="st2" d="M176.4,51.8c-0.1,0-0.3,0-0.4,0v23.3c0.1,0,0.3,0,0.4,0c6.3,0,11.4-5.2,11.4-11.7S182.7,51.8,176.4,51.8z"/>
		<path class="st3" d="M176.4,51.8c-0.1,0-0.3,0-0.4,0v6.5c2,1.3,4.5,2.1,6.5,0.8c1.1-0.7,2.5-0.2,3.2,0.8c0.3,0.5,1.1,0.9,1.8,1.3
			C186.5,55.9,181.9,51.8,176.4,51.8z"/>
		<path class="st2" d="M189.2,63.8c0,1.7-0.5,3.1-1.2,3.1c-0.7,0-1.2-1.4-1.2-3.1s0.5-3.1,1.2-3.1C188.6,60.8,189.2,62.1,189.2,63.8
			z"/>
		<path class="st18" d="M176,56.7h12.8c0-0.1,0-0.2-0.1-0.3c-0.2-0.7-0.7-2.6-0.7-3.3c0-5.5-5.1-10-11.5-10c-0.2,0-0.3,0-0.5,0V56.7
			z"/>
		<path class="st17" d="M189.3,55.5H176V58h13.3c0.7,0,1.2-0.6,1.2-1.2C190.5,56,190,55.5,189.3,55.5z"/>
		<path class="st19" d="M189.7,128l-0.2-0.7H176v10h2.9c4.3,11.2,6.7,33.1,6.3,47.5l12,0.3C197.5,174.9,196.7,143.1,189.7,128z"/>
		<path class="st7" d="M199.1,188.4c0.1-0.4,0.2-0.8,0.2-1.3c0-2.3-1.9-4.2-4.2-4.2h-7.2c-2.3,0-4.2,1.9-4.2,4.2
			c0,0.4,0.1,0.9,0.2,1.3H199.1z"/>
		<path class="st20" d="M197.4,168.4c-0.3-5.2-0.7-10.9-1.4-16.6h-13.8c0.9,5.3,1.6,11,2.1,16.6H197.4z"/>
		<path class="st17" d="M192.5,111.6h10.6v-6.9c0-1.7-0.1-3.4-0.2-5.1H192c0.4,1.6,0.6,3.3,0.6,5.1V111.6z"/>
		<path class="st1" d="M176.2,77.9c-0.1,0-0.1,0-0.2,0v46.6h8.3V78.4C181.8,78.1,179.1,77.9,176.2,77.9z"/>
		<path class="st0" d="M176.2,77.9c-0.1,0-0.1,0-0.2,0v4.2c0,0,0.1,0,0.1,0c2.7,0,4.8-2,4.8-4C181,78.1,178.6,77.9,176.2,77.9z"/>
		<rect x="176" y="124.7" class="st21" width="14.6" height="5.1"/>
		<g>
			<g>
				<g>
					<polygon class="st15" points="176,123.6 176,124.5 179.1,124.5 179.1,129.8 176,129.8 176,130.8 180.1,130.8 180.1,123.6 					
						"/>
				</g>
				<g>
					<rect x="177.5" y="126.4" class="st15" width="3.2" height="1.6"/>
				</g>
			</g>
		</g>
		<polygon class="st20" points="186.4,125.1 183.2,124.7 181,77.7 186.1,77.7 		"/>
	</g>
</g>
<g>
	<g>
		<path class="st0" d="M206.5,126.3c0,2.1-1.7,3.8-3.8,3.8l0,0c-2.1,0-3.8-1.7-3.8-3.8v-6.2c0-2.1,1.7-3.8,3.8-3.8l0,0
			c2.1,0,3.8,1.7,3.8,3.8V126.3z"/>
		<path class="st0" d="M253.1,126.3c0,2.1-1.7,3.8-3.8,3.8l0,0c-2.1,0-3.8-1.7-3.8-3.8v-6.2c0-2.1,1.7-3.8,3.8-3.8l0,0
			c2.1,0,3.8,1.7,3.8,3.8V126.3z"/>
		<path class="st1" d="M246,74.3c-3.4-2.2-11-3.8-19.9-3.8c-8.8,0-16.4,1.5-19.8,3.8c-5.8,3.4-8.4,14.1-8.4,24.9V120h10.3V99.2
			c0-7.1,2.3-11.5,3.7-13.7V124h28.4V86.1c1.6,2.4,3.8,6.6,3.8,13.1V120h10.3V99.2C254.4,88.5,251.7,77.7,246,74.3z"/>
		<ellipse class="st2" cx="226.3" cy="55.1" rx="12.1" ry="12.5"/>
		<path class="st3" d="M216.2,51.6c1.2-1.4,2.8-2.4,4.2-3.7c1-0.9,2.6-1,3.5,0c2.1,2.3,6,4.4,9,2.6c1.2-0.7,2.7-0.2,3.4,0.9
			c0.3,0.5,1.1,1,2,1.4c-1.1-5.8-6-10.1-11.9-10.1c-6.5,0-11.9,5.3-12.1,11.9C215,53.7,215.5,52.4,216.2,51.6z"/>
		<path class="st2" d="M240,55.5c0,1.8-0.6,3.3-1.3,3.3c-0.7,0-1.3-1.5-1.3-3.3s0.6-3.3,1.3-3.3C239.4,52.2,240,53.7,240,55.5z"/>
		<path class="st2" d="M215.5,55.5c0,1.8-0.6,3.3-1.3,3.3c-0.7,0-1.3-1.5-1.3-3.3s0.6-3.3,1.3-3.3C215,52.2,215.5,53.7,215.5,55.5z"
			/>
		<g>
			<g>
				<path class="st22" d="M239.6,47.8c0-0.1,0-0.2-0.1-0.3c-0.2-0.7-0.8-2.8-0.8-3.5c0-5.9-5.5-10.6-12.3-10.6
					c-6.8,0-12.3,4.8-12.3,10.6c0,0.7-0.6,2.7-1,3.8H239.6z"/>
				<circle class="st22" cx="226.2" cy="34" r="3.2"/>
				<g>
					<g>
						<path class="st23" d="M219.2,35.4c1.1-0.7,2.4-1.2,3.7-1.6c0.1,0.2,0.1,0.5,0.1,0.7v8.5c0,1.1-0.9,1.9-1.9,1.9l0,0
							c-1.1,0-1.9-0.9-1.9-1.9V35.4z"/>
						<path class="st23" d="M229.6,33.7c1.3,0.3,2.6,0.8,3.7,1.5v7.9c0,1.1-0.9,1.9-1.9,1.9l0,0c-1.1,0-1.9-0.9-1.9-1.9v-8.5
							C229.5,34.2,229.5,34,229.6,33.7z"/>
					</g>
				</g>
			</g>
			<path class="st23" d="M237.7,48.2c0,0.6-0.5,1-1,1h-21.2c-0.6,0-1-0.5-1-1l0,0c0-0.6,0.5-1,1-1h21.2
				C237.2,47.2,237.7,47.6,237.7,48.2L237.7,48.2z"/>
		</g>
		<path class="st6" d="M240.5,124l-0.2-0.7h-28.5v2.6c-6.8,16.8-7.6,48.7-7.3,59.3l12.8-0.4c-0.4-15.5,2.7-39,7.5-50.8h4.2
			c4.6,11.9,7.2,35.4,6.8,50.8l12.8,0.4C248.9,174.2,248,140.2,240.5,124z"/>
		<path class="st7" d="M219.1,188.6c0.1-0.4,0.2-0.9,0.2-1.4c0-2.5-2-4.4-4.4-4.4h-7.7c-2.5,0-4.4,2-4.4,4.4c0,0.5,0.1,0.9,0.2,1.4
			H219.1z"/>
		<path class="st7" d="M250.5,188.6c0.1-0.4,0.2-0.9,0.2-1.4c0-2.5-2-4.4-4.4-4.4h-7.7c-2.5,0-4.4,2-4.4,4.4c0,0.5,0.1,0.9,0.2,1.4
			H250.5z"/>
		<path class="st0" d="M220.8,70.7c0,0.1,0,0.3,0,0.4c0,2.1,2.3,3.8,5.2,3.8c2.9,0,5.2-2.1,5.2-4.2c0,0-2.5-0.2-5.1-0.2
			C223.5,70.5,220.9,70.7,220.8,70.7z"/>
		<rect x="211.1" y="120.5" class="st21" width="30.4" height="5.5"/>
		<path class="st15" d="M230.9,122.3h-0.6v-3h-7.5v7.7h7.5v-3h0.6V122.3z M229.3,126h-5.5v-5.6h5.5v2h-1.7v1.7h1.7V126z"/>
		<path class="st24" d="M216.1,82.8v-1.1c0-0.3,0-0.5,0-0.8c0-0.3,0-0.5,0-0.8v-9l-2.8,0.4l-0.4,16.7l-1.2,0.2l-0.6,32l10.2,0.2
			l0-31.1C216.1,89.5,216.1,82.8,216.1,82.8z"/>
		<path class="st24" d="M240.3,88.5l-1.2-0.2l-0.4-16.7l-2.8-0.4v11.7c0,0,0,6.9-4.5,7.1l0,30.8l9.5-0.2L240.3,88.5z"/>
		<rect x="211.2" y="109.5" class="st25" width="10.2" height="1"/>
		<rect x="211.2" y="112.8" class="st25" width="10.2" height="1"/>
		<rect x="231.4" y="109.5" class="st25" width="9.4" height="1"/>
		<rect x="231.4" y="112.8" class="st25" width="9.4" height="1"/>
	</g>
	<g class="st11">
		<path class="st0" d="M253.1,126.3c0,2.1-1.7,3.8-3.8,3.8l0,0c-2.1,0-3.8-1.7-3.8-3.8v-6.2c0-2.1,1.7-3.8,3.8-3.8l0,0
			c2.1,0,3.8,1.7,3.8,3.8V126.3z"/>
		<path class="st1" d="M246,74.3c-3.4-2.2-11-3.8-19.9-3.8c-0.1,0-0.2,0-0.3,0V124h14.5V86.1c1.6,2.4,3.8,6.6,3.8,13.1V120h10.3
			V99.2C254.4,88.5,251.7,77.7,246,74.3z"/>
		<path class="st2" d="M226.3,42.6c-0.2,0-0.4,0-0.5,0v24.9c0.2,0,0.4,0,0.5,0c6.7,0,12.1-5.6,12.1-12.5S233,42.6,226.3,42.6z"/>
		<path class="st3" d="M226.3,42.6c-0.2,0-0.4,0-0.5,0v6.9c2.1,1.5,4.9,2.3,7.1,0.9c1.2-0.7,2.7-0.2,3.4,0.9c0.3,0.5,1.1,1,2,1.4
			C237.2,46.9,232.3,42.6,226.3,42.6z"/>
		<path class="st2" d="M240,55.5c0,1.8-0.6,3.3-1.3,3.3c-0.7,0-1.3-1.5-1.3-3.3s0.6-3.3,1.3-3.3C239.4,52.2,240,53.7,240,55.5z"/>
		<g>
			<g>
				<path class="st22" d="M225.8,47.8h13.8c0-0.1,0-0.2-0.1-0.3c-0.2-0.7-0.8-2.8-0.8-3.5c0-5.9-5.5-10.6-12.3-10.6
					c-0.2,0-0.4,0-0.6,0V47.8z"/>
				<path class="st22" d="M226.2,30.9c-0.1,0-0.3,0-0.4,0v6.3c0.1,0,0.3,0,0.4,0c1.7,0,3.2-1.4,3.2-3.2
					C229.4,32.3,228,30.9,226.2,30.9z"/>
				<g>
					<g>
						<path class="st23" d="M229.6,33.7c1.3,0.3,2.6,0.8,3.7,1.5v7.9c0,1.1-0.9,1.9-1.9,1.9l0,0c-1.1,0-1.9-0.9-1.9-1.9v-8.5
							C229.5,34.2,229.5,34,229.6,33.7z"/>
					</g>
				</g>
			</g>
			<path class="st23" d="M236.7,47.2h-10.8v2.1h10.8c0.6,0,1-0.5,1-1C237.7,47.6,237.2,47.2,236.7,47.2z"/>
		</g>
		<path class="st6" d="M240.5,124l-0.2-0.7h-14.5V134h3.2c4.6,11.9,7.2,35.4,6.8,50.8l12.8,0.4C248.9,174.2,248,140.2,240.5,124z"/>
		<path class="st7" d="M250.5,188.6c0.1-0.4,0.2-0.9,0.2-1.4c0-2.5-2-4.4-4.4-4.4h-7.7c-2.5,0-4.4,2-4.4,4.4c0,0.5,0.1,0.9,0.2,1.4
			H250.5z"/>
		<path class="st0" d="M226.1,70.6c-0.1,0-0.2,0-0.3,0V75c0.1,0,0.2,0,0.2,0c2.9,0,5.2-2.1,5.2-4.2
			C231.2,70.8,228.7,70.6,226.1,70.6z"/>
		<rect x="225.8" y="120.5" class="st21" width="15.7" height="5.5"/>
		<polygon class="st15" points="230.3,122.3 230.3,119.3 225.8,119.3 225.8,120.3 229.3,120.3 229.3,122.3 227.6,122.3 227.6,124 
			229.3,124 229.3,126 225.8,126 225.8,127 230.3,127 230.3,124 230.9,124 230.9,122.3 		"/>
		<path class="st24" d="M240.3,88.5l-1.2-0.2l-0.4-16.7l-2.8-0.4v11.7c0,0,0,6.9-4.5,7.1l0,30.8l9.5-0.2L240.3,88.5z"/>
		<rect x="231.4" y="109.5" class="st25" width="9.4" height="1"/>
		<rect x="231.4" y="112.8" class="st25" width="9.4" height="1"/>
	</g>
</g>
<g>
	<g>
		<path class="st0" d="M109.7,136.2c0,1.8-1.5,3.2-3.2,3.2l0,0c-1.8,0-3.2-1.5-3.2-3.2V131c0-1.8,1.5-3.2,3.2-3.2l0,0
			c1.8,0,3.2,1.5,3.2,3.2V136.2z"/>
		<path class="st0" d="M149,136.2c0,1.8-1.5,3.2-3.2,3.2l0,0c-1.8,0-3.2-1.5-3.2-3.2V131c0-1.8,1.5-3.2,3.2-3.2l0,0
			c1.8,0,3.2,1.5,3.2,3.2V136.2z"/>
		<path class="st1" d="M143,92.4c-2.9-1.9-9.3-3.2-16.8-3.2c-7.4,0-13.8,1.3-16.7,3.2c-4.9,2.8-7.1,11.9-7.1,21v17.5h8.6v-17.5
			c0-5.9,1.9-9.7,3.1-11.5v32.4h24v-31.9c1.3,2,3.2,5.6,3.2,11v17.5h8.6v-17.5C150.1,104.4,147.9,95.3,143,92.4z"/>
		<ellipse class="st2" cx="126.4" cy="76.2" rx="10.2" ry="10.5"/>
		<path class="st3" d="M117.9,73.2c1-1.2,2.4-2.1,3.6-3.1c0.8-0.7,2.2-0.9,3,0c1.8,1.9,5.1,3.7,7.6,2.2c1-0.6,2.3-0.2,2.9,0.8
			c0.3,0.4,1,0.8,1.6,1.2c-0.9-4.9-5.1-8.5-10-8.5c-5.5,0-10,4.5-10.2,10.1C116.9,75,117.3,74,117.9,73.2z"/>
		<path class="st2" d="M137.9,76.5c0,1.5-0.5,2.8-1.1,2.8s-1.1-1.2-1.1-2.8c0-1.5,0.5-2.8,1.1-2.8S137.9,75,137.9,76.5z"/>
		<path class="st2" d="M117.3,76.5c0,1.5-0.5,2.8-1.1,2.8c-0.6,0-1.1-1.2-1.1-2.8c0-1.5,0.5-2.8,1.1-2.8
			C116.9,73.8,117.3,75,117.3,76.5z"/>
		<g>
			<g>
				<path class="st4" d="M137.6,70.1c0-0.1,0-0.2-0.1-0.3c-0.2-0.6-0.7-2.3-0.7-3c0-5-4.6-9-10.4-9c-5.7,0-10.4,4-10.4,9
					c0,0.6-0.5,2.3-0.9,3.2H137.6z"/>
				<circle class="st4" cx="126.4" cy="58.5" r="2.7"/>
				<g>
					<path class="st5" d="M120.4,59.6c0.9-0.6,2-1.1,3.1-1.3c0.1,0.2,0.1,0.4,0.1,0.6v7.2c0,0.9-0.7,1.6-1.6,1.6l0,0
						c-0.9,0-1.6-0.7-1.6-1.6V59.6z"/>
					<path class="st5" d="M129.2,58.2c1.1,0.3,2.2,0.7,3.1,1.2v6.6c0,0.9-0.7,1.6-1.6,1.6l0,0c-0.9,0-1.6-0.7-1.6-1.6v-7.2
						C129.1,58.6,129.1,58.4,129.2,58.2z"/>
				</g>
			</g>
			<path class="st5" d="M136,70.4c0,0.5-0.4,0.9-0.9,0.9h-17.9c-0.5,0-0.9-0.4-0.9-0.9l0,0c0-0.5,0.4-0.9,0.9-0.9h17.9
				C135.6,69.5,136,69.9,136,70.4L136,70.4z"/>
		</g>
		<path class="st6" d="M138.4,134.3l-0.2-0.6h-24v2.2c-5.7,14.1-6.4,41-6.1,50l10.8-0.3c-0.4-13.1,2.3-32.9,6.3-42.8h3.5
			c3.9,10.1,6.1,29.8,5.7,42.8l10.8,0.3C145.5,176.6,144.7,147.9,138.4,134.3z"/>
		<path class="st7" d="M120.3,188.7c0.1-0.4,0.2-0.8,0.2-1.2c0-2.1-1.7-3.7-3.7-3.7h-6.5c-2.1,0-3.7,1.7-3.7,3.7
			c0,0.4,0.1,0.8,0.2,1.2H120.3z"/>
		<path class="st7" d="M146.9,188.7c0.1-0.4,0.2-0.8,0.2-1.2c0-2.1-1.7-3.7-3.7-3.7h-6.5c-2.1,0-3.7,1.7-3.7,3.7
			c0,0.4,0.1,0.8,0.2,1.2H146.9z"/>
		<path class="st0" d="M121.8,89.4c0,0.1,0,0.3,0,0.3c0,1.8,1.9,3.2,4.4,3.2c2.4,0,4.4-1.8,4.4-3.6c0,0-2.1-0.2-4.3-0.2
			C124.1,89.2,121.9,89.4,121.8,89.4z"/>
		<rect x="113.6" y="131.4" class="st15" width="25.7" height="4.6"/>
		<rect x="123.9" y="130.8" class="st26" width="5.5" height="5.6"/>
		<rect x="127.9" y="133.3" class="st26" width="2" height="0.5"/>
		<path class="st27" d="M128.6,100.2v3.2c0,1.2,1,2.2,2.2,2.2h2.2c1.2,0,2.2-1,2.2-2.2v-3.2H128.6z"/>
	</g>
	<g class="st11">
		<path class="st0" d="M149,136.2c0,1.8-1.5,3.2-3.2,3.2l0,0c-1.8,0-3.2-1.5-3.2-3.2V131c0-1.8,1.5-3.2,3.2-3.2l0,0
			c1.8,0,3.2,1.5,3.2,3.2V136.2z"/>
		<path class="st1" d="M143,92.4c-2.8-1.9-9.1-3.2-16.4-3.2v45h11.6v-31.9c1.3,2,3.2,5.6,3.2,11v17.5h8.6v-17.5
			C150.1,104.4,147.9,95.3,143,92.4z"/>
		<path class="st2" d="M126.6,65.7v21c5.6-0.1,10.1-4.8,10.1-10.5C136.7,70.4,132.2,65.7,126.6,65.7z"/>
		<path class="st3" d="M126.6,65.7v6.2c1.7,1,3.7,1.4,5.4,0.4c1-0.6,2.3-0.2,2.9,0.8c0.3,0.4,1,0.8,1.6,1.2
			C135.6,69.4,131.5,65.7,126.6,65.7z"/>
		<path class="st2" d="M137.9,76.5c0,1.5-0.5,2.8-1.1,2.8s-1.1-1.2-1.1-2.8c0-1.5,0.5-2.8,1.1-2.8S137.9,75,137.9,76.5z"/>
		<g>
			<g>
				<path class="st4" d="M126.6,70.1h11c0-0.1,0-0.2-0.1-0.3c-0.2-0.6-0.7-2.3-0.7-3c0-4.9-4.6-8.9-10.3-9V70.1z"/>
				<path class="st4" d="M126.6,55.8v5.3c1.4-0.1,2.4-1.3,2.4-2.7C129,57.1,128,55.9,126.6,55.8z"/>
				<g>
					<path class="st5" d="M129.2,58.2c1.1,0.3,2.2,0.7,3.1,1.2v6.6c0,0.9-0.7,1.6-1.6,1.6l0,0c-0.9,0-1.6-0.7-1.6-1.6v-7.2
						C129.1,58.6,129.1,58.4,129.2,58.2z"/>
				</g>
			</g>
			<path class="st5" d="M135.1,69.5h-8.6v1.7h8.6c0.5,0,0.9-0.4,0.9-0.9S135.6,69.5,135.1,69.5z"/>
		</g>
		<path class="st6" d="M138.4,134.3l-0.2-0.6h-11.6v9h2.1c3.9,10.1,6.1,29.8,5.7,42.8l10.8,0.3C145.5,176.6,144.7,147.9,138.4,134.3
			z"/>
		<path class="st7" d="M146.9,188.7c0.1-0.4,0.2-0.8,0.2-1.2c0-2.1-1.7-3.7-3.7-3.7h-6.5c-2.1,0-3.7,1.7-3.7,3.7
			c0,0.4,0.1,0.8,0.2,1.2H146.9z"/>
		<path class="st0" d="M126.6,89.2V93c2.2-0.2,4-1.9,4-3.6C130.6,89.4,128.6,89.3,126.6,89.2z"/>
		<rect x="126.6" y="131.4" class="st15" width="12.7" height="4.6"/>
		<rect x="126.6" y="130.8" class="st26" width="2.8" height="5.6"/>
		<rect x="127.9" y="133.3" class="st26" width="2" height="0.5"/>
		<path class="st27" d="M128.6,100.2v3.2c0,1.2,1,2.2,2.2,2.2h2.2c1.2,0,2.2-1,2.2-2.2v-3.2H128.6z"/>
	</g>
</g>
<g>
	<g>
		<path class="st0" d="M411.1,140.4c0,1.6-1.3,2.9-2.9,2.9l0,0c-1.6,0-2.9-1.3-2.9-2.9v-4.6c0-1.6,1.3-2.9,2.9-2.9l0,0
			c1.6,0,2.9,1.3,2.9,2.9V140.4z"/>
		<path class="st0" d="M446.2,140.4c0,1.6-1.3,2.9-2.9,2.9l0,0c-1.6,0-2.9-1.3-2.9-2.9v-4.6c0-1.6,1.3-2.9,2.9-2.9l0,0
			c1.6,0,2.9,1.3,2.9,2.9V140.4z"/>
		<path class="st28" d="M440.8,101.3c-2.6-1.7-8.3-2.9-15-2.9c-6.6,0-12.3,1.2-14.9,2.8c-4.3,2.5-6.3,10.6-6.3,18.7v15.7h7.7V120
			c0-5.3,1.7-8.6,2.8-10.3v28.9h21.4v-28.5c1.2,1.8,2.9,5,2.9,9.8v15.7h7.7V120C447.1,112,445.1,103.9,440.8,101.3z"/>
		<path class="st2" d="M435.1,86.8c0,5.2-4.1,9.4-9.1,9.4c-5,0-9.1-4.2-9.1-9.4c0-5.2,4.1-9.4,9.1-9.4
			C431,77.4,435.1,81.6,435.1,86.8z"/>
		<path class="st3" d="M418.4,84.2c0.9-1.1,2.1-1.8,3.2-2.8c0.7-0.7,1.9-0.8,2.6,0c1.6,1.7,4.5,3.3,6.8,1.9c0.9-0.5,2-0.2,2.6,0.7
			c0.2,0.4,0.9,0.7,1.5,1c-0.8-4.3-4.5-7.6-9-7.6c-4.9,0-8.9,4-9.1,9C417.5,85.8,417.8,84.8,418.4,84.2z"/>
		<path class="st2" d="M436.3,87.1c0,1.4-0.4,2.5-1,2.5c-0.5,0-1-1.1-1-2.5c0-1.4,0.4-2.5,1-2.5C435.8,84.7,436.3,85.8,436.3,87.1z"
			/>
		<path class="st2" d="M417.9,87.1c0,1.4-0.4,2.5-1,2.5c-0.5,0-1-1.1-1-2.5c0-1.4,0.4-2.5,1-2.5C417.4,84.7,417.9,85.8,417.9,87.1z"
			/>
		<g>
			<g>
				<path class="st4" d="M436,81.4c0-0.1,0-0.1-0.1-0.2c-0.2-0.5-0.6-2.1-0.6-2.7c0-4.4-4.1-8-9.3-8c-5.1,0-9.3,3.6-9.3,8
					c0,0.5-0.5,2-0.8,2.9H436z"/>
				<path class="st4" d="M425.9,73.4c1.3,0,2.4-1.1,2.4-2.4c0-1.3-1.1-2.4-2.4-2.4c-1.3,0-2.4,1.1-2.4,2.4
					C423.5,72.3,424.6,73.4,425.9,73.4z"/>
				<g>
					<path class="st5" d="M420.6,72c0.8-0.5,1.8-0.9,2.8-1.2c0.1,0.2,0.1,0.3,0.1,0.5v6.4c0,0.8-0.6,1.4-1.4,1.4l0,0
						c-0.8,0-1.4-0.6-1.4-1.4V72z"/>
					<path class="st5" d="M428.5,70.8c1,0.2,1.9,0.6,2.8,1.1v5.9c0,0.8-0.6,1.4-1.4,1.4l0,0c-0.8,0-1.4-0.6-1.4-1.4v-6.4
						C428.4,71.1,428.4,70.9,428.5,70.8z"/>
				</g>
			</g>
			<path class="st5" d="M434.5,81.6c0,0.4-0.3,0.8-0.8,0.8h-16c-0.4,0-0.8-0.3-0.8-0.8l0,0c0-0.4,0.3-0.8,0.8-0.8h16
				C434.2,80.9,434.5,81.2,434.5,81.6L434.5,81.6z"/>
		</g>
		<path class="st6" d="M436.7,138.7l-0.2-16.7h-21.4v18.1c-5.1,12.6-5.7,36.6-5.5,44.6l9.6-0.3c-0.3-11.7,2-29.4,5.6-38.2h3.1
			c3.5,9,5.4,26.6,5.1,38.2l9.6,0.3C443,176.4,442.3,150.9,436.7,138.7z"/>
		<path class="st7" d="M420.6,187.3c0.1-0.3,0.2-0.7,0.2-1c0-1.8-1.5-3.3-3.3-3.3h-5.8c-1.8,0-3.3,1.5-3.3,3.3c0,0.4,0.1,0.7,0.2,1
			H420.6z"/>
		<path class="st7" d="M444.2,187.3c0.1-0.3,0.2-0.7,0.2-1c0-1.8-1.5-3.3-3.3-3.3h-5.8c-1.8,0-3.3,1.5-3.3,3.3c0,0.4,0.1,0.7,0.2,1
			H444.2z"/>
		<rect x="418.1" y="109.1" class="st6" width="15.1" height="16.4"/>
		<polygon class="st6" points="416.8,99.1 418.3,110.3 421.2,109.7 419.7,98.8 		"/>
		<polygon class="st6" points="434.4,99.1 432.9,110.3 430,109.7 431.6,98.8 		"/>
		<path class="st0" d="M421.9,98.2c0,0.1,0,0.3,0,0.3c0,1.6,1.7,2.9,3.9,2.9c2.1,0,3.9-1.6,3.9-3.2c0,0-1.9-0.1-3.8-0.2
			C423.9,98.1,421.9,98.2,421.9,98.2z"/>
		<path class="st8" d="M420.3,117.3v5.2c0,2,1.6,3.6,3.6,3.6h3.6c2,0,3.6-1.6,3.6-3.6v-5.2H420.3z"/>
		<rect x="414.6" y="136.1" class="st29" width="22.9" height="4.1"/>
		<rect x="423.7" y="135.6" class="st16" width="4.9" height="5"/>
		<rect x="427.3" y="137.8" class="st16" width="1.8" height="0.5"/>
	</g>
	<g class="st11">
		<path class="st0" d="M446.2,140.4c0,1.6-1.3,2.9-2.9,2.9l0,0c-1.6,0-2.9-1.3-2.9-2.9v-4.6c0-1.6,1.3-2.9,2.9-2.9l0,0
			c1.6,0,2.9,1.3,2.9,2.9V140.4z"/>
		<path class="st28" d="M440.8,101.3c-2.4-1.6-7.7-2.7-14-2.8v40.2h9.7v-28.5c1.2,1.8,2.9,5,2.9,9.8v15.7h7.7V120
			C447.1,112,445.1,103.9,440.8,101.3z"/>
		<path class="st2" d="M426.8,77.5v18.7c4.7-0.4,8.3-4.4,8.3-9.4C435.1,81.9,431.5,77.9,426.8,77.5z"/>
		<path class="st3" d="M426.8,77.5v5.8c1.4,0.6,2.9,0.8,4.1,0c0.9-0.5,2-0.2,2.6,0.7c0.2,0.4,0.9,0.7,1.5,1
			C434.2,81,430.9,77.8,426.8,77.5z"/>
		<path class="st2" d="M436.3,87.1c0,1.4-0.4,2.5-1,2.5c-0.5,0-1-1.1-1-2.5c0-1.4,0.4-2.5,1-2.5C435.8,84.7,436.3,85.8,436.3,87.1z"
			/>
		<g>
			<g>
				<path class="st4" d="M426.8,81.4h9.2c0-0.1,0-0.1-0.1-0.2c-0.2-0.5-0.6-2.1-0.6-2.7c0-4.2-3.7-7.7-8.5-8V81.4z"/>
				<path class="st4" d="M426.8,68.8v4.4c0.9-0.4,1.5-1.2,1.5-2.2C428.3,70,427.7,69.1,426.8,68.8z"/>
				<g>
					<path class="st5" d="M428.5,70.8c1,0.2,1.9,0.6,2.8,1.1v5.9c0,0.8-0.6,1.4-1.4,1.4l0,0c-0.8,0-1.4-0.6-1.4-1.4v-6.4
						C428.4,71.1,428.4,70.9,428.5,70.8z"/>
				</g>
			</g>
			<path class="st5" d="M433.8,80.9h-7v1.5h7c0.4,0,0.8-0.3,0.8-0.8C434.5,81.2,434.2,80.9,433.8,80.9z"/>
		</g>
		<path class="st6" d="M436.7,138.7l-0.2-16.7h-9.7v24.2h1.2c3.5,9,5.4,26.6,5.1,38.2l9.6,0.3C443,176.4,442.3,150.9,436.7,138.7z"
			/>
		<path class="st7" d="M444.2,187.3c0.1-0.3,0.2-0.7,0.2-1c0-1.8-1.5-3.3-3.3-3.3h-5.8c-1.8,0-3.3,1.5-3.3,3.3c0,0.4,0.1,0.7,0.2,1
			H444.2z"/>
		<rect x="426.8" y="109.1" class="st6" width="6.3" height="16.4"/>
		<polygon class="st6" points="434.4,99.1 432.9,110.3 430,109.7 431.6,98.8 		"/>
		<path class="st0" d="M426.8,98.1v3.2c1.7-0.4,2.9-1.7,2.9-3.1C429.7,98.2,428.3,98.1,426.8,98.1z"/>
		<path class="st8" d="M426.8,117.3v8.8h0.7c2,0,3.6-1.6,3.6-3.6v-5.2H426.8z"/>
		<rect x="426.8" y="136.1" class="st29" width="10.7" height="4.1"/>
		<rect x="426.8" y="135.6" class="st16" width="1.8" height="5"/>
		<rect x="427.3" y="137.8" class="st16" width="1.8" height="0.5"/>
	</g>
</g>
<g>
	<g>
		<path class="st0" d="M462.2,144.5c0,1.5-1.2,2.7-2.7,2.7l0,0c-1.5,0-2.7-1.2-2.7-2.7v-4.2c0-1.5,1.2-2.7,2.7-2.7l0,0
			c1.5,0,2.7,1.2,2.7,2.7V144.5z"/>
		<path class="st0" d="M494.4,144.5c0,1.5-1.2,2.7-2.7,2.7l0,0c-1.5,0-2.7-1.2-2.7-2.7v-4.2c0-1.5,1.2-2.7,2.7-2.7l0,0
			c1.5,0,2.7,1.2,2.7,2.7V144.5z"/>
		<path class="st30" d="M489.5,108.7c-2.3-1.5-7.6-2.6-13.7-2.6c-6.1,0-11.3,1.1-13.7,2.6c-4,2.3-5.8,9.8-5.8,17.2v14.4h7.1v-14.4
			c0-4.9,1.6-7.9,2.6-9.4v26.5h19.6v-26.1c1.1,1.6,2.6,4.6,2.6,9v14.4h7.1v-14.4C495.3,118.4,493.5,111,489.5,108.7z"/>
		<ellipse class="st2" cx="475.9" cy="95.3" rx="8.4" ry="8.6"/>
		<path class="st3" d="M468.9,92.9c0.9-1,2-1.7,2.9-2.6c0.7-0.6,1.8-0.7,2.4,0c1.4,1.6,4.1,3,6.2,1.8c0.8-0.5,1.9-0.2,2.3,0.6
			c0.2,0.4,0.8,0.7,1.3,1c-0.7-4-4.1-7-8.2-7c-4.5,0-8.2,3.7-8.4,8.3C468.1,94.4,468.4,93.5,468.9,92.9z"/>
		<path class="st2" d="M485.3,95.6c0,1.2-0.4,2.3-0.9,2.3c-0.5,0-0.9-1-0.9-2.3c0-1.2,0.4-2.3,0.9-2.3
			C484.9,93.4,485.3,94.4,485.3,95.6z"/>
		<path class="st2" d="M468.5,95.6c0,1.2-0.4,2.3-0.9,2.3s-0.9-1-0.9-2.3c0-1.2,0.4-2.3,0.9-2.3S468.5,94.4,468.5,95.6z"/>
		<g>
			<g>
				<g>
					<path class="st31" d="M485.1,90.4c0-0.1,0-0.1,0-0.2c-0.2-0.5-0.5-1.9-0.5-2.4c0-4.1-3.8-7.4-8.5-7.4c-4.7,0-8.5,3.3-8.5,7.4
						c0,0.5-0.4,1.9-0.7,2.6H485.1z"/>
				</g>
			</g>
			<path class="st32" d="M483.8,90.6c0,0.4-0.3,0.7-0.7,0.7h-14.6c-0.4,0-0.7-0.3-0.7-0.7l0,0c0-0.4,0.3-0.7,0.7-0.7H483
				C483.4,89.9,483.8,90.2,483.8,90.6L483.8,90.6z"/>
		</g>
		<path class="st33" d="M485.7,143l-0.2-15.3h-19.7v16.6c-4.7,11.6-5.2,33.6-5,40.9l8.8-0.3c-0.3-10.7,1.8-26.9,5.1-35.1h2.9
			c3.2,8.2,5,24.4,4.7,35.1l8.8,0.3C491.5,177.6,490.9,154.1,485.7,143z"/>
		<path class="st7" d="M470.9,187.5c0.1-0.3,0.1-0.6,0.1-0.9c0-1.7-1.4-3.1-3.1-3.1h-5.3c-1.7,0-3.1,1.4-3.1,3.1
			c0,0.3,0.1,0.6,0.1,0.9H470.9z"/>
		<path class="st7" d="M492.6,187.5c0.1-0.3,0.1-0.6,0.1-0.9c0-1.7-1.4-3.1-3.1-3.1h-5.3c-1.7,0-3.1,1.4-3.1,3.1
			c0,0.3,0.1,0.6,0.2,0.9H492.6z"/>
		<rect x="468.6" y="115.8" class="st33" width="13.8" height="15"/>
		<polygon class="st33" points="467.5,106.6 468.9,116.9 471.5,116.4 470.1,106.3 		"/>
		<polygon class="st33" points="483.6,106.6 482.3,116.9 479.6,116.4 481.1,106.3 		"/>
		<path class="st0" d="M472.1,106.2c0,0.1,0,0.2,0,0.3c0,1.5,1.6,2.7,3.6,2.7c2,0,3.6-1.5,3.6-2.9c0,0-1.8-0.1-3.5-0.1
			C474,106,472.2,106.2,472.1,106.2z"/>
		<path class="st34" d="M470.7,123.3v4.8c0,1.8,1.5,3.3,3.3,3.3h3.3c1.8,0,3.3-1.5,3.3-3.3v-4.8H470.7z"/>
		<rect x="465.4" y="140.6" class="st27" width="21" height="3.8"/>
	</g>
	<g class="st11">
		<path class="st0" d="M494.4,144.5c0,1.5-1.2,2.7-2.7,2.7l0,0c-1.5,0-2.7-1.2-2.7-2.7v-4.2c0-1.5,1.2-2.7,2.7-2.7l0,0
			c1.5,0,2.7,1.2,2.7,2.7V144.5z"/>
		<path class="st30" d="M489.5,108.7c-2.3-1.5-7.5-2.6-13.5-2.6v36.9h9.5v-26.1c1.1,1.6,2.6,4.6,2.6,9v14.4h7.1v-14.4
			C495.3,118.4,493.5,111,489.5,108.7z"/>
		<path class="st2" d="M476,86.7V104c4.6-0.1,8.3-3.9,8.3-8.6C484.3,90.6,480.6,86.8,476,86.7z"/>
		<path class="st3" d="M476,86.7v5.1c1.4,0.8,3,1.2,4.4,0.3c0.8-0.5,1.9-0.2,2.3,0.6c0.2,0.4,0.8,0.7,1.3,1
			C483.4,89.8,480.1,86.8,476,86.7z"/>
		<path class="st2" d="M485.3,95.6c0,1.2-0.4,2.3-0.9,2.3c-0.5,0-0.9-1-0.9-2.3c0-1.2,0.4-2.3,0.9-2.3
			C484.9,93.4,485.3,94.4,485.3,95.6z"/>
		<g>
			<g>
				<g>
					<path class="st31" d="M476,90.4h9c0-0.1,0-0.1,0-0.2c-0.2-0.5-0.5-1.9-0.5-2.4c0-4-3.8-7.3-8.4-7.4V90.4z"/>
				</g>
			</g>
			<path class="st32" d="M483,89.9h-7v1.4h7c0.4,0,0.7-0.3,0.7-0.7C483.8,90.2,483.4,89.9,483,89.9z"/>
		</g>
		<path class="st33" d="M485.7,143l-0.2-15.3H476v22.2h1.7c3.2,8.2,5,24.4,4.7,35.1l8.8,0.3C491.5,177.6,490.9,154.1,485.7,143z"/>
		<path class="st7" d="M492.6,187.5c0.1-0.3,0.1-0.6,0.1-0.9c0-1.7-1.4-3.1-3.1-3.1h-5.3c-1.7,0-3.1,1.4-3.1,3.1
			c0,0.3,0.1,0.6,0.2,0.9H492.6z"/>
		<rect x="476" y="115.8" class="st33" width="6.4" height="15"/>
		<polygon class="st33" points="483.6,106.6 482.3,116.9 479.6,116.4 481.1,106.3 		"/>
		<path class="st0" d="M476,106v3.1c1.8-0.1,3.3-1.5,3.3-2.9C479.3,106.2,477.7,106.1,476,106z"/>
		<path class="st34" d="M476,123.3v8.1h1.2c1.8,0,3.3-1.5,3.3-3.3v-4.8H476z"/>
		<rect x="476" y="140.6" class="st27" width="10.4" height="3.8"/>
	</g>
</g>
<g>
	<g>
		<path class="st0" d="M359.4,134.9c0,1.8-1.5,3.2-3.2,3.2l0,0c-1.8,0-3.2-1.5-3.2-3.2v-5.2c0-1.8,1.5-3.2,3.2-3.2l0,0
			c1.8,0,3.2,1.5,3.2,3.2V134.9z"/>
		<path class="st0" d="M398.7,134.9c0,1.8-1.5,3.2-3.2,3.2l0,0c-1.8,0-3.2-1.5-3.2-3.2v-5.2c0-1.8,1.5-3.2,3.2-3.2l0,0
			c1.8,0,3.2,1.5,3.2,3.2V134.9z"/>
		<path class="st35" d="M392.7,91.2c-2.9-1.9-9.3-3.2-16.8-3.2c-7.4,0-13.8,1.3-16.7,3.2c-4.9,2.8-7.1,11.9-7.1,21v17.5h8.6v-17.5
			c0-5.9,1.9-9.7,3.1-11.5V133h24v-31.9c1.3,2,3.2,5.6,3.2,11v17.5h8.6v-17.5C399.7,103.1,397.5,94,392.7,91.2z"/>
		<rect x="374.3" y="90.7" class="st36" width="3.5" height="39.9"/>
		<ellipse class="st2" cx="376.1" cy="74.9" rx="10.2" ry="10.5"/>
		<path class="st3" d="M367.5,72c1-1.2,2.4-2.1,3.6-3.1c0.8-0.7,2.2-0.9,3,0c1.8,1.9,5.1,3.7,7.6,2.2c1-0.6,2.3-0.2,2.9,0.8
			c0.3,0.4,1,0.8,1.6,1.2c-0.9-4.9-5.1-8.5-10-8.5c-5.5,0-10,4.5-10.2,10.1C366.5,73.7,366.9,72.7,367.5,72z"/>
		<path class="st2" d="M387.6,75.3c0,1.5-0.5,2.8-1.1,2.8s-1.1-1.2-1.1-2.8c0-1.5,0.5-2.8,1.1-2.8S387.6,73.7,387.6,75.3z"/>
		<path class="st2" d="M367,75.3c0,1.5-0.5,2.8-1.1,2.8c-0.6,0-1.1-1.2-1.1-2.8c0-1.5,0.5-2.8,1.1-2.8C366.5,72.5,367,73.7,367,75.3
			z"/>
		<g>
			<g>
				<path class="st31" d="M387.2,68.8c0-0.1,0-0.2-0.1-0.3c-0.2-0.6-0.7-2.3-0.7-3c0-5-4.6-9-10.4-9c-5.7,0-10.4,4-10.4,9
					c0,0.6-0.5,2.3-0.9,3.2H387.2z"/>
			</g>
			<path class="st32" d="M385.7,69.1c0,0.5-0.4,0.9-0.9,0.9h-17.9c-0.5,0-0.9-0.4-0.9-0.9l0,0c0-0.5,0.4-0.9,0.9-0.9h17.9
				C385.3,68.2,385.7,68.6,385.7,69.1L385.7,69.1z"/>
		</g>
		<path class="st37" d="M388,133.1l-0.2-0.6h-24v2.2c-5.7,14.1-6.4,41-6.1,50l10.8-0.3c-0.4-13.1,2.3-32.9,6.3-42.8h3.5
			c3.9,10.1,6.1,29.8,5.7,42.8l10.8,0.3C395.1,175.3,394.4,146.7,388,133.1z"/>
		<path class="st7" d="M370,187.5c0.1-0.4,0.2-0.8,0.2-1.2c0-2.1-1.7-3.7-3.7-3.7H360c-2.1,0-3.7,1.7-3.7,3.7c0,0.4,0.1,0.8,0.2,1.2
			H370z"/>
		<path class="st7" d="M396.5,187.5c0.1-0.4,0.2-0.8,0.2-1.2c0-2.1-1.7-3.7-3.7-3.7h-6.5c-2.1,0-3.7,1.7-3.7,3.7
			c0,0.4,0.1,0.8,0.2,1.2H396.5z"/>
		<rect x="363.3" y="130.1" class="st27" width="25.7" height="4.6"/>
		<g>
			<path class="st38" d="M376.9,98.2c0,0.5-0.4,0.9-0.9,0.9c-0.5,0-0.9-0.4-0.9-0.9c0-0.5,0.4-0.9,0.9-0.9
				C376.5,97.3,376.9,97.7,376.9,98.2z"/>
			<path class="st38" d="M376.9,104.5c0,0.5-0.4,0.9-0.9,0.9c-0.5,0-0.9-0.4-0.9-0.9c0-0.5,0.4-0.9,0.9-0.9
				C376.5,103.7,376.9,104,376.9,104.5z"/>
			<path class="st38" d="M376.9,110.9c0,0.5-0.4,0.9-0.9,0.9c-0.5,0-0.9-0.4-0.9-0.9c0-0.5,0.4-0.9,0.9-0.9
				C376.5,110,376.9,110.4,376.9,110.9z"/>
			<path class="st38" d="M376.9,117.2c0,0.5-0.4,0.9-0.9,0.9c-0.5,0-0.9-0.4-0.9-0.9c0-0.5,0.4-0.9,0.9-0.9
				C376.5,116.4,376.9,116.7,376.9,117.2z"/>
			<path class="st38" d="M376.9,123.6c0,0.5-0.4,0.9-0.9,0.9c-0.5,0-0.9-0.4-0.9-0.9c0-0.5,0.4-0.9,0.9-0.9
				C376.5,122.7,376.9,123.1,376.9,123.6z"/>
		</g>
		<path class="st0" d="M371.5,88.1c0,0.1,0,0.3,0,0.3c0,1.8,1.9,3.2,4.4,3.2c2.4,0,4.4-1.8,4.4-3.6c0,0-2.1-0.2-4.3-0.2
			C373.7,88,371.5,88.1,371.5,88.1z"/>
	</g>
	<g class="st11">
		<path class="st0" d="M398.7,134.9c0,1.8-1.5,3.2-3.2,3.2l0,0c-1.8,0-3.2-1.5-3.2-3.2v-5.2c0-1.8,1.5-3.2,3.2-3.2l0,0
			c1.8,0,3.2,1.5,3.2,3.2V134.9z"/>
		<path class="st35" d="M392.7,91.2c-2.7-1.8-8.5-3-15.4-3.2v45h10.6v-31.9c1.3,2,3.2,5.6,3.2,11v17.5h8.6v-17.5
			C399.7,103.1,397.5,94,392.7,91.2z"/>
		<rect x="377.3" y="90.7" class="st36" width="0.5" height="39.9"/>
		<path class="st2" d="M377.3,64.5v20.9c5.1-0.6,9-5.1,9-10.4S382.4,65.1,377.3,64.5z"/>
		<path class="st3" d="M377.3,64.5v6.6c1.4,0.6,3,0.7,4.3-0.1c1-0.6,2.3-0.2,2.9,0.8c0.3,0.4,1,0.8,1.6,1.2
			C385.3,68.5,381.7,65,377.3,64.5z"/>
		<path class="st2" d="M387.6,75.3c0,1.5-0.5,2.8-1.1,2.8s-1.1-1.2-1.1-2.8c0-1.5,0.5-2.8,1.1-2.8S387.6,73.7,387.6,75.3z"/>
		<g>
			<g>
				<path class="st31" d="M377.3,68.8h10c0-0.1,0-0.2-0.1-0.3c-0.2-0.6-0.7-2.3-0.7-3c0-4.6-4-8.4-9.2-8.9V68.8z"/>
			</g>
			<path class="st32" d="M384.8,68.2h-7.5V70h7.5c0.5,0,0.9-0.4,0.9-0.9C385.7,68.6,385.3,68.2,384.8,68.2z"/>
		</g>
		<path class="st37" d="M388,133.1l-0.2-0.6h-10.6v9h1c3.9,10.1,6.1,29.8,5.7,42.8l10.8,0.3C395.1,175.3,394.4,146.7,388,133.1z"/>
		<path class="st7" d="M396.5,187.5c0.1-0.4,0.2-0.8,0.2-1.2c0-2.1-1.7-3.7-3.7-3.7h-6.5c-2.1,0-3.7,1.7-3.7,3.7
			c0,0.4,0.1,0.8,0.2,1.2H396.5z"/>
		<rect x="377.3" y="130.1" class="st27" width="11.6" height="4.6"/>
		<path class="st0" d="M377.3,88v3.5c1.7-0.5,2.9-1.9,2.9-3.3C380.2,88.1,378.9,88,377.3,88z"/>
	</g>
</g>
<g>
	<g>
		<path class="st0" d="M307.6,129.4c0,2-1.6,3.6-3.6,3.6l0,0c-2,0-3.6-1.6-3.6-3.6v-5.8c0-2,1.6-3.6,3.6-3.6l0,0
			c2,0,3.6,1.6,3.6,3.6V129.4z"/>
		<path class="st0" d="M351.2,129.4c0,2-1.6,3.6-3.6,3.6l0,0c-2,0-3.6-1.6-3.6-3.6v-5.8c0-2,1.6-3.6,3.6-3.6l0,0
			c2,0,3.6,1.6,3.6,3.6V129.4z"/>
		<path class="st22" d="M344.6,80.8c-3.2-2.1-10.3-3.6-18.6-3.6c-8.3,0-15.4,1.4-18.6,3.5c-5.4,3.1-7.9,13.2-7.9,23.3v19.5h9.6V104
			c0-6.6,2.1-10.7,3.5-12.8v36h26.6V91.8c1.5,2.2,3.6,6.2,3.6,12.2v19.5h9.6V104C352.4,94,350,84,344.6,80.8z"/>
		<rect x="324.2" y="80.3" class="st39" width="3.8" height="44.3"/>
		<path class="st2" d="M337.5,62.8c0,6.4-5.1,11.7-11.4,11.7c-6.3,0-11.4-5.2-11.4-11.7c0-6.4,5.1-11.7,11.4-11.7
			C332.5,51.1,337.5,56.3,337.5,62.8z"/>
		<path class="st3" d="M316.7,59.5c1.2-1.3,2.6-2.3,3.9-3.5c0.9-0.8,2.4-1,3.3,0c2,2.2,5.6,4.1,8.4,2.4c1.1-0.7,2.5-0.2,3.2,0.8
			c0.3,0.5,1.1,0.9,1.8,1.3c-1-5.4-5.6-9.5-11.2-9.5c-6.1,0-11.1,5-11.3,11.2C315.6,61.4,316,60.3,316.7,59.5z"/>
		<path class="st2" d="M338.9,63.1c0,1.7-0.5,3.1-1.2,3.1c-0.7,0-1.2-1.4-1.2-3.1c0-1.7,0.5-3.1,1.2-3.1
			C338.4,60.1,338.9,61.4,338.9,63.1z"/>
		<path class="st2" d="M316.1,63.1c0,1.7-0.5,3.1-1.2,3.1c-0.7,0-1.2-1.4-1.2-3.1c0-1.7,0.5-3.1,1.2-3.1
			C315.5,60.1,316.1,61.4,316.1,63.1z"/>
		<g>
			<g>
				<g>
					<path class="st22" d="M338.6,56c0-0.1,0-0.2-0.1-0.3c-0.2-0.7-0.7-2.6-0.7-3.3c0-5.5-5.1-10-11.5-10c-6.4,0-11.5,4.5-11.5,10
						c0,0.6-0.6,2.5-1,3.6H338.6z"/>
				</g>
				<g>
					<path class="st39" d="M336.8,56.3c0,0.5-0.4,1-1,1H316c-0.5,0-1-0.4-1-1l0,0c0-0.5,0.4-1,1-1h19.8
						C336.4,55.3,336.8,55.8,336.8,56.3L336.8,56.3z"/>
				</g>
			</g>
		</g>
		<path class="st6" d="M339.4,127.3l-0.2-0.7h-26.6v2.4c-6.3,15.7-7.1,45.6-6.8,55.5l12-0.3c-0.4-14.5,2.5-36.5,7-47.5h3.9
			c4.3,11.2,6.7,33.1,6.3,47.5l12,0.3C347.3,174.2,346.5,142.4,339.4,127.3z"/>
		<path class="st7" d="M319.4,187.7c0.1-0.4,0.2-0.8,0.2-1.3c0-2.3-1.9-4.2-4.2-4.2h-7.2c-2.3,0-4.2,1.9-4.2,4.2
			c0,0.4,0.1,0.9,0.2,1.3H319.4z"/>
		<path class="st7" d="M348.8,187.7c0.1-0.4,0.2-0.8,0.2-1.3c0-2.3-1.9-4.2-4.2-4.2h-7.2c-2.3,0-4.2,1.9-4.2,4.2
			c0,0.4,0.1,0.9,0.2,1.3H348.8z"/>
		<rect x="311.9" y="126.5" class="st40" width="28.5" height="2.6"/>
		<g>
			<g>
				<path class="st41" d="M327.1,88.6c0,0.5-0.4,1-1,1c-0.5,0-1-0.4-1-1c0-0.5,0.4-1,1-1C326.6,87.6,327.1,88,327.1,88.6z"/>
				<path class="st41" d="M327.1,95.6c0,0.5-0.4,1-1,1c-0.5,0-1-0.4-1-1c0-0.5,0.4-1,1-1C326.6,94.7,327.1,95.1,327.1,95.6z"/>
				<path class="st41" d="M327.1,102.7c0,0.5-0.4,1-1,1c-0.5,0-1-0.4-1-1c0-0.5,0.4-1,1-1C326.6,101.7,327.1,102.1,327.1,102.7z"/>
				<path class="st41" d="M327.1,109.7c0,0.5-0.4,1-1,1c-0.5,0-1-0.4-1-1c0-0.5,0.4-1,1-1C326.6,108.7,327.1,109.2,327.1,109.7z"/>
				<path class="st41" d="M327.1,116.8c0,0.5-0.4,1-1,1c-0.5,0-1-0.4-1-1c0-0.5,0.4-1,1-1C326.6,115.8,327.1,116.2,327.1,116.8z"/>
			</g>
		</g>
		<path class="st0" d="M321,77.4c0,0.1,0,0.3,0,0.4c0,2,2.2,3.6,4.8,3.6c2.7,0,4.8-2,4.8-4c0,0-2.4-0.2-4.8-0.2
			C323.6,77.2,321.1,77.4,321,77.4z"/>
		<path class="st40" d="M314.7,94.2v3.6c0,1.4,1.1,2.5,2.5,2.5h2.5c1.4,0,2.5-1.1,2.5-2.5v-3.6H314.7z"/>
		<path class="st40" d="M329.7,94.2v3.6c0,1.4,1.1,2.5,2.5,2.5h2.5c1.4,0,2.5-1.1,2.5-2.5v-3.6H329.7z"/>
	</g>
	<g class="st11">
		<path class="st0" d="M351.2,129.4c0,2-1.6,3.6-3.6,3.6l0,0c-2,0-3.6-1.6-3.6-3.6v-5.8c0-2,1.6-3.6,3.6-3.6l0,0
			c2,0,3.6,1.6,3.6,3.6V129.4z"/>
		<path class="st22" d="M344.6,80.8c-3.2-2.1-10.3-3.5-18.6-3.6v50h13.2V91.8c1.5,2.2,3.6,6.2,3.6,12.2v19.5h9.6V104
			C352.4,94,350,84,344.6,80.8z"/>
		<rect x="326" y="80.3" class="st39" width="2.1" height="44.3"/>
		<path class="st2" d="M326.2,51.1c-0.1,0-0.1,0-0.2,0v23.3c0.1,0,0.1,0,0.2,0c6.3,0,11.4-5.2,11.4-11.7
			C337.5,56.3,332.5,51.1,326.2,51.1z"/>
		<path class="st3" d="M326.2,51.1c-0.1,0-0.1,0-0.2,0v6.7c1.9,1.2,4.3,1.8,6.3,0.7c1.1-0.7,2.5-0.2,3.2,0.8
			c0.3,0.5,1.1,0.9,1.8,1.3C336.3,55.2,331.7,51.1,326.2,51.1z"/>
		<path class="st2" d="M338.9,63.1c0,1.7-0.5,3.1-1.2,3.1c-0.7,0-1.2-1.4-1.2-3.1c0-1.7,0.5-3.1,1.2-3.1
			C338.4,60.1,338.9,61.4,338.9,63.1z"/>
		<g>
			<g>
				<g>
					<path class="st22" d="M326,56h12.5c0-0.1,0-0.2-0.1-0.3c-0.2-0.7-0.7-2.6-0.7-3.3c0-5.5-5.1-10-11.5-10c-0.1,0-0.1,0-0.2,0V56z
						"/>
				</g>
				<g>
					<path class="st39" d="M335.8,55.3H326v1.9h9.8c0.5,0,1-0.4,1-1C336.8,55.8,336.4,55.3,335.8,55.3z"/>
				</g>
			</g>
		</g>
		<path class="st6" d="M339.4,127.3l-0.2-0.7H326v10h2.6c4.3,11.2,6.7,33.1,6.3,47.5l12,0.3C347.3,174.2,346.5,142.4,339.4,127.3z"
			/>
		<path class="st7" d="M348.8,187.7c0.1-0.4,0.2-0.8,0.2-1.3c0-2.3-1.9-4.2-4.2-4.2h-7.2c-2.3,0-4.2,1.9-4.2,4.2
			c0,0.4,0.1,0.9,0.2,1.3H348.8z"/>
		<rect x="326" y="126.5" class="st40" width="14.4" height="2.6"/>
		<g>
			<g>
				<path class="st41" d="M326.1,87.6C326.1,87.6,326.1,87.6,326.1,87.6l-0.1,1.9c0,0,0,0,0.1,0c0.5,0,1-0.4,1-1
					C327.1,88,326.6,87.6,326.1,87.6z"/>
				<path class="st41" d="M326.1,94.7C326.1,94.7,326.1,94.7,326.1,94.7l-0.1,1.9c0,0,0,0,0.1,0c0.5,0,1-0.4,1-1
					C327.1,95.1,326.6,94.7,326.1,94.7z"/>
				<path class="st41" d="M326.1,101.7C326.1,101.7,326.1,101.7,326.1,101.7l-0.1,1.9c0,0,0,0,0.1,0c0.5,0,1-0.4,1-1
					C327.1,102.1,326.6,101.7,326.1,101.7z"/>
				<path class="st41" d="M326.1,108.7C326.1,108.7,326.1,108.8,326.1,108.7l-0.1,1.9c0,0,0,0,0.1,0c0.5,0,1-0.4,1-1
					C327.1,109.2,326.6,108.7,326.1,108.7z"/>
				<path class="st41" d="M326.1,115.8C326.1,115.8,326.1,115.8,326.1,115.8l-0.1,1.9c0,0,0,0,0.1,0c0.5,0,1-0.4,1-1
					C327.1,116.2,326.6,115.8,326.1,115.8z"/>
			</g>
		</g>
		<path class="st0" d="M326,77.2v4.2c2.6-0.1,4.7-2,4.7-4C330.7,77.4,328.4,77.3,326,77.2z"/>
		<path class="st40" d="M329.7,94.2v3.6c0,1.4,1.1,2.5,2.5,2.5h2.5c1.4,0,2.5-1.1,2.5-2.5v-3.6H329.7z"/>
	</g>
</g>
<g>
	<g>
		<path class="st0" d="M256.4,124.3c0,2.1-1.7,3.8-3.8,3.8l0,0c-2.1,0-3.8-1.7-3.8-3.8v-6.2c0-2.1,1.7-3.8,3.8-3.8l0,0
			c2.1,0,3.8,1.7,3.8,3.8V124.3z"/>
		<path class="st0" d="M303,124.3c0,2.1-1.7,3.8-3.8,3.8l0,0c-2.1,0-3.8-1.7-3.8-3.8v-6.2c0-2.1,1.7-3.8,3.8-3.8l0,0
			c2.1,0,3.8,1.7,3.8,3.8V124.3z"/>
		<path class="st42" d="M295.9,72.4c-3.4-2.2-11-3.8-19.9-3.8c-8.8,0-16.4,1.5-19.8,3.8c-5.8,3.4-8.4,14.1-8.4,24.9V118h10.3V97.2
			c0-7.1,2.3-11.5,3.7-13.7V122h28.4V84.1c1.6,2.4,3.8,6.6,3.8,13.1V118h10.3V97.2C304.3,86.5,301.7,75.8,295.9,72.4z"/>
		<path class="st2" d="M288.4,53.1c0,6.9-5.4,12.5-12.1,12.5c-6.7,0-12.1-5.6-12.1-12.5c0-6.9,5.4-12.5,12.1-12.5
			C283,40.6,288.4,46.2,288.4,53.1z"/>
		<path class="st3" d="M266.1,49.6c1.2-1.4,2.8-2.4,4.2-3.7c1-0.9,2.6-1,3.5,0c2.1,2.3,6,4.4,9,2.6c1.2-0.7,2.7-0.2,3.4,0.9
			c0.3,0.5,1.1,1,2,1.4c-1.1-5.8-6-10.1-11.9-10.1c-6.5,0-11.9,5.3-12.1,11.9C264.9,51.7,265.4,50.4,266.1,49.6z"/>
		<path class="st2" d="M289.9,53.5c0,1.8-0.6,3.3-1.3,3.3c-0.7,0-1.3-1.5-1.3-3.3c0-1.8,0.6-3.3,1.3-3.3
			C289.3,50.2,289.9,51.7,289.9,53.5z"/>
		<path class="st2" d="M265.5,53.5c0,1.8-0.6,3.3-1.3,3.3c-0.7,0-1.3-1.5-1.3-3.3c0-1.8,0.6-3.3,1.3-3.3
			C264.9,50.2,265.5,51.7,265.5,53.5z"/>
		<path class="st6" d="M290.4,122.1l-0.2-0.7h-28.5v2.6c-6.8,16.8-7.6,48.7-7.3,59.3l12.8-0.4c-0.4-15.5,2.7-39,7.5-50.8h4.2
			c4.6,11.9,7.2,35.4,6.8,50.8l12.8,0.4C298.8,172.2,298,138.2,290.4,122.1z"/>
		<path class="st7" d="M269,186.6c0.1-0.4,0.2-0.9,0.2-1.4c0-2.5-2-4.4-4.4-4.4h-7.7c-2.5,0-4.4,2-4.4,4.4c0,0.5,0.1,0.9,0.2,1.4
			H269z"/>
		<path class="st7" d="M300.5,186.6c0.1-0.4,0.2-0.9,0.2-1.4c0-2.5-2-4.4-4.4-4.4h-7.7c-2.5,0-4.4,2-4.4,4.4c0,0.5,0.1,0.9,0.2,1.4
			H300.5z"/>
		<path class="st40" d="M298.7,165.3c-0.3-5.6-0.8-11.7-1.5-17.7h-14.8c1,5.7,1.8,11.8,2.2,17.7H298.7z"/>
		<path class="st40" d="M268.5,165.3c0.6-5.9,1.4-12.1,2.5-17.7h-15.2c-0.8,6.1-1.3,12.2-1.5,17.7H268.5z"/>
		<path class="st43" d="M258.6,104.5v-7.3c0-1.9,0.2-3.8,0.5-5.5h-11.6c-0.2,1.9-0.2,3.7-0.2,5.5v7.3H258.6z"/>
		<path class="st43" d="M293.5,104.5h11.3v-7.3c0-1.8-0.1-3.6-0.2-5.5h-11.6c0.4,1.7,0.6,3.6,0.6,5.5V104.5z"/>
		<path class="st1" d="M284.7,69.1c-2.7-0.3-5.6-0.5-8.7-0.5c-2.9,0-5.7,0.2-8.2,0.5v49.3h16.9V69.1z"/>
		<path class="st0" d="M270.8,68.7c0,0.1,0,0.3,0,0.4c0,2.1,2.3,3.8,5.2,3.8c2.9,0,5.2-2.1,5.2-4.2c0,0-2.5-0.2-5.1-0.2
			C273.5,68.6,270.9,68.7,270.8,68.7z"/>
		<rect x="261.1" y="118.5" class="st21" width="30.4" height="5.5"/>
		<g>
			<g>
				<g>
					<path class="st15" d="M280.2,125h-7.5v-7.7h7.5V125z M273.7,124h5.5v-5.6h-5.5V124z"/>
				</g>
				<g>
					<rect x="277.5" y="120.3" class="st15" width="3.4" height="1.7"/>
				</g>
			</g>
		</g>
		<polygon class="st14" points="287,118.9 283.5,118.6 281.1,68.3 286.6,68.3 		"/>
		<polygon class="st14" points="264.4,118.7 267.8,118.4 270.5,68.3 265.1,68.3 		"/>
		<g>
			<g>
				<path class="st4" d="M289.6,44.6c0-0.1,0-0.2-0.1-0.3c-0.2-0.7-0.8-2.8-0.8-3.5c0-5.9-5.5-10.6-12.3-10.6
					c-6.8,0-12.3,4.8-12.3,10.6c0,0.7-0.6,2.7-1,3.8H289.6z"/>
				<circle class="st4" cx="276.3" cy="30.9" r="3.2"/>
				<g>
					<path class="st5" d="M269.2,32.2c1.1-0.7,2.4-1.2,3.7-1.6c0.1,0.2,0.1,0.5,0.1,0.7v8.5c0,1.1-0.9,1.9-1.9,1.9l0,0
						c-1.1,0-1.9-0.9-1.9-1.9V32.2z"/>
					<path class="st5" d="M279.7,30.5c1.3,0.3,2.6,0.8,3.7,1.5v7.9c0,1.1-0.9,1.9-1.9,1.9l0,0c-1.1,0-1.9-0.9-1.9-1.9v-8.5
						C279.5,31.1,279.6,30.8,279.7,30.5z"/>
				</g>
			</g>
			<path class="st5" d="M287.7,45c0,0.6-0.5,1-1,1h-21.2c-0.6,0-1-0.5-1-1l0,0c0-0.6,0.5-1,1-1h21.2C287.3,44,287.7,44.4,287.7,45
				L287.7,45z"/>
		</g>
	</g>
	<g class="st11">
		<path class="st0" d="M303,124.3c0,2.1-1.7,3.8-3.8,3.8l0,0c-2.1,0-3.8-1.7-3.8-3.8v-6.2c0-2.1,1.7-3.8,3.8-3.8l0,0
			c2.1,0,3.8,1.7,3.8,3.8V124.3z"/>
		<path class="st42" d="M295.9,72.4c-3.3-2.1-10.4-3.7-18.8-3.8V122h13V84.1c1.6,2.4,3.8,6.6,3.8,13.1V118h10.3V97.2
			C304.3,86.5,301.7,75.8,295.9,72.4z"/>
		<path class="st2" d="M277.2,40.6v24.9c6.3-0.5,11.2-5.9,11.2-12.4S283.4,41.1,277.2,40.6z"/>
		<path class="st3" d="M277.2,40.6v7.7c1.8,0.9,3.9,1.2,5.7,0.1c1.2-0.7,2.7-0.2,3.4,0.9c0.3,0.5,1.1,1,2,1.4
			C287.2,45.3,282.7,41.1,277.2,40.6z"/>
		<path class="st2" d="M289.9,53.5c0,1.8-0.6,3.3-1.3,3.3c-0.7,0-1.3-1.5-1.3-3.3c0-1.8,0.6-3.3,1.3-3.3
			C289.3,50.2,289.9,51.7,289.9,53.5z"/>
		<path class="st6" d="M290.4,122.1l-0.2-0.7h-13.1V132h1.8c4.6,11.9,7.2,35.4,6.8,50.8l12.8,0.4C298.8,172.2,298,138.2,290.4,122.1
			z"/>
		<path class="st7" d="M300.5,186.6c0.1-0.4,0.2-0.9,0.2-1.4c0-2.5-2-4.4-4.4-4.4h-7.7c-2.5,0-4.4,2-4.4,4.4c0,0.5,0.1,0.9,0.2,1.4
			H300.5z"/>
		<path class="st40" d="M298.7,165.3c-0.3-5.6-0.8-11.7-1.5-17.7h-14.8c1,5.7,1.8,11.8,2.2,17.7H298.7z"/>
		<path class="st43" d="M293.5,104.5h11.3v-7.3c0-1.8-0.1-3.6-0.2-5.5h-11.6c0.4,1.7,0.6,3.6,0.6,5.5V104.5z"/>
		<path class="st1" d="M277.2,68.6v49.8h7.6V69.1C282.4,68.8,279.8,68.6,277.2,68.6z"/>
		<path class="st0" d="M277.2,68.6v4.3c2.3-0.5,4-2.3,4-4.1C281.1,68.8,279.3,68.6,277.2,68.6z"/>
		<rect x="277.2" y="118.5" class="st21" width="14.3" height="5.5"/>
		<g>
			<g>
				<g>
					<polygon class="st15" points="277.2,117.3 277.2,118.4 279.2,118.4 279.2,124 277.2,124 277.2,125 280.2,125 280.2,117.3 					
						"/>
				</g>
				<g>
					<rect x="277.5" y="120.3" class="st15" width="3.4" height="1.7"/>
				</g>
			</g>
		</g>
		<polygon class="st14" points="287,118.9 283.5,118.6 281.1,68.3 286.6,68.3 		"/>
		<g>
			<g>
				<path class="st4" d="M277.2,44.6h12.4c0-0.1,0-0.2-0.1-0.3c-0.2-0.7-0.8-2.8-0.8-3.5c0-5.7-5.1-10.3-11.6-10.6V44.6z"/>
				<path class="st4" d="M277.2,27.8v6.1c1.3-0.4,2.3-1.6,2.3-3C279.4,29.4,278.5,28.2,277.2,27.8z"/>
				<g>
					<path class="st5" d="M279.7,30.5c1.3,0.3,2.6,0.8,3.7,1.5v7.9c0,1.1-0.9,1.9-1.9,1.9l0,0c-1.1,0-1.9-0.9-1.9-1.9v-8.5
						C279.5,31.1,279.6,30.8,279.7,30.5z"/>
				</g>
			</g>
			<path class="st5" d="M286.7,44h-9.5V46h9.5c0.6,0,1-0.5,1-1C287.7,44.4,287.3,44,286.7,44z"/>
		</g>
	</g>
</g>
</svg>
