<?xml version="1.0" encoding="utf-8"?>
<!-- Generator: Adobe Illustrator 23.0.1, SVG Export Plug-In . SVG Version: 6.00 Build 0)  -->
<svg version="1.1" id="Layer_1" xmlns="http://www.w3.org/2000/svg" xmlns:xlink="http://www.w3.org/1999/xlink" x="0px" y="0px"
	 viewBox="0 0 500 200" style="enable-background:new 0 0 500 200;" xml:space="preserve">
<style type="text/css">
	.st0{fill:#FFEAC7;}
	.st1{fill-rule:evenodd;clip-rule:evenodd;fill:#F4F5F4;}
	.st2{fill-rule:evenodd;clip-rule:evenodd;fill:#FFEAC7;}
	.st3{fill-rule:evenodd;clip-rule:evenodd;fill:#7E6055;}
	.st4{fill-rule:evenodd;clip-rule:evenodd;fill:#0988A1;}
	.st5{fill-rule:evenodd;clip-rule:evenodd;fill:#106E82;}
	.st6{fill:#0988A1;}
	.st7{fill:#524C40;}
	.st8{fill:#573B3F;}
	.st9{fill:#E0B18D;}
	.st10{fill:#CADB2B;}
	.st11{fill:#F5A61C;}
	.st12{opacity:0.5;}
	.st13{fill-rule:evenodd;clip-rule:evenodd;fill:#F7933D;}
	.st14{fill:#0E778E;}
	.st15{fill-rule:evenodd;clip-rule:evenodd;fill:#BA722F;}
	.st16{fill:#BA722F;}
	.st17{fill-rule:evenodd;clip-rule:evenodd;fill:#F5CD7E;}
	.st18{fill-rule:evenodd;clip-rule:evenodd;fill:#E4B559;}
</style>
<g>
	<g>
		<path class="st0" d="M168.4,126.3c0,2.1-1.7,3.8-3.8,3.8l0,0c-2.1,0-3.8-1.7-3.8-3.8v-6.2c0-2.1,1.7-3.8,3.8-3.8l0,0
			c2.1,0,3.8,1.7,3.8,3.8V126.3z"/>
		<path class="st0" d="M215,126.3c0,2.1-1.7,3.8-3.8,3.8l0,0c-2.1,0-3.8-1.7-3.8-3.8v-6.2c0-2.1,1.7-3.8,3.8-3.8l0,0
			c2.1,0,3.8,1.7,3.8,3.8V126.3z"/>
		<path class="st1" d="M207.8,74.3c-3.4-2.2-11-3.8-19.9-3.8c-8.8,0-16.4,1.5-19.8,3.8c-5.8,3.4-8.4,14.1-8.4,24.9V120H170V99.2
			c0-7.1,2.3-11.5,3.7-13.7V124h28.4V86.1c1.6,2.4,3.8,6.6,3.8,13.1V120h10.3V99.2C216.2,88.5,213.6,77.7,207.8,74.3z"/>
		<ellipse class="st2" cx="188.2" cy="55.1" rx="12.1" ry="12.5"/>
		<path class="st3" d="M178,51.6c1.2-1.4,2.8-2.4,4.2-3.7c1-0.9,2.6-1,3.5,0c2.1,2.3,6,4.4,9,2.6c1.2-0.7,2.7-0.2,3.4,0.9
			c0.3,0.5,1.1,1,2,1.4c-1.1-5.8-6-10.1-11.9-10.1c-6.5,0-11.9,5.3-12.1,11.9C176.8,53.7,177.3,52.4,178,51.6z"/>
		<path class="st2" d="M201.8,55.5c0,1.8-0.6,3.3-1.3,3.3c-0.7,0-1.3-1.5-1.3-3.3s0.6-3.3,1.3-3.3C201.2,52.2,201.8,53.7,201.8,55.5
			z"/>
		<path class="st2" d="M177.4,55.5c0,1.8-0.6,3.3-1.3,3.3c-0.7,0-1.3-1.5-1.3-3.3s0.6-3.3,1.3-3.3C176.8,52.2,177.4,53.7,177.4,55.5
			z"/>
		<g>
			<g>
				<path class="st4" d="M201.4,47.8c0-0.1,0-0.2-0.1-0.3c-0.2-0.7-0.8-2.8-0.8-3.5c0-5.9-5.5-10.6-12.3-10.6
					c-6.8,0-12.3,4.8-12.3,10.6c0,0.7-0.6,2.7-1,3.8H201.4z"/>
				<circle class="st4" cx="188.1" cy="34" r="3.2"/>
				<g>
					<g>
						<path class="st5" d="M181,35.4c1.1-0.7,2.4-1.2,3.7-1.6c0.1,0.2,0.1,0.5,0.1,0.7v8.5c0,1.1-0.9,1.9-1.9,1.9l0,0
							c-1.1,0-1.9-0.9-1.9-1.9V35.4z"/>
						<path class="st5" d="M191.5,33.7c1.3,0.3,2.6,0.8,3.7,1.5v7.9c0,1.1-0.9,1.9-1.9,1.9l0,0c-1.1,0-1.9-0.9-1.9-1.9v-8.5
							C191.3,34.2,191.4,34,191.5,33.7z"/>
					</g>
				</g>
			</g>
			<path class="st5" d="M199.5,48.2c0,0.6-0.5,1-1,1h-21.2c-0.6,0-1-0.5-1-1l0,0c0-0.6,0.5-1,1-1h21.2
				C199.1,47.2,199.5,47.6,199.5,48.2L199.5,48.2z"/>
		</g>
		<path class="st6" d="M202.4,124l-0.2-0.7h-28.5v2.6c-6.8,16.8-7.6,48.7-7.3,59.3l12.8-0.4c-0.4-15.5,2.7-39,7.5-50.8h4.2
			c4.6,11.9,7.2,35.4,6.8,50.8l12.8,0.4C210.7,174.2,209.9,140.2,202.4,124z"/>
		<path class="st7" d="M180.9,188.6c0.1-0.4,0.2-0.9,0.2-1.4c0-2.5-2-4.4-4.4-4.4H169c-2.5,0-4.4,2-4.4,4.4c0,0.5,0.1,0.9,0.2,1.4
			H180.9z"/>
		<path class="st7" d="M212.4,188.6c0.1-0.4,0.2-0.9,0.2-1.4c0-2.5-2-4.4-4.4-4.4h-7.7c-2.5,0-4.4,2-4.4,4.4c0,0.5,0.1,0.9,0.2,1.4
			H212.4z"/>
		<path class="st0" d="M182.7,70.7c0,0.1,0,0.3,0,0.4c0,2.1,2.3,3.8,5.2,3.8c2.9,0,5.2-2.1,5.2-4.2c0,0-2.5-0.2-5.1-0.2
			C185.4,70.5,182.8,70.7,182.7,70.7z"/>
		<rect x="173" y="120.5" class="st8" width="30.4" height="5.5"/>
		<path class="st9" d="M192.8,122.3h-0.6v-3h-7.5v7.7h7.5v-3h0.6V122.3z M191.1,126h-5.5v-5.6h5.5v2h-1.7v1.7h1.7V126z"/>
		<path class="st10" d="M177.9,82.8v-1.1c0-0.3,0-0.5,0-0.8c0-0.3,0-0.5,0-0.8v-9l-2.8,0.4l-0.4,16.7l-1.2,0.2l-0.6,32l10.2,0.2
			l0-31.1C178,89.5,177.9,82.8,177.9,82.8z"/>
		<path class="st10" d="M202.1,88.5l-1.2-0.2l-0.4-16.7l-2.8-0.4v11.7c0,0,0,6.9-4.5,7.1l0,30.8l9.5-0.2L202.1,88.5z"/>
		<rect x="173" y="109.5" class="st11" width="10.2" height="1"/>
		<rect x="173" y="112.8" class="st11" width="10.2" height="1"/>
		<rect x="193.3" y="109.5" class="st11" width="9.4" height="1"/>
		<rect x="193.3" y="112.8" class="st11" width="9.4" height="1"/>
	</g>
	<g class="st12">
		<path class="st0" d="M215,126.3c0,2.1-1.7,3.8-3.8,3.8l0,0c-2.1,0-3.8-1.7-3.8-3.8v-6.2c0-2.1,1.7-3.8,3.8-3.8l0,0
			c2.1,0,3.8,1.7,3.8,3.8V126.3z"/>
		<path class="st1" d="M207.8,74.3c-3.4-2.2-11-3.8-19.9-3.8c-0.1,0-0.2,0-0.3,0V124h14.5V86.1c1.6,2.4,3.8,6.6,3.8,13.1V120h10.3
			V99.2C216.2,88.5,213.6,77.7,207.8,74.3z"/>
		<path class="st2" d="M188.2,42.6c-0.2,0-0.4,0-0.5,0v24.9c0.2,0,0.4,0,0.5,0c6.7,0,12.1-5.6,12.1-12.5S194.9,42.6,188.2,42.6z"/>
		<path class="st3" d="M188.2,42.6c-0.2,0-0.4,0-0.5,0v6.9c2.1,1.5,4.9,2.3,7.1,0.9c1.2-0.7,2.7-0.2,3.4,0.9c0.3,0.5,1.1,1,2,1.4
			C199,46.9,194.1,42.6,188.2,42.6z"/>
		<path class="st2" d="M201.8,55.5c0,1.8-0.6,3.3-1.3,3.3c-0.7,0-1.3-1.5-1.3-3.3s0.6-3.3,1.3-3.3C201.2,52.2,201.8,53.7,201.8,55.5
			z"/>
		<g>
			<g>
				<path class="st4" d="M187.7,47.8h13.8c0-0.1,0-0.2-0.1-0.3c-0.2-0.7-0.8-2.8-0.8-3.5c0-5.9-5.5-10.6-12.3-10.6
					c-0.2,0-0.4,0-0.6,0V47.8z"/>
				<path class="st4" d="M188.1,30.9c-0.1,0-0.3,0-0.4,0v6.3c0.1,0,0.3,0,0.4,0c1.7,0,3.2-1.4,3.2-3.2
					C191.3,32.3,189.8,30.9,188.1,30.9z"/>
				<g>
					<g>
						<path class="st5" d="M191.5,33.7c1.3,0.3,2.6,0.8,3.7,1.5v7.9c0,1.1-0.9,1.9-1.9,1.9l0,0c-1.1,0-1.9-0.9-1.9-1.9v-8.5
							C191.3,34.2,191.4,34,191.5,33.7z"/>
					</g>
				</g>
			</g>
			<path class="st5" d="M198.5,47.2h-10.8v2.1h10.8c0.6,0,1-0.5,1-1C199.5,47.6,199.1,47.2,198.5,47.2z"/>
		</g>
		<path class="st6" d="M202.4,124l-0.2-0.7h-14.5V134h3.2c4.6,11.9,7.2,35.4,6.8,50.8l12.8,0.4C210.7,174.2,209.9,140.2,202.4,124z"
			/>
		<path class="st7" d="M212.4,188.6c0.1-0.4,0.2-0.9,0.2-1.4c0-2.5-2-4.4-4.4-4.4h-7.7c-2.5,0-4.4,2-4.4,4.4c0,0.5,0.1,0.9,0.2,1.4
			H212.4z"/>
		<path class="st0" d="M188,70.6c-0.1,0-0.2,0-0.3,0V75c0.1,0,0.2,0,0.2,0c2.9,0,5.2-2.1,5.2-4.2C193.1,70.8,190.5,70.6,188,70.6z"
			/>
		<rect x="187.7" y="120.5" class="st8" width="15.7" height="5.5"/>
		<polygon class="st9" points="192.1,122.3 192.1,119.3 187.7,119.3 187.7,120.3 191.1,120.3 191.1,122.3 189.4,122.3 189.4,124 
			191.1,124 191.1,126 187.7,126 187.7,127 192.1,127 192.1,124 192.8,124 192.8,122.3 		"/>
		<path class="st10" d="M202.1,88.5l-1.2-0.2l-0.4-16.7l-2.8-0.4v11.7c0,0,0,6.9-4.5,7.1l0,30.8l9.5-0.2L202.1,88.5z"/>
		<rect x="193.3" y="109.5" class="st11" width="9.4" height="1"/>
		<rect x="193.3" y="112.8" class="st11" width="9.4" height="1"/>
	</g>
</g>
<g>
	<g>
		<path class="st0" d="M297,124.3c0,2.1-1.7,3.8-3.8,3.8l0,0c-2.1,0-3.8-1.7-3.8-3.8v-6.2c0-2.1,1.7-3.8,3.8-3.8l0,0
			c2.1,0,3.8,1.7,3.8,3.8V124.3z"/>
		<path class="st0" d="M343.6,124.3c0,2.1-1.7,3.8-3.8,3.8l0,0c-2.1,0-3.8-1.7-3.8-3.8v-6.2c0-2.1,1.7-3.8,3.8-3.8l0,0
			c2.1,0,3.8,1.7,3.8,3.8V124.3z"/>
		<path class="st13" d="M336.5,72.4c-3.4-2.2-11-3.8-19.9-3.8c-8.8,0-16.4,1.5-19.8,3.8c-5.8,3.4-8.4,14.1-8.4,24.9V118h10.3V97.2
			c0-7.1,2.3-11.5,3.7-13.7V122h28.4V84.1c1.6,2.4,3.8,6.6,3.8,13.1V118h10.3V97.2C344.8,86.5,342.2,75.8,336.5,72.4z"/>
		<path class="st2" d="M328.9,53.1c0,6.9-5.4,12.5-12.1,12.5c-6.7,0-12.1-5.6-12.1-12.5c0-6.9,5.4-12.5,12.1-12.5
			C323.5,40.6,328.9,46.2,328.9,53.1z"/>
		<path class="st3" d="M306.7,49.6c1.2-1.4,2.8-2.4,4.2-3.7c1-0.9,2.6-1,3.5,0c2.1,2.3,6,4.4,9,2.6c1.2-0.7,2.7-0.2,3.4,0.9
			c0.3,0.5,1.1,1,2,1.4c-1.1-5.8-6-10.1-11.9-10.1c-6.5,0-11.9,5.3-12.1,11.9C305.5,51.7,305.9,50.4,306.7,49.6z"/>
		<path class="st2" d="M330.4,53.5c0,1.8-0.6,3.3-1.3,3.3c-0.7,0-1.3-1.5-1.3-3.3c0-1.8,0.6-3.3,1.3-3.3
			C329.9,50.2,330.4,51.7,330.4,53.5z"/>
		<path class="st2" d="M306,53.5c0,1.8-0.6,3.3-1.3,3.3c-0.7,0-1.3-1.5-1.3-3.3c0-1.8,0.6-3.3,1.3-3.3C305.4,50.2,306,51.7,306,53.5
			z"/>
		<path class="st6" d="M331,122.1l-0.2-0.7h-28.5v2.6c-6.8,16.8-7.6,48.7-7.3,59.3l12.8-0.4c-0.4-15.5,2.7-39,7.5-50.8h4.2
			c4.6,11.9,7.2,35.4,6.8,50.8l12.8,0.4C339.3,172.2,338.5,138.2,331,122.1z"/>
		<path class="st7" d="M309.6,186.6c0.1-0.4,0.2-0.9,0.2-1.4c0-2.5-2-4.4-4.4-4.4h-7.7c-2.5,0-4.4,2-4.4,4.4c0,0.5,0.1,0.9,0.2,1.4
			H309.6z"/>
		<path class="st7" d="M341,186.6c0.1-0.4,0.2-0.9,0.2-1.4c0-2.5-2-4.4-4.4-4.4h-7.7c-2.5,0-4.4,2-4.4,4.4c0,0.5,0.1,0.9,0.2,1.4
			H341z"/>
		<path class="st14" d="M339.2,165.3c-0.3-5.6-0.8-11.7-1.5-17.7h-14.8c1,5.7,1.8,11.8,2.2,17.7H339.2z"/>
		<path class="st14" d="M309.1,165.3c0.6-5.9,1.4-12.1,2.5-17.7h-15.2c-0.8,6.1-1.3,12.2-1.5,17.7H309.1z"/>
		<path class="st15" d="M299.1,104.5v-7.3c0-1.9,0.2-3.8,0.5-5.5h-11.6c-0.2,1.9-0.2,3.7-0.2,5.5v7.3H299.1z"/>
		<path class="st15" d="M334.1,104.5h11.3v-7.3c0-1.8-0.1-3.6-0.2-5.5h-11.6c0.4,1.7,0.6,3.6,0.6,5.5V104.5z"/>
		<path class="st1" d="M325.3,69.1c-2.7-0.3-5.6-0.5-8.7-0.5c-2.9,0-5.7,0.2-8.2,0.5v49.3h16.9V69.1z"/>
		<path class="st0" d="M311.3,68.7c0,0.1,0,0.3,0,0.4c0,2.1,2.3,3.8,5.2,3.8c2.9,0,5.2-2.1,5.2-4.2c0,0-2.5-0.2-5.1-0.2
			C314,68.6,311.4,68.7,311.3,68.7z"/>
		<rect x="301.6" y="118.5" class="st8" width="30.4" height="5.5"/>
		<g>
			<g>
				<g>
					<path class="st9" d="M320.8,125h-7.5v-7.7h7.5V125z M314.3,124h5.5v-5.6h-5.5V124z"/>
				</g>
				<g>
					<rect x="318" y="120.3" class="st9" width="3.4" height="1.7"/>
				</g>
			</g>
		</g>
		<polygon class="st16" points="327.5,118.9 324.1,118.6 321.7,68.3 327.1,68.3 		"/>
		<polygon class="st16" points="304.9,118.7 308.3,118.4 311.1,68.3 305.6,68.3 		"/>
		<g>
			<g>
				<path class="st17" d="M330.1,44.6c0-0.1,0-0.2-0.1-0.3c-0.2-0.7-0.8-2.8-0.8-3.5c0-5.9-5.5-10.6-12.3-10.6
					c-6.8,0-12.3,4.8-12.3,10.6c0,0.7-0.6,2.7-1,3.8H330.1z"/>
				<circle class="st17" cx="316.8" cy="30.9" r="3.2"/>
				<g>
					<path class="st18" d="M309.7,32.2c1.1-0.7,2.4-1.2,3.7-1.6c0.1,0.2,0.1,0.5,0.1,0.7v8.5c0,1.1-0.9,1.9-1.9,1.9l0,0
						c-1.1,0-1.9-0.9-1.9-1.9V32.2z"/>
					<path class="st18" d="M320.2,30.5c1.3,0.3,2.6,0.8,3.7,1.5v7.9c0,1.1-0.9,1.9-1.9,1.9l0,0c-1.1,0-1.9-0.9-1.9-1.9v-8.5
						C320,31.1,320.1,30.8,320.2,30.5z"/>
				</g>
			</g>
			<path class="st18" d="M328.3,45c0,0.6-0.5,1-1,1H306c-0.6,0-1-0.5-1-1l0,0c0-0.6,0.5-1,1-1h21.2C327.8,44,328.3,44.4,328.3,45
				L328.3,45z"/>
		</g>
	</g>
	<g class="st12">
		<path class="st0" d="M343.6,124.3c0,2.1-1.7,3.8-3.8,3.8l0,0c-2.1,0-3.8-1.7-3.8-3.8v-6.2c0-2.1,1.7-3.8,3.8-3.8l0,0
			c2.1,0,3.8,1.7,3.8,3.8V124.3z"/>
		<path class="st13" d="M336.5,72.4c-3.3-2.1-10.4-3.7-18.8-3.8V122h13V84.1c1.6,2.4,3.8,6.6,3.8,13.1V118h10.3V97.2
			C344.8,86.5,342.2,75.8,336.5,72.4z"/>
		<path class="st2" d="M317.7,40.6v24.9c6.3-0.5,11.2-5.9,11.2-12.4S324,41.1,317.7,40.6z"/>
		<path class="st3" d="M317.7,40.6v7.7c1.8,0.9,3.9,1.2,5.7,0.1c1.2-0.7,2.7-0.2,3.4,0.9c0.3,0.5,1.1,1,2,1.4
			C327.7,45.3,323.2,41.1,317.7,40.6z"/>
		<path class="st2" d="M330.4,53.5c0,1.8-0.6,3.3-1.3,3.3c-0.7,0-1.3-1.5-1.3-3.3c0-1.8,0.6-3.3,1.3-3.3
			C329.9,50.2,330.4,51.7,330.4,53.5z"/>
		<path class="st6" d="M331,122.1l-0.2-0.7h-13.1V132h1.8c4.6,11.9,7.2,35.4,6.8,50.8l12.8,0.4C339.3,172.2,338.5,138.2,331,122.1z"
			/>
		<path class="st7" d="M341,186.6c0.1-0.4,0.2-0.9,0.2-1.4c0-2.5-2-4.4-4.4-4.4h-7.7c-2.5,0-4.4,2-4.4,4.4c0,0.5,0.1,0.9,0.2,1.4
			H341z"/>
		<path class="st14" d="M339.2,165.3c-0.3-5.6-0.8-11.7-1.5-17.7h-14.8c1,5.7,1.8,11.8,2.2,17.7H339.2z"/>
		<path class="st15" d="M334.1,104.5h11.3v-7.3c0-1.8-0.1-3.6-0.2-5.5h-11.6c0.4,1.7,0.6,3.6,0.6,5.5V104.5z"/>
		<path class="st1" d="M317.7,68.6v49.8h7.6V69.1C322.9,68.8,320.4,68.6,317.7,68.6z"/>
		<path class="st0" d="M317.7,68.6v4.3c2.3-0.5,4-2.3,4-4.1C321.7,68.8,319.8,68.6,317.7,68.6z"/>
		<rect x="317.7" y="118.5" class="st8" width="14.3" height="5.5"/>
		<g>
			<g>
				<g>
					<polygon class="st9" points="317.7,117.3 317.7,118.4 319.7,118.4 319.7,124 317.7,124 317.7,125 320.8,125 320.8,117.3 					
						"/>
				</g>
				<g>
					<rect x="318" y="120.3" class="st9" width="3.4" height="1.7"/>
				</g>
			</g>
		</g>
		<polygon class="st16" points="327.5,118.9 324.1,118.6 321.7,68.3 327.1,68.3 		"/>
		<g>
			<g>
				<path class="st17" d="M317.7,44.6h12.4c0-0.1,0-0.2-0.1-0.3c-0.2-0.7-0.8-2.8-0.8-3.5c0-5.7-5.1-10.3-11.6-10.6V44.6z"/>
				<path class="st17" d="M317.7,27.8v6.1c1.3-0.4,2.3-1.6,2.3-3C320,29.4,319,28.2,317.7,27.8z"/>
				<g>
					<path class="st18" d="M320.2,30.5c1.3,0.3,2.6,0.8,3.7,1.5v7.9c0,1.1-0.9,1.9-1.9,1.9l0,0c-1.1,0-1.9-0.9-1.9-1.9v-8.5
						C320,31.1,320.1,30.8,320.2,30.5z"/>
				</g>
			</g>
			<path class="st18" d="M327.2,44h-9.5V46h9.5c0.6,0,1-0.5,1-1C328.3,44.4,327.8,44,327.2,44z"/>
		</g>
	</g>
</g>
</svg>
