<?xml version="1.0" encoding="utf-8"?>
<!-- Generator: Adobe Illustrator 23.0.1, SVG Export Plug-In . SVG Version: 6.00 Build 0)  -->
<svg version="1.1" id="Layer_1" xmlns="http://www.w3.org/2000/svg" xmlns:xlink="http://www.w3.org/1999/xlink" x="0px" y="0px"
	 viewBox="0 0 500 200" style="enable-background:new 0 0 500 200;" xml:space="preserve">
<style type="text/css">
	.st0{fill-rule:evenodd;clip-rule:evenodd;fill:#8B8A8B;}
	.st1{fill:#FFEAC7;}
	.st2{fill-rule:evenodd;clip-rule:evenodd;fill:#B3B4B6;}
	.st3{fill-rule:evenodd;clip-rule:evenodd;fill:#FFEAC7;}
	.st4{fill-rule:evenodd;clip-rule:evenodd;fill:#7E6055;}
	.st5{fill:#A5A6A8;}
	.st6{fill:#524C40;}
	.st7{fill:#8B8A8B;}
	.st8{fill-rule:evenodd;clip-rule:evenodd;fill:#F4F5F4;}
	.st9{fill:#573B3F;}
	.st10{fill:#E0B18D;}
	.st11{opacity:0.5;}
	.st12{fill-rule:evenodd;clip-rule:evenodd;fill:#0988A1;}
	.st13{fill-rule:evenodd;clip-rule:evenodd;fill:#106E82;}
	.st14{fill:#0988A1;}
	.st15{fill:#CADB2B;}
	.st16{fill:#F5A61C;}
	.st17{fill-rule:evenodd;clip-rule:evenodd;fill:#F7933D;}
	.st18{fill:#0E778E;}
	.st19{fill-rule:evenodd;clip-rule:evenodd;fill:#BA722F;}
	.st20{fill:#BA722F;}
	.st21{fill-rule:evenodd;clip-rule:evenodd;fill:#F5CD7E;}
	.st22{fill-rule:evenodd;clip-rule:evenodd;fill:#E4B559;}
</style>
<g>
	<g>
		<path class="st0" d="M129.9,44.9c0.8,0,1.5-0.7,1.5-1.5c0-0.8-0.7-1.5-1.5-1.5c-0.8,0-1.5,0.7-1.5,1.5
			C128.5,44.2,129.1,44.9,129.9,44.9z"/>
		<path class="st1" d="M111,130.1c0,2-1.6,3.6-3.6,3.6l0,0c-2,0-3.6-1.6-3.6-3.6v-5.8c0-2,1.6-3.6,3.6-3.6l0,0c2,0,3.6,1.6,3.6,3.6
			V130.1z"/>
		<path class="st1" d="M154.6,130.1c0,2-1.6,3.6-3.6,3.6l0,0c-2,0-3.6-1.6-3.6-3.6v-5.8c0-2,1.6-3.6,3.6-3.6l0,0
			c2,0,3.6,1.6,3.6,3.6V130.1z"/>
		<path class="st2" d="M148,81.5c-3.2-2.1-10.3-3.6-18.6-3.6c-8.3,0-15.4,1.4-18.6,3.5c-5.4,3.1-7.9,13.2-7.9,23.3v19.5h9.6v-19.5
			c0-6.6,2.1-10.7,3.5-12.8v36h26.6V92.5c1.5,2.2,3.6,6.2,3.6,12.2v19.5h9.6v-19.5C155.8,94.7,153.3,84.7,148,81.5z"/>
		<ellipse class="st3" cx="129.6" cy="63.5" rx="11.4" ry="11.7"/>
		<path class="st4" d="M120.1,60.2c1.2-1.3,2.6-2.3,3.9-3.5c0.9-0.8,2.4-1,3.3,0c2,2.2,5.6,4.1,8.4,2.4c1.1-0.7,2.5-0.2,3.2,0.8
			c0.3,0.5,1.1,0.9,1.8,1.3c-1-5.4-5.6-9.5-11.2-9.5c-6.1,0-11.1,5-11.3,11.2C118.9,62.1,119.4,61,120.1,60.2z"/>
		<path class="st3" d="M142.3,63.8c0,1.7-0.5,3.1-1.2,3.1c-0.7,0-1.2-1.4-1.2-3.1s0.5-3.1,1.2-3.1C141.8,60.8,142.3,62.1,142.3,63.8
			z"/>
		<path class="st3" d="M119.5,63.8c0,1.7-0.5,3.1-1.2,3.1c-0.7,0-1.2-1.4-1.2-3.1s0.5-3.1,1.2-3.1C118.9,60.8,119.5,62.1,119.5,63.8
			z"/>
		<path class="st2" d="M141.9,56.7c0-0.1,0-0.2-0.1-0.3c-0.2-0.7-0.7-2.6-0.7-3.3c0-5.5-5.1-10-11.5-10c-6.4,0-11.5,4.5-11.5,10
			c0,0.6-0.6,2.5-1,3.6H141.9z"/>
		<path class="st0" d="M143.7,56.7c0,0.7-0.6,1.2-1.2,1.2H117c-0.7,0-1.2-0.6-1.2-1.2l0,0c0-0.7,0.6-1.2,1.2-1.2h25.4
			C143.1,55.5,143.7,56,143.7,56.7L143.7,56.7z"/>
		<path class="st5" d="M142.8,128l-0.2-0.7H116v2.4c-6.3,15.7-7.1,45.6-6.8,55.5l12-0.3c-0.4-14.5,2.5-36.5,7-47.5h3.9
			c4.3,11.2,6.7,33.1,6.3,47.5l12,0.3C150.7,174.9,149.9,143.1,142.8,128z"/>
		<path class="st6" d="M122.8,188.4c0.1-0.4,0.2-0.8,0.2-1.3c0-2.3-1.9-4.2-4.2-4.2h-7.2c-2.3,0-4.2,1.9-4.2,4.2
			c0,0.4,0.1,0.9,0.2,1.3H122.8z"/>
		<path class="st6" d="M152.2,188.4c0.1-0.4,0.2-0.8,0.2-1.3c0-2.3-1.9-4.2-4.2-4.2h-7.2c-2.3,0-4.2,1.9-4.2,4.2
			c0,0.4,0.1,0.9,0.2,1.3H152.2z"/>
		<path class="st7" d="M150.5,168.4c-0.3-5.2-0.7-10.9-1.4-16.6h-13.8c0.9,5.3,1.6,11,2.1,16.6H150.5z"/>
		<path class="st7" d="M122.3,168.4c0.5-5.6,1.3-11.3,2.3-16.6h-14.2c-0.7,5.7-1.2,11.4-1.4,16.6H122.3z"/>
		<path class="st0" d="M113,111.6v-6.9c0-1.8,0.2-3.5,0.5-5.1h-10.8c-0.2,1.7-0.2,3.5-0.2,5.1v6.9H113z"/>
		<path class="st0" d="M145.7,111.6h10.6v-6.9c0-1.7-0.1-3.4-0.2-5.1h-10.9c0.4,1.6,0.6,3.3,0.6,5.1V111.6z"/>
		<path class="st8" d="M137.5,78.4c-2.5-0.3-5.2-0.5-8.1-0.5c-2.7,0-5.3,0.2-7.7,0.4v46.2h15.8V78.4z"/>
		<path class="st1" d="M124.4,78.1c0,0.1,0,0.3,0,0.4c0,2,2.2,3.6,4.8,3.6c2.7,0,4.8-2,4.8-4c0,0-2.4-0.2-4.8-0.2
			C126.9,77.9,124.5,78.1,124.4,78.1z"/>
		<rect x="115.3" y="124.7" class="st9" width="28.5" height="5.1"/>
		<g>
			<g>
				<g>
					<path class="st10" d="M133.3,130.8h-7v-7.2h7V130.8z M127.2,129.8h5.1v-5.3h-5.1V129.8z"/>
				</g>
				<g>
					<rect x="130.7" y="126.4" class="st10" width="3.2" height="1.6"/>
				</g>
			</g>
		</g>
		<polygon class="st7" points="139.6,125.1 136.4,124.7 134.1,77.7 139.2,77.7 		"/>
		<polygon class="st7" points="118.4,124.9 121.6,124.6 124.2,77.7 119.1,77.7 		"/>
	</g>
	<g class="st11">
		<path class="st0" d="M129.9,42c-0.3,0-0.6,0.1-0.8,0.2v2.4c0.2,0.1,0.5,0.2,0.8,0.2c0.8,0,1.5-0.7,1.5-1.5
			C131.4,42.6,130.7,42,129.9,42z"/>
		<path class="st1" d="M154.6,130.1c0,2-1.6,3.6-3.6,3.6l0,0c-2,0-3.6-1.6-3.6-3.6v-5.8c0-2,1.6-3.6,3.6-3.6l0,0
			c2,0,3.6,1.6,3.6,3.6V130.1z"/>
		<path class="st2" d="M148,81.5c-3.2-2.1-10.3-3.6-18.6-3.6c-0.1,0-0.1,0-0.2,0v50h13.4V92.5c1.5,2.2,3.6,6.2,3.6,12.2v19.5h9.6
			v-19.5C155.8,94.7,153.3,84.7,148,81.5z"/>
		<path class="st3" d="M129.6,51.8c-0.1,0-0.3,0-0.4,0v23.3c0.1,0,0.3,0,0.4,0c6.3,0,11.4-5.2,11.4-11.7S135.8,51.8,129.6,51.8z"/>
		<path class="st4" d="M129.6,51.8c-0.1,0-0.3,0-0.4,0v6.5c2,1.3,4.5,2.1,6.5,0.8c1.1-0.7,2.5-0.2,3.2,0.8c0.3,0.5,1.1,0.9,1.8,1.3
			C139.7,55.9,135.1,51.8,129.6,51.8z"/>
		<path class="st3" d="M142.3,63.8c0,1.7-0.5,3.1-1.2,3.1c-0.7,0-1.2-1.4-1.2-3.1s0.5-3.1,1.2-3.1C141.8,60.8,142.3,62.1,142.3,63.8
			z"/>
		<path class="st2" d="M129.2,56.7h12.8c0-0.1,0-0.2-0.1-0.3c-0.2-0.7-0.7-2.6-0.7-3.3c0-5.5-5.1-10-11.5-10c-0.2,0-0.3,0-0.5,0
			V56.7z"/>
		<path class="st0" d="M142.4,55.5h-13.3V58h13.3c0.7,0,1.2-0.6,1.2-1.2C143.7,56,143.1,55.5,142.4,55.5z"/>
		<path class="st5" d="M142.8,128l-0.2-0.7h-13.5v10h2.9c4.3,11.2,6.7,33.1,6.3,47.5l12,0.3C150.7,174.9,149.9,143.1,142.8,128z"/>
		<path class="st6" d="M152.2,188.4c0.1-0.4,0.2-0.8,0.2-1.3c0-2.3-1.9-4.2-4.2-4.2h-7.2c-2.3,0-4.2,1.9-4.2,4.2
			c0,0.4,0.1,0.9,0.2,1.3H152.2z"/>
		<path class="st7" d="M150.5,168.4c-0.3-5.2-0.7-10.9-1.4-16.6h-13.8c0.9,5.3,1.6,11,2.1,16.6H150.5z"/>
		<path class="st0" d="M145.7,111.6h10.6v-6.9c0-1.7-0.1-3.4-0.2-5.1h-10.9c0.4,1.6,0.6,3.3,0.6,5.1V111.6z"/>
		<path class="st8" d="M129.3,77.9c-0.1,0-0.1,0-0.2,0v46.6h8.3V78.4C135,78.1,132.2,77.9,129.3,77.9z"/>
		<path class="st1" d="M129.3,77.9c-0.1,0-0.1,0-0.2,0v4.2c0,0,0.1,0,0.1,0c2.7,0,4.8-2,4.8-4C134.1,78.1,131.7,77.9,129.3,77.9z"/>
		<rect x="129.2" y="124.7" class="st9" width="14.6" height="5.1"/>
		<g>
			<g>
				<g>
					<polygon class="st10" points="129.2,123.6 129.2,124.5 132.3,124.5 132.3,129.8 129.2,129.8 129.2,130.8 133.3,130.8 
						133.3,123.6 					"/>
				</g>
				<g>
					<rect x="130.7" y="126.4" class="st10" width="3.2" height="1.6"/>
				</g>
			</g>
		</g>
		<polygon class="st7" points="139.6,125.1 136.4,124.7 134.1,77.7 139.2,77.7 		"/>
	</g>
</g>
<g>
	<g>
		<path class="st1" d="M238.4,126.3c0,2.1-1.7,3.8-3.8,3.8l0,0c-2.1,0-3.8-1.7-3.8-3.8v-6.2c0-2.1,1.7-3.8,3.8-3.8l0,0
			c2.1,0,3.8,1.7,3.8,3.8V126.3z"/>
		<path class="st1" d="M285,126.3c0,2.1-1.7,3.8-3.8,3.8l0,0c-2.1,0-3.8-1.7-3.8-3.8v-6.2c0-2.1,1.7-3.8,3.8-3.8l0,0
			c2.1,0,3.8,1.7,3.8,3.8V126.3z"/>
		<path class="st8" d="M277.8,74.3c-3.4-2.2-11-3.8-19.9-3.8c-8.8,0-16.4,1.5-19.8,3.8c-5.8,3.4-8.4,14.1-8.4,24.9V120H240V99.2
			c0-7.1,2.3-11.5,3.7-13.7V124h28.4V86.1c1.6,2.4,3.8,6.6,3.8,13.1V120h10.3V99.2C286.2,88.5,283.6,77.7,277.8,74.3z"/>
		<ellipse class="st3" cx="258.2" cy="55.1" rx="12.1" ry="12.5"/>
		<path class="st4" d="M248,51.6c1.2-1.4,2.8-2.4,4.2-3.7c1-0.9,2.6-1,3.5,0c2.1,2.3,6,4.4,9,2.6c1.2-0.7,2.7-0.2,3.4,0.9
			c0.3,0.5,1.1,1,2,1.4c-1.1-5.8-6-10.1-11.9-10.1c-6.5,0-11.9,5.3-12.1,11.9C246.8,53.7,247.3,52.4,248,51.6z"/>
		<path class="st3" d="M271.8,55.5c0,1.8-0.6,3.3-1.3,3.3s-1.3-1.5-1.3-3.3s0.6-3.3,1.3-3.3S271.8,53.7,271.8,55.5z"/>
		<path class="st3" d="M247.4,55.5c0,1.8-0.6,3.3-1.3,3.3c-0.7,0-1.3-1.5-1.3-3.3s0.6-3.3,1.3-3.3C246.8,52.2,247.4,53.7,247.4,55.5
			z"/>
		<g>
			<g>
				<path class="st12" d="M271.4,47.8c0-0.1,0-0.2-0.1-0.3c-0.2-0.7-0.8-2.8-0.8-3.5c0-5.9-5.5-10.6-12.3-10.6
					c-6.8,0-12.3,4.8-12.3,10.6c0,0.7-0.6,2.7-1,3.8H271.4z"/>
				<circle class="st12" cx="258.1" cy="34" r="3.2"/>
				<g>
					<g>
						<path class="st13" d="M251,35.4c1.1-0.7,2.4-1.2,3.7-1.6c0.1,0.2,0.1,0.5,0.1,0.7v8.5c0,1.1-0.9,1.9-1.9,1.9l0,0
							c-1.1,0-1.9-0.9-1.9-1.9V35.4z"/>
						<path class="st13" d="M261.5,33.7c1.3,0.3,2.6,0.8,3.7,1.5v7.9c0,1.1-0.9,1.9-1.9,1.9l0,0c-1.1,0-1.9-0.9-1.9-1.9v-8.5
							C261.3,34.2,261.4,34,261.5,33.7z"/>
					</g>
				</g>
			</g>
			<path class="st13" d="M269.5,48.2c0,0.6-0.5,1-1,1h-21.2c-0.6,0-1-0.5-1-1l0,0c0-0.6,0.5-1,1-1h21.2
				C269.1,47.2,269.5,47.6,269.5,48.2L269.5,48.2z"/>
		</g>
		<path class="st14" d="M272.4,124l-0.2-0.7h-28.5v2.6c-6.8,16.8-7.6,48.7-7.3,59.3l12.8-0.4c-0.4-15.5,2.7-39,7.5-50.8h4.2
			c4.6,11.9,7.2,35.4,6.8,50.8l12.8,0.4C280.7,174.2,279.9,140.2,272.4,124z"/>
		<path class="st6" d="M250.9,188.6c0.1-0.4,0.2-0.9,0.2-1.4c0-2.5-2-4.4-4.4-4.4H239c-2.5,0-4.4,2-4.4,4.4c0,0.5,0.1,0.9,0.2,1.4
			H250.9z"/>
		<path class="st6" d="M282.4,188.6c0.1-0.4,0.2-0.9,0.2-1.4c0-2.5-2-4.4-4.4-4.4h-7.7c-2.5,0-4.4,2-4.4,4.4c0,0.5,0.1,0.9,0.2,1.4
			H282.4z"/>
		<path class="st1" d="M252.7,70.7c0,0.1,0,0.3,0,0.4c0,2.1,2.3,3.8,5.2,3.8c2.9,0,5.2-2.1,5.2-4.2c0,0-2.5-0.2-5.1-0.2
			C255.4,70.5,252.8,70.7,252.7,70.7z"/>
		<rect x="243" y="120.5" class="st9" width="30.4" height="5.5"/>
		<path class="st10" d="M262.8,122.3h-0.6v-3h-7.5v7.7h7.5v-3h0.6V122.3z M261.1,126h-5.5v-5.6h5.5v2h-1.7v1.7h1.7V126z"/>
		<path class="st15" d="M247.9,82.8v-1.1c0-0.3,0-0.5,0-0.8c0-0.3,0-0.5,0-0.8v-9l-2.8,0.4l-0.4,16.7l-1.2,0.2l-0.6,32l10.2,0.2
			l0-31.1C248,89.5,247.9,82.8,247.9,82.8z"/>
		<path class="st15" d="M272.1,88.5l-1.2-0.2l-0.4-16.7l-2.8-0.4v11.7c0,0,0,6.9-4.5,7.1l0,30.8l9.5-0.2L272.1,88.5z"/>
		<rect x="243" y="109.5" class="st16" width="10.2" height="1"/>
		<rect x="243" y="112.8" class="st16" width="10.2" height="1"/>
		<rect x="263.3" y="109.5" class="st16" width="9.4" height="1"/>
		<rect x="263.3" y="112.8" class="st16" width="9.4" height="1"/>
	</g>
	<g class="st11">
		<path class="st1" d="M285,126.3c0,2.1-1.7,3.8-3.8,3.8l0,0c-2.1,0-3.8-1.7-3.8-3.8v-6.2c0-2.1,1.7-3.8,3.8-3.8l0,0
			c2.1,0,3.8,1.7,3.8,3.8V126.3z"/>
		<path class="st8" d="M277.8,74.3c-3.4-2.2-11-3.8-19.9-3.8c-0.1,0-0.2,0-0.3,0V124h14.5V86.1c1.6,2.4,3.8,6.6,3.8,13.1V120h10.3
			V99.2C286.2,88.5,283.6,77.7,277.8,74.3z"/>
		<path class="st3" d="M258.2,42.6c-0.2,0-0.4,0-0.5,0v24.9c0.2,0,0.4,0,0.5,0c6.7,0,12.1-5.6,12.1-12.5S264.9,42.6,258.2,42.6z"/>
		<path class="st4" d="M258.2,42.6c-0.2,0-0.4,0-0.5,0v6.9c2.1,1.5,4.9,2.3,7.1,0.9c1.2-0.7,2.7-0.2,3.4,0.9c0.3,0.5,1.1,1,2,1.4
			C269,46.9,264.1,42.6,258.2,42.6z"/>
		<path class="st3" d="M271.8,55.5c0,1.8-0.6,3.3-1.3,3.3s-1.3-1.5-1.3-3.3s0.6-3.3,1.3-3.3S271.8,53.7,271.8,55.5z"/>
		<g>
			<g>
				<path class="st12" d="M257.7,47.8h13.8c0-0.1,0-0.2-0.1-0.3c-0.2-0.7-0.8-2.8-0.8-3.5c0-5.9-5.5-10.6-12.3-10.6
					c-0.2,0-0.4,0-0.6,0V47.8z"/>
				<path class="st12" d="M258.1,30.9c-0.1,0-0.3,0-0.4,0v6.3c0.1,0,0.3,0,0.4,0c1.7,0,3.2-1.4,3.2-3.2
					C261.3,32.3,259.8,30.9,258.1,30.9z"/>
				<g>
					<g>
						<path class="st13" d="M261.5,33.7c1.3,0.3,2.6,0.8,3.7,1.5v7.9c0,1.1-0.9,1.9-1.9,1.9l0,0c-1.1,0-1.9-0.9-1.9-1.9v-8.5
							C261.3,34.2,261.4,34,261.5,33.7z"/>
					</g>
				</g>
			</g>
			<path class="st13" d="M268.5,47.2h-10.8v2.1h10.8c0.6,0,1-0.5,1-1C269.5,47.6,269.1,47.2,268.5,47.2z"/>
		</g>
		<path class="st14" d="M272.4,124l-0.2-0.7h-14.5V134h3.2c4.6,11.9,7.2,35.4,6.8,50.8l12.8,0.4C280.7,174.2,279.9,140.2,272.4,124z
			"/>
		<path class="st6" d="M282.4,188.6c0.1-0.4,0.2-0.9,0.2-1.4c0-2.5-2-4.4-4.4-4.4h-7.7c-2.5,0-4.4,2-4.4,4.4c0,0.5,0.1,0.9,0.2,1.4
			H282.4z"/>
		<path class="st1" d="M258,70.6c-0.1,0-0.2,0-0.3,0V75c0.1,0,0.2,0,0.2,0c2.9,0,5.2-2.1,5.2-4.2C263.1,70.8,260.5,70.6,258,70.6z"
			/>
		<rect x="257.7" y="120.5" class="st9" width="15.7" height="5.5"/>
		<polygon class="st10" points="262.1,122.3 262.1,119.3 257.7,119.3 257.7,120.3 261.1,120.3 261.1,122.3 259.4,122.3 259.4,124 
			261.1,124 261.1,126 257.7,126 257.7,127 262.1,127 262.1,124 262.8,124 262.8,122.3 		"/>
		<path class="st15" d="M272.1,88.5l-1.2-0.2l-0.4-16.7l-2.8-0.4v11.7c0,0,0,6.9-4.5,7.1l0,30.8l9.5-0.2L272.1,88.5z"/>
		<rect x="263.3" y="109.5" class="st16" width="9.4" height="1"/>
		<rect x="263.3" y="112.8" class="st16" width="9.4" height="1"/>
	</g>
</g>
<g>
	<g>
		<path class="st1" d="M367,124.3c0,2.1-1.7,3.8-3.8,3.8l0,0c-2.1,0-3.8-1.7-3.8-3.8v-6.2c0-2.1,1.7-3.8,3.8-3.8l0,0
			c2.1,0,3.8,1.7,3.8,3.8V124.3z"/>
		<path class="st1" d="M413.6,124.3c0,2.1-1.7,3.8-3.8,3.8l0,0c-2.1,0-3.8-1.7-3.8-3.8v-6.2c0-2.1,1.7-3.8,3.8-3.8l0,0
			c2.1,0,3.8,1.7,3.8,3.8V124.3z"/>
		<path class="st17" d="M406.5,72.4c-3.4-2.2-11-3.8-19.9-3.8c-8.8,0-16.4,1.5-19.8,3.8c-5.8,3.4-8.4,14.1-8.4,24.9V118h10.3V97.2
			c0-7.1,2.3-11.5,3.7-13.7V122h28.4V84.1c1.6,2.4,3.8,6.6,3.8,13.1V118h10.3V97.2C414.8,86.5,412.2,75.8,406.5,72.4z"/>
		<path class="st3" d="M398.9,53.1c0,6.9-5.4,12.5-12.1,12.5c-6.7,0-12.1-5.6-12.1-12.5c0-6.9,5.4-12.5,12.1-12.5
			C393.5,40.6,398.9,46.2,398.9,53.1z"/>
		<path class="st4" d="M376.7,49.6c1.2-1.4,2.8-2.4,4.2-3.7c1-0.9,2.6-1,3.5,0c2.1,2.3,6,4.4,9,2.6c1.2-0.7,2.7-0.2,3.4,0.9
			c0.3,0.5,1.1,1,2,1.4c-1.1-5.8-6-10.1-11.9-10.1c-6.5,0-11.9,5.3-12.1,11.9C375.5,51.7,375.9,50.4,376.7,49.6z"/>
		<path class="st3" d="M400.4,53.5c0,1.8-0.6,3.3-1.3,3.3c-0.7,0-1.3-1.5-1.3-3.3c0-1.8,0.6-3.3,1.3-3.3
			C399.9,50.2,400.4,51.7,400.4,53.5z"/>
		<path class="st3" d="M376,53.5c0,1.8-0.6,3.3-1.3,3.3c-0.7,0-1.3-1.5-1.3-3.3c0-1.8,0.6-3.3,1.3-3.3C375.4,50.2,376,51.7,376,53.5
			z"/>
		<path class="st14" d="M401,122.1l-0.2-0.7h-28.5v2.6c-6.8,16.8-7.6,48.7-7.3,59.3l12.8-0.4c-0.4-15.5,2.7-39,7.5-50.8h4.2
			c4.6,11.9,7.2,35.4,6.8,50.8l12.8,0.4C409.3,172.2,408.5,138.2,401,122.1z"/>
		<path class="st6" d="M379.6,186.6c0.1-0.4,0.2-0.9,0.2-1.4c0-2.5-2-4.4-4.4-4.4h-7.7c-2.5,0-4.4,2-4.4,4.4c0,0.5,0.1,0.9,0.2,1.4
			H379.6z"/>
		<path class="st6" d="M411,186.6c0.1-0.4,0.2-0.9,0.2-1.4c0-2.5-2-4.4-4.4-4.4h-7.7c-2.5,0-4.4,2-4.4,4.4c0,0.5,0.1,0.9,0.2,1.4
			H411z"/>
		<path class="st18" d="M409.2,165.3c-0.3-5.6-0.8-11.7-1.5-17.7h-14.8c1,5.7,1.8,11.8,2.2,17.7H409.2z"/>
		<path class="st18" d="M379.1,165.3c0.6-5.9,1.4-12.1,2.5-17.7h-15.2c-0.8,6.1-1.3,12.2-1.5,17.7H379.1z"/>
		<path class="st19" d="M369.1,104.5v-7.3c0-1.9,0.2-3.8,0.5-5.5h-11.6c-0.2,1.9-0.2,3.7-0.2,5.5v7.3H369.1z"/>
		<path class="st19" d="M404.1,104.5h11.3v-7.3c0-1.8-0.1-3.6-0.2-5.5h-11.6c0.4,1.7,0.6,3.6,0.6,5.5V104.5z"/>
		<path class="st8" d="M395.3,69.1c-2.7-0.3-5.6-0.5-8.7-0.5c-2.9,0-5.7,0.2-8.2,0.5v49.3h16.9V69.1z"/>
		<path class="st1" d="M381.3,68.7c0,0.1,0,0.3,0,0.4c0,2.1,2.3,3.8,5.2,3.8c2.9,0,5.2-2.1,5.2-4.2c0,0-2.5-0.2-5.1-0.2
			C384,68.6,381.4,68.7,381.3,68.7z"/>
		<rect x="371.6" y="118.5" class="st9" width="30.4" height="5.5"/>
		<g>
			<g>
				<g>
					<path class="st10" d="M390.8,125h-7.5v-7.7h7.5V125z M384.3,124h5.5v-5.6h-5.5V124z"/>
				</g>
				<g>
					<rect x="388" y="120.3" class="st10" width="3.4" height="1.7"/>
				</g>
			</g>
		</g>
		<polygon class="st20" points="397.5,118.9 394.1,118.6 391.7,68.3 397.1,68.3 		"/>
		<polygon class="st20" points="374.9,118.7 378.3,118.4 381.1,68.3 375.6,68.3 		"/>
		<g>
			<g>
				<path class="st21" d="M400.1,44.6c0-0.1,0-0.2-0.1-0.3c-0.2-0.7-0.8-2.8-0.8-3.5c0-5.9-5.5-10.6-12.3-10.6
					c-6.8,0-12.3,4.8-12.3,10.6c0,0.7-0.6,2.7-1,3.8H400.1z"/>
				<circle class="st21" cx="386.8" cy="30.9" r="3.2"/>
				<g>
					<path class="st22" d="M379.7,32.2c1.1-0.7,2.4-1.2,3.7-1.6c0.1,0.2,0.1,0.5,0.1,0.7v8.5c0,1.1-0.9,1.9-1.9,1.9l0,0
						c-1.1,0-1.9-0.9-1.9-1.9V32.2z"/>
					<path class="st22" d="M390.2,30.5c1.3,0.3,2.6,0.8,3.7,1.5v7.9c0,1.1-0.9,1.9-1.9,1.9l0,0c-1.1,0-1.9-0.9-1.9-1.9v-8.5
						C390,31.1,390.1,30.8,390.2,30.5z"/>
				</g>
			</g>
			<path class="st22" d="M398.3,45c0,0.6-0.5,1-1,1H376c-0.6,0-1-0.5-1-1l0,0c0-0.6,0.5-1,1-1h21.2C397.8,44,398.3,44.4,398.3,45
				L398.3,45z"/>
		</g>
	</g>
	<g class="st11">
		<path class="st1" d="M413.6,124.3c0,2.1-1.7,3.8-3.8,3.8l0,0c-2.1,0-3.8-1.7-3.8-3.8v-6.2c0-2.1,1.7-3.8,3.8-3.8l0,0
			c2.1,0,3.8,1.7,3.8,3.8V124.3z"/>
		<path class="st17" d="M406.5,72.4c-3.3-2.1-10.4-3.7-18.8-3.8V122h13V84.1c1.6,2.4,3.8,6.6,3.8,13.1V118h10.3V97.2
			C414.8,86.5,412.2,75.8,406.5,72.4z"/>
		<path class="st3" d="M387.7,40.6v24.9c6.3-0.5,11.2-5.9,11.2-12.4S394,41.1,387.7,40.6z"/>
		<path class="st4" d="M387.7,40.6v7.7c1.8,0.9,3.9,1.2,5.7,0.1c1.2-0.7,2.7-0.2,3.4,0.9c0.3,0.5,1.1,1,2,1.4
			C397.7,45.3,393.2,41.1,387.7,40.6z"/>
		<path class="st3" d="M400.4,53.5c0,1.8-0.6,3.3-1.3,3.3c-0.7,0-1.3-1.5-1.3-3.3c0-1.8,0.6-3.3,1.3-3.3
			C399.9,50.2,400.4,51.7,400.4,53.5z"/>
		<path class="st14" d="M401,122.1l-0.2-0.7h-13.1V132h1.8c4.6,11.9,7.2,35.4,6.8,50.8l12.8,0.4C409.3,172.2,408.5,138.2,401,122.1z
			"/>
		<path class="st6" d="M411,186.6c0.1-0.4,0.2-0.9,0.2-1.4c0-2.5-2-4.4-4.4-4.4h-7.7c-2.5,0-4.4,2-4.4,4.4c0,0.5,0.1,0.9,0.2,1.4
			H411z"/>
		<path class="st18" d="M409.2,165.3c-0.3-5.6-0.8-11.7-1.5-17.7h-14.8c1,5.7,1.8,11.8,2.2,17.7H409.2z"/>
		<path class="st19" d="M404.1,104.5h11.3v-7.3c0-1.8-0.1-3.6-0.2-5.5h-11.6c0.4,1.7,0.6,3.6,0.6,5.5V104.5z"/>
		<path class="st8" d="M387.7,68.6v49.8h7.6V69.1C392.9,68.8,390.4,68.6,387.7,68.6z"/>
		<path class="st1" d="M387.7,68.6v4.3c2.3-0.5,4-2.3,4-4.1C391.7,68.8,389.8,68.6,387.7,68.6z"/>
		<rect x="387.7" y="118.5" class="st9" width="14.3" height="5.5"/>
		<g>
			<g>
				<g>
					<polygon class="st10" points="387.7,117.3 387.7,118.4 389.7,118.4 389.7,124 387.7,124 387.7,125 390.8,125 390.8,117.3 					
						"/>
				</g>
				<g>
					<rect x="388" y="120.3" class="st10" width="3.4" height="1.7"/>
				</g>
			</g>
		</g>
		<polygon class="st20" points="397.5,118.9 394.1,118.6 391.7,68.3 397.1,68.3 		"/>
		<g>
			<g>
				<path class="st21" d="M387.7,44.6h12.4c0-0.1,0-0.2-0.1-0.3c-0.2-0.7-0.8-2.8-0.8-3.5c0-5.7-5.1-10.3-11.6-10.6V44.6z"/>
				<path class="st21" d="M387.7,27.8v6.1c1.3-0.4,2.3-1.6,2.3-3C390,29.4,389,28.2,387.7,27.8z"/>
				<g>
					<path class="st22" d="M390.2,30.5c1.3,0.3,2.6,0.8,3.7,1.5v7.9c0,1.1-0.9,1.9-1.9,1.9l0,0c-1.1,0-1.9-0.9-1.9-1.9v-8.5
						C390,31.1,390.1,30.8,390.2,30.5z"/>
				</g>
			</g>
			<path class="st22" d="M397.2,44h-9.5V46h9.5c0.6,0,1-0.5,1-1C398.3,44.4,397.8,44,397.2,44z"/>
		</g>
	</g>
</g>
</svg>
