<?xml version="1.0" encoding="utf-8"?>
<!-- Generator: Adobe Illustrator 23.0.1, SVG Export Plug-In . SVG Version: 6.00 Build 0)  -->
<svg version="1.1" id="Layer_1" xmlns="http://www.w3.org/2000/svg" xmlns:xlink="http://www.w3.org/1999/xlink" x="0px" y="0px"
	 viewBox="0 0 500 200" style="enable-background:new 0 0 500 200;" xml:space="preserve">
<style type="text/css">
	.st0{fill-rule:evenodd;clip-rule:evenodd;fill:#8B8A8B;}
	.st1{fill:#FFEAC7;}
	.st2{fill-rule:evenodd;clip-rule:evenodd;fill:#B3B4B6;}
	.st3{fill-rule:evenodd;clip-rule:evenodd;fill:#FFEAC7;}
	.st4{fill-rule:evenodd;clip-rule:evenodd;fill:#7E6055;}
	.st5{fill:#A5A6A8;}
	.st6{fill:#524C40;}
	.st7{fill:#8B8A8B;}
	.st8{fill-rule:evenodd;clip-rule:evenodd;fill:#F4F5F4;}
	.st9{fill:#573B3F;}
	.st10{fill:#E0B18D;}
	.st11{opacity:0.5;}
	.st12{fill-rule:evenodd;clip-rule:evenodd;fill:#0988A1;}
	.st13{fill-rule:evenodd;clip-rule:evenodd;fill:#106E82;}
	.st14{fill:#0988A1;}
	.st15{fill:#CADB2B;}
	.st16{fill:#F5A61C;}
	.st17{fill-rule:evenodd;clip-rule:evenodd;fill:#0E778E;}
	.st18{fill:#0E778E;}
	.st19{fill:#1D1D1B;}
	.st20{fill-rule:evenodd;clip-rule:evenodd;fill:#F7933D;}
	.st21{fill-rule:evenodd;clip-rule:evenodd;fill:#BA722F;}
	.st22{fill:#BA722F;}
	.st23{fill-rule:evenodd;clip-rule:evenodd;fill:#F5CD7E;}
	.st24{fill-rule:evenodd;clip-rule:evenodd;fill:#E4B559;}
</style>
<g>
	<g>
		<path class="st0" d="M47.1,44.9c0.8,0,1.5-0.7,1.5-1.5c0-0.8-0.7-1.5-1.5-1.5c-0.8,0-1.5,0.7-1.5,1.5
			C45.6,44.2,46.3,44.9,47.1,44.9z"/>
		<path class="st1" d="M28.1,130.1c0,2-1.6,3.6-3.6,3.6l0,0c-2,0-3.6-1.6-3.6-3.6v-5.8c0-2,1.6-3.6,3.6-3.6l0,0c2,0,3.6,1.6,3.6,3.6
			V130.1z"/>
		<path class="st1" d="M71.7,130.1c0,2-1.6,3.6-3.6,3.6l0,0c-2,0-3.6-1.6-3.6-3.6v-5.8c0-2,1.6-3.6,3.6-3.6l0,0c2,0,3.6,1.6,3.6,3.6
			V130.1z"/>
		<path class="st2" d="M65.1,81.5c-3.2-2.1-10.3-3.6-18.6-3.6c-8.3,0-15.4,1.4-18.6,3.5c-5.4,3.1-7.9,13.2-7.9,23.3v19.5h9.6v-19.5
			c0-6.6,2.1-10.7,3.5-12.8v36h26.6V92.5c1.5,2.2,3.6,6.2,3.6,12.2v19.5h9.6v-19.5C72.9,94.7,70.4,84.7,65.1,81.5z"/>
		<ellipse class="st3" cx="46.7" cy="63.5" rx="11.4" ry="11.7"/>
		<path class="st4" d="M37.2,60.2c1.2-1.3,2.6-2.3,3.9-3.5c0.9-0.8,2.4-1,3.3,0c2,2.2,5.6,4.1,8.4,2.4c1.1-0.7,2.5-0.2,3.2,0.8
			c0.3,0.5,1.1,0.9,1.8,1.3c-1-5.4-5.6-9.5-11.2-9.5c-6.1,0-11.1,5-11.3,11.2C36.1,62.1,36.5,61,37.2,60.2z"/>
		<path class="st3" d="M59.4,63.8c0,1.7-0.5,3.1-1.2,3.1c-0.7,0-1.2-1.4-1.2-3.1s0.5-3.1,1.2-3.1C58.9,60.8,59.4,62.1,59.4,63.8z"/>
		<path class="st3" d="M36.6,63.8c0,1.7-0.5,3.1-1.2,3.1c-0.7,0-1.2-1.4-1.2-3.1s0.5-3.1,1.2-3.1C36,60.8,36.6,62.1,36.6,63.8z"/>
		<path class="st2" d="M59.1,56.7c0-0.1,0-0.2-0.1-0.3c-0.2-0.7-0.7-2.6-0.7-3.3c0-5.5-5.1-10-11.5-10c-6.4,0-11.5,4.5-11.5,10
			c0,0.6-0.6,2.5-1,3.6H59.1z"/>
		<path class="st0" d="M60.8,56.7c0,0.7-0.6,1.2-1.2,1.2H34.1c-0.7,0-1.2-0.6-1.2-1.2l0,0c0-0.7,0.6-1.2,1.2-1.2h25.4
			C60.2,55.5,60.8,56,60.8,56.7L60.8,56.7z"/>
		<path class="st5" d="M59.9,128l-0.2-0.7H33.1v2.4c-6.3,15.7-7.1,45.6-6.8,55.5l12-0.3c-0.4-14.5,2.5-36.5,7-47.5h3.9
			c4.3,11.2,6.7,33.1,6.3,47.5l12,0.3C67.8,174.9,67,143.1,59.9,128z"/>
		<path class="st6" d="M39.9,188.4c0.1-0.4,0.2-0.8,0.2-1.3c0-2.3-1.9-4.2-4.2-4.2h-7.2c-2.3,0-4.2,1.9-4.2,4.2
			c0,0.4,0.1,0.9,0.2,1.3H39.9z"/>
		<path class="st6" d="M69.3,188.4c0.1-0.4,0.2-0.8,0.2-1.3c0-2.3-1.9-4.2-4.2-4.2h-7.2c-2.3,0-4.2,1.9-4.2,4.2
			c0,0.4,0.1,0.9,0.2,1.3H69.3z"/>
		<path class="st7" d="M67.7,168.4c-0.3-5.2-0.7-10.9-1.4-16.6H52.4c0.9,5.3,1.6,11,2.1,16.6H67.7z"/>
		<path class="st7" d="M39.4,168.4c0.5-5.6,1.3-11.3,2.3-16.6H27.6c-0.7,5.7-1.2,11.4-1.4,16.6H39.4z"/>
		<path class="st0" d="M30.1,111.6v-6.9c0-1.8,0.2-3.5,0.5-5.1H19.8c-0.2,1.7-0.2,3.5-0.2,5.1v6.9H30.1z"/>
		<path class="st0" d="M62.8,111.6h10.6v-6.9c0-1.7-0.1-3.4-0.2-5.1H62.3c0.4,1.6,0.6,3.3,0.6,5.1V111.6z"/>
		<path class="st8" d="M54.6,78.4c-2.5-0.3-5.2-0.5-8.1-0.5c-2.7,0-5.3,0.2-7.7,0.4v46.2h15.8V78.4z"/>
		<path class="st1" d="M41.5,78.1c0,0.1,0,0.3,0,0.4c0,2,2.2,3.6,4.8,3.6c2.7,0,4.8-2,4.8-4c0,0-2.4-0.2-4.8-0.2
			C44,77.9,41.6,78.1,41.5,78.1z"/>
		<rect x="32.4" y="124.7" class="st9" width="28.5" height="5.1"/>
		<g>
			<g>
				<g>
					<path class="st10" d="M50.4,130.8h-7v-7.2h7V130.8z M44.3,129.8h5.1v-5.3h-5.1V129.8z"/>
				</g>
				<g>
					<rect x="47.8" y="126.4" class="st10" width="3.2" height="1.6"/>
				</g>
			</g>
		</g>
		<polygon class="st7" points="56.7,125.1 53.5,124.7 51.2,77.7 56.4,77.7 		"/>
		<polygon class="st7" points="35.6,124.9 38.8,124.6 41.3,77.7 36.2,77.7 		"/>
	</g>
	<g class="st11">
		<path class="st0" d="M47.1,42c-0.3,0-0.6,0.1-0.8,0.2v2.4c0.2,0.1,0.5,0.2,0.8,0.2c0.8,0,1.5-0.7,1.5-1.5
			C48.5,42.6,47.9,42,47.1,42z"/>
		<path class="st1" d="M71.7,130.1c0,2-1.6,3.6-3.6,3.6l0,0c-2,0-3.6-1.6-3.6-3.6v-5.8c0-2,1.6-3.6,3.6-3.6l0,0c2,0,3.6,1.6,3.6,3.6
			V130.1z"/>
		<path class="st2" d="M65.1,81.5c-3.2-2.1-10.3-3.6-18.6-3.6c-0.1,0-0.1,0-0.2,0v50h13.4V92.5c1.5,2.2,3.6,6.2,3.6,12.2v19.5h9.6
			v-19.5C72.9,94.7,70.4,84.7,65.1,81.5z"/>
		<path class="st3" d="M46.7,51.8c-0.1,0-0.3,0-0.4,0v23.3c0.1,0,0.3,0,0.4,0C53,75.1,58,69.9,58,63.5S53,51.8,46.7,51.8z"/>
		<path class="st4" d="M46.7,51.8c-0.1,0-0.3,0-0.4,0v6.5c2,1.3,4.5,2.1,6.5,0.8c1.1-0.7,2.5-0.2,3.2,0.8c0.3,0.5,1.1,0.9,1.8,1.3
			C56.8,55.9,52.2,51.8,46.7,51.8z"/>
		<path class="st3" d="M59.4,63.8c0,1.7-0.5,3.1-1.2,3.1c-0.7,0-1.2-1.4-1.2-3.1s0.5-3.1,1.2-3.1C58.9,60.8,59.4,62.1,59.4,63.8z"/>
		<path class="st2" d="M46.3,56.7h12.8c0-0.1,0-0.2-0.1-0.3c-0.2-0.7-0.7-2.6-0.7-3.3c0-5.5-5.1-10-11.5-10c-0.2,0-0.3,0-0.5,0V56.7
			z"/>
		<path class="st0" d="M59.6,55.5H46.3V58h13.3c0.7,0,1.2-0.6,1.2-1.2C60.8,56,60.2,55.5,59.6,55.5z"/>
		<path class="st5" d="M59.9,128l-0.2-0.7H46.3v10h2.9c4.3,11.2,6.7,33.1,6.3,47.5l12,0.3C67.8,174.9,67,143.1,59.9,128z"/>
		<path class="st6" d="M69.3,188.4c0.1-0.4,0.2-0.8,0.2-1.3c0-2.3-1.9-4.2-4.2-4.2h-7.2c-2.3,0-4.2,1.9-4.2,4.2
			c0,0.4,0.1,0.9,0.2,1.3H69.3z"/>
		<path class="st7" d="M67.7,168.4c-0.3-5.2-0.7-10.9-1.4-16.6H52.4c0.9,5.3,1.6,11,2.1,16.6H67.7z"/>
		<path class="st0" d="M62.8,111.6h10.6v-6.9c0-1.7-0.1-3.4-0.2-5.1H62.3c0.4,1.6,0.6,3.3,0.6,5.1V111.6z"/>
		<path class="st8" d="M46.5,77.9c-0.1,0-0.1,0-0.2,0v46.6h8.3V78.4C52.1,78.1,49.4,77.9,46.5,77.9z"/>
		<path class="st1" d="M46.5,77.9c-0.1,0-0.1,0-0.2,0v4.2c0,0,0.1,0,0.1,0c2.7,0,4.8-2,4.8-4C51.2,78.1,48.9,77.9,46.5,77.9z"/>
		<rect x="46.3" y="124.7" class="st9" width="14.6" height="5.1"/>
		<g>
			<g>
				<g>
					<polygon class="st10" points="46.3,123.6 46.3,124.5 49.4,124.5 49.4,129.8 46.3,129.8 46.3,130.8 50.4,130.8 50.4,123.6 					
						"/>
				</g>
				<g>
					<rect x="47.8" y="126.4" class="st10" width="3.2" height="1.6"/>
				</g>
			</g>
		</g>
		<polygon class="st7" points="56.7,125.1 53.5,124.7 51.2,77.7 56.4,77.7 		"/>
	</g>
</g>
<g>
	<g>
		<path class="st1" d="M163,126.3c0,2.1-1.7,3.8-3.8,3.8l0,0c-2.1,0-3.8-1.7-3.8-3.8v-6.2c0-2.1,1.7-3.8,3.8-3.8l0,0
			c2.1,0,3.8,1.7,3.8,3.8V126.3z"/>
		<path class="st1" d="M209.6,126.3c0,2.1-1.7,3.8-3.8,3.8l0,0c-2.1,0-3.8-1.7-3.8-3.8v-6.2c0-2.1,1.7-3.8,3.8-3.8l0,0
			c2.1,0,3.8,1.7,3.8,3.8V126.3z"/>
		<path class="st8" d="M202.5,74.3c-3.4-2.2-11-3.8-19.9-3.8c-8.8,0-16.4,1.5-19.8,3.8c-5.8,3.4-8.4,14.1-8.4,24.9V120h10.3V99.2
			c0-7.1,2.3-11.5,3.7-13.7V124h28.4V86.1c1.6,2.4,3.8,6.6,3.8,13.1V120h10.3V99.2C210.8,88.5,208.2,77.7,202.5,74.3z"/>
		<ellipse class="st3" cx="182.8" cy="55.1" rx="12.1" ry="12.5"/>
		<path class="st4" d="M172.7,51.6c1.2-1.4,2.8-2.4,4.2-3.7c1-0.9,2.6-1,3.5,0c2.1,2.3,6,4.4,9,2.6c1.2-0.7,2.7-0.2,3.4,0.9
			c0.3,0.5,1.1,1,2,1.4c-1.1-5.8-6-10.1-11.9-10.1c-6.5,0-11.9,5.3-12.1,11.9C171.5,53.7,171.9,52.4,172.7,51.6z"/>
		<path class="st3" d="M196.5,55.5c0,1.8-0.6,3.3-1.3,3.3c-0.7,0-1.3-1.5-1.3-3.3s0.6-3.3,1.3-3.3C195.9,52.2,196.5,53.7,196.5,55.5
			z"/>
		<path class="st3" d="M172,55.5c0,1.8-0.6,3.3-1.3,3.3c-0.7,0-1.3-1.5-1.3-3.3s0.6-3.3,1.3-3.3C171.5,52.2,172,53.7,172,55.5z"/>
		<g>
			<g>
				<path class="st12" d="M196.1,47.8c0-0.1,0-0.2-0.1-0.3c-0.2-0.7-0.8-2.8-0.8-3.5c0-5.9-5.5-10.6-12.3-10.6
					c-6.8,0-12.3,4.8-12.3,10.6c0,0.7-0.6,2.7-1,3.8H196.1z"/>
				<circle class="st12" cx="182.7" cy="34" r="3.2"/>
				<g>
					<g>
						<path class="st13" d="M175.7,35.4c1.1-0.7,2.4-1.2,3.7-1.6c0.1,0.2,0.1,0.5,0.1,0.7v8.5c0,1.1-0.9,1.9-1.9,1.9l0,0
							c-1.1,0-1.9-0.9-1.9-1.9V35.4z"/>
						<path class="st13" d="M186.1,33.7c1.3,0.3,2.6,0.8,3.7,1.5v7.9c0,1.1-0.9,1.9-1.9,1.9l0,0c-1.1,0-1.9-0.9-1.9-1.9v-8.5
							C186,34.2,186,34,186.1,33.7z"/>
					</g>
				</g>
			</g>
			<path class="st13" d="M194.2,48.2c0,0.6-0.5,1-1,1H172c-0.6,0-1-0.5-1-1l0,0c0-0.6,0.5-1,1-1h21.2
				C193.7,47.2,194.2,47.6,194.2,48.2L194.2,48.2z"/>
		</g>
		<path class="st14" d="M197,124l-0.2-0.7h-28.5v2.6c-6.8,16.8-7.6,48.7-7.3,59.3l12.8-0.4c-0.4-15.5,2.7-39,7.5-50.8h4.2
			c4.6,11.9,7.2,35.4,6.8,50.8l12.8,0.4C205.4,174.2,204.5,140.2,197,124z"/>
		<path class="st6" d="M175.6,188.6c0.1-0.4,0.2-0.9,0.2-1.4c0-2.5-2-4.4-4.4-4.4h-7.7c-2.5,0-4.4,2-4.4,4.4c0,0.5,0.1,0.9,0.2,1.4
			H175.6z"/>
		<path class="st6" d="M207,188.6c0.1-0.4,0.2-0.9,0.2-1.4c0-2.5-2-4.4-4.4-4.4h-7.7c-2.5,0-4.4,2-4.4,4.4c0,0.5,0.1,0.9,0.2,1.4
			H207z"/>
		<path class="st1" d="M177.3,70.7c0,0.1,0,0.3,0,0.4c0,2.1,2.3,3.8,5.2,3.8c2.9,0,5.2-2.1,5.2-4.2c0,0-2.5-0.2-5.1-0.2
			C180,70.5,177.4,70.7,177.3,70.7z"/>
		<rect x="167.6" y="120.5" class="st9" width="30.4" height="5.5"/>
		<path class="st10" d="M187.4,122.3h-0.6v-3h-7.5v7.7h7.5v-3h0.6V122.3z M185.8,126h-5.5v-5.6h5.5v2h-1.7v1.7h1.7V126z"/>
		<path class="st15" d="M172.6,82.8v-1.1c0-0.3,0-0.5,0-0.8c0-0.3,0-0.5,0-0.8v-9l-2.8,0.4l-0.4,16.7l-1.2,0.2l-0.6,32l10.2,0.2
			l0-31.1C172.6,89.5,172.6,82.8,172.6,82.8z"/>
		<path class="st15" d="M196.7,88.5l-1.2-0.2l-0.4-16.7l-2.8-0.4v11.7c0,0,0,6.9-4.5,7.1l0,30.8l9.5-0.2L196.7,88.5z"/>
		<rect x="167.7" y="109.5" class="st16" width="10.2" height="1"/>
		<rect x="167.7" y="112.8" class="st16" width="10.2" height="1"/>
		<rect x="187.9" y="109.5" class="st16" width="9.4" height="1"/>
		<rect x="187.9" y="112.8" class="st16" width="9.4" height="1"/>
	</g>
	<g class="st11">
		<path class="st1" d="M209.6,126.3c0,2.1-1.7,3.8-3.8,3.8l0,0c-2.1,0-3.8-1.7-3.8-3.8v-6.2c0-2.1,1.7-3.8,3.8-3.8l0,0
			c2.1,0,3.8,1.7,3.8,3.8V126.3z"/>
		<path class="st8" d="M202.5,74.3c-3.4-2.2-11-3.8-19.9-3.8c-0.1,0-0.2,0-0.3,0V124h14.5V86.1c1.6,2.4,3.8,6.6,3.8,13.1V120h10.3
			V99.2C210.8,88.5,208.2,77.7,202.5,74.3z"/>
		<path class="st3" d="M182.8,42.6c-0.2,0-0.4,0-0.5,0v24.9c0.2,0,0.4,0,0.5,0c6.7,0,12.1-5.6,12.1-12.5S189.5,42.6,182.8,42.6z"/>
		<path class="st4" d="M182.8,42.6c-0.2,0-0.4,0-0.5,0v6.9c2.1,1.5,4.9,2.3,7.1,0.9c1.2-0.7,2.7-0.2,3.4,0.9c0.3,0.5,1.1,1,2,1.4
			C193.7,46.9,188.8,42.6,182.8,42.6z"/>
		<path class="st3" d="M196.5,55.5c0,1.8-0.6,3.3-1.3,3.3c-0.7,0-1.3-1.5-1.3-3.3s0.6-3.3,1.3-3.3C195.9,52.2,196.5,53.7,196.5,55.5
			z"/>
		<g>
			<g>
				<path class="st12" d="M182.3,47.8h13.8c0-0.1,0-0.2-0.1-0.3c-0.2-0.7-0.8-2.8-0.8-3.5c0-5.9-5.5-10.6-12.3-10.6
					c-0.2,0-0.4,0-0.6,0V47.8z"/>
				<path class="st12" d="M182.7,30.9c-0.1,0-0.3,0-0.4,0v6.3c0.1,0,0.3,0,0.4,0c1.7,0,3.2-1.4,3.2-3.2
					C185.9,32.3,184.5,30.9,182.7,30.9z"/>
				<g>
					<g>
						<path class="st13" d="M186.1,33.7c1.3,0.3,2.6,0.8,3.7,1.5v7.9c0,1.1-0.9,1.9-1.9,1.9l0,0c-1.1,0-1.9-0.9-1.9-1.9v-8.5
							C186,34.2,186,34,186.1,33.7z"/>
					</g>
				</g>
			</g>
			<path class="st13" d="M193.2,47.2h-10.8v2.1h10.8c0.6,0,1-0.5,1-1C194.2,47.6,193.7,47.2,193.2,47.2z"/>
		</g>
		<path class="st14" d="M197,124l-0.2-0.7h-14.5V134h3.2c4.6,11.9,7.2,35.4,6.8,50.8l12.8,0.4C205.4,174.2,204.5,140.2,197,124z"/>
		<path class="st6" d="M207,188.6c0.1-0.4,0.2-0.9,0.2-1.4c0-2.5-2-4.4-4.4-4.4h-7.7c-2.5,0-4.4,2-4.4,4.4c0,0.5,0.1,0.9,0.2,1.4
			H207z"/>
		<path class="st1" d="M182.6,70.6c-0.1,0-0.2,0-0.3,0V75c0.1,0,0.2,0,0.2,0c2.9,0,5.2-2.1,5.2-4.2
			C187.7,70.8,185.2,70.6,182.6,70.6z"/>
		<rect x="182.3" y="120.5" class="st9" width="15.7" height="5.5"/>
		<polygon class="st10" points="186.8,122.3 186.8,119.3 182.3,119.3 182.3,120.3 185.8,120.3 185.8,122.3 184.1,122.3 184.1,124 
			185.8,124 185.8,126 182.3,126 182.3,127 186.8,127 186.8,124 187.4,124 187.4,122.3 		"/>
		<path class="st15" d="M196.7,88.5l-1.2-0.2l-0.4-16.7l-2.8-0.4v11.7c0,0,0,6.9-4.5,7.1l0,30.8l9.5-0.2L196.7,88.5z"/>
		<rect x="187.9" y="109.5" class="st16" width="9.4" height="1"/>
		<rect x="187.9" y="112.8" class="st16" width="9.4" height="1"/>
	</g>
</g>
<g>
	<g>
		<path class="st1" d="M436.6,129.4c0,2-1.6,3.6-3.6,3.6l0,0c-2,0-3.6-1.6-3.6-3.6v-5.8c0-2,1.6-3.6,3.6-3.6l0,0
			c2,0,3.6,1.6,3.6,3.6V129.4z"/>
		<path class="st1" d="M480.2,129.4c0,2-1.6,3.6-3.6,3.6l0,0c-2,0-3.6-1.6-3.6-3.6v-5.8c0-2,1.6-3.6,3.6-3.6l0,0
			c2,0,3.6,1.6,3.6,3.6V129.4z"/>
		<path class="st12" d="M473.5,80.8c-3.2-2.1-10.3-3.6-18.6-3.6c-8.3,0-15.4,1.4-18.6,3.5c-5.4,3.1-7.9,13.2-7.9,23.3v19.5h9.6V104
			c0-6.6,2.1-10.7,3.5-12.8v36h26.6V91.8c1.5,2.2,3.6,6.2,3.6,12.2v19.5h9.6V104C481.3,94,478.9,84,473.5,80.8z"/>
		<rect x="453.2" y="80.3" class="st17" width="3.8" height="44.3"/>
		<path class="st3" d="M466.5,62.8c0,6.4-5.1,11.7-11.4,11.7c-6.3,0-11.4-5.2-11.4-11.7c0-6.4,5.1-11.7,11.4-11.7
			C461.4,51.1,466.5,56.3,466.5,62.8z"/>
		<path class="st4" d="M445.6,59.5c1.2-1.3,2.6-2.3,3.9-3.5c0.9-0.8,2.4-1,3.3,0c2,2.2,5.6,4.1,8.4,2.4c1.1-0.7,2.5-0.2,3.2,0.8
			c0.3,0.5,1.1,0.9,1.8,1.3c-1-5.4-5.6-9.5-11.2-9.5c-6.1,0-11.1,5-11.3,11.2C444.5,61.4,444.9,60.3,445.6,59.5z"/>
		<path class="st3" d="M467.9,63.1c0,1.7-0.5,3.1-1.2,3.1c-0.7,0-1.2-1.4-1.2-3.1c0-1.7,0.5-3.1,1.2-3.1
			C467.3,60.1,467.9,61.4,467.9,63.1z"/>
		<path class="st3" d="M445,63.1c0,1.7-0.5,3.1-1.2,3.1c-0.7,0-1.2-1.4-1.2-3.1c0-1.7,0.5-3.1,1.2-3.1C444.5,60.1,445,61.4,445,63.1
			z"/>
		<g>
			<g>
				<g>
					<path class="st12" d="M467.5,56c0-0.1,0-0.2-0.1-0.3c-0.2-0.7-0.7-2.6-0.7-3.3c0-5.5-5.1-10-11.5-10c-6.4,0-11.5,4.5-11.5,10
						c0,0.6-0.6,2.5-1,3.6H467.5z"/>
				</g>
				<g>
					<path class="st17" d="M465.7,56.3c0,0.5-0.4,1-1,1h-19.8c-0.5,0-1-0.4-1-1l0,0c0-0.5,0.4-1,1-1h19.8
						C465.3,55.3,465.7,55.8,465.7,56.3L465.7,56.3z"/>
				</g>
			</g>
		</g>
		<path class="st14" d="M468.4,127.3l-0.2-0.7h-26.6v2.4c-6.3,15.7-7.1,45.6-6.8,55.5l12-0.3c-0.4-14.5,2.5-36.5,7-47.5h3.9
			c4.3,11.2,6.7,33.1,6.3,47.5l12,0.3C476.2,174.2,475.4,142.4,468.4,127.3z"/>
		<path class="st6" d="M448.3,187.7c0.1-0.4,0.2-0.8,0.2-1.3c0-2.3-1.9-4.2-4.2-4.2h-7.2c-2.3,0-4.2,1.9-4.2,4.2
			c0,0.4,0.1,0.9,0.2,1.3H448.3z"/>
		<path class="st6" d="M477.8,187.7c0.1-0.4,0.2-0.8,0.2-1.3c0-2.3-1.9-4.2-4.2-4.2h-7.2c-2.3,0-4.2,1.9-4.2,4.2
			c0,0.4,0.1,0.9,0.2,1.3H477.8z"/>
		<rect x="440.9" y="126.5" class="st18" width="28.5" height="2.6"/>
		<g>
			<g>
				<path class="st19" d="M456,88.6c0,0.5-0.4,1-1,1c-0.5,0-1-0.4-1-1c0-0.5,0.4-1,1-1C455.5,87.6,456,88,456,88.6z"/>
				<path class="st19" d="M456,95.6c0,0.5-0.4,1-1,1c-0.5,0-1-0.4-1-1c0-0.5,0.4-1,1-1C455.5,94.7,456,95.1,456,95.6z"/>
				<path class="st19" d="M456,102.7c0,0.5-0.4,1-1,1c-0.5,0-1-0.4-1-1c0-0.5,0.4-1,1-1C455.5,101.7,456,102.1,456,102.7z"/>
				<path class="st19" d="M456,109.7c0,0.5-0.4,1-1,1c-0.5,0-1-0.4-1-1c0-0.5,0.4-1,1-1C455.5,108.7,456,109.2,456,109.7z"/>
				<path class="st19" d="M456,116.8c0,0.5-0.4,1-1,1c-0.5,0-1-0.4-1-1c0-0.5,0.4-1,1-1C455.5,115.8,456,116.2,456,116.8z"/>
			</g>
		</g>
		<path class="st1" d="M450,77.4c0,0.1,0,0.3,0,0.4c0,2,2.2,3.6,4.8,3.6c2.7,0,4.8-2,4.8-4c0,0-2.4-0.2-4.8-0.2
			C452.5,77.2,450,77.4,450,77.4z"/>
		<path class="st18" d="M443.6,94.2v3.6c0,1.4,1.1,2.5,2.5,2.5h2.5c1.4,0,2.5-1.1,2.5-2.5v-3.6H443.6z"/>
		<path class="st18" d="M458.6,94.2v3.6c0,1.4,1.1,2.5,2.5,2.5h2.5c1.4,0,2.5-1.1,2.5-2.5v-3.6H458.6z"/>
	</g>
	<g class="st11">
		<path class="st1" d="M480.2,129.4c0,2-1.6,3.6-3.6,3.6l0,0c-2,0-3.6-1.6-3.6-3.6v-5.8c0-2,1.6-3.6,3.6-3.6l0,0
			c2,0,3.6,1.6,3.6,3.6V129.4z"/>
		<path class="st12" d="M473.5,80.8c-3.2-2.1-10.3-3.5-18.6-3.6v50h13.2V91.8c1.5,2.2,3.6,6.2,3.6,12.2v19.5h9.6V104
			C481.3,94,478.9,84,473.5,80.8z"/>
		<rect x="455" y="80.3" class="st17" width="2.1" height="44.3"/>
		<path class="st3" d="M455.1,51.1c-0.1,0-0.1,0-0.2,0v23.3c0.1,0,0.1,0,0.2,0c6.3,0,11.4-5.2,11.4-11.7
			C466.5,56.3,461.4,51.1,455.1,51.1z"/>
		<path class="st4" d="M455.1,51.1c-0.1,0-0.1,0-0.2,0v6.7c1.9,1.2,4.3,1.8,6.3,0.7c1.1-0.7,2.5-0.2,3.2,0.8
			c0.3,0.5,1.1,0.9,1.8,1.3C465.3,55.2,460.6,51.1,455.1,51.1z"/>
		<path class="st3" d="M467.9,63.1c0,1.7-0.5,3.1-1.2,3.1c-0.7,0-1.2-1.4-1.2-3.1c0-1.7,0.5-3.1,1.2-3.1
			C467.3,60.1,467.9,61.4,467.9,63.1z"/>
		<g>
			<g>
				<g>
					<path class="st12" d="M455,56h12.5c0-0.1,0-0.2-0.1-0.3c-0.2-0.7-0.7-2.6-0.7-3.3c0-5.5-5.1-10-11.5-10c-0.1,0-0.1,0-0.2,0V56z
						"/>
				</g>
				<g>
					<path class="st17" d="M464.8,55.3H455v1.9h9.8c0.5,0,1-0.4,1-1C465.7,55.8,465.3,55.3,464.8,55.3z"/>
				</g>
			</g>
		</g>
		<path class="st14" d="M468.4,127.3l-0.2-0.7H455v10h2.6c4.3,11.2,6.7,33.1,6.3,47.5l12,0.3C476.2,174.2,475.4,142.4,468.4,127.3z"
			/>
		<path class="st6" d="M477.8,187.7c0.1-0.4,0.2-0.8,0.2-1.3c0-2.3-1.9-4.2-4.2-4.2h-7.2c-2.3,0-4.2,1.9-4.2,4.2
			c0,0.4,0.1,0.9,0.2,1.3H477.8z"/>
		<rect x="455" y="126.5" class="st18" width="14.4" height="2.6"/>
		<g>
			<g>
				<path class="st19" d="M455,87.6C455,87.6,455,87.6,455,87.6l-0.1,1.9c0,0,0,0,0.1,0c0.5,0,1-0.4,1-1C456,88,455.5,87.6,455,87.6
					z"/>
				<path class="st19" d="M455,94.7C455,94.7,455,94.7,455,94.7l-0.1,1.9c0,0,0,0,0.1,0c0.5,0,1-0.4,1-1
					C456,95.1,455.5,94.7,455,94.7z"/>
				<path class="st19" d="M455,101.7C455,101.7,455,101.7,455,101.7l-0.1,1.9c0,0,0,0,0.1,0c0.5,0,1-0.4,1-1
					C456,102.1,455.5,101.7,455,101.7z"/>
				<path class="st19" d="M455,108.7C455,108.7,455,108.8,455,108.7l-0.1,1.9c0,0,0,0,0.1,0c0.5,0,1-0.4,1-1
					C456,109.2,455.5,108.7,455,108.7z"/>
				<path class="st19" d="M455,115.8C455,115.8,455,115.8,455,115.8l-0.1,1.9c0,0,0,0,0.1,0c0.5,0,1-0.4,1-1
					C456,116.2,455.5,115.8,455,115.8z"/>
			</g>
		</g>
		<path class="st1" d="M455,77.2v4.2c2.6-0.1,4.7-2,4.7-4C459.7,77.4,457.3,77.3,455,77.2z"/>
		<path class="st18" d="M458.6,94.2v3.6c0,1.4,1.1,2.5,2.5,2.5h2.5c1.4,0,2.5-1.1,2.5-2.5v-3.6H458.6z"/>
	</g>
</g>
<g>
	<g>
		<path class="st1" d="M299.2,124.3c0,2.1-1.7,3.8-3.8,3.8l0,0c-2.1,0-3.8-1.7-3.8-3.8v-6.2c0-2.1,1.7-3.8,3.8-3.8l0,0
			c2.1,0,3.8,1.7,3.8,3.8V124.3z"/>
		<path class="st1" d="M345.8,124.3c0,2.1-1.7,3.8-3.8,3.8l0,0c-2.1,0-3.8-1.7-3.8-3.8v-6.2c0-2.1,1.7-3.8,3.8-3.8l0,0
			c2.1,0,3.8,1.7,3.8,3.8V124.3z"/>
		<path class="st20" d="M338.6,72.4c-3.4-2.2-11-3.8-19.9-3.8c-8.8,0-16.4,1.5-19.8,3.8c-5.8,3.4-8.4,14.1-8.4,24.9V118h10.3V97.2
			c0-7.1,2.3-11.5,3.7-13.7V122h28.4V84.1c1.6,2.4,3.8,6.6,3.8,13.1V118H347V97.2C347,86.5,344.4,75.8,338.6,72.4z"/>
		<path class="st3" d="M331.1,53.1c0,6.9-5.4,12.5-12.1,12.5c-6.7,0-12.1-5.6-12.1-12.5c0-6.9,5.4-12.5,12.1-12.5
			C325.7,40.6,331.1,46.2,331.1,53.1z"/>
		<path class="st4" d="M308.8,49.6c1.2-1.4,2.8-2.4,4.2-3.7c1-0.9,2.6-1,3.5,0c2.1,2.3,6,4.4,9,2.6c1.2-0.7,2.7-0.2,3.4,0.9
			c0.3,0.5,1.1,1,2,1.4c-1.1-5.8-6-10.1-11.9-10.1c-6.5,0-11.9,5.3-12.1,11.9C307.6,51.7,308.1,50.4,308.8,49.6z"/>
		<path class="st3" d="M332.6,53.5c0,1.8-0.6,3.3-1.3,3.3c-0.7,0-1.3-1.5-1.3-3.3c0-1.8,0.6-3.3,1.3-3.3
			C332,50.2,332.6,51.7,332.6,53.5z"/>
		<path class="st3" d="M308.2,53.5c0,1.8-0.6,3.3-1.3,3.3c-0.7,0-1.3-1.5-1.3-3.3c0-1.8,0.6-3.3,1.3-3.3
			C307.6,50.2,308.2,51.7,308.2,53.5z"/>
		<path class="st14" d="M333.1,122.1l-0.2-0.7h-28.5v2.6c-6.8,16.8-7.6,48.7-7.3,59.3l12.8-0.4c-0.4-15.5,2.7-39,7.5-50.8h4.2
			c4.6,11.9,7.2,35.4,6.8,50.8l12.8,0.4C341.5,172.2,340.7,138.2,333.1,122.1z"/>
		<path class="st6" d="M311.7,186.6c0.1-0.4,0.2-0.9,0.2-1.4c0-2.5-2-4.4-4.4-4.4h-7.7c-2.5,0-4.4,2-4.4,4.4c0,0.5,0.1,0.9,0.2,1.4
			H311.7z"/>
		<path class="st6" d="M343.2,186.6c0.1-0.4,0.2-0.9,0.2-1.4c0-2.5-2-4.4-4.4-4.4h-7.7c-2.5,0-4.4,2-4.4,4.4c0,0.5,0.1,0.9,0.2,1.4
			H343.2z"/>
		<path class="st18" d="M341.4,165.3c-0.3-5.6-0.8-11.7-1.5-17.7h-14.8c1,5.7,1.8,11.8,2.2,17.7H341.4z"/>
		<path class="st18" d="M311.2,165.3c0.6-5.9,1.4-12.1,2.5-17.7h-15.2c-0.8,6.1-1.3,12.2-1.5,17.7H311.2z"/>
		<path class="st21" d="M301.3,104.5v-7.3c0-1.9,0.2-3.8,0.5-5.5h-11.6c-0.2,1.9-0.2,3.7-0.2,5.5v7.3H301.3z"/>
		<path class="st21" d="M336.2,104.5h11.3v-7.3c0-1.8-0.1-3.6-0.2-5.5h-11.6c0.4,1.7,0.6,3.6,0.6,5.5V104.5z"/>
		<path class="st8" d="M327.4,69.1c-2.7-0.3-5.6-0.5-8.7-0.5c-2.9,0-5.7,0.2-8.2,0.5v49.3h16.9V69.1z"/>
		<path class="st1" d="M313.5,68.7c0,0.1,0,0.3,0,0.4c0,2.1,2.3,3.8,5.2,3.8c2.9,0,5.2-2.1,5.2-4.2c0,0-2.5-0.2-5.1-0.2
			C316.2,68.6,313.6,68.7,313.5,68.7z"/>
		<rect x="303.8" y="118.5" class="st9" width="30.4" height="5.5"/>
		<g>
			<g>
				<g>
					<path class="st10" d="M322.9,125h-7.5v-7.7h7.5V125z M316.5,124h5.5v-5.6h-5.5V124z"/>
				</g>
				<g>
					<rect x="320.2" y="120.3" class="st10" width="3.4" height="1.7"/>
				</g>
			</g>
		</g>
		<polygon class="st22" points="329.7,118.9 326.2,118.6 323.9,68.3 329.3,68.3 		"/>
		<polygon class="st22" points="307.1,118.7 310.5,118.4 313.3,68.3 307.8,68.3 		"/>
		<g>
			<g>
				<path class="st23" d="M332.3,44.6c0-0.1,0-0.2-0.1-0.3c-0.2-0.7-0.8-2.8-0.8-3.5c0-5.9-5.5-10.6-12.3-10.6
					c-6.8,0-12.3,4.8-12.3,10.6c0,0.7-0.6,2.7-1,3.8H332.3z"/>
				<circle class="st23" cx="319" cy="30.9" r="3.2"/>
				<g>
					<path class="st24" d="M311.9,32.2c1.1-0.7,2.4-1.2,3.7-1.6c0.1,0.2,0.1,0.5,0.1,0.7v8.5c0,1.1-0.9,1.9-1.9,1.9l0,0
						c-1.1,0-1.9-0.9-1.9-1.9V32.2z"/>
					<path class="st24" d="M322.4,30.5c1.3,0.3,2.6,0.8,3.7,1.5v7.9c0,1.1-0.9,1.9-1.9,1.9l0,0c-1.1,0-1.9-0.9-1.9-1.9v-8.5
						C322.2,31.1,322.3,30.8,322.4,30.5z"/>
				</g>
			</g>
			<path class="st24" d="M330.4,45c0,0.6-0.5,1-1,1h-21.2c-0.6,0-1-0.5-1-1l0,0c0-0.6,0.5-1,1-1h21.2C330,44,330.4,44.4,330.4,45
				L330.4,45z"/>
		</g>
	</g>
	<g class="st11">
		<path class="st1" d="M345.8,124.3c0,2.1-1.7,3.8-3.8,3.8l0,0c-2.1,0-3.8-1.7-3.8-3.8v-6.2c0-2.1,1.7-3.8,3.8-3.8l0,0
			c2.1,0,3.8,1.7,3.8,3.8V124.3z"/>
		<path class="st20" d="M338.6,72.4c-3.3-2.1-10.4-3.7-18.8-3.8V122h13V84.1c1.6,2.4,3.8,6.6,3.8,13.1V118H347V97.2
			C347,86.5,344.4,75.8,338.6,72.4z"/>
		<path class="st3" d="M319.9,40.6v24.9c6.3-0.5,11.2-5.9,11.2-12.4S326.2,41.1,319.9,40.6z"/>
		<path class="st4" d="M319.9,40.6v7.7c1.8,0.9,3.9,1.2,5.7,0.1c1.2-0.7,2.7-0.2,3.4,0.9c0.3,0.5,1.1,1,2,1.4
			C329.9,45.3,325.4,41.1,319.9,40.6z"/>
		<path class="st3" d="M332.6,53.5c0,1.8-0.6,3.3-1.3,3.3c-0.7,0-1.3-1.5-1.3-3.3c0-1.8,0.6-3.3,1.3-3.3
			C332,50.2,332.6,51.7,332.6,53.5z"/>
		<path class="st14" d="M333.1,122.1l-0.2-0.7h-13.1V132h1.8c4.6,11.9,7.2,35.4,6.8,50.8l12.8,0.4
			C341.5,172.2,340.7,138.2,333.1,122.1z"/>
		<path class="st6" d="M343.2,186.6c0.1-0.4,0.2-0.9,0.2-1.4c0-2.5-2-4.4-4.4-4.4h-7.7c-2.5,0-4.4,2-4.4,4.4c0,0.5,0.1,0.9,0.2,1.4
			H343.2z"/>
		<path class="st18" d="M341.4,165.3c-0.3-5.6-0.8-11.7-1.5-17.7h-14.8c1,5.7,1.8,11.8,2.2,17.7H341.4z"/>
		<path class="st21" d="M336.2,104.5h11.3v-7.3c0-1.8-0.1-3.6-0.2-5.5h-11.6c0.4,1.7,0.6,3.6,0.6,5.5V104.5z"/>
		<path class="st8" d="M319.9,68.6v49.8h7.6V69.1C325.1,68.8,322.6,68.6,319.9,68.6z"/>
		<path class="st1" d="M319.9,68.6v4.3c2.3-0.5,4-2.3,4-4.1C323.9,68.8,322,68.6,319.9,68.6z"/>
		<rect x="319.9" y="118.5" class="st9" width="14.3" height="5.5"/>
		<g>
			<g>
				<g>
					<polygon class="st10" points="319.9,117.3 319.9,118.4 321.9,118.4 321.9,124 319.9,124 319.9,125 322.9,125 322.9,117.3 					
						"/>
				</g>
				<g>
					<rect x="320.2" y="120.3" class="st10" width="3.4" height="1.7"/>
				</g>
			</g>
		</g>
		<polygon class="st22" points="329.7,118.9 326.2,118.6 323.9,68.3 329.3,68.3 		"/>
		<g>
			<g>
				<path class="st23" d="M319.9,44.6h12.4c0-0.1,0-0.2-0.1-0.3c-0.2-0.7-0.8-2.8-0.8-3.5c0-5.7-5.1-10.3-11.6-10.6V44.6z"/>
				<path class="st23" d="M319.9,27.8v6.1c1.3-0.4,2.3-1.6,2.3-3C322.1,29.4,321.2,28.2,319.9,27.8z"/>
				<g>
					<path class="st24" d="M322.4,30.5c1.3,0.3,2.6,0.8,3.7,1.5v7.9c0,1.1-0.9,1.9-1.9,1.9l0,0c-1.1,0-1.9-0.9-1.9-1.9v-8.5
						C322.2,31.1,322.3,30.8,322.4,30.5z"/>
				</g>
			</g>
			<path class="st24" d="M329.4,44h-9.5V46h9.5c0.6,0,1-0.5,1-1C330.4,44.4,330,44,329.4,44z"/>
		</g>
	</g>
</g>
</svg>
