<?xml version="1.0" encoding="utf-8"?>
<!-- Generator: Adobe Illustrator 23.0.1, SVG Export Plug-In . SVG Version: 6.00 Build 0)  -->
<svg version="1.1" id="Layer_1" xmlns="http://www.w3.org/2000/svg" xmlns:xlink="http://www.w3.org/1999/xlink" x="0px" y="0px"
	 viewBox="0 0 500 200" style="enable-background:new 0 0 500 200;" xml:space="preserve">
<style type="text/css">
	.st0{fill-rule:evenodd;clip-rule:evenodd;fill:#8B8A8B;}
	.st1{fill:#FFEAC7;}
	.st2{fill-rule:evenodd;clip-rule:evenodd;fill:#B3B4B6;}
	.st3{fill-rule:evenodd;clip-rule:evenodd;fill:#FFEAC7;}
	.st4{fill-rule:evenodd;clip-rule:evenodd;fill:#7E6055;}
	.st5{fill:#A5A6A8;}
	.st6{fill:#524C40;}
	.st7{fill:#8B8A8B;}
	.st8{fill-rule:evenodd;clip-rule:evenodd;fill:#F4F5F4;}
	.st9{fill:#573B3F;}
	.st10{fill:#E0B18D;}
	.st11{opacity:0.5;}
	.st12{fill-rule:evenodd;clip-rule:evenodd;fill:#0988A1;}
	.st13{fill-rule:evenodd;clip-rule:evenodd;fill:#106E82;}
	.st14{fill:#0988A1;}
	.st15{fill:#CADB2B;}
	.st16{fill:#F5A61C;}
	.st17{fill-rule:evenodd;clip-rule:evenodd;fill:#F5CD7E;}
	.st18{fill-rule:evenodd;clip-rule:evenodd;fill:#E4B559;}
	.st19{fill:none;stroke:#573B3F;stroke-width:0.8647;stroke-miterlimit:10;}
	.st20{fill:#CFCFCE;}
	.st21{fill-rule:evenodd;clip-rule:evenodd;fill:#0E778E;}
	.st22{fill:#0E778E;}
	.st23{fill:#1D1D1B;}
	.st24{fill-rule:evenodd;clip-rule:evenodd;fill:#F7933D;}
	.st25{fill-rule:evenodd;clip-rule:evenodd;fill:#BA722F;}
	.st26{fill:#BA722F;}
</style>
<g>
	<g>
		<path class="st0" d="M141.7,44.9c0.8,0,1.5-0.7,1.5-1.5c0-0.8-0.7-1.5-1.5-1.5c-0.8,0-1.5,0.7-1.5,1.5
			C140.2,44.2,140.9,44.9,141.7,44.9z"/>
		<path class="st1" d="M122.7,130.1c0,2-1.6,3.6-3.6,3.6l0,0c-2,0-3.6-1.6-3.6-3.6v-5.8c0-2,1.6-3.6,3.6-3.6l0,0
			c2,0,3.6,1.6,3.6,3.6V130.1z"/>
		<path class="st1" d="M166.3,130.1c0,2-1.6,3.6-3.6,3.6l0,0c-2,0-3.6-1.6-3.6-3.6v-5.8c0-2,1.6-3.6,3.6-3.6l0,0
			c2,0,3.6,1.6,3.6,3.6V130.1z"/>
		<path class="st2" d="M159.7,81.5c-3.2-2.1-10.3-3.6-18.6-3.6c-8.3,0-15.4,1.4-18.6,3.5c-5.4,3.1-7.9,13.2-7.9,23.3v19.5h9.6v-19.5
			c0-6.6,2.1-10.7,3.5-12.8v36h26.6V92.5c1.5,2.2,3.6,6.2,3.6,12.2v19.5h9.6v-19.5C167.5,94.7,165,84.7,159.7,81.5z"/>
		<ellipse class="st3" cx="141.3" cy="63.5" rx="11.4" ry="11.7"/>
		<path class="st4" d="M131.8,60.2c1.2-1.3,2.6-2.3,3.9-3.5c0.9-0.8,2.4-1,3.3,0c2,2.2,5.6,4.1,8.4,2.4c1.1-0.7,2.5-0.2,3.2,0.8
			c0.3,0.5,1.1,0.9,1.8,1.3c-1-5.4-5.6-9.5-11.2-9.5c-6.1,0-11.1,5-11.3,11.2C130.7,62.1,131.1,61,131.8,60.2z"/>
		<path class="st3" d="M154,63.8c0,1.7-0.5,3.1-1.2,3.1c-0.7,0-1.2-1.4-1.2-3.1s0.5-3.1,1.2-3.1C153.5,60.8,154,62.1,154,63.8z"/>
		<path class="st3" d="M131.2,63.8c0,1.7-0.5,3.1-1.2,3.1s-1.2-1.4-1.2-3.1s0.5-3.1,1.2-3.1S131.2,62.1,131.2,63.8z"/>
		<path class="st2" d="M153.7,56.7c0-0.1,0-0.2-0.1-0.3c-0.2-0.7-0.7-2.6-0.7-3.3c0-5.5-5.1-10-11.5-10c-6.4,0-11.5,4.5-11.5,10
			c0,0.6-0.6,2.5-1,3.6H153.7z"/>
		<path class="st0" d="M155.4,56.7c0,0.7-0.6,1.2-1.2,1.2h-25.4c-0.7,0-1.2-0.6-1.2-1.2l0,0c0-0.7,0.6-1.2,1.2-1.2h25.4
			C154.8,55.5,155.4,56,155.4,56.7L155.4,56.7z"/>
		<path class="st5" d="M154.5,128l-0.2-0.7h-26.6v2.4c-6.3,15.7-7.1,45.6-6.8,55.5l12-0.3c-0.4-14.5,2.5-36.5,7-47.5h3.9
			c4.3,11.2,6.7,33.1,6.3,47.5l12,0.3C162.4,174.9,161.6,143.1,154.5,128z"/>
		<path class="st6" d="M134.5,188.4c0.1-0.4,0.2-0.8,0.2-1.3c0-2.3-1.9-4.2-4.2-4.2h-7.2c-2.3,0-4.2,1.9-4.2,4.2
			c0,0.4,0.1,0.9,0.2,1.3H134.5z"/>
		<path class="st6" d="M163.9,188.4c0.1-0.4,0.2-0.8,0.2-1.3c0-2.3-1.9-4.2-4.2-4.2h-7.2c-2.3,0-4.2,1.9-4.2,4.2
			c0,0.4,0.1,0.9,0.2,1.3H163.9z"/>
		<path class="st7" d="M162.3,168.4c-0.3-5.2-0.7-10.9-1.4-16.6H147c0.9,5.3,1.6,11,2.1,16.6H162.3z"/>
		<path class="st7" d="M134,168.4c0.5-5.6,1.3-11.3,2.3-16.6h-14.2c-0.7,5.7-1.2,11.4-1.4,16.6H134z"/>
		<path class="st0" d="M124.7,111.6v-6.9c0-1.8,0.2-3.5,0.5-5.1h-10.8c-0.2,1.7-0.2,3.5-0.2,5.1v6.9H124.7z"/>
		<path class="st0" d="M157.4,111.6H168v-6.9c0-1.7-0.1-3.4-0.2-5.1h-10.9c0.4,1.6,0.6,3.3,0.6,5.1V111.6z"/>
		<path class="st8" d="M149.2,78.4c-2.5-0.3-5.2-0.5-8.1-0.5c-2.7,0-5.3,0.2-7.7,0.4v46.2h15.8V78.4z"/>
		<path class="st1" d="M136.1,78.1c0,0.1,0,0.3,0,0.4c0,2,2.2,3.6,4.8,3.6c2.7,0,4.8-2,4.8-4c0,0-2.4-0.2-4.8-0.2
			C138.7,77.9,136.2,78.1,136.1,78.1z"/>
		<rect x="127" y="124.7" class="st9" width="28.5" height="5.1"/>
		<g>
			<g>
				<g>
					<path class="st10" d="M145,130.8h-7v-7.2h7V130.8z M138.9,129.8h5.1v-5.3h-5.1V129.8z"/>
				</g>
				<g>
					<rect x="142.4" y="126.4" class="st10" width="3.2" height="1.6"/>
				</g>
			</g>
		</g>
		<polygon class="st7" points="151.3,125.1 148.1,124.7 145.8,77.7 151,77.7 		"/>
		<polygon class="st7" points="130.2,124.9 133.4,124.6 135.9,77.7 130.8,77.7 		"/>
	</g>
	<g class="st11">
		<path class="st0" d="M141.7,42c-0.3,0-0.6,0.1-0.8,0.2v2.4c0.2,0.1,0.5,0.2,0.8,0.2c0.8,0,1.5-0.7,1.5-1.5
			C143.1,42.6,142.5,42,141.7,42z"/>
		<path class="st1" d="M166.3,130.1c0,2-1.6,3.6-3.6,3.6l0,0c-2,0-3.6-1.6-3.6-3.6v-5.8c0-2,1.6-3.6,3.6-3.6l0,0
			c2,0,3.6,1.6,3.6,3.6V130.1z"/>
		<path class="st2" d="M159.7,81.5c-3.2-2.1-10.3-3.6-18.6-3.6c-0.1,0-0.1,0-0.2,0v50h13.4V92.5c1.5,2.2,3.6,6.2,3.6,12.2v19.5h9.6
			v-19.5C167.5,94.7,165,84.7,159.7,81.5z"/>
		<path class="st3" d="M141.3,51.8c-0.1,0-0.3,0-0.4,0v23.3c0.1,0,0.3,0,0.4,0c6.3,0,11.4-5.2,11.4-11.7S147.6,51.8,141.3,51.8z"/>
		<path class="st4" d="M141.3,51.8c-0.1,0-0.3,0-0.4,0v6.5c2,1.3,4.5,2.1,6.5,0.8c1.1-0.7,2.5-0.2,3.2,0.8c0.3,0.5,1.1,0.9,1.8,1.3
			C151.4,55.9,146.8,51.8,141.3,51.8z"/>
		<path class="st3" d="M154,63.8c0,1.7-0.5,3.1-1.2,3.1c-0.7,0-1.2-1.4-1.2-3.1s0.5-3.1,1.2-3.1C153.5,60.8,154,62.1,154,63.8z"/>
		<path class="st2" d="M140.9,56.7h12.8c0-0.1,0-0.2-0.1-0.3c-0.2-0.7-0.7-2.6-0.7-3.3c0-5.5-5.1-10-11.5-10c-0.2,0-0.3,0-0.5,0
			V56.7z"/>
		<path class="st0" d="M154.2,55.5h-13.3V58h13.3c0.7,0,1.2-0.6,1.2-1.2C155.4,56,154.8,55.5,154.2,55.5z"/>
		<path class="st5" d="M154.5,128l-0.2-0.7h-13.5v10h2.9c4.3,11.2,6.7,33.1,6.3,47.5l12,0.3C162.4,174.9,161.6,143.1,154.5,128z"/>
		<path class="st6" d="M163.9,188.4c0.1-0.4,0.2-0.8,0.2-1.3c0-2.3-1.9-4.2-4.2-4.2h-7.2c-2.3,0-4.2,1.9-4.2,4.2
			c0,0.4,0.1,0.9,0.2,1.3H163.9z"/>
		<path class="st7" d="M162.3,168.4c-0.3-5.2-0.7-10.9-1.4-16.6H147c0.9,5.3,1.6,11,2.1,16.6H162.3z"/>
		<path class="st0" d="M157.4,111.6H168v-6.9c0-1.7-0.1-3.4-0.2-5.1h-10.9c0.4,1.6,0.6,3.3,0.6,5.1V111.6z"/>
		<path class="st8" d="M141.1,77.9c-0.1,0-0.1,0-0.2,0v46.6h8.3V78.4C146.7,78.1,144,77.9,141.1,77.9z"/>
		<path class="st1" d="M141.1,77.9c-0.1,0-0.1,0-0.2,0v4.2c0,0,0.1,0,0.1,0c2.7,0,4.8-2,4.8-4C145.8,78.1,143.5,77.9,141.1,77.9z"/>
		<rect x="140.9" y="124.7" class="st9" width="14.6" height="5.1"/>
		<g>
			<g>
				<g>
					<polygon class="st10" points="140.9,123.6 140.9,124.5 144,124.5 144,129.8 140.9,129.8 140.9,130.8 145,130.8 145,123.6 					
						"/>
				</g>
				<g>
					<rect x="142.4" y="126.4" class="st10" width="3.2" height="1.6"/>
				</g>
			</g>
		</g>
		<polygon class="st7" points="151.3,125.1 148.1,124.7 145.8,77.7 151,77.7 		"/>
	</g>
</g>
<g>
	<g>
		<path class="st1" d="M226.1,126.3c0,2.1-1.7,3.8-3.8,3.8l0,0c-2.1,0-3.8-1.7-3.8-3.8v-6.2c0-2.1,1.7-3.8,3.8-3.8l0,0
			c2.1,0,3.8,1.7,3.8,3.8V126.3z"/>
		<path class="st1" d="M272.7,126.3c0,2.1-1.7,3.8-3.8,3.8l0,0c-2.1,0-3.8-1.7-3.8-3.8v-6.2c0-2.1,1.7-3.8,3.8-3.8l0,0
			c2.1,0,3.8,1.7,3.8,3.8V126.3z"/>
		<path class="st8" d="M265.6,74.3c-3.4-2.2-11-3.8-19.9-3.8c-8.8,0-16.4,1.5-19.8,3.8c-5.8,3.4-8.4,14.1-8.4,24.9V120h10.3V99.2
			c0-7.1,2.3-11.5,3.7-13.7V124h28.4V86.1c1.6,2.4,3.8,6.6,3.8,13.1V120h10.3V99.2C273.9,88.5,271.3,77.7,265.6,74.3z"/>
		<ellipse class="st3" cx="245.9" cy="55.1" rx="12.1" ry="12.5"/>
		<path class="st4" d="M235.8,51.6c1.2-1.4,2.8-2.4,4.2-3.7c1-0.9,2.6-1,3.5,0c2.1,2.3,6,4.4,9,2.6c1.2-0.7,2.7-0.2,3.4,0.9
			c0.3,0.5,1.1,1,2,1.4c-1.1-5.8-6-10.1-11.9-10.1c-6.5,0-11.9,5.3-12.1,11.9C234.6,53.7,235,52.4,235.8,51.6z"/>
		<path class="st3" d="M259.5,55.5c0,1.8-0.6,3.3-1.3,3.3c-0.7,0-1.3-1.5-1.3-3.3s0.6-3.3,1.3-3.3C259,52.2,259.5,53.7,259.5,55.5z"
			/>
		<path class="st3" d="M235.1,55.5c0,1.8-0.6,3.3-1.3,3.3c-0.7,0-1.3-1.5-1.3-3.3s0.6-3.3,1.3-3.3C234.5,52.2,235.1,53.7,235.1,55.5
			z"/>
		<g>
			<g>
				<path class="st12" d="M259.1,47.8c0-0.1,0-0.2-0.1-0.3c-0.2-0.7-0.8-2.8-0.8-3.5c0-5.9-5.5-10.6-12.3-10.6
					c-6.8,0-12.3,4.8-12.3,10.6c0,0.7-0.6,2.7-1,3.8H259.1z"/>
				<circle class="st12" cx="245.8" cy="34" r="3.2"/>
				<g>
					<g>
						<path class="st13" d="M238.7,35.4c1.1-0.7,2.4-1.2,3.7-1.6c0.1,0.2,0.1,0.5,0.1,0.7v8.5c0,1.1-0.9,1.9-1.9,1.9l0,0
							c-1.1,0-1.9-0.9-1.9-1.9V35.4z"/>
						<path class="st13" d="M249.2,33.7c1.3,0.3,2.6,0.8,3.7,1.5v7.9c0,1.1-0.9,1.9-1.9,1.9l0,0c-1.1,0-1.9-0.9-1.9-1.9v-8.5
							C249,34.2,249.1,34,249.2,33.7z"/>
					</g>
				</g>
			</g>
			<path class="st13" d="M257.2,48.2c0,0.6-0.5,1-1,1H235c-0.6,0-1-0.5-1-1l0,0c0-0.6,0.5-1,1-1h21.2
				C256.8,47.2,257.2,47.6,257.2,48.2L257.2,48.2z"/>
		</g>
		<path class="st14" d="M260.1,124l-0.2-0.7h-28.5v2.6c-6.8,16.8-7.6,48.7-7.3,59.3l12.8-0.4c-0.4-15.5,2.7-39,7.5-50.8h4.2
			c4.6,11.9,7.2,35.4,6.8,50.8l12.8,0.4C268.4,174.2,267.6,140.2,260.1,124z"/>
		<path class="st6" d="M238.7,188.6c0.1-0.4,0.2-0.9,0.2-1.4c0-2.5-2-4.4-4.4-4.4h-7.7c-2.5,0-4.4,2-4.4,4.4c0,0.5,0.1,0.9,0.2,1.4
			H238.7z"/>
		<path class="st6" d="M270.1,188.6c0.1-0.4,0.2-0.9,0.2-1.4c0-2.5-2-4.4-4.4-4.4h-7.7c-2.5,0-4.4,2-4.4,4.4c0,0.5,0.1,0.9,0.2,1.4
			H270.1z"/>
		<path class="st1" d="M240.4,70.7c0,0.1,0,0.3,0,0.4c0,2.1,2.3,3.8,5.2,3.8c2.9,0,5.2-2.1,5.2-4.2c0,0-2.5-0.2-5.1-0.2
			C243.1,70.5,240.5,70.7,240.4,70.7z"/>
		<rect x="230.7" y="120.5" class="st9" width="30.4" height="5.5"/>
		<path class="st10" d="M250.5,122.3h-0.6v-3h-7.5v7.7h7.5v-3h0.6V122.3z M248.8,126h-5.5v-5.6h5.5v2h-1.7v1.7h1.7V126z"/>
		<path class="st15" d="M235.6,82.8v-1.1c0-0.3,0-0.5,0-0.8c0-0.3,0-0.5,0-0.8v-9l-2.8,0.4l-0.4,16.7l-1.2,0.2l-0.6,32l10.2,0.2
			l0-31.1C235.7,89.5,235.6,82.8,235.6,82.8z"/>
		<path class="st15" d="M259.8,88.5l-1.2-0.2l-0.4-16.7l-2.8-0.4v11.7c0,0,0,6.9-4.5,7.1l0,30.8l9.5-0.2L259.8,88.5z"/>
		<rect x="230.7" y="109.5" class="st16" width="10.2" height="1"/>
		<rect x="230.7" y="112.8" class="st16" width="10.2" height="1"/>
		<rect x="251" y="109.5" class="st16" width="9.4" height="1"/>
		<rect x="251" y="112.8" class="st16" width="9.4" height="1"/>
	</g>
	<g class="st11">
		<path class="st1" d="M272.7,126.3c0,2.1-1.7,3.8-3.8,3.8l0,0c-2.1,0-3.8-1.7-3.8-3.8v-6.2c0-2.1,1.7-3.8,3.8-3.8l0,0
			c2.1,0,3.8,1.7,3.8,3.8V126.3z"/>
		<path class="st8" d="M265.6,74.3c-3.4-2.2-11-3.8-19.9-3.8c-0.1,0-0.2,0-0.3,0V124h14.5V86.1c1.6,2.4,3.8,6.6,3.8,13.1V120h10.3
			V99.2C273.9,88.5,271.3,77.7,265.6,74.3z"/>
		<path class="st3" d="M245.9,42.6c-0.2,0-0.4,0-0.5,0v24.9c0.2,0,0.4,0,0.5,0c6.7,0,12.1-5.6,12.1-12.5S252.6,42.6,245.9,42.6z"/>
		<path class="st4" d="M245.9,42.6c-0.2,0-0.4,0-0.5,0v6.9c2.1,1.5,4.9,2.3,7.1,0.9c1.2-0.7,2.7-0.2,3.4,0.9c0.3,0.5,1.1,1,2,1.4
			C256.8,46.9,251.8,42.6,245.9,42.6z"/>
		<path class="st3" d="M259.5,55.5c0,1.8-0.6,3.3-1.3,3.3c-0.7,0-1.3-1.5-1.3-3.3s0.6-3.3,1.3-3.3C259,52.2,259.5,53.7,259.5,55.5z"
			/>
		<g>
			<g>
				<path class="st12" d="M245.4,47.8h13.8c0-0.1,0-0.2-0.1-0.3c-0.2-0.7-0.8-2.8-0.8-3.5c0-5.9-5.5-10.6-12.3-10.6
					c-0.2,0-0.4,0-0.6,0V47.8z"/>
				<path class="st12" d="M245.8,30.9c-0.1,0-0.3,0-0.4,0v6.3c0.1,0,0.3,0,0.4,0c1.7,0,3.2-1.4,3.2-3.2
					C249,32.3,247.5,30.9,245.8,30.9z"/>
				<g>
					<g>
						<path class="st13" d="M249.2,33.7c1.3,0.3,2.6,0.8,3.7,1.5v7.9c0,1.1-0.9,1.9-1.9,1.9l0,0c-1.1,0-1.9-0.9-1.9-1.9v-8.5
							C249,34.2,249.1,34,249.2,33.7z"/>
					</g>
				</g>
			</g>
			<path class="st13" d="M256.2,47.2h-10.8v2.1h10.8c0.6,0,1-0.5,1-1C257.2,47.6,256.8,47.2,256.2,47.2z"/>
		</g>
		<path class="st14" d="M260.1,124l-0.2-0.7h-14.5V134h3.2c4.6,11.9,7.2,35.4,6.8,50.8l12.8,0.4C268.4,174.2,267.6,140.2,260.1,124z
			"/>
		<path class="st6" d="M270.1,188.6c0.1-0.4,0.2-0.9,0.2-1.4c0-2.5-2-4.4-4.4-4.4h-7.7c-2.5,0-4.4,2-4.4,4.4c0,0.5,0.1,0.9,0.2,1.4
			H270.1z"/>
		<path class="st1" d="M245.7,70.6c-0.1,0-0.2,0-0.3,0V75c0.1,0,0.2,0,0.2,0c2.9,0,5.2-2.1,5.2-4.2
			C250.8,70.8,248.2,70.6,245.7,70.6z"/>
		<rect x="245.4" y="120.5" class="st9" width="15.7" height="5.5"/>
		<polygon class="st10" points="249.9,122.3 249.9,119.3 245.4,119.3 245.4,120.3 248.8,120.3 248.8,122.3 247.1,122.3 247.1,124 
			248.8,124 248.8,126 245.4,126 245.4,127 249.9,127 249.9,124 250.5,124 250.5,122.3 		"/>
		<path class="st15" d="M259.8,88.5l-1.2-0.2l-0.4-16.7l-2.8-0.4v11.7c0,0,0,6.9-4.5,7.1l0,30.8l9.5-0.2L259.8,88.5z"/>
		<rect x="251" y="109.5" class="st16" width="9.4" height="1"/>
		<rect x="251" y="112.8" class="st16" width="9.4" height="1"/>
	</g>
</g>
<g>
	<g>
		<path class="st1" d="M19.9,136.2c0,1.8-1.5,3.2-3.2,3.2l0,0c-1.8,0-3.2-1.5-3.2-3.2V131c0-1.8,1.5-3.2,3.2-3.2l0,0
			c1.8,0,3.2,1.5,3.2,3.2V136.2z"/>
		<path class="st1" d="M59.2,136.2c0,1.8-1.5,3.2-3.2,3.2l0,0c-1.8,0-3.2-1.5-3.2-3.2V131c0-1.8,1.5-3.2,3.2-3.2l0,0
			c1.8,0,3.2,1.5,3.2,3.2V136.2z"/>
		<path class="st8" d="M53.2,92.4c-2.9-1.9-9.3-3.2-16.8-3.2c-7.4,0-13.8,1.3-16.7,3.2c-4.9,2.8-7.1,11.9-7.1,21v17.5h8.6v-17.5
			c0-5.9,1.9-9.7,3.1-11.5v32.4h24v-31.9c1.3,2,3.2,5.6,3.2,11v17.5h8.6v-17.5C60.3,104.4,58.1,95.3,53.2,92.4z"/>
		<ellipse class="st3" cx="36.7" cy="76.2" rx="10.2" ry="10.5"/>
		<path class="st4" d="M28.1,73.2c1-1.2,2.4-2.1,3.6-3.1c0.8-0.7,2.2-0.9,3,0c1.8,1.9,5.1,3.7,7.6,2.2c1-0.6,2.3-0.2,2.9,0.8
			c0.3,0.4,1,0.8,1.6,1.2c-0.9-4.9-5.1-8.5-10-8.5c-5.5,0-10,4.5-10.2,10.1C27.1,75,27.5,74,28.1,73.2z"/>
		<path class="st3" d="M48.1,76.5c0,1.5-0.5,2.8-1.1,2.8c-0.6,0-1.1-1.2-1.1-2.8c0-1.5,0.5-2.8,1.1-2.8C47.7,73.8,48.1,75,48.1,76.5
			z"/>
		<path class="st3" d="M27.6,76.5c0,1.5-0.5,2.8-1.1,2.8c-0.6,0-1.1-1.2-1.1-2.8c0-1.5,0.5-2.8,1.1-2.8C27.1,73.8,27.6,75,27.6,76.5
			z"/>
		<g>
			<g>
				<path class="st17" d="M47.8,70.1c0-0.1,0-0.2-0.1-0.3c-0.2-0.6-0.7-2.3-0.7-3c0-5-4.6-9-10.4-9c-5.7,0-10.4,4-10.4,9
					c0,0.6-0.5,2.3-0.9,3.2H47.8z"/>
				<circle class="st17" cx="36.6" cy="58.5" r="2.7"/>
				<g>
					<path class="st18" d="M30.6,59.6c0.9-0.6,2-1.1,3.1-1.3c0.1,0.2,0.1,0.4,0.1,0.6v7.2c0,0.9-0.7,1.6-1.6,1.6l0,0
						c-0.9,0-1.6-0.7-1.6-1.6V59.6z"/>
					<path class="st18" d="M39.4,58.2c1.1,0.3,2.2,0.7,3.1,1.2v6.6c0,0.9-0.7,1.6-1.6,1.6l0,0c-0.9,0-1.6-0.7-1.6-1.6v-7.2
						C39.3,58.6,39.3,58.4,39.4,58.2z"/>
				</g>
			</g>
			<path class="st18" d="M46.2,70.4c0,0.5-0.4,0.9-0.9,0.9H27.5c-0.5,0-0.9-0.4-0.9-0.9l0,0c0-0.5,0.4-0.9,0.9-0.9h17.9
				C45.8,69.5,46.2,69.9,46.2,70.4L46.2,70.4z"/>
		</g>
		<path class="st14" d="M48.6,134.3l-0.2-0.6h-24v2.2c-5.7,14.1-6.4,41-6.1,50l10.8-0.3c-0.4-13.1,2.3-32.9,6.3-42.8h3.5
			c3.9,10.1,6.1,29.8,5.7,42.8l10.8,0.3C55.7,176.6,54.9,147.9,48.6,134.3z"/>
		<path class="st6" d="M30.5,188.7c0.1-0.4,0.2-0.8,0.2-1.2c0-2.1-1.7-3.7-3.7-3.7h-6.5c-2.1,0-3.7,1.7-3.7,3.7
			c0,0.4,0.1,0.8,0.2,1.2H30.5z"/>
		<path class="st6" d="M57.1,188.7c0.1-0.4,0.2-0.8,0.2-1.2c0-2.1-1.7-3.7-3.7-3.7H47c-2.1,0-3.7,1.7-3.7,3.7c0,0.4,0.1,0.8,0.2,1.2
			H57.1z"/>
		<path class="st1" d="M32,89.4c0,0.1,0,0.3,0,0.3c0,1.8,1.9,3.2,4.4,3.2c2.4,0,4.4-1.8,4.4-3.6c0,0-2.1-0.2-4.3-0.2
			C34.3,89.2,32.1,89.4,32,89.4z"/>
		<rect x="23.8" y="131.4" class="st10" width="25.7" height="4.6"/>
		<rect x="34.1" y="130.8" class="st19" width="5.5" height="5.6"/>
		<rect x="38.1" y="133.3" class="st19" width="2" height="0.5"/>
		<path class="st20" d="M38.8,100.2v3.2c0,1.2,1,2.2,2.2,2.2h2.2c1.2,0,2.2-1,2.2-2.2v-3.2H38.8z"/>
	</g>
	<g class="st11">
		<path class="st1" d="M59.2,136.2c0,1.8-1.5,3.2-3.2,3.2l0,0c-1.8,0-3.2-1.5-3.2-3.2V131c0-1.8,1.5-3.2,3.2-3.2l0,0
			c1.8,0,3.2,1.5,3.2,3.2V136.2z"/>
		<path class="st8" d="M53.2,92.4c-2.8-1.9-9.1-3.2-16.4-3.2v45h11.6v-31.9c1.3,2,3.2,5.6,3.2,11v17.5h8.6v-17.5
			C60.3,104.4,58.1,95.3,53.2,92.4z"/>
		<path class="st3" d="M36.8,65.7v21c5.6-0.1,10.1-4.8,10.1-10.5C46.9,70.4,42.4,65.7,36.8,65.7z"/>
		<path class="st4" d="M36.8,65.7v6.2c1.7,1,3.7,1.4,5.4,0.4c1-0.6,2.3-0.2,2.9,0.8c0.3,0.4,1,0.8,1.6,1.2
			C45.8,69.4,41.7,65.7,36.8,65.7z"/>
		<path class="st3" d="M48.1,76.5c0,1.5-0.5,2.8-1.1,2.8c-0.6,0-1.1-1.2-1.1-2.8c0-1.5,0.5-2.8,1.1-2.8C47.7,73.8,48.1,75,48.1,76.5
			z"/>
		<g>
			<g>
				<path class="st17" d="M36.8,70.1h11c0-0.1,0-0.2-0.1-0.3c-0.2-0.6-0.7-2.3-0.7-3c0-4.9-4.6-8.9-10.3-9V70.1z"/>
				<path class="st17" d="M36.8,55.8v5.3c1.4-0.1,2.4-1.3,2.4-2.7C39.2,57.1,38.2,55.9,36.8,55.8z"/>
				<g>
					<path class="st18" d="M39.4,58.2c1.1,0.3,2.2,0.7,3.1,1.2v6.6c0,0.9-0.7,1.6-1.6,1.6l0,0c-0.9,0-1.6-0.7-1.6-1.6v-7.2
						C39.3,58.6,39.3,58.4,39.4,58.2z"/>
				</g>
			</g>
			<path class="st18" d="M45.3,69.5h-8.6v1.7h8.6c0.5,0,0.9-0.4,0.9-0.9S45.8,69.5,45.3,69.5z"/>
		</g>
		<path class="st14" d="M48.6,134.3l-0.2-0.6H36.8v9h2.1c3.9,10.1,6.1,29.8,5.7,42.8l10.8,0.3C55.7,176.6,54.9,147.9,48.6,134.3z"/>
		<path class="st6" d="M57.1,188.7c0.1-0.4,0.2-0.8,0.2-1.2c0-2.1-1.7-3.7-3.7-3.7H47c-2.1,0-3.7,1.7-3.7,3.7c0,0.4,0.1,0.8,0.2,1.2
			H57.1z"/>
		<path class="st1" d="M36.8,89.2V93c2.2-0.2,4-1.9,4-3.6C40.8,89.4,38.8,89.3,36.8,89.2z"/>
		<rect x="36.8" y="131.4" class="st10" width="12.7" height="4.6"/>
		<rect x="36.8" y="130.8" class="st19" width="2.8" height="5.6"/>
		<rect x="38.1" y="133.3" class="st19" width="2" height="0.5"/>
		<path class="st20" d="M38.8,100.2v3.2c0,1.2,1,2.2,2.2,2.2h2.2c1.2,0,2.2-1,2.2-2.2v-3.2H38.8z"/>
	</g>
</g>
<g>
	<g>
		<path class="st1" d="M436.6,129.4c0,2-1.6,3.6-3.6,3.6l0,0c-2,0-3.6-1.6-3.6-3.6v-5.8c0-2,1.6-3.6,3.6-3.6l0,0
			c2,0,3.6,1.6,3.6,3.6V129.4z"/>
		<path class="st1" d="M480.2,129.4c0,2-1.6,3.6-3.6,3.6l0,0c-2,0-3.6-1.6-3.6-3.6v-5.8c0-2,1.6-3.6,3.6-3.6l0,0
			c2,0,3.6,1.6,3.6,3.6V129.4z"/>
		<path class="st12" d="M473.5,80.8c-3.2-2.1-10.3-3.6-18.6-3.6c-8.3,0-15.4,1.4-18.6,3.5c-5.4,3.1-7.9,13.2-7.9,23.3v19.5h9.6V104
			c0-6.6,2.1-10.7,3.5-12.8v36h26.6V91.8c1.5,2.2,3.6,6.2,3.6,12.2v19.5h9.6V104C481.3,94,478.9,84,473.5,80.8z"/>
		<rect x="453.2" y="80.3" class="st21" width="3.8" height="44.3"/>
		<path class="st3" d="M466.5,62.8c0,6.4-5.1,11.7-11.4,11.7c-6.3,0-11.4-5.2-11.4-11.7c0-6.4,5.1-11.7,11.4-11.7
			C461.4,51.1,466.5,56.3,466.5,62.8z"/>
		<path class="st4" d="M445.6,59.5c1.2-1.3,2.6-2.3,3.9-3.5c0.9-0.8,2.4-1,3.3,0c2,2.2,5.6,4.1,8.4,2.4c1.1-0.7,2.5-0.2,3.2,0.8
			c0.3,0.5,1.1,0.9,1.8,1.3c-1-5.4-5.6-9.5-11.2-9.5c-6.1,0-11.1,5-11.3,11.2C444.5,61.4,444.9,60.3,445.6,59.5z"/>
		<path class="st3" d="M467.9,63.1c0,1.7-0.5,3.1-1.2,3.1c-0.7,0-1.2-1.4-1.2-3.1c0-1.7,0.5-3.1,1.2-3.1
			C467.3,60.1,467.9,61.4,467.9,63.1z"/>
		<path class="st3" d="M445,63.1c0,1.7-0.5,3.1-1.2,3.1c-0.7,0-1.2-1.4-1.2-3.1c0-1.7,0.5-3.1,1.2-3.1C444.5,60.1,445,61.4,445,63.1
			z"/>
		<g>
			<g>
				<g>
					<path class="st12" d="M467.5,56c0-0.1,0-0.2-0.1-0.3c-0.2-0.7-0.7-2.6-0.7-3.3c0-5.5-5.1-10-11.5-10c-6.4,0-11.5,4.5-11.5,10
						c0,0.6-0.6,2.5-1,3.6H467.5z"/>
				</g>
				<g>
					<path class="st21" d="M465.7,56.3c0,0.5-0.4,1-1,1h-19.8c-0.5,0-1-0.4-1-1l0,0c0-0.5,0.4-1,1-1h19.8
						C465.3,55.3,465.7,55.8,465.7,56.3L465.7,56.3z"/>
				</g>
			</g>
		</g>
		<path class="st14" d="M468.4,127.3l-0.2-0.7h-26.6v2.4c-6.3,15.7-7.1,45.6-6.8,55.5l12-0.3c-0.4-14.5,2.5-36.5,7-47.5h3.9
			c4.3,11.2,6.7,33.1,6.3,47.5l12,0.3C476.2,174.2,475.4,142.4,468.4,127.3z"/>
		<path class="st6" d="M448.3,187.7c0.1-0.4,0.2-0.8,0.2-1.3c0-2.3-1.9-4.2-4.2-4.2h-7.2c-2.3,0-4.2,1.9-4.2,4.2
			c0,0.4,0.1,0.9,0.2,1.3H448.3z"/>
		<path class="st6" d="M477.8,187.7c0.1-0.4,0.2-0.8,0.2-1.3c0-2.3-1.9-4.2-4.2-4.2h-7.2c-2.3,0-4.2,1.9-4.2,4.2
			c0,0.4,0.1,0.9,0.2,1.3H477.8z"/>
		<rect x="440.9" y="126.5" class="st22" width="28.5" height="2.6"/>
		<g>
			<g>
				<path class="st23" d="M456,88.6c0,0.5-0.4,1-1,1c-0.5,0-1-0.4-1-1c0-0.5,0.4-1,1-1C455.5,87.6,456,88,456,88.6z"/>
				<path class="st23" d="M456,95.6c0,0.5-0.4,1-1,1c-0.5,0-1-0.4-1-1c0-0.5,0.4-1,1-1C455.5,94.7,456,95.1,456,95.6z"/>
				<path class="st23" d="M456,102.7c0,0.5-0.4,1-1,1c-0.5,0-1-0.4-1-1c0-0.5,0.4-1,1-1C455.5,101.7,456,102.1,456,102.7z"/>
				<path class="st23" d="M456,109.7c0,0.5-0.4,1-1,1c-0.5,0-1-0.4-1-1c0-0.5,0.4-1,1-1C455.5,108.7,456,109.2,456,109.7z"/>
				<path class="st23" d="M456,116.8c0,0.5-0.4,1-1,1c-0.5,0-1-0.4-1-1c0-0.5,0.4-1,1-1C455.5,115.8,456,116.2,456,116.8z"/>
			</g>
		</g>
		<path class="st1" d="M450,77.4c0,0.1,0,0.3,0,0.4c0,2,2.2,3.6,4.8,3.6c2.7,0,4.8-2,4.8-4c0,0-2.4-0.2-4.8-0.2
			C452.5,77.2,450,77.4,450,77.4z"/>
		<path class="st22" d="M443.6,94.2v3.6c0,1.4,1.1,2.5,2.5,2.5h2.5c1.4,0,2.5-1.1,2.5-2.5v-3.6H443.6z"/>
		<path class="st22" d="M458.6,94.2v3.6c0,1.4,1.1,2.5,2.5,2.5h2.5c1.4,0,2.5-1.1,2.5-2.5v-3.6H458.6z"/>
	</g>
	<g class="st11">
		<path class="st1" d="M480.2,129.4c0,2-1.6,3.6-3.6,3.6l0,0c-2,0-3.6-1.6-3.6-3.6v-5.8c0-2,1.6-3.6,3.6-3.6l0,0
			c2,0,3.6,1.6,3.6,3.6V129.4z"/>
		<path class="st12" d="M473.5,80.8c-3.2-2.1-10.3-3.5-18.6-3.6v50h13.2V91.8c1.5,2.2,3.6,6.2,3.6,12.2v19.5h9.6V104
			C481.3,94,478.9,84,473.5,80.8z"/>
		<rect x="455" y="80.3" class="st21" width="2.1" height="44.3"/>
		<path class="st3" d="M455.1,51.1c-0.1,0-0.1,0-0.2,0v23.3c0.1,0,0.1,0,0.2,0c6.3,0,11.4-5.2,11.4-11.7
			C466.5,56.3,461.4,51.1,455.1,51.1z"/>
		<path class="st4" d="M455.1,51.1c-0.1,0-0.1,0-0.2,0v6.7c1.9,1.2,4.3,1.8,6.3,0.7c1.1-0.7,2.5-0.2,3.2,0.8
			c0.3,0.5,1.1,0.9,1.8,1.3C465.3,55.2,460.6,51.1,455.1,51.1z"/>
		<path class="st3" d="M467.9,63.1c0,1.7-0.5,3.1-1.2,3.1c-0.7,0-1.2-1.4-1.2-3.1c0-1.7,0.5-3.1,1.2-3.1
			C467.3,60.1,467.9,61.4,467.9,63.1z"/>
		<g>
			<g>
				<g>
					<path class="st12" d="M455,56h12.5c0-0.1,0-0.2-0.1-0.3c-0.2-0.7-0.7-2.6-0.7-3.3c0-5.5-5.1-10-11.5-10c-0.1,0-0.1,0-0.2,0V56z
						"/>
				</g>
				<g>
					<path class="st21" d="M464.8,55.3H455v1.9h9.8c0.5,0,1-0.4,1-1C465.7,55.8,465.3,55.3,464.8,55.3z"/>
				</g>
			</g>
		</g>
		<path class="st14" d="M468.4,127.3l-0.2-0.7H455v10h2.6c4.3,11.2,6.7,33.1,6.3,47.5l12,0.3C476.2,174.2,475.4,142.4,468.4,127.3z"
			/>
		<path class="st6" d="M477.8,187.7c0.1-0.4,0.2-0.8,0.2-1.3c0-2.3-1.9-4.2-4.2-4.2h-7.2c-2.3,0-4.2,1.9-4.2,4.2
			c0,0.4,0.1,0.9,0.2,1.3H477.8z"/>
		<rect x="455" y="126.5" class="st22" width="14.4" height="2.6"/>
		<g>
			<g>
				<path class="st23" d="M455,87.6C455,87.6,455,87.6,455,87.6l-0.1,1.9c0,0,0,0,0.1,0c0.5,0,1-0.4,1-1C456,88,455.5,87.6,455,87.6
					z"/>
				<path class="st23" d="M455,94.7C455,94.7,455,94.7,455,94.7l-0.1,1.9c0,0,0,0,0.1,0c0.5,0,1-0.4,1-1
					C456,95.1,455.5,94.7,455,94.7z"/>
				<path class="st23" d="M455,101.7C455,101.7,455,101.7,455,101.7l-0.1,1.9c0,0,0,0,0.1,0c0.5,0,1-0.4,1-1
					C456,102.1,455.5,101.7,455,101.7z"/>
				<path class="st23" d="M455,108.7C455,108.7,455,108.8,455,108.7l-0.1,1.9c0,0,0,0,0.1,0c0.5,0,1-0.4,1-1
					C456,109.2,455.5,108.7,455,108.7z"/>
				<path class="st23" d="M455,115.8C455,115.8,455,115.8,455,115.8l-0.1,1.9c0,0,0,0,0.1,0c0.5,0,1-0.4,1-1
					C456,116.2,455.5,115.8,455,115.8z"/>
			</g>
		</g>
		<path class="st1" d="M455,77.2v4.2c2.6-0.1,4.7-2,4.7-4C459.7,77.4,457.3,77.3,455,77.2z"/>
		<path class="st22" d="M458.6,94.2v3.6c0,1.4,1.1,2.5,2.5,2.5h2.5c1.4,0,2.5-1.1,2.5-2.5v-3.6H458.6z"/>
	</g>
</g>
<g>
	<g>
		<path class="st1" d="M330.7,124.3c0,2.1-1.7,3.8-3.8,3.8l0,0c-2.1,0-3.8-1.7-3.8-3.8v-6.2c0-2.1,1.7-3.8,3.8-3.8l0,0
			c2.1,0,3.8,1.7,3.8,3.8V124.3z"/>
		<path class="st1" d="M377.3,124.3c0,2.1-1.7,3.8-3.8,3.8l0,0c-2.1,0-3.8-1.7-3.8-3.8v-6.2c0-2.1,1.7-3.8,3.8-3.8l0,0
			c2.1,0,3.8,1.7,3.8,3.8V124.3z"/>
		<path class="st24" d="M370.2,72.4c-3.4-2.2-11-3.8-19.9-3.8c-8.8,0-16.4,1.5-19.8,3.8c-5.8,3.4-8.4,14.1-8.4,24.9V118h10.3V97.2
			c0-7.1,2.3-11.5,3.7-13.7V122h28.4V84.1c1.6,2.4,3.8,6.6,3.8,13.1V118h10.3V97.2C378.5,86.5,375.9,75.8,370.2,72.4z"/>
		<path class="st3" d="M362.7,53.1c0,6.9-5.4,12.5-12.1,12.5c-6.7,0-12.1-5.6-12.1-12.5c0-6.9,5.4-12.5,12.1-12.5
			C357.2,40.6,362.7,46.2,362.7,53.1z"/>
		<path class="st4" d="M340.4,49.6c1.2-1.4,2.8-2.4,4.2-3.7c1-0.9,2.6-1,3.5,0c2.1,2.3,6,4.4,9,2.6c1.2-0.7,2.7-0.2,3.4,0.9
			c0.3,0.5,1.1,1,2,1.4c-1.1-5.8-6-10.1-11.9-10.1c-6.5,0-11.9,5.3-12.1,11.9C339.2,51.7,339.6,50.4,340.4,49.6z"/>
		<path class="st3" d="M364.1,53.5c0,1.8-0.6,3.3-1.3,3.3c-0.7,0-1.3-1.5-1.3-3.3c0-1.8,0.6-3.3,1.3-3.3
			C363.6,50.2,364.1,51.7,364.1,53.5z"/>
		<path class="st3" d="M339.7,53.5c0,1.8-0.6,3.3-1.3,3.3c-0.7,0-1.3-1.5-1.3-3.3c0-1.8,0.6-3.3,1.3-3.3
			C339.1,50.2,339.7,51.7,339.7,53.5z"/>
		<path class="st14" d="M364.7,122.1l-0.2-0.7H336v2.6c-6.8,16.8-7.6,48.7-7.3,59.3l12.8-0.4c-0.4-15.5,2.7-39,7.5-50.8h4.2
			c4.6,11.9,7.2,35.4,6.8,50.8l12.8,0.4C373.1,172.2,372.2,138.2,364.7,122.1z"/>
		<path class="st6" d="M343.3,186.6c0.1-0.4,0.2-0.9,0.2-1.4c0-2.5-2-4.4-4.4-4.4h-7.7c-2.5,0-4.4,2-4.4,4.4c0,0.5,0.1,0.9,0.2,1.4
			H343.3z"/>
		<path class="st6" d="M374.7,186.6c0.1-0.4,0.2-0.9,0.2-1.4c0-2.5-2-4.4-4.4-4.4h-7.7c-2.5,0-4.4,2-4.4,4.4c0,0.5,0.1,0.9,0.2,1.4
			H374.7z"/>
		<path class="st22" d="M372.9,165.3c-0.3-5.6-0.8-11.7-1.5-17.7h-14.8c1,5.7,1.8,11.8,2.2,17.7H372.9z"/>
		<path class="st22" d="M342.8,165.3c0.6-5.9,1.4-12.1,2.5-17.7h-15.2c-0.8,6.1-1.3,12.2-1.5,17.7H342.8z"/>
		<path class="st25" d="M332.8,104.5v-7.3c0-1.9,0.2-3.8,0.5-5.5h-11.6c-0.2,1.9-0.2,3.7-0.2,5.5v7.3H332.8z"/>
		<path class="st25" d="M367.8,104.5H379v-7.3c0-1.8-0.1-3.6-0.2-5.5h-11.6c0.4,1.7,0.6,3.6,0.6,5.5V104.5z"/>
		<path class="st8" d="M359,69.1c-2.7-0.3-5.6-0.5-8.7-0.5c-2.9,0-5.7,0.2-8.2,0.5v49.3H359V69.1z"/>
		<path class="st1" d="M345,68.7c0,0.1,0,0.3,0,0.4c0,2.1,2.3,3.8,5.2,3.8c2.9,0,5.2-2.1,5.2-4.2c0,0-2.5-0.2-5.1-0.2
			C347.7,68.6,345.1,68.7,345,68.7z"/>
		<rect x="335.3" y="118.5" class="st9" width="30.4" height="5.5"/>
		<g>
			<g>
				<g>
					<path class="st10" d="M354.5,125H347v-7.7h7.5V125z M348,124h5.5v-5.6H348V124z"/>
				</g>
				<g>
					<rect x="351.7" y="120.3" class="st10" width="3.4" height="1.7"/>
				</g>
			</g>
		</g>
		<polygon class="st26" points="361.2,118.9 357.8,118.6 355.4,68.3 360.9,68.3 		"/>
		<polygon class="st26" points="338.6,118.7 342.1,118.4 344.8,68.3 339.3,68.3 		"/>
		<g>
			<g>
				<path class="st17" d="M363.8,44.6c0-0.1,0-0.2-0.1-0.3c-0.2-0.7-0.8-2.8-0.8-3.5c0-5.9-5.5-10.6-12.3-10.6
					c-6.8,0-12.3,4.8-12.3,10.6c0,0.7-0.6,2.7-1,3.8H363.8z"/>
				<circle class="st17" cx="350.5" cy="30.9" r="3.2"/>
				<g>
					<path class="st18" d="M343.4,32.2c1.1-0.7,2.4-1.2,3.7-1.6c0.1,0.2,0.1,0.5,0.1,0.7v8.5c0,1.1-0.9,1.9-1.9,1.9l0,0
						c-1.1,0-1.9-0.9-1.9-1.9V32.2z"/>
					<path class="st18" d="M353.9,30.5c1.3,0.3,2.6,0.8,3.7,1.5v7.9c0,1.1-0.9,1.9-1.9,1.9l0,0c-1.1,0-1.9-0.9-1.9-1.9v-8.5
						C353.7,31.1,353.8,30.8,353.9,30.5z"/>
				</g>
			</g>
			<path class="st18" d="M362,45c0,0.6-0.5,1-1,1h-21.2c-0.6,0-1-0.5-1-1l0,0c0-0.6,0.5-1,1-1h21.2C361.5,44,362,44.4,362,45L362,45
				z"/>
		</g>
	</g>
	<g class="st11">
		<path class="st1" d="M377.3,124.3c0,2.1-1.7,3.8-3.8,3.8l0,0c-2.1,0-3.8-1.7-3.8-3.8v-6.2c0-2.1,1.7-3.8,3.8-3.8l0,0
			c2.1,0,3.8,1.7,3.8,3.8V124.3z"/>
		<path class="st24" d="M370.2,72.4c-3.3-2.1-10.4-3.7-18.8-3.8V122h13V84.1c1.6,2.4,3.8,6.6,3.8,13.1V118h10.3V97.2
			C378.5,86.5,375.9,75.8,370.2,72.4z"/>
		<path class="st3" d="M351.4,40.6v24.9c6.3-0.5,11.2-5.9,11.2-12.4S357.7,41.1,351.4,40.6z"/>
		<path class="st4" d="M351.4,40.6v7.7c1.8,0.9,3.9,1.2,5.7,0.1c1.2-0.7,2.7-0.2,3.4,0.9c0.3,0.5,1.1,1,2,1.4
			C361.4,45.3,356.9,41.1,351.4,40.6z"/>
		<path class="st3" d="M364.1,53.5c0,1.8-0.6,3.3-1.3,3.3c-0.7,0-1.3-1.5-1.3-3.3c0-1.8,0.6-3.3,1.3-3.3
			C363.6,50.2,364.1,51.7,364.1,53.5z"/>
		<path class="st14" d="M364.7,122.1l-0.2-0.7h-13.1V132h1.8c4.6,11.9,7.2,35.4,6.8,50.8l12.8,0.4
			C373.1,172.2,372.2,138.2,364.7,122.1z"/>
		<path class="st6" d="M374.7,186.6c0.1-0.4,0.2-0.9,0.2-1.4c0-2.5-2-4.4-4.4-4.4h-7.7c-2.5,0-4.4,2-4.4,4.4c0,0.5,0.1,0.9,0.2,1.4
			H374.7z"/>
		<path class="st22" d="M372.9,165.3c-0.3-5.6-0.8-11.7-1.5-17.7h-14.8c1,5.7,1.8,11.8,2.2,17.7H372.9z"/>
		<path class="st25" d="M367.8,104.5H379v-7.3c0-1.8-0.1-3.6-0.2-5.5h-11.6c0.4,1.7,0.6,3.6,0.6,5.5V104.5z"/>
		<path class="st8" d="M351.4,68.6v49.8h7.6V69.1C356.6,68.8,354.1,68.6,351.4,68.6z"/>
		<path class="st1" d="M351.4,68.6v4.3c2.3-0.5,4-2.3,4-4.1C355.4,68.8,353.5,68.6,351.4,68.6z"/>
		<rect x="351.4" y="118.5" class="st9" width="14.3" height="5.5"/>
		<g>
			<g>
				<g>
					<polygon class="st10" points="351.4,117.3 351.4,118.4 353.4,118.4 353.4,124 351.4,124 351.4,125 354.5,125 354.5,117.3 					
						"/>
				</g>
				<g>
					<rect x="351.7" y="120.3" class="st10" width="3.4" height="1.7"/>
				</g>
			</g>
		</g>
		<polygon class="st26" points="361.2,118.9 357.8,118.6 355.4,68.3 360.9,68.3 		"/>
		<g>
			<g>
				<path class="st17" d="M351.4,44.6h12.4c0-0.1,0-0.2-0.1-0.3c-0.2-0.7-0.8-2.8-0.8-3.5c0-5.7-5.1-10.3-11.6-10.6V44.6z"/>
				<path class="st17" d="M351.4,27.8v6.1c1.3-0.4,2.3-1.6,2.3-3C353.7,29.4,352.7,28.2,351.4,27.8z"/>
				<g>
					<path class="st18" d="M353.9,30.5c1.3,0.3,2.6,0.8,3.7,1.5v7.9c0,1.1-0.9,1.9-1.9,1.9l0,0c-1.1,0-1.9-0.9-1.9-1.9v-8.5
						C353.7,31.1,353.8,30.8,353.9,30.5z"/>
				</g>
			</g>
			<path class="st18" d="M360.9,44h-9.5V46h9.5c0.6,0,1-0.5,1-1C362,44.4,361.5,44,360.9,44z"/>
		</g>
	</g>
</g>
</svg>
