<?xml version="1.0" encoding="utf-8"?>
<!-- Generator: Adobe Illustrator 23.0.1, SVG Export Plug-In . SVG Version: 6.00 Build 0)  -->
<svg version="1.1" id="Layer_1" xmlns="http://www.w3.org/2000/svg" xmlns:xlink="http://www.w3.org/1999/xlink" x="0px" y="0px"
	 viewBox="0 0 500 200" style="enable-background:new 0 0 500 200;" xml:space="preserve">
<style type="text/css">
	.st0{fill-rule:evenodd;clip-rule:evenodd;fill:#8B8A8B;}
	.st1{fill:#FFEAC7;}
	.st2{fill-rule:evenodd;clip-rule:evenodd;fill:#B3B4B6;}
	.st3{fill-rule:evenodd;clip-rule:evenodd;fill:#FFEAC7;}
	.st4{fill-rule:evenodd;clip-rule:evenodd;fill:#7E6055;}
	.st5{fill:#A5A6A8;}
	.st6{fill:#524C40;}
	.st7{fill:#8B8A8B;}
	.st8{fill-rule:evenodd;clip-rule:evenodd;fill:#F4F5F4;}
	.st9{fill:#573B3F;}
	.st10{fill:#E0B18D;}
	.st11{opacity:0.5;}
	.st12{fill-rule:evenodd;clip-rule:evenodd;fill:#0988A1;}
	.st13{fill-rule:evenodd;clip-rule:evenodd;fill:#106E82;}
	.st14{fill:#0988A1;}
	.st15{fill:#CADB2B;}
	.st16{fill:#F5A61C;}
	.st17{fill-rule:evenodd;clip-rule:evenodd;fill:#F5CD7E;}
	.st18{fill-rule:evenodd;clip-rule:evenodd;fill:#E4B559;}
	.st19{fill:none;stroke:#573B3F;stroke-width:0.8647;stroke-miterlimit:10;}
	.st20{fill:#CFCFCE;}
	.st21{fill-rule:evenodd;clip-rule:evenodd;fill:#EBECEB;}
	.st22{fill-rule:evenodd;clip-rule:evenodd;fill:#E5E5E5;}
	.st23{fill-rule:evenodd;clip-rule:evenodd;fill:#E8EBE9;}
	.st24{fill-rule:evenodd;clip-rule:evenodd;fill:#C8C7C6;}
	.st25{fill:#EBECEB;}
	.st26{fill:#FFFFFF;}
	.st27{fill-rule:evenodd;clip-rule:evenodd;fill:#0E778E;}
	.st28{fill:#0E778E;}
	.st29{fill:#1D1D1B;}
	.st30{fill-rule:evenodd;clip-rule:evenodd;fill:#F7933D;}
	.st31{fill-rule:evenodd;clip-rule:evenodd;fill:#BA722F;}
	.st32{fill:#BA722F;}
</style>
<g>
	<g>
		<path class="st0" d="M122,44.9c0.8,0,1.5-0.7,1.5-1.5c0-0.8-0.7-1.5-1.5-1.5c-0.8,0-1.5,0.7-1.5,1.5
			C120.5,44.2,121.2,44.9,122,44.9z"/>
		<path class="st1" d="M103.1,130.1c0,2-1.6,3.6-3.6,3.6l0,0c-2,0-3.6-1.6-3.6-3.6v-5.8c0-2,1.6-3.6,3.6-3.6l0,0
			c2,0,3.6,1.6,3.6,3.6V130.1z"/>
		<path class="st1" d="M146.7,130.1c0,2-1.6,3.6-3.6,3.6l0,0c-2,0-3.6-1.6-3.6-3.6v-5.8c0-2,1.6-3.6,3.6-3.6l0,0
			c2,0,3.6,1.6,3.6,3.6V130.1z"/>
		<path class="st2" d="M140,81.5c-3.2-2.1-10.3-3.6-18.6-3.6c-8.3,0-15.4,1.4-18.6,3.5c-5.4,3.1-7.9,13.2-7.9,23.3v19.5h9.6v-19.5
			c0-6.6,2.1-10.7,3.5-12.8v36h26.6V92.5c1.5,2.2,3.6,6.2,3.6,12.2v19.5h9.6v-19.5C147.8,94.7,145.4,84.7,140,81.5z"/>
		<ellipse class="st3" cx="121.6" cy="63.5" rx="11.4" ry="11.7"/>
		<path class="st4" d="M112.1,60.2c1.2-1.3,2.6-2.3,3.9-3.5c0.9-0.8,2.4-1,3.3,0c2,2.2,5.6,4.1,8.4,2.4c1.1-0.7,2.5-0.2,3.2,0.8
			c0.3,0.5,1.1,0.9,1.8,1.3c-1-5.4-5.6-9.5-11.2-9.5c-6.1,0-11.1,5-11.3,11.2C111,62.1,111.4,61,112.1,60.2z"/>
		<path class="st3" d="M134.4,63.8c0,1.7-0.5,3.1-1.2,3.1c-0.7,0-1.2-1.4-1.2-3.1s0.5-3.1,1.2-3.1C133.8,60.8,134.4,62.1,134.4,63.8
			z"/>
		<path class="st3" d="M111.5,63.8c0,1.7-0.5,3.1-1.2,3.1s-1.2-1.4-1.2-3.1s0.5-3.1,1.2-3.1S111.5,62.1,111.5,63.8z"/>
		<path class="st2" d="M134,56.7c0-0.1,0-0.2-0.1-0.3c-0.2-0.7-0.7-2.6-0.7-3.3c0-5.5-5.1-10-11.5-10c-6.4,0-11.5,4.5-11.5,10
			c0,0.6-0.6,2.5-1,3.6H134z"/>
		<path class="st0" d="M135.7,56.7c0,0.7-0.6,1.2-1.2,1.2H109c-0.7,0-1.2-0.6-1.2-1.2l0,0c0-0.7,0.6-1.2,1.2-1.2h25.4
			C135.2,55.5,135.7,56,135.7,56.7L135.7,56.7z"/>
		<path class="st5" d="M134.9,128l-0.2-0.7H108v2.4c-6.3,15.7-7.1,45.6-6.8,55.5l12-0.3c-0.4-14.5,2.5-36.5,7-47.5h3.9
			c4.3,11.2,6.7,33.1,6.3,47.5l12,0.3C142.7,174.9,141.9,143.1,134.9,128z"/>
		<path class="st6" d="M114.8,188.4c0.1-0.4,0.2-0.8,0.2-1.3c0-2.3-1.9-4.2-4.2-4.2h-7.2c-2.3,0-4.2,1.9-4.2,4.2
			c0,0.4,0.1,0.9,0.2,1.3H114.8z"/>
		<path class="st6" d="M144.3,188.4c0.1-0.4,0.2-0.8,0.2-1.3c0-2.3-1.9-4.2-4.2-4.2h-7.2c-2.3,0-4.2,1.9-4.2,4.2
			c0,0.4,0.1,0.9,0.2,1.3H144.3z"/>
		<path class="st7" d="M142.6,168.4c-0.3-5.2-0.7-10.9-1.4-16.6h-13.8c0.9,5.3,1.6,11,2.1,16.6H142.6z"/>
		<path class="st7" d="M114.4,168.4c0.5-5.6,1.3-11.3,2.3-16.6h-14.2c-0.7,5.7-1.2,11.4-1.4,16.6H114.4z"/>
		<path class="st0" d="M105,111.6v-6.9c0-1.8,0.2-3.5,0.5-5.1H94.7c-0.2,1.7-0.2,3.5-0.2,5.1v6.9H105z"/>
		<path class="st0" d="M137.7,111.6h10.6v-6.9c0-1.7-0.1-3.4-0.2-5.1h-10.9c0.4,1.6,0.6,3.3,0.6,5.1V111.6z"/>
		<path class="st8" d="M129.5,78.4c-2.5-0.3-5.2-0.5-8.1-0.5c-2.7,0-5.3,0.2-7.7,0.4v46.2h15.8V78.4z"/>
		<path class="st1" d="M116.5,78.1c0,0.1,0,0.3,0,0.4c0,2,2.2,3.6,4.8,3.6c2.7,0,4.8-2,4.8-4c0,0-2.4-0.2-4.8-0.2
			C119,77.9,116.5,78.1,116.5,78.1z"/>
		<rect x="107.4" y="124.7" class="st9" width="28.5" height="5.1"/>
		<g>
			<g>
				<g>
					<path class="st10" d="M125.3,130.8h-7v-7.2h7V130.8z M119.2,129.8h5.1v-5.3h-5.1V129.8z"/>
				</g>
				<g>
					<rect x="122.8" y="126.4" class="st10" width="3.2" height="1.6"/>
				</g>
			</g>
		</g>
		<polygon class="st7" points="131.6,125.1 128.4,124.7 126.2,77.7 131.3,77.7 		"/>
		<polygon class="st7" points="110.5,124.9 113.7,124.6 116.2,77.7 111.1,77.7 		"/>
	</g>
	<g class="st11">
		<path class="st0" d="M122,42c-0.3,0-0.6,0.1-0.8,0.2v2.4c0.2,0.1,0.5,0.2,0.8,0.2c0.8,0,1.5-0.7,1.5-1.5
			C123.4,42.6,122.8,42,122,42z"/>
		<path class="st1" d="M146.7,130.1c0,2-1.6,3.6-3.6,3.6l0,0c-2,0-3.6-1.6-3.6-3.6v-5.8c0-2,1.6-3.6,3.6-3.6l0,0
			c2,0,3.6,1.6,3.6,3.6V130.1z"/>
		<path class="st2" d="M140,81.5c-3.2-2.1-10.3-3.6-18.6-3.6c-0.1,0-0.1,0-0.2,0v50h13.4V92.5c1.5,2.2,3.6,6.2,3.6,12.2v19.5h9.6
			v-19.5C147.8,94.7,145.4,84.7,140,81.5z"/>
		<path class="st3" d="M121.6,51.8c-0.1,0-0.3,0-0.4,0v23.3c0.1,0,0.3,0,0.4,0c6.3,0,11.4-5.2,11.4-11.7S127.9,51.8,121.6,51.8z"/>
		<path class="st4" d="M121.6,51.8c-0.1,0-0.3,0-0.4,0v6.5c2,1.3,4.5,2.1,6.5,0.8c1.1-0.7,2.5-0.2,3.2,0.8c0.3,0.5,1.1,0.9,1.8,1.3
			C131.8,55.9,127.1,51.8,121.6,51.8z"/>
		<path class="st3" d="M134.4,63.8c0,1.7-0.5,3.1-1.2,3.1c-0.7,0-1.2-1.4-1.2-3.1s0.5-3.1,1.2-3.1C133.8,60.8,134.4,62.1,134.4,63.8
			z"/>
		<path class="st2" d="M121.2,56.7H134c0-0.1,0-0.2-0.1-0.3c-0.2-0.7-0.7-2.6-0.7-3.3c0-5.5-5.1-10-11.5-10c-0.2,0-0.3,0-0.5,0V56.7
			z"/>
		<path class="st0" d="M134.5,55.5h-13.3V58h13.3c0.7,0,1.2-0.6,1.2-1.2C135.7,56,135.2,55.5,134.5,55.5z"/>
		<path class="st5" d="M134.9,128l-0.2-0.7h-13.5v10h2.9c4.3,11.2,6.7,33.1,6.3,47.5l12,0.3C142.7,174.9,141.9,143.1,134.9,128z"/>
		<path class="st6" d="M144.3,188.4c0.1-0.4,0.2-0.8,0.2-1.3c0-2.3-1.9-4.2-4.2-4.2h-7.2c-2.3,0-4.2,1.9-4.2,4.2
			c0,0.4,0.1,0.9,0.2,1.3H144.3z"/>
		<path class="st7" d="M142.6,168.4c-0.3-5.2-0.7-10.9-1.4-16.6h-13.8c0.9,5.3,1.6,11,2.1,16.6H142.6z"/>
		<path class="st0" d="M137.7,111.6h10.6v-6.9c0-1.7-0.1-3.4-0.2-5.1h-10.9c0.4,1.6,0.6,3.3,0.6,5.1V111.6z"/>
		<path class="st8" d="M121.4,77.9c-0.1,0-0.1,0-0.2,0v46.6h8.3V78.4C127,78.1,124.3,77.9,121.4,77.9z"/>
		<path class="st1" d="M121.4,77.9c-0.1,0-0.1,0-0.2,0v4.2c0,0,0.1,0,0.1,0c2.7,0,4.8-2,4.8-4C126.2,78.1,123.8,77.9,121.4,77.9z"/>
		<rect x="121.2" y="124.7" class="st9" width="14.6" height="5.1"/>
		<g>
			<g>
				<g>
					<polygon class="st10" points="121.2,123.6 121.2,124.5 124.3,124.5 124.3,129.8 121.2,129.8 121.2,130.8 125.3,130.8 
						125.3,123.6 					"/>
				</g>
				<g>
					<rect x="122.8" y="126.4" class="st10" width="3.2" height="1.6"/>
				</g>
			</g>
		</g>
		<polygon class="st7" points="131.6,125.1 128.4,124.7 126.2,77.7 131.3,77.7 		"/>
	</g>
</g>
<g>
	<g>
		<path class="st1" d="M186.7,126.3c0,2.1-1.7,3.8-3.8,3.8l0,0c-2.1,0-3.8-1.7-3.8-3.8v-6.2c0-2.1,1.7-3.8,3.8-3.8l0,0
			c2.1,0,3.8,1.7,3.8,3.8V126.3z"/>
		<path class="st1" d="M233.3,126.3c0,2.1-1.7,3.8-3.8,3.8l0,0c-2.1,0-3.8-1.7-3.8-3.8v-6.2c0-2.1,1.7-3.8,3.8-3.8l0,0
			c2.1,0,3.8,1.7,3.8,3.8V126.3z"/>
		<path class="st8" d="M226.2,74.3c-3.4-2.2-11-3.8-19.9-3.8c-8.8,0-16.4,1.5-19.8,3.8c-5.8,3.4-8.4,14.1-8.4,24.9V120h10.3V99.2
			c0-7.1,2.3-11.5,3.7-13.7V124h28.4V86.1c1.6,2.4,3.8,6.6,3.8,13.1V120h10.3V99.2C234.6,88.5,232,77.7,226.2,74.3z"/>
		<ellipse class="st3" cx="206.6" cy="55.1" rx="12.1" ry="12.5"/>
		<path class="st4" d="M196.4,51.6c1.2-1.4,2.8-2.4,4.2-3.7c1-0.9,2.6-1,3.5,0c2.1,2.3,6,4.4,9,2.6c1.2-0.7,2.7-0.2,3.4,0.9
			c0.3,0.5,1.1,1,2,1.4c-1.1-5.8-6-10.1-11.9-10.1c-6.5,0-11.9,5.3-12.1,11.9C195.2,53.7,195.7,52.4,196.4,51.6z"/>
		<path class="st3" d="M220.2,55.5c0,1.8-0.6,3.3-1.3,3.3c-0.7,0-1.3-1.5-1.3-3.3s0.6-3.3,1.3-3.3C219.6,52.2,220.2,53.7,220.2,55.5
			z"/>
		<path class="st3" d="M195.8,55.5c0,1.8-0.6,3.3-1.3,3.3c-0.7,0-1.3-1.5-1.3-3.3s0.6-3.3,1.3-3.3C195.2,52.2,195.8,53.7,195.8,55.5
			z"/>
		<g>
			<g>
				<path class="st12" d="M219.8,47.8c0-0.1,0-0.2-0.1-0.3c-0.2-0.7-0.8-2.8-0.8-3.5c0-5.9-5.5-10.6-12.3-10.6
					c-6.8,0-12.3,4.8-12.3,10.6c0,0.7-0.6,2.7-1,3.8H219.8z"/>
				<circle class="st12" cx="206.4" cy="34" r="3.2"/>
				<g>
					<g>
						<path class="st13" d="M199.4,35.4c1.1-0.7,2.4-1.2,3.7-1.6c0.1,0.2,0.1,0.5,0.1,0.7v8.5c0,1.1-0.9,1.9-1.9,1.9l0,0
							c-1.1,0-1.9-0.9-1.9-1.9V35.4z"/>
						<path class="st13" d="M209.9,33.7c1.3,0.3,2.6,0.8,3.7,1.5v7.9c0,1.1-0.9,1.9-1.9,1.9l0,0c-1.1,0-1.9-0.9-1.9-1.9v-8.5
							C209.7,34.2,209.7,34,209.9,33.7z"/>
					</g>
				</g>
			</g>
			<path class="st13" d="M217.9,48.2c0,0.6-0.5,1-1,1h-21.2c-0.6,0-1-0.5-1-1l0,0c0-0.6,0.5-1,1-1h21.2
				C217.4,47.2,217.9,47.6,217.9,48.2L217.9,48.2z"/>
		</g>
		<path class="st14" d="M220.7,124l-0.2-0.7H192v2.6c-6.8,16.8-7.6,48.7-7.3,59.3l12.8-0.4c-0.4-15.5,2.7-39,7.5-50.8h4.2
			c4.6,11.9,7.2,35.4,6.8,50.8l12.8,0.4C229.1,174.2,228.2,140.2,220.7,124z"/>
		<path class="st6" d="M199.3,188.6c0.1-0.4,0.2-0.9,0.2-1.4c0-2.5-2-4.4-4.4-4.4h-7.7c-2.5,0-4.4,2-4.4,4.4c0,0.5,0.1,0.9,0.2,1.4
			H199.3z"/>
		<path class="st6" d="M230.8,188.6c0.1-0.4,0.2-0.9,0.2-1.4c0-2.5-2-4.4-4.4-4.4h-7.7c-2.5,0-4.4,2-4.4,4.4c0,0.5,0.1,0.9,0.2,1.4
			H230.8z"/>
		<path class="st1" d="M201.1,70.7c0,0.1,0,0.3,0,0.4c0,2.1,2.3,3.8,5.2,3.8c2.9,0,5.2-2.1,5.2-4.2c0,0-2.5-0.2-5.1-0.2
			C203.7,70.5,201.2,70.7,201.1,70.7z"/>
		<rect x="191.3" y="120.5" class="st9" width="30.4" height="5.5"/>
		<path class="st10" d="M211.2,122.3h-0.6v-3H203v7.7h7.5v-3h0.6V122.3z M209.5,126H204v-5.6h5.5v2h-1.7v1.7h1.7V126z"/>
		<path class="st15" d="M196.3,82.8v-1.1c0-0.3,0-0.5,0-0.8c0-0.3,0-0.5,0-0.8v-9l-2.8,0.4l-0.4,16.7l-1.2,0.2l-0.6,32l10.2,0.2
			l0-31.1C196.4,89.5,196.3,82.8,196.3,82.8z"/>
		<path class="st15" d="M220.5,88.5l-1.2-0.2l-0.4-16.7l-2.8-0.4v11.7c0,0,0,6.9-4.5,7.1l0,30.8l9.5-0.2L220.5,88.5z"/>
		<rect x="191.4" y="109.5" class="st16" width="10.2" height="1"/>
		<rect x="191.4" y="112.8" class="st16" width="10.2" height="1"/>
		<rect x="211.6" y="109.5" class="st16" width="9.4" height="1"/>
		<rect x="211.6" y="112.8" class="st16" width="9.4" height="1"/>
	</g>
	<g class="st11">
		<path class="st1" d="M233.3,126.3c0,2.1-1.7,3.8-3.8,3.8l0,0c-2.1,0-3.8-1.7-3.8-3.8v-6.2c0-2.1,1.7-3.8,3.8-3.8l0,0
			c2.1,0,3.8,1.7,3.8,3.8V126.3z"/>
		<path class="st8" d="M226.2,74.3c-3.4-2.2-11-3.8-19.9-3.8c-0.1,0-0.2,0-0.3,0V124h14.5V86.1c1.6,2.4,3.8,6.6,3.8,13.1V120h10.3
			V99.2C234.6,88.5,232,77.7,226.2,74.3z"/>
		<path class="st3" d="M206.6,42.6c-0.2,0-0.4,0-0.5,0v24.9c0.2,0,0.4,0,0.5,0c6.7,0,12.1-5.6,12.1-12.5S213.3,42.6,206.6,42.6z"/>
		<path class="st4" d="M206.6,42.6c-0.2,0-0.4,0-0.5,0v6.9c2.1,1.5,4.9,2.3,7.1,0.9c1.2-0.7,2.7-0.2,3.4,0.9c0.3,0.5,1.1,1,2,1.4
			C217.4,46.9,212.5,42.6,206.6,42.6z"/>
		<path class="st3" d="M220.2,55.5c0,1.8-0.6,3.3-1.3,3.3c-0.7,0-1.3-1.5-1.3-3.3s0.6-3.3,1.3-3.3C219.6,52.2,220.2,53.7,220.2,55.5
			z"/>
		<g>
			<g>
				<path class="st12" d="M206,47.8h13.8c0-0.1,0-0.2-0.1-0.3c-0.2-0.7-0.8-2.8-0.8-3.5c0-5.9-5.5-10.6-12.3-10.6
					c-0.2,0-0.4,0-0.6,0V47.8z"/>
				<path class="st12" d="M206.4,30.9c-0.1,0-0.3,0-0.4,0v6.3c0.1,0,0.3,0,0.4,0c1.7,0,3.2-1.4,3.2-3.2
					C209.6,32.3,208.2,30.9,206.4,30.9z"/>
				<g>
					<g>
						<path class="st13" d="M209.9,33.7c1.3,0.3,2.6,0.8,3.7,1.5v7.9c0,1.1-0.9,1.9-1.9,1.9l0,0c-1.1,0-1.9-0.9-1.9-1.9v-8.5
							C209.7,34.2,209.7,34,209.9,33.7z"/>
					</g>
				</g>
			</g>
			<path class="st13" d="M216.9,47.2H206v2.1h10.8c0.6,0,1-0.5,1-1C217.9,47.6,217.4,47.2,216.9,47.2z"/>
		</g>
		<path class="st14" d="M220.7,124l-0.2-0.7H206V134h3.2c4.6,11.9,7.2,35.4,6.8,50.8l12.8,0.4C229.1,174.2,228.2,140.2,220.7,124z"
			/>
		<path class="st6" d="M230.8,188.6c0.1-0.4,0.2-0.9,0.2-1.4c0-2.5-2-4.4-4.4-4.4h-7.7c-2.5,0-4.4,2-4.4,4.4c0,0.5,0.1,0.9,0.2,1.4
			H230.8z"/>
		<path class="st1" d="M206.3,70.6c-0.1,0-0.2,0-0.3,0V75c0.1,0,0.2,0,0.2,0c2.9,0,5.2-2.1,5.2-4.2
			C211.4,70.8,208.9,70.6,206.3,70.6z"/>
		<rect x="206" y="120.5" class="st9" width="15.7" height="5.5"/>
		<polygon class="st10" points="210.5,122.3 210.5,119.3 206,119.3 206,120.3 209.5,120.3 209.5,122.3 207.8,122.3 207.8,124 
			209.5,124 209.5,126 206,126 206,127 210.5,127 210.5,124 211.2,124 211.2,122.3 		"/>
		<path class="st15" d="M220.5,88.5l-1.2-0.2l-0.4-16.7l-2.8-0.4v11.7c0,0,0,6.9-4.5,7.1l0,30.8l9.5-0.2L220.5,88.5z"/>
		<rect x="211.6" y="109.5" class="st16" width="9.4" height="1"/>
		<rect x="211.6" y="112.8" class="st16" width="9.4" height="1"/>
	</g>
</g>
<g>
	<g>
		<path class="st1" d="M19.9,136.2c0,1.8-1.5,3.2-3.2,3.2l0,0c-1.8,0-3.2-1.5-3.2-3.2V131c0-1.8,1.5-3.2,3.2-3.2l0,0
			c1.8,0,3.2,1.5,3.2,3.2V136.2z"/>
		<path class="st1" d="M59.2,136.2c0,1.8-1.5,3.2-3.2,3.2l0,0c-1.8,0-3.2-1.5-3.2-3.2V131c0-1.8,1.5-3.2,3.2-3.2l0,0
			c1.8,0,3.2,1.5,3.2,3.2V136.2z"/>
		<path class="st8" d="M53.2,92.4c-2.9-1.9-9.3-3.2-16.8-3.2c-7.4,0-13.8,1.3-16.7,3.2c-4.9,2.8-7.1,11.9-7.1,21v17.5h8.6v-17.5
			c0-5.9,1.9-9.7,3.1-11.5v32.4h24v-31.9c1.3,2,3.2,5.6,3.2,11v17.5h8.6v-17.5C60.3,104.4,58.1,95.3,53.2,92.4z"/>
		<ellipse class="st3" cx="36.7" cy="76.2" rx="10.2" ry="10.5"/>
		<path class="st4" d="M28.1,73.2c1-1.2,2.4-2.1,3.6-3.1c0.8-0.7,2.2-0.9,3,0c1.8,1.9,5.1,3.7,7.6,2.2c1-0.6,2.3-0.2,2.9,0.8
			c0.3,0.4,1,0.8,1.6,1.2c-0.9-4.9-5.1-8.5-10-8.5c-5.5,0-10,4.5-10.2,10.1C27.1,75,27.5,74,28.1,73.2z"/>
		<path class="st3" d="M48.1,76.5c0,1.5-0.5,2.8-1.1,2.8c-0.6,0-1.1-1.2-1.1-2.8c0-1.5,0.5-2.8,1.1-2.8C47.7,73.8,48.1,75,48.1,76.5
			z"/>
		<path class="st3" d="M27.6,76.5c0,1.5-0.5,2.8-1.1,2.8c-0.6,0-1.1-1.2-1.1-2.8c0-1.5,0.5-2.8,1.1-2.8C27.1,73.8,27.6,75,27.6,76.5
			z"/>
		<g>
			<g>
				<path class="st17" d="M47.8,70.1c0-0.1,0-0.2-0.1-0.3c-0.2-0.6-0.7-2.3-0.7-3c0-5-4.6-9-10.4-9c-5.7,0-10.4,4-10.4,9
					c0,0.6-0.5,2.3-0.9,3.2H47.8z"/>
				<circle class="st17" cx="36.6" cy="58.5" r="2.7"/>
				<g>
					<path class="st18" d="M30.6,59.6c0.9-0.6,2-1.1,3.1-1.3c0.1,0.2,0.1,0.4,0.1,0.6v7.2c0,0.9-0.7,1.6-1.6,1.6l0,0
						c-0.9,0-1.6-0.7-1.6-1.6V59.6z"/>
					<path class="st18" d="M39.4,58.2c1.1,0.3,2.2,0.7,3.1,1.2v6.6c0,0.9-0.7,1.6-1.6,1.6l0,0c-0.9,0-1.6-0.7-1.6-1.6v-7.2
						C39.3,58.6,39.3,58.4,39.4,58.2z"/>
				</g>
			</g>
			<path class="st18" d="M46.2,70.4c0,0.5-0.4,0.9-0.9,0.9H27.5c-0.5,0-0.9-0.4-0.9-0.9l0,0c0-0.5,0.4-0.9,0.9-0.9h17.9
				C45.8,69.5,46.2,69.9,46.2,70.4L46.2,70.4z"/>
		</g>
		<path class="st14" d="M48.6,134.3l-0.2-0.6h-24v2.2c-5.7,14.1-6.4,41-6.1,50l10.8-0.3c-0.4-13.1,2.3-32.9,6.3-42.8h3.5
			c3.9,10.1,6.1,29.8,5.7,42.8l10.8,0.3C55.7,176.6,54.9,147.9,48.6,134.3z"/>
		<path class="st6" d="M30.5,188.7c0.1-0.4,0.2-0.8,0.2-1.2c0-2.1-1.7-3.7-3.7-3.7h-6.5c-2.1,0-3.7,1.7-3.7,3.7
			c0,0.4,0.1,0.8,0.2,1.2H30.5z"/>
		<path class="st6" d="M57.1,188.7c0.1-0.4,0.2-0.8,0.2-1.2c0-2.1-1.7-3.7-3.7-3.7H47c-2.1,0-3.7,1.7-3.7,3.7c0,0.4,0.1,0.8,0.2,1.2
			H57.1z"/>
		<path class="st1" d="M32,89.4c0,0.1,0,0.3,0,0.3c0,1.8,1.9,3.2,4.4,3.2c2.4,0,4.4-1.8,4.4-3.6c0,0-2.1-0.2-4.3-0.2
			C34.3,89.2,32.1,89.4,32,89.4z"/>
		<rect x="23.8" y="131.4" class="st10" width="25.7" height="4.6"/>
		<rect x="34.1" y="130.8" class="st19" width="5.5" height="5.6"/>
		<rect x="38.1" y="133.3" class="st19" width="2" height="0.5"/>
		<path class="st20" d="M38.8,100.2v3.2c0,1.2,1,2.2,2.2,2.2h2.2c1.2,0,2.2-1,2.2-2.2v-3.2H38.8z"/>
	</g>
	<g class="st11">
		<path class="st1" d="M59.2,136.2c0,1.8-1.5,3.2-3.2,3.2l0,0c-1.8,0-3.2-1.5-3.2-3.2V131c0-1.8,1.5-3.2,3.2-3.2l0,0
			c1.8,0,3.2,1.5,3.2,3.2V136.2z"/>
		<path class="st8" d="M53.2,92.4c-2.8-1.9-9.1-3.2-16.4-3.2v45h11.6v-31.9c1.3,2,3.2,5.6,3.2,11v17.5h8.6v-17.5
			C60.3,104.4,58.1,95.3,53.2,92.4z"/>
		<path class="st3" d="M36.8,65.7v21c5.6-0.1,10.1-4.8,10.1-10.5C46.9,70.4,42.4,65.7,36.8,65.7z"/>
		<path class="st4" d="M36.8,65.7v6.2c1.7,1,3.7,1.4,5.4,0.4c1-0.6,2.3-0.2,2.9,0.8c0.3,0.4,1,0.8,1.6,1.2
			C45.8,69.4,41.7,65.7,36.8,65.7z"/>
		<path class="st3" d="M48.1,76.5c0,1.5-0.5,2.8-1.1,2.8c-0.6,0-1.1-1.2-1.1-2.8c0-1.5,0.5-2.8,1.1-2.8C47.7,73.8,48.1,75,48.1,76.5
			z"/>
		<g>
			<g>
				<path class="st17" d="M36.8,70.1h11c0-0.1,0-0.2-0.1-0.3c-0.2-0.6-0.7-2.3-0.7-3c0-4.9-4.6-8.9-10.3-9V70.1z"/>
				<path class="st17" d="M36.8,55.8v5.3c1.4-0.1,2.4-1.3,2.4-2.7C39.2,57.1,38.2,55.9,36.8,55.8z"/>
				<g>
					<path class="st18" d="M39.4,58.2c1.1,0.3,2.2,0.7,3.1,1.2v6.6c0,0.9-0.7,1.6-1.6,1.6l0,0c-0.9,0-1.6-0.7-1.6-1.6v-7.2
						C39.3,58.6,39.3,58.4,39.4,58.2z"/>
				</g>
			</g>
			<path class="st18" d="M45.3,69.5h-8.6v1.7h8.6c0.5,0,0.9-0.4,0.9-0.9S45.8,69.5,45.3,69.5z"/>
		</g>
		<path class="st14" d="M48.6,134.3l-0.2-0.6H36.8v9h2.1c3.9,10.1,6.1,29.8,5.7,42.8l10.8,0.3C55.7,176.6,54.9,147.9,48.6,134.3z"/>
		<path class="st6" d="M57.1,188.7c0.1-0.4,0.2-0.8,0.2-1.2c0-2.1-1.7-3.7-3.7-3.7H47c-2.1,0-3.7,1.7-3.7,3.7c0,0.4,0.1,0.8,0.2,1.2
			H57.1z"/>
		<path class="st1" d="M36.8,89.2V93c2.2-0.2,4-1.9,4-3.6C40.8,89.4,38.8,89.3,36.8,89.2z"/>
		<rect x="36.8" y="131.4" class="st10" width="12.7" height="4.6"/>
		<rect x="36.8" y="130.8" class="st19" width="2.8" height="5.6"/>
		<rect x="38.1" y="133.3" class="st19" width="2" height="0.5"/>
		<path class="st20" d="M38.8,100.2v3.2c0,1.2,1,2.2,2.2,2.2h2.2c1.2,0,2.2-1,2.2-2.2v-3.2H38.8z"/>
	</g>
</g>
<g>
	<g>
		<path class="st1" d="M444.6,134.9c0,1.8-1.5,3.2-3.2,3.2l0,0c-1.8,0-3.2-1.5-3.2-3.2v-5.2c0-1.8,1.5-3.2,3.2-3.2l0,0
			c1.8,0,3.2,1.5,3.2,3.2V134.9z"/>
		<path class="st1" d="M483.9,134.9c0,1.8-1.5,3.2-3.2,3.2l0,0c-1.8,0-3.2-1.5-3.2-3.2v-5.2c0-1.8,1.5-3.2,3.2-3.2l0,0
			c1.8,0,3.2,1.5,3.2,3.2V134.9z"/>
		<path class="st21" d="M477.9,91.2c-2.9-1.9-9.3-3.2-16.8-3.2c-7.4,0-13.8,1.3-16.7,3.2c-4.9,2.8-7.1,11.9-7.1,21v17.5h8.6v-17.5
			c0-5.9,1.9-9.7,3.1-11.5V133h24v-31.9c1.3,2,3.2,5.6,3.2,11v17.5h8.6v-17.5C484.9,103.1,482.7,94,477.9,91.2z"/>
		<rect x="459.6" y="90.7" class="st22" width="3.5" height="39.9"/>
		<ellipse class="st3" cx="461.3" cy="74.9" rx="10.2" ry="10.5"/>
		<path class="st4" d="M452.8,72c1-1.2,2.4-2.1,3.6-3.1c0.8-0.7,2.2-0.9,3,0c1.8,1.9,5.1,3.7,7.6,2.2c1-0.6,2.3-0.2,2.9,0.8
			c0.3,0.4,1,0.8,1.6,1.2c-0.9-4.9-5.1-8.5-10-8.5c-5.5,0-10,4.5-10.2,10.1C451.8,73.7,452.1,72.7,452.8,72z"/>
		<path class="st3" d="M472.8,75.3c0,1.5-0.5,2.8-1.1,2.8s-1.1-1.2-1.1-2.8c0-1.5,0.5-2.8,1.1-2.8S472.8,73.7,472.8,75.3z"/>
		<path class="st3" d="M452.2,75.3c0,1.5-0.5,2.8-1.1,2.8c-0.6,0-1.1-1.2-1.1-2.8c0-1.5,0.5-2.8,1.1-2.8
			C451.7,72.5,452.2,73.7,452.2,75.3z"/>
		<g>
			<g>
				<path class="st23" d="M472.5,68.8c0-0.1,0-0.2-0.1-0.3c-0.2-0.6-0.7-2.3-0.7-3c0-5-4.6-9-10.4-9c-5.7,0-10.4,4-10.4,9
					c0,0.6-0.5,2.3-0.9,3.2H472.5z"/>
			</g>
			<path class="st24" d="M470.9,69.1c0,0.5-0.4,0.9-0.9,0.9h-17.9c-0.5,0-0.9-0.4-0.9-0.9l0,0c0-0.5,0.4-0.9,0.9-0.9H470
				C470.5,68.2,470.9,68.6,470.9,69.1L470.9,69.1z"/>
		</g>
		<path class="st25" d="M473.3,133.1l-0.2-0.6h-24v2.2c-5.7,14.1-6.4,41-6.1,50l10.8-0.3c-0.4-13.1,2.3-32.9,6.3-42.8h3.5
			c3.9,10.1,6.1,29.8,5.7,42.8l10.8,0.3C480.3,175.3,479.6,146.7,473.3,133.1z"/>
		<path class="st6" d="M455.2,187.5c0.1-0.4,0.2-0.8,0.2-1.2c0-2.1-1.7-3.7-3.7-3.7h-6.5c-2.1,0-3.7,1.7-3.7,3.7
			c0,0.4,0.1,0.8,0.2,1.2H455.2z"/>
		<path class="st6" d="M481.7,187.5c0.1-0.4,0.2-0.8,0.2-1.2c0-2.1-1.7-3.7-3.7-3.7h-6.5c-2.1,0-3.7,1.7-3.7,3.7
			c0,0.4,0.1,0.8,0.2,1.2H481.7z"/>
		<rect x="448.5" y="130.1" class="st20" width="25.7" height="4.6"/>
		<g>
			<path class="st26" d="M462.1,98.2c0,0.5-0.4,0.9-0.9,0.9c-0.5,0-0.9-0.4-0.9-0.9c0-0.5,0.4-0.9,0.9-0.9
				C461.7,97.3,462.1,97.7,462.1,98.2z"/>
			<path class="st26" d="M462.1,104.5c0,0.5-0.4,0.9-0.9,0.9c-0.5,0-0.9-0.4-0.9-0.9c0-0.5,0.4-0.9,0.9-0.9
				C461.7,103.7,462.1,104,462.1,104.5z"/>
			<path class="st26" d="M462.1,110.9c0,0.5-0.4,0.9-0.9,0.9c-0.5,0-0.9-0.4-0.9-0.9c0-0.5,0.4-0.9,0.9-0.9
				C461.7,110,462.1,110.4,462.1,110.9z"/>
			<path class="st26" d="M462.1,117.2c0,0.5-0.4,0.9-0.9,0.9c-0.5,0-0.9-0.4-0.9-0.9c0-0.5,0.4-0.9,0.9-0.9
				C461.7,116.4,462.1,116.7,462.1,117.2z"/>
			<path class="st26" d="M462.1,123.6c0,0.5-0.4,0.9-0.9,0.9c-0.5,0-0.9-0.4-0.9-0.9c0-0.5,0.4-0.9,0.9-0.9
				C461.7,122.7,462.1,123.1,462.1,123.6z"/>
		</g>
		<path class="st1" d="M456.7,88.1c0,0.1,0,0.3,0,0.3c0,1.8,1.9,3.2,4.4,3.2c2.4,0,4.4-1.8,4.4-3.6c0,0-2.1-0.2-4.3-0.2
			C459,88,456.8,88.1,456.7,88.1z"/>
	</g>
	<g class="st11">
		<path class="st1" d="M483.9,134.9c0,1.8-1.5,3.2-3.2,3.2l0,0c-1.8,0-3.2-1.5-3.2-3.2v-5.2c0-1.8,1.5-3.2,3.2-3.2l0,0
			c1.8,0,3.2,1.5,3.2,3.2V134.9z"/>
		<path class="st21" d="M477.9,91.2c-2.7-1.8-8.5-3-15.4-3.2v45h10.6v-31.9c1.3,2,3.2,5.6,3.2,11v17.5h8.6v-17.5
			C484.9,103.1,482.7,94,477.9,91.2z"/>
		<rect x="462.5" y="90.7" class="st22" width="0.5" height="39.9"/>
		<path class="st3" d="M462.5,64.5v20.9c5.1-0.6,9-5.1,9-10.4S467.6,65.1,462.5,64.5z"/>
		<path class="st4" d="M462.5,64.5v6.6c1.4,0.6,3,0.7,4.3-0.1c1-0.6,2.3-0.2,2.9,0.8c0.3,0.4,1,0.8,1.6,1.2
			C470.5,68.5,467,65,462.5,64.5z"/>
		<path class="st3" d="M472.8,75.3c0,1.5-0.5,2.8-1.1,2.8s-1.1-1.2-1.1-2.8c0-1.5,0.5-2.8,1.1-2.8S472.8,73.7,472.8,75.3z"/>
		<g>
			<g>
				<path class="st23" d="M462.5,68.8h10c0-0.1,0-0.2-0.1-0.3c-0.2-0.6-0.7-2.3-0.7-3c0-4.6-4-8.4-9.2-8.9V68.8z"/>
			</g>
			<path class="st24" d="M470,68.2h-7.5V70h7.5c0.5,0,0.9-0.4,0.9-0.9C470.9,68.6,470.5,68.2,470,68.2z"/>
		</g>
		<path class="st25" d="M473.3,133.1l-0.2-0.6h-10.6v9h1c3.9,10.1,6.1,29.8,5.7,42.8l10.8,0.3C480.3,175.3,479.6,146.7,473.3,133.1z
			"/>
		<path class="st6" d="M481.7,187.5c0.1-0.4,0.2-0.8,0.2-1.2c0-2.1-1.7-3.7-3.7-3.7h-6.5c-2.1,0-3.7,1.7-3.7,3.7
			c0,0.4,0.1,0.8,0.2,1.2H481.7z"/>
		<rect x="462.5" y="130.1" class="st20" width="11.6" height="4.6"/>
		<path class="st1" d="M462.5,88v3.5c1.7-0.5,2.9-1.9,2.9-3.3C465.4,88.1,464.1,88,462.5,88z"/>
	</g>
</g>
<g>
	<g>
		<path class="st1" d="M357.9,129.4c0,2-1.6,3.6-3.6,3.6l0,0c-2,0-3.6-1.6-3.6-3.6v-5.8c0-2,1.6-3.6,3.6-3.6l0,0
			c2,0,3.6,1.6,3.6,3.6V129.4z"/>
		<path class="st1" d="M401.5,129.4c0,2-1.6,3.6-3.6,3.6l0,0c-2,0-3.6-1.6-3.6-3.6v-5.8c0-2,1.6-3.6,3.6-3.6l0,0
			c2,0,3.6,1.6,3.6,3.6V129.4z"/>
		<path class="st12" d="M394.8,80.8c-3.2-2.1-10.3-3.6-18.6-3.6c-8.3,0-15.4,1.4-18.6,3.5c-5.4,3.1-7.9,13.2-7.9,23.3v19.5h9.6V104
			c0-6.6,2.1-10.7,3.5-12.8v36h26.6V91.8C390.9,94,393,98,393,104v19.5h9.6V104C402.6,94,400.2,84,394.8,80.8z"/>
		<rect x="374.5" y="80.3" class="st27" width="3.8" height="44.3"/>
		<path class="st3" d="M387.8,62.8c0,6.4-5.1,11.7-11.4,11.7c-6.3,0-11.4-5.2-11.4-11.7c0-6.4,5.1-11.7,11.4-11.7
			C382.7,51.1,387.8,56.3,387.8,62.8z"/>
		<path class="st4" d="M366.9,59.5c1.2-1.3,2.6-2.3,3.9-3.5c0.9-0.8,2.4-1,3.3,0c2,2.2,5.6,4.1,8.4,2.4c1.1-0.7,2.5-0.2,3.2,0.8
			c0.3,0.5,1.1,0.9,1.8,1.3c-1-5.4-5.6-9.5-11.2-9.5c-6.1,0-11.1,5-11.3,11.2C365.8,61.4,366.2,60.3,366.9,59.5z"/>
		<path class="st3" d="M389.2,63.1c0,1.7-0.5,3.1-1.2,3.1c-0.7,0-1.2-1.4-1.2-3.1c0-1.7,0.5-3.1,1.2-3.1
			C388.6,60.1,389.2,61.4,389.2,63.1z"/>
		<path class="st3" d="M366.3,63.1c0,1.7-0.5,3.1-1.2,3.1c-0.7,0-1.2-1.4-1.2-3.1c0-1.7,0.5-3.1,1.2-3.1
			C365.8,60.1,366.3,61.4,366.3,63.1z"/>
		<g>
			<g>
				<g>
					<path class="st12" d="M388.8,56c0-0.1,0-0.2-0.1-0.3c-0.2-0.7-0.7-2.6-0.7-3.3c0-5.5-5.1-10-11.5-10c-6.4,0-11.5,4.5-11.5,10
						c0,0.6-0.6,2.5-1,3.6H388.8z"/>
				</g>
				<g>
					<path class="st27" d="M387,56.3c0,0.5-0.4,1-1,1h-19.8c-0.5,0-1-0.4-1-1l0,0c0-0.5,0.4-1,1-1h19.8
						C386.6,55.3,387,55.8,387,56.3L387,56.3z"/>
				</g>
			</g>
		</g>
		<path class="st14" d="M389.7,127.3l-0.2-0.7h-26.6v2.4c-6.3,15.7-7.1,45.6-6.8,55.5l12-0.3c-0.4-14.5,2.5-36.5,7-47.5h3.9
			c4.3,11.2,6.7,33.1,6.3,47.5l12,0.3C397.5,174.2,396.7,142.4,389.7,127.3z"/>
		<path class="st6" d="M369.6,187.7c0.1-0.4,0.2-0.8,0.2-1.3c0-2.3-1.9-4.2-4.2-4.2h-7.2c-2.3,0-4.2,1.9-4.2,4.2
			c0,0.4,0.1,0.9,0.2,1.3H369.6z"/>
		<path class="st6" d="M399.1,187.7c0.1-0.4,0.2-0.8,0.2-1.3c0-2.3-1.9-4.2-4.2-4.2h-7.2c-2.3,0-4.2,1.9-4.2,4.2
			c0,0.4,0.1,0.9,0.2,1.3H399.1z"/>
		<rect x="362.2" y="126.5" class="st28" width="28.5" height="2.6"/>
		<g>
			<g>
				<path class="st29" d="M377.3,88.6c0,0.5-0.4,1-1,1c-0.5,0-1-0.4-1-1c0-0.5,0.4-1,1-1C376.9,87.6,377.3,88,377.3,88.6z"/>
				<path class="st29" d="M377.3,95.6c0,0.5-0.4,1-1,1c-0.5,0-1-0.4-1-1c0-0.5,0.4-1,1-1C376.9,94.7,377.3,95.1,377.3,95.6z"/>
				<path class="st29" d="M377.3,102.7c0,0.5-0.4,1-1,1c-0.5,0-1-0.4-1-1c0-0.5,0.4-1,1-1C376.9,101.7,377.3,102.1,377.3,102.7z"/>
				<path class="st29" d="M377.3,109.7c0,0.5-0.4,1-1,1c-0.5,0-1-0.4-1-1c0-0.5,0.4-1,1-1C376.9,108.7,377.3,109.2,377.3,109.7z"/>
				<path class="st29" d="M377.3,116.8c0,0.5-0.4,1-1,1c-0.5,0-1-0.4-1-1c0-0.5,0.4-1,1-1C376.9,115.8,377.3,116.2,377.3,116.8z"/>
			</g>
		</g>
		<path class="st1" d="M371.3,77.4c0,0.1,0,0.3,0,0.4c0,2,2.2,3.6,4.8,3.6c2.7,0,4.8-2,4.8-4c0,0-2.4-0.2-4.8-0.2
			C373.8,77.2,371.4,77.4,371.3,77.4z"/>
		<path class="st28" d="M364.9,94.2v3.6c0,1.4,1.1,2.5,2.5,2.5h2.5c1.4,0,2.5-1.1,2.5-2.5v-3.6H364.9z"/>
		<path class="st28" d="M380,94.2v3.6c0,1.4,1.1,2.5,2.5,2.5h2.5c1.4,0,2.5-1.1,2.5-2.5v-3.6H380z"/>
	</g>
	<g class="st11">
		<path class="st1" d="M401.5,129.4c0,2-1.6,3.6-3.6,3.6l0,0c-2,0-3.6-1.6-3.6-3.6v-5.8c0-2,1.6-3.6,3.6-3.6l0,0
			c2,0,3.6,1.6,3.6,3.6V129.4z"/>
		<path class="st12" d="M394.8,80.8c-3.2-2.1-10.3-3.5-18.6-3.6v50h13.2V91.8C390.9,94,393,98,393,104v19.5h9.6V104
			C402.6,94,400.2,84,394.8,80.8z"/>
		<rect x="376.3" y="80.3" class="st27" width="2.1" height="44.3"/>
		<path class="st3" d="M376.4,51.1c-0.1,0-0.1,0-0.2,0v23.3c0.1,0,0.1,0,0.2,0c6.3,0,11.4-5.2,11.4-11.7
			C387.8,56.3,382.7,51.1,376.4,51.1z"/>
		<path class="st4" d="M376.4,51.1c-0.1,0-0.1,0-0.2,0v6.7c1.9,1.2,4.3,1.8,6.3,0.7c1.1-0.7,2.5-0.2,3.2,0.8
			c0.3,0.5,1.1,0.9,1.8,1.3C386.6,55.2,382,51.1,376.4,51.1z"/>
		<path class="st3" d="M389.2,63.1c0,1.7-0.5,3.1-1.2,3.1c-0.7,0-1.2-1.4-1.2-3.1c0-1.7,0.5-3.1,1.2-3.1
			C388.6,60.1,389.2,61.4,389.2,63.1z"/>
		<g>
			<g>
				<g>
					<path class="st12" d="M376.3,56h12.5c0-0.1,0-0.2-0.1-0.3c-0.2-0.7-0.7-2.6-0.7-3.3c0-5.5-5.1-10-11.5-10c-0.1,0-0.1,0-0.2,0
						V56z"/>
				</g>
				<g>
					<path class="st27" d="M386.1,55.3h-9.8v1.9h9.8c0.5,0,1-0.4,1-1C387,55.8,386.6,55.3,386.1,55.3z"/>
				</g>
			</g>
		</g>
		<path class="st14" d="M389.7,127.3l-0.2-0.7h-13.2v10h2.6c4.3,11.2,6.7,33.1,6.3,47.5l12,0.3C397.5,174.2,396.7,142.4,389.7,127.3
			z"/>
		<path class="st6" d="M399.1,187.7c0.1-0.4,0.2-0.8,0.2-1.3c0-2.3-1.9-4.2-4.2-4.2h-7.2c-2.3,0-4.2,1.9-4.2,4.2
			c0,0.4,0.1,0.9,0.2,1.3H399.1z"/>
		<rect x="376.3" y="126.5" class="st28" width="14.4" height="2.6"/>
		<g>
			<g>
				<path class="st29" d="M376.3,87.6C376.3,87.6,376.3,87.6,376.3,87.6l-0.1,1.9c0,0,0,0,0.1,0c0.5,0,1-0.4,1-1
					C377.3,88,376.9,87.6,376.3,87.6z"/>
				<path class="st29" d="M376.3,94.7C376.3,94.7,376.3,94.7,376.3,94.7l-0.1,1.9c0,0,0,0,0.1,0c0.5,0,1-0.4,1-1
					C377.3,95.1,376.9,94.7,376.3,94.7z"/>
				<path class="st29" d="M376.3,101.7C376.3,101.7,376.3,101.7,376.3,101.7l-0.1,1.9c0,0,0,0,0.1,0c0.5,0,1-0.4,1-1
					C377.3,102.1,376.9,101.7,376.3,101.7z"/>
				<path class="st29" d="M376.3,108.7C376.3,108.7,376.3,108.8,376.3,108.7l-0.1,1.9c0,0,0,0,0.1,0c0.5,0,1-0.4,1-1
					C377.3,109.2,376.9,108.7,376.3,108.7z"/>
				<path class="st29" d="M376.3,115.8C376.3,115.8,376.3,115.8,376.3,115.8l-0.1,1.9c0,0,0,0,0.1,0c0.5,0,1-0.4,1-1
					C377.3,116.2,376.9,115.8,376.3,115.8z"/>
			</g>
		</g>
		<path class="st1" d="M376.3,77.2v4.2c2.6-0.1,4.7-2,4.7-4C381,77.4,378.6,77.3,376.3,77.2z"/>
		<path class="st28" d="M380,94.2v3.6c0,1.4,1.1,2.5,2.5,2.5h2.5c1.4,0,2.5-1.1,2.5-2.5v-3.6H380z"/>
	</g>
</g>
<g>
	<g>
		<path class="st1" d="M271.7,124.3c0,2.1-1.7,3.8-3.8,3.8l0,0c-2.1,0-3.8-1.7-3.8-3.8v-6.2c0-2.1,1.7-3.8,3.8-3.8l0,0
			c2.1,0,3.8,1.7,3.8,3.8V124.3z"/>
		<path class="st1" d="M318.3,124.3c0,2.1-1.7,3.8-3.8,3.8l0,0c-2.1,0-3.8-1.7-3.8-3.8v-6.2c0-2.1,1.7-3.8,3.8-3.8l0,0
			c2.1,0,3.8,1.7,3.8,3.8V124.3z"/>
		<path class="st30" d="M311.1,72.4c-3.4-2.2-11-3.8-19.9-3.8c-8.8,0-16.4,1.5-19.8,3.8c-5.8,3.4-8.4,14.1-8.4,24.9V118h10.3V97.2
			c0-7.1,2.3-11.5,3.7-13.7V122h28.4V84.1c1.6,2.4,3.8,6.6,3.8,13.1V118h10.3V97.2C319.5,86.5,316.9,75.8,311.1,72.4z"/>
		<path class="st3" d="M303.6,53.1c0,6.9-5.4,12.5-12.1,12.5c-6.7,0-12.1-5.6-12.1-12.5c0-6.9,5.4-12.5,12.1-12.5
			C298.2,40.6,303.6,46.2,303.6,53.1z"/>
		<path class="st4" d="M281.3,49.6c1.2-1.4,2.8-2.4,4.2-3.7c1-0.9,2.6-1,3.5,0c2.1,2.3,6,4.4,9,2.6c1.2-0.7,2.7-0.2,3.4,0.9
			c0.3,0.5,1.1,1,2,1.4c-1.1-5.8-6-10.1-11.9-10.1c-6.5,0-11.9,5.3-12.1,11.9C280.1,51.7,280.6,50.4,281.3,49.6z"/>
		<path class="st3" d="M305.1,53.5c0,1.8-0.6,3.3-1.3,3.3c-0.7,0-1.3-1.5-1.3-3.3c0-1.8,0.6-3.3,1.3-3.3
			C304.5,50.2,305.1,51.7,305.1,53.5z"/>
		<path class="st3" d="M280.7,53.5c0,1.8-0.6,3.3-1.3,3.3c-0.7,0-1.3-1.5-1.3-3.3c0-1.8,0.6-3.3,1.3-3.3
			C280.1,50.2,280.7,51.7,280.7,53.5z"/>
		<path class="st14" d="M305.7,122.1l-0.2-0.7H277v2.6c-6.8,16.8-7.6,48.7-7.3,59.3l12.8-0.4c-0.4-15.5,2.7-39,7.5-50.8h4.2
			c4.6,11.9,7.2,35.4,6.8,50.8l12.8,0.4C314,172.2,313.2,138.2,305.7,122.1z"/>
		<path class="st6" d="M284.3,186.6c0.1-0.4,0.2-0.9,0.2-1.4c0-2.5-2-4.4-4.4-4.4h-7.7c-2.5,0-4.4,2-4.4,4.4c0,0.5,0.1,0.9,0.2,1.4
			H284.3z"/>
		<path class="st6" d="M315.7,186.6c0.1-0.4,0.2-0.9,0.2-1.4c0-2.5-2-4.4-4.4-4.4h-7.7c-2.5,0-4.4,2-4.4,4.4c0,0.5,0.1,0.9,0.2,1.4
			H315.7z"/>
		<path class="st28" d="M313.9,165.3c-0.3-5.6-0.8-11.7-1.5-17.7h-14.8c1,5.7,1.8,11.8,2.2,17.7H313.9z"/>
		<path class="st28" d="M283.7,165.3c0.6-5.9,1.4-12.1,2.5-17.7h-15.2c-0.8,6.1-1.3,12.2-1.5,17.7H283.7z"/>
		<path class="st31" d="M273.8,104.5v-7.3c0-1.9,0.2-3.8,0.5-5.5h-11.6c-0.2,1.9-0.2,3.7-0.2,5.5v7.3H273.8z"/>
		<path class="st31" d="M308.7,104.5H320v-7.3c0-1.8-0.1-3.6-0.2-5.5h-11.6c0.4,1.7,0.6,3.6,0.6,5.5V104.5z"/>
		<path class="st8" d="M300,69.1c-2.7-0.3-5.6-0.5-8.7-0.5c-2.9,0-5.7,0.2-8.2,0.5v49.3H300V69.1z"/>
		<path class="st1" d="M286,68.7c0,0.1,0,0.3,0,0.4c0,2.1,2.3,3.8,5.2,3.8c2.9,0,5.2-2.1,5.2-4.2c0,0-2.5-0.2-5.1-0.2
			C288.7,68.6,286.1,68.7,286,68.7z"/>
		<rect x="276.3" y="118.5" class="st9" width="30.4" height="5.5"/>
		<g>
			<g>
				<g>
					<path class="st10" d="M295.4,125h-7.5v-7.7h7.5V125z M289,124h5.5v-5.6H289V124z"/>
				</g>
				<g>
					<rect x="292.7" y="120.3" class="st10" width="3.4" height="1.7"/>
				</g>
			</g>
		</g>
		<polygon class="st32" points="302.2,118.9 298.8,118.6 296.4,68.3 301.8,68.3 		"/>
		<polygon class="st32" points="279.6,118.7 283,118.4 285.8,68.3 280.3,68.3 		"/>
		<g>
			<g>
				<path class="st17" d="M304.8,44.6c0-0.1,0-0.2-0.1-0.3c-0.2-0.7-0.8-2.8-0.8-3.5c0-5.9-5.5-10.6-12.3-10.6
					c-6.8,0-12.3,4.8-12.3,10.6c0,0.7-0.6,2.7-1,3.8H304.8z"/>
				<circle class="st17" cx="291.5" cy="30.9" r="3.2"/>
				<g>
					<path class="st18" d="M284.4,32.2c1.1-0.7,2.4-1.2,3.7-1.6c0.1,0.2,0.1,0.5,0.1,0.7v8.5c0,1.1-0.9,1.9-1.9,1.9l0,0
						c-1.1,0-1.9-0.9-1.9-1.9V32.2z"/>
					<path class="st18" d="M294.9,30.5c1.3,0.3,2.6,0.8,3.7,1.5v7.9c0,1.1-0.9,1.9-1.9,1.9l0,0c-1.1,0-1.9-0.9-1.9-1.9v-8.5
						C294.7,31.1,294.8,30.8,294.9,30.5z"/>
				</g>
			</g>
			<path class="st18" d="M302.9,45c0,0.6-0.5,1-1,1h-21.2c-0.6,0-1-0.5-1-1l0,0c0-0.6,0.5-1,1-1h21.2C302.5,44,302.9,44.4,302.9,45
				L302.9,45z"/>
		</g>
	</g>
	<g class="st11">
		<path class="st1" d="M318.3,124.3c0,2.1-1.7,3.8-3.8,3.8l0,0c-2.1,0-3.8-1.7-3.8-3.8v-6.2c0-2.1,1.7-3.8,3.8-3.8l0,0
			c2.1,0,3.8,1.7,3.8,3.8V124.3z"/>
		<path class="st30" d="M311.1,72.4c-3.3-2.1-10.4-3.7-18.8-3.8V122h13V84.1c1.6,2.4,3.8,6.6,3.8,13.1V118h10.3V97.2
			C319.5,86.5,316.9,75.8,311.1,72.4z"/>
		<path class="st3" d="M292.4,40.6v24.9c6.3-0.5,11.2-5.9,11.2-12.4S298.7,41.1,292.4,40.6z"/>
		<path class="st4" d="M292.4,40.6v7.7c1.8,0.9,3.9,1.2,5.7,0.1c1.2-0.7,2.7-0.2,3.4,0.9c0.3,0.5,1.1,1,2,1.4
			C302.4,45.3,297.9,41.1,292.4,40.6z"/>
		<path class="st3" d="M305.1,53.5c0,1.8-0.6,3.3-1.3,3.3c-0.7,0-1.3-1.5-1.3-3.3c0-1.8,0.6-3.3,1.3-3.3
			C304.5,50.2,305.1,51.7,305.1,53.5z"/>
		<path class="st14" d="M305.7,122.1l-0.2-0.7h-13.1V132h1.8c4.6,11.9,7.2,35.4,6.8,50.8l12.8,0.4
			C314,172.2,313.2,138.2,305.7,122.1z"/>
		<path class="st6" d="M315.7,186.6c0.1-0.4,0.2-0.9,0.2-1.4c0-2.5-2-4.4-4.4-4.4h-7.7c-2.5,0-4.4,2-4.4,4.4c0,0.5,0.1,0.9,0.2,1.4
			H315.7z"/>
		<path class="st28" d="M313.9,165.3c-0.3-5.6-0.8-11.7-1.5-17.7h-14.8c1,5.7,1.8,11.8,2.2,17.7H313.9z"/>
		<path class="st31" d="M308.7,104.5H320v-7.3c0-1.8-0.1-3.6-0.2-5.5h-11.6c0.4,1.7,0.6,3.6,0.6,5.5V104.5z"/>
		<path class="st8" d="M292.4,68.6v49.8h7.6V69.1C297.6,68.8,295.1,68.6,292.4,68.6z"/>
		<path class="st1" d="M292.4,68.6v4.3c2.3-0.5,4-2.3,4-4.1C296.4,68.8,294.5,68.6,292.4,68.6z"/>
		<rect x="292.4" y="118.5" class="st9" width="14.3" height="5.5"/>
		<g>
			<g>
				<g>
					<polygon class="st10" points="292.4,117.3 292.4,118.4 294.4,118.4 294.4,124 292.4,124 292.4,125 295.4,125 295.4,117.3 					
						"/>
				</g>
				<g>
					<rect x="292.7" y="120.3" class="st10" width="3.4" height="1.7"/>
				</g>
			</g>
		</g>
		<polygon class="st32" points="302.2,118.9 298.8,118.6 296.4,68.3 301.8,68.3 		"/>
		<g>
			<g>
				<path class="st17" d="M292.4,44.6h12.4c0-0.1,0-0.2-0.1-0.3c-0.2-0.7-0.8-2.8-0.8-3.5c0-5.7-5.1-10.3-11.6-10.6V44.6z"/>
				<path class="st17" d="M292.4,27.8v6.1c1.3-0.4,2.3-1.6,2.3-3C294.7,29.4,293.7,28.2,292.4,27.8z"/>
				<g>
					<path class="st18" d="M294.9,30.5c1.3,0.3,2.6,0.8,3.7,1.5v7.9c0,1.1-0.9,1.9-1.9,1.9l0,0c-1.1,0-1.9-0.9-1.9-1.9v-8.5
						C294.7,31.1,294.8,30.8,294.9,30.5z"/>
				</g>
			</g>
			<path class="st18" d="M301.9,44h-9.5V46h9.5c0.6,0,1-0.5,1-1C302.9,44.4,302.5,44,301.9,44z"/>
		</g>
	</g>
</g>
</svg>
