<?xml version="1.0" encoding="utf-8"?>
<!-- Generator: Adobe Illustrator 23.0.1, SVG Export Plug-In . SVG Version: 6.00 Build 0)  -->
<svg version="1.1" id="Layer_1" xmlns="http://www.w3.org/2000/svg" xmlns:xlink="http://www.w3.org/1999/xlink" x="0px" y="0px"
	 viewBox="0 0 500 200" style="enable-background:new 0 0 500 200;" xml:space="preserve">
<style type="text/css">
	.st0{fill:#FFEAC7;}
	.st1{fill-rule:evenodd;clip-rule:evenodd;fill:#FFD535;}
	.st2{fill-rule:evenodd;clip-rule:evenodd;fill:#FFEAC7;}
	.st3{fill-rule:evenodd;clip-rule:evenodd;fill:#7E6055;}
	.st4{fill-rule:evenodd;clip-rule:evenodd;fill:#F5CD7E;}
	.st5{fill-rule:evenodd;clip-rule:evenodd;fill:#E4B559;}
	.st6{fill:#F7933D;}
	.st7{fill:#524C40;}
	.st8{fill:#BA722F;}
	.st9{fill:#E0B18D;}
	.st10{fill:none;stroke:#573B3F;stroke-width:0.7719;stroke-miterlimit:10;}
	.st11{opacity:0.5;}
	.st12{fill-rule:evenodd;clip-rule:evenodd;fill:#8B8A8B;}
	.st13{fill-rule:evenodd;clip-rule:evenodd;fill:#B3B4B6;}
	.st14{fill:#A5A6A8;}
	.st15{fill:#8B8A8B;}
	.st16{fill-rule:evenodd;clip-rule:evenodd;fill:#F4F5F4;}
	.st17{fill:#573B3F;}
	.st18{fill-rule:evenodd;clip-rule:evenodd;fill:#0988A1;}
	.st19{fill-rule:evenodd;clip-rule:evenodd;fill:#106E82;}
	.st20{fill:#0988A1;}
	.st21{fill:#CADB2B;}
	.st22{fill:#F5A61C;}
	.st23{fill:none;stroke:#573B3F;stroke-width:0.8647;stroke-miterlimit:10;}
	.st24{fill:#CFCFCE;}
	.st25{fill-rule:evenodd;clip-rule:evenodd;fill:#EBECEB;}
	.st26{fill-rule:evenodd;clip-rule:evenodd;fill:#E5E5E5;}
	.st27{fill-rule:evenodd;clip-rule:evenodd;fill:#E8EBE9;}
	.st28{fill-rule:evenodd;clip-rule:evenodd;fill:#C8C7C6;}
	.st29{fill:#EBECEB;}
	.st30{fill:#FFFFFF;}
	.st31{fill-rule:evenodd;clip-rule:evenodd;fill:#0E778E;}
	.st32{fill:#0E778E;}
	.st33{fill:#1D1D1B;}
	.st34{fill-rule:evenodd;clip-rule:evenodd;fill:#F7933D;}
	.st35{fill-rule:evenodd;clip-rule:evenodd;fill:#BA722F;}
</style>
<g>
	<g>
		<path class="st0" d="M17.3,141.3c0,1.6-1.3,2.9-2.9,2.9l0,0c-1.6,0-2.9-1.3-2.9-2.9v-4.6c0-1.6,1.3-2.9,2.9-2.9l0,0
			c1.6,0,2.9,1.3,2.9,2.9V141.3z"/>
		<path class="st0" d="M52.4,141.3c0,1.6-1.3,2.9-2.9,2.9l0,0c-1.6,0-2.9-1.3-2.9-2.9v-4.6c0-1.6,1.3-2.9,2.9-2.9l0,0
			c1.6,0,2.9,1.3,2.9,2.9V141.3z"/>
		<path class="st1" d="M47,102.3c-2.6-1.7-8.3-2.9-15-2.9c-6.6,0-12.3,1.2-14.9,2.8c-4.3,2.5-6.3,10.6-6.3,18.7v15.7h7.7v-15.7
			c0-5.3,1.7-8.6,2.8-10.3v28.9h21.4v-28.5c1.2,1.8,2.9,5,2.9,9.8v15.7h7.7v-15.7C53.3,112.9,51.4,104.8,47,102.3z"/>
		<path class="st2" d="M41.4,87.7c0,5.2-4.1,9.4-9.1,9.4c-5,0-9.1-4.2-9.1-9.4c0-5.2,4.1-9.4,9.1-9.4C37.3,78.4,41.4,82.6,41.4,87.7
			z"/>
		<path class="st3" d="M24.6,85.1c0.9-1.1,2.1-1.8,3.2-2.8c0.7-0.7,1.9-0.8,2.6,0c1.6,1.7,4.5,3.3,6.8,1.9c0.9-0.5,2-0.2,2.6,0.7
			c0.2,0.4,0.9,0.7,1.5,1c-0.8-4.3-4.5-7.6-9-7.6c-4.9,0-8.9,4-9.1,9C23.7,86.7,24,85.8,24.6,85.1z"/>
		<path class="st2" d="M42.5,88.1c0,1.4-0.4,2.5-1,2.5c-0.5,0-1-1.1-1-2.5c0-1.4,0.4-2.5,1-2.5C42.1,85.6,42.5,86.7,42.5,88.1z"/>
		<path class="st2" d="M24.1,88.1c0,1.4-0.4,2.5-1,2.5c-0.5,0-1-1.1-1-2.5c0-1.4,0.4-2.5,1-2.5C23.7,85.6,24.1,86.7,24.1,88.1z"/>
		<g>
			<g>
				<path class="st4" d="M42.2,82.3c0-0.1,0-0.1-0.1-0.2c-0.2-0.5-0.6-2.1-0.6-2.7c0-4.4-4.1-8-9.3-8c-5.1,0-9.3,3.6-9.3,8
					c0,0.5-0.4,2-0.8,2.9H42.2z"/>
				<circle class="st4" cx="32.2" cy="71.9" r="2.4"/>
				<g>
					<path class="st5" d="M26.8,73c0.8-0.5,1.8-0.9,2.8-1.2c0.1,0.2,0.1,0.3,0.1,0.5v6.4c0,0.8-0.6,1.4-1.4,1.4l0,0
						c-0.8,0-1.4-0.6-1.4-1.4V73z"/>
					<path class="st5" d="M34.7,71.7c1,0.2,1.9,0.6,2.8,1.1v5.9c0,0.8-0.6,1.4-1.4,1.4l0,0c-0.8,0-1.4-0.6-1.4-1.4v-6.4
						C34.6,72.1,34.6,71.9,34.7,71.7z"/>
				</g>
			</g>
			<path class="st5" d="M40.8,82.6c0,0.4-0.3,0.8-0.8,0.8h-16c-0.4,0-0.8-0.3-0.8-0.8l0,0c0-0.4,0.3-0.8,0.8-0.8h16
				C40.4,81.8,40.8,82.1,40.8,82.6L40.8,82.6z"/>
		</g>
		<path class="st6" d="M42.9,139.7L42.7,123H21.3v18.1c-5.1,12.6-5.7,36.6-5.5,44.6l9.6-0.3c-0.3-11.7,2-29.4,5.6-38.2h3.1
			c3.5,9,5.4,26.6,5.1,38.2l9.6,0.3C49.2,177.4,48.6,151.8,42.9,139.7z"/>
		<path class="st7" d="M26.8,188.2c0.1-0.3,0.2-0.7,0.2-1c0-1.8-1.5-3.3-3.3-3.3h-5.8c-1.8,0-3.3,1.5-3.3,3.3c0,0.4,0.1,0.7,0.2,1
			H26.8z"/>
		<path class="st7" d="M50.5,188.2c0.1-0.3,0.2-0.7,0.2-1c0-1.8-1.5-3.3-3.3-3.3h-5.8c-1.8,0-3.3,1.5-3.3,3.3c0,0.4,0.1,0.7,0.2,1
			H50.5z"/>
		<rect x="24.3" y="110" class="st6" width="15.1" height="16.4"/>
		<polygon class="st6" points="23.1,100.1 24.6,111.2 27.5,110.6 25.9,99.7 		"/>
		<polygon class="st6" points="40.7,100.1 39.2,111.2 36.3,110.6 37.8,99.7 		"/>
		<path class="st0" d="M28.1,99.5c0,0.1,0,0.3,0,0.3c0,1.6,1.7,2.9,3.9,2.9c2.1,0,3.9-1.6,3.9-3.2c0,0-1.9-0.1-3.8-0.2
			C30.1,99.4,28.2,99.5,28.1,99.5z"/>
		<path class="st8" d="M26.5,118.2v5.2c0,2,1.6,3.6,3.6,3.6h3.6c2,0,3.6-1.6,3.6-3.6v-5.2H26.5z"/>
		<rect x="20.8" y="137" class="st9" width="22.9" height="4.1"/>
		<rect x="30" y="136.5" class="st10" width="4.9" height="5"/>
		<rect x="33.6" y="138.7" class="st10" width="1.8" height="0.5"/>
	</g>
	<g class="st11">
		<path class="st0" d="M52.4,141.3c0,1.6-1.3,2.9-2.9,2.9l0,0c-1.6,0-2.9-1.3-2.9-2.9v-4.6c0-1.6,1.3-2.9,2.9-2.9l0,0
			c1.6,0,2.9,1.3,2.9,2.9V141.3z"/>
		<path class="st1" d="M47,102.3c-2.5-1.6-8.1-2.8-14.5-2.9v40.2h10.2v-28.5c1.2,1.8,2.9,5,2.9,9.8v15.7h7.7v-15.7
			C53.3,112.9,51.4,104.8,47,102.3z"/>
		<path class="st2" d="M32.5,78.4v18.8c4.9-0.1,8.9-4.3,8.9-9.4C41.4,82.6,37.4,78.5,32.5,78.4z"/>
		<path class="st3" d="M32.5,78.4V84c1.5,0.8,3.2,1.2,4.7,0.3c0.9-0.5,2-0.2,2.6,0.7c0.2,0.4,0.9,0.7,1.5,1
			C40.4,81.7,36.8,78.5,32.5,78.4z"/>
		<path class="st2" d="M42.5,88.1c0,1.4-0.4,2.5-1,2.5c-0.5,0-1-1.1-1-2.5c0-1.4,0.4-2.5,1-2.5C42.1,85.6,42.5,86.7,42.5,88.1z"/>
		<g>
			<g>
				<path class="st4" d="M32.5,82.3h9.7c0-0.1,0-0.1-0.1-0.2c-0.2-0.5-0.6-2.1-0.6-2.7c0-4.4-4-7.9-9.1-8V82.3z"/>
				<path class="st4" d="M32.5,69.6v4.7c1.2-0.2,2.1-1.2,2.1-2.4C34.5,70.7,33.7,69.7,32.5,69.6z"/>
				<g>
					<path class="st5" d="M34.7,71.7c1,0.2,1.9,0.6,2.8,1.1v5.9c0,0.8-0.6,1.4-1.4,1.4l0,0c-0.8,0-1.4-0.6-1.4-1.4v-6.4
						C34.6,72.1,34.6,71.9,34.7,71.7z"/>
				</g>
			</g>
			<path class="st5" d="M40,81.8h-7.5v1.5H40c0.4,0,0.8-0.3,0.8-0.8C40.8,82.1,40.4,81.8,40,81.8z"/>
		</g>
		<path class="st6" d="M42.9,139.7L42.7,123H32.5v24.2h1.7c3.5,9,5.4,26.6,5.1,38.2l9.6,0.3C49.2,177.4,48.6,151.8,42.9,139.7z"/>
		<path class="st7" d="M50.5,188.2c0.1-0.3,0.2-0.7,0.2-1c0-1.8-1.5-3.3-3.3-3.3h-5.8c-1.8,0-3.3,1.5-3.3,3.3c0,0.4,0.1,0.7,0.2,1
			H50.5z"/>
		<rect x="32.5" y="110" class="st6" width="6.9" height="16.4"/>
		<polygon class="st6" points="40.7,100.1 39.2,111.2 36.3,110.6 37.8,99.7 		"/>
		<path class="st0" d="M32.5,99.4v3.3c1.9-0.2,3.4-1.7,3.4-3.2C35.9,99.6,34.3,99.4,32.5,99.4z"/>
		<path class="st8" d="M32.5,118.2v8.8h1.2c2,0,3.6-1.6,3.6-3.6v-5.2H32.5z"/>
		<rect x="32.5" y="137" class="st9" width="11.2" height="4.1"/>
		<rect x="32.5" y="136.5" class="st10" width="2.3" height="5"/>
		<rect x="33.6" y="138.7" class="st10" width="1.8" height="0.5"/>
	</g>
</g>
<g>
	<g>
		<path class="st12" d="M175.7,44.9c0.8,0,1.5-0.7,1.5-1.5c0-0.8-0.7-1.5-1.5-1.5c-0.8,0-1.5,0.7-1.5,1.5
			C174.2,44.2,174.9,44.9,175.7,44.9z"/>
		<path class="st0" d="M156.7,130.1c0,2-1.6,3.6-3.6,3.6l0,0c-2,0-3.6-1.6-3.6-3.6v-5.8c0-2,1.6-3.6,3.6-3.6l0,0
			c2,0,3.6,1.6,3.6,3.6V130.1z"/>
		<path class="st0" d="M200.4,130.1c0,2-1.6,3.6-3.6,3.6l0,0c-2,0-3.6-1.6-3.6-3.6v-5.8c0-2,1.6-3.6,3.6-3.6l0,0
			c2,0,3.6,1.6,3.6,3.6V130.1z"/>
		<path class="st13" d="M193.7,81.5c-3.2-2.1-10.3-3.6-18.6-3.6c-8.3,0-15.4,1.4-18.6,3.5c-5.4,3.1-7.9,13.2-7.9,23.3v19.5h9.6
			v-19.5c0-6.6,2.1-10.7,3.5-12.8v36h26.6V92.5c1.5,2.2,3.6,6.2,3.6,12.2v19.5h9.6v-19.5C201.5,94.7,199.1,84.7,193.7,81.5z"/>
		<ellipse class="st2" cx="175.3" cy="63.5" rx="11.4" ry="11.7"/>
		<path class="st3" d="M165.8,60.2c1.2-1.3,2.6-2.3,3.9-3.5c0.9-0.8,2.4-1,3.3,0c2,2.2,5.6,4.1,8.4,2.4c1.1-0.7,2.5-0.2,3.2,0.8
			c0.3,0.5,1.1,0.9,1.8,1.3c-1-5.4-5.6-9.5-11.2-9.5c-6.1,0-11.1,5-11.3,11.2C164.7,62.1,165.1,61,165.8,60.2z"/>
		<path class="st2" d="M188.1,63.8c0,1.7-0.5,3.1-1.2,3.1s-1.2-1.4-1.2-3.1s0.5-3.1,1.2-3.1S188.1,62.1,188.1,63.8z"/>
		<path class="st2" d="M165.2,63.8c0,1.7-0.5,3.1-1.2,3.1s-1.2-1.4-1.2-3.1s0.5-3.1,1.2-3.1S165.2,62.1,165.2,63.8z"/>
		<path class="st13" d="M187.7,56.7c0-0.1,0-0.2-0.1-0.3c-0.2-0.7-0.7-2.6-0.7-3.3c0-5.5-5.1-10-11.5-10c-6.4,0-11.5,4.5-11.5,10
			c0,0.6-0.6,2.5-1,3.6H187.7z"/>
		<path class="st12" d="M189.4,56.7c0,0.7-0.6,1.2-1.2,1.2h-25.4c-0.7,0-1.2-0.6-1.2-1.2l0,0c0-0.7,0.6-1.2,1.2-1.2h25.4
			C188.9,55.5,189.4,56,189.4,56.7L189.4,56.7z"/>
		<path class="st14" d="M188.6,128l-0.2-0.7h-26.6v2.4c-6.3,15.7-7.1,45.6-6.8,55.5l12-0.3c-0.4-14.5,2.5-36.5,7-47.5h3.9
			c4.3,11.2,6.7,33.1,6.3,47.5l12,0.3C196.4,174.9,195.6,143.1,188.6,128z"/>
		<path class="st7" d="M168.5,188.4c0.1-0.4,0.2-0.8,0.2-1.3c0-2.3-1.9-4.2-4.2-4.2h-7.2c-2.3,0-4.2,1.9-4.2,4.2
			c0,0.4,0.1,0.9,0.2,1.3H168.5z"/>
		<path class="st7" d="M198,188.4c0.1-0.4,0.2-0.8,0.2-1.3c0-2.3-1.9-4.2-4.2-4.2h-7.2c-2.3,0-4.2,1.9-4.2,4.2
			c0,0.4,0.1,0.9,0.2,1.3H198z"/>
		<path class="st15" d="M196.3,168.4c-0.3-5.2-0.7-10.9-1.4-16.6H181c0.9,5.3,1.6,11,2.1,16.6H196.3z"/>
		<path class="st15" d="M168.1,168.4c0.5-5.6,1.3-11.3,2.3-16.6h-14.2c-0.7,5.7-1.2,11.4-1.4,16.6H168.1z"/>
		<path class="st12" d="M158.7,111.6v-6.9c0-1.8,0.2-3.5,0.5-5.1h-10.8c-0.2,1.7-0.2,3.5-0.2,5.1v6.9H158.7z"/>
		<path class="st12" d="M191.4,111.6H202v-6.9c0-1.7-0.1-3.4-0.2-5.1h-10.9c0.4,1.6,0.6,3.3,0.6,5.1V111.6z"/>
		<path class="st16" d="M183.2,78.4c-2.5-0.3-5.2-0.5-8.1-0.5c-2.7,0-5.3,0.2-7.7,0.4v46.2h15.8V78.4z"/>
		<path class="st0" d="M170.2,78.1c0,0.1,0,0.3,0,0.4c0,2,2.2,3.6,4.8,3.6c2.7,0,4.8-2,4.8-4c0,0-2.4-0.2-4.8-0.2
			C172.7,77.9,170.2,78.1,170.2,78.1z"/>
		<rect x="161.1" y="124.7" class="st17" width="28.5" height="5.1"/>
		<g>
			<g>
				<g>
					<path class="st9" d="M179,130.8h-7v-7.2h7V130.8z M172.9,129.8h5.1v-5.3h-5.1V129.8z"/>
				</g>
				<g>
					<rect x="176.5" y="126.4" class="st9" width="3.2" height="1.6"/>
				</g>
			</g>
		</g>
		<polygon class="st15" points="185.3,125.1 182.1,124.7 179.9,77.7 185,77.7 		"/>
		<polygon class="st15" points="164.2,124.9 167.4,124.6 169.9,77.7 164.8,77.7 		"/>
	</g>
	<g class="st11">
		<path class="st12" d="M175.7,42c-0.3,0-0.6,0.1-0.8,0.2v2.4c0.2,0.1,0.5,0.2,0.8,0.2c0.8,0,1.5-0.7,1.5-1.5
			C177.1,42.6,176.5,42,175.7,42z"/>
		<path class="st0" d="M200.4,130.1c0,2-1.6,3.6-3.6,3.6l0,0c-2,0-3.6-1.6-3.6-3.6v-5.8c0-2,1.6-3.6,3.6-3.6l0,0
			c2,0,3.6,1.6,3.6,3.6V130.1z"/>
		<path class="st13" d="M193.7,81.5c-3.2-2.1-10.3-3.6-18.6-3.6c-0.1,0-0.1,0-0.2,0v50h13.4V92.5c1.5,2.2,3.6,6.2,3.6,12.2v19.5h9.6
			v-19.5C201.5,94.7,199.1,84.7,193.7,81.5z"/>
		<path class="st2" d="M175.3,51.8c-0.1,0-0.3,0-0.4,0v23.3c0.1,0,0.3,0,0.4,0c6.3,0,11.4-5.2,11.4-11.7S181.6,51.8,175.3,51.8z"/>
		<path class="st3" d="M175.3,51.8c-0.1,0-0.3,0-0.4,0v6.5c2,1.3,4.5,2.1,6.5,0.8c1.1-0.7,2.5-0.2,3.2,0.8c0.3,0.5,1.1,0.9,1.8,1.3
			C185.5,55.9,180.8,51.8,175.3,51.8z"/>
		<path class="st2" d="M188.1,63.8c0,1.7-0.5,3.1-1.2,3.1s-1.2-1.4-1.2-3.1s0.5-3.1,1.2-3.1S188.1,62.1,188.1,63.8z"/>
		<path class="st13" d="M174.9,56.7h12.8c0-0.1,0-0.2-0.1-0.3c-0.2-0.7-0.7-2.6-0.7-3.3c0-5.5-5.1-10-11.5-10c-0.2,0-0.3,0-0.5,0
			V56.7z"/>
		<path class="st12" d="M188.2,55.5h-13.3V58h13.3c0.7,0,1.2-0.6,1.2-1.2C189.4,56,188.9,55.5,188.2,55.5z"/>
		<path class="st14" d="M188.6,128l-0.2-0.7h-13.5v10h2.9c4.3,11.2,6.7,33.1,6.3,47.5l12,0.3C196.4,174.9,195.6,143.1,188.6,128z"/>
		<path class="st7" d="M198,188.4c0.1-0.4,0.2-0.8,0.2-1.3c0-2.3-1.9-4.2-4.2-4.2h-7.2c-2.3,0-4.2,1.9-4.2,4.2
			c0,0.4,0.1,0.9,0.2,1.3H198z"/>
		<path class="st15" d="M196.3,168.4c-0.3-5.2-0.7-10.9-1.4-16.6H181c0.9,5.3,1.6,11,2.1,16.6H196.3z"/>
		<path class="st12" d="M191.4,111.6H202v-6.9c0-1.7-0.1-3.4-0.2-5.1h-10.9c0.4,1.6,0.6,3.3,0.6,5.1V111.6z"/>
		<path class="st16" d="M175.1,77.9c-0.1,0-0.1,0-0.2,0v46.6h8.3V78.4C180.7,78.1,178,77.9,175.1,77.9z"/>
		<path class="st0" d="M175.1,77.9c-0.1,0-0.1,0-0.2,0v4.2c0,0,0.1,0,0.1,0c2.7,0,4.8-2,4.8-4C179.9,78.1,177.5,77.9,175.1,77.9z"/>
		<rect x="174.9" y="124.7" class="st17" width="14.6" height="5.1"/>
		<g>
			<g>
				<g>
					<polygon class="st9" points="174.9,123.6 174.9,124.5 178,124.5 178,129.8 174.9,129.8 174.9,130.8 179,130.8 179,123.6 					
						"/>
				</g>
				<g>
					<rect x="176.5" y="126.4" class="st9" width="3.2" height="1.6"/>
				</g>
			</g>
		</g>
		<polygon class="st15" points="185.3,125.1 182.1,124.7 179.9,77.7 185,77.7 		"/>
	</g>
</g>
<g>
	<g>
		<path class="st0" d="M227,126.3c0,2.1-1.7,3.8-3.8,3.8l0,0c-2.1,0-3.8-1.7-3.8-3.8v-6.2c0-2.1,1.7-3.8,3.8-3.8l0,0
			c2.1,0,3.8,1.7,3.8,3.8V126.3z"/>
		<path class="st0" d="M273.6,126.3c0,2.1-1.7,3.8-3.8,3.8l0,0c-2.1,0-3.8-1.7-3.8-3.8v-6.2c0-2.1,1.7-3.8,3.8-3.8l0,0
			c2.1,0,3.8,1.7,3.8,3.8V126.3z"/>
		<path class="st16" d="M266.5,74.3c-3.4-2.2-11-3.8-19.9-3.8c-8.8,0-16.4,1.5-19.8,3.8c-5.8,3.4-8.4,14.1-8.4,24.9V120h10.3V99.2
			c0-7.1,2.3-11.5,3.7-13.7V124h28.4V86.1c1.6,2.4,3.8,6.6,3.8,13.1V120h10.3V99.2C274.8,88.5,272.2,77.7,266.5,74.3z"/>
		<ellipse class="st2" cx="246.8" cy="55.1" rx="12.1" ry="12.5"/>
		<path class="st3" d="M236.7,51.6c1.2-1.4,2.8-2.4,4.2-3.7c1-0.9,2.6-1,3.5,0c2.1,2.3,6,4.4,9,2.6c1.2-0.7,2.7-0.2,3.4,0.9
			c0.3,0.5,1.1,1,2,1.4c-1.1-5.8-6-10.1-11.9-10.1c-6.5,0-11.9,5.3-12.1,11.9C235.5,53.7,235.9,52.4,236.7,51.6z"/>
		<path class="st2" d="M260.5,55.5c0,1.8-0.6,3.3-1.3,3.3s-1.3-1.5-1.3-3.3s0.6-3.3,1.3-3.3S260.5,53.7,260.5,55.5z"/>
		<path class="st2" d="M236,55.5c0,1.8-0.6,3.3-1.3,3.3c-0.7,0-1.3-1.5-1.3-3.3s0.6-3.3,1.3-3.3C235.5,52.2,236,53.7,236,55.5z"/>
		<g>
			<g>
				<path class="st18" d="M260.1,47.8c0-0.1,0-0.2-0.1-0.3c-0.2-0.7-0.8-2.8-0.8-3.5c0-5.9-5.5-10.6-12.3-10.6
					c-6.8,0-12.3,4.8-12.3,10.6c0,0.7-0.6,2.7-1,3.8H260.1z"/>
				<circle class="st18" cx="246.7" cy="34" r="3.2"/>
				<g>
					<g>
						<path class="st19" d="M239.6,35.4c1.1-0.7,2.4-1.2,3.7-1.6c0.1,0.2,0.1,0.5,0.1,0.7v8.5c0,1.1-0.9,1.9-1.9,1.9l0,0
							c-1.1,0-1.9-0.9-1.9-1.9V35.4z"/>
						<path class="st19" d="M250.1,33.7c1.3,0.3,2.6,0.8,3.7,1.5v7.9c0,1.1-0.9,1.9-1.9,1.9l0,0c-1.1,0-1.9-0.9-1.9-1.9v-8.5
							C250,34.2,250,34,250.1,33.7z"/>
					</g>
				</g>
			</g>
			<path class="st19" d="M258.2,48.2c0,0.6-0.5,1-1,1H236c-0.6,0-1-0.5-1-1l0,0c0-0.6,0.5-1,1-1h21.2
				C257.7,47.2,258.2,47.6,258.2,48.2L258.2,48.2z"/>
		</g>
		<path class="st20" d="M261,124l-0.2-0.7h-28.5v2.6c-6.8,16.8-7.6,48.7-7.3,59.3l12.8-0.4c-0.4-15.5,2.7-39,7.5-50.8h4.2
			c4.6,11.9,7.2,35.4,6.8,50.8l12.8,0.4C269.4,174.2,268.5,140.2,261,124z"/>
		<path class="st7" d="M239.6,188.6c0.1-0.4,0.2-0.9,0.2-1.4c0-2.5-2-4.4-4.4-4.4h-7.7c-2.5,0-4.4,2-4.4,4.4c0,0.5,0.1,0.9,0.2,1.4
			H239.6z"/>
		<path class="st7" d="M271,188.6c0.1-0.4,0.2-0.9,0.2-1.4c0-2.5-2-4.4-4.4-4.4h-7.7c-2.5,0-4.4,2-4.4,4.4c0,0.5,0.1,0.9,0.2,1.4
			H271z"/>
		<path class="st0" d="M241.3,70.7c0,0.1,0,0.3,0,0.4c0,2.1,2.3,3.8,5.2,3.8c2.9,0,5.2-2.1,5.2-4.2c0,0-2.5-0.2-5.1-0.2
			C244,70.5,241.4,70.7,241.3,70.7z"/>
		<rect x="231.6" y="120.5" class="st17" width="30.4" height="5.5"/>
		<path class="st9" d="M251.4,122.3h-0.6v-3h-7.5v7.7h7.5v-3h0.6V122.3z M249.8,126h-5.5v-5.6h5.5v2h-1.7v1.7h1.7V126z"/>
		<path class="st21" d="M236.6,82.8v-1.1c0-0.3,0-0.5,0-0.8c0-0.3,0-0.5,0-0.8v-9l-2.8,0.4l-0.4,16.7l-1.2,0.2l-0.6,32l10.2,0.2
			l0-31.1C236.6,89.5,236.6,82.8,236.6,82.8z"/>
		<path class="st21" d="M260.7,88.5l-1.2-0.2l-0.4-16.7l-2.8-0.4v11.7c0,0,0,6.9-4.5,7.1l0,30.8l9.5-0.2L260.7,88.5z"/>
		<rect x="231.6" y="109.5" class="st22" width="10.2" height="1"/>
		<rect x="231.6" y="112.8" class="st22" width="10.2" height="1"/>
		<rect x="251.9" y="109.5" class="st22" width="9.4" height="1"/>
		<rect x="251.9" y="112.8" class="st22" width="9.4" height="1"/>
	</g>
	<g class="st11">
		<path class="st0" d="M273.6,126.3c0,2.1-1.7,3.8-3.8,3.8l0,0c-2.1,0-3.8-1.7-3.8-3.8v-6.2c0-2.1,1.7-3.8,3.8-3.8l0,0
			c2.1,0,3.8,1.7,3.8,3.8V126.3z"/>
		<path class="st16" d="M266.5,74.3c-3.4-2.2-11-3.8-19.9-3.8c-0.1,0-0.2,0-0.3,0V124h14.5V86.1c1.6,2.4,3.8,6.6,3.8,13.1V120h10.3
			V99.2C274.8,88.5,272.2,77.7,266.5,74.3z"/>
		<path class="st2" d="M246.8,42.6c-0.2,0-0.4,0-0.5,0v24.9c0.2,0,0.4,0,0.5,0c6.7,0,12.1-5.6,12.1-12.5S253.5,42.6,246.8,42.6z"/>
		<path class="st3" d="M246.8,42.6c-0.2,0-0.4,0-0.5,0v6.9c2.1,1.5,4.9,2.3,7.1,0.9c1.2-0.7,2.7-0.2,3.4,0.9c0.3,0.5,1.1,1,2,1.4
			C257.7,46.9,252.7,42.6,246.8,42.6z"/>
		<path class="st2" d="M260.5,55.5c0,1.8-0.6,3.3-1.3,3.3s-1.3-1.5-1.3-3.3s0.6-3.3,1.3-3.3S260.5,53.7,260.5,55.5z"/>
		<g>
			<g>
				<path class="st18" d="M246.3,47.8h13.8c0-0.1,0-0.2-0.1-0.3c-0.2-0.7-0.8-2.8-0.8-3.5c0-5.9-5.5-10.6-12.3-10.6
					c-0.2,0-0.4,0-0.6,0V47.8z"/>
				<path class="st18" d="M246.7,30.9c-0.1,0-0.3,0-0.4,0v6.3c0.1,0,0.3,0,0.4,0c1.7,0,3.2-1.4,3.2-3.2
					C249.9,32.3,248.5,30.9,246.7,30.9z"/>
				<g>
					<g>
						<path class="st19" d="M250.1,33.7c1.3,0.3,2.6,0.8,3.7,1.5v7.9c0,1.1-0.9,1.9-1.9,1.9l0,0c-1.1,0-1.9-0.9-1.9-1.9v-8.5
							C250,34.2,250,34,250.1,33.7z"/>
					</g>
				</g>
			</g>
			<path class="st19" d="M257.1,47.2h-10.8v2.1h10.8c0.6,0,1-0.5,1-1C258.2,47.6,257.7,47.2,257.1,47.2z"/>
		</g>
		<path class="st20" d="M261,124l-0.2-0.7h-14.5V134h3.2c4.6,11.9,7.2,35.4,6.8,50.8l12.8,0.4C269.4,174.2,268.5,140.2,261,124z"/>
		<path class="st7" d="M271,188.6c0.1-0.4,0.2-0.9,0.2-1.4c0-2.5-2-4.4-4.4-4.4h-7.7c-2.5,0-4.4,2-4.4,4.4c0,0.5,0.1,0.9,0.2,1.4
			H271z"/>
		<path class="st0" d="M246.6,70.6c-0.1,0-0.2,0-0.3,0V75c0.1,0,0.2,0,0.2,0c2.9,0,5.2-2.1,5.2-4.2
			C251.7,70.8,249.2,70.6,246.6,70.6z"/>
		<rect x="246.3" y="120.5" class="st17" width="15.7" height="5.5"/>
		<polygon class="st9" points="250.8,122.3 250.8,119.3 246.3,119.3 246.3,120.3 249.8,120.3 249.8,122.3 248.1,122.3 248.1,124 
			249.8,124 249.8,126 246.3,126 246.3,127 250.8,127 250.8,124 251.4,124 251.4,122.3 		"/>
		<path class="st21" d="M260.7,88.5l-1.2-0.2l-0.4-16.7l-2.8-0.4v11.7c0,0,0,6.9-4.5,7.1l0,30.8l9.5-0.2L260.7,88.5z"/>
		<rect x="251.9" y="109.5" class="st22" width="9.4" height="1"/>
		<rect x="251.9" y="112.8" class="st22" width="9.4" height="1"/>
	</g>
</g>
<g>
	<g>
		<path class="st0" d="M87.1,136.2c0,1.8-1.5,3.2-3.2,3.2l0,0c-1.8,0-3.2-1.5-3.2-3.2V131c0-1.8,1.5-3.2,3.2-3.2l0,0
			c1.8,0,3.2,1.5,3.2,3.2V136.2z"/>
		<path class="st0" d="M126.3,136.2c0,1.8-1.5,3.2-3.2,3.2l0,0c-1.8,0-3.2-1.5-3.2-3.2V131c0-1.8,1.5-3.2,3.2-3.2l0,0
			c1.8,0,3.2,1.5,3.2,3.2V136.2z"/>
		<path class="st16" d="M120.3,92.4c-2.9-1.9-9.3-3.2-16.8-3.2c-7.4,0-13.8,1.3-16.7,3.2c-4.9,2.8-7.1,11.9-7.1,21v17.5h8.6v-17.5
			c0-5.9,1.9-9.7,3.1-11.5v32.4h24v-31.9c1.3,2,3.2,5.6,3.2,11v17.5h8.6v-17.5C127.4,104.4,125.2,95.3,120.3,92.4z"/>
		<ellipse class="st2" cx="103.8" cy="76.2" rx="10.2" ry="10.5"/>
		<path class="st3" d="M95.2,73.2c1-1.2,2.4-2.1,3.6-3.1c0.8-0.7,2.2-0.9,3,0c1.8,1.9,5.1,3.7,7.6,2.2c1-0.6,2.3-0.2,2.9,0.8
			c0.3,0.4,1,0.8,1.6,1.2c-0.9-4.9-5.1-8.5-10-8.5c-5.5,0-10,4.5-10.2,10.1C94.2,75,94.6,74,95.2,73.2z"/>
		<path class="st2" d="M115.3,76.5c0,1.5-0.5,2.8-1.1,2.8c-0.6,0-1.1-1.2-1.1-2.8c0-1.5,0.5-2.8,1.1-2.8
			C114.8,73.8,115.3,75,115.3,76.5z"/>
		<path class="st2" d="M94.7,76.5c0,1.5-0.5,2.8-1.1,2.8c-0.6,0-1.1-1.2-1.1-2.8c0-1.5,0.5-2.8,1.1-2.8C94.2,73.8,94.7,75,94.7,76.5
			z"/>
		<g>
			<g>
				<path class="st4" d="M114.9,70.1c0-0.1,0-0.2-0.1-0.3c-0.2-0.6-0.7-2.3-0.7-3c0-5-4.6-9-10.4-9c-5.7,0-10.4,4-10.4,9
					c0,0.6-0.5,2.3-0.9,3.2H114.9z"/>
				<circle class="st4" cx="103.7" cy="58.5" r="2.7"/>
				<g>
					<path class="st5" d="M97.7,59.6c0.9-0.6,2-1.1,3.1-1.3c0.1,0.2,0.1,0.4,0.1,0.6v7.2c0,0.9-0.7,1.6-1.6,1.6l0,0
						c-0.9,0-1.6-0.7-1.6-1.6V59.6z"/>
					<path class="st5" d="M106.6,58.2c1.1,0.3,2.2,0.7,3.1,1.2v6.6c0,0.9-0.7,1.6-1.6,1.6l0,0c-0.9,0-1.6-0.7-1.6-1.6v-7.2
						C106.4,58.6,106.5,58.4,106.6,58.2z"/>
				</g>
			</g>
			<path class="st5" d="M113.3,70.4c0,0.5-0.4,0.9-0.9,0.9H94.6c-0.5,0-0.9-0.4-0.9-0.9l0,0c0-0.5,0.4-0.9,0.9-0.9h17.9
				C112.9,69.5,113.3,69.9,113.3,70.4L113.3,70.4z"/>
		</g>
		<path class="st20" d="M115.7,134.3l-0.2-0.6h-24v2.2c-5.7,14.1-6.4,41-6.1,50l10.8-0.3c-0.4-13.1,2.3-32.9,6.3-42.8h3.5
			c3.9,10.1,6.1,29.8,5.7,42.8l10.8,0.3C122.8,176.6,122.1,147.9,115.7,134.3z"/>
		<path class="st7" d="M97.7,188.7c0.1-0.4,0.2-0.8,0.2-1.2c0-2.1-1.7-3.7-3.7-3.7h-6.5c-2.1,0-3.7,1.7-3.7,3.7
			c0,0.4,0.1,0.8,0.2,1.2H97.7z"/>
		<path class="st7" d="M124.2,188.7c0.1-0.4,0.2-0.8,0.2-1.2c0-2.1-1.7-3.7-3.7-3.7h-6.5c-2.1,0-3.7,1.7-3.7,3.7
			c0,0.4,0.1,0.8,0.2,1.2H124.2z"/>
		<path class="st0" d="M99.1,89.4c0,0.1,0,0.3,0,0.3c0,1.8,1.9,3.2,4.4,3.2c2.4,0,4.4-1.8,4.4-3.6c0,0-2.1-0.2-4.3-0.2
			C101.4,89.2,99.2,89.4,99.1,89.4z"/>
		<rect x="90.9" y="131.4" class="st9" width="25.7" height="4.6"/>
		<rect x="101.2" y="130.8" class="st23" width="5.5" height="5.6"/>
		<rect x="105.2" y="133.3" class="st23" width="2" height="0.5"/>
		<path class="st24" d="M105.9,100.2v3.2c0,1.2,1,2.2,2.2,2.2h2.2c1.2,0,2.2-1,2.2-2.2v-3.2H105.9z"/>
	</g>
	<g class="st11">
		<path class="st0" d="M126.3,136.2c0,1.8-1.5,3.2-3.2,3.2l0,0c-1.8,0-3.2-1.5-3.2-3.2V131c0-1.8,1.5-3.2,3.2-3.2l0,0
			c1.8,0,3.2,1.5,3.2,3.2V136.2z"/>
		<path class="st16" d="M120.3,92.4c-2.8-1.9-9.1-3.2-16.4-3.2v45h11.6v-31.9c1.3,2,3.2,5.6,3.2,11v17.5h8.6v-17.5
			C127.4,104.4,125.2,95.3,120.3,92.4z"/>
		<path class="st2" d="M103.9,65.7v21c5.6-0.1,10.1-4.8,10.1-10.5C114,70.4,109.5,65.7,103.9,65.7z"/>
		<path class="st3" d="M103.9,65.7v6.2c1.7,1,3.7,1.4,5.4,0.4c1-0.6,2.3-0.2,2.9,0.8c0.3,0.4,1,0.8,1.6,1.2
			C112.9,69.4,108.8,65.7,103.9,65.7z"/>
		<path class="st2" d="M115.3,76.5c0,1.5-0.5,2.8-1.1,2.8c-0.6,0-1.1-1.2-1.1-2.8c0-1.5,0.5-2.8,1.1-2.8
			C114.8,73.8,115.3,75,115.3,76.5z"/>
		<g>
			<g>
				<path class="st4" d="M103.9,70.1h11c0-0.1,0-0.2-0.1-0.3c-0.2-0.6-0.7-2.3-0.7-3c0-4.9-4.6-8.9-10.3-9V70.1z"/>
				<path class="st4" d="M103.9,55.8v5.3c1.4-0.1,2.4-1.3,2.4-2.7C106.4,57.1,105.3,55.9,103.9,55.8z"/>
				<g>
					<path class="st5" d="M106.6,58.2c1.1,0.3,2.2,0.7,3.1,1.2v6.6c0,0.9-0.7,1.6-1.6,1.6l0,0c-0.9,0-1.6-0.7-1.6-1.6v-7.2
						C106.4,58.6,106.5,58.4,106.6,58.2z"/>
				</g>
			</g>
			<path class="st5" d="M112.5,69.5h-8.6v1.7h8.6c0.5,0,0.9-0.4,0.9-0.9S112.9,69.5,112.5,69.5z"/>
		</g>
		<path class="st20" d="M115.7,134.3l-0.2-0.6h-11.6v9h2.1c3.9,10.1,6.1,29.8,5.7,42.8l10.8,0.3
			C122.8,176.6,122.1,147.9,115.7,134.3z"/>
		<path class="st7" d="M124.2,188.7c0.1-0.4,0.2-0.8,0.2-1.2c0-2.1-1.7-3.7-3.7-3.7h-6.5c-2.1,0-3.7,1.7-3.7,3.7
			c0,0.4,0.1,0.8,0.2,1.2H124.2z"/>
		<path class="st0" d="M103.9,89.2V93c2.2-0.2,4-1.9,4-3.6C107.9,89.4,106,89.3,103.9,89.2z"/>
		<rect x="103.9" y="131.4" class="st9" width="12.7" height="4.6"/>
		<rect x="103.9" y="130.8" class="st23" width="2.8" height="5.6"/>
		<rect x="105.2" y="133.3" class="st23" width="2" height="0.5"/>
		<path class="st24" d="M105.9,100.2v3.2c0,1.2,1,2.2,2.2,2.2h2.2c1.2,0,2.2-1,2.2-2.2v-3.2H105.9z"/>
	</g>
</g>
<g>
	<g>
		<path class="st0" d="M444.6,134.9c0,1.8-1.5,3.2-3.2,3.2l0,0c-1.8,0-3.2-1.5-3.2-3.2v-5.2c0-1.8,1.5-3.2,3.2-3.2l0,0
			c1.8,0,3.2,1.5,3.2,3.2V134.9z"/>
		<path class="st0" d="M483.9,134.9c0,1.8-1.5,3.2-3.2,3.2l0,0c-1.8,0-3.2-1.5-3.2-3.2v-5.2c0-1.8,1.5-3.2,3.2-3.2l0,0
			c1.8,0,3.2,1.5,3.2,3.2V134.9z"/>
		<path class="st25" d="M477.9,91.2c-2.9-1.9-9.3-3.2-16.8-3.2c-7.4,0-13.8,1.3-16.7,3.2c-4.9,2.8-7.1,11.9-7.1,21v17.5h8.6v-17.5
			c0-5.9,1.9-9.7,3.1-11.5V133h24v-31.9c1.3,2,3.2,5.6,3.2,11v17.5h8.6v-17.5C484.9,103.1,482.7,94,477.9,91.2z"/>
		<rect x="459.6" y="90.7" class="st26" width="3.5" height="39.9"/>
		<ellipse class="st2" cx="461.3" cy="74.9" rx="10.2" ry="10.5"/>
		<path class="st3" d="M452.8,72c1-1.2,2.4-2.1,3.6-3.1c0.8-0.7,2.2-0.9,3,0c1.8,1.9,5.1,3.7,7.6,2.2c1-0.6,2.3-0.2,2.9,0.8
			c0.3,0.4,1,0.8,1.6,1.2c-0.9-4.9-5.1-8.5-10-8.5c-5.5,0-10,4.5-10.2,10.1C451.8,73.7,452.1,72.7,452.8,72z"/>
		<path class="st2" d="M472.8,75.3c0,1.5-0.5,2.8-1.1,2.8s-1.1-1.2-1.1-2.8c0-1.5,0.5-2.8,1.1-2.8S472.8,73.7,472.8,75.3z"/>
		<path class="st2" d="M452.2,75.3c0,1.5-0.5,2.8-1.1,2.8c-0.6,0-1.1-1.2-1.1-2.8c0-1.5,0.5-2.8,1.1-2.8
			C451.7,72.5,452.2,73.7,452.2,75.3z"/>
		<g>
			<g>
				<path class="st27" d="M472.5,68.8c0-0.1,0-0.2-0.1-0.3c-0.2-0.6-0.7-2.3-0.7-3c0-5-4.6-9-10.4-9c-5.7,0-10.4,4-10.4,9
					c0,0.6-0.5,2.3-0.9,3.2H472.5z"/>
			</g>
			<path class="st28" d="M470.9,69.1c0,0.5-0.4,0.9-0.9,0.9h-17.9c-0.5,0-0.9-0.4-0.9-0.9l0,0c0-0.5,0.4-0.9,0.9-0.9H470
				C470.5,68.2,470.9,68.6,470.9,69.1L470.9,69.1z"/>
		</g>
		<path class="st29" d="M473.3,133.1l-0.2-0.6h-24v2.2c-5.7,14.1-6.4,41-6.1,50l10.8-0.3c-0.4-13.1,2.3-32.9,6.3-42.8h3.5
			c3.9,10.1,6.1,29.8,5.7,42.8l10.8,0.3C480.3,175.3,479.6,146.7,473.3,133.1z"/>
		<path class="st7" d="M455.2,187.5c0.1-0.4,0.2-0.8,0.2-1.2c0-2.1-1.7-3.7-3.7-3.7h-6.5c-2.1,0-3.7,1.7-3.7,3.7
			c0,0.4,0.1,0.8,0.2,1.2H455.2z"/>
		<path class="st7" d="M481.7,187.5c0.1-0.4,0.2-0.8,0.2-1.2c0-2.1-1.7-3.7-3.7-3.7h-6.5c-2.1,0-3.7,1.7-3.7,3.7
			c0,0.4,0.1,0.8,0.2,1.2H481.7z"/>
		<rect x="448.5" y="130.1" class="st24" width="25.7" height="4.6"/>
		<g>
			<path class="st30" d="M462.1,98.2c0,0.5-0.4,0.9-0.9,0.9c-0.5,0-0.9-0.4-0.9-0.9c0-0.5,0.4-0.9,0.9-0.9
				C461.7,97.3,462.1,97.7,462.1,98.2z"/>
			<path class="st30" d="M462.1,104.5c0,0.5-0.4,0.9-0.9,0.9c-0.5,0-0.9-0.4-0.9-0.9c0-0.5,0.4-0.9,0.9-0.9
				C461.7,103.7,462.1,104,462.1,104.5z"/>
			<path class="st30" d="M462.1,110.9c0,0.5-0.4,0.9-0.9,0.9c-0.5,0-0.9-0.4-0.9-0.9c0-0.5,0.4-0.9,0.9-0.9
				C461.7,110,462.1,110.4,462.1,110.9z"/>
			<path class="st30" d="M462.1,117.2c0,0.5-0.4,0.9-0.9,0.9c-0.5,0-0.9-0.4-0.9-0.9c0-0.5,0.4-0.9,0.9-0.9
				C461.7,116.4,462.1,116.7,462.1,117.2z"/>
			<path class="st30" d="M462.1,123.6c0,0.5-0.4,0.9-0.9,0.9c-0.5,0-0.9-0.4-0.9-0.9c0-0.5,0.4-0.9,0.9-0.9
				C461.7,122.7,462.1,123.1,462.1,123.6z"/>
		</g>
		<path class="st0" d="M456.7,88.1c0,0.1,0,0.3,0,0.3c0,1.8,1.9,3.2,4.4,3.2c2.4,0,4.4-1.8,4.4-3.6c0,0-2.1-0.2-4.3-0.2
			C459,88,456.8,88.1,456.7,88.1z"/>
	</g>
	<g class="st11">
		<path class="st0" d="M483.9,134.9c0,1.8-1.5,3.2-3.2,3.2l0,0c-1.8,0-3.2-1.5-3.2-3.2v-5.2c0-1.8,1.5-3.2,3.2-3.2l0,0
			c1.8,0,3.2,1.5,3.2,3.2V134.9z"/>
		<path class="st25" d="M477.9,91.2c-2.7-1.8-8.5-3-15.4-3.2v45h10.6v-31.9c1.3,2,3.2,5.6,3.2,11v17.5h8.6v-17.5
			C484.9,103.1,482.7,94,477.9,91.2z"/>
		<rect x="462.5" y="90.7" class="st26" width="0.5" height="39.9"/>
		<path class="st2" d="M462.5,64.5v20.9c5.1-0.6,9-5.1,9-10.4S467.6,65.1,462.5,64.5z"/>
		<path class="st3" d="M462.5,64.5v6.6c1.4,0.6,3,0.7,4.3-0.1c1-0.6,2.3-0.2,2.9,0.8c0.3,0.4,1,0.8,1.6,1.2
			C470.5,68.5,467,65,462.5,64.5z"/>
		<path class="st2" d="M472.8,75.3c0,1.5-0.5,2.8-1.1,2.8s-1.1-1.2-1.1-2.8c0-1.5,0.5-2.8,1.1-2.8S472.8,73.7,472.8,75.3z"/>
		<g>
			<g>
				<path class="st27" d="M462.5,68.8h10c0-0.1,0-0.2-0.1-0.3c-0.2-0.6-0.7-2.3-0.7-3c0-4.6-4-8.4-9.2-8.9V68.8z"/>
			</g>
			<path class="st28" d="M470,68.2h-7.5V70h7.5c0.5,0,0.9-0.4,0.9-0.9C470.9,68.6,470.5,68.2,470,68.2z"/>
		</g>
		<path class="st29" d="M473.3,133.1l-0.2-0.6h-10.6v9h1c3.9,10.1,6.1,29.8,5.7,42.8l10.8,0.3C480.3,175.3,479.6,146.7,473.3,133.1z
			"/>
		<path class="st7" d="M481.7,187.5c0.1-0.4,0.2-0.8,0.2-1.2c0-2.1-1.7-3.7-3.7-3.7h-6.5c-2.1,0-3.7,1.7-3.7,3.7
			c0,0.4,0.1,0.8,0.2,1.2H481.7z"/>
		<rect x="462.5" y="130.1" class="st24" width="11.6" height="4.6"/>
		<path class="st0" d="M462.5,88v3.5c1.7-0.5,2.9-1.9,2.9-3.3C465.4,88.1,464.1,88,462.5,88z"/>
	</g>
</g>
<g>
	<g>
		<path class="st0" d="M371.3,129.4c0,2-1.6,3.6-3.6,3.6l0,0c-2,0-3.6-1.6-3.6-3.6v-5.8c0-2,1.6-3.6,3.6-3.6l0,0
			c2,0,3.6,1.6,3.6,3.6V129.4z"/>
		<path class="st0" d="M414.9,129.4c0,2-1.6,3.6-3.6,3.6l0,0c-2,0-3.6-1.6-3.6-3.6v-5.8c0-2,1.6-3.6,3.6-3.6l0,0
			c2,0,3.6,1.6,3.6,3.6V129.4z"/>
		<path class="st18" d="M408.2,80.8c-3.2-2.1-10.3-3.6-18.6-3.6c-8.3,0-15.4,1.4-18.6,3.5c-5.4,3.1-7.9,13.2-7.9,23.3v19.5h9.6V104
			c0-6.6,2.1-10.7,3.5-12.8v36h26.6V91.8c1.5,2.2,3.6,6.2,3.6,12.2v19.5h9.6V104C416.1,94,413.6,84,408.2,80.8z"/>
		<rect x="387.9" y="80.3" class="st31" width="3.8" height="44.3"/>
		<path class="st2" d="M401.2,62.8c0,6.4-5.1,11.7-11.4,11.7c-6.3,0-11.4-5.2-11.4-11.7c0-6.4,5.1-11.7,11.4-11.7
			C396.1,51.1,401.2,56.3,401.2,62.8z"/>
		<path class="st3" d="M380.3,59.5c1.2-1.3,2.6-2.3,3.9-3.5c0.9-0.8,2.4-1,3.3,0c2,2.2,5.6,4.1,8.4,2.4c1.1-0.7,2.5-0.2,3.2,0.8
			c0.3,0.5,1.1,0.9,1.8,1.3c-1-5.4-5.6-9.5-11.2-9.5c-6.1,0-11.1,5-11.3,11.2C379.2,61.4,379.6,60.3,380.3,59.5z"/>
		<path class="st2" d="M402.6,63.1c0,1.7-0.5,3.1-1.2,3.1c-0.7,0-1.2-1.4-1.2-3.1c0-1.7,0.5-3.1,1.2-3.1
			C402.1,60.1,402.6,61.4,402.6,63.1z"/>
		<path class="st2" d="M379.7,63.1c0,1.7-0.5,3.1-1.2,3.1c-0.7,0-1.2-1.4-1.2-3.1c0-1.7,0.5-3.1,1.2-3.1
			C379.2,60.1,379.7,61.4,379.7,63.1z"/>
		<g>
			<g>
				<g>
					<path class="st18" d="M402.2,56c0-0.1,0-0.2-0.1-0.3c-0.2-0.7-0.7-2.6-0.7-3.3c0-5.5-5.1-10-11.5-10c-6.4,0-11.5,4.5-11.5,10
						c0,0.6-0.6,2.5-1,3.6H402.2z"/>
				</g>
				<g>
					<path class="st31" d="M400.5,56.3c0,0.5-0.4,1-1,1h-19.8c-0.5,0-1-0.4-1-1l0,0c0-0.5,0.4-1,1-1h19.8
						C400,55.3,400.5,55.8,400.5,56.3L400.5,56.3z"/>
				</g>
			</g>
		</g>
		<path class="st20" d="M403.1,127.3l-0.2-0.7h-26.6v2.4c-6.3,15.7-7.1,45.6-6.8,55.5l12-0.3c-0.4-14.5,2.5-36.5,7-47.5h3.9
			c4.3,11.2,6.7,33.1,6.3,47.5l12,0.3C410.9,174.2,410.1,142.4,403.1,127.3z"/>
		<path class="st7" d="M383.1,187.7c0.1-0.4,0.2-0.8,0.2-1.3c0-2.3-1.9-4.2-4.2-4.2h-7.2c-2.3,0-4.2,1.9-4.2,4.2
			c0,0.4,0.1,0.9,0.2,1.3H383.1z"/>
		<path class="st7" d="M412.5,187.7c0.1-0.4,0.2-0.8,0.2-1.3c0-2.3-1.9-4.2-4.2-4.2h-7.2c-2.3,0-4.2,1.9-4.2,4.2
			c0,0.4,0.1,0.9,0.2,1.3H412.5z"/>
		<rect x="375.6" y="126.5" class="st32" width="28.5" height="2.6"/>
		<g>
			<g>
				<path class="st33" d="M390.7,88.6c0,0.5-0.4,1-1,1c-0.5,0-1-0.4-1-1c0-0.5,0.4-1,1-1C390.3,87.6,390.7,88,390.7,88.6z"/>
				<path class="st33" d="M390.7,95.6c0,0.5-0.4,1-1,1c-0.5,0-1-0.4-1-1c0-0.5,0.4-1,1-1C390.3,94.7,390.7,95.1,390.7,95.6z"/>
				<path class="st33" d="M390.7,102.7c0,0.5-0.4,1-1,1c-0.5,0-1-0.4-1-1c0-0.5,0.4-1,1-1C390.3,101.7,390.7,102.1,390.7,102.7z"/>
				<path class="st33" d="M390.7,109.7c0,0.5-0.4,1-1,1c-0.5,0-1-0.4-1-1c0-0.5,0.4-1,1-1C390.3,108.7,390.7,109.2,390.7,109.7z"/>
				<path class="st33" d="M390.7,116.8c0,0.5-0.4,1-1,1c-0.5,0-1-0.4-1-1c0-0.5,0.4-1,1-1C390.3,115.8,390.7,116.2,390.7,116.8z"/>
			</g>
		</g>
		<path class="st0" d="M384.7,77.4c0,0.1,0,0.3,0,0.4c0,2,2.2,3.6,4.8,3.6c2.7,0,4.8-2,4.8-4c0,0-2.4-0.2-4.8-0.2
			C387.2,77.2,384.8,77.4,384.7,77.4z"/>
		<path class="st32" d="M378.3,94.2v3.6c0,1.4,1.1,2.5,2.5,2.5h2.5c1.4,0,2.5-1.1,2.5-2.5v-3.6H378.3z"/>
		<path class="st32" d="M393.4,94.2v3.6c0,1.4,1.1,2.5,2.5,2.5h2.5c1.4,0,2.5-1.1,2.5-2.5v-3.6H393.4z"/>
	</g>
	<g class="st11">
		<path class="st0" d="M414.9,129.4c0,2-1.6,3.6-3.6,3.6l0,0c-2,0-3.6-1.6-3.6-3.6v-5.8c0-2,1.6-3.6,3.6-3.6l0,0
			c2,0,3.6,1.6,3.6,3.6V129.4z"/>
		<path class="st18" d="M408.2,80.8c-3.2-2.1-10.3-3.5-18.6-3.6v50h13.2V91.8c1.5,2.2,3.6,6.2,3.6,12.2v19.5h9.6V104
			C416.1,94,413.6,84,408.2,80.8z"/>
		<rect x="389.7" y="80.3" class="st31" width="2.1" height="44.3"/>
		<path class="st2" d="M389.8,51.1c-0.1,0-0.1,0-0.2,0v23.3c0.1,0,0.1,0,0.2,0c6.3,0,11.4-5.2,11.4-11.7
			C401.2,56.3,396.1,51.1,389.8,51.1z"/>
		<path class="st3" d="M389.8,51.1c-0.1,0-0.1,0-0.2,0v6.7c1.9,1.2,4.3,1.8,6.3,0.7c1.1-0.7,2.5-0.2,3.2,0.8
			c0.3,0.5,1.1,0.9,1.8,1.3C400,55.2,395.4,51.1,389.8,51.1z"/>
		<path class="st2" d="M402.6,63.1c0,1.7-0.5,3.1-1.2,3.1c-0.7,0-1.2-1.4-1.2-3.1c0-1.7,0.5-3.1,1.2-3.1
			C402.1,60.1,402.6,61.4,402.6,63.1z"/>
		<g>
			<g>
				<g>
					<path class="st18" d="M389.7,56h12.5c0-0.1,0-0.2-0.1-0.3c-0.2-0.7-0.7-2.6-0.7-3.3c0-5.5-5.1-10-11.5-10c-0.1,0-0.1,0-0.2,0
						V56z"/>
				</g>
				<g>
					<path class="st31" d="M399.5,55.3h-9.8v1.9h9.8c0.5,0,1-0.4,1-1C400.5,55.8,400,55.3,399.5,55.3z"/>
				</g>
			</g>
		</g>
		<path class="st20" d="M403.1,127.3l-0.2-0.7h-13.2v10h2.6c4.3,11.2,6.7,33.1,6.3,47.5l12,0.3C410.9,174.2,410.1,142.4,403.1,127.3
			z"/>
		<path class="st7" d="M412.5,187.7c0.1-0.4,0.2-0.8,0.2-1.3c0-2.3-1.9-4.2-4.2-4.2h-7.2c-2.3,0-4.2,1.9-4.2,4.2
			c0,0.4,0.1,0.9,0.2,1.3H412.5z"/>
		<rect x="389.7" y="126.5" class="st32" width="14.4" height="2.6"/>
		<g>
			<g>
				<path class="st33" d="M389.7,87.6C389.7,87.6,389.7,87.6,389.7,87.6l-0.1,1.9c0,0,0,0,0.1,0c0.5,0,1-0.4,1-1
					C390.7,88,390.3,87.6,389.7,87.6z"/>
				<path class="st33" d="M389.7,94.7C389.7,94.7,389.7,94.7,389.7,94.7l-0.1,1.9c0,0,0,0,0.1,0c0.5,0,1-0.4,1-1
					C390.7,95.1,390.3,94.7,389.7,94.7z"/>
				<path class="st33" d="M389.7,101.7C389.7,101.7,389.7,101.7,389.7,101.7l-0.1,1.9c0,0,0,0,0.1,0c0.5,0,1-0.4,1-1
					C390.7,102.1,390.3,101.7,389.7,101.7z"/>
				<path class="st33" d="M389.7,108.7C389.7,108.7,389.7,108.8,389.7,108.7l-0.1,1.9c0,0,0,0,0.1,0c0.5,0,1-0.4,1-1
					C390.7,109.2,390.3,108.7,389.7,108.7z"/>
				<path class="st33" d="M389.7,115.8C389.7,115.8,389.7,115.8,389.7,115.8l-0.1,1.9c0,0,0,0,0.1,0c0.5,0,1-0.4,1-1
					C390.7,116.2,390.3,115.8,389.7,115.8z"/>
			</g>
		</g>
		<path class="st0" d="M389.7,77.2v4.2c2.6-0.1,4.7-2,4.7-4C394.4,77.4,392.1,77.3,389.7,77.2z"/>
		<path class="st32" d="M393.4,94.2v3.6c0,1.4,1.1,2.5,2.5,2.5h2.5c1.4,0,2.5-1.1,2.5-2.5v-3.6H393.4z"/>
	</g>
</g>
<g>
	<g>
		<path class="st0" d="M298.5,124.3c0,2.1-1.7,3.8-3.8,3.8l0,0c-2.1,0-3.8-1.7-3.8-3.8v-6.2c0-2.1,1.7-3.8,3.8-3.8l0,0
			c2.1,0,3.8,1.7,3.8,3.8V124.3z"/>
		<path class="st0" d="M345.1,124.3c0,2.1-1.7,3.8-3.8,3.8l0,0c-2.1,0-3.8-1.7-3.8-3.8v-6.2c0-2.1,1.7-3.8,3.8-3.8l0,0
			c2.1,0,3.8,1.7,3.8,3.8V124.3z"/>
		<path class="st34" d="M338,72.4c-3.4-2.2-11-3.8-19.9-3.8c-8.8,0-16.4,1.5-19.8,3.8c-5.8,3.4-8.4,14.1-8.4,24.9V118h10.3V97.2
			c0-7.1,2.3-11.5,3.7-13.7V122h28.4V84.1c1.6,2.4,3.8,6.6,3.8,13.1V118h10.3V97.2C346.4,86.5,343.7,75.8,338,72.4z"/>
		<path class="st2" d="M330.5,53.1c0,6.9-5.4,12.5-12.1,12.5c-6.7,0-12.1-5.6-12.1-12.5c0-6.9,5.4-12.5,12.1-12.5
			C325,40.6,330.5,46.2,330.5,53.1z"/>
		<path class="st3" d="M308.2,49.6c1.2-1.4,2.8-2.4,4.2-3.7c1-0.9,2.6-1,3.5,0c2.1,2.3,6,4.4,9,2.6c1.2-0.7,2.7-0.2,3.4,0.9
			c0.3,0.5,1.1,1,2,1.4c-1.1-5.8-6-10.1-11.9-10.1c-6.5,0-11.9,5.3-12.1,11.9C307,51.7,307.5,50.4,308.2,49.6z"/>
		<path class="st2" d="M332,53.5c0,1.8-0.6,3.3-1.3,3.3c-0.7,0-1.3-1.5-1.3-3.3c0-1.8,0.6-3.3,1.3-3.3C331.4,50.2,332,51.7,332,53.5
			z"/>
		<path class="st2" d="M307.5,53.5c0,1.8-0.6,3.3-1.3,3.3c-0.7,0-1.3-1.5-1.3-3.3c0-1.8,0.6-3.3,1.3-3.3
			C307,50.2,307.5,51.7,307.5,53.5z"/>
		<path class="st20" d="M332.5,122.1l-0.2-0.7h-28.5v2.6c-6.8,16.8-7.6,48.7-7.3,59.3l12.8-0.4c-0.4-15.5,2.7-39,7.5-50.8h4.2
			c4.6,11.9,7.2,35.4,6.8,50.8l12.8,0.4C340.9,172.2,340,138.2,332.5,122.1z"/>
		<path class="st7" d="M311.1,186.6c0.1-0.4,0.2-0.9,0.2-1.4c0-2.5-2-4.4-4.4-4.4h-7.7c-2.5,0-4.4,2-4.4,4.4c0,0.5,0.1,0.9,0.2,1.4
			H311.1z"/>
		<path class="st7" d="M342.5,186.6c0.1-0.4,0.2-0.9,0.2-1.4c0-2.5-2-4.4-4.4-4.4h-7.7c-2.5,0-4.4,2-4.4,4.4c0,0.5,0.1,0.9,0.2,1.4
			H342.5z"/>
		<path class="st32" d="M340.8,165.3c-0.3-5.6-0.8-11.7-1.5-17.7h-14.8c1,5.7,1.8,11.8,2.2,17.7H340.8z"/>
		<path class="st32" d="M310.6,165.3c0.6-5.9,1.4-12.1,2.5-17.7h-15.2c-0.8,6.1-1.3,12.2-1.5,17.7H310.6z"/>
		<path class="st35" d="M300.6,104.5v-7.3c0-1.9,0.2-3.8,0.5-5.5h-11.6c-0.2,1.9-0.2,3.7-0.2,5.5v7.3H300.6z"/>
		<path class="st35" d="M335.6,104.5h11.3v-7.3c0-1.8-0.1-3.6-0.2-5.5H335c0.4,1.7,0.6,3.6,0.6,5.5V104.5z"/>
		<path class="st16" d="M326.8,69.1c-2.7-0.3-5.6-0.5-8.7-0.5c-2.9,0-5.7,0.2-8.2,0.5v49.3h16.9V69.1z"/>
		<path class="st0" d="M312.8,68.7c0,0.1,0,0.3,0,0.4c0,2.1,2.3,3.8,5.2,3.8c2.9,0,5.2-2.1,5.2-4.2c0,0-2.5-0.2-5.1-0.2
			C315.5,68.6,312.9,68.7,312.8,68.7z"/>
		<rect x="303.1" y="118.5" class="st17" width="30.4" height="5.5"/>
		<g>
			<g>
				<g>
					<path class="st9" d="M322.3,125h-7.5v-7.7h7.5V125z M315.8,124h5.5v-5.6h-5.5V124z"/>
				</g>
				<g>
					<rect x="319.6" y="120.3" class="st9" width="3.4" height="1.7"/>
				</g>
			</g>
		</g>
		<polygon class="st8" points="329,118.9 325.6,118.6 323.2,68.3 328.7,68.3 		"/>
		<polygon class="st8" points="306.5,118.7 309.9,118.4 312.6,68.3 307.1,68.3 		"/>
		<g>
			<g>
				<path class="st4" d="M331.7,44.6c0-0.1,0-0.2-0.1-0.3c-0.2-0.7-0.8-2.8-0.8-3.5c0-5.9-5.5-10.6-12.3-10.6
					c-6.8,0-12.3,4.8-12.3,10.6c0,0.7-0.6,2.7-1,3.8H331.7z"/>
				<circle class="st4" cx="318.3" cy="30.9" r="3.2"/>
				<g>
					<path class="st5" d="M311.3,32.2c1.1-0.7,2.4-1.2,3.7-1.6c0.1,0.2,0.1,0.5,0.1,0.7v8.5c0,1.1-0.9,1.9-1.9,1.9l0,0
						c-1.1,0-1.9-0.9-1.9-1.9V32.2z"/>
					<path class="st5" d="M321.7,30.5c1.3,0.3,2.6,0.8,3.7,1.5v7.9c0,1.1-0.9,1.9-1.9,1.9l0,0c-1.1,0-1.9-0.9-1.9-1.9v-8.5
						C321.6,31.1,321.6,30.8,321.7,30.5z"/>
				</g>
			</g>
			<path class="st5" d="M329.8,45c0,0.6-0.5,1-1,1h-21.2c-0.6,0-1-0.5-1-1l0,0c0-0.6,0.5-1,1-1h21.2C329.3,44,329.8,44.4,329.8,45
				L329.8,45z"/>
		</g>
	</g>
	<g class="st11">
		<path class="st0" d="M345.1,124.3c0,2.1-1.7,3.8-3.8,3.8l0,0c-2.1,0-3.8-1.7-3.8-3.8v-6.2c0-2.1,1.7-3.8,3.8-3.8l0,0
			c2.1,0,3.8,1.7,3.8,3.8V124.3z"/>
		<path class="st34" d="M338,72.4c-3.3-2.1-10.4-3.7-18.8-3.8V122h13V84.1c1.6,2.4,3.8,6.6,3.8,13.1V118h10.3V97.2
			C346.4,86.5,343.7,75.8,338,72.4z"/>
		<path class="st2" d="M319.2,40.6v24.9c6.3-0.5,11.2-5.9,11.2-12.4S325.5,41.1,319.2,40.6z"/>
		<path class="st3" d="M319.2,40.6v7.7c1.8,0.9,3.9,1.2,5.7,0.1c1.2-0.7,2.7-0.2,3.4,0.9c0.3,0.5,1.1,1,2,1.4
			C329.2,45.3,324.8,41.1,319.2,40.6z"/>
		<path class="st2" d="M332,53.5c0,1.8-0.6,3.3-1.3,3.3c-0.7,0-1.3-1.5-1.3-3.3c0-1.8,0.6-3.3,1.3-3.3C331.4,50.2,332,51.7,332,53.5
			z"/>
		<path class="st20" d="M332.5,122.1l-0.2-0.7h-13.1V132h1.8c4.6,11.9,7.2,35.4,6.8,50.8l12.8,0.4
			C340.9,172.2,340,138.2,332.5,122.1z"/>
		<path class="st7" d="M342.5,186.6c0.1-0.4,0.2-0.9,0.2-1.4c0-2.5-2-4.4-4.4-4.4h-7.7c-2.5,0-4.4,2-4.4,4.4c0,0.5,0.1,0.9,0.2,1.4
			H342.5z"/>
		<path class="st32" d="M340.8,165.3c-0.3-5.6-0.8-11.7-1.5-17.7h-14.8c1,5.7,1.8,11.8,2.2,17.7H340.8z"/>
		<path class="st35" d="M335.6,104.5h11.3v-7.3c0-1.8-0.1-3.6-0.2-5.5H335c0.4,1.7,0.6,3.6,0.6,5.5V104.5z"/>
		<path class="st16" d="M319.2,68.6v49.8h7.6V69.1C324.5,68.8,321.9,68.6,319.2,68.6z"/>
		<path class="st0" d="M319.2,68.6v4.3c2.3-0.5,4-2.3,4-4.1C323.2,68.8,321.4,68.6,319.2,68.6z"/>
		<rect x="319.2" y="118.5" class="st17" width="14.3" height="5.5"/>
		<g>
			<g>
				<g>
					<polygon class="st9" points="319.2,117.3 319.2,118.4 321.3,118.4 321.3,124 319.2,124 319.2,125 322.3,125 322.3,117.3 					
						"/>
				</g>
				<g>
					<rect x="319.6" y="120.3" class="st9" width="3.4" height="1.7"/>
				</g>
			</g>
		</g>
		<polygon class="st8" points="329,118.9 325.6,118.6 323.2,68.3 328.7,68.3 		"/>
		<g>
			<g>
				<path class="st4" d="M319.2,44.6h12.4c0-0.1,0-0.2-0.1-0.3c-0.2-0.7-0.8-2.8-0.8-3.5c0-5.7-5.1-10.3-11.6-10.6V44.6z"/>
				<path class="st4" d="M319.2,27.8v6.1c1.3-0.4,2.3-1.6,2.3-3C321.5,29.4,320.5,28.2,319.2,27.8z"/>
				<g>
					<path class="st5" d="M321.7,30.5c1.3,0.3,2.6,0.8,3.7,1.5v7.9c0,1.1-0.9,1.9-1.9,1.9l0,0c-1.1,0-1.9-0.9-1.9-1.9v-8.5
						C321.6,31.1,321.6,30.8,321.7,30.5z"/>
				</g>
			</g>
			<path class="st5" d="M328.8,44h-9.5V46h9.5c0.6,0,1-0.5,1-1C329.8,44.4,329.3,44,328.8,44z"/>
		</g>
	</g>
</g>
</svg>
