<?xml version="1.0" encoding="utf-8"?>
<!-- Generator: Adobe Illustrator 23.0.1, SVG Export Plug-In . SVG Version: 6.00 Build 0)  -->
<svg version="1.1" id="Layer_1" xmlns="http://www.w3.org/2000/svg" xmlns:xlink="http://www.w3.org/1999/xlink" x="0px" y="0px"
	 viewBox="0 0 500 200" style="enable-background:new 0 0 500 200;" xml:space="preserve">
<style type="text/css">
	.st0{fill:#FFEAC7;}
	.st1{fill-rule:evenodd;clip-rule:evenodd;fill:#FFD535;}
	.st2{fill-rule:evenodd;clip-rule:evenodd;fill:#FFEAC7;}
	.st3{fill-rule:evenodd;clip-rule:evenodd;fill:#7E6055;}
	.st4{fill-rule:evenodd;clip-rule:evenodd;fill:#F5CD7E;}
	.st5{fill-rule:evenodd;clip-rule:evenodd;fill:#E4B559;}
	.st6{fill:#F7933D;}
	.st7{fill:#524C40;}
	.st8{fill:#BA722F;}
	.st9{fill:#E0B18D;}
	.st10{fill:none;stroke:#573B3F;stroke-width:0.7719;stroke-miterlimit:10;}
	.st11{opacity:0.5;}
	.st12{fill-rule:evenodd;clip-rule:evenodd;fill:#8B8A8B;}
	.st13{fill-rule:evenodd;clip-rule:evenodd;fill:#B3B4B6;}
	.st14{fill:#A5A6A8;}
	.st15{fill:#8B8A8B;}
	.st16{fill-rule:evenodd;clip-rule:evenodd;fill:#F4F5F4;}
	.st17{fill:#573B3F;}
	.st18{fill-rule:evenodd;clip-rule:evenodd;fill:#0988A1;}
	.st19{fill-rule:evenodd;clip-rule:evenodd;fill:#106E82;}
	.st20{fill:#0988A1;}
	.st21{fill:#CADB2B;}
	.st22{fill:#F5A61C;}
	.st23{fill:none;stroke:#573B3F;stroke-width:0.8647;stroke-miterlimit:10;}
	.st24{fill:#CFCFCE;}
	.st25{fill-rule:evenodd;clip-rule:evenodd;fill:#E3545C;}
	.st26{fill:#106E82;}
	.st27{fill:#976568;}
	.st28{fill-rule:evenodd;clip-rule:evenodd;fill:#EBECEB;}
	.st29{fill-rule:evenodd;clip-rule:evenodd;fill:#E5E5E5;}
	.st30{fill-rule:evenodd;clip-rule:evenodd;fill:#E8EBE9;}
	.st31{fill-rule:evenodd;clip-rule:evenodd;fill:#C8C7C6;}
	.st32{fill:#EBECEB;}
	.st33{fill:#FFFFFF;}
	.st34{fill-rule:evenodd;clip-rule:evenodd;fill:#0E778E;}
	.st35{fill:#0E778E;}
	.st36{fill:#1D1D1B;}
	.st37{fill-rule:evenodd;clip-rule:evenodd;fill:#F7933D;}
	.st38{fill-rule:evenodd;clip-rule:evenodd;fill:#BA722F;}
</style>
<g>
	<g>
		<path class="st0" d="M17.3,141.3c0,1.6-1.3,2.9-2.9,2.9l0,0c-1.6,0-2.9-1.3-2.9-2.9v-4.6c0-1.6,1.3-2.9,2.9-2.9l0,0
			c1.6,0,2.9,1.3,2.9,2.9V141.3z"/>
		<path class="st0" d="M52.4,141.3c0,1.6-1.3,2.9-2.9,2.9l0,0c-1.6,0-2.9-1.3-2.9-2.9v-4.6c0-1.6,1.3-2.9,2.9-2.9l0,0
			c1.6,0,2.9,1.3,2.9,2.9V141.3z"/>
		<path class="st1" d="M47,102.3c-2.6-1.7-8.3-2.9-15-2.9c-6.6,0-12.3,1.2-14.9,2.8c-4.3,2.5-6.3,10.6-6.3,18.7v15.7h7.7v-15.7
			c0-5.3,1.7-8.6,2.8-10.3v28.9h21.4v-28.5c1.2,1.8,2.9,5,2.9,9.8v15.7h7.7v-15.7C53.3,112.9,51.4,104.8,47,102.3z"/>
		<path class="st2" d="M41.4,87.7c0,5.2-4.1,9.4-9.1,9.4c-5,0-9.1-4.2-9.1-9.4c0-5.2,4.1-9.4,9.1-9.4C37.3,78.4,41.4,82.6,41.4,87.7
			z"/>
		<path class="st3" d="M24.6,85.1c0.9-1.1,2.1-1.8,3.2-2.8c0.7-0.7,1.9-0.8,2.6,0c1.6,1.7,4.5,3.3,6.8,1.9c0.9-0.5,2-0.2,2.6,0.7
			c0.2,0.4,0.9,0.7,1.5,1c-0.8-4.3-4.5-7.6-9-7.6c-4.9,0-8.9,4-9.1,9C23.7,86.7,24,85.8,24.6,85.1z"/>
		<path class="st2" d="M42.5,88.1c0,1.4-0.4,2.5-1,2.5c-0.5,0-1-1.1-1-2.5c0-1.4,0.4-2.5,1-2.5C42.1,85.6,42.5,86.7,42.5,88.1z"/>
		<path class="st2" d="M24.1,88.1c0,1.4-0.4,2.5-1,2.5c-0.5,0-1-1.1-1-2.5c0-1.4,0.4-2.5,1-2.5C23.7,85.6,24.1,86.7,24.1,88.1z"/>
		<g>
			<g>
				<path class="st4" d="M42.2,82.3c0-0.1,0-0.1-0.1-0.2c-0.2-0.5-0.6-2.1-0.6-2.7c0-4.4-4.1-8-9.3-8c-5.1,0-9.3,3.6-9.3,8
					c0,0.5-0.4,2-0.8,2.9H42.2z"/>
				<circle class="st4" cx="32.2" cy="71.9" r="2.4"/>
				<g>
					<path class="st5" d="M26.8,73c0.8-0.5,1.8-0.9,2.8-1.2c0.1,0.2,0.1,0.3,0.1,0.5v6.4c0,0.8-0.6,1.4-1.4,1.4l0,0
						c-0.8,0-1.4-0.6-1.4-1.4V73z"/>
					<path class="st5" d="M34.7,71.7c1,0.2,1.9,0.6,2.8,1.1v5.9c0,0.8-0.6,1.4-1.4,1.4l0,0c-0.8,0-1.4-0.6-1.4-1.4v-6.4
						C34.6,72.1,34.6,71.9,34.7,71.7z"/>
				</g>
			</g>
			<path class="st5" d="M40.8,82.6c0,0.4-0.3,0.8-0.8,0.8h-16c-0.4,0-0.8-0.3-0.8-0.8l0,0c0-0.4,0.3-0.8,0.8-0.8h16
				C40.4,81.8,40.8,82.1,40.8,82.6L40.8,82.6z"/>
		</g>
		<path class="st6" d="M42.9,139.7L42.7,123H21.3v18.1c-5.1,12.6-5.7,36.6-5.5,44.6l9.6-0.3c-0.3-11.7,2-29.4,5.6-38.2h3.1
			c3.5,9,5.4,26.6,5.1,38.2l9.6,0.3C49.2,177.4,48.6,151.8,42.9,139.7z"/>
		<path class="st7" d="M26.8,188.2c0.1-0.3,0.2-0.7,0.2-1c0-1.8-1.5-3.3-3.3-3.3h-5.8c-1.8,0-3.3,1.5-3.3,3.3c0,0.4,0.1,0.7,0.2,1
			H26.8z"/>
		<path class="st7" d="M50.5,188.2c0.1-0.3,0.2-0.7,0.2-1c0-1.8-1.5-3.3-3.3-3.3h-5.8c-1.8,0-3.3,1.5-3.3,3.3c0,0.4,0.1,0.7,0.2,1
			H50.5z"/>
		<rect x="24.3" y="110" class="st6" width="15.1" height="16.4"/>
		<polygon class="st6" points="23.1,100.1 24.6,111.2 27.5,110.6 25.9,99.7 		"/>
		<polygon class="st6" points="40.7,100.1 39.2,111.2 36.3,110.6 37.8,99.7 		"/>
		<path class="st0" d="M28.1,99.5c0,0.1,0,0.3,0,0.3c0,1.6,1.7,2.9,3.9,2.9c2.1,0,3.9-1.6,3.9-3.2c0,0-1.9-0.1-3.8-0.2
			C30.1,99.4,28.2,99.5,28.1,99.5z"/>
		<path class="st8" d="M26.5,118.2v5.2c0,2,1.6,3.6,3.6,3.6h3.6c2,0,3.6-1.6,3.6-3.6v-5.2H26.5z"/>
		<rect x="20.8" y="137" class="st9" width="22.9" height="4.1"/>
		<rect x="30" y="136.5" class="st10" width="4.9" height="5"/>
		<rect x="33.6" y="138.7" class="st10" width="1.8" height="0.5"/>
	</g>
	<g class="st11">
		<path class="st0" d="M52.4,141.3c0,1.6-1.3,2.9-2.9,2.9l0,0c-1.6,0-2.9-1.3-2.9-2.9v-4.6c0-1.6,1.3-2.9,2.9-2.9l0,0
			c1.6,0,2.9,1.3,2.9,2.9V141.3z"/>
		<path class="st1" d="M47,102.3c-2.5-1.6-8.1-2.8-14.5-2.9v40.2h10.2v-28.5c1.2,1.8,2.9,5,2.9,9.8v15.7h7.7v-15.7
			C53.3,112.9,51.4,104.8,47,102.3z"/>
		<path class="st2" d="M32.5,78.4v18.8c4.9-0.1,8.9-4.3,8.9-9.4C41.4,82.6,37.4,78.5,32.5,78.4z"/>
		<path class="st3" d="M32.5,78.4V84c1.5,0.8,3.2,1.2,4.7,0.3c0.9-0.5,2-0.2,2.6,0.7c0.2,0.4,0.9,0.7,1.5,1
			C40.4,81.7,36.8,78.5,32.5,78.4z"/>
		<path class="st2" d="M42.5,88.1c0,1.4-0.4,2.5-1,2.5c-0.5,0-1-1.1-1-2.5c0-1.4,0.4-2.5,1-2.5C42.1,85.6,42.5,86.7,42.5,88.1z"/>
		<g>
			<g>
				<path class="st4" d="M32.5,82.3h9.7c0-0.1,0-0.1-0.1-0.2c-0.2-0.5-0.6-2.1-0.6-2.7c0-4.4-4-7.9-9.1-8V82.3z"/>
				<path class="st4" d="M32.5,69.6v4.7c1.2-0.2,2.1-1.2,2.1-2.4C34.5,70.7,33.7,69.7,32.5,69.6z"/>
				<g>
					<path class="st5" d="M34.7,71.7c1,0.2,1.9,0.6,2.8,1.1v5.9c0,0.8-0.6,1.4-1.4,1.4l0,0c-0.8,0-1.4-0.6-1.4-1.4v-6.4
						C34.6,72.1,34.6,71.9,34.7,71.7z"/>
				</g>
			</g>
			<path class="st5" d="M40,81.8h-7.5v1.5H40c0.4,0,0.8-0.3,0.8-0.8C40.8,82.1,40.4,81.8,40,81.8z"/>
		</g>
		<path class="st6" d="M42.9,139.7L42.7,123H32.5v24.2h1.7c3.5,9,5.4,26.6,5.1,38.2l9.6,0.3C49.2,177.4,48.6,151.8,42.9,139.7z"/>
		<path class="st7" d="M50.5,188.2c0.1-0.3,0.2-0.7,0.2-1c0-1.8-1.5-3.3-3.3-3.3h-5.8c-1.8,0-3.3,1.5-3.3,3.3c0,0.4,0.1,0.7,0.2,1
			H50.5z"/>
		<rect x="32.5" y="110" class="st6" width="6.9" height="16.4"/>
		<polygon class="st6" points="40.7,100.1 39.2,111.2 36.3,110.6 37.8,99.7 		"/>
		<path class="st0" d="M32.5,99.4v3.3c1.9-0.2,3.4-1.7,3.4-3.2C35.9,99.6,34.3,99.4,32.5,99.4z"/>
		<path class="st8" d="M32.5,118.2v8.8h1.2c2,0,3.6-1.6,3.6-3.6v-5.2H32.5z"/>
		<rect x="32.5" y="137" class="st9" width="11.2" height="4.1"/>
		<rect x="32.5" y="136.5" class="st10" width="2.3" height="5"/>
		<rect x="33.6" y="138.7" class="st10" width="1.8" height="0.5"/>
	</g>
</g>
<g>
	<g>
		<path class="st12" d="M156.6,44.9c0.8,0,1.5-0.7,1.5-1.5c0-0.8-0.7-1.5-1.5-1.5c-0.8,0-1.5,0.7-1.5,1.5
			C155.1,44.2,155.8,44.9,156.6,44.9z"/>
		<path class="st0" d="M137.7,130.1c0,2-1.6,3.6-3.6,3.6l0,0c-2,0-3.6-1.6-3.6-3.6v-5.8c0-2,1.6-3.6,3.6-3.6l0,0
			c2,0,3.6,1.6,3.6,3.6V130.1z"/>
		<path class="st0" d="M181.3,130.1c0,2-1.6,3.6-3.6,3.6l0,0c-2,0-3.6-1.6-3.6-3.6v-5.8c0-2,1.6-3.6,3.6-3.6l0,0
			c2,0,3.6,1.6,3.6,3.6V130.1z"/>
		<path class="st13" d="M174.6,81.5c-3.2-2.1-10.3-3.6-18.6-3.6c-8.3,0-15.4,1.4-18.6,3.5c-5.4,3.1-7.9,13.2-7.9,23.3v19.5h9.6
			v-19.5c0-6.6,2.1-10.7,3.5-12.8v36h26.6V92.5c1.5,2.2,3.6,6.2,3.6,12.2v19.5h9.6v-19.5C182.4,94.7,180,84.7,174.6,81.5z"/>
		<ellipse class="st2" cx="156.2" cy="63.5" rx="11.4" ry="11.7"/>
		<path class="st3" d="M146.7,60.2c1.2-1.3,2.6-2.3,3.9-3.5c0.9-0.8,2.4-1,3.3,0c2,2.2,5.6,4.1,8.4,2.4c1.1-0.7,2.5-0.2,3.2,0.8
			c0.3,0.5,1.1,0.9,1.8,1.3c-1-5.4-5.6-9.5-11.2-9.5c-6.1,0-11.1,5-11.3,11.2C145.6,62.1,146,61,146.7,60.2z"/>
		<path class="st2" d="M169,63.8c0,1.7-0.5,3.1-1.2,3.1c-0.7,0-1.2-1.4-1.2-3.1s0.5-3.1,1.2-3.1C168.4,60.8,169,62.1,169,63.8z"/>
		<path class="st2" d="M146.1,63.8c0,1.7-0.5,3.1-1.2,3.1s-1.2-1.4-1.2-3.1s0.5-3.1,1.2-3.1S146.1,62.1,146.1,63.8z"/>
		<path class="st13" d="M168.6,56.7c0-0.1,0-0.2-0.1-0.3c-0.2-0.7-0.7-2.6-0.7-3.3c0-5.5-5.1-10-11.5-10c-6.4,0-11.5,4.5-11.5,10
			c0,0.6-0.6,2.5-1,3.6H168.6z"/>
		<path class="st12" d="M170.3,56.7c0,0.7-0.6,1.2-1.2,1.2h-25.4c-0.7,0-1.2-0.6-1.2-1.2l0,0c0-0.7,0.6-1.2,1.2-1.2h25.4
			C169.8,55.5,170.3,56,170.3,56.7L170.3,56.7z"/>
		<path class="st14" d="M169.5,128l-0.2-0.7h-26.6v2.4c-6.3,15.7-7.1,45.6-6.8,55.5l12-0.3c-0.4-14.5,2.5-36.5,7-47.5h3.9
			c4.3,11.2,6.7,33.1,6.3,47.5l12,0.3C177.3,174.9,176.5,143.1,169.5,128z"/>
		<path class="st7" d="M149.4,188.4c0.1-0.4,0.2-0.8,0.2-1.3c0-2.3-1.9-4.2-4.2-4.2h-7.2c-2.3,0-4.2,1.9-4.2,4.2
			c0,0.4,0.1,0.9,0.2,1.3H149.4z"/>
		<path class="st7" d="M178.9,188.4c0.1-0.4,0.2-0.8,0.2-1.3c0-2.3-1.9-4.2-4.2-4.2h-7.2c-2.3,0-4.2,1.9-4.2,4.2
			c0,0.4,0.1,0.9,0.2,1.3H178.9z"/>
		<path class="st15" d="M177.2,168.4c-0.3-5.2-0.7-10.9-1.4-16.6h-13.8c0.9,5.3,1.6,11,2.1,16.6H177.2z"/>
		<path class="st15" d="M149,168.4c0.5-5.6,1.3-11.3,2.3-16.6h-14.2c-0.7,5.7-1.2,11.4-1.4,16.6H149z"/>
		<path class="st12" d="M139.6,111.6v-6.9c0-1.8,0.2-3.5,0.5-5.1h-10.8c-0.2,1.7-0.2,3.5-0.2,5.1v6.9H139.6z"/>
		<path class="st12" d="M172.4,111.6h10.6v-6.9c0-1.7-0.1-3.4-0.2-5.1h-10.9c0.4,1.6,0.6,3.3,0.6,5.1V111.6z"/>
		<path class="st16" d="M164.1,78.4c-2.5-0.3-5.2-0.5-8.1-0.5c-2.7,0-5.3,0.2-7.7,0.4v46.2h15.8V78.4z"/>
		<path class="st0" d="M151.1,78.1c0,0.1,0,0.3,0,0.4c0,2,2.2,3.6,4.8,3.6c2.7,0,4.8-2,4.8-4c0,0-2.4-0.2-4.8-0.2
			C153.6,77.9,151.2,78.1,151.1,78.1z"/>
		<rect x="142" y="124.7" class="st17" width="28.5" height="5.1"/>
		<g>
			<g>
				<g>
					<path class="st9" d="M159.9,130.8h-7v-7.2h7V130.8z M153.8,129.8h5.1v-5.3h-5.1V129.8z"/>
				</g>
				<g>
					<rect x="157.4" y="126.4" class="st9" width="3.2" height="1.6"/>
				</g>
			</g>
		</g>
		<polygon class="st15" points="166.2,125.1 163,124.7 160.8,77.7 165.9,77.7 		"/>
		<polygon class="st15" points="145.1,124.9 148.3,124.6 150.9,77.7 145.7,77.7 		"/>
	</g>
	<g class="st11">
		<path class="st12" d="M156.6,42c-0.3,0-0.6,0.1-0.8,0.2v2.4c0.2,0.1,0.5,0.2,0.8,0.2c0.8,0,1.5-0.7,1.5-1.5
			C158.1,42.6,157.4,42,156.6,42z"/>
		<path class="st0" d="M181.3,130.1c0,2-1.6,3.6-3.6,3.6l0,0c-2,0-3.6-1.6-3.6-3.6v-5.8c0-2,1.6-3.6,3.6-3.6l0,0
			c2,0,3.6,1.6,3.6,3.6V130.1z"/>
		<path class="st13" d="M174.6,81.5c-3.2-2.1-10.3-3.6-18.6-3.6c-0.1,0-0.1,0-0.2,0v50h13.4V92.5c1.5,2.2,3.6,6.2,3.6,12.2v19.5h9.6
			v-19.5C182.4,94.7,180,84.7,174.6,81.5z"/>
		<path class="st2" d="M156.2,51.8c-0.1,0-0.3,0-0.4,0v23.3c0.1,0,0.3,0,0.4,0c6.3,0,11.4-5.2,11.4-11.7S162.5,51.8,156.2,51.8z"/>
		<path class="st3" d="M156.2,51.8c-0.1,0-0.3,0-0.4,0v6.5c2,1.3,4.5,2.1,6.5,0.8c1.1-0.7,2.5-0.2,3.2,0.8c0.3,0.5,1.1,0.9,1.8,1.3
			C166.4,55.9,161.8,51.8,156.2,51.8z"/>
		<path class="st2" d="M169,63.8c0,1.7-0.5,3.1-1.2,3.1c-0.7,0-1.2-1.4-1.2-3.1s0.5-3.1,1.2-3.1C168.4,60.8,169,62.1,169,63.8z"/>
		<path class="st13" d="M155.8,56.7h12.8c0-0.1,0-0.2-0.1-0.3c-0.2-0.7-0.7-2.6-0.7-3.3c0-5.5-5.1-10-11.5-10c-0.2,0-0.3,0-0.5,0
			V56.7z"/>
		<path class="st12" d="M169.1,55.5h-13.3V58h13.3c0.7,0,1.2-0.6,1.2-1.2C170.3,56,169.8,55.5,169.1,55.5z"/>
		<path class="st14" d="M169.5,128l-0.2-0.7h-13.5v10h2.9c4.3,11.2,6.7,33.1,6.3,47.5l12,0.3C177.3,174.9,176.5,143.1,169.5,128z"/>
		<path class="st7" d="M178.9,188.4c0.1-0.4,0.2-0.8,0.2-1.3c0-2.3-1.9-4.2-4.2-4.2h-7.2c-2.3,0-4.2,1.9-4.2,4.2
			c0,0.4,0.1,0.9,0.2,1.3H178.9z"/>
		<path class="st15" d="M177.2,168.4c-0.3-5.2-0.7-10.9-1.4-16.6h-13.8c0.9,5.3,1.6,11,2.1,16.6H177.2z"/>
		<path class="st12" d="M172.4,111.6h10.6v-6.9c0-1.7-0.1-3.4-0.2-5.1h-10.9c0.4,1.6,0.6,3.3,0.6,5.1V111.6z"/>
		<path class="st16" d="M156,77.9c-0.1,0-0.1,0-0.2,0v46.6h8.3V78.4C161.6,78.1,158.9,77.9,156,77.9z"/>
		<path class="st0" d="M156,77.9c-0.1,0-0.1,0-0.2,0v4.2c0,0,0.1,0,0.1,0c2.7,0,4.8-2,4.8-4C160.8,78.1,158.4,77.9,156,77.9z"/>
		<rect x="155.8" y="124.7" class="st17" width="14.6" height="5.1"/>
		<g>
			<g>
				<g>
					<polygon class="st9" points="155.8,123.6 155.8,124.5 159,124.5 159,129.8 155.8,129.8 155.8,130.8 159.9,130.8 159.9,123.6 
											"/>
				</g>
				<g>
					<rect x="157.4" y="126.4" class="st9" width="3.2" height="1.6"/>
				</g>
			</g>
		</g>
		<polygon class="st15" points="166.2,125.1 163,124.7 160.8,77.7 165.9,77.7 		"/>
	</g>
</g>
<g>
	<g>
		<path class="st0" d="M198.4,126.3c0,2.1-1.7,3.8-3.8,3.8l0,0c-2.1,0-3.8-1.7-3.8-3.8v-6.2c0-2.1,1.7-3.8,3.8-3.8l0,0
			c2.1,0,3.8,1.7,3.8,3.8V126.3z"/>
		<path class="st0" d="M245,126.3c0,2.1-1.7,3.8-3.8,3.8l0,0c-2.1,0-3.8-1.7-3.8-3.8v-6.2c0-2.1,1.7-3.8,3.8-3.8l0,0
			c2.1,0,3.8,1.7,3.8,3.8V126.3z"/>
		<path class="st16" d="M237.9,74.3c-3.4-2.2-11-3.8-19.9-3.8c-8.8,0-16.4,1.5-19.8,3.8c-5.8,3.4-8.4,14.1-8.4,24.9V120H200V99.2
			c0-7.1,2.3-11.5,3.7-13.7V124h28.4V86.1c1.6,2.4,3.8,6.6,3.8,13.1V120h10.3V99.2C246.2,88.5,243.6,77.7,237.9,74.3z"/>
		<ellipse class="st2" cx="218.2" cy="55.1" rx="12.1" ry="12.5"/>
		<path class="st3" d="M208,51.6c1.2-1.4,2.8-2.4,4.2-3.7c1-0.9,2.6-1,3.5,0c2.1,2.3,6,4.4,9,2.6c1.2-0.7,2.7-0.2,3.4,0.9
			c0.3,0.5,1.1,1,2,1.4c-1.1-5.8-6-10.1-11.9-10.1c-6.5,0-11.9,5.3-12.1,11.9C206.8,53.7,207.3,52.4,208,51.6z"/>
		<path class="st2" d="M231.8,55.5c0,1.8-0.6,3.3-1.3,3.3c-0.7,0-1.3-1.5-1.3-3.3s0.6-3.3,1.3-3.3C231.3,52.2,231.8,53.7,231.8,55.5
			z"/>
		<path class="st2" d="M207.4,55.5c0,1.8-0.6,3.3-1.3,3.3c-0.7,0-1.3-1.5-1.3-3.3s0.6-3.3,1.3-3.3C206.8,52.2,207.4,53.7,207.4,55.5
			z"/>
		<g>
			<g>
				<path class="st18" d="M231.4,47.8c0-0.1,0-0.2-0.1-0.3c-0.2-0.7-0.8-2.8-0.8-3.5c0-5.9-5.5-10.6-12.3-10.6
					c-6.8,0-12.3,4.8-12.3,10.6c0,0.7-0.6,2.7-1,3.8H231.4z"/>
				<circle class="st18" cx="218.1" cy="34" r="3.2"/>
				<g>
					<g>
						<path class="st19" d="M211,35.4c1.1-0.7,2.4-1.2,3.7-1.6c0.1,0.2,0.1,0.5,0.1,0.7v8.5c0,1.1-0.9,1.9-1.9,1.9l0,0
							c-1.1,0-1.9-0.9-1.9-1.9V35.4z"/>
						<path class="st19" d="M221.5,33.7c1.3,0.3,2.6,0.8,3.7,1.5v7.9c0,1.1-0.9,1.9-1.9,1.9l0,0c-1.1,0-1.9-0.9-1.9-1.9v-8.5
							C221.3,34.2,221.4,34,221.5,33.7z"/>
					</g>
				</g>
			</g>
			<path class="st19" d="M229.5,48.2c0,0.6-0.5,1-1,1h-21.2c-0.6,0-1-0.5-1-1l0,0c0-0.6,0.5-1,1-1h21.2
				C229.1,47.2,229.5,47.6,229.5,48.2L229.5,48.2z"/>
		</g>
		<path class="st20" d="M232.4,124l-0.2-0.7h-28.5v2.6c-6.8,16.8-7.6,48.7-7.3,59.3l12.8-0.4c-0.4-15.5,2.7-39,7.5-50.8h4.2
			c4.6,11.9,7.2,35.4,6.8,50.8l12.8,0.4C240.7,174.2,239.9,140.2,232.4,124z"/>
		<path class="st7" d="M211,188.6c0.1-0.4,0.2-0.9,0.2-1.4c0-2.5-2-4.4-4.4-4.4h-7.7c-2.5,0-4.4,2-4.4,4.4c0,0.5,0.1,0.9,0.2,1.4
			H211z"/>
		<path class="st7" d="M242.4,188.6c0.1-0.4,0.2-0.9,0.2-1.4c0-2.5-2-4.4-4.4-4.4h-7.7c-2.5,0-4.4,2-4.4,4.4c0,0.5,0.1,0.9,0.2,1.4
			H242.4z"/>
		<path class="st0" d="M212.7,70.7c0,0.1,0,0.3,0,0.4c0,2.1,2.3,3.8,5.2,3.8c2.9,0,5.2-2.1,5.2-4.2c0,0-2.5-0.2-5.1-0.2
			C215.4,70.5,212.8,70.7,212.7,70.7z"/>
		<rect x="203" y="120.5" class="st17" width="30.4" height="5.5"/>
		<path class="st9" d="M222.8,122.3h-0.6v-3h-7.5v7.7h7.5v-3h0.6V122.3z M221.1,126h-5.5v-5.6h5.5v2h-1.7v1.7h1.7V126z"/>
		<path class="st21" d="M207.9,82.8v-1.1c0-0.3,0-0.5,0-0.8c0-0.3,0-0.5,0-0.8v-9l-2.8,0.4l-0.4,16.7l-1.2,0.2l-0.6,32l10.2,0.2
			l0-31.1C208,89.5,207.9,82.8,207.9,82.8z"/>
		<path class="st21" d="M232.1,88.5l-1.2-0.2l-0.4-16.7l-2.8-0.4v11.7c0,0,0,6.9-4.5,7.1l0,30.8l9.5-0.2L232.1,88.5z"/>
		<rect x="203" y="109.5" class="st22" width="10.2" height="1"/>
		<rect x="203" y="112.8" class="st22" width="10.2" height="1"/>
		<rect x="223.3" y="109.5" class="st22" width="9.4" height="1"/>
		<rect x="223.3" y="112.8" class="st22" width="9.4" height="1"/>
	</g>
	<g class="st11">
		<path class="st0" d="M245,126.3c0,2.1-1.7,3.8-3.8,3.8l0,0c-2.1,0-3.8-1.7-3.8-3.8v-6.2c0-2.1,1.7-3.8,3.8-3.8l0,0
			c2.1,0,3.8,1.7,3.8,3.8V126.3z"/>
		<path class="st16" d="M237.9,74.3c-3.4-2.2-11-3.8-19.9-3.8c-0.1,0-0.2,0-0.3,0V124h14.5V86.1c1.6,2.4,3.8,6.6,3.8,13.1V120h10.3
			V99.2C246.2,88.5,243.6,77.7,237.9,74.3z"/>
		<path class="st2" d="M218.2,42.6c-0.2,0-0.4,0-0.5,0v24.9c0.2,0,0.4,0,0.5,0c6.7,0,12.1-5.6,12.1-12.5S224.9,42.6,218.2,42.6z"/>
		<path class="st3" d="M218.2,42.6c-0.2,0-0.4,0-0.5,0v6.9c2.1,1.5,4.9,2.3,7.1,0.9c1.2-0.7,2.7-0.2,3.4,0.9c0.3,0.5,1.1,1,2,1.4
			C229,46.9,224.1,42.6,218.2,42.6z"/>
		<path class="st2" d="M231.8,55.5c0,1.8-0.6,3.3-1.3,3.3c-0.7,0-1.3-1.5-1.3-3.3s0.6-3.3,1.3-3.3C231.3,52.2,231.8,53.7,231.8,55.5
			z"/>
		<g>
			<g>
				<path class="st18" d="M217.7,47.8h13.8c0-0.1,0-0.2-0.1-0.3c-0.2-0.7-0.8-2.8-0.8-3.5c0-5.9-5.5-10.6-12.3-10.6
					c-0.2,0-0.4,0-0.6,0V47.8z"/>
				<path class="st18" d="M218.1,30.9c-0.1,0-0.3,0-0.4,0v6.3c0.1,0,0.3,0,0.4,0c1.7,0,3.2-1.4,3.2-3.2
					C221.3,32.3,219.8,30.9,218.1,30.9z"/>
				<g>
					<g>
						<path class="st19" d="M221.5,33.7c1.3,0.3,2.6,0.8,3.7,1.5v7.9c0,1.1-0.9,1.9-1.9,1.9l0,0c-1.1,0-1.9-0.9-1.9-1.9v-8.5
							C221.3,34.2,221.4,34,221.5,33.7z"/>
					</g>
				</g>
			</g>
			<path class="st19" d="M228.5,47.2h-10.8v2.1h10.8c0.6,0,1-0.5,1-1C229.5,47.6,229.1,47.2,228.5,47.2z"/>
		</g>
		<path class="st20" d="M232.4,124l-0.2-0.7h-14.5V134h3.2c4.6,11.9,7.2,35.4,6.8,50.8l12.8,0.4C240.7,174.2,239.9,140.2,232.4,124z
			"/>
		<path class="st7" d="M242.4,188.6c0.1-0.4,0.2-0.9,0.2-1.4c0-2.5-2-4.4-4.4-4.4h-7.7c-2.5,0-4.4,2-4.4,4.4c0,0.5,0.1,0.9,0.2,1.4
			H242.4z"/>
		<path class="st0" d="M218,70.6c-0.1,0-0.2,0-0.3,0V75c0.1,0,0.2,0,0.2,0c2.9,0,5.2-2.1,5.2-4.2C223.1,70.8,220.5,70.6,218,70.6z"
			/>
		<rect x="217.7" y="120.5" class="st17" width="15.7" height="5.5"/>
		<polygon class="st9" points="222.2,122.3 222.2,119.3 217.7,119.3 217.7,120.3 221.1,120.3 221.1,122.3 219.4,122.3 219.4,124 
			221.1,124 221.1,126 217.7,126 217.7,127 222.2,127 222.2,124 222.8,124 222.8,122.3 		"/>
		<path class="st21" d="M232.1,88.5l-1.2-0.2l-0.4-16.7l-2.8-0.4v11.7c0,0,0,6.9-4.5,7.1l0,30.8l9.5-0.2L232.1,88.5z"/>
		<rect x="223.3" y="109.5" class="st22" width="9.4" height="1"/>
		<rect x="223.3" y="112.8" class="st22" width="9.4" height="1"/>
	</g>
</g>
<g>
	<g>
		<path class="st0" d="M77.5,136.2c0,1.8-1.5,3.2-3.2,3.2l0,0c-1.8,0-3.2-1.5-3.2-3.2V131c0-1.8,1.5-3.2,3.2-3.2l0,0
			c1.8,0,3.2,1.5,3.2,3.2V136.2z"/>
		<path class="st0" d="M116.8,136.2c0,1.8-1.5,3.2-3.2,3.2l0,0c-1.8,0-3.2-1.5-3.2-3.2V131c0-1.8,1.5-3.2,3.2-3.2l0,0
			c1.8,0,3.2,1.5,3.2,3.2V136.2z"/>
		<path class="st16" d="M110.8,92.4c-2.9-1.9-9.3-3.2-16.8-3.2c-7.4,0-13.8,1.3-16.7,3.2c-4.9,2.8-7.1,11.9-7.1,21v17.5h8.6v-17.5
			c0-5.9,1.9-9.7,3.1-11.5v32.4h24v-31.9c1.3,2,3.2,5.6,3.2,11v17.5h8.6v-17.5C117.8,104.4,115.6,95.3,110.8,92.4z"/>
		<ellipse class="st2" cx="94.2" cy="76.2" rx="10.2" ry="10.5"/>
		<path class="st3" d="M85.7,73.2c1-1.2,2.4-2.1,3.6-3.1c0.8-0.7,2.2-0.9,3,0c1.8,1.9,5.1,3.7,7.6,2.2c1-0.6,2.3-0.2,2.9,0.8
			c0.3,0.4,1,0.8,1.6,1.2c-0.9-4.9-5.1-8.5-10-8.5c-5.5,0-10,4.5-10.2,10.1C84.7,75,85,74,85.7,73.2z"/>
		<path class="st2" d="M105.7,76.5c0,1.5-0.5,2.8-1.1,2.8s-1.1-1.2-1.1-2.8c0-1.5,0.5-2.8,1.1-2.8S105.7,75,105.7,76.5z"/>
		<path class="st2" d="M85.1,76.5c0,1.5-0.5,2.8-1.1,2.8c-0.6,0-1.1-1.2-1.1-2.8c0-1.5,0.5-2.8,1.1-2.8C84.6,73.8,85.1,75,85.1,76.5
			z"/>
		<g>
			<g>
				<path class="st4" d="M105.4,70.1c0-0.1,0-0.2-0.1-0.3c-0.2-0.6-0.7-2.3-0.7-3c0-5-4.6-9-10.4-9c-5.7,0-10.4,4-10.4,9
					c0,0.6-0.5,2.3-0.9,3.2H105.4z"/>
				<circle class="st4" cx="94.1" cy="58.5" r="2.7"/>
				<g>
					<path class="st5" d="M88.2,59.6c0.9-0.6,2-1.1,3.1-1.3c0.1,0.2,0.1,0.4,0.1,0.6v7.2c0,0.9-0.7,1.6-1.6,1.6l0,0
						c-0.9,0-1.6-0.7-1.6-1.6V59.6z"/>
					<path class="st5" d="M97,58.2c1.1,0.3,2.2,0.7,3.1,1.2v6.6c0,0.9-0.7,1.6-1.6,1.6l0,0c-0.9,0-1.6-0.7-1.6-1.6v-7.2
						C96.9,58.6,96.9,58.4,97,58.2z"/>
				</g>
			</g>
			<path class="st5" d="M103.8,70.4c0,0.5-0.4,0.9-0.9,0.9H85.1c-0.5,0-0.9-0.4-0.9-0.9l0,0c0-0.5,0.4-0.9,0.9-0.9h17.9
				C103.4,69.5,103.8,69.9,103.8,70.4L103.8,70.4z"/>
		</g>
		<path class="st20" d="M106.2,134.3l-0.2-0.6H82v2.2c-5.7,14.1-6.4,41-6.1,50l10.8-0.3c-0.4-13.1,2.3-32.9,6.3-42.8h3.5
			c3.9,10.1,6.1,29.8,5.7,42.8l10.8,0.3C113.2,176.6,112.5,147.9,106.2,134.3z"/>
		<path class="st7" d="M88.1,188.7c0.1-0.4,0.2-0.8,0.2-1.2c0-2.1-1.7-3.7-3.7-3.7h-6.5c-2.1,0-3.7,1.7-3.7,3.7
			c0,0.4,0.1,0.8,0.2,1.2H88.1z"/>
		<path class="st7" d="M114.6,188.7c0.1-0.4,0.2-0.8,0.2-1.2c0-2.1-1.7-3.7-3.7-3.7h-6.5c-2.1,0-3.7,1.7-3.7,3.7
			c0,0.4,0.1,0.8,0.2,1.2H114.6z"/>
		<path class="st0" d="M89.6,89.4c0,0.1,0,0.3,0,0.3c0,1.8,1.9,3.2,4.4,3.2c2.4,0,4.4-1.8,4.4-3.6c0,0-2.1-0.2-4.3-0.2
			C91.9,89.2,89.7,89.4,89.6,89.4z"/>
		<rect x="81.4" y="131.4" class="st9" width="25.7" height="4.6"/>
		<rect x="91.7" y="130.8" class="st23" width="5.5" height="5.6"/>
		<rect x="95.7" y="133.3" class="st23" width="2" height="0.5"/>
		<path class="st24" d="M96.3,100.2v3.2c0,1.2,1,2.2,2.2,2.2h2.2c1.2,0,2.2-1,2.2-2.2v-3.2H96.3z"/>
	</g>
	<g class="st11">
		<path class="st0" d="M116.8,136.2c0,1.8-1.5,3.2-3.2,3.2l0,0c-1.8,0-3.2-1.5-3.2-3.2V131c0-1.8,1.5-3.2,3.2-3.2l0,0
			c1.8,0,3.2,1.5,3.2,3.2V136.2z"/>
		<path class="st16" d="M110.8,92.4c-2.8-1.9-9.1-3.2-16.4-3.2v45H106v-31.9c1.3,2,3.2,5.6,3.2,11v17.5h8.6v-17.5
			C117.8,104.4,115.6,95.3,110.8,92.4z"/>
		<path class="st2" d="M94.4,65.7v21c5.6-0.1,10.1-4.8,10.1-10.5C104.5,70.4,100,65.7,94.4,65.7z"/>
		<path class="st3" d="M94.4,65.7v6.2c1.7,1,3.7,1.4,5.4,0.4c1-0.6,2.3-0.2,2.9,0.8c0.3,0.4,1,0.8,1.6,1.2
			C103.4,69.4,99.3,65.7,94.4,65.7z"/>
		<path class="st2" d="M105.7,76.5c0,1.5-0.5,2.8-1.1,2.8s-1.1-1.2-1.1-2.8c0-1.5,0.5-2.8,1.1-2.8S105.7,75,105.7,76.5z"/>
		<g>
			<g>
				<path class="st4" d="M94.4,70.1h11c0-0.1,0-0.2-0.1-0.3c-0.2-0.6-0.7-2.3-0.7-3c0-4.9-4.6-8.9-10.3-9V70.1z"/>
				<path class="st4" d="M94.4,55.8v5.3c1.4-0.1,2.4-1.3,2.4-2.7C96.8,57.1,95.7,55.9,94.4,55.8z"/>
				<g>
					<path class="st5" d="M97,58.2c1.1,0.3,2.2,0.7,3.1,1.2v6.6c0,0.9-0.7,1.6-1.6,1.6l0,0c-0.9,0-1.6-0.7-1.6-1.6v-7.2
						C96.9,58.6,96.9,58.4,97,58.2z"/>
				</g>
			</g>
			<path class="st5" d="M102.9,69.5h-8.6v1.7h8.6c0.5,0,0.9-0.4,0.9-0.9S103.4,69.5,102.9,69.5z"/>
		</g>
		<path class="st20" d="M106.2,134.3l-0.2-0.6H94.4v9h2.1c3.9,10.1,6.1,29.8,5.7,42.8l10.8,0.3C113.2,176.6,112.5,147.9,106.2,134.3
			z"/>
		<path class="st7" d="M114.6,188.7c0.1-0.4,0.2-0.8,0.2-1.2c0-2.1-1.7-3.7-3.7-3.7h-6.5c-2.1,0-3.7,1.7-3.7,3.7
			c0,0.4,0.1,0.8,0.2,1.2H114.6z"/>
		<path class="st0" d="M94.4,89.2V93c2.2-0.2,4-1.9,4-3.6C98.3,89.4,96.4,89.3,94.4,89.2z"/>
		<rect x="94.4" y="131.4" class="st9" width="12.7" height="4.6"/>
		<rect x="94.4" y="130.8" class="st23" width="2.8" height="5.6"/>
		<rect x="95.7" y="133.3" class="st23" width="2" height="0.5"/>
		<path class="st24" d="M96.3,100.2v3.2c0,1.2,1,2.2,2.2,2.2h2.2c1.2,0,2.2-1,2.2-2.2v-3.2H96.3z"/>
	</g>
</g>
<g>
	<g>
		<path class="st0" d="M451.1,140.4c0,1.6-1.3,2.9-2.9,2.9l0,0c-1.6,0-2.9-1.3-2.9-2.9v-4.6c0-1.6,1.3-2.9,2.9-2.9l0,0
			c1.6,0,2.9,1.3,2.9,2.9V140.4z"/>
		<path class="st0" d="M486.2,140.4c0,1.6-1.3,2.9-2.9,2.9l0,0c-1.6,0-2.9-1.3-2.9-2.9v-4.6c0-1.6,1.3-2.9,2.9-2.9l0,0
			c1.6,0,2.9,1.3,2.9,2.9V140.4z"/>
		<path class="st25" d="M480.8,101.3c-2.6-1.7-8.3-2.9-15-2.9c-6.6,0-12.3,1.2-14.9,2.8c-4.3,2.5-6.3,10.6-6.3,18.7v15.7h7.7V120
			c0-5.3,1.7-8.6,2.8-10.3v28.9h21.4v-28.5c1.2,1.8,2.9,5,2.9,9.8v15.7h7.7V120C487.1,112,485.1,103.9,480.8,101.3z"/>
		<path class="st2" d="M475.1,86.8c0,5.2-4.1,9.4-9.1,9.4c-5,0-9.1-4.2-9.1-9.4c0-5.2,4.1-9.4,9.1-9.4
			C471,77.4,475.1,81.6,475.1,86.8z"/>
		<path class="st3" d="M458.4,84.2c0.9-1.1,2.1-1.8,3.2-2.8c0.7-0.7,1.9-0.8,2.6,0c1.6,1.7,4.5,3.3,6.8,1.9c0.9-0.5,2-0.2,2.6,0.7
			c0.2,0.4,0.9,0.7,1.5,1c-0.8-4.3-4.5-7.6-9-7.6c-4.9,0-8.9,4-9.1,9C457.5,85.8,457.8,84.8,458.4,84.2z"/>
		<path class="st2" d="M476.3,87.1c0,1.4-0.4,2.5-1,2.5c-0.5,0-1-1.1-1-2.5c0-1.4,0.4-2.5,1-2.5C475.8,84.7,476.3,85.8,476.3,87.1z"
			/>
		<path class="st2" d="M457.9,87.1c0,1.4-0.4,2.5-1,2.5c-0.5,0-1-1.1-1-2.5c0-1.4,0.4-2.5,1-2.5C457.4,84.7,457.9,85.8,457.9,87.1z"
			/>
		<g>
			<g>
				<path class="st4" d="M476,81.4c0-0.1,0-0.1-0.1-0.2c-0.2-0.5-0.6-2.1-0.6-2.7c0-4.4-4.1-8-9.3-8c-5.1,0-9.3,3.6-9.3,8
					c0,0.5-0.5,2-0.8,2.9H476z"/>
				<path class="st4" d="M465.9,73.4c1.3,0,2.4-1.1,2.4-2.4c0-1.3-1.1-2.4-2.4-2.4c-1.3,0-2.4,1.1-2.4,2.4
					C463.5,72.3,464.6,73.4,465.9,73.4z"/>
				<g>
					<path class="st5" d="M460.6,72c0.8-0.5,1.8-0.9,2.8-1.2c0.1,0.2,0.1,0.3,0.1,0.5v6.4c0,0.8-0.6,1.4-1.4,1.4l0,0
						c-0.8,0-1.4-0.6-1.4-1.4V72z"/>
					<path class="st5" d="M468.5,70.8c1,0.2,1.9,0.6,2.8,1.1v5.9c0,0.8-0.6,1.4-1.4,1.4l0,0c-0.8,0-1.4-0.6-1.4-1.4v-6.4
						C468.4,71.1,468.4,70.9,468.5,70.8z"/>
				</g>
			</g>
			<path class="st5" d="M474.5,81.6c0,0.4-0.3,0.8-0.8,0.8h-16c-0.4,0-0.8-0.3-0.8-0.8l0,0c0-0.4,0.3-0.8,0.8-0.8h16
				C474.2,80.9,474.5,81.2,474.5,81.6L474.5,81.6z"/>
		</g>
		<path class="st20" d="M476.7,138.7l-0.2-16.7h-21.4v18.1c-5.1,12.6-5.7,36.6-5.5,44.6l9.6-0.3c-0.3-11.7,2-29.4,5.6-38.2h3.1
			c3.5,9,5.4,26.6,5.1,38.2l9.6,0.3C483,176.4,482.3,150.9,476.7,138.7z"/>
		<path class="st7" d="M460.6,187.3c0.1-0.3,0.2-0.7,0.2-1c0-1.8-1.5-3.3-3.3-3.3h-5.8c-1.8,0-3.3,1.5-3.3,3.3c0,0.4,0.1,0.7,0.2,1
			H460.6z"/>
		<path class="st7" d="M484.2,187.3c0.1-0.3,0.2-0.7,0.2-1c0-1.8-1.5-3.3-3.3-3.3h-5.8c-1.8,0-3.3,1.5-3.3,3.3c0,0.4,0.1,0.7,0.2,1
			H484.2z"/>
		<rect x="458.1" y="109.1" class="st20" width="15.1" height="16.4"/>
		<polygon class="st20" points="456.8,99.1 458.3,110.3 461.2,109.7 459.7,98.8 		"/>
		<polygon class="st20" points="474.4,99.1 472.9,110.3 470,109.7 471.6,98.8 		"/>
		<path class="st0" d="M461.9,98.2c0,0.1,0,0.3,0,0.3c0,1.6,1.7,2.9,3.9,2.9c2.1,0,3.9-1.6,3.9-3.2c0,0-1.9-0.1-3.8-0.2
			C463.9,98.1,461.9,98.2,461.9,98.2z"/>
		<path class="st26" d="M460.3,117.3v5.2c0,2,1.6,3.6,3.6,3.6h3.6c2,0,3.6-1.6,3.6-3.6v-5.2H460.3z"/>
		<rect x="454.6" y="136.1" class="st27" width="22.9" height="4.1"/>
		<rect x="463.7" y="135.6" class="st10" width="4.9" height="5"/>
		<rect x="467.3" y="137.8" class="st10" width="1.8" height="0.5"/>
	</g>
	<g class="st11">
		<path class="st0" d="M486.2,140.4c0,1.6-1.3,2.9-2.9,2.9l0,0c-1.6,0-2.9-1.3-2.9-2.9v-4.6c0-1.6,1.3-2.9,2.9-2.9l0,0
			c1.6,0,2.9,1.3,2.9,2.9V140.4z"/>
		<path class="st25" d="M480.8,101.3c-2.4-1.6-7.7-2.7-14-2.8v40.2h9.7v-28.5c1.2,1.8,2.9,5,2.9,9.8v15.7h7.7V120
			C487.1,112,485.1,103.9,480.8,101.3z"/>
		<path class="st2" d="M466.8,77.5v18.7c4.7-0.4,8.3-4.4,8.3-9.4C475.1,81.9,471.5,77.9,466.8,77.5z"/>
		<path class="st3" d="M466.8,77.5v5.8c1.4,0.6,2.9,0.8,4.1,0c0.9-0.5,2-0.2,2.6,0.7c0.2,0.4,0.9,0.7,1.5,1
			C474.2,81,470.9,77.8,466.8,77.5z"/>
		<path class="st2" d="M476.3,87.1c0,1.4-0.4,2.5-1,2.5c-0.5,0-1-1.1-1-2.5c0-1.4,0.4-2.5,1-2.5C475.8,84.7,476.3,85.8,476.3,87.1z"
			/>
		<g>
			<g>
				<path class="st4" d="M466.8,81.4h9.2c0-0.1,0-0.1-0.1-0.2c-0.2-0.5-0.6-2.1-0.6-2.7c0-4.2-3.7-7.7-8.5-8V81.4z"/>
				<path class="st4" d="M466.8,68.8v4.4c0.9-0.4,1.5-1.2,1.5-2.2C468.3,70,467.7,69.1,466.8,68.8z"/>
				<g>
					<path class="st5" d="M468.5,70.8c1,0.2,1.9,0.6,2.8,1.1v5.9c0,0.8-0.6,1.4-1.4,1.4l0,0c-0.8,0-1.4-0.6-1.4-1.4v-6.4
						C468.4,71.1,468.4,70.9,468.5,70.8z"/>
				</g>
			</g>
			<path class="st5" d="M473.8,80.9h-7v1.5h7c0.4,0,0.8-0.3,0.8-0.8C474.5,81.2,474.2,80.9,473.8,80.9z"/>
		</g>
		<path class="st20" d="M476.7,138.7l-0.2-16.7h-9.7v24.2h1.2c3.5,9,5.4,26.6,5.1,38.2l9.6,0.3C483,176.4,482.3,150.9,476.7,138.7z"
			/>
		<path class="st7" d="M484.2,187.3c0.1-0.3,0.2-0.7,0.2-1c0-1.8-1.5-3.3-3.3-3.3h-5.8c-1.8,0-3.3,1.5-3.3,3.3c0,0.4,0.1,0.7,0.2,1
			H484.2z"/>
		<rect x="466.8" y="109.1" class="st20" width="6.3" height="16.4"/>
		<polygon class="st20" points="474.4,99.1 472.9,110.3 470,109.7 471.6,98.8 		"/>
		<path class="st0" d="M466.8,98.1v3.2c1.7-0.4,2.9-1.7,2.9-3.1C469.7,98.2,468.3,98.1,466.8,98.1z"/>
		<path class="st26" d="M466.8,117.3v8.8h0.7c2,0,3.6-1.6,3.6-3.6v-5.2H466.8z"/>
		<rect x="466.8" y="136.1" class="st27" width="10.7" height="4.1"/>
		<rect x="466.8" y="135.6" class="st10" width="1.8" height="5"/>
		<rect x="467.3" y="137.8" class="st10" width="1.8" height="0.5"/>
	</g>
</g>
<g>
	<g>
		<path class="st0" d="M387.3,134.9c0,1.8-1.5,3.2-3.2,3.2l0,0c-1.8,0-3.2-1.5-3.2-3.2v-5.2c0-1.8,1.5-3.2,3.2-3.2l0,0
			c1.8,0,3.2,1.5,3.2,3.2V134.9z"/>
		<path class="st0" d="M426.6,134.9c0,1.8-1.5,3.2-3.2,3.2l0,0c-1.8,0-3.2-1.5-3.2-3.2v-5.2c0-1.8,1.5-3.2,3.2-3.2l0,0
			c1.8,0,3.2,1.5,3.2,3.2V134.9z"/>
		<path class="st28" d="M420.6,91.2c-2.9-1.9-9.3-3.2-16.8-3.2c-7.4,0-13.8,1.3-16.7,3.2c-4.9,2.8-7.1,11.9-7.1,21v17.5h8.6v-17.5
			c0-5.9,1.9-9.7,3.1-11.5V133h24v-31.9c1.3,2,3.2,5.6,3.2,11v17.5h8.6v-17.5C427.7,103.1,425.5,94,420.6,91.2z"/>
		<rect x="402.3" y="90.7" class="st29" width="3.5" height="39.9"/>
		<ellipse class="st2" cx="404.1" cy="74.9" rx="10.2" ry="10.5"/>
		<path class="st3" d="M395.5,72c1-1.2,2.4-2.1,3.6-3.1c0.8-0.7,2.2-0.9,3,0c1.8,1.9,5.1,3.7,7.6,2.2c1-0.6,2.3-0.2,2.9,0.8
			c0.3,0.4,1,0.8,1.6,1.2c-0.9-4.9-5.1-8.5-10-8.5c-5.5,0-10,4.5-10.2,10.1C394.5,73.7,394.9,72.7,395.5,72z"/>
		<path class="st2" d="M415.6,75.3c0,1.5-0.5,2.8-1.1,2.8s-1.1-1.2-1.1-2.8c0-1.5,0.5-2.8,1.1-2.8S415.6,73.7,415.6,75.3z"/>
		<path class="st2" d="M395,75.3c0,1.5-0.5,2.8-1.1,2.8c-0.6,0-1.1-1.2-1.1-2.8c0-1.5,0.5-2.8,1.1-2.8C394.5,72.5,395,73.7,395,75.3
			z"/>
		<g>
			<g>
				<path class="st30" d="M415.2,68.8c0-0.1,0-0.2-0.1-0.3c-0.2-0.6-0.7-2.3-0.7-3c0-5-4.6-9-10.4-9c-5.7,0-10.4,4-10.4,9
					c0,0.6-0.5,2.3-0.9,3.2H415.2z"/>
			</g>
			<path class="st31" d="M413.6,69.1c0,0.5-0.4,0.9-0.9,0.9h-17.9c-0.5,0-0.9-0.4-0.9-0.9l0,0c0-0.5,0.4-0.9,0.9-0.9h17.9
				C413.2,68.2,413.6,68.6,413.6,69.1L413.6,69.1z"/>
		</g>
		<path class="st32" d="M416,133.1l-0.2-0.6h-24v2.2c-5.7,14.1-6.4,41-6.1,50l10.8-0.3c-0.4-13.1,2.3-32.9,6.3-42.8h3.5
			c3.9,10.1,6.1,29.8,5.7,42.8l10.8,0.3C423.1,175.3,422.3,146.7,416,133.1z"/>
		<path class="st7" d="M398,187.5c0.1-0.4,0.2-0.8,0.2-1.2c0-2.1-1.7-3.7-3.7-3.7h-6.5c-2.1,0-3.7,1.7-3.7,3.7
			c0,0.4,0.1,0.8,0.2,1.2H398z"/>
		<path class="st7" d="M424.5,187.5c0.1-0.4,0.2-0.8,0.2-1.2c0-2.1-1.7-3.7-3.7-3.7h-6.5c-2.1,0-3.7,1.7-3.7,3.7
			c0,0.4,0.1,0.8,0.2,1.2H424.5z"/>
		<rect x="391.2" y="130.1" class="st24" width="25.7" height="4.6"/>
		<g>
			<path class="st33" d="M404.8,98.2c0,0.5-0.4,0.9-0.9,0.9c-0.5,0-0.9-0.4-0.9-0.9c0-0.5,0.4-0.9,0.9-0.9
				C404.5,97.3,404.8,97.7,404.8,98.2z"/>
			<path class="st33" d="M404.8,104.5c0,0.5-0.4,0.9-0.9,0.9c-0.5,0-0.9-0.4-0.9-0.9c0-0.5,0.4-0.9,0.9-0.9
				C404.5,103.7,404.8,104,404.8,104.5z"/>
			<path class="st33" d="M404.8,110.9c0,0.5-0.4,0.9-0.9,0.9c-0.5,0-0.9-0.4-0.9-0.9c0-0.5,0.4-0.9,0.9-0.9
				C404.5,110,404.8,110.4,404.8,110.9z"/>
			<path class="st33" d="M404.8,117.2c0,0.5-0.4,0.9-0.9,0.9c-0.5,0-0.9-0.4-0.9-0.9c0-0.5,0.4-0.9,0.9-0.9
				C404.5,116.4,404.8,116.7,404.8,117.2z"/>
			<path class="st33" d="M404.8,123.6c0,0.5-0.4,0.9-0.9,0.9c-0.5,0-0.9-0.4-0.9-0.9c0-0.5,0.4-0.9,0.9-0.9
				C404.5,122.7,404.8,123.1,404.8,123.6z"/>
		</g>
		<path class="st0" d="M399.4,88.1c0,0.1,0,0.3,0,0.3c0,1.8,1.9,3.2,4.4,3.2c2.4,0,4.4-1.8,4.4-3.6c0,0-2.1-0.2-4.3-0.2
			C401.7,88,399.5,88.1,399.4,88.1z"/>
	</g>
	<g class="st11">
		<path class="st0" d="M426.6,134.9c0,1.8-1.5,3.2-3.2,3.2l0,0c-1.8,0-3.2-1.5-3.2-3.2v-5.2c0-1.8,1.5-3.2,3.2-3.2l0,0
			c1.8,0,3.2,1.5,3.2,3.2V134.9z"/>
		<path class="st28" d="M420.6,91.2c-2.7-1.8-8.5-3-15.4-3.2v45h10.6v-31.9c1.3,2,3.2,5.6,3.2,11v17.5h8.6v-17.5
			C427.7,103.1,425.5,94,420.6,91.2z"/>
		<rect x="405.3" y="90.7" class="st29" width="0.5" height="39.9"/>
		<path class="st2" d="M405.3,64.5v20.9c5.1-0.6,9-5.1,9-10.4S410.3,65.1,405.3,64.5z"/>
		<path class="st3" d="M405.3,64.5v6.6c1.4,0.6,3,0.7,4.3-0.1c1-0.6,2.3-0.2,2.9,0.8c0.3,0.4,1,0.8,1.6,1.2
			C413.3,68.5,409.7,65,405.3,64.5z"/>
		<path class="st2" d="M415.6,75.3c0,1.5-0.5,2.8-1.1,2.8s-1.1-1.2-1.1-2.8c0-1.5,0.5-2.8,1.1-2.8S415.6,73.7,415.6,75.3z"/>
		<g>
			<g>
				<path class="st30" d="M405.3,68.8h10c0-0.1,0-0.2-0.1-0.3c-0.2-0.6-0.7-2.3-0.7-3c0-4.6-4-8.4-9.2-8.9V68.8z"/>
			</g>
			<path class="st31" d="M412.8,68.2h-7.5V70h7.5c0.5,0,0.9-0.4,0.9-0.9C413.6,68.6,413.2,68.2,412.8,68.2z"/>
		</g>
		<path class="st32" d="M416,133.1l-0.2-0.6h-10.6v9h1c3.9,10.1,6.1,29.8,5.7,42.8l10.8,0.3C423.1,175.3,422.3,146.7,416,133.1z"/>
		<path class="st7" d="M424.5,187.5c0.1-0.4,0.2-0.8,0.2-1.2c0-2.1-1.7-3.7-3.7-3.7h-6.5c-2.1,0-3.7,1.7-3.7,3.7
			c0,0.4,0.1,0.8,0.2,1.2H424.5z"/>
		<rect x="405.3" y="130.1" class="st24" width="11.6" height="4.6"/>
		<path class="st0" d="M405.3,88v3.5c1.7-0.5,2.9-1.9,2.9-3.3C408.2,88.1,406.9,88,405.3,88z"/>
	</g>
</g>
<g>
	<g>
		<path class="st0" d="M323.6,129.4c0,2-1.6,3.6-3.6,3.6l0,0c-2,0-3.6-1.6-3.6-3.6v-5.8c0-2,1.6-3.6,3.6-3.6l0,0
			c2,0,3.6,1.6,3.6,3.6V129.4z"/>
		<path class="st0" d="M367.2,129.4c0,2-1.6,3.6-3.6,3.6l0,0c-2,0-3.6-1.6-3.6-3.6v-5.8c0-2,1.6-3.6,3.6-3.6l0,0
			c2,0,3.6,1.6,3.6,3.6V129.4z"/>
		<path class="st18" d="M360.5,80.8c-3.2-2.1-10.3-3.6-18.6-3.6c-8.3,0-15.4,1.4-18.6,3.5c-5.4,3.1-7.9,13.2-7.9,23.3v19.5h9.6V104
			c0-6.6,2.1-10.7,3.5-12.8v36h26.6V91.8c1.5,2.2,3.6,6.2,3.6,12.2v19.5h9.6V104C368.3,94,365.9,84,360.5,80.8z"/>
		<rect x="340.2" y="80.3" class="st34" width="3.8" height="44.3"/>
		<path class="st2" d="M353.5,62.8c0,6.4-5.1,11.7-11.4,11.7c-6.3,0-11.4-5.2-11.4-11.7c0-6.4,5.1-11.7,11.4-11.7
			C348.4,51.1,353.5,56.3,353.5,62.8z"/>
		<path class="st3" d="M332.6,59.5c1.2-1.3,2.6-2.3,3.9-3.5c0.9-0.8,2.4-1,3.3,0c2,2.2,5.6,4.1,8.4,2.4c1.1-0.7,2.5-0.2,3.2,0.8
			c0.3,0.5,1.1,0.9,1.8,1.3c-1-5.4-5.6-9.5-11.2-9.5c-6.1,0-11.1,5-11.3,11.2C331.5,61.4,331.9,60.3,332.6,59.5z"/>
		<path class="st2" d="M354.9,63.1c0,1.7-0.5,3.1-1.2,3.1c-0.7,0-1.2-1.4-1.2-3.1c0-1.7,0.5-3.1,1.2-3.1
			C354.3,60.1,354.9,61.4,354.9,63.1z"/>
		<path class="st2" d="M332,63.1c0,1.7-0.5,3.1-1.2,3.1c-0.7,0-1.2-1.4-1.2-3.1c0-1.7,0.5-3.1,1.2-3.1C331.5,60.1,332,61.4,332,63.1
			z"/>
		<g>
			<g>
				<g>
					<path class="st18" d="M354.5,56c0-0.1,0-0.2-0.1-0.3c-0.2-0.7-0.7-2.6-0.7-3.3c0-5.5-5.1-10-11.5-10c-6.4,0-11.5,4.5-11.5,10
						c0,0.6-0.6,2.5-1,3.6H354.5z"/>
				</g>
				<g>
					<path class="st34" d="M352.7,56.3c0,0.5-0.4,1-1,1h-19.8c-0.5,0-1-0.4-1-1l0,0c0-0.5,0.4-1,1-1h19.8
						C352.3,55.3,352.7,55.8,352.7,56.3L352.7,56.3z"/>
				</g>
			</g>
		</g>
		<path class="st20" d="M355.4,127.3l-0.2-0.7h-26.6v2.4c-6.3,15.7-7.1,45.6-6.8,55.5l12-0.3c-0.4-14.5,2.5-36.5,7-47.5h3.9
			c4.3,11.2,6.7,33.1,6.3,47.5l12,0.3C363.2,174.2,362.4,142.4,355.4,127.3z"/>
		<path class="st7" d="M335.3,187.7c0.1-0.4,0.2-0.8,0.2-1.3c0-2.3-1.9-4.2-4.2-4.2h-7.2c-2.3,0-4.2,1.9-4.2,4.2
			c0,0.4,0.1,0.9,0.2,1.3H335.3z"/>
		<path class="st7" d="M364.8,187.7c0.1-0.4,0.2-0.8,0.2-1.3c0-2.3-1.9-4.2-4.2-4.2h-7.2c-2.3,0-4.2,1.9-4.2,4.2
			c0,0.4,0.1,0.9,0.2,1.3H364.8z"/>
		<rect x="327.9" y="126.5" class="st35" width="28.5" height="2.6"/>
		<g>
			<g>
				<path class="st36" d="M343,88.6c0,0.5-0.4,1-1,1c-0.5,0-1-0.4-1-1c0-0.5,0.4-1,1-1C342.6,87.6,343,88,343,88.6z"/>
				<path class="st36" d="M343,95.6c0,0.5-0.4,1-1,1c-0.5,0-1-0.4-1-1c0-0.5,0.4-1,1-1C342.6,94.7,343,95.1,343,95.6z"/>
				<path class="st36" d="M343,102.7c0,0.5-0.4,1-1,1c-0.5,0-1-0.4-1-1c0-0.5,0.4-1,1-1C342.6,101.7,343,102.1,343,102.7z"/>
				<path class="st36" d="M343,109.7c0,0.5-0.4,1-1,1c-0.5,0-1-0.4-1-1c0-0.5,0.4-1,1-1C342.6,108.7,343,109.2,343,109.7z"/>
				<path class="st36" d="M343,116.8c0,0.5-0.4,1-1,1c-0.5,0-1-0.4-1-1c0-0.5,0.4-1,1-1C342.6,115.8,343,116.2,343,116.8z"/>
			</g>
		</g>
		<path class="st0" d="M337,77.4c0,0.1,0,0.3,0,0.4c0,2,2.2,3.6,4.8,3.6c2.7,0,4.8-2,4.8-4c0,0-2.4-0.2-4.8-0.2
			C339.5,77.2,337.1,77.4,337,77.4z"/>
		<path class="st35" d="M330.6,94.2v3.6c0,1.4,1.1,2.5,2.5,2.5h2.5c1.4,0,2.5-1.1,2.5-2.5v-3.6H330.6z"/>
		<path class="st35" d="M345.7,94.2v3.6c0,1.4,1.1,2.5,2.5,2.5h2.5c1.4,0,2.5-1.1,2.5-2.5v-3.6H345.7z"/>
	</g>
	<g class="st11">
		<path class="st0" d="M367.2,129.4c0,2-1.6,3.6-3.6,3.6l0,0c-2,0-3.6-1.6-3.6-3.6v-5.8c0-2,1.6-3.6,3.6-3.6l0,0
			c2,0,3.6,1.6,3.6,3.6V129.4z"/>
		<path class="st18" d="M360.5,80.8c-3.2-2.1-10.3-3.5-18.6-3.6v50h13.2V91.8c1.5,2.2,3.6,6.2,3.6,12.2v19.5h9.6V104
			C368.3,94,365.9,84,360.5,80.8z"/>
		<rect x="342" y="80.3" class="st34" width="2.1" height="44.3"/>
		<path class="st2" d="M342.1,51.1c-0.1,0-0.1,0-0.2,0v23.3c0.1,0,0.1,0,0.2,0c6.3,0,11.4-5.2,11.4-11.7
			C353.5,56.3,348.4,51.1,342.1,51.1z"/>
		<path class="st3" d="M342.1,51.1c-0.1,0-0.1,0-0.2,0v6.7c1.9,1.2,4.3,1.8,6.3,0.7c1.1-0.7,2.5-0.2,3.2,0.8
			c0.3,0.5,1.1,0.9,1.8,1.3C352.3,55.2,347.7,51.1,342.1,51.1z"/>
		<path class="st2" d="M354.9,63.1c0,1.7-0.5,3.1-1.2,3.1c-0.7,0-1.2-1.4-1.2-3.1c0-1.7,0.5-3.1,1.2-3.1
			C354.3,60.1,354.9,61.4,354.9,63.1z"/>
		<g>
			<g>
				<g>
					<path class="st18" d="M342,56h12.5c0-0.1,0-0.2-0.1-0.3c-0.2-0.7-0.7-2.6-0.7-3.3c0-5.5-5.1-10-11.5-10c-0.1,0-0.1,0-0.2,0V56z
						"/>
				</g>
				<g>
					<path class="st34" d="M351.8,55.3H342v1.9h9.8c0.5,0,1-0.4,1-1C352.7,55.8,352.3,55.3,351.8,55.3z"/>
				</g>
			</g>
		</g>
		<path class="st20" d="M355.4,127.3l-0.2-0.7H342v10h2.6c4.3,11.2,6.7,33.1,6.3,47.5l12,0.3C363.2,174.2,362.4,142.4,355.4,127.3z"
			/>
		<path class="st7" d="M364.8,187.7c0.1-0.4,0.2-0.8,0.2-1.3c0-2.3-1.9-4.2-4.2-4.2h-7.2c-2.3,0-4.2,1.9-4.2,4.2
			c0,0.4,0.1,0.9,0.2,1.3H364.8z"/>
		<rect x="342" y="126.5" class="st35" width="14.4" height="2.6"/>
		<g>
			<g>
				<path class="st36" d="M342,87.6C342,87.6,342,87.6,342,87.6l-0.1,1.9c0,0,0,0,0.1,0c0.5,0,1-0.4,1-1C343,88,342.6,87.6,342,87.6
					z"/>
				<path class="st36" d="M342,94.7C342,94.7,342,94.7,342,94.7l-0.1,1.9c0,0,0,0,0.1,0c0.5,0,1-0.4,1-1
					C343,95.1,342.6,94.7,342,94.7z"/>
				<path class="st36" d="M342,101.7C342,101.7,342,101.7,342,101.7l-0.1,1.9c0,0,0,0,0.1,0c0.5,0,1-0.4,1-1
					C343,102.1,342.6,101.7,342,101.7z"/>
				<path class="st36" d="M342,108.7C342,108.7,342,108.8,342,108.7l-0.1,1.9c0,0,0,0,0.1,0c0.5,0,1-0.4,1-1
					C343,109.2,342.6,108.7,342,108.7z"/>
				<path class="st36" d="M342,115.8C342,115.8,342,115.8,342,115.8l-0.1,1.9c0,0,0,0,0.1,0c0.5,0,1-0.4,1-1
					C343,116.2,342.6,115.8,342,115.8z"/>
			</g>
		</g>
		<path class="st0" d="M342,77.2v4.2c2.6-0.1,4.7-2,4.7-4C346.7,77.4,344.3,77.3,342,77.2z"/>
		<path class="st35" d="M345.7,94.2v3.6c0,1.4,1.1,2.5,2.5,2.5h2.5c1.4,0,2.5-1.1,2.5-2.5v-3.6H345.7z"/>
	</g>
</g>
<g>
	<g>
		<path class="st0" d="M260.3,124.3c0,2.1-1.7,3.8-3.8,3.8l0,0c-2.1,0-3.8-1.7-3.8-3.8v-6.2c0-2.1,1.7-3.8,3.8-3.8l0,0
			c2.1,0,3.8,1.7,3.8,3.8V124.3z"/>
		<path class="st0" d="M306.9,124.3c0,2.1-1.7,3.8-3.8,3.8l0,0c-2.1,0-3.8-1.7-3.8-3.8v-6.2c0-2.1,1.7-3.8,3.8-3.8l0,0
			c2.1,0,3.8,1.7,3.8,3.8V124.3z"/>
		<path class="st37" d="M299.8,72.4c-3.4-2.2-11-3.8-19.9-3.8c-8.8,0-16.4,1.5-19.8,3.8c-5.8,3.4-8.4,14.1-8.4,24.9V118h10.3V97.2
			c0-7.1,2.3-11.5,3.7-13.7V122h28.4V84.1c1.6,2.4,3.8,6.6,3.8,13.1V118h10.3V97.2C308.2,86.5,305.6,75.8,299.8,72.4z"/>
		<path class="st2" d="M292.3,53.1c0,6.9-5.4,12.5-12.1,12.5c-6.7,0-12.1-5.6-12.1-12.5c0-6.9,5.4-12.5,12.1-12.5
			C286.9,40.6,292.3,46.2,292.3,53.1z"/>
		<path class="st3" d="M270,49.6c1.2-1.4,2.8-2.4,4.2-3.7c1-0.9,2.6-1,3.5,0c2.1,2.3,6,4.4,9,2.6c1.2-0.7,2.7-0.2,3.4,0.9
			c0.3,0.5,1.1,1,2,1.4c-1.1-5.8-6-10.1-11.9-10.1c-6.5,0-11.9,5.3-12.1,11.9C268.8,51.7,269.3,50.4,270,49.6z"/>
		<path class="st2" d="M293.8,53.5c0,1.8-0.6,3.3-1.3,3.3c-0.7,0-1.3-1.5-1.3-3.3c0-1.8,0.6-3.3,1.3-3.3
			C293.2,50.2,293.8,51.7,293.8,53.5z"/>
		<path class="st2" d="M269.4,53.5c0,1.8-0.6,3.3-1.3,3.3c-0.7,0-1.3-1.5-1.3-3.3c0-1.8,0.6-3.3,1.3-3.3
			C268.8,50.2,269.4,51.7,269.4,53.5z"/>
		<path class="st20" d="M294.3,122.1l-0.2-0.7h-28.5v2.6c-6.8,16.8-7.6,48.7-7.3,59.3l12.8-0.4c-0.4-15.5,2.7-39,7.5-50.8h4.2
			c4.6,11.9,7.2,35.4,6.8,50.8l12.8,0.4C302.7,172.2,301.8,138.2,294.3,122.1z"/>
		<path class="st7" d="M272.9,186.6c0.1-0.4,0.2-0.9,0.2-1.4c0-2.5-2-4.4-4.4-4.4H261c-2.5,0-4.4,2-4.4,4.4c0,0.5,0.1,0.9,0.2,1.4
			H272.9z"/>
		<path class="st7" d="M304.4,186.6c0.1-0.4,0.2-0.9,0.2-1.4c0-2.5-2-4.4-4.4-4.4h-7.7c-2.5,0-4.4,2-4.4,4.4c0,0.5,0.1,0.9,0.2,1.4
			H304.4z"/>
		<path class="st35" d="M302.6,165.3c-0.3-5.6-0.8-11.7-1.5-17.7h-14.8c1,5.7,1.8,11.8,2.2,17.7H302.6z"/>
		<path class="st35" d="M272.4,165.3c0.6-5.9,1.4-12.1,2.5-17.7h-15.2c-0.8,6.1-1.3,12.2-1.5,17.7H272.4z"/>
		<path class="st38" d="M262.5,104.5v-7.3c0-1.9,0.2-3.8,0.5-5.5h-11.6c-0.2,1.9-0.2,3.7-0.2,5.5v7.3H262.5z"/>
		<path class="st38" d="M297.4,104.5h11.3v-7.3c0-1.8-0.1-3.6-0.2-5.5h-11.6c0.4,1.7,0.6,3.6,0.6,5.5V104.5z"/>
		<path class="st16" d="M288.6,69.1c-2.7-0.3-5.6-0.5-8.7-0.5c-2.9,0-5.7,0.2-8.2,0.5v49.3h16.9V69.1z"/>
		<path class="st0" d="M274.7,68.7c0,0.1,0,0.3,0,0.4c0,2.1,2.3,3.8,5.2,3.8c2.9,0,5.2-2.1,5.2-4.2c0,0-2.5-0.2-5.1-0.2
			C277.4,68.6,274.8,68.7,274.7,68.7z"/>
		<rect x="264.9" y="118.5" class="st17" width="30.4" height="5.5"/>
		<g>
			<g>
				<g>
					<path class="st9" d="M284.1,125h-7.5v-7.7h7.5V125z M277.6,124h5.5v-5.6h-5.5V124z"/>
				</g>
				<g>
					<rect x="281.4" y="120.3" class="st9" width="3.4" height="1.7"/>
				</g>
			</g>
		</g>
		<polygon class="st8" points="290.8,118.9 287.4,118.6 285,68.3 290.5,68.3 		"/>
		<polygon class="st8" points="268.3,118.7 271.7,118.4 274.4,68.3 269,68.3 		"/>
		<g>
			<g>
				<path class="st4" d="M293.5,44.6c0-0.1,0-0.2-0.1-0.3c-0.2-0.7-0.8-2.8-0.8-3.5c0-5.9-5.5-10.6-12.3-10.6
					c-6.8,0-12.3,4.8-12.3,10.6c0,0.7-0.6,2.7-1,3.8H293.5z"/>
				<circle class="st4" cx="280.2" cy="30.9" r="3.2"/>
				<g>
					<path class="st5" d="M273.1,32.2c1.1-0.7,2.4-1.2,3.7-1.6c0.1,0.2,0.1,0.5,0.1,0.7v8.5c0,1.1-0.9,1.9-1.9,1.9l0,0
						c-1.1,0-1.9-0.9-1.9-1.9V32.2z"/>
					<path class="st5" d="M283.6,30.5c1.3,0.3,2.6,0.8,3.7,1.5v7.9c0,1.1-0.9,1.9-1.9,1.9l0,0c-1.1,0-1.9-0.9-1.9-1.9v-8.5
						C283.4,31.1,283.4,30.8,283.6,30.5z"/>
				</g>
			</g>
			<path class="st5" d="M291.6,45c0,0.6-0.5,1-1,1h-21.2c-0.6,0-1-0.5-1-1l0,0c0-0.6,0.5-1,1-1h21.2C291.1,44,291.6,44.4,291.6,45
				L291.6,45z"/>
		</g>
	</g>
	<g class="st11">
		<path class="st0" d="M306.9,124.3c0,2.1-1.7,3.8-3.8,3.8l0,0c-2.1,0-3.8-1.7-3.8-3.8v-6.2c0-2.1,1.7-3.8,3.8-3.8l0,0
			c2.1,0,3.8,1.7,3.8,3.8V124.3z"/>
		<path class="st37" d="M299.8,72.4c-3.3-2.1-10.4-3.7-18.8-3.8V122h13V84.1c1.6,2.4,3.8,6.6,3.8,13.1V118h10.3V97.2
			C308.2,86.5,305.6,75.8,299.8,72.4z"/>
		<path class="st2" d="M281.1,40.6v24.9c6.3-0.5,11.2-5.9,11.2-12.4S287.3,41.1,281.1,40.6z"/>
		<path class="st3" d="M281.1,40.6v7.7c1.8,0.9,3.9,1.2,5.7,0.1c1.2-0.7,2.7-0.2,3.4,0.9c0.3,0.5,1.1,1,2,1.4
			C291.1,45.3,286.6,41.1,281.1,40.6z"/>
		<path class="st2" d="M293.8,53.5c0,1.8-0.6,3.3-1.3,3.3c-0.7,0-1.3-1.5-1.3-3.3c0-1.8,0.6-3.3,1.3-3.3
			C293.2,50.2,293.8,51.7,293.8,53.5z"/>
		<path class="st20" d="M294.3,122.1l-0.2-0.7h-13.1V132h1.8c4.6,11.9,7.2,35.4,6.8,50.8l12.8,0.4
			C302.7,172.2,301.8,138.2,294.3,122.1z"/>
		<path class="st7" d="M304.4,186.6c0.1-0.4,0.2-0.9,0.2-1.4c0-2.5-2-4.4-4.4-4.4h-7.7c-2.5,0-4.4,2-4.4,4.4c0,0.5,0.1,0.9,0.2,1.4
			H304.4z"/>
		<path class="st35" d="M302.6,165.3c-0.3-5.6-0.8-11.7-1.5-17.7h-14.8c1,5.7,1.8,11.8,2.2,17.7H302.6z"/>
		<path class="st38" d="M297.4,104.5h11.3v-7.3c0-1.8-0.1-3.6-0.2-5.5h-11.6c0.4,1.7,0.6,3.6,0.6,5.5V104.5z"/>
		<path class="st16" d="M281.1,68.6v49.8h7.6V69.1C286.3,68.8,283.7,68.6,281.1,68.6z"/>
		<path class="st0" d="M281.1,68.6v4.3c2.3-0.5,4-2.3,4-4.1C285,68.8,283.2,68.6,281.1,68.6z"/>
		<rect x="281.1" y="118.5" class="st17" width="14.3" height="5.5"/>
		<g>
			<g>
				<g>
					<polygon class="st9" points="281.1,117.3 281.1,118.4 283.1,118.4 283.1,124 281.1,124 281.1,125 284.1,125 284.1,117.3 					
						"/>
				</g>
				<g>
					<rect x="281.4" y="120.3" class="st9" width="3.4" height="1.7"/>
				</g>
			</g>
		</g>
		<polygon class="st8" points="290.8,118.9 287.4,118.6 285,68.3 290.5,68.3 		"/>
		<g>
			<g>
				<path class="st4" d="M281.1,44.6h12.4c0-0.1,0-0.2-0.1-0.3c-0.2-0.7-0.8-2.8-0.8-3.5c0-5.7-5.1-10.3-11.6-10.6V44.6z"/>
				<path class="st4" d="M281.1,27.8v6.1c1.3-0.4,2.3-1.6,2.3-3C283.3,29.4,282.4,28.2,281.1,27.8z"/>
				<g>
					<path class="st5" d="M283.6,30.5c1.3,0.3,2.6,0.8,3.7,1.5v7.9c0,1.1-0.9,1.9-1.9,1.9l0,0c-1.1,0-1.9-0.9-1.9-1.9v-8.5
						C283.4,31.1,283.4,30.8,283.6,30.5z"/>
				</g>
			</g>
			<path class="st5" d="M290.6,44h-9.5V46h9.5c0.6,0,1-0.5,1-1C291.6,44.4,291.1,44,290.6,44z"/>
		</g>
	</g>
</g>
</svg>
