<?xml version="1.0" encoding="utf-8"?>
<!-- Generator: Adobe Illustrator 23.0.1, SVG Export Plug-In . SVG Version: 6.00 Build 0)  -->
<svg version="1.1" id="Layer_1" xmlns="http://www.w3.org/2000/svg" xmlns:xlink="http://www.w3.org/1999/xlink" x="0px" y="0px"
	 viewBox="0 0 500 200" style="enable-background:new 0 0 500 200;" xml:space="preserve">
<style type="text/css">
	.st0{fill:#FFEAC7;}
	.st1{fill-rule:evenodd;clip-rule:evenodd;fill:#F4F5F4;}
	.st2{fill-rule:evenodd;clip-rule:evenodd;fill:#FFEAC7;}
	.st3{fill-rule:evenodd;clip-rule:evenodd;fill:#7E6055;}
	.st4{fill-rule:evenodd;clip-rule:evenodd;fill:#F5CD7E;}
	.st5{fill-rule:evenodd;clip-rule:evenodd;fill:#E4B559;}
	.st6{fill:#0988A1;}
	.st7{fill:#524C40;}
	.st8{fill:#106E82;}
	.st9{fill:#A17279;}
	.st10{fill:none;stroke:#573B3F;stroke-width:0.7082;stroke-miterlimit:10;}
	.st11{opacity:0.5;}
	.st12{fill-rule:evenodd;clip-rule:evenodd;fill:#FFD535;}
	.st13{fill:#F7933D;}
	.st14{fill:#BA722F;}
	.st15{fill:#E0B18D;}
	.st16{fill:none;stroke:#573B3F;stroke-width:0.7719;stroke-miterlimit:10;}
	.st17{fill-rule:evenodd;clip-rule:evenodd;fill:#8B8A8B;}
	.st18{fill-rule:evenodd;clip-rule:evenodd;fill:#B3B4B6;}
	.st19{fill:#A5A6A8;}
	.st20{fill:#8B8A8B;}
	.st21{fill:#573B3F;}
	.st22{fill-rule:evenodd;clip-rule:evenodd;fill:#0988A1;}
	.st23{fill-rule:evenodd;clip-rule:evenodd;fill:#106E82;}
	.st24{fill:#CADB2B;}
	.st25{fill:#F5A61C;}
	.st26{fill:none;stroke:#573B3F;stroke-width:0.8647;stroke-miterlimit:10;}
	.st27{fill:#CFCFCE;}
	.st28{fill-rule:evenodd;clip-rule:evenodd;fill:#E3545C;}
	.st29{fill:#976568;}
	.st30{fill-rule:evenodd;clip-rule:evenodd;fill:#EBECEB;}
	.st31{fill-rule:evenodd;clip-rule:evenodd;fill:#E5E5E5;}
	.st32{fill-rule:evenodd;clip-rule:evenodd;fill:#E8EBE9;}
	.st33{fill-rule:evenodd;clip-rule:evenodd;fill:#C8C7C6;}
	.st34{fill:#EBECEB;}
	.st35{fill:#FFFFFF;}
	.st36{fill-rule:evenodd;clip-rule:evenodd;fill:#0E778E;}
	.st37{fill:#0E778E;}
	.st38{fill:#1D1D1B;}
	.st39{fill-rule:evenodd;clip-rule:evenodd;fill:#F7933D;}
	.st40{fill-rule:evenodd;clip-rule:evenodd;fill:#BA722F;}
</style>
<g>
	<g>
		<path class="st0" d="M12.9,145c0,1.5-1.2,2.7-2.7,2.7l0,0c-1.5,0-2.7-1.2-2.7-2.7v-4.2c0-1.5,1.2-2.7,2.7-2.7l0,0
			c1.5,0,2.7,1.2,2.7,2.7V145z"/>
		<path class="st0" d="M45,145c0,1.5-1.2,2.7-2.7,2.7l0,0c-1.5,0-2.7-1.2-2.7-2.7v-4.2c0-1.5,1.2-2.7,2.7-2.7l0,0
			c1.5,0,2.7,1.2,2.7,2.7V145z"/>
		<path class="st1" d="M40.1,109.2c-2.3-1.5-7.6-2.6-13.7-2.6c-6.1,0-11.3,1.1-13.7,2.6c-4,2.3-5.8,9.8-5.8,17.2v14.4H14v-14.4
			c0-4.9,1.6-7.9,2.6-9.4v26.5h19.6v-26.1c1.1,1.6,2.6,4.6,2.6,9v14.4h7.1v-14.4C45.9,118.9,44.1,111.5,40.1,109.2z"/>
		<path class="st2" d="M34.9,95.9c0,4.8-3.8,8.6-8.4,8.6c-4.6,0-8.4-3.9-8.4-8.6c0-4.8,3.8-8.6,8.4-8.6
			C31.2,87.2,34.9,91.1,34.9,95.9z"/>
		<path class="st3" d="M19.5,93.4c0.9-1,2-1.7,2.9-2.6c0.7-0.6,1.8-0.7,2.4,0c1.4,1.6,4.1,3,6.2,1.8c0.8-0.5,1.9-0.2,2.3,0.6
			c0.2,0.4,0.8,0.7,1.3,1c-0.7-4-4.1-7-8.2-7c-4.5,0-8.2,3.7-8.4,8.3C18.7,94.9,19,94,19.5,93.4z"/>
		<path class="st2" d="M36,96.1c0,1.2-0.4,2.3-0.9,2.3c-0.5,0-0.9-1-0.9-2.3s0.4-2.3,0.9-2.3C35.6,93.9,36,94.9,36,96.1z"/>
		<path class="st2" d="M19.1,96.1c0,1.2-0.4,2.3-0.9,2.3c-0.5,0-0.9-1-0.9-2.3s0.4-2.3,0.9-2.3C18.7,93.9,19.1,94.9,19.1,96.1z"/>
		<g>
			<g>
				<path class="st4" d="M35.7,90.9c0-0.1,0-0.1,0-0.2c-0.2-0.5-0.5-1.9-0.5-2.4c0-4.1-3.8-7.4-8.5-7.4c-4.7,0-8.5,3.3-8.5,7.4
					c0,0.5-0.4,1.9-0.7,2.6H35.7z"/>
				<circle class="st4" cx="26.5" cy="81.3" r="2.2"/>
				<g>
					<path class="st5" d="M21.6,82.3c0.8-0.5,1.6-0.9,2.6-1.1c0.1,0.2,0.1,0.3,0.1,0.5v5.9c0,0.7-0.6,1.3-1.3,1.3l0,0
						c-0.7,0-1.3-0.6-1.3-1.3V82.3z"/>
					<path class="st5" d="M28.8,81.1c0.9,0.2,1.8,0.6,2.5,1v5.4c0,0.7-0.6,1.3-1.3,1.3l0,0c-0.7,0-1.3-0.6-1.3-1.3v-5.9
						C28.7,81.5,28.8,81.3,28.8,81.1z"/>
				</g>
			</g>
			<path class="st5" d="M34.4,91.1c0,0.4-0.3,0.7-0.7,0.7H19c-0.4,0-0.7-0.3-0.7-0.7l0,0c0-0.4,0.3-0.7,0.7-0.7h14.6
				C34.1,90.4,34.4,90.7,34.4,91.1L34.4,91.1z"/>
		</g>
		<path class="st6" d="M36.3,143.5l-0.2-15.3H16.5v16.6c-4.7,11.6-5.2,33.6-5,40.9l8.8-0.3c-0.3-10.7,1.8-26.9,5.1-35.1h2.9
			c3.2,8.2,5,24.4,4.7,35.1l8.8,0.3C42.1,178.1,41.5,154.6,36.3,143.5z"/>
		<path class="st7" d="M21.6,188c0.1-0.3,0.1-0.6,0.1-0.9c0-1.7-1.4-3.1-3.1-3.1h-5.3c-1.7,0-3.1,1.4-3.1,3.1c0,0.3,0.1,0.6,0.1,0.9
			H21.6z"/>
		<path class="st7" d="M43.3,188c0.1-0.3,0.1-0.6,0.1-0.9c0-1.7-1.4-3.1-3.1-3.1H35c-1.7,0-3.1,1.4-3.1,3.1c0,0.3,0.1,0.6,0.1,0.9
			H43.3z"/>
		<rect x="19.3" y="116.3" class="st6" width="13.8" height="15"/>
		<polygon class="st6" points="18.1,107.2 19.5,117.4 22.2,116.9 20.7,106.9 		"/>
		<polygon class="st6" points="34.3,107.2 32.9,117.4 30.3,116.9 31.7,106.9 		"/>
		<path class="st0" d="M22.8,106.7c0,0.1,0,0.2,0,0.3c0,1.5,1.6,2.7,3.6,2.7c2,0,3.6-1.5,3.6-2.9c0,0-1.8-0.1-3.5-0.1
			C24.6,106.5,22.8,106.7,22.8,106.7z"/>
		<path class="st8" d="M21.3,123.8v4.8c0,1.8,1.5,3.3,3.3,3.3h3.3c1.8,0,3.3-1.5,3.3-3.3v-4.8H21.3z"/>
		<rect x="16" y="141.1" class="st9" width="21" height="3.8"/>
		<rect x="24.5" y="140.6" class="st10" width="4.5" height="4.6"/>
		<rect x="27.8" y="142.7" class="st10" width="1.6" height="0.4"/>
	</g>
	<g class="st11">
		<path class="st0" d="M45,145c0,1.5-1.2,2.7-2.7,2.7l0,0c-1.5,0-2.7-1.2-2.7-2.7v-4.2c0-1.5,1.2-2.7,2.7-2.7l0,0
			c1.5,0,2.7,1.2,2.7,2.7V145z"/>
		<path class="st1" d="M40.1,109.2c-2.3-1.5-7.6-2.6-13.7-2.6c0,0-0.1,0-0.1,0v36.9h9.9v-26.1c1.1,1.6,2.6,4.6,2.6,9v14.4h7.1v-14.4
			C45.9,118.9,44.1,111.5,40.1,109.2z"/>
		<path class="st2" d="M26.6,87.2c-0.1,0-0.2,0-0.3,0v17.2c0.1,0,0.2,0,0.3,0c4.6,0,8.4-3.9,8.4-8.6C34.9,91.1,31.2,87.2,26.6,87.2z
			"/>
		<path class="st3" d="M26.6,87.2c-0.1,0-0.2,0-0.3,0v4.8c1.5,1,3.3,1.5,4.8,0.6c0.8-0.5,1.9-0.2,2.3,0.6c0.2,0.4,0.8,0.7,1.3,1
			C34,90.3,30.6,87.2,26.6,87.2z"/>
		<path class="st2" d="M36,96.1c0,1.2-0.4,2.3-0.9,2.3c-0.5,0-0.9-1-0.9-2.3s0.4-2.3,0.9-2.3C35.6,93.9,36,94.9,36,96.1z"/>
		<g>
			<g>
				<path class="st4" d="M26.3,90.9h9.4c0-0.1,0-0.1,0-0.2c-0.2-0.5-0.5-1.9-0.5-2.4c0-4.1-3.8-7.4-8.5-7.4c-0.1,0-0.2,0-0.3,0V90.9
					z"/>
				<path class="st4" d="M26.5,79.2c-0.1,0-0.1,0-0.2,0v4.4c0.1,0,0.1,0,0.2,0c1.2,0,2.2-1,2.2-2.2C28.7,80.1,27.7,79.2,26.5,79.2z"
					/>
				<g>
					<path class="st5" d="M28.8,81.1c0.9,0.2,1.8,0.6,2.5,1v5.4c0,0.7-0.6,1.3-1.3,1.3l0,0c-0.7,0-1.3-0.6-1.3-1.3v-5.9
						C28.7,81.5,28.8,81.3,28.8,81.1z"/>
				</g>
			</g>
			<path class="st5" d="M33.7,90.4h-7.4v1.4h7.4c0.4,0,0.7-0.3,0.7-0.7S34.1,90.4,33.7,90.4z"/>
		</g>
		<path class="st6" d="M36.3,143.5l-0.2-15.3h-9.9v22.2h2.1c3.2,8.2,5,24.4,4.7,35.1l8.8,0.3C42.1,178.1,41.5,154.6,36.3,143.5z"/>
		<path class="st7" d="M43.3,188c0.1-0.3,0.1-0.6,0.1-0.9c0-1.7-1.4-3.1-3.1-3.1H35c-1.7,0-3.1,1.4-3.1,3.1c0,0.3,0.1,0.6,0.1,0.9
			H43.3z"/>
		<rect x="26.3" y="116.3" class="st6" width="6.8" height="15"/>
		<polygon class="st6" points="34.3,107.2 32.9,117.4 30.3,116.9 31.7,106.9 		"/>
		<path class="st0" d="M26.4,106.6c0,0-0.1,0-0.1,0v3.1c0,0,0.1,0,0.1,0c2,0,3.6-1.5,3.6-2.9C29.9,106.7,28.2,106.6,26.4,106.6z"/>
		<path class="st8" d="M26.3,123.8v8.1h1.6c1.8,0,3.3-1.5,3.3-3.3v-4.8H26.3z"/>
		<rect x="26.3" y="141.1" class="st9" width="10.8" height="3.8"/>
		<rect x="26.3" y="140.6" class="st10" width="2.7" height="4.6"/>
		<rect x="27.8" y="142.7" class="st10" width="1.6" height="0.4"/>
	</g>
</g>
<g>
	<g>
		<path class="st0" d="M66.6,141.3c0,1.6-1.3,2.9-2.9,2.9l0,0c-1.6,0-2.9-1.3-2.9-2.9v-4.6c0-1.6,1.3-2.9,2.9-2.9l0,0
			c1.6,0,2.9,1.3,2.9,2.9V141.3z"/>
		<path class="st0" d="M101.6,141.3c0,1.6-1.3,2.9-2.9,2.9l0,0c-1.6,0-2.9-1.3-2.9-2.9v-4.6c0-1.6,1.3-2.9,2.9-2.9l0,0
			c1.6,0,2.9,1.3,2.9,2.9V141.3z"/>
		<path class="st12" d="M96.3,102.3c-2.6-1.7-8.3-2.9-15-2.9c-6.6,0-12.3,1.2-14.9,2.8c-4.3,2.5-6.3,10.6-6.3,18.7v15.7h7.7v-15.7
			c0-5.3,1.7-8.6,2.8-10.3v28.9H92v-28.5c1.2,1.8,2.9,5,2.9,9.8v15.7h7.7v-15.7C102.6,112.9,100.6,104.8,96.3,102.3z"/>
		<path class="st2" d="M90.6,87.7c0,5.2-4.1,9.4-9.1,9.4c-5,0-9.1-4.2-9.1-9.4c0-5.2,4.1-9.4,9.1-9.4C86.5,78.4,90.6,82.6,90.6,87.7
			z"/>
		<path class="st3" d="M73.9,85.1c0.9-1.1,2.1-1.8,3.2-2.8c0.7-0.7,1.9-0.8,2.6,0c1.6,1.7,4.5,3.3,6.8,1.9c0.9-0.5,2-0.2,2.6,0.7
			c0.2,0.4,0.9,0.7,1.5,1c-0.8-4.3-4.5-7.6-9-7.6c-4.9,0-8.9,4-9.1,9C72.9,86.7,73.3,85.8,73.9,85.1z"/>
		<path class="st2" d="M91.8,88.1c0,1.4-0.4,2.5-1,2.5c-0.5,0-1-1.1-1-2.5c0-1.4,0.4-2.5,1-2.5C91.3,85.6,91.8,86.7,91.8,88.1z"/>
		<path class="st2" d="M73.4,88.1c0,1.4-0.4,2.5-1,2.5c-0.5,0-1-1.1-1-2.5c0-1.4,0.4-2.5,1-2.5C72.9,85.6,73.4,86.7,73.4,88.1z"/>
		<g>
			<g>
				<path class="st4" d="M91.5,82.3c0-0.1,0-0.1-0.1-0.2c-0.2-0.5-0.6-2.1-0.6-2.7c0-4.4-4.1-8-9.3-8c-5.1,0-9.3,3.6-9.3,8
					c0,0.5-0.4,2-0.8,2.9H91.5z"/>
				<circle class="st4" cx="81.4" cy="71.9" r="2.4"/>
				<g>
					<path class="st5" d="M76.1,73c0.8-0.5,1.8-0.9,2.8-1.2c0.1,0.2,0.1,0.3,0.1,0.5v6.4c0,0.8-0.6,1.4-1.4,1.4l0,0
						c-0.8,0-1.4-0.6-1.4-1.4V73z"/>
					<path class="st5" d="M84,71.7c1,0.2,1.9,0.6,2.8,1.1v5.9c0,0.8-0.6,1.4-1.4,1.4l0,0c-0.8,0-1.4-0.6-1.4-1.4v-6.4
						C83.8,72.1,83.9,71.9,84,71.7z"/>
				</g>
			</g>
			<path class="st5" d="M90,82.6c0,0.4-0.3,0.8-0.8,0.8h-16c-0.4,0-0.8-0.3-0.8-0.8l0,0c0-0.4,0.3-0.8,0.8-0.8h16
				C89.7,81.8,90,82.1,90,82.6L90,82.6z"/>
		</g>
		<path class="st13" d="M92.2,139.7L92,123H70.6v18.1c-5.1,12.6-5.7,36.6-5.5,44.6l9.6-0.3c-0.3-11.7,2-29.4,5.6-38.2h3.1
			c3.5,9,5.4,26.6,5.1,38.2l9.6,0.3C98.5,177.4,97.8,151.8,92.2,139.7z"/>
		<path class="st7" d="M76,188.2c0.1-0.3,0.2-0.7,0.2-1c0-1.8-1.5-3.3-3.3-3.3h-5.8c-1.8,0-3.3,1.5-3.3,3.3c0,0.4,0.1,0.7,0.2,1H76z
			"/>
		<path class="st7" d="M99.7,188.2c0.1-0.3,0.2-0.7,0.2-1c0-1.8-1.5-3.3-3.3-3.3h-5.8c-1.8,0-3.3,1.5-3.3,3.3c0,0.4,0.1,0.7,0.2,1
			H99.7z"/>
		<rect x="73.6" y="110" class="st13" width="15.1" height="16.4"/>
		<polygon class="st13" points="72.3,100.1 73.8,111.2 76.7,110.6 75.1,99.7 		"/>
		<polygon class="st13" points="89.9,100.1 88.4,111.2 85.5,110.6 87.1,99.7 		"/>
		<path class="st0" d="M77.4,99.5c0,0.1,0,0.3,0,0.3c0,1.6,1.7,2.9,3.9,2.9c2.1,0,3.9-1.6,3.9-3.2c0,0-1.9-0.1-3.8-0.2
			C79.4,99.4,77.4,99.5,77.4,99.5z"/>
		<path class="st14" d="M75.8,118.2v5.2c0,2,1.6,3.6,3.6,3.6H83c2,0,3.6-1.6,3.6-3.6v-5.2H75.8z"/>
		<rect x="70" y="137" class="st15" width="22.9" height="4.1"/>
		<rect x="79.2" y="136.5" class="st16" width="4.9" height="5"/>
		<rect x="82.8" y="138.7" class="st16" width="1.8" height="0.5"/>
	</g>
	<g class="st11">
		<path class="st0" d="M101.6,141.3c0,1.6-1.3,2.9-2.9,2.9l0,0c-1.6,0-2.9-1.3-2.9-2.9v-4.6c0-1.6,1.3-2.9,2.9-2.9l0,0
			c1.6,0,2.9,1.3,2.9,2.9V141.3z"/>
		<path class="st12" d="M96.3,102.3c-2.5-1.6-8.1-2.8-14.5-2.9v40.2H92v-28.5c1.2,1.8,2.9,5,2.9,9.8v15.7h7.7v-15.7
			C102.6,112.9,100.6,104.8,96.3,102.3z"/>
		<path class="st2" d="M81.7,78.4v18.8c4.9-0.1,8.9-4.3,8.9-9.4C90.6,82.6,86.7,78.5,81.7,78.4z"/>
		<path class="st3" d="M81.7,78.4V84c1.5,0.8,3.2,1.2,4.7,0.3c0.9-0.5,2-0.2,2.6,0.7c0.2,0.4,0.9,0.7,1.5,1
			C89.7,81.7,86.1,78.5,81.7,78.4z"/>
		<path class="st2" d="M91.8,88.1c0,1.4-0.4,2.5-1,2.5c-0.5,0-1-1.1-1-2.5c0-1.4,0.4-2.5,1-2.5C91.3,85.6,91.8,86.7,91.8,88.1z"/>
		<g>
			<g>
				<path class="st4" d="M81.7,82.3h9.7c0-0.1,0-0.1-0.1-0.2c-0.2-0.5-0.6-2.1-0.6-2.7c0-4.4-4-7.9-9.1-8V82.3z"/>
				<path class="st4" d="M81.7,69.6v4.7c1.2-0.2,2.1-1.2,2.1-2.4C83.8,70.7,82.9,69.7,81.7,69.6z"/>
				<g>
					<path class="st5" d="M84,71.7c1,0.2,1.9,0.6,2.8,1.1v5.9c0,0.8-0.6,1.4-1.4,1.4l0,0c-0.8,0-1.4-0.6-1.4-1.4v-6.4
						C83.8,72.1,83.9,71.9,84,71.7z"/>
				</g>
			</g>
			<path class="st5" d="M89.3,81.8h-7.5v1.5h7.5c0.4,0,0.8-0.3,0.8-0.8C90,82.1,89.7,81.8,89.3,81.8z"/>
		</g>
		<path class="st13" d="M92.2,139.7L92,123H81.7v24.2h1.7c3.5,9,5.4,26.6,5.1,38.2l9.6,0.3C98.5,177.4,97.8,151.8,92.2,139.7z"/>
		<path class="st7" d="M99.7,188.2c0.1-0.3,0.2-0.7,0.2-1c0-1.8-1.5-3.3-3.3-3.3h-5.8c-1.8,0-3.3,1.5-3.3,3.3c0,0.4,0.1,0.7,0.2,1
			H99.7z"/>
		<rect x="81.7" y="110" class="st13" width="6.9" height="16.4"/>
		<polygon class="st13" points="89.9,100.1 88.4,111.2 85.5,110.6 87.1,99.7 		"/>
		<path class="st0" d="M81.7,99.4v3.3c1.9-0.2,3.4-1.7,3.4-3.2C85.2,99.6,83.5,99.4,81.7,99.4z"/>
		<path class="st14" d="M81.7,118.2v8.8H83c2,0,3.6-1.6,3.6-3.6v-5.2H81.7z"/>
		<rect x="81.7" y="137" class="st15" width="11.2" height="4.1"/>
		<rect x="81.7" y="136.5" class="st16" width="2.3" height="5"/>
		<rect x="82.8" y="138.7" class="st16" width="1.8" height="0.5"/>
	</g>
</g>
<g>
	<g>
		<path class="st17" d="M191.8,44.9c0.8,0,1.5-0.7,1.5-1.5c0-0.8-0.7-1.5-1.5-1.5c-0.8,0-1.5,0.7-1.5,1.5
			C190.3,44.2,191,44.9,191.8,44.9z"/>
		<path class="st0" d="M172.8,130.1c0,2-1.6,3.6-3.6,3.6l0,0c-2,0-3.6-1.6-3.6-3.6v-5.8c0-2,1.6-3.6,3.6-3.6l0,0
			c2,0,3.6,1.6,3.6,3.6V130.1z"/>
		<path class="st0" d="M216.5,130.1c0,2-1.6,3.6-3.6,3.6l0,0c-2,0-3.6-1.6-3.6-3.6v-5.8c0-2,1.6-3.6,3.6-3.6l0,0
			c2,0,3.6,1.6,3.6,3.6V130.1z"/>
		<path class="st18" d="M209.8,81.5c-3.2-2.1-10.3-3.6-18.6-3.6c-8.3,0-15.4,1.4-18.6,3.5c-5.4,3.1-7.9,13.2-7.9,23.3v19.5h9.6
			v-19.5c0-6.6,2.1-10.7,3.5-12.8v36h26.6V92.5c1.5,2.2,3.6,6.2,3.6,12.2v19.5h9.6v-19.5C217.6,94.7,215.2,84.7,209.8,81.5z"/>
		<ellipse class="st2" cx="191.4" cy="63.5" rx="11.4" ry="11.7"/>
		<path class="st3" d="M181.9,60.2c1.2-1.3,2.6-2.3,3.9-3.5c0.9-0.8,2.4-1,3.3,0c2,2.2,5.6,4.1,8.4,2.4c1.1-0.7,2.5-0.2,3.2,0.8
			c0.3,0.5,1.1,0.9,1.8,1.3c-1-5.4-5.6-9.5-11.2-9.5c-6.1,0-11.1,5-11.3,11.2C180.8,62.1,181.2,61,181.9,60.2z"/>
		<path class="st2" d="M204.2,63.8c0,1.7-0.5,3.1-1.2,3.1c-0.7,0-1.2-1.4-1.2-3.1s0.5-3.1,1.2-3.1C203.6,60.8,204.2,62.1,204.2,63.8
			z"/>
		<path class="st2" d="M181.3,63.8c0,1.7-0.5,3.1-1.2,3.1s-1.2-1.4-1.2-3.1s0.5-3.1,1.2-3.1S181.3,62.1,181.3,63.8z"/>
		<path class="st18" d="M203.8,56.7c0-0.1,0-0.2-0.1-0.3c-0.2-0.7-0.7-2.6-0.7-3.3c0-5.5-5.1-10-11.5-10c-6.4,0-11.5,4.5-11.5,10
			c0,0.6-0.6,2.5-1,3.6H203.8z"/>
		<path class="st17" d="M205.5,56.7c0,0.7-0.6,1.2-1.2,1.2h-25.4c-0.7,0-1.2-0.6-1.2-1.2l0,0c0-0.7,0.6-1.2,1.2-1.2h25.4
			C205,55.5,205.5,56,205.5,56.7L205.5,56.7z"/>
		<path class="st19" d="M204.7,128l-0.2-0.7h-26.6v2.4c-6.3,15.7-7.1,45.6-6.8,55.5l12-0.3c-0.4-14.5,2.5-36.5,7-47.5h3.9
			c4.3,11.2,6.7,33.1,6.3,47.5l12,0.3C212.5,174.9,211.7,143.1,204.7,128z"/>
		<path class="st7" d="M184.6,188.4c0.1-0.4,0.2-0.8,0.2-1.3c0-2.3-1.9-4.2-4.2-4.2h-7.2c-2.3,0-4.2,1.9-4.2,4.2
			c0,0.4,0.1,0.9,0.2,1.3H184.6z"/>
		<path class="st7" d="M214.1,188.4c0.1-0.4,0.2-0.8,0.2-1.3c0-2.3-1.9-4.2-4.2-4.2h-7.2c-2.3,0-4.2,1.9-4.2,4.2
			c0,0.4,0.1,0.9,0.2,1.3H214.1z"/>
		<path class="st20" d="M212.4,168.4c-0.3-5.2-0.7-10.9-1.4-16.6h-13.8c0.9,5.3,1.6,11,2.1,16.6H212.4z"/>
		<path class="st20" d="M184.1,168.4c0.5-5.6,1.3-11.3,2.3-16.6h-14.2c-0.7,5.7-1.2,11.4-1.4,16.6H184.1z"/>
		<path class="st17" d="M174.8,111.6v-6.9c0-1.8,0.2-3.5,0.5-5.1h-10.8c-0.2,1.7-0.2,3.5-0.2,5.1v6.9H174.8z"/>
		<path class="st17" d="M207.5,111.6h10.6v-6.9c0-1.7-0.1-3.4-0.2-5.1H207c0.4,1.6,0.6,3.3,0.6,5.1V111.6z"/>
		<path class="st1" d="M199.3,78.4c-2.5-0.3-5.2-0.5-8.1-0.5c-2.7,0-5.3,0.2-7.7,0.4v46.2h15.8V78.4z"/>
		<path class="st0" d="M186.3,78.1c0,0.1,0,0.3,0,0.4c0,2,2.2,3.6,4.8,3.6c2.7,0,4.8-2,4.8-4c0,0-2.4-0.2-4.8-0.2
			C188.8,77.9,186.3,78.1,186.3,78.1z"/>
		<rect x="177.2" y="124.7" class="st21" width="28.5" height="5.1"/>
		<g>
			<g>
				<g>
					<path class="st15" d="M195.1,130.8h-7v-7.2h7V130.8z M189,129.8h5.1v-5.3H189V129.8z"/>
				</g>
				<g>
					<rect x="192.5" y="126.4" class="st15" width="3.2" height="1.6"/>
				</g>
			</g>
		</g>
		<polygon class="st20" points="201.4,125.1 198.2,124.7 196,77.7 201.1,77.7 		"/>
		<polygon class="st20" points="180.3,124.9 183.5,124.6 186,77.7 180.9,77.7 		"/>
	</g>
	<g class="st11">
		<path class="st17" d="M191.8,42c-0.3,0-0.6,0.1-0.8,0.2v2.4c0.2,0.1,0.5,0.2,0.8,0.2c0.8,0,1.5-0.7,1.5-1.5
			C193.2,42.6,192.6,42,191.8,42z"/>
		<path class="st0" d="M216.5,130.1c0,2-1.6,3.6-3.6,3.6l0,0c-2,0-3.6-1.6-3.6-3.6v-5.8c0-2,1.6-3.6,3.6-3.6l0,0
			c2,0,3.6,1.6,3.6,3.6V130.1z"/>
		<path class="st18" d="M209.8,81.5c-3.2-2.1-10.3-3.6-18.6-3.6c-0.1,0-0.1,0-0.2,0v50h13.4V92.5c1.5,2.2,3.6,6.2,3.6,12.2v19.5h9.6
			v-19.5C217.6,94.7,215.2,84.7,209.8,81.5z"/>
		<path class="st2" d="M191.4,51.8c-0.1,0-0.3,0-0.4,0v23.3c0.1,0,0.3,0,0.4,0c6.3,0,11.4-5.2,11.4-11.7S197.7,51.8,191.4,51.8z"/>
		<path class="st3" d="M191.4,51.8c-0.1,0-0.3,0-0.4,0v6.5c2,1.3,4.5,2.1,6.5,0.8c1.1-0.7,2.5-0.2,3.2,0.8c0.3,0.5,1.1,0.9,1.8,1.3
			C201.5,55.9,196.9,51.8,191.4,51.8z"/>
		<path class="st2" d="M204.2,63.8c0,1.7-0.5,3.1-1.2,3.1c-0.7,0-1.2-1.4-1.2-3.1s0.5-3.1,1.2-3.1C203.6,60.8,204.2,62.1,204.2,63.8
			z"/>
		<path class="st18" d="M191,56.7h12.8c0-0.1,0-0.2-0.1-0.3c-0.2-0.7-0.7-2.6-0.7-3.3c0-5.5-5.1-10-11.5-10c-0.2,0-0.3,0-0.5,0V56.7
			z"/>
		<path class="st17" d="M204.3,55.5H191V58h13.3c0.7,0,1.2-0.6,1.2-1.2C205.5,56,205,55.5,204.3,55.5z"/>
		<path class="st19" d="M204.7,128l-0.2-0.7H191v10h2.9c4.3,11.2,6.7,33.1,6.3,47.5l12,0.3C212.5,174.9,211.7,143.1,204.7,128z"/>
		<path class="st7" d="M214.1,188.4c0.1-0.4,0.2-0.8,0.2-1.3c0-2.3-1.9-4.2-4.2-4.2h-7.2c-2.3,0-4.2,1.9-4.2,4.2
			c0,0.4,0.1,0.9,0.2,1.3H214.1z"/>
		<path class="st20" d="M212.4,168.4c-0.3-5.2-0.7-10.9-1.4-16.6h-13.8c0.9,5.3,1.6,11,2.1,16.6H212.4z"/>
		<path class="st17" d="M207.5,111.6h10.6v-6.9c0-1.7-0.1-3.4-0.2-5.1H207c0.4,1.6,0.6,3.3,0.6,5.1V111.6z"/>
		<path class="st1" d="M191.2,77.9c-0.1,0-0.1,0-0.2,0v46.6h8.3V78.4C196.8,78.1,194.1,77.9,191.2,77.9z"/>
		<path class="st0" d="M191.2,77.9c-0.1,0-0.1,0-0.2,0v4.2c0,0,0.1,0,0.1,0c2.7,0,4.8-2,4.8-4C196,78.1,193.6,77.9,191.2,77.9z"/>
		<rect x="191" y="124.7" class="st21" width="14.6" height="5.1"/>
		<g>
			<g>
				<g>
					<polygon class="st15" points="191,123.6 191,124.5 194.1,124.5 194.1,129.8 191,129.8 191,130.8 195.1,130.8 195.1,123.6 					
						"/>
				</g>
				<g>
					<rect x="192.5" y="126.4" class="st15" width="3.2" height="1.6"/>
				</g>
			</g>
		</g>
		<polygon class="st20" points="201.4,125.1 198.2,124.7 196,77.7 201.1,77.7 		"/>
	</g>
</g>
<g>
	<g>
		<path class="st0" d="M226.5,126.3c0,2.1-1.7,3.8-3.8,3.8l0,0c-2.1,0-3.8-1.7-3.8-3.8v-6.2c0-2.1,1.7-3.8,3.8-3.8l0,0
			c2.1,0,3.8,1.7,3.8,3.8V126.3z"/>
		<path class="st0" d="M273.1,126.3c0,2.1-1.7,3.8-3.8,3.8l0,0c-2.1,0-3.8-1.7-3.8-3.8v-6.2c0-2.1,1.7-3.8,3.8-3.8l0,0
			c2.1,0,3.8,1.7,3.8,3.8V126.3z"/>
		<path class="st1" d="M266,74.3c-3.4-2.2-11-3.8-19.9-3.8c-8.8,0-16.4,1.5-19.8,3.8c-5.8,3.4-8.4,14.1-8.4,24.9V120h10.3V99.2
			c0-7.1,2.3-11.5,3.7-13.7V124h28.4V86.1c1.6,2.4,3.8,6.6,3.8,13.1V120h10.3V99.2C274.4,88.5,271.7,77.7,266,74.3z"/>
		<ellipse class="st2" cx="246.3" cy="55.1" rx="12.1" ry="12.5"/>
		<path class="st3" d="M236.2,51.6c1.2-1.4,2.8-2.4,4.2-3.7c1-0.9,2.6-1,3.5,0c2.1,2.3,6,4.4,9,2.6c1.2-0.7,2.7-0.2,3.4,0.9
			c0.3,0.5,1.1,1,2,1.4c-1.1-5.8-6-10.1-11.9-10.1c-6.5,0-11.9,5.3-12.1,11.9C235,53.7,235.5,52.4,236.2,51.6z"/>
		<path class="st2" d="M260,55.5c0,1.8-0.6,3.3-1.3,3.3c-0.7,0-1.3-1.5-1.3-3.3s0.6-3.3,1.3-3.3C259.4,52.2,260,53.7,260,55.5z"/>
		<path class="st2" d="M235.5,55.5c0,1.8-0.6,3.3-1.3,3.3c-0.7,0-1.3-1.5-1.3-3.3s0.6-3.3,1.3-3.3C235,52.2,235.5,53.7,235.5,55.5z"
			/>
		<g>
			<g>
				<path class="st22" d="M259.6,47.8c0-0.1,0-0.2-0.1-0.3c-0.2-0.7-0.8-2.8-0.8-3.5c0-5.9-5.5-10.6-12.3-10.6
					c-6.8,0-12.3,4.8-12.3,10.6c0,0.7-0.6,2.7-1,3.8H259.6z"/>
				<circle class="st22" cx="246.2" cy="34" r="3.2"/>
				<g>
					<g>
						<path class="st23" d="M239.2,35.4c1.1-0.7,2.4-1.2,3.7-1.6c0.1,0.2,0.1,0.5,0.1,0.7v8.5c0,1.1-0.9,1.9-1.9,1.9l0,0
							c-1.1,0-1.9-0.9-1.9-1.9V35.4z"/>
						<path class="st23" d="M249.6,33.7c1.3,0.3,2.6,0.8,3.7,1.5v7.9c0,1.1-0.9,1.9-1.9,1.9l0,0c-1.1,0-1.9-0.9-1.9-1.9v-8.5
							C249.5,34.2,249.5,34,249.6,33.7z"/>
					</g>
				</g>
			</g>
			<path class="st23" d="M257.7,48.2c0,0.6-0.5,1-1,1h-21.2c-0.6,0-1-0.5-1-1l0,0c0-0.6,0.5-1,1-1h21.2
				C257.2,47.2,257.7,47.6,257.7,48.2L257.7,48.2z"/>
		</g>
		<path class="st6" d="M260.5,124l-0.2-0.7h-28.5v2.6c-6.8,16.8-7.6,48.7-7.3,59.3l12.8-0.4c-0.4-15.5,2.7-39,7.5-50.8h4.2
			c4.6,11.9,7.2,35.4,6.8,50.8l12.8,0.4C268.9,174.2,268,140.2,260.5,124z"/>
		<path class="st7" d="M239.1,188.6c0.1-0.4,0.2-0.9,0.2-1.4c0-2.5-2-4.4-4.4-4.4h-7.7c-2.5,0-4.4,2-4.4,4.4c0,0.5,0.1,0.9,0.2,1.4
			H239.1z"/>
		<path class="st7" d="M270.5,188.6c0.1-0.4,0.2-0.9,0.2-1.4c0-2.5-2-4.4-4.4-4.4h-7.7c-2.5,0-4.4,2-4.4,4.4c0,0.5,0.1,0.9,0.2,1.4
			H270.5z"/>
		<path class="st0" d="M240.8,70.7c0,0.1,0,0.3,0,0.4c0,2.1,2.3,3.8,5.2,3.8c2.9,0,5.2-2.1,5.2-4.2c0,0-2.5-0.2-5.1-0.2
			C243.5,70.5,240.9,70.7,240.8,70.7z"/>
		<rect x="231.1" y="120.5" class="st21" width="30.4" height="5.5"/>
		<path class="st15" d="M250.9,122.3h-0.6v-3h-7.5v7.7h7.5v-3h0.6V122.3z M249.3,126h-5.5v-5.6h5.5v2h-1.7v1.7h1.7V126z"/>
		<path class="st24" d="M236.1,82.8v-1.1c0-0.3,0-0.5,0-0.8c0-0.3,0-0.5,0-0.8v-9l-2.8,0.4l-0.4,16.7l-1.2,0.2l-0.6,32l10.2,0.2
			l0-31.1C236.1,89.5,236.1,82.8,236.1,82.8z"/>
		<path class="st24" d="M260.3,88.5l-1.2-0.2l-0.4-16.7l-2.8-0.4v11.7c0,0,0,6.9-4.5,7.1l0,30.8l9.5-0.2L260.3,88.5z"/>
		<rect x="231.2" y="109.5" class="st25" width="10.2" height="1"/>
		<rect x="231.2" y="112.8" class="st25" width="10.2" height="1"/>
		<rect x="251.4" y="109.5" class="st25" width="9.4" height="1"/>
		<rect x="251.4" y="112.8" class="st25" width="9.4" height="1"/>
	</g>
	<g class="st11">
		<path class="st0" d="M273.1,126.3c0,2.1-1.7,3.8-3.8,3.8l0,0c-2.1,0-3.8-1.7-3.8-3.8v-6.2c0-2.1,1.7-3.8,3.8-3.8l0,0
			c2.1,0,3.8,1.7,3.8,3.8V126.3z"/>
		<path class="st1" d="M266,74.3c-3.4-2.2-11-3.8-19.9-3.8c-0.1,0-0.2,0-0.3,0V124h14.5V86.1c1.6,2.4,3.8,6.6,3.8,13.1V120h10.3
			V99.2C274.4,88.5,271.7,77.7,266,74.3z"/>
		<path class="st2" d="M246.3,42.6c-0.2,0-0.4,0-0.5,0v24.9c0.2,0,0.4,0,0.5,0c6.7,0,12.1-5.6,12.1-12.5S253,42.6,246.3,42.6z"/>
		<path class="st3" d="M246.3,42.6c-0.2,0-0.4,0-0.5,0v6.9c2.1,1.5,4.9,2.3,7.1,0.9c1.2-0.7,2.7-0.2,3.4,0.9c0.3,0.5,1.1,1,2,1.4
			C257.2,46.9,252.3,42.6,246.3,42.6z"/>
		<path class="st2" d="M260,55.5c0,1.8-0.6,3.3-1.3,3.3c-0.7,0-1.3-1.5-1.3-3.3s0.6-3.3,1.3-3.3C259.4,52.2,260,53.7,260,55.5z"/>
		<g>
			<g>
				<path class="st22" d="M245.8,47.8h13.8c0-0.1,0-0.2-0.1-0.3c-0.2-0.7-0.8-2.8-0.8-3.5c0-5.9-5.5-10.6-12.3-10.6
					c-0.2,0-0.4,0-0.6,0V47.8z"/>
				<path class="st22" d="M246.2,30.9c-0.1,0-0.3,0-0.4,0v6.3c0.1,0,0.3,0,0.4,0c1.7,0,3.2-1.4,3.2-3.2
					C249.4,32.3,248,30.9,246.2,30.9z"/>
				<g>
					<g>
						<path class="st23" d="M249.6,33.7c1.3,0.3,2.6,0.8,3.7,1.5v7.9c0,1.1-0.9,1.9-1.9,1.9l0,0c-1.1,0-1.9-0.9-1.9-1.9v-8.5
							C249.5,34.2,249.5,34,249.6,33.7z"/>
					</g>
				</g>
			</g>
			<path class="st23" d="M256.7,47.2h-10.8v2.1h10.8c0.6,0,1-0.5,1-1C257.7,47.6,257.2,47.2,256.7,47.2z"/>
		</g>
		<path class="st6" d="M260.5,124l-0.2-0.7h-14.5V134h3.2c4.6,11.9,7.2,35.4,6.8,50.8l12.8,0.4C268.9,174.2,268,140.2,260.5,124z"/>
		<path class="st7" d="M270.5,188.6c0.1-0.4,0.2-0.9,0.2-1.4c0-2.5-2-4.4-4.4-4.4h-7.7c-2.5,0-4.4,2-4.4,4.4c0,0.5,0.1,0.9,0.2,1.4
			H270.5z"/>
		<path class="st0" d="M246.1,70.6c-0.1,0-0.2,0-0.3,0V75c0.1,0,0.2,0,0.2,0c2.9,0,5.2-2.1,5.2-4.2
			C251.2,70.8,248.7,70.6,246.1,70.6z"/>
		<rect x="245.8" y="120.5" class="st21" width="15.7" height="5.5"/>
		<polygon class="st15" points="250.3,122.3 250.3,119.3 245.8,119.3 245.8,120.3 249.3,120.3 249.3,122.3 247.6,122.3 247.6,124 
			249.3,124 249.3,126 245.8,126 245.8,127 250.3,127 250.3,124 250.9,124 250.9,122.3 		"/>
		<path class="st24" d="M260.3,88.5l-1.2-0.2l-0.4-16.7l-2.8-0.4v11.7c0,0,0,6.9-4.5,7.1l0,30.8l9.5-0.2L260.3,88.5z"/>
		<rect x="251.4" y="109.5" class="st25" width="9.4" height="1"/>
		<rect x="251.4" y="112.8" class="st25" width="9.4" height="1"/>
	</g>
</g>
<g>
	<g>
		<path class="st0" d="M119.7,136.2c0,1.8-1.5,3.2-3.2,3.2l0,0c-1.8,0-3.2-1.5-3.2-3.2V131c0-1.8,1.5-3.2,3.2-3.2l0,0
			c1.8,0,3.2,1.5,3.2,3.2V136.2z"/>
		<path class="st0" d="M159,136.2c0,1.8-1.5,3.2-3.2,3.2l0,0c-1.8,0-3.2-1.5-3.2-3.2V131c0-1.8,1.5-3.2,3.2-3.2l0,0
			c1.8,0,3.2,1.5,3.2,3.2V136.2z"/>
		<path class="st1" d="M153,92.4c-2.9-1.9-9.3-3.2-16.8-3.2c-7.4,0-13.8,1.3-16.7,3.2c-4.9,2.8-7.1,11.9-7.1,21v17.5h8.6v-17.5
			c0-5.9,1.9-9.7,3.1-11.5v32.4h24v-31.9c1.3,2,3.2,5.6,3.2,11v17.5h8.6v-17.5C160.1,104.4,157.9,95.3,153,92.4z"/>
		<ellipse class="st2" cx="136.4" cy="76.2" rx="10.2" ry="10.5"/>
		<path class="st3" d="M127.9,73.2c1-1.2,2.4-2.1,3.6-3.1c0.8-0.7,2.2-0.9,3,0c1.8,1.9,5.1,3.7,7.6,2.2c1-0.6,2.3-0.2,2.9,0.8
			c0.3,0.4,1,0.8,1.6,1.2c-0.9-4.9-5.1-8.5-10-8.5c-5.5,0-10,4.5-10.2,10.1C126.9,75,127.3,74,127.9,73.2z"/>
		<path class="st2" d="M147.9,76.5c0,1.5-0.5,2.8-1.1,2.8s-1.1-1.2-1.1-2.8c0-1.5,0.5-2.8,1.1-2.8S147.9,75,147.9,76.5z"/>
		<path class="st2" d="M127.3,76.5c0,1.5-0.5,2.8-1.1,2.8c-0.6,0-1.1-1.2-1.1-2.8c0-1.5,0.5-2.8,1.1-2.8
			C126.9,73.8,127.3,75,127.3,76.5z"/>
		<g>
			<g>
				<path class="st4" d="M147.6,70.1c0-0.1,0-0.2-0.1-0.3c-0.2-0.6-0.7-2.3-0.7-3c0-5-4.6-9-10.4-9c-5.7,0-10.4,4-10.4,9
					c0,0.6-0.5,2.3-0.9,3.2H147.6z"/>
				<circle class="st4" cx="136.4" cy="58.5" r="2.7"/>
				<g>
					<path class="st5" d="M130.4,59.6c0.9-0.6,2-1.1,3.1-1.3c0.1,0.2,0.1,0.4,0.1,0.6v7.2c0,0.9-0.7,1.6-1.6,1.6l0,0
						c-0.9,0-1.6-0.7-1.6-1.6V59.6z"/>
					<path class="st5" d="M139.2,58.2c1.1,0.3,2.2,0.7,3.1,1.2v6.6c0,0.9-0.7,1.6-1.6,1.6l0,0c-0.9,0-1.6-0.7-1.6-1.6v-7.2
						C139.1,58.6,139.1,58.4,139.2,58.2z"/>
				</g>
			</g>
			<path class="st5" d="M146,70.4c0,0.5-0.4,0.9-0.9,0.9h-17.9c-0.5,0-0.9-0.4-0.9-0.9l0,0c0-0.5,0.4-0.9,0.9-0.9h17.9
				C145.6,69.5,146,69.9,146,70.4L146,70.4z"/>
		</g>
		<path class="st6" d="M148.4,134.3l-0.2-0.6h-24v2.2c-5.7,14.1-6.4,41-6.1,50l10.8-0.3c-0.4-13.1,2.3-32.9,6.3-42.8h3.5
			c3.9,10.1,6.1,29.8,5.7,42.8l10.8,0.3C155.5,176.6,154.7,147.9,148.4,134.3z"/>
		<path class="st7" d="M130.3,188.7c0.1-0.4,0.2-0.8,0.2-1.2c0-2.1-1.7-3.7-3.7-3.7h-6.5c-2.1,0-3.7,1.7-3.7,3.7
			c0,0.4,0.1,0.8,0.2,1.2H130.3z"/>
		<path class="st7" d="M156.9,188.7c0.1-0.4,0.2-0.8,0.2-1.2c0-2.1-1.7-3.7-3.7-3.7h-6.5c-2.1,0-3.7,1.7-3.7,3.7
			c0,0.4,0.1,0.8,0.2,1.2H156.9z"/>
		<path class="st0" d="M131.8,89.4c0,0.1,0,0.3,0,0.3c0,1.8,1.9,3.2,4.4,3.2c2.4,0,4.4-1.8,4.4-3.6c0,0-2.1-0.2-4.3-0.2
			C134.1,89.2,131.9,89.4,131.8,89.4z"/>
		<rect x="123.6" y="131.4" class="st15" width="25.7" height="4.6"/>
		<rect x="133.9" y="130.8" class="st26" width="5.5" height="5.6"/>
		<rect x="137.9" y="133.3" class="st26" width="2" height="0.5"/>
		<path class="st27" d="M138.6,100.2v3.2c0,1.2,1,2.2,2.2,2.2h2.2c1.2,0,2.2-1,2.2-2.2v-3.2H138.6z"/>
	</g>
	<g class="st11">
		<path class="st0" d="M159,136.2c0,1.8-1.5,3.2-3.2,3.2l0,0c-1.8,0-3.2-1.5-3.2-3.2V131c0-1.8,1.5-3.2,3.2-3.2l0,0
			c1.8,0,3.2,1.5,3.2,3.2V136.2z"/>
		<path class="st1" d="M153,92.4c-2.8-1.9-9.1-3.2-16.4-3.2v45h11.6v-31.9c1.3,2,3.2,5.6,3.2,11v17.5h8.6v-17.5
			C160.1,104.4,157.9,95.3,153,92.4z"/>
		<path class="st2" d="M136.6,65.7v21c5.6-0.1,10.1-4.8,10.1-10.5C146.7,70.4,142.2,65.7,136.6,65.7z"/>
		<path class="st3" d="M136.6,65.7v6.2c1.7,1,3.7,1.4,5.4,0.4c1-0.6,2.3-0.2,2.9,0.8c0.3,0.4,1,0.8,1.6,1.2
			C145.6,69.4,141.5,65.7,136.6,65.7z"/>
		<path class="st2" d="M147.9,76.5c0,1.5-0.5,2.8-1.1,2.8s-1.1-1.2-1.1-2.8c0-1.5,0.5-2.8,1.1-2.8S147.9,75,147.9,76.5z"/>
		<g>
			<g>
				<path class="st4" d="M136.6,70.1h11c0-0.1,0-0.2-0.1-0.3c-0.2-0.6-0.7-2.3-0.7-3c0-4.9-4.6-8.9-10.3-9V70.1z"/>
				<path class="st4" d="M136.6,55.8v5.3c1.4-0.1,2.4-1.3,2.4-2.7C139,57.1,138,55.9,136.6,55.8z"/>
				<g>
					<path class="st5" d="M139.2,58.2c1.1,0.3,2.2,0.7,3.1,1.2v6.6c0,0.9-0.7,1.6-1.6,1.6l0,0c-0.9,0-1.6-0.7-1.6-1.6v-7.2
						C139.1,58.6,139.1,58.4,139.2,58.2z"/>
				</g>
			</g>
			<path class="st5" d="M145.1,69.5h-8.6v1.7h8.6c0.5,0,0.9-0.4,0.9-0.9S145.6,69.5,145.1,69.5z"/>
		</g>
		<path class="st6" d="M148.4,134.3l-0.2-0.6h-11.6v9h2.1c3.9,10.1,6.1,29.8,5.7,42.8l10.8,0.3C155.5,176.6,154.7,147.9,148.4,134.3
			z"/>
		<path class="st7" d="M156.9,188.7c0.1-0.4,0.2-0.8,0.2-1.2c0-2.1-1.7-3.7-3.7-3.7h-6.5c-2.1,0-3.7,1.7-3.7,3.7
			c0,0.4,0.1,0.8,0.2,1.2H156.9z"/>
		<path class="st0" d="M136.6,89.2V93c2.2-0.2,4-1.9,4-3.6C140.6,89.4,138.6,89.3,136.6,89.2z"/>
		<rect x="136.6" y="131.4" class="st15" width="12.7" height="4.6"/>
		<rect x="136.6" y="130.8" class="st26" width="2.8" height="5.6"/>
		<rect x="137.9" y="133.3" class="st26" width="2" height="0.5"/>
		<path class="st27" d="M138.6,100.2v3.2c0,1.2,1,2.2,2.2,2.2h2.2c1.2,0,2.2-1,2.2-2.2v-3.2H138.6z"/>
	</g>
</g>
<g>
	<g>
		<path class="st0" d="M451.1,140.4c0,1.6-1.3,2.9-2.9,2.9l0,0c-1.6,0-2.9-1.3-2.9-2.9v-4.6c0-1.6,1.3-2.9,2.9-2.9l0,0
			c1.6,0,2.9,1.3,2.9,2.9V140.4z"/>
		<path class="st0" d="M486.2,140.4c0,1.6-1.3,2.9-2.9,2.9l0,0c-1.6,0-2.9-1.3-2.9-2.9v-4.6c0-1.6,1.3-2.9,2.9-2.9l0,0
			c1.6,0,2.9,1.3,2.9,2.9V140.4z"/>
		<path class="st28" d="M480.8,101.3c-2.6-1.7-8.3-2.9-15-2.9c-6.6,0-12.3,1.2-14.9,2.8c-4.3,2.5-6.3,10.6-6.3,18.7v15.7h7.7V120
			c0-5.3,1.7-8.6,2.8-10.3v28.9h21.4v-28.5c1.2,1.8,2.9,5,2.9,9.8v15.7h7.7V120C487.1,112,485.1,103.9,480.8,101.3z"/>
		<path class="st2" d="M475.1,86.8c0,5.2-4.1,9.4-9.1,9.4c-5,0-9.1-4.2-9.1-9.4c0-5.2,4.1-9.4,9.1-9.4
			C471,77.4,475.1,81.6,475.1,86.8z"/>
		<path class="st3" d="M458.4,84.2c0.9-1.1,2.1-1.8,3.2-2.8c0.7-0.7,1.9-0.8,2.6,0c1.6,1.7,4.5,3.3,6.8,1.9c0.9-0.5,2-0.2,2.6,0.7
			c0.2,0.4,0.9,0.7,1.5,1c-0.8-4.3-4.5-7.6-9-7.6c-4.9,0-8.9,4-9.1,9C457.5,85.8,457.8,84.8,458.4,84.2z"/>
		<path class="st2" d="M476.3,87.1c0,1.4-0.4,2.5-1,2.5c-0.5,0-1-1.1-1-2.5c0-1.4,0.4-2.5,1-2.5C475.8,84.7,476.3,85.8,476.3,87.1z"
			/>
		<path class="st2" d="M457.9,87.1c0,1.4-0.4,2.5-1,2.5c-0.5,0-1-1.1-1-2.5c0-1.4,0.4-2.5,1-2.5C457.4,84.7,457.9,85.8,457.9,87.1z"
			/>
		<g>
			<g>
				<path class="st4" d="M476,81.4c0-0.1,0-0.1-0.1-0.2c-0.2-0.5-0.6-2.1-0.6-2.7c0-4.4-4.1-8-9.3-8c-5.1,0-9.3,3.6-9.3,8
					c0,0.5-0.5,2-0.8,2.9H476z"/>
				<path class="st4" d="M465.9,73.4c1.3,0,2.4-1.1,2.4-2.4c0-1.3-1.1-2.4-2.4-2.4c-1.3,0-2.4,1.1-2.4,2.4
					C463.5,72.3,464.6,73.4,465.9,73.4z"/>
				<g>
					<path class="st5" d="M460.6,72c0.8-0.5,1.8-0.9,2.8-1.2c0.1,0.2,0.1,0.3,0.1,0.5v6.4c0,0.8-0.6,1.4-1.4,1.4l0,0
						c-0.8,0-1.4-0.6-1.4-1.4V72z"/>
					<path class="st5" d="M468.5,70.8c1,0.2,1.9,0.6,2.8,1.1v5.9c0,0.8-0.6,1.4-1.4,1.4l0,0c-0.8,0-1.4-0.6-1.4-1.4v-6.4
						C468.4,71.1,468.4,70.9,468.5,70.8z"/>
				</g>
			</g>
			<path class="st5" d="M474.5,81.6c0,0.4-0.3,0.8-0.8,0.8h-16c-0.4,0-0.8-0.3-0.8-0.8l0,0c0-0.4,0.3-0.8,0.8-0.8h16
				C474.2,80.9,474.5,81.2,474.5,81.6L474.5,81.6z"/>
		</g>
		<path class="st6" d="M476.7,138.7l-0.2-16.7h-21.4v18.1c-5.1,12.6-5.7,36.6-5.5,44.6l9.6-0.3c-0.3-11.7,2-29.4,5.6-38.2h3.1
			c3.5,9,5.4,26.6,5.1,38.2l9.6,0.3C483,176.4,482.3,150.9,476.7,138.7z"/>
		<path class="st7" d="M460.6,187.3c0.1-0.3,0.2-0.7,0.2-1c0-1.8-1.5-3.3-3.3-3.3h-5.8c-1.8,0-3.3,1.5-3.3,3.3c0,0.4,0.1,0.7,0.2,1
			H460.6z"/>
		<path class="st7" d="M484.2,187.3c0.1-0.3,0.2-0.7,0.2-1c0-1.8-1.5-3.3-3.3-3.3h-5.8c-1.8,0-3.3,1.5-3.3,3.3c0,0.4,0.1,0.7,0.2,1
			H484.2z"/>
		<rect x="458.1" y="109.1" class="st6" width="15.1" height="16.4"/>
		<polygon class="st6" points="456.8,99.1 458.3,110.3 461.2,109.7 459.7,98.8 		"/>
		<polygon class="st6" points="474.4,99.1 472.9,110.3 470,109.7 471.6,98.8 		"/>
		<path class="st0" d="M461.9,98.2c0,0.1,0,0.3,0,0.3c0,1.6,1.7,2.9,3.9,2.9c2.1,0,3.9-1.6,3.9-3.2c0,0-1.9-0.1-3.8-0.2
			C463.9,98.1,461.9,98.2,461.9,98.2z"/>
		<path class="st8" d="M460.3,117.3v5.2c0,2,1.6,3.6,3.6,3.6h3.6c2,0,3.6-1.6,3.6-3.6v-5.2H460.3z"/>
		<rect x="454.6" y="136.1" class="st29" width="22.9" height="4.1"/>
		<rect x="463.7" y="135.6" class="st16" width="4.9" height="5"/>
		<rect x="467.3" y="137.8" class="st16" width="1.8" height="0.5"/>
	</g>
	<g class="st11">
		<path class="st0" d="M486.2,140.4c0,1.6-1.3,2.9-2.9,2.9l0,0c-1.6,0-2.9-1.3-2.9-2.9v-4.6c0-1.6,1.3-2.9,2.9-2.9l0,0
			c1.6,0,2.9,1.3,2.9,2.9V140.4z"/>
		<path class="st28" d="M480.8,101.3c-2.4-1.6-7.7-2.7-14-2.8v40.2h9.7v-28.5c1.2,1.8,2.9,5,2.9,9.8v15.7h7.7V120
			C487.1,112,485.1,103.9,480.8,101.3z"/>
		<path class="st2" d="M466.8,77.5v18.7c4.7-0.4,8.3-4.4,8.3-9.4C475.1,81.9,471.5,77.9,466.8,77.5z"/>
		<path class="st3" d="M466.8,77.5v5.8c1.4,0.6,2.9,0.8,4.1,0c0.9-0.5,2-0.2,2.6,0.7c0.2,0.4,0.9,0.7,1.5,1
			C474.2,81,470.9,77.8,466.8,77.5z"/>
		<path class="st2" d="M476.3,87.1c0,1.4-0.4,2.5-1,2.5c-0.5,0-1-1.1-1-2.5c0-1.4,0.4-2.5,1-2.5C475.8,84.7,476.3,85.8,476.3,87.1z"
			/>
		<g>
			<g>
				<path class="st4" d="M466.8,81.4h9.2c0-0.1,0-0.1-0.1-0.2c-0.2-0.5-0.6-2.1-0.6-2.7c0-4.2-3.7-7.7-8.5-8V81.4z"/>
				<path class="st4" d="M466.8,68.8v4.4c0.9-0.4,1.5-1.2,1.5-2.2C468.3,70,467.7,69.1,466.8,68.8z"/>
				<g>
					<path class="st5" d="M468.5,70.8c1,0.2,1.9,0.6,2.8,1.1v5.9c0,0.8-0.6,1.4-1.4,1.4l0,0c-0.8,0-1.4-0.6-1.4-1.4v-6.4
						C468.4,71.1,468.4,70.9,468.5,70.8z"/>
				</g>
			</g>
			<path class="st5" d="M473.8,80.9h-7v1.5h7c0.4,0,0.8-0.3,0.8-0.8C474.5,81.2,474.2,80.9,473.8,80.9z"/>
		</g>
		<path class="st6" d="M476.7,138.7l-0.2-16.7h-9.7v24.2h1.2c3.5,9,5.4,26.6,5.1,38.2l9.6,0.3C483,176.4,482.3,150.9,476.7,138.7z"
			/>
		<path class="st7" d="M484.2,187.3c0.1-0.3,0.2-0.7,0.2-1c0-1.8-1.5-3.3-3.3-3.3h-5.8c-1.8,0-3.3,1.5-3.3,3.3c0,0.4,0.1,0.7,0.2,1
			H484.2z"/>
		<rect x="466.8" y="109.1" class="st6" width="6.3" height="16.4"/>
		<polygon class="st6" points="474.4,99.1 472.9,110.3 470,109.7 471.6,98.8 		"/>
		<path class="st0" d="M466.8,98.1v3.2c1.7-0.4,2.9-1.7,2.9-3.1C469.7,98.2,468.3,98.1,466.8,98.1z"/>
		<path class="st8" d="M466.8,117.3v8.8h0.7c2,0,3.6-1.6,3.6-3.6v-5.2H466.8z"/>
		<rect x="466.8" y="136.1" class="st29" width="10.7" height="4.1"/>
		<rect x="466.8" y="135.6" class="st16" width="1.8" height="5"/>
		<rect x="467.3" y="137.8" class="st16" width="1.8" height="0.5"/>
	</g>
</g>
<g>
	<g>
		<path class="st0" d="M394.4,134.9c0,1.8-1.5,3.2-3.2,3.2l0,0c-1.8,0-3.2-1.5-3.2-3.2v-5.2c0-1.8,1.5-3.2,3.2-3.2l0,0
			c1.8,0,3.2,1.5,3.2,3.2V134.9z"/>
		<path class="st0" d="M433.7,134.9c0,1.8-1.5,3.2-3.2,3.2l0,0c-1.8,0-3.2-1.5-3.2-3.2v-5.2c0-1.8,1.5-3.2,3.2-3.2l0,0
			c1.8,0,3.2,1.5,3.2,3.2V134.9z"/>
		<path class="st30" d="M427.7,91.2c-2.9-1.9-9.3-3.2-16.8-3.2c-7.4,0-13.8,1.3-16.7,3.2c-4.9,2.8-7.1,11.9-7.1,21v17.5h8.6v-17.5
			c0-5.9,1.9-9.7,3.1-11.5V133h24v-31.9c1.3,2,3.2,5.6,3.2,11v17.5h8.6v-17.5C434.7,103.1,432.5,94,427.7,91.2z"/>
		<rect x="409.3" y="90.7" class="st31" width="3.5" height="39.9"/>
		<ellipse class="st2" cx="411.1" cy="74.9" rx="10.2" ry="10.5"/>
		<path class="st3" d="M402.5,72c1-1.2,2.4-2.1,3.6-3.1c0.8-0.7,2.2-0.9,3,0c1.8,1.9,5.1,3.7,7.6,2.2c1-0.6,2.3-0.2,2.9,0.8
			c0.3,0.4,1,0.8,1.6,1.2c-0.9-4.9-5.1-8.5-10-8.5c-5.5,0-10,4.5-10.2,10.1C401.5,73.7,401.9,72.7,402.5,72z"/>
		<path class="st2" d="M422.6,75.3c0,1.5-0.5,2.8-1.1,2.8s-1.1-1.2-1.1-2.8c0-1.5,0.5-2.8,1.1-2.8S422.6,73.7,422.6,75.3z"/>
		<path class="st2" d="M402,75.3c0,1.5-0.5,2.8-1.1,2.8c-0.6,0-1.1-1.2-1.1-2.8c0-1.5,0.5-2.8,1.1-2.8C401.5,72.5,402,73.7,402,75.3
			z"/>
		<g>
			<g>
				<path class="st32" d="M422.2,68.8c0-0.1,0-0.2-0.1-0.3c-0.2-0.6-0.7-2.3-0.7-3c0-5-4.6-9-10.4-9c-5.7,0-10.4,4-10.4,9
					c0,0.6-0.5,2.3-0.9,3.2H422.2z"/>
			</g>
			<path class="st33" d="M420.7,69.1c0,0.5-0.4,0.9-0.9,0.9h-17.9c-0.5,0-0.9-0.4-0.9-0.9l0,0c0-0.5,0.4-0.9,0.9-0.9h17.9
				C420.3,68.2,420.7,68.6,420.7,69.1L420.7,69.1z"/>
		</g>
		<path class="st34" d="M423,133.1l-0.2-0.6h-24v2.2c-5.7,14.1-6.4,41-6.1,50l10.8-0.3c-0.4-13.1,2.3-32.9,6.3-42.8h3.5
			c3.9,10.1,6.1,29.8,5.7,42.8l10.8,0.3C430.1,175.3,429.4,146.7,423,133.1z"/>
		<path class="st7" d="M405,187.5c0.1-0.4,0.2-0.8,0.2-1.2c0-2.1-1.7-3.7-3.7-3.7H395c-2.1,0-3.7,1.7-3.7,3.7c0,0.4,0.1,0.8,0.2,1.2
			H405z"/>
		<path class="st7" d="M431.5,187.5c0.1-0.4,0.2-0.8,0.2-1.2c0-2.1-1.7-3.7-3.7-3.7h-6.5c-2.1,0-3.7,1.7-3.7,3.7
			c0,0.4,0.1,0.8,0.2,1.2H431.5z"/>
		<rect x="398.3" y="130.1" class="st27" width="25.7" height="4.6"/>
		<g>
			<path class="st35" d="M411.9,98.2c0,0.5-0.4,0.9-0.9,0.9c-0.5,0-0.9-0.4-0.9-0.9c0-0.5,0.4-0.9,0.9-0.9
				C411.5,97.3,411.9,97.7,411.9,98.2z"/>
			<path class="st35" d="M411.9,104.5c0,0.5-0.4,0.9-0.9,0.9c-0.5,0-0.9-0.4-0.9-0.9c0-0.5,0.4-0.9,0.9-0.9
				C411.5,103.7,411.9,104,411.9,104.5z"/>
			<path class="st35" d="M411.9,110.9c0,0.5-0.4,0.9-0.9,0.9c-0.5,0-0.9-0.4-0.9-0.9c0-0.5,0.4-0.9,0.9-0.9
				C411.5,110,411.9,110.4,411.9,110.9z"/>
			<path class="st35" d="M411.9,117.2c0,0.5-0.4,0.9-0.9,0.9c-0.5,0-0.9-0.4-0.9-0.9c0-0.5,0.4-0.9,0.9-0.9
				C411.5,116.4,411.9,116.7,411.9,117.2z"/>
			<path class="st35" d="M411.9,123.6c0,0.5-0.4,0.9-0.9,0.9c-0.5,0-0.9-0.4-0.9-0.9c0-0.5,0.4-0.9,0.9-0.9
				C411.5,122.7,411.9,123.1,411.9,123.6z"/>
		</g>
		<path class="st0" d="M406.5,88.1c0,0.1,0,0.3,0,0.3c0,1.8,1.9,3.2,4.4,3.2c2.4,0,4.4-1.8,4.4-3.6c0,0-2.1-0.2-4.3-0.2
			C408.7,88,406.5,88.1,406.5,88.1z"/>
	</g>
	<g class="st11">
		<path class="st0" d="M433.7,134.9c0,1.8-1.5,3.2-3.2,3.2l0,0c-1.8,0-3.2-1.5-3.2-3.2v-5.2c0-1.8,1.5-3.2,3.2-3.2l0,0
			c1.8,0,3.2,1.5,3.2,3.2V134.9z"/>
		<path class="st30" d="M427.7,91.2c-2.7-1.8-8.5-3-15.4-3.2v45h10.6v-31.9c1.3,2,3.2,5.6,3.2,11v17.5h8.6v-17.5
			C434.7,103.1,432.5,94,427.7,91.2z"/>
		<rect x="412.3" y="90.7" class="st31" width="0.5" height="39.9"/>
		<path class="st2" d="M412.3,64.5v20.9c5.1-0.6,9-5.1,9-10.4S417.4,65.1,412.3,64.5z"/>
		<path class="st3" d="M412.3,64.5v6.6c1.4,0.6,3,0.7,4.3-0.1c1-0.6,2.3-0.2,2.9,0.8c0.3,0.4,1,0.8,1.6,1.2
			C420.3,68.5,416.7,65,412.3,64.5z"/>
		<path class="st2" d="M422.6,75.3c0,1.5-0.5,2.8-1.1,2.8s-1.1-1.2-1.1-2.8c0-1.5,0.5-2.8,1.1-2.8S422.6,73.7,422.6,75.3z"/>
		<g>
			<g>
				<path class="st32" d="M412.3,68.8h10c0-0.1,0-0.2-0.1-0.3c-0.2-0.6-0.7-2.3-0.7-3c0-4.6-4-8.4-9.2-8.9V68.8z"/>
			</g>
			<path class="st33" d="M419.8,68.2h-7.5V70h7.5c0.5,0,0.9-0.4,0.9-0.9C420.7,68.6,420.3,68.2,419.8,68.2z"/>
		</g>
		<path class="st34" d="M423,133.1l-0.2-0.6h-10.6v9h1c3.9,10.1,6.1,29.8,5.7,42.8l10.8,0.3C430.1,175.3,429.4,146.7,423,133.1z"/>
		<path class="st7" d="M431.5,187.5c0.1-0.4,0.2-0.8,0.2-1.2c0-2.1-1.7-3.7-3.7-3.7h-6.5c-2.1,0-3.7,1.7-3.7,3.7
			c0,0.4,0.1,0.8,0.2,1.2H431.5z"/>
		<rect x="412.3" y="130.1" class="st27" width="11.6" height="4.6"/>
		<path class="st0" d="M412.3,88v3.5c1.7-0.5,2.9-1.9,2.9-3.3C415.2,88.1,413.9,88,412.3,88z"/>
	</g>
</g>
<g>
	<g>
		<path class="st0" d="M337.6,129.4c0,2-1.6,3.6-3.6,3.6l0,0c-2,0-3.6-1.6-3.6-3.6v-5.8c0-2,1.6-3.6,3.6-3.6l0,0
			c2,0,3.6,1.6,3.6,3.6V129.4z"/>
		<path class="st0" d="M381.2,129.4c0,2-1.6,3.6-3.6,3.6l0,0c-2,0-3.6-1.6-3.6-3.6v-5.8c0-2,1.6-3.6,3.6-3.6l0,0
			c2,0,3.6,1.6,3.6,3.6V129.4z"/>
		<path class="st22" d="M374.6,80.8c-3.2-2.1-10.3-3.6-18.6-3.6c-8.3,0-15.4,1.4-18.6,3.5c-5.4,3.1-7.9,13.2-7.9,23.3v19.5h9.6V104
			c0-6.6,2.1-10.7,3.5-12.8v36h26.6V91.8c1.5,2.2,3.6,6.2,3.6,12.2v19.5h9.6V104C382.4,94,380,84,374.6,80.8z"/>
		<rect x="354.2" y="80.3" class="st36" width="3.8" height="44.3"/>
		<path class="st2" d="M367.5,62.8c0,6.4-5.1,11.7-11.4,11.7c-6.3,0-11.4-5.2-11.4-11.7c0-6.4,5.1-11.7,11.4-11.7
			C362.5,51.1,367.5,56.3,367.5,62.8z"/>
		<path class="st3" d="M346.7,59.5c1.2-1.3,2.6-2.3,3.9-3.5c0.9-0.8,2.4-1,3.3,0c2,2.2,5.6,4.1,8.4,2.4c1.1-0.7,2.5-0.2,3.2,0.8
			c0.3,0.5,1.1,0.9,1.8,1.3c-1-5.4-5.6-9.5-11.2-9.5c-6.1,0-11.1,5-11.3,11.2C345.6,61.4,346,60.3,346.7,59.5z"/>
		<path class="st2" d="M368.9,63.1c0,1.7-0.5,3.1-1.2,3.1c-0.7,0-1.2-1.4-1.2-3.1c0-1.7,0.5-3.1,1.2-3.1
			C368.4,60.1,368.9,61.4,368.9,63.1z"/>
		<path class="st2" d="M346.1,63.1c0,1.7-0.5,3.1-1.2,3.1c-0.7,0-1.2-1.4-1.2-3.1c0-1.7,0.5-3.1,1.2-3.1
			C345.5,60.1,346.1,61.4,346.1,63.1z"/>
		<g>
			<g>
				<g>
					<path class="st22" d="M368.6,56c0-0.1,0-0.2-0.1-0.3c-0.2-0.7-0.7-2.6-0.7-3.3c0-5.5-5.1-10-11.5-10c-6.4,0-11.5,4.5-11.5,10
						c0,0.6-0.6,2.5-1,3.6H368.6z"/>
				</g>
				<g>
					<path class="st36" d="M366.8,56.3c0,0.5-0.4,1-1,1H346c-0.5,0-1-0.4-1-1l0,0c0-0.5,0.4-1,1-1h19.8
						C366.4,55.3,366.8,55.8,366.8,56.3L366.8,56.3z"/>
				</g>
			</g>
		</g>
		<path class="st6" d="M369.4,127.3l-0.2-0.7h-26.6v2.4c-6.3,15.7-7.1,45.6-6.8,55.5l12-0.3c-0.4-14.5,2.5-36.5,7-47.5h3.9
			c4.3,11.2,6.7,33.1,6.3,47.5l12,0.3C377.3,174.2,376.5,142.4,369.4,127.3z"/>
		<path class="st7" d="M349.4,187.7c0.1-0.4,0.2-0.8,0.2-1.3c0-2.3-1.9-4.2-4.2-4.2h-7.2c-2.3,0-4.2,1.9-4.2,4.2
			c0,0.4,0.1,0.9,0.2,1.3H349.4z"/>
		<path class="st7" d="M378.8,187.7c0.1-0.4,0.2-0.8,0.2-1.3c0-2.3-1.9-4.2-4.2-4.2h-7.2c-2.3,0-4.2,1.9-4.2,4.2
			c0,0.4,0.1,0.9,0.2,1.3H378.8z"/>
		<rect x="341.9" y="126.5" class="st37" width="28.5" height="2.6"/>
		<g>
			<g>
				<path class="st38" d="M357.1,88.6c0,0.5-0.4,1-1,1c-0.5,0-1-0.4-1-1c0-0.5,0.4-1,1-1C356.6,87.6,357.1,88,357.1,88.6z"/>
				<path class="st38" d="M357.1,95.6c0,0.5-0.4,1-1,1c-0.5,0-1-0.4-1-1c0-0.5,0.4-1,1-1C356.6,94.7,357.1,95.1,357.1,95.6z"/>
				<path class="st38" d="M357.1,102.7c0,0.5-0.4,1-1,1c-0.5,0-1-0.4-1-1c0-0.5,0.4-1,1-1C356.6,101.7,357.1,102.1,357.1,102.7z"/>
				<path class="st38" d="M357.1,109.7c0,0.5-0.4,1-1,1c-0.5,0-1-0.4-1-1c0-0.5,0.4-1,1-1C356.6,108.7,357.1,109.2,357.1,109.7z"/>
				<path class="st38" d="M357.1,116.8c0,0.5-0.4,1-1,1c-0.5,0-1-0.4-1-1c0-0.5,0.4-1,1-1C356.6,115.8,357.1,116.2,357.1,116.8z"/>
			</g>
		</g>
		<path class="st0" d="M351,77.4c0,0.1,0,0.3,0,0.4c0,2,2.2,3.6,4.8,3.6c2.7,0,4.8-2,4.8-4c0,0-2.4-0.2-4.8-0.2
			C353.6,77.2,351.1,77.4,351,77.4z"/>
		<path class="st37" d="M344.7,94.2v3.6c0,1.4,1.1,2.5,2.5,2.5h2.5c1.4,0,2.5-1.1,2.5-2.5v-3.6H344.7z"/>
		<path class="st37" d="M359.7,94.2v3.6c0,1.4,1.1,2.5,2.5,2.5h2.5c1.4,0,2.5-1.1,2.5-2.5v-3.6H359.7z"/>
	</g>
	<g class="st11">
		<path class="st0" d="M381.2,129.4c0,2-1.6,3.6-3.6,3.6l0,0c-2,0-3.6-1.6-3.6-3.6v-5.8c0-2,1.6-3.6,3.6-3.6l0,0
			c2,0,3.6,1.6,3.6,3.6V129.4z"/>
		<path class="st22" d="M374.6,80.8c-3.2-2.1-10.3-3.5-18.6-3.6v50h13.2V91.8c1.5,2.2,3.6,6.2,3.6,12.2v19.5h9.6V104
			C382.4,94,380,84,374.6,80.8z"/>
		<rect x="356" y="80.3" class="st36" width="2.1" height="44.3"/>
		<path class="st2" d="M356.2,51.1c-0.1,0-0.1,0-0.2,0v23.3c0.1,0,0.1,0,0.2,0c6.3,0,11.4-5.2,11.4-11.7
			C367.5,56.3,362.5,51.1,356.2,51.1z"/>
		<path class="st3" d="M356.2,51.1c-0.1,0-0.1,0-0.2,0v6.7c1.9,1.2,4.3,1.8,6.3,0.7c1.1-0.7,2.5-0.2,3.2,0.8
			c0.3,0.5,1.1,0.9,1.8,1.3C366.3,55.2,361.7,51.1,356.2,51.1z"/>
		<path class="st2" d="M368.9,63.1c0,1.7-0.5,3.1-1.2,3.1c-0.7,0-1.2-1.4-1.2-3.1c0-1.7,0.5-3.1,1.2-3.1
			C368.4,60.1,368.9,61.4,368.9,63.1z"/>
		<g>
			<g>
				<g>
					<path class="st22" d="M356,56h12.5c0-0.1,0-0.2-0.1-0.3c-0.2-0.7-0.7-2.6-0.7-3.3c0-5.5-5.1-10-11.5-10c-0.1,0-0.1,0-0.2,0V56z
						"/>
				</g>
				<g>
					<path class="st36" d="M365.8,55.3H356v1.9h9.8c0.5,0,1-0.4,1-1C366.8,55.8,366.4,55.3,365.8,55.3z"/>
				</g>
			</g>
		</g>
		<path class="st6" d="M369.4,127.3l-0.2-0.7H356v10h2.6c4.3,11.2,6.7,33.1,6.3,47.5l12,0.3C377.3,174.2,376.5,142.4,369.4,127.3z"
			/>
		<path class="st7" d="M378.8,187.7c0.1-0.4,0.2-0.8,0.2-1.3c0-2.3-1.9-4.2-4.2-4.2h-7.2c-2.3,0-4.2,1.9-4.2,4.2
			c0,0.4,0.1,0.9,0.2,1.3H378.8z"/>
		<rect x="356" y="126.5" class="st37" width="14.4" height="2.6"/>
		<g>
			<g>
				<path class="st38" d="M356.1,87.6C356.1,87.6,356.1,87.6,356.1,87.6l-0.1,1.9c0,0,0,0,0.1,0c0.5,0,1-0.4,1-1
					C357.1,88,356.6,87.6,356.1,87.6z"/>
				<path class="st38" d="M356.1,94.7C356.1,94.7,356.1,94.7,356.1,94.7l-0.1,1.9c0,0,0,0,0.1,0c0.5,0,1-0.4,1-1
					C357.1,95.1,356.6,94.7,356.1,94.7z"/>
				<path class="st38" d="M356.1,101.7C356.1,101.7,356.1,101.7,356.1,101.7l-0.1,1.9c0,0,0,0,0.1,0c0.5,0,1-0.4,1-1
					C357.1,102.1,356.6,101.7,356.1,101.7z"/>
				<path class="st38" d="M356.1,108.7C356.1,108.7,356.1,108.8,356.1,108.7l-0.1,1.9c0,0,0,0,0.1,0c0.5,0,1-0.4,1-1
					C357.1,109.2,356.6,108.7,356.1,108.7z"/>
				<path class="st38" d="M356.1,115.8C356.1,115.8,356.1,115.8,356.1,115.8l-0.1,1.9c0,0,0,0,0.1,0c0.5,0,1-0.4,1-1
					C357.1,116.2,356.6,115.8,356.1,115.8z"/>
			</g>
		</g>
		<path class="st0" d="M356,77.2v4.2c2.6-0.1,4.7-2,4.7-4C360.7,77.4,358.4,77.3,356,77.2z"/>
		<path class="st37" d="M359.7,94.2v3.6c0,1.4,1.1,2.5,2.5,2.5h2.5c1.4,0,2.5-1.1,2.5-2.5v-3.6H359.7z"/>
	</g>
</g>
<g>
	<g>
		<path class="st0" d="M281.4,124.3c0,2.1-1.7,3.8-3.8,3.8l0,0c-2.1,0-3.8-1.7-3.8-3.8v-6.2c0-2.1,1.7-3.8,3.8-3.8l0,0
			c2.1,0,3.8,1.7,3.8,3.8V124.3z"/>
		<path class="st0" d="M328,124.3c0,2.1-1.7,3.8-3.8,3.8l0,0c-2.1,0-3.8-1.7-3.8-3.8v-6.2c0-2.1,1.7-3.8,3.8-3.8l0,0
			c2.1,0,3.8,1.7,3.8,3.8V124.3z"/>
		<path class="st39" d="M320.9,72.4c-3.4-2.2-11-3.8-19.9-3.8c-8.8,0-16.4,1.5-19.8,3.8c-5.8,3.4-8.4,14.1-8.4,24.9V118h10.3V97.2
			c0-7.1,2.3-11.5,3.7-13.7V122h28.4V84.1c1.6,2.4,3.8,6.6,3.8,13.1V118h10.3V97.2C329.3,86.5,326.7,75.8,320.9,72.4z"/>
		<path class="st2" d="M313.4,53.1c0,6.9-5.4,12.5-12.1,12.5c-6.7,0-12.1-5.6-12.1-12.5c0-6.9,5.4-12.5,12.1-12.5
			C308,40.6,313.4,46.2,313.4,53.1z"/>
		<path class="st3" d="M291.1,49.6c1.2-1.4,2.8-2.4,4.2-3.7c1-0.9,2.6-1,3.5,0c2.1,2.3,6,4.4,9,2.6c1.2-0.7,2.7-0.2,3.4,0.9
			c0.3,0.5,1.1,1,2,1.4c-1.1-5.8-6-10.1-11.9-10.1c-6.5,0-11.9,5.3-12.1,11.9C289.9,51.7,290.4,50.4,291.1,49.6z"/>
		<path class="st2" d="M314.9,53.5c0,1.8-0.6,3.3-1.3,3.3c-0.7,0-1.3-1.5-1.3-3.3c0-1.8,0.6-3.3,1.3-3.3
			C314.3,50.2,314.9,51.7,314.9,53.5z"/>
		<path class="st2" d="M290.5,53.5c0,1.8-0.6,3.3-1.3,3.3c-0.7,0-1.3-1.5-1.3-3.3c0-1.8,0.6-3.3,1.3-3.3
			C289.9,50.2,290.5,51.7,290.5,53.5z"/>
		<path class="st6" d="M315.4,122.1l-0.2-0.7h-28.5v2.6c-6.8,16.8-7.6,48.7-7.3,59.3l12.8-0.4c-0.4-15.5,2.7-39,7.5-50.8h4.2
			c4.6,11.9,7.2,35.4,6.8,50.8l12.8,0.4C323.8,172.2,323,138.2,315.4,122.1z"/>
		<path class="st7" d="M294,186.6c0.1-0.4,0.2-0.9,0.2-1.4c0-2.5-2-4.4-4.4-4.4h-7.7c-2.5,0-4.4,2-4.4,4.4c0,0.5,0.1,0.9,0.2,1.4
			H294z"/>
		<path class="st7" d="M325.5,186.6c0.1-0.4,0.2-0.9,0.2-1.4c0-2.5-2-4.4-4.4-4.4h-7.7c-2.5,0-4.4,2-4.4,4.4c0,0.5,0.1,0.9,0.2,1.4
			H325.5z"/>
		<path class="st37" d="M323.7,165.3c-0.3-5.6-0.8-11.7-1.5-17.7h-14.8c1,5.7,1.8,11.8,2.2,17.7H323.7z"/>
		<path class="st37" d="M293.5,165.3c0.6-5.9,1.4-12.1,2.5-17.7h-15.2c-0.8,6.1-1.3,12.2-1.5,17.7H293.5z"/>
		<path class="st40" d="M283.6,104.5v-7.3c0-1.9,0.2-3.8,0.5-5.5h-11.6c-0.2,1.9-0.2,3.7-0.2,5.5v7.3H283.6z"/>
		<path class="st40" d="M318.5,104.5h11.3v-7.3c0-1.8-0.1-3.6-0.2-5.5h-11.6c0.4,1.7,0.6,3.6,0.6,5.5V104.5z"/>
		<path class="st1" d="M309.7,69.1c-2.7-0.3-5.6-0.5-8.7-0.5c-2.9,0-5.7,0.2-8.2,0.5v49.3h16.9V69.1z"/>
		<path class="st0" d="M295.8,68.7c0,0.1,0,0.3,0,0.4c0,2.1,2.3,3.8,5.2,3.8c2.9,0,5.2-2.1,5.2-4.2c0,0-2.5-0.2-5.1-0.2
			C298.5,68.6,295.9,68.7,295.8,68.7z"/>
		<rect x="286.1" y="118.5" class="st21" width="30.4" height="5.5"/>
		<g>
			<g>
				<g>
					<path class="st15" d="M305.2,125h-7.5v-7.7h7.5V125z M298.7,124h5.5v-5.6h-5.5V124z"/>
				</g>
				<g>
					<rect x="302.5" y="120.3" class="st15" width="3.4" height="1.7"/>
				</g>
			</g>
		</g>
		<polygon class="st14" points="312,118.9 308.5,118.6 306.1,68.3 311.6,68.3 		"/>
		<polygon class="st14" points="289.4,118.7 292.8,118.4 295.5,68.3 290.1,68.3 		"/>
		<g>
			<g>
				<path class="st4" d="M314.6,44.6c0-0.1,0-0.2-0.1-0.3c-0.2-0.7-0.8-2.8-0.8-3.5c0-5.9-5.5-10.6-12.3-10.6
					c-6.8,0-12.3,4.8-12.3,10.6c0,0.7-0.6,2.7-1,3.8H314.6z"/>
				<circle class="st4" cx="301.3" cy="30.9" r="3.2"/>
				<g>
					<path class="st5" d="M294.2,32.2c1.1-0.7,2.4-1.2,3.7-1.6c0.1,0.2,0.1,0.5,0.1,0.7v8.5c0,1.1-0.9,1.9-1.9,1.9l0,0
						c-1.1,0-1.9-0.9-1.9-1.9V32.2z"/>
					<path class="st5" d="M304.7,30.5c1.3,0.3,2.6,0.8,3.7,1.5v7.9c0,1.1-0.9,1.9-1.9,1.9l0,0c-1.1,0-1.9-0.9-1.9-1.9v-8.5
						C304.5,31.1,304.6,30.8,304.7,30.5z"/>
				</g>
			</g>
			<path class="st5" d="M312.7,45c0,0.6-0.5,1-1,1h-21.2c-0.6,0-1-0.5-1-1l0,0c0-0.6,0.5-1,1-1h21.2C312.3,44,312.7,44.4,312.7,45
				L312.7,45z"/>
		</g>
	</g>
	<g class="st11">
		<path class="st0" d="M328,124.3c0,2.1-1.7,3.8-3.8,3.8l0,0c-2.1,0-3.8-1.7-3.8-3.8v-6.2c0-2.1,1.7-3.8,3.8-3.8l0,0
			c2.1,0,3.8,1.7,3.8,3.8V124.3z"/>
		<path class="st39" d="M320.9,72.4c-3.3-2.1-10.4-3.7-18.8-3.8V122h13V84.1c1.6,2.4,3.8,6.6,3.8,13.1V118h10.3V97.2
			C329.3,86.5,326.7,75.8,320.9,72.4z"/>
		<path class="st2" d="M302.2,40.6v24.9c6.3-0.5,11.2-5.9,11.2-12.4S308.4,41.1,302.2,40.6z"/>
		<path class="st3" d="M302.2,40.6v7.7c1.8,0.9,3.9,1.2,5.7,0.1c1.2-0.7,2.7-0.2,3.4,0.9c0.3,0.5,1.1,1,2,1.4
			C312.2,45.3,307.7,41.1,302.2,40.6z"/>
		<path class="st2" d="M314.9,53.5c0,1.8-0.6,3.3-1.3,3.3c-0.7,0-1.3-1.5-1.3-3.3c0-1.8,0.6-3.3,1.3-3.3
			C314.3,50.2,314.9,51.7,314.9,53.5z"/>
		<path class="st6" d="M315.4,122.1l-0.2-0.7h-13.1V132h1.8c4.6,11.9,7.2,35.4,6.8,50.8l12.8,0.4C323.8,172.2,323,138.2,315.4,122.1
			z"/>
		<path class="st7" d="M325.5,186.6c0.1-0.4,0.2-0.9,0.2-1.4c0-2.5-2-4.4-4.4-4.4h-7.7c-2.5,0-4.4,2-4.4,4.4c0,0.5,0.1,0.9,0.2,1.4
			H325.5z"/>
		<path class="st37" d="M323.7,165.3c-0.3-5.6-0.8-11.7-1.5-17.7h-14.8c1,5.7,1.8,11.8,2.2,17.7H323.7z"/>
		<path class="st40" d="M318.5,104.5h11.3v-7.3c0-1.8-0.1-3.6-0.2-5.5h-11.6c0.4,1.7,0.6,3.6,0.6,5.5V104.5z"/>
		<path class="st1" d="M302.2,68.6v49.8h7.6V69.1C307.4,68.8,304.8,68.6,302.2,68.6z"/>
		<path class="st0" d="M302.2,68.6v4.3c2.3-0.5,4-2.3,4-4.1C306.1,68.8,304.3,68.6,302.2,68.6z"/>
		<rect x="302.2" y="118.5" class="st21" width="14.3" height="5.5"/>
		<g>
			<g>
				<g>
					<polygon class="st15" points="302.2,117.3 302.2,118.4 304.2,118.4 304.2,124 302.2,124 302.2,125 305.2,125 305.2,117.3 					
						"/>
				</g>
				<g>
					<rect x="302.5" y="120.3" class="st15" width="3.4" height="1.7"/>
				</g>
			</g>
		</g>
		<polygon class="st14" points="312,118.9 308.5,118.6 306.1,68.3 311.6,68.3 		"/>
		<g>
			<g>
				<path class="st4" d="M302.2,44.6h12.4c0-0.1,0-0.2-0.1-0.3c-0.2-0.7-0.8-2.8-0.8-3.5c0-5.7-5.1-10.3-11.6-10.6V44.6z"/>
				<path class="st4" d="M302.2,27.8v6.1c1.3-0.4,2.3-1.6,2.3-3C304.4,29.4,303.5,28.2,302.2,27.8z"/>
				<g>
					<path class="st5" d="M304.7,30.5c1.3,0.3,2.6,0.8,3.7,1.5v7.9c0,1.1-0.9,1.9-1.9,1.9l0,0c-1.1,0-1.9-0.9-1.9-1.9v-8.5
						C304.5,31.1,304.6,30.8,304.7,30.5z"/>
				</g>
			</g>
			<path class="st5" d="M311.7,44h-9.5V46h9.5c0.6,0,1-0.5,1-1C312.7,44.4,312.3,44,311.7,44z"/>
		</g>
	</g>
</g>
</svg>
